  0
SECTION
  2
HEADER
  9
$ACADVER
  1
AC1024
  9
$ACADMAINTVER
 70
     6
  9
$DWGCODEPAGE
  3
ANSI_1254
  9
$LASTSAVEDBY
  1
DOZ 3
  9
$INSBASE
 10
0.0
 20
0.0
 30
0.0
  9
$EXTMIN
 10
518392.9198
 20
4397593.691836721
 30
462.2999877929688
  9
$EXTMAX
 10
519023.72
 20
4397815.1081
 30
510.2860107421875
  9
$LIMMIN
 10
0.0
 20
0.0
  9
$LIMMAX
 10
420.0
 20
297.0
  9
$ORTHOMODE
 70
     0
  9
$REGENMODE
 70
     1
  9
$FILLMODE
 70
     1
  9
$QTEXTMODE
 70
     0
  9
$MIRRTEXT
 70
     1
  9
$LTSCALE
 40
1.0
  9
$ATTMODE
 70
     1
  9
$TEXTSIZE
 40
2.5
  9
$TRACEWID
 40
1.0
  9
$TEXTSTYLE
  7
Standard
  9
$CLAYER
  8
geofence
  9
$CELTYPE
  6
ByLayer
  9
$CECOLOR
 62
   256
  9
$CELTSCALE
 40
1.0
  9
$DISPSILH
 70
     0
  9
$DIMSCALE
 40
1.0
  9
$DIMASZ
 40
2.5
  9
$DIMEXO
 40
0.625
  9
$DIMDLI
 40
3.75
  9
$DIMRND
 40
0.0
  9
$DIMDLE
 40
0.0
  9
$DIMEXE
 40
1.25
  9
$DIMTP
 40
0.0
  9
$DIMTM
 40
0.0
  9
$DIMTXT
 40
2.5
  9
$DIMCEN
 40
2.5
  9
$DIMTSZ
 40
0.0
  9
$DIMTOL
 70
     0
  9
$DIMLIM
 70
     0
  9
$DIMTIH
 70
     0
  9
$DIMTOH
 70
     0
  9
$DIMSE1
 70
     0
  9
$DIMSE2
 70
     0
  9
$DIMTAD
 70
     1
  9
$DIMZIN
 70
     8
  9
$DIMBLK
  1

  9
$DIMASO
 70
     1
  9
$DIMSHO
 70
     1
  9
$DIMPOST
  1

  9
$DIMAPOST
  1

  9
$DIMALT
 70
     0
  9
$DIMALTD
 70
     3
  9
$DIMALTF
 40
0.03937007874016
  9
$DIMLFAC
 40
1.0
  9
$DIMTOFL
 70
     1
  9
$DIMTVP
 40
0.0
  9
$DIMTIX
 70
     0
  9
$DIMSOXD
 70
     0
  9
$DIMSAH
 70
     0
  9
$DIMBLK1
  1

  9
$DIMBLK2
  1

  9
$DIMSTYLE
  2
ISO-25
  9
$DIMCLRD
 70
     0
  9
$DIMCLRE
 70
     0
  9
$DIMCLRT
 70
     0
  9
$DIMTFAC
 40
1.0
  9
$DIMGAP
 40
0.625
  9
$DIMJUST
 70
     0
  9
$DIMSD1
 70
     0
  9
$DIMSD2
 70
     0
  9
$DIMTOLJ
 70
     0
  9
$DIMTZIN
 70
     8
  9
$DIMALTZ
 70
     0
  9
$DIMALTTZ
 70
     0
  9
$DIMUPT
 70
     0
  9
$DIMDEC
 70
     2
  9
$DIMTDEC
 70
     2
  9
$DIMALTU
 70
     2
  9
$DIMALTTD
 70
     3
  9
$DIMTXSTY
  7
Standard
  9
$DIMAUNIT
 70
     0
  9
$DIMADEC
 70
     0
  9
$DIMALTRND
 40
0.0
  9
$DIMAZIN
 70
     0
  9
$DIMDSEP
 70
    44
  9
$DIMATFIT
 70
     3
  9
$DIMFRAC
 70
     0
  9
$DIMLDRBLK
  1

  9
$DIMLUNIT
 70
     2
  9
$DIMLWD
 70
    -2
  9
$DIMLWE
 70
    -2
  9
$DIMTMOVE
 70
     0
  9
$DIMFXL
 40
1.0
  9
$DIMFXLON
 70
     0
  9
$DIMJOGANG
 40
0.7853981633974483
  9
$DIMTFILL
 70
     0
  9
$DIMTFILLCLR
 70
     0
  9
$DIMARCSYM
 70
     0
  9
$DIMLTYPE
  6

  9
$DIMLTEX1
  6

  9
$DIMLTEX2
  6

  9
$DIMTXTDIRECTION
 70
     0
  9
$LUNITS
 70
     2
  9
$LUPREC
 70
     4
  9
$SKETCHINC
 40
1.0
  9
$FILLETRAD
 40
10.0
  9
$AUNITS
 70
     0
  9
$AUPREC
 70
     0
  9
$MENU
  1
.
  9
$ELEVATION
 40
0.0
  9
$PELEVATION
 40
0.0
  9
$THICKNESS
 40
0.0
  9
$LIMCHECK
 70
     0
  9
$CHAMFERA
 40
10.0
  9
$CHAMFERB
 40
10.0
  9
$CHAMFERC
 40
20.0
  9
$CHAMFERD
 40
0.0
  9
$SKPOLY
 70
     0
  9
$TDCREATE
 40
2458116.410261968
  9
$TDUCREATE
 40
2458116.285261968
  9
$TDUPDATE
 40
2458122.216662998
  9
$TDUUPDATE
 40
2458122.091662998
  9
$TDINDWG
 40
0.0037947801
  9
$TDUSRTIMER
 40
0.0235055787
  9
$USRTIMER
 70
     1
  9
$ANGBASE
 50
0.0
  9
$ANGDIR
 70
     0
  9
$PDMODE
 70
     0
  9
$PDSIZE
 40
0.0
  9
$PLINEWID
 40
0.0
  9
$SPLFRAME
 70
     0
  9
$SPLINETYPE
 70
     6
  9
$SPLINESEGS
 70
     8
  9
$HANDSEED
  5
622
  9
$SURFTAB1
 70
     6
  9
$SURFTAB2
 70
     6
  9
$SURFTYPE
 70
     6
  9
$SURFU
 70
     6
  9
$SURFV
 70
     6
  9
$UCSBASE
  2

  9
$UCSNAME
  2

  9
$UCSORG
 10
0.0
 20
0.0
 30
0.0
  9
$UCSXDIR
 10
1.0
 20
0.0
 30
0.0
  9
$UCSYDIR
 10
0.0
 20
1.0
 30
0.0
  9
$UCSORTHOREF
  2

  9
$UCSORTHOVIEW
 70
     0
  9
$UCSORGTOP
 10
0.0
 20
0.0
 30
0.0
  9
$UCSORGBOTTOM
 10
0.0
 20
0.0
 30
0.0
  9
$UCSORGLEFT
 10
0.0
 20
0.0
 30
0.0
  9
$UCSORGRIGHT
 10
0.0
 20
0.0
 30
0.0
  9
$UCSORGFRONT
 10
0.0
 20
0.0
 30
0.0
  9
$UCSORGBACK
 10
0.0
 20
0.0
 30
0.0
  9
$PUCSBASE
  2

  9
$PUCSNAME
  2

  9
$PUCSORG
 10
0.0
 20
0.0
 30
0.0
  9
$PUCSXDIR
 10
1.0
 20
0.0
 30
0.0
  9
$PUCSYDIR
 10
0.0
 20
1.0
 30
0.0
  9
$PUCSORTHOREF
  2

  9
$PUCSORTHOVIEW
 70
     0
  9
$PUCSORGTOP
 10
0.0
 20
0.0
 30
0.0
  9
$PUCSORGBOTTOM
 10
0.0
 20
0.0
 30
0.0
  9
$PUCSORGLEFT
 10
0.0
 20
0.0
 30
0.0
  9
$PUCSORGRIGHT
 10
0.0
 20
0.0
 30
0.0
  9
$PUCSORGFRONT
 10
0.0
 20
0.0
 30
0.0
  9
$PUCSORGBACK
 10
0.0
 20
0.0
 30
0.0
  9
$USERI1
 70
     0
  9
$USERI2
 70
     0
  9
$USERI3
 70
     0
  9
$USERI4
 70
     0
  9
$USERI5
 70
     0
  9
$USERR1
 40
0.0
  9
$USERR2
 40
0.0
  9
$USERR3
 40
0.0
  9
$USERR4
 40
0.0
  9
$USERR5
 40
0.0
  9
$WORLDVIEW
 70
     1
  9
$SHADEDGE
 70
     3
  9
$SHADEDIF
 70
    70
  9
$TILEMODE
 70
     1
  9
$MAXACTVP
 70
    64
  9
$PINSBASE
 10
0.0
 20
0.0
 30
0.0
  9
$PLIMCHECK
 70
     0
  9
$PEXTMIN
 10
1.000000000000000E+20
 20
1.000000000000000E+20
 30
1.000000000000000E+20
  9
$PEXTMAX
 10
-1.000000000000000E+20
 20
-1.000000000000000E+20
 30
-1.000000000000000E+20
  9
$PLIMMIN
 10
0.0
 20
0.0
  9
$PLIMMAX
 10
0.0
 20
0.0
  9
$UNITMODE
 70
     0
  9
$VISRETAIN
 70
     1
  9
$PLINEGEN
 70
     0
  9
$PSLTSCALE
 70
     1
  9
$TREEDEPTH
 70
  3020
  9
$CMLSTYLE
  2
Standard
  9
$CMLJUST
 70
     0
  9
$CMLSCALE
 40
20.0
  9
$PROXYGRAPHICS
 70
     1
  9
$MEASUREMENT
 70
     1
  9
$CELWEIGHT
370
    -1
  9
$ENDCAPS
280
     0
  9
$JOINSTYLE
280
     0
  9
$LWDISPLAY
290
     0
  9
$INSUNITS
 70
     4
  9
$HYPERLINKBASE
  1

  9
$STYLESHEET
  1

  9
$XEDIT
290
     1
  9
$CEPSNTYPE
380
     0
  9
$PSTYLEMODE
290
     1
  9
$FINGERPRINTGUID
  2
{2E0F16CF-99F6-4060-9BDB-872B13B9F9B7}
  9
$VERSIONGUID
  2
{FAEB1C32-E019-11D5-929B-00C0DF256EC4}
  9
$EXTNAMES
290
     1
  9
$PSVPSCALE
 40
0.0
  9
$OLESTARTUP
290
     0
  9
$SORTENTS
280
   127
  9
$INDEXCTL
280
     0
  9
$HIDETEXT
280
     1
  9
$XCLIPFRAME
280
     2
  9
$HALOGAP
280
     0
  9
$OBSCOLOR
 70
   257
  9
$OBSLTYPE
280
     0
  9
$INTERSECTIONDISPLAY
280
     0
  9
$INTERSECTIONCOLOR
 70
   257
  9
$DIMASSOC
280
     2
  9
$PROJECTNAME
  1

  9
$CAMERADISPLAY
290
     0
  9
$LENSLENGTH
 40
50.0
  9
$CAMERAHEIGHT
 40
0.0
  9
$STEPSPERSEC
 40
2.0
  9
$STEPSIZE
 40
6.0
  9
$3DDWFPREC
 40
2.0
  9
$PSOLWIDTH
 40
5.0
  9
$PSOLHEIGHT
 40
80.0
  9
$LOFTANG1
 40
1.570796326794897
  9
$LOFTANG2
 40
1.570796326794897
  9
$LOFTMAG1
 40
0.0
  9
$LOFTMAG2
 40
0.0
  9
$LOFTPARAM
 70
     7
  9
$LOFTNORMALS
280
     1
  9
$LATITUDE
 40
37.795
  9
$LONGITUDE
 40
-122.394
  9
$NORTHDIRECTION
 40
0.0
  9
$TIMEZONE
 70
 -8000
  9
$LIGHTGLYPHDISPLAY
280
     1
  9
$TILEMODELIGHTSYNCH
280
     1
  9
$SOLIDHIST
280
     1
  9
$SHOWHIST
280
     1
  9
$DWFFRAME
280
     2
  9
$DGNFRAME
280
     2
  9
$REALWORLDSCALE
290
     1
  9
$INTERFERECOLOR
 62
   256
  9
$CSHADOW
280
     0
  9
$SHADOWPLANELOCATION
 40
0.0
  0
ENDSEC
  0
SECTION
  2
CLASSES
  0
CLASS
  1
ACDBDICTIONARYWDFLT
  2
AcDbDictionaryWithDefault
  3
ObjectDBX Classes
 90
        0
 91
        4
280
     0
281
     0
  0
CLASS
  1
VISUALSTYLE
  2
AcDbVisualStyle
  3
ObjectDBX Classes
 90
     4095
 91
        4
280
     0
281
     0
  0
CLASS
  1
MATERIAL
  2
AcDbMaterial
  3
ObjectDBX Classes
 90
     1153
 91
        4
280
     0
281
     0
  0
CLASS
  1
SCALE
  2
AcDbScale
  3
ObjectDBX Classes
 90
     1153
 91
        4
280
     0
281
     0
  0
CLASS
  1
TABLESTYLE
  2
AcDbTableStyle
  3
ObjectDBX Classes
 90
     4095
 91
        4
280
     0
281
     0
  0
CLASS
  1
MLEADERSTYLE
  2
AcDbMLeaderStyle
  3
ACDB_MLEADERSTYLE_CLASS
 90
     4095
 91
        4
280
     0
281
     0
  0
CLASS
  1
SUN
  2
AcDbSun
  3
SCENEOE
 90
     1153
 91
        4
280
     0
281
     0
  0
CLASS
  1
DICTIONARYVAR
  2
AcDbDictionaryVar
  3
ObjectDBX Classes
 90
        0
 91
        4
280
     0
281
     0
  0
CLASS
  1
CELLSTYLEMAP
  2
AcDbCellStyleMap
  3
ObjectDBX Classes
 90
     1152
 91
        4
280
     0
281
     0
  0
ENDSEC
  0
SECTION
  2
TABLES
  0
TABLE
  2
VPORT
  5
8
330
0
100
AcDbSymbolTable
 70
     2
  0
VPORT
  5
528
330
8
100
AcDbSymbolTableRecord
100
AcDbViewportTableRecord
  2
*Active
 70
     0
 10
0.0
 20
0.0
 11
1.0
 21
1.0
 12
519271.9158537277
 22
4397512.813272633
 13
0.0
 23
0.0
 14
10.0
 24
10.0
 15
10.0
 25
10.0
 16
0.0
 26
0.1289992183446884
 36
0.9916446935297358
 17
-308.0143825666599
 27
36946.18566959538
 37
567394.5583307247
 40
37.40950504739153
 41
2.363849765258216
 42
50.0
 43
0.0
 44
0.0
 50
0.0
 51
180.0
 71
    16
 72
   100
 73
     1
 74
     3
 75
     0
 76
     0
 77
     0
 78
     0
281
     0
 65
     1
110
0.0
120
0.0
130
0.0
111
1.0
121
0.0
131
0.0
112
0.0
122
1.0
132
0.0
 79
     0
146
0.0
348
2F
 60
     3
 61
     5
292
     1
282
     1
141
0.0
142
0.0
 63
   250
361
529
  0
ENDTAB
  0
TABLE
  2
LTYPE
  5
5
330
0
100
AcDbSymbolTable
 70
     1
  0
LTYPE
  5
14
330
5
100
AcDbSymbolTableRecord
100
AcDbLinetypeTableRecord
  2
ByBlock
 70
     0
  3

 72
    65
 73
     0
 40
0.0
  0
LTYPE
  5
15
330
5
100
AcDbSymbolTableRecord
100
AcDbLinetypeTableRecord
  2
ByLayer
 70
     0
  3

 72
    65
 73
     0
 40
0.0
  0
LTYPE
  5
16
330
5
100
AcDbSymbolTableRecord
100
AcDbLinetypeTableRecord
  2
Continuous
 70
     0
  3
Solid line
 72
    65
 73
     0
 40
0.0
  0
ENDTAB
  0
TABLE
  2
LAYER
  5
2
102
{ACAD_XDICTIONARY
360
51E
102
}
330
0
100
AcDbSymbolTable
 70
    10
  0
LAYER
  5
10
330
2
100
AcDbSymbolTableRecord
100
AcDbLayerTableRecord
  2
0
 70
     4
 62
     7
  6
Continuous
370
     0
390
F
347
3E
  0
LAYER
  5
3F
330
2
100
AcDbSymbolTableRecord
100
AcDbLayerTableRecord
  2
kat1
 70
     4
 62
     4
  6
Continuous
370
     0
390
F
347
3E
  0
LAYER
  5
44
330
2
100
AcDbSymbolTableRecord
100
AcDbLayerTableRecord
  2
BINA
 70
     4
 62
    -1
  6
Continuous
370
     0
390
F
347
3E
  0
LAYER
  5
521
330
2
100
AcDbSymbolTableRecord
100
AcDbLayerTableRecord
  2
INIT_COORD
 70
     4
 62
     7
  6
Continuous
370
     0
390
F
347
3E
1001
AcAecLayerStandard
1000

1000

  0
LAYER
  5
556
330
2
100
AcDbSymbolTableRecord
100
AcDbLayerTableRecord
  2
geo_ref
 70
     0
 62
     1
  6
Continuous
370
     0
390
F
347
3E
1001
AcAecLayerStandard
1000

1000

  0
LAYER
  5
589
330
2
100
AcDbSymbolTableRecord
100
AcDbLayerTableRecord
  2
geofence
 70
     4
 62
     2
  6
Continuous
370
     0
390
F
347
3E
1001
AcAecLayerStandard
1000

1000

  0
ENDTAB
  0
TABLE
  2
STYLE
  5
3
330
0
100
AcDbSymbolTable
 70
     1
  0
STYLE
  5
11
330
3
100
AcDbSymbolTableRecord
100
AcDbTextStyleTableRecord
  2
Standard
 70
     0
 40
0.0
 41
1.0
 50
0.0
 71
     0
 42
2.5
  3
C:\Windows\Font\TIMES.TTF
  4

  0
ENDTAB
  0
TABLE
  2
VIEW
  5
6
330
0
100
AcDbSymbolTable
 70
     0
  0
ENDTAB
  0
TABLE
  2
UCS
  5
7
330
0
100
AcDbSymbolTable
 70
     0
  0
ENDTAB
  0
TABLE
  2
APPID
  5
9
330
0
100
AcDbSymbolTable
 70
     2
  0
APPID
  5
12
330
9
100
AcDbSymbolTableRecord
100
AcDbRegAppTableRecord
  2
ACAD
 70
     0
  0
APPID
  5
522
330
9
100
AcDbSymbolTableRecord
100
AcDbRegAppTableRecord
  2
AcAecLayerStandard
 70
     0
  0
ENDTAB
  0
TABLE
  2
DIMSTYLE
  5
A
330
0
100
AcDbSymbolTable
 70
     1
100
AcDbDimStyleTable
  0
DIMSTYLE
105
27
330
A
100
AcDbSymbolTableRecord
100
AcDbDimStyleTableRecord
  2
ISO-25
 70
     0
 41
2.5
 42
0.625
 43
3.75
 44
1.25
 73
     0
 74
     0
 77
     1
 78
     8
140
2.5
141
2.5
143
0.03937007874016
147
0.625
171
     3
172
     1
178
     0
271
     2
272
     2
274
     3
278
    44
283
     0
284
     8
340
11
  0
ENDTAB
  0
TABLE
  2
BLOCK_RECORD
  5
1
330
0
100
AcDbSymbolTable
 70
     1
  0
BLOCK_RECORD
  5
1F
330
1
100
AcDbSymbolTableRecord
100
AcDbBlockTableRecord
  2
*Model_Space
340
22
 70
     0
280
     1
281
     0
  0
BLOCK_RECORD
  5
1B
330
1
100
AcDbSymbolTableRecord
100
AcDbBlockTableRecord
  2
*Paper_Space
340
1E
 70
     0
280
     1
281
     0
  0
BLOCK_RECORD
  5
23
330
1
100
AcDbSymbolTableRecord
100
AcDbBlockTableRecord
  2
*Paper_Space0
340
26
 70
     0
280
     1
281
     0
  0
ENDTAB
  0
ENDSEC
  0
SECTION
  2
BLOCKS
  0
BLOCK
  5
20
330
1F
100
AcDbEntity
  8
0
100
AcDbBlockBegin
  2
*Model_Space
 70
     0
 10
0.0
 20
0.0
 30
0.0
  3
*Model_Space
  1

  0
ENDBLK
  5
21
330
1F
100
AcDbEntity
  8
0
100
AcDbBlockEnd
  0
BLOCK
  5
1C
330
1B
100
AcDbEntity
 67
     1
  8
0
100
AcDbBlockBegin
  2
*Paper_Space
 70
     0
 10
0.0
 20
0.0
 30
0.0
  3
*Paper_Space
  1

  0
ENDBLK
  5
1D
330
1B
100
AcDbEntity
 67
     1
  8
0
100
AcDbBlockEnd
  0
BLOCK
  5
24
330
23
100
AcDbEntity
  8
0
100
AcDbBlockBegin
  2
*Paper_Space0
 70
     0
 10
0.0
 20
0.0
 30
0.0
  3
*Paper_Space0
  1

  0
ENDBLK
  5
25
330
23
100
AcDbEntity
  8
0
100
AcDbBlockEnd
  0
ENDSEC
  0
SECTION
  2
ENTITIES
  0
POINT
  5
45
330
1F
100
AcDbEntity
  8
kat1
370
     0
100
AcDbPoint
 10
518943.6185
 20
4397803.1075
 30
463.8999938964844
  0
POINT
  5
46
330
1F
100
AcDbEntity
  8
kat1
370
     0
100
AcDbPoint
 10
518942.8927
 20
4397802.9982
 30
463.8999938964844
  0
POINT
  5
47
330
1F
100
AcDbEntity
  8
kat1
370
     0
100
AcDbPoint
 10
518941.4096
 20
4397803.733
 30
463.8999938964844
  0
POINT
  5
48
330
1F
100
AcDbEntity
  8
kat1
370
     0
100
AcDbPoint
 10
518941.2194
 20
4397804.1319
 30
463.8999938964844
  0
POINT
  5
49
330
1F
100
AcDbEntity
  8
kat1
370
     0
100
AcDbPoint
 10
518942.9297
 20
4397810.3773
 30
463.75
  0
POINT
  5
4A
330
1F
100
AcDbEntity
  8
kat1
370
     0
100
AcDbPoint
 10
518942.2743
 20
4397810.6331
 30
463.75
  0
POINT
  5
4B
330
1F
100
AcDbEntity
  8
kat1
370
     0
100
AcDbPoint
 10
518942.8899
 20
4397812.7494
 30
463.75
  0
POINT
  5
4C
330
1F
100
AcDbEntity
  8
kat1
370
     0
100
AcDbPoint
 10
518944.6977290878
 20
4397812.668126983
 30
463.75
  0
POINT
  5
4D
330
1F
100
AcDbEntity
  8
kat1
370
     0
100
AcDbPoint
 10
518945.6554854053
 20
4397813.052245376
 30
463.6000061035156
  0
POINT
  5
4E
330
1F
100
AcDbEntity
  8
kat1
370
     0
100
AcDbPoint
 10
518946.233
 20
4397813.9189
 30
463.6000061035156
  0
POINT
  5
4F
330
1F
100
AcDbEntity
  8
kat1
370
     0
100
AcDbPoint
 10
518947.2741297242
 20
4397814.138614605
 30
463.6000061035156
  0
POINT
  5
50
330
1F
100
AcDbEntity
  8
kat1
370
     0
100
AcDbPoint
 10
518948.0733653653
 20
4397814.379756915
 30
463.6000061035156
  0
POINT
  5
51
330
1F
100
AcDbEntity
  8
kat1
370
     0
100
AcDbPoint
 10
518950.0074767311
 20
4397813.499734662
 30
463.6000061035156
  0
POINT
  5
52
330
1F
100
AcDbEntity
  8
kat1
370
     0
100
AcDbPoint
 10
518952.4421122615
 20
4397813.959224186
 30
463.5
  0
POINT
  5
53
330
1F
100
AcDbEntity
  8
kat1
370
     0
100
AcDbPoint
 10
518954.38950265
 20
4397814.502636159
 30
463.5
  0
POINT
  5
54
330
1F
100
AcDbEntity
  8
kat1
370
     0
100
AcDbPoint
 10
518956.0707976164
 20
4397814.629844662
 30
463.5
  0
POINT
  5
55
330
1F
100
AcDbEntity
  8
kat1
370
     0
100
AcDbPoint
 10
518957.7101
 20
4397815.1081
 30
463.5
  0
POINT
  5
56
330
1F
100
AcDbEntity
  8
kat1
370
     0
100
AcDbPoint
 10
518959.9517
 20
4397814.0971
 30
463.5
  0
POINT
  5
57
330
1F
100
AcDbEntity
  8
kat1
370
     0
100
AcDbPoint
 10
518961.3502
 20
4397814.759
 30
463.5
  0
POINT
  5
58
330
1F
100
AcDbEntity
  8
kat1
370
     0
100
AcDbPoint
 10
518961.8201
 20
4397814.6651
 30
463.5
  0
POINT
  5
59
330
1F
100
AcDbEntity
  8
kat1
370
     0
100
AcDbPoint
 10
518962.7518
 20
4397813.8592
 30
463.5
  0
POINT
  5
5A
330
1F
100
AcDbEntity
  8
kat1
370
     0
100
AcDbPoint
 10
518962.9911
 20
4397813.7144
 30
463.5
  0
POINT
  5
5B
330
1F
100
AcDbEntity
  8
kat1
370
     0
100
AcDbPoint
 10
518966.2498
 20
4397809.0424
 30
463.5
  0
POINT
  5
5C
330
1F
100
AcDbEntity
  8
kat1
370
     0
100
AcDbPoint
 10
518968.8066
 20
4397806.6292
 30
463.3999938964844
  0
POINT
  5
5D
330
1F
100
AcDbEntity
  8
kat1
370
     0
100
AcDbPoint
 10
518971.0949
 20
4397805.2985
 30
463.3999938964844
  0
POINT
  5
5E
330
1F
100
AcDbEntity
  8
kat1
370
     0
100
AcDbPoint
 10
518974.8203
 20
4397804.5502
 30
463.3999938964844
  0
POINT
  5
5F
330
1F
100
AcDbEntity
  8
kat1
370
     0
100
AcDbPoint
 10
518978.1836
 20
4397803.7221
 30
463.2000122070312
  0
POINT
  5
60
330
1F
100
AcDbEntity
  8
kat1
370
     0
100
AcDbPoint
 10
518979.1837
 20
4397803.5247
 30
463.2000122070312
  0
POINT
  5
61
330
1F
100
AcDbEntity
  8
kat1
370
     0
100
AcDbPoint
 10
518983.1108
 20
4397802.3298
 30
463.2000122070312
  0
POINT
  5
62
330
1F
100
AcDbEntity
  8
kat1
370
     0
100
AcDbPoint
 10
518984.779
 20
4397801.7236
 30
463.2000122070312
  0
POINT
  5
63
330
1F
100
AcDbEntity
  8
kat1
370
     0
100
AcDbPoint
 10
518988.841
 20
4397799.6074
 30
463.2000122070312
  0
POINT
  5
64
330
1F
100
AcDbEntity
  8
kat1
370
     0
100
AcDbPoint
 10
518993.183
 20
4397797.2216
 30
462.8999938964844
  0
POINT
  5
65
330
1F
100
AcDbEntity
  8
kat1
370
     0
100
AcDbPoint
 10
519005.674
 20
4397779.649
 30
462.7000122070312
  0
POINT
  5
66
330
1F
100
AcDbEntity
  8
kat1
370
     0
100
AcDbPoint
 10
519015.512
 20
4397774.23
 30
463.6000061035156
  0
POINT
  5
67
330
1F
100
AcDbEntity
  8
kat1
370
     0
100
AcDbPoint
 10
519021.143
 20
4397756.991
 30
462.3999938964844
  0
POINT
  5
68
330
1F
100
AcDbEntity
  8
kat1
370
     0
100
AcDbPoint
 10
519020.982
 20
4397754.975
 30
462.3999938964844
  0
POINT
  5
69
330
1F
100
AcDbEntity
  8
kat1
370
     0
100
AcDbPoint
 10
519020.193
 20
4397752.832
 30
462.3999938964844
  0
POINT
  5
6A
330
1F
100
AcDbEntity
  8
kat1
370
     0
100
AcDbPoint
 10
519019.236
 20
4397750.691
 30
462.2999877929688
  0
POINT
  5
6B
330
1F
100
AcDbEntity
  8
kat1
370
     0
100
AcDbPoint
 10
519019.56
 20
4397750.566
 30
462.2999877929688
  0
POINT
  5
6C
330
1F
100
AcDbEntity
  8
kat1
370
     0
100
AcDbPoint
 10
519020.042
 20
4397750.233
 30
462.2999877929688
  0
POINT
  5
6D
330
1F
100
AcDbEntity
  8
kat1
370
     0
100
AcDbPoint
 10
519020.813
 20
4397750.11
 30
462.2999877929688
  0
POINT
  5
6E
330
1F
100
AcDbEntity
  8
kat1
370
     0
100
AcDbPoint
 10
519022.018
 20
4397750.009
 30
462.2999877929688
  0
POINT
  5
6F
330
1F
100
AcDbEntity
  8
kat1
370
     0
100
AcDbPoint
 10
519023.531
 20
4397749.912
 30
462.2999877929688
  0
POINT
  5
70
330
1F
100
AcDbEntity
  8
kat1
370
     0
100
AcDbPoint
 10
519023.576
 20
4397749.785
 30
462.2999877929688
  0
POINT
  5
71
330
1F
100
AcDbEntity
  8
kat1
370
     0
100
AcDbPoint
 10
519023.633
 20
4397748.999
 30
462.2999877929688
  0
POINT
  5
72
330
1F
100
AcDbEntity
  8
kat1
370
     0
100
AcDbPoint
 10
519023.72
 20
4397748.439
 30
462.2999877929688
  0
POINT
  5
73
330
1F
100
AcDbEntity
  8
kat1
370
     0
100
AcDbPoint
 10
519023.479
 20
4397748.219
 30
462.2999877929688
  0
POINT
  5
74
330
1F
100
AcDbEntity
  8
kat1
370
     0
100
AcDbPoint
 10
519023.15
 20
4397748.13
 30
462.2999877929688
  0
POINT
  5
75
330
1F
100
AcDbEntity
  8
kat1
370
     0
100
AcDbPoint
 10
519022.44
 20
4397748.011
 30
462.2999877929688
  0
POINT
  5
76
330
1F
100
AcDbEntity
  8
kat1
370
     0
100
AcDbPoint
 10
519020.934
 20
4397747.922
 30
462.2999877929688
  0
POINT
  5
77
330
1F
100
AcDbEntity
  8
kat1
370
     0
100
AcDbPoint
 10
519019.347
 20
4397747.795
 30
462.2999877929688
  0
POINT
  5
78
330
1F
100
AcDbEntity
  8
kat1
370
     0
100
AcDbPoint
 10
519018.063
 20
4397748.579
 30
462.2999877929688
  0
POINT
  5
79
330
1F
100
AcDbEntity
  8
kat1
370
     0
100
AcDbPoint
 10
519016.574
 20
4397745.526
 30
463.1000061035156
  0
POINT
  5
7A
330
1F
100
AcDbEntity
  8
kat1
370
     0
100
AcDbPoint
 10
519013.889
 20
4397746.345
 30
463.1000061035156
  0
POINT
  5
7B
330
1F
100
AcDbEntity
  8
kat1
370
     0
100
AcDbPoint
 10
519015.534
 20
4397749.197
 30
462.2999877929688
  0
POINT
  5
7C
330
1F
100
AcDbEntity
  8
kat1
370
     0
100
AcDbPoint
 10
519017.298
 20
4397752.688
 30
462.3999938964844
  0
POINT
  5
7D
330
1F
100
AcDbEntity
  8
kat1
370
     0
100
AcDbPoint
 10
519018.22
 20
4397754.141
 30
462.3999938964844
  0
POINT
  5
7E
330
1F
100
AcDbEntity
  8
kat1
370
     0
100
AcDbPoint
 10
519018.443
 20
4397755.911
 30
462.3999938964844
  0
POINT
  5
7F
330
1F
100
AcDbEntity
  8
kat1
370
     0
100
AcDbPoint
 10
519013.9740292082
 20
4397771.683199489
 30
463.6000061035156
  0
POINT
  5
80
330
1F
100
AcDbEntity
  8
kat1
370
     0
100
AcDbPoint
 10
519004.338
 20
4397776.808
 30
462.7000122070312
  0
POINT
  5
81
330
1F
100
AcDbEntity
  8
kat1
370
     0
100
AcDbPoint
 10
518990.9169
 20
4397795.1222
 30
462.8999938964844
  0
POINT
  5
82
330
1F
100
AcDbEntity
  8
kat1
370
     0
100
AcDbPoint
 10
518988.3541471722
 20
4397796.607298283
 30
463.2000122070312
  0
POINT
  5
83
330
1F
100
AcDbEntity
  8
kat1
370
     0
100
AcDbPoint
 10
518988.1022
 20
4397796.7533
 30
463.2000122070312
  0
POINT
  5
84
330
1F
100
AcDbEntity
  8
kat1
370
     0
100
AcDbPoint
 10
518987.2397
 20
4397796.5366
 30
463.2000122070312
  0
POINT
  5
85
330
1F
100
AcDbEntity
  8
kat1
370
     0
100
AcDbPoint
 10
518984.9549
 20
4397796.9127
 30
463.2000122070312
  0
POINT
  5
86
330
1F
100
AcDbEntity
  8
kat1
370
     0
100
AcDbPoint
 10
518984.0078
 20
4397796.677
 30
463.2000122070312
  0
POINT
  5
87
330
1F
100
AcDbEntity
  8
kat1
370
     0
100
AcDbPoint
 10
518983.0928
 20
4397795.1514
 30
463.5
  0
POINT
  5
88
330
1F
100
AcDbEntity
  8
kat1
370
     0
100
AcDbPoint
 10
518981.4596
 20
4397791.322
 30
463.5
  0
POINT
  5
89
330
1F
100
AcDbEntity
  8
kat1
370
     0
100
AcDbPoint
 10
518980.2204
 20
4397789.8612
 30
463.5
  0
POINT
  5
8A
330
1F
100
AcDbEntity
  8
kat1
370
     0
100
AcDbPoint
 10
518979.2558
 20
4397789.1455
 30
463.5
  0
POINT
  5
8B
330
1F
100
AcDbEntity
  8
kat1
370
     0
100
AcDbPoint
 10
518978.3732
 20
4397789.5035
 30
463.5
  0
POINT
  5
8C
330
1F
100
AcDbEntity
  8
kat1
370
     0
100
AcDbPoint
 10
518978.1635
 20
4397790.668
 30
463.5
  0
POINT
  5
8D
330
1F
100
AcDbEntity
  8
kat1
370
     0
100
AcDbPoint
 10
518980.435
 20
4397794.6096
 30
463.5
  0
POINT
  5
8E
330
1F
100
AcDbEntity
  8
kat1
370
     0
100
AcDbPoint
 10
518981.3761
 20
4397797.9334
 30
463.2000122070312
  0
POINT
  5
8F
330
1F
100
AcDbEntity
  8
kat1
370
     0
100
AcDbPoint
 10
518982.3683124752
 20
4397799.977488549
 30
463.2000122070312
  0
POINT
  5
90
330
1F
100
AcDbEntity
  8
kat1
370
     0
100
AcDbPoint
 10
518980.4920727212
 20
4397800.848220517
 30
463.2000122070312
  0
POINT
  5
91
330
1F
100
AcDbEntity
  8
kat1
370
     0
100
AcDbPoint
 10
518979.5074891514
 20
4397801.305149536
 30
463.2000122070312
  0
POINT
  5
92
330
1F
100
AcDbEntity
  8
kat1
370
     0
100
AcDbPoint
 10
518974.6744
 20
4397801.3554
 30
463.3999938964844
  0
POINT
  5
93
330
1F
100
AcDbEntity
  8
kat1
370
     0
100
AcDbPoint
 10
518972.9914497415
 20
4397801.970868854
 30
463.3999938964844
  0
POINT
  5
94
330
1F
100
AcDbEntity
  8
kat1
370
     0
100
AcDbPoint
 10
518972.0974
 20
4397801.1741
 30
463.3999938964844
  0
POINT
  5
95
330
1F
100
AcDbEntity
  8
kat1
370
     0
100
AcDbPoint
 10
518971.3849
 20
4397800.2807
 30
463.3999938964844
  0
POINT
  5
96
330
1F
100
AcDbEntity
  8
kat1
370
     0
100
AcDbPoint
 10
518970.6286
 20
4397800.5801
 30
463.3999938964844
  0
POINT
  5
97
330
1F
100
AcDbEntity
  8
kat1
370
     0
100
AcDbPoint
 10
518969.8596
 20
4397800.9633
 30
463.3999938964844
  0
POINT
  5
98
330
1F
100
AcDbEntity
  8
kat1
370
     0
100
AcDbPoint
 10
518969.7773
 20
4397801.8543
 30
463.3999938964844
  0
POINT
  5
99
330
1F
100
AcDbEntity
  8
kat1
370
     0
100
AcDbPoint
 10
518969.4966339754
 20
4397802.568327957
 30
463.3999938964844
  0
POINT
  5
9A
330
1F
100
AcDbEntity
  8
kat1
370
     0
100
AcDbPoint
 10
518969.0529
 20
4397802.5749
 30
463.3999938964844
  0
POINT
  5
9B
330
1F
100
AcDbEntity
  8
kat1
370
     0
100
AcDbPoint
 10
518967.1799
 20
4397804.2769
 30
463.3999938964844
  0
POINT
  5
9C
330
1F
100
AcDbEntity
  8
kat1
370
     0
100
AcDbPoint
 10
518964.2668
 20
4397805.2652
 30
463.5
  0
POINT
  5
9D
330
1F
100
AcDbEntity
  8
kat1
370
     0
100
AcDbPoint
 10
518963.4386
 20
4397803.9931
 30
463.5
  0
POINT
  5
9E
330
1F
100
AcDbEntity
  8
kat1
370
     0
100
AcDbPoint
 10
518960.5959
 20
4397795.0361
 30
463.7999877929688
  0
POINT
  5
9F
330
1F
100
AcDbEntity
  8
kat1
370
     0
100
AcDbPoint
 10
518959.992
 20
4397793.725
 30
463.7999877929688
  0
POINT
  5
A0
330
1F
100
AcDbEntity
  8
kat1
370
     0
100
AcDbPoint
 10
518958.9873
 20
4397791.8008
 30
463.7999877929688
  0
POINT
  5
A1
330
1F
100
AcDbEntity
  8
kat1
370
     0
100
AcDbPoint
 10
518958.1596
 20
4397791.9873
 30
463.7999877929688
  0
POINT
  5
A2
330
1F
100
AcDbEntity
  8
kat1
370
     0
100
AcDbPoint
 10
518957.4947
 20
4397792.0214
 30
463.7999877929688
  0
POINT
  5
A3
330
1F
100
AcDbEntity
  8
kat1
370
     0
100
AcDbPoint
 10
518956.9595
 20
4397792.6853
 30
463.7999877929688
  0
POINT
  5
A4
330
1F
100
AcDbEntity
  8
kat1
370
     0
100
AcDbPoint
 10
518959.9542
 20
4397803.6133
 30
463.5
  0
POINT
  5
A5
330
1F
100
AcDbEntity
  8
kat1
370
     0
100
AcDbPoint
 10
518961.4568
 20
4397805.2512
 30
463.5
  0
POINT
  5
A6
330
1F
100
AcDbEntity
  8
kat1
370
     0
100
AcDbPoint
 10
518961.6234
 20
4397805.8924
 30
463.5
  0
POINT
  5
A7
330
1F
100
AcDbEntity
  8
kat1
370
     0
100
AcDbPoint
 10
518961.4349
 20
4397806.1683
 30
463.5
  0
POINT
  5
A8
330
1F
100
AcDbEntity
  8
kat1
370
     0
100
AcDbPoint
 10
518956.7460027509
 20
4397807.079069789
 30
463.5
  0
POINT
  5
A9
330
1F
100
AcDbEntity
  8
kat1
370
     0
100
AcDbPoint
 10
518954.71806634
 20
4397807.580913124
 30
463.5
  0
POINT
  5
AA
330
1F
100
AcDbEntity
  8
kat1
370
     0
100
AcDbPoint
 10
518952.4646937111
 20
4397808.243499104
 30
463.5
  0
POINT
  5
AB
330
1F
100
AcDbEntity
  8
kat1
370
     0
100
AcDbPoint
 10
518949.9806757027
 20
4397809.403424779
 30
463.6000061035156
  0
POINT
  5
AC
330
1F
100
AcDbEntity
  8
kat1
370
     0
100
AcDbPoint
 10
518948.5260870486
 20
4397809.851766566
 30
463.6000061035156
  0
POINT
  5
AD
330
1F
100
AcDbEntity
  8
kat1
370
     0
100
AcDbPoint
 10
518945.4307883614
 20
4397810.742748707
 30
463.75
  0
LINE
  5
AE
330
1F
100
AcDbEntity
  8
kat1
370
     0
100
AcDbLine
 10
518941.2194
 20
4397804.1319
 30
463.8999938964844
 11
518941.4096
 21
4397803.733
 31
463.8999938964844
  0
LINE
  5
AF
330
1F
100
AcDbEntity
  8
kat1
370
     0
100
AcDbLine
 10
518941.4096
 20
4397803.733
 30
463.8999938964844
 11
518942.8927
 21
4397802.9982
 31
463.8999938964844
  0
LINE
  5
B0
330
1F
100
AcDbEntity
  8
kat1
370
     0
100
AcDbLine
 10
518942.8927
 20
4397802.9982
 30
463.8999938964844
 11
518943.6185
 21
4397803.1075
 31
463.8999938964844
  0
LINE
  5
B1
330
1F
100
AcDbEntity
  8
kat1
370
     0
100
AcDbLine
 10
518941.2194
 20
4397804.1319
 30
463.8999938964844
 11
518942.9297
 21
4397810.3773
 31
463.75
  0
LINE
  5
B2
330
1F
100
AcDbEntity
  8
kat1
370
     0
100
AcDbLine
 10
518942.9297
 20
4397810.3773
 30
463.75
 11
518942.2743
 21
4397810.6331
 31
463.75
  0
LINE
  5
B3
330
1F
100
AcDbEntity
  8
kat1
370
     0
100
AcDbLine
 10
518942.2743
 20
4397810.6331
 30
463.75
 11
518942.8899
 21
4397812.7494
 31
463.75
  0
LINE
  5
B4
330
1F
100
AcDbEntity
  8
kat1
370
     0
100
AcDbLine
 10
518942.8899
 20
4397812.7494
 30
463.75
 11
518944.6977290878
 21
4397812.668126983
 31
463.75
  0
LINE
  5
B5
330
1F
100
AcDbEntity
  8
kat1
370
     0
100
AcDbLine
 10
518945.4307883614
 20
4397810.742748707
 30
463.75
 11
518943.6185
 21
4397803.1075
 31
463.8999938964844
  0
LINE
  5
B6
330
1F
100
AcDbEntity
  8
kat1
370
     0
100
AcDbLine
 10
518944.6977290878
 20
4397812.668126983
 30
463.75
 11
518945.6554854053
 21
4397813.052245376
 31
463.6000061035156
  0
LINE
  5
B7
330
1F
100
AcDbEntity
  8
kat1
370
     0
100
AcDbLine
 10
518945.6554854053
 20
4397813.052245376
 30
463.6000061035156
 11
518946.233
 21
4397813.9189
 31
463.6000061035156
  0
LINE
  5
B8
330
1F
100
AcDbEntity
  8
kat1
370
     0
100
AcDbLine
 10
518946.233
 20
4397813.9189
 30
463.6000061035156
 11
518947.2741297242
 21
4397814.138614605
 31
463.6000061035156
  0
LINE
  5
B9
330
1F
100
AcDbEntity
  8
kat1
370
     0
100
AcDbLine
 10
518947.2741297242
 20
4397814.138614605
 30
463.6000061035156
 11
518948.0733653653
 21
4397814.379756915
 31
463.6000061035156
  0
LINE
  5
BA
330
1F
100
AcDbEntity
  8
kat1
370
     0
100
AcDbLine
 10
518948.0733653653
 20
4397814.379756915
 30
463.6000061035156
 11
518950.0074767311
 21
4397813.499734662
 31
463.6000061035156
  0
LINE
  5
BB
330
1F
100
AcDbEntity
  8
kat1
370
     0
100
AcDbLine
 10
518945.4307883614
 20
4397810.742748707
 30
463.75
 11
518948.5260870486
 21
4397809.851766566
 31
463.6000061035156
  0
LINE
  5
BC
330
1F
100
AcDbEntity
  8
kat1
370
     0
100
AcDbLine
 10
518948.5260870486
 20
4397809.851766566
 30
463.6000061035156
 11
518949.9806757027
 21
4397809.403424779
 31
463.6000061035156
  0
POINT
  5
BD
330
1F
100
AcDbEntity
  8
kat1
370
     0
100
AcDbPoint
 10
518958.2137627163
 20
4397809.503134783
 30
463.5
  0
POINT
  5
BE
330
1F
100
AcDbEntity
  8
kat1
370
     0
100
AcDbPoint
 10
518963.244271549
 20
4397807.994049805
 30
463.5
  0
POINT
  5
BF
330
1F
100
AcDbEntity
  8
kat1
370
     0
100
AcDbPoint
 10
518963.1642
 20
4397808.8152
 30
463.5
  0
POINT
  5
C0
330
1F
100
AcDbEntity
  8
kat1
370
     0
100
AcDbPoint
 10
518962.4301
 20
4397810.2757
 30
463.5
  0
POINT
  5
C1
330
1F
100
AcDbEntity
  8
kat1
370
     0
100
AcDbPoint
 10
518961.7724
 20
4397810.8345
 30
463.5
  0
POINT
  5
C2
330
1F
100
AcDbEntity
  8
kat1
370
     0
100
AcDbPoint
 10
518960.3039
 20
4397810.9341
 30
463.5
  0
POINT
  5
C3
330
1F
100
AcDbEntity
  8
kat1
370
     0
100
AcDbPoint
 10
518958.1559
 20
4397812.1262
 30
463.5
  0
POINT
  5
C4
330
1F
100
AcDbEntity
  8
kat1
370
     0
100
AcDbPoint
 10
518956.7785075998
 20
4397812.107450981
 30
463.5
  0
POINT
  5
C5
330
1F
100
AcDbEntity
  8
kat1
370
     0
100
AcDbPoint
 10
518956.9523483969
 20
4397810.613689934
 30
463.5
  0
POINT
  5
C6
330
1F
100
AcDbEntity
  8
kat1
370
     0
100
AcDbPoint
 10
518961.5850207641
 20
4397808.47020893
 30
463.5
  0
LINE
  5
C7
330
1F
100
AcDbEntity
  8
kat1
370
     0
100
AcDbLine
 10
518956.7785075998
 20
4397812.107450981
 30
463.5
 11
518958.1559
 21
4397812.1262
 31
463.5
  0
LINE
  5
C8
330
1F
100
AcDbEntity
  8
kat1
370
     0
100
AcDbLine
 10
518958.1559
 20
4397812.1262
 30
463.5
 11
518960.3039
 21
4397810.9341
 31
463.5
  0
LINE
  5
C9
330
1F
100
AcDbEntity
  8
kat1
370
     0
100
AcDbLine
 10
518960.3039
 20
4397810.9341
 30
463.5
 11
518961.7724
 21
4397810.8345
 31
463.5
  0
LINE
  5
CA
330
1F
100
AcDbEntity
  8
kat1
370
     0
100
AcDbLine
 10
518961.7724
 20
4397810.8345
 30
463.5
 11
518962.4301
 21
4397810.2757
 31
463.5
  0
LINE
  5
CB
330
1F
100
AcDbEntity
  8
kat1
370
     0
100
AcDbLine
 10
518962.4301
 20
4397810.2757
 30
463.5
 11
518963.1642
 21
4397808.8152
 31
463.5
  0
LINE
  5
CC
330
1F
100
AcDbEntity
  8
kat1
370
     0
100
AcDbLine
 10
518963.1642
 20
4397808.8152
 30
463.5
 11
518963.244271549
 21
4397807.994049805
 31
463.5
  0
LINE
  5
CD
330
1F
100
AcDbEntity
  8
kat1
370
     0
100
AcDbLine
 10
518963.244271549
 20
4397807.994049805
 30
463.5
 11
518961.5850207641
 21
4397808.47020893
 31
463.5
  0
LINE
  5
CE
330
1F
100
AcDbEntity
  8
kat1
370
     0
100
AcDbLine
 10
518961.5850207641
 20
4397808.47020893
 30
463.5
 11
518958.2137627163
 21
4397809.503134783
 31
463.5
  0
LINE
  5
CF
330
1F
100
AcDbEntity
  8
kat1
370
     0
100
AcDbLine
 10
518958.2137627163
 20
4397809.503134783
 30
463.5
 11
518956.9523483969
 21
4397810.613689934
 31
463.5
  0
LINE
  5
D0
330
1F
100
AcDbEntity
  8
kat1
370
     0
100
AcDbLine
 10
518956.9523483969
 20
4397810.613689934
 30
463.5
 11
518956.7785075998
 21
4397812.107450981
 31
463.5
  0
LINE
  5
D1
330
1F
100
AcDbEntity
  8
kat1
370
     0
100
AcDbLine
 10
518950.0074767311
 20
4397813.499734662
 30
463.6000061035156
 11
518952.4421122615
 21
4397813.959224186
 31
463.5
  0
LINE
  5
D2
330
1F
100
AcDbEntity
  8
kat1
370
     0
100
AcDbLine
 10
518952.4421122615
 20
4397813.959224186
 30
463.5
 11
518954.38950265
 21
4397814.502636159
 31
463.5
  0
LINE
  5
D3
330
1F
100
AcDbEntity
  8
kat1
370
     0
100
AcDbLine
 10
518954.38950265
 20
4397814.502636159
 30
463.5
 11
518956.0707976164
 21
4397814.629844662
 31
463.5
  0
LINE
  5
D4
330
1F
100
AcDbEntity
  8
kat1
370
     0
100
AcDbLine
 10
518956.0707976164
 20
4397814.629844662
 30
463.5
 11
518957.7101
 21
4397815.1081
 31
463.5
  0
LINE
  5
D5
330
1F
100
AcDbEntity
  8
kat1
370
     0
100
AcDbLine
 10
518957.7101
 20
4397815.1081
 30
463.5
 11
518959.9517
 21
4397814.0971
 31
463.5
  0
LINE
  5
D6
330
1F
100
AcDbEntity
  8
kat1
370
     0
100
AcDbLine
 10
518959.9517
 20
4397814.0971
 30
463.5
 11
518961.3502
 21
4397814.759
 31
463.5
  0
LINE
  5
D7
330
1F
100
AcDbEntity
  8
kat1
370
     0
100
AcDbLine
 10
518961.3502
 20
4397814.759
 30
463.5
 11
518961.8201
 21
4397814.6651
 31
463.5
  0
LINE
  5
D8
330
1F
100
AcDbEntity
  8
kat1
370
     0
100
AcDbLine
 10
518961.8201
 20
4397814.6651
 30
463.5
 11
518962.7518
 21
4397813.8592
 31
463.5
  0
LINE
  5
D9
330
1F
100
AcDbEntity
  8
kat1
370
     0
100
AcDbLine
 10
518962.7518
 20
4397813.8592
 30
463.5
 11
518962.9911
 21
4397813.7144
 31
463.5
  0
LINE
  5
DA
330
1F
100
AcDbEntity
  8
kat1
370
     0
100
AcDbLine
 10
518962.9911
 20
4397813.7144
 30
463.5
 11
518966.2498
 21
4397809.0424
 31
463.5
  0
LINE
  5
DB
330
1F
100
AcDbEntity
  8
kat1
370
     0
100
AcDbLine
 10
518952.4646937111
 20
4397808.243499104
 30
463.5
 11
518954.71806634
 21
4397807.580913124
 31
463.5
  0
LINE
  5
DC
330
1F
100
AcDbEntity
  8
kat1
370
     0
100
AcDbLine
 10
518954.71806634
 20
4397807.580913124
 30
463.5
 11
518956.7460027509
 21
4397807.079069789
 31
463.5
  0
LINE
  5
DD
330
1F
100
AcDbEntity
  8
kat1
370
     0
100
AcDbLine
 10
518956.7460027509
 20
4397807.079069789
 30
463.5
 11
518961.4349
 21
4397806.1683
 31
463.5
  0
LINE
  5
DE
330
1F
100
AcDbEntity
  8
kat1
370
     0
100
AcDbLine
 10
518961.4349
 20
4397806.1683
 30
463.5
 11
518961.6234
 21
4397805.8924
 31
463.5
  0
LINE
  5
DF
330
1F
100
AcDbEntity
  8
kat1
370
     0
100
AcDbLine
 10
518961.6234
 20
4397805.8924
 30
463.5
 11
518961.4568
 21
4397805.2512
 31
463.5
  0
LINE
  5
E0
330
1F
100
AcDbEntity
  8
kat1
370
     0
100
AcDbLine
 10
518961.4568
 20
4397805.2512
 30
463.5
 11
518959.9542
 21
4397803.6133
 31
463.5
  0
LINE
  5
E1
330
1F
100
AcDbEntity
  8
kat1
370
     0
100
AcDbLine
 10
518959.9542
 20
4397803.6133
 30
463.5
 11
518956.9595
 21
4397792.6853
 31
463.7999877929688
  0
LINE
  5
E2
330
1F
100
AcDbEntity
  8
kat1
370
     0
100
AcDbLine
 10
518956.9595
 20
4397792.6853
 30
463.7999877929688
 11
518957.4947
 21
4397792.0214
 31
463.7999877929688
  0
LINE
  5
E3
330
1F
100
AcDbEntity
  8
kat1
370
     0
100
AcDbLine
 10
518957.4947
 20
4397792.0214
 30
463.7999877929688
 11
518958.1596
 21
4397791.9873
 31
463.7999877929688
  0
LINE
  5
E4
330
1F
100
AcDbEntity
  8
kat1
370
     0
100
AcDbLine
 10
518958.1596
 20
4397791.9873
 30
463.7999877929688
 11
518958.9873
 21
4397791.8008
 31
463.7999877929688
  0
LINE
  5
E5
330
1F
100
AcDbEntity
  8
kat1
370
     0
100
AcDbLine
 10
518958.9873
 20
4397791.8008
 30
463.7999877929688
 11
518959.992
 21
4397793.725
 31
463.7999877929688
  0
LINE
  5
E6
330
1F
100
AcDbEntity
  8
kat1
370
     0
100
AcDbLine
 10
518959.992
 20
4397793.725
 30
463.7999877929688
 11
518960.5959
 21
4397795.0361
 31
463.7999877929688
  0
LINE
  5
E7
330
1F
100
AcDbEntity
  8
kat1
370
     0
100
AcDbLine
 10
518960.5959
 20
4397795.0361
 30
463.7999877929688
 11
518963.4386
 21
4397803.9931
 31
463.5
  0
LINE
  5
E8
330
1F
100
AcDbEntity
  8
kat1
370
     0
100
AcDbLine
 10
518963.4386
 20
4397803.9931
 30
463.5
 11
518964.2668
 21
4397805.2652
 31
463.5
  0
LINE
  5
E9
330
1F
100
AcDbEntity
  8
kat1
370
     0
100
AcDbLine
 10
518964.2668
 20
4397805.2652
 30
463.5
 11
518967.1799
 21
4397804.2769
 31
463.3999938964844
  0
LINE
  5
EA
330
1F
100
AcDbEntity
  8
kat1
370
     0
100
AcDbLine
 10
518967.1799
 20
4397804.2769
 30
463.3999938964844
 11
518969.0529
 21
4397802.5749
 31
463.3999938964844
  0
LINE
  5
EB
330
1F
100
AcDbEntity
  8
kat1
370
     0
100
AcDbLine
 10
518969.0529
 20
4397802.5749
 30
463.3999938964844
 11
518969.4966339754
 21
4397802.568327957
 31
463.3999938964844
  0
LINE
  5
EC
330
1F
100
AcDbEntity
  8
kat1
370
     0
100
AcDbLine
 10
518969.4966339754
 20
4397802.568327957
 30
463.3999938964844
 11
518969.7773
 21
4397801.8543
 31
463.3999938964844
  0
LINE
  5
ED
330
1F
100
AcDbEntity
  8
kat1
370
     0
100
AcDbLine
 10
518969.7773
 20
4397801.8543
 30
463.3999938964844
 11
518969.8596
 21
4397800.9633
 31
463.3999938964844
  0
LINE
  5
EE
330
1F
100
AcDbEntity
  8
kat1
370
     0
100
AcDbLine
 10
518969.8596
 20
4397800.9633
 30
463.3999938964844
 11
518970.6286
 21
4397800.5801
 31
463.3999938964844
  0
LINE
  5
EF
330
1F
100
AcDbEntity
  8
kat1
370
     0
100
AcDbLine
 10
518970.6286
 20
4397800.5801
 30
463.3999938964844
 11
518971.3849
 21
4397800.2807
 31
463.3999938964844
  0
LINE
  5
F0
330
1F
100
AcDbEntity
  8
kat1
370
     0
100
AcDbLine
 10
518971.3849
 20
4397800.2807
 30
463.3999938964844
 11
518972.0974
 21
4397801.1741
 31
463.3999938964844
  0
LINE
  5
F1
330
1F
100
AcDbEntity
  8
kat1
370
     0
100
AcDbLine
 10
518972.0974
 20
4397801.1741
 30
463.3999938964844
 11
518972.9914497415
 21
4397801.970868854
 31
463.3999938964844
  0
LINE
  5
F2
330
1F
100
AcDbEntity
  8
kat1
370
     0
100
AcDbLine
 10
518972.9914497415
 20
4397801.970868854
 30
463.3999938964844
 11
518974.6744
 21
4397801.3554
 31
463.3999938964844
  0
LINE
  5
F3
330
1F
100
AcDbEntity
  8
kat1
370
     0
100
AcDbLine
 10
518966.2498
 20
4397809.0424
 30
463.5
 11
518968.8066
 21
4397806.6292
 31
463.3999938964844
  0
LINE
  5
F4
330
1F
100
AcDbEntity
  8
kat1
370
     0
100
AcDbLine
 10
518968.8066
 20
4397806.6292
 30
463.3999938964844
 11
518971.0949
 21
4397805.2985
 31
463.3999938964844
  0
LINE
  5
F5
330
1F
100
AcDbEntity
  8
kat1
370
     0
100
AcDbLine
 10
518971.0949
 20
4397805.2985
 30
463.3999938964844
 11
518974.8203
 21
4397804.5502
 31
463.3999938964844
  0
LINE
  5
F6
330
1F
100
AcDbEntity
  8
kat1
370
     0
100
AcDbLine
 10
518974.8203
 20
4397804.5502
 30
463.3999938964844
 11
518978.1836
 21
4397803.7221
 31
463.2000122070312
  0
LINE
  5
F7
330
1F
100
AcDbEntity
  8
kat1
370
     0
100
AcDbLine
 10
518978.1836
 20
4397803.7221
 30
463.2000122070312
 11
518979.1837
 21
4397803.5247
 31
463.2000122070312
  0
LINE
  5
F8
330
1F
100
AcDbEntity
  8
kat1
370
     0
100
AcDbLine
 10
518979.1837
 20
4397803.5247
 30
463.2000122070312
 11
518983.1108
 21
4397802.3298
 31
463.2000122070312
  0
LINE
  5
F9
330
1F
100
AcDbEntity
  8
kat1
370
     0
100
AcDbLine
 10
518983.1108
 20
4397802.3298
 30
463.2000122070312
 11
518984.779
 21
4397801.7236
 31
463.2000122070312
  0
LINE
  5
FA
330
1F
100
AcDbEntity
  8
kat1
370
     0
100
AcDbLine
 10
518984.779
 20
4397801.7236
 30
463.2000122070312
 11
518988.841
 21
4397799.6074
 31
463.2000122070312
  0
LINE
  5
FB
330
1F
100
AcDbEntity
  8
kat1
370
     0
100
AcDbLine
 10
518974.6744
 20
4397801.3554
 30
463.3999938964844
 11
518979.5074891514
 21
4397801.305149536
 31
463.2000122070312
  0
LINE
  5
FC
330
1F
100
AcDbEntity
  8
kat1
370
     0
100
AcDbLine
 10
518979.5074891514
 20
4397801.305149536
 30
463.2000122070312
 11
518980.4920727212
 21
4397800.848220517
 31
463.2000122070312
  0
LINE
  5
FD
330
1F
100
AcDbEntity
  8
kat1
370
     0
100
AcDbLine
 10
518982.3683124752
 20
4397799.977488549
 30
463.2000122070312
 11
518981.3761
 21
4397797.9334
 31
463.2000122070312
  0
LINE
  5
FE
330
1F
100
AcDbEntity
  8
kat1
370
     0
100
AcDbLine
 10
518981.3761
 20
4397797.9334
 30
463.2000122070312
 11
518980.435
 21
4397794.6096
 31
463.5
  0
LINE
  5
FF
330
1F
100
AcDbEntity
  8
kat1
370
     0
100
AcDbLine
 10
518980.435
 20
4397794.6096
 30
463.5
 11
518978.1635
 21
4397790.668
 31
463.5
  0
LINE
  5
100
330
1F
100
AcDbEntity
  8
kat1
370
     0
100
AcDbLine
 10
518978.1635
 20
4397790.668
 30
463.5
 11
518978.3732
 21
4397789.5035
 31
463.5
  0
LINE
  5
101
330
1F
100
AcDbEntity
  8
kat1
370
     0
100
AcDbLine
 10
518978.3732
 20
4397789.5035
 30
463.5
 11
518979.2558
 21
4397789.1455
 31
463.5
  0
LINE
  5
102
330
1F
100
AcDbEntity
  8
kat1
370
     0
100
AcDbLine
 10
518979.2558
 20
4397789.1455
 30
463.5
 11
518980.2204
 21
4397789.8612
 31
463.5
  0
LINE
  5
103
330
1F
100
AcDbEntity
  8
kat1
370
     0
100
AcDbLine
 10
518980.2204
 20
4397789.8612
 30
463.5
 11
518981.4596
 21
4397791.322
 31
463.5
  0
LINE
  5
104
330
1F
100
AcDbEntity
  8
kat1
370
     0
100
AcDbLine
 10
518981.4596
 20
4397791.322
 30
463.5
 11
518983.0928
 21
4397795.1514
 31
463.5
  0
LINE
  5
105
330
1F
100
AcDbEntity
  8
kat1
370
     0
100
AcDbLine
 10
518983.0928
 20
4397795.1514
 30
463.5
 11
518984.0078
 21
4397796.677
 31
463.2000122070312
  0
LINE
  5
106
330
1F
100
AcDbEntity
  8
kat1
370
     0
100
AcDbLine
 10
518984.0078
 20
4397796.677
 30
463.2000122070312
 11
518984.9549
 21
4397796.9127
 31
463.2000122070312
  0
LINE
  5
107
330
1F
100
AcDbEntity
  8
kat1
370
     0
100
AcDbLine
 10
518984.9549
 20
4397796.9127
 30
463.2000122070312
 11
518987.2397
 21
4397796.5366
 31
463.2000122070312
  0
LINE
  5
108
330
1F
100
AcDbEntity
  8
kat1
370
     0
100
AcDbLine
 10
518987.2397
 20
4397796.5366
 30
463.2000122070312
 11
518988.1022
 21
4397796.7533
 31
463.2000122070312
  0
LINE
  5
109
330
1F
100
AcDbEntity
  8
kat1
370
     0
100
AcDbLine
 10
518988.1022
 20
4397796.7533
 30
463.2000122070312
 11
518988.3541471722
 21
4397796.607298283
 31
463.2000122070312
  0
LINE
  5
10A
330
1F
100
AcDbEntity
  8
kat1
370
     0
100
AcDbLine
 10
519013.889
 20
4397746.345
 30
463.1000061035156
 11
519015.534
 21
4397749.197
 31
462.2999877929688
  0
LINE
  5
10B
330
1F
100
AcDbEntity
  8
kat1
370
     0
100
AcDbLine
 10
519015.534
 20
4397749.197
 30
462.2999877929688
 11
519017.298
 21
4397752.688
 31
462.3999938964844
  0
LINE
  5
10C
330
1F
100
AcDbEntity
  8
kat1
370
     0
100
AcDbLine
 10
519017.298
 20
4397752.688
 30
462.3999938964844
 11
519018.22
 21
4397754.141
 31
462.3999938964844
  0
LINE
  5
10D
330
1F
100
AcDbEntity
  8
kat1
370
     0
100
AcDbLine
 10
519018.22
 20
4397754.141
 30
462.3999938964844
 11
519018.443
 21
4397755.911
 31
462.3999938964844
  0
LINE
  5
10E
330
1F
100
AcDbEntity
  8
kat1
370
     0
100
AcDbLine
 10
519018.443
 20
4397755.911
 30
462.3999938964844
 11
519013.9740292082
 21
4397771.683199489
 31
463.6000061035156
  0
LINE
  5
10F
330
1F
100
AcDbEntity
  8
kat1
370
     0
100
AcDbLine
 10
519013.9740292082
 20
4397771.683199489
 30
463.6000061035156
 11
519004.338
 21
4397776.808
 31
462.7000122070312
  0
LINE
  5
110
330
1F
100
AcDbEntity
  8
kat1
370
     0
100
AcDbLine
 10
519004.338
 20
4397776.808
 30
462.7000122070312
 11
518990.9169
 21
4397795.1222
 31
462.8999938964844
  0
LINE
  5
111
330
1F
100
AcDbEntity
  8
kat1
370
     0
100
AcDbLine
 10
518990.9169
 20
4397795.1222
 30
462.8999938964844
 11
518988.3541471722
 21
4397796.607298283
 31
463.2000122070312
  0
LINE
  5
112
330
1F
100
AcDbEntity
  8
kat1
370
     0
100
AcDbLine
 10
518988.841
 20
4397799.6074
 30
463.2000122070312
 11
518993.183
 21
4397797.2216
 31
462.8999938964844
  0
LINE
  5
113
330
1F
100
AcDbEntity
  8
kat1
370
     0
100
AcDbLine
 10
518993.183
 20
4397797.2216
 30
462.8999938964844
 11
519005.674
 21
4397779.649
 31
462.7000122070312
  0
LINE
  5
114
330
1F
100
AcDbEntity
  8
kat1
370
     0
100
AcDbLine
 10
519005.674
 20
4397779.649
 30
462.7000122070312
 11
519015.512
 21
4397774.23
 31
463.6000061035156
  0
LINE
  5
115
330
1F
100
AcDbEntity
  8
kat1
370
     0
100
AcDbLine
 10
519015.512
 20
4397774.23
 30
463.6000061035156
 11
519021.143
 21
4397756.991
 31
462.3999938964844
  0
LINE
  5
116
330
1F
100
AcDbEntity
  8
kat1
370
     0
100
AcDbLine
 10
519021.143
 20
4397756.991
 30
462.3999938964844
 11
519020.982
 21
4397754.975
 31
462.3999938964844
  0
LINE
  5
117
330
1F
100
AcDbEntity
  8
kat1
370
     0
100
AcDbLine
 10
519020.982
 20
4397754.975
 30
462.3999938964844
 11
519020.193
 21
4397752.832
 31
462.3999938964844
  0
LINE
  5
118
330
1F
100
AcDbEntity
  8
kat1
370
     0
100
AcDbLine
 10
519020.193
 20
4397752.832
 30
462.3999938964844
 11
519019.236
 21
4397750.691
 31
462.2999877929688
  0
LINE
  5
119
330
1F
100
AcDbEntity
  8
kat1
370
     0
100
AcDbLine
 10
519019.236
 20
4397750.691
 30
462.2999877929688
 11
519019.56
 21
4397750.566
 31
462.2999877929688
  0
LINE
  5
11A
330
1F
100
AcDbEntity
  8
kat1
370
     0
100
AcDbLine
 10
519019.56
 20
4397750.566
 30
462.2999877929688
 11
519020.042
 21
4397750.233
 31
462.2999877929688
  0
LINE
  5
11B
330
1F
100
AcDbEntity
  8
kat1
370
     0
100
AcDbLine
 10
519020.042
 20
4397750.233
 30
462.2999877929688
 11
519020.813
 21
4397750.11
 31
462.2999877929688
  0
LINE
  5
11C
330
1F
100
AcDbEntity
  8
kat1
370
     0
100
AcDbLine
 10
519020.813
 20
4397750.11
 30
462.2999877929688
 11
519022.018
 21
4397750.009
 31
462.2999877929688
  0
LINE
  5
11D
330
1F
100
AcDbEntity
  8
kat1
370
     0
100
AcDbLine
 10
519022.018
 20
4397750.009
 30
462.2999877929688
 11
519023.531
 21
4397749.912
 31
462.2999877929688
  0
LINE
  5
11E
330
1F
100
AcDbEntity
  8
kat1
370
     0
100
AcDbLine
 10
519023.531
 20
4397749.912
 30
462.2999877929688
 11
519023.576
 21
4397749.785
 31
462.2999877929688
  0
LINE
  5
11F
330
1F
100
AcDbEntity
  8
kat1
370
     0
100
AcDbLine
 10
519023.576
 20
4397749.785
 30
462.2999877929688
 11
519023.633
 21
4397748.999
 31
462.2999877929688
  0
LINE
  5
120
330
1F
100
AcDbEntity
  8
kat1
370
     0
100
AcDbLine
 10
519023.633
 20
4397748.999
 30
462.2999877929688
 11
519023.72
 21
4397748.439
 31
462.2999877929688
  0
LINE
  5
121
330
1F
100
AcDbEntity
  8
kat1
370
     0
100
AcDbLine
 10
519023.72
 20
4397748.439
 30
462.2999877929688
 11
519023.479
 21
4397748.219
 31
462.2999877929688
  0
LINE
  5
122
330
1F
100
AcDbEntity
  8
kat1
370
     0
100
AcDbLine
 10
519023.479
 20
4397748.219
 30
462.2999877929688
 11
519023.15
 21
4397748.13
 31
462.2999877929688
  0
LINE
  5
123
330
1F
100
AcDbEntity
  8
kat1
370
     0
100
AcDbLine
 10
519023.15
 20
4397748.13
 30
462.2999877929688
 11
519022.44
 21
4397748.011
 31
462.2999877929688
  0
LINE
  5
124
330
1F
100
AcDbEntity
  8
kat1
370
     0
100
AcDbLine
 10
519022.44
 20
4397748.011
 30
462.2999877929688
 11
519020.934
 21
4397747.922
 31
462.2999877929688
  0
LINE
  5
125
330
1F
100
AcDbEntity
  8
kat1
370
     0
100
AcDbLine
 10
519020.934
 20
4397747.922
 30
462.2999877929688
 11
519019.347
 21
4397747.795
 31
462.2999877929688
  0
LINE
  5
126
330
1F
100
AcDbEntity
  8
kat1
370
     0
100
AcDbLine
 10
519019.347
 20
4397747.795
 30
462.2999877929688
 11
519018.063
 21
4397748.579
 31
462.2999877929688
  0
LINE
  5
127
330
1F
100
AcDbEntity
  8
kat1
370
     0
100
AcDbLine
 10
519018.063
 20
4397748.579
 30
462.2999877929688
 11
519016.574
 21
4397745.526
 31
463.1000061035156
  0
POINT
  5
128
330
1F
100
AcDbEntity
  8
kat1
370
     0
100
AcDbPoint
 10
518942.7856587935
 20
4397641.510841954
 30
506.6000061035156
  0
POINT
  5
129
330
1F
100
AcDbEntity
  8
kat1
370
     0
100
AcDbPoint
 10
518944.983
 20
4397640.742
 30
506.6000061035156
  0
POINT
  5
12A
330
1F
100
AcDbEntity
  8
kat1
370
     0
100
AcDbPoint
 10
518945.471
 20
4397640.751
 30
506.6000061035156
  0
POINT
  5
12B
330
1F
100
AcDbEntity
  8
kat1
370
     0
100
AcDbPoint
 10
518946.552
 20
4397639.802
 30
506.6000061035156
  0
POINT
  5
12C
330
1F
100
AcDbEntity
  8
kat1
370
     0
100
AcDbPoint
 10
518951.405
 20
4397634.24
 30
506.6000061035156
  0
POINT
  5
12D
330
1F
100
AcDbEntity
  8
kat1
370
     0
100
AcDbPoint
 10
518953.155790152
 20
4397631.84021005
 30
506.6000061035156
  0
POINT
  5
12E
330
1F
100
AcDbEntity
  8
kat1
370
     0
100
AcDbPoint
 10
518950.1060715822
 20
4397625.18929087
 30
506.6000061035156
  0
POINT
  5
12F
330
1F
100
AcDbEntity
  8
kat1
370
     0
100
AcDbPoint
 10
518952.036139179
 20
4397624.231405471
 30
506.6000061035156
  0
POINT
  5
130
330
1F
100
AcDbEntity
  8
kat1
370
     0
100
AcDbPoint
 10
518958.095
 20
4397636.875
 30
506.6000061035156
  0
POINT
  5
131
330
1F
100
AcDbEntity
  8
kat1
370
     0
100
AcDbPoint
 10
518965.589
 20
4397650.58
 30
506.6000061035156
  0
POINT
  5
132
330
1F
100
AcDbEntity
  8
kat1
370
     0
100
AcDbPoint
 10
518963.036
 20
4397652.321
 30
506.6000061035156
  0
POINT
  5
133
330
1F
100
AcDbEntity
  8
kat1
370
     0
100
AcDbPoint
 10
518960.3180108772
 20
4397646.813361024
 30
506.6000061035156
  0
POINT
  5
134
330
1F
100
AcDbEntity
  8
kat1
370
     0
100
AcDbPoint
 10
518955.955
 20
4397647.168
 30
506.6000061035156
  0
POINT
  5
135
330
1F
100
AcDbEntity
  8
kat1
370
     0
100
AcDbPoint
 10
518960.674
 20
4397659.057
 30
507.1499938964844
  0
POINT
  5
136
330
1F
100
AcDbEntity
  8
kat1
370
     0
100
AcDbPoint
 10
518961.904
 20
4397663.272
 30
507.1499938964844
  0
POINT
  5
137
330
1F
100
AcDbEntity
  8
kat1
370
     0
100
AcDbPoint
 10
518961.075
 20
4397666.619
 30
507.5
  0
POINT
  5
138
330
1F
100
AcDbEntity
  8
kat1
370
     0
100
AcDbPoint
 10
518959.706
 20
4397670.11
 30
507.5
  0
POINT
  5
139
330
1F
100
AcDbEntity
  8
kat1
370
     0
100
AcDbPoint
 10
518955.964
 20
4397675.443
 30
507.75
  0
POINT
  5
13A
330
1F
100
AcDbEntity
  8
kat1
370
     0
100
AcDbPoint
 10
518953.745
 20
4397678.07
 30
507.75
  0
POINT
  5
13B
330
1F
100
AcDbEntity
  8
kat1
370
     0
100
AcDbPoint
 10
518952.599
 20
4397681.841
 30
507.8500061035156
  0
POINT
  5
13C
330
1F
100
AcDbEntity
  8
kat1
370
     0
100
AcDbPoint
 10
518952.186
 20
4397683.671
 30
507.8500061035156
  0
POINT
  5
13D
330
1F
100
AcDbEntity
  8
kat1
370
     0
100
AcDbPoint
 10
518953.063
 20
4397688.458
 30
507.8500061035156
  0
POINT
  5
13E
330
1F
100
AcDbEntity
  8
kat1
370
     0
100
AcDbPoint
 10
518957.21
 20
4397707.358
 30
508.0
  0
POINT
  5
13F
330
1F
100
AcDbEntity
  8
kat1
370
     0
100
AcDbPoint
 10
518956.32
 20
4397721.171
 30
508.1499938964844
  0
POINT
  5
140
330
1F
100
AcDbEntity
  8
kat1
370
     0
100
AcDbPoint
 10
518966.535
 20
4397755.241
 30
508.3999938964844
  0
POINT
  5
141
330
1F
100
AcDbEntity
  8
kat1
370
     0
100
AcDbPoint
 10
518966.631
 20
4397757.688
 30
508.3999938964844
  0
POINT
  5
142
330
1F
100
AcDbEntity
  8
kat1
370
     0
100
AcDbPoint
 10
518968.476
 20
4397756.706
 30
508.3999938964844
  0
POINT
  5
143
330
1F
100
AcDbEntity
  8
kat1
370
     0
100
AcDbPoint
 10
518969.7529450561
 20
4397753.979349928
 30
508.3999938964844
  0
POINT
  5
144
330
1F
100
AcDbEntity
  8
kat1
370
     0
100
AcDbPoint
 10
518969.7520009644
 20
4397752.971059924
 30
508.3999938964844
  0
POINT
  5
145
330
1F
100
AcDbEntity
  8
kat1
370
     0
100
AcDbPoint
 10
518971.4913516134
 20
4397752.815546421
 30
508.3999938964844
  0
POINT
  5
146
330
1F
100
AcDbEntity
  8
kat1
370
     0
100
AcDbPoint
 10
518972.7972805764
 20
4397754.504005221
 30
508.3999938964844
  0
POINT
  5
147
330
1F
100
AcDbEntity
  8
kat1
370
     0
100
AcDbPoint
 10
518971.62
 20
4397755.4
 30
508.3999938964844
  0
POINT
  5
148
330
1F
100
AcDbEntity
  8
kat1
370
     0
100
AcDbPoint
 10
518970.973
 20
4397757.524
 30
508.3999938964844
  0
POINT
  5
149
330
1F
100
AcDbEntity
  8
kat1
370
     0
100
AcDbPoint
 10
518966.987
 20
4397760.194
 30
508.3999938964844
  0
POINT
  5
14A
330
1F
100
AcDbEntity
  8
kat1
370
     0
100
AcDbPoint
 10
518968.492
 20
4397767.76
 30
509.0
  0
POINT
  5
14B
330
1F
100
AcDbEntity
  8
kat1
370
     0
100
AcDbPoint
 10
518976.633
 20
4397764.084
 30
509.0
  0
POINT
  5
14C
330
1F
100
AcDbEntity
  8
kat1
370
     0
100
AcDbPoint
 10
518977.219
 20
4397765.298
 30
509.0
  0
POINT
  5
14D
330
1F
100
AcDbEntity
  8
kat1
370
     0
100
AcDbPoint
 10
518973.456
 20
4397767.606
 30
509.0
  0
POINT
  5
14E
330
1F
100
AcDbEntity
  8
kat1
370
     0
100
AcDbPoint
 10
518968.854
 20
4397771.115
 30
509.0
  0
POINT
  5
14F
330
1F
100
AcDbEntity
  8
kat1
370
     0
100
AcDbPoint
 10
518972.428
 20
4397785.787
 30
509.3999938964844
  0
POINT
  5
150
330
1F
100
AcDbEntity
  8
kat1
370
     0
100
AcDbPoint
 10
518970.07
 20
4397786.61
 30
509.3999938964844
  0
POINT
  5
151
330
1F
100
AcDbEntity
  8
kat1
370
     0
100
AcDbPoint
 10
518966.367
 20
4397771.75
 30
509.0
  0
POINT
  5
152
330
1F
100
AcDbEntity
  8
kat1
370
     0
100
AcDbPoint
 10
518966.173
 20
4397768.3
 30
509.0
  0
POINT
  5
153
330
1F
100
AcDbEntity
  8
kat1
370
     0
100
AcDbPoint
 10
518965.074
 20
4397762.99
 30
508.3999938964844
  0
POINT
  5
154
330
1F
100
AcDbEntity
  8
kat1
370
     0
100
AcDbPoint
 10
518964.583
 20
4397762.027
 30
508.3999938964844
  0
POINT
  5
155
330
1F
100
AcDbEntity
  8
kat1
370
     0
100
AcDbPoint
 10
518962.974
 20
4397761.383
 30
508.3999938964844
  0
POINT
  5
156
330
1F
100
AcDbEntity
  8
kat1
370
     0
100
AcDbPoint
 10
518928.258
 20
4397780.616
 30
509.0
  0
POINT
  5
157
330
1F
100
AcDbEntity
  8
kat1
370
     0
100
AcDbPoint
 10
518927.668
 20
4397781.998
 30
509.0
  0
POINT
  5
158
330
1F
100
AcDbEntity
  8
kat1
370
     0
100
AcDbPoint
 10
518930.744
 20
4397786.92
 30
509.2000122070312
  0
POINT
  5
159
330
1F
100
AcDbEntity
  8
kat1
370
     0
100
AcDbPoint
 10
518939.397
 20
4397806.491
 30
510.0
  0
POINT
  5
15A
330
1F
100
AcDbEntity
  8
kat1
370
     0
100
AcDbPoint
 10
518940.8572753977
 20
4397805.701572509
 30
510.0
  0
POINT
  5
15B
330
1F
100
AcDbEntity
  8
kat1
370
     0
100
AcDbPoint
 10
518942.1942114492
 20
4397807.993722751
 30
510.0
  0
POINT
  5
15C
330
1F
100
AcDbEntity
  8
kat1
370
     0
100
AcDbPoint
 10
518939.172
 20
4397809.368
 30
510.0
  0
POINT
  5
15D
330
1F
100
AcDbEntity
  8
kat1
370
     0
100
AcDbPoint
 10
518938.574
 20
4397809.174
 30
510.0
  0
POINT
  5
15E
330
1F
100
AcDbEntity
  8
kat1
370
     0
100
AcDbPoint
 10
518928.214
 20
4397788.605
 30
509.2000122070312
  0
POINT
  5
15F
330
1F
100
AcDbEntity
  8
kat1
370
     0
100
AcDbPoint
 10
518925.1984543645
 20
4397790.231945178
 30
509.2999877929688
  0
POINT
  5
160
330
1F
100
AcDbEntity
  8
kat1
370
     0
100
AcDbPoint
 10
518923.4485786137
 20
4397791.317794693
 30
509.2999877929688
  0
POINT
  5
161
330
1F
100
AcDbEntity
  8
kat1
370
     0
100
AcDbPoint
 10
518911.3778183615
 20
4397799.261483216
 30
509.7999877929688
  0
POINT
  5
162
330
1F
100
AcDbEntity
  8
kat1
370
     0
100
AcDbPoint
 10
518910.2151939601
 20
4397797.634122008
 30
509.7999877929688
  0
POINT
  5
163
330
1F
100
AcDbEntity
  8
kat1
370
     0
100
AcDbPoint
 10
518927.158
 20
4397786.338
 30
509.2000122070312
  0
POINT
  5
164
330
1F
100
AcDbEntity
  8
kat1
370
     0
100
AcDbPoint
 10
518925.571
 20
4397783.282
 30
509.0
  0
POINT
  5
165
330
1F
100
AcDbEntity
  8
kat1
370
     0
100
AcDbPoint
 10
518904.312
 20
4397800.251
 30
510.0
  0
POINT
  5
166
330
1F
100
AcDbEntity
  8
kat1
370
     0
100
AcDbPoint
 10
518890.306
 20
4397805.05
 30
510.0
  0
POINT
  5
167
330
1F
100
AcDbEntity
  8
kat1
370
     0
100
AcDbPoint
 10
518886.378
 20
4397806.748
 30
510.25
  0
POINT
  5
168
330
1F
100
AcDbEntity
  8
kat1
370
     0
100
AcDbPoint
 10
518885.478
 20
4397806.005
 30
510.25
  0
POINT
  5
169
330
1F
100
AcDbEntity
  8
kat1
370
     0
100
AcDbPoint
 10
518888.081
 20
4397802.615
 30
510.0
  0
POINT
  5
16A
330
1F
100
AcDbEntity
  8
kat1
370
     0
100
AcDbPoint
 10
518882.495
 20
4397792.757
 30
510.2860107421875
  0
POINT
  5
16B
330
1F
100
AcDbEntity
  8
kat1
370
     0
100
AcDbPoint
 10
518883.656
 20
4397791.81
 30
510.2829895019531
  0
POINT
  5
16C
330
1F
100
AcDbEntity
  8
kat1
370
     0
100
AcDbPoint
 10
518890.071
 20
4397801.309
 30
510.0
  0
POINT
  5
16D
330
1F
100
AcDbEntity
  8
kat1
370
     0
100
AcDbPoint
 10
518904.312
 20
4397796.757
 30
510.0
  0
POINT
  5
16E
330
1F
100
AcDbEntity
  8
kat1
370
     0
100
AcDbPoint
 10
518924.5369182827
 20
4397780.858425778
 30
509.0
  0
POINT
  5
16F
330
1F
100
AcDbEntity
  8
kat1
370
     0
100
AcDbPoint
 10
518961.25
 20
4397759.292
 30
508.3999938964844
  0
POINT
  5
170
330
1F
100
AcDbEntity
  8
kat1
370
     0
100
AcDbPoint
 10
518961.263
 20
4397758.1
 30
508.3999938964844
  0
POINT
  5
171
330
1F
100
AcDbEntity
  8
kat1
370
     0
100
AcDbPoint
 10
518961.1
 20
4397758.057
 30
508.3999938964844
  0
POINT
  5
172
330
1F
100
AcDbEntity
  8
kat1
370
     0
100
AcDbPoint
 10
518961.059
 20
4397757.777
 30
508.3999938964844
  0
POINT
  5
173
330
1F
100
AcDbEntity
  8
kat1
370
     0
100
AcDbPoint
 10
518961.273
 20
4397756.949
 30
508.3999938964844
  0
POINT
  5
174
330
1F
100
AcDbEntity
  8
kat1
370
     0
100
AcDbPoint
 10
518962.557
 20
4397757.187
 30
508.3999938964844
  0
POINT
  5
175
330
1F
100
AcDbEntity
  8
kat1
370
     0
100
AcDbPoint
 10
518963.856
 20
4397757.098
 30
508.3999938964844
  0
POINT
  5
176
330
1F
100
AcDbEntity
  8
kat1
370
     0
100
AcDbPoint
 10
518964.308
 20
4397755.507
 30
508.3999938964844
  0
POINT
  5
177
330
1F
100
AcDbEntity
  8
kat1
370
     0
100
AcDbPoint
 10
518953.858
 20
4397722.949
 30
508.1499938964844
  0
POINT
  5
178
330
1F
100
AcDbEntity
  8
kat1
370
     0
100
AcDbPoint
 10
518954.24
 20
4397708.285
 30
508.0
  0
POINT
  5
179
330
1F
100
AcDbEntity
  8
kat1
370
     0
100
AcDbPoint
 10
518950.527
 20
4397687.491
 30
507.8500061035156
  0
POINT
  5
17A
330
1F
100
AcDbEntity
  8
kat1
370
     0
100
AcDbPoint
 10
518950.07
 20
4397684.558
 30
507.8500061035156
  0
POINT
  5
17B
330
1F
100
AcDbEntity
  8
kat1
370
     0
100
AcDbPoint
 10
518950.589
 20
4397680.896
 30
507.8500061035156
  0
POINT
  5
17C
330
1F
100
AcDbEntity
  8
kat1
370
     0
100
AcDbPoint
 10
518951.832
 20
4397675.358
 30
507.75
  0
POINT
  5
17D
330
1F
100
AcDbEntity
  8
kat1
370
     0
100
AcDbPoint
 10
518958.313
 20
4397667.525
 30
507.5
  0
POINT
  5
17E
330
1F
100
AcDbEntity
  8
kat1
370
     0
100
AcDbPoint
 10
518958.474
 20
4397660.214
 30
507.1499938964844
  0
POINT
  5
17F
330
1F
100
AcDbEntity
  8
kat1
370
     0
100
AcDbPoint
 10
518952.687
 20
4397646.248
 30
506.6000061035156
  0
POINT
  5
180
330
1F
100
AcDbEntity
  8
kat1
370
     0
100
AcDbPoint
 10
518951.164
 20
4397645.538
 30
506.6000061035156
  0
POINT
  5
181
330
1F
100
AcDbEntity
  8
kat1
370
     0
100
AcDbPoint
 10
518948.353
 20
4397644.866
 30
506.6000061035156
  0
POINT
  5
182
330
1F
100
AcDbEntity
  8
kat1
370
     0
100
AcDbPoint
 10
518945.761
 20
4397644.4
 30
506.6000061035156
  0
POINT
  5
183
330
1F
100
AcDbEntity
  8
kat1
370
     0
100
AcDbPoint
 10
518944.98035924
 20
4397644.291740648
 30
506.6000061035156
  0
POINT
  5
184
330
1F
100
AcDbEntity
  8
kat1
370
     0
100
AcDbPoint
 10
518943.8477086913
 20
4397644.134664538
 30
506.6000061035156
  0
POINT
  5
185
330
1F
100
AcDbEntity
  8
kat1
370
     0
100
AcDbPoint
 10
518609.7564167368
 20
4397593.691836721
 30
503.0
  0
POINT
  5
186
330
1F
100
AcDbEntity
  8
kat1
370
     0
100
AcDbPoint
 10
518608.2846891019
 20
4397595.897604321
 30
503.0
  0
POINT
  5
187
330
1F
100
AcDbEntity
  8
kat1
370
     0
100
AcDbPoint
 10
518882.1982757064
 20
4397633.137691067
 30
505.6900024414062
  0
POINT
  5
188
330
1F
100
AcDbEntity
  8
kat1
370
     0
100
AcDbPoint
 10
518881.794865876
 20
4397635.529169054
 30
505.6900024414062
  0
LINE
  5
189
330
1F
100
AcDbEntity
  8
kat1
370
     0
100
AcDbLine
 10
518882.495
 20
4397792.757
 30
510.2860107421875
 11
518883.656
 21
4397791.81
 31
510.2829895019531
  0
LINE
  5
18A
330
1F
100
AcDbEntity
  8
kat1
370
     0
100
AcDbLine
 10
518883.656
 20
4397791.81
 30
510.2829895019531
 11
518890.071
 21
4397801.309
 31
510.0
  0
LINE
  5
18B
330
1F
100
AcDbEntity
  8
kat1
370
     0
100
AcDbLine
 10
518890.071
 20
4397801.309
 30
510.0
 11
518904.312
 21
4397796.757
 31
510.0
  0
LINE
  5
18C
330
1F
100
AcDbEntity
  8
kat1
370
     0
100
AcDbLine
 10
518904.312
 20
4397800.251
 30
510.0
 11
518890.306
 21
4397805.05
 31
510.0
  0
LINE
  5
18D
330
1F
100
AcDbEntity
  8
kat1
370
     0
100
AcDbLine
 10
518890.306
 20
4397805.05
 30
510.0
 11
518886.378
 21
4397806.748
 31
510.25
  0
LINE
  5
18E
330
1F
100
AcDbEntity
  8
kat1
370
     0
100
AcDbLine
 10
518886.378
 20
4397806.748
 30
510.25
 11
518885.478
 21
4397806.005
 31
510.25
  0
LINE
  5
18F
330
1F
100
AcDbEntity
  8
kat1
370
     0
100
AcDbLine
 10
518885.478
 20
4397806.005
 30
510.25
 11
518888.081
 21
4397802.615
 31
510.0
  0
LINE
  5
190
330
1F
100
AcDbEntity
  8
kat1
370
     0
100
AcDbLine
 10
518888.081
 20
4397802.615
 30
510.0
 11
518882.495
 21
4397792.757
 31
510.2860107421875
  0
LINE
  5
191
330
1F
100
AcDbEntity
  8
kat1
370
     0
100
AcDbLine
 10
518904.312
 20
4397800.251
 30
510.0
 11
518925.571
 21
4397783.282
 31
509.0
  0
LINE
  5
192
330
1F
100
AcDbEntity
  8
kat1
370
     0
100
AcDbLine
 10
518924.5369182827
 20
4397780.858425778
 30
509.0
 11
518904.312
 21
4397796.757
 31
510.0
  0
LINE
  5
193
330
1F
100
AcDbEntity
  8
kat1
370
     0
100
AcDbLine
 10
518925.571
 20
4397783.282
 30
509.0
 11
518927.158
 21
4397786.338
 31
509.2000122070312
  0
LINE
  5
194
330
1F
100
AcDbEntity
  8
kat1
370
     0
100
AcDbLine
 10
518927.158
 20
4397786.338
 30
509.2000122070312
 11
518910.2151939601
 21
4397797.634122008
 31
509.7999877929688
  0
LINE
  5
195
330
1F
100
AcDbEntity
  8
kat1
370
     0
100
AcDbLine
 10
518910.2151939601
 20
4397797.634122008
 30
509.7999877929688
 11
518911.3778183615
 21
4397799.261483216
 31
509.7999877929688
  0
LINE
  5
196
330
1F
100
AcDbEntity
  8
kat1
370
     0
100
AcDbLine
 10
518911.3778183615
 20
4397799.261483216
 30
509.7999877929688
 11
518923.4485786137
 21
4397791.317794693
 31
509.2999877929688
  0
LINE
  5
197
330
1F
100
AcDbEntity
  8
kat1
370
     0
100
AcDbLine
 10
518925.1984543645
 20
4397790.231945178
 30
509.2999877929688
 11
518928.214
 21
4397788.605
 31
509.2000122070312
  0
LINE
  5
198
330
1F
100
AcDbEntity
  8
kat1
370
     0
100
AcDbLine
 10
518930.744
 20
4397786.92
 30
509.2000122070312
 11
518927.668
 21
4397781.998
 31
509.0
  0
LINE
  5
199
330
1F
100
AcDbEntity
  8
kat1
370
     0
100
AcDbLine
 10
518927.668
 20
4397781.998
 30
509.0
 11
518928.258
 21
4397780.616
 31
509.0
  0
LINE
  5
19A
330
1F
100
AcDbEntity
  8
kat1
370
     0
100
AcDbLine
 10
518924.5369182827
 20
4397780.858425778
 30
509.0
 11
518961.25
 21
4397759.292
 31
508.3999938964844
  0
LINE
  5
19B
330
1F
100
AcDbEntity
  8
kat1
370
     0
100
AcDbLine
 10
518928.258
 20
4397780.616
 30
509.0
 11
518962.974
 21
4397761.383
 31
508.3999938964844
  0
LINE
  5
19C
330
1F
100
AcDbEntity
  8
kat1
370
     0
100
AcDbLine
 10
518961.25
 20
4397759.292
 30
508.3999938964844
 11
518961.263
 21
4397758.1
 31
508.3999938964844
  0
LINE
  5
19D
330
1F
100
AcDbEntity
  8
kat1
370
     0
100
AcDbLine
 10
518961.263
 20
4397758.1
 30
508.3999938964844
 11
518961.1
 21
4397758.057
 31
508.3999938964844
  0
LINE
  5
19E
330
1F
100
AcDbEntity
  8
kat1
370
     0
100
AcDbLine
 10
518961.1
 20
4397758.057
 30
508.3999938964844
 11
518961.059
 21
4397757.777
 31
508.3999938964844
  0
LINE
  5
19F
330
1F
100
AcDbEntity
  8
kat1
370
     0
100
AcDbLine
 10
518961.059
 20
4397757.777
 30
508.3999938964844
 11
518961.273
 21
4397756.949
 31
508.3999938964844
  0
LINE
  5
1A0
330
1F
100
AcDbEntity
  8
kat1
370
     0
100
AcDbLine
 10
518961.273
 20
4397756.949
 30
508.3999938964844
 11
518962.557
 21
4397757.187
 31
508.3999938964844
  0
LINE
  5
1A1
330
1F
100
AcDbEntity
  8
kat1
370
     0
100
AcDbLine
 10
518962.557
 20
4397757.187
 30
508.3999938964844
 11
518963.856
 21
4397757.098
 31
508.3999938964844
  0
LINE
  5
1A2
330
1F
100
AcDbEntity
  8
kat1
370
     0
100
AcDbLine
 10
518963.856
 20
4397757.098
 30
508.3999938964844
 11
518964.308
 21
4397755.507
 31
508.3999938964844
  0
LINE
  5
1A3
330
1F
100
AcDbEntity
  8
kat1
370
     0
100
AcDbLine
 10
518966.535
 20
4397755.241
 30
508.3999938964844
 11
518966.631
 21
4397757.688
 31
508.3999938964844
  0
LINE
  5
1A4
330
1F
100
AcDbEntity
  8
kat1
370
     0
100
AcDbLine
 10
518966.631
 20
4397757.688
 30
508.3999938964844
 11
518968.476
 21
4397756.706
 31
508.3999938964844
  0
LINE
  5
1A5
330
1F
100
AcDbEntity
  8
kat1
370
     0
100
AcDbLine
 10
518968.476
 20
4397756.706
 30
508.3999938964844
 11
518969.7529450561
 21
4397753.979349928
 31
508.3999938964844
  0
LINE
  5
1A6
330
1F
100
AcDbEntity
  8
kat1
370
     0
100
AcDbLine
 10
518969.7529450561
 20
4397753.979349928
 30
508.3999938964844
 11
518969.7520009644
 21
4397752.971059924
 31
508.3999938964844
  0
LINE
  5
1A7
330
1F
100
AcDbEntity
  8
kat1
370
     0
100
AcDbLine
 10
518969.7520009644
 20
4397752.971059924
 30
508.3999938964844
 11
518971.4913516134
 21
4397752.815546421
 31
508.3999938964844
  0
LINE
  5
1A8
330
1F
100
AcDbEntity
  8
kat1
370
     0
100
AcDbLine
 10
518971.4913516134
 20
4397752.815546421
 30
508.3999938964844
 11
518972.7972805764
 21
4397754.504005221
 31
508.3999938964844
  0
LINE
  5
1A9
330
1F
100
AcDbEntity
  8
kat1
370
     0
100
AcDbLine
 10
518972.7972805764
 20
4397754.504005221
 30
508.3999938964844
 11
518971.62
 21
4397755.4
 31
508.3999938964844
  0
LINE
  5
1AA
330
1F
100
AcDbEntity
  8
kat1
370
     0
100
AcDbLine
 10
518971.62
 20
4397755.4
 30
508.3999938964844
 11
518970.973
 21
4397757.524
 31
508.3999938964844
  0
LINE
  5
1AB
330
1F
100
AcDbEntity
  8
kat1
370
     0
100
AcDbLine
 10
518970.973
 20
4397757.524
 30
508.3999938964844
 11
518966.987
 21
4397760.194
 31
508.3999938964844
  0
LINE
  5
1AC
330
1F
100
AcDbEntity
  8
kat1
370
     0
100
AcDbLine
 10
518962.974
 20
4397761.383
 30
508.3999938964844
 11
518964.583
 21
4397762.027
 31
508.3999938964844
  0
LINE
  5
1AD
330
1F
100
AcDbEntity
  8
kat1
370
     0
100
AcDbLine
 10
518964.583
 20
4397762.027
 30
508.3999938964844
 11
518965.074
 21
4397762.99
 31
508.3999938964844
  0
LINE
  5
1AE
330
1F
100
AcDbEntity
  8
kat1
370
     0
100
AcDbLine
 10
518965.074
 20
4397762.99
 30
508.3999938964844
 11
518966.173
 21
4397768.3
 31
509.0
  0
LINE
  5
1AF
330
1F
100
AcDbEntity
  8
kat1
370
     0
100
AcDbLine
 10
518966.987
 20
4397760.194
 30
508.3999938964844
 11
518968.492
 21
4397767.76
 31
509.0
  0
LINE
  5
1B0
330
1F
100
AcDbEntity
  8
kat1
370
     0
100
AcDbLine
 10
518968.492
 20
4397767.76
 30
509.0
 11
518976.633
 21
4397764.084
 31
509.0
  0
LINE
  5
1B1
330
1F
100
AcDbEntity
  8
kat1
370
     0
100
AcDbLine
 10
518976.633
 20
4397764.084
 30
509.0
 11
518977.219
 21
4397765.298
 31
509.0
  0
LINE
  5
1B2
330
1F
100
AcDbEntity
  8
kat1
370
     0
100
AcDbLine
 10
518977.219
 20
4397765.298
 30
509.0
 11
518973.456
 21
4397767.606
 31
509.0
  0
LINE
  5
1B3
330
1F
100
AcDbEntity
  8
kat1
370
     0
100
AcDbLine
 10
518973.456
 20
4397767.606
 30
509.0
 11
518968.854
 21
4397771.115
 31
509.0
  0
LINE
  5
1B4
330
1F
100
AcDbEntity
  8
kat1
370
     0
100
AcDbLine
 10
518966.367
 20
4397771.75
 30
509.0
 11
518970.07
 21
4397786.61
 31
509.3999938964844
  0
LINE
  5
1B5
330
1F
100
AcDbEntity
  8
kat1
370
     0
100
AcDbLine
 10
518970.07
 20
4397786.61
 30
509.3999938964844
 11
518972.428
 21
4397785.787
 31
509.3999938964844
  0
LINE
  5
1B6
330
1F
100
AcDbEntity
  8
kat1
370
     0
100
AcDbLine
 10
518972.428
 20
4397785.787
 30
509.3999938964844
 11
518968.854
 21
4397771.115
 31
509.0
  0
POINT
  5
1B7
330
1F
100
AcDbEntity
  8
kat1
370
     0
100
AcDbPoint
 10
518954.3405732902
 20
4397634.424021217
 30
506.6000061035156
  0
POINT
  5
1B8
330
1F
100
AcDbEntity
  8
kat1
370
     0
100
AcDbPoint
 10
518956.133
 20
4397638.333
 30
506.6000061035156
  0
POINT
  5
1B9
330
1F
100
AcDbEntity
  8
kat1
370
     0
100
AcDbPoint
 10
518958.5171609972
 20
4397643.16418123
 30
506.6000061035156
  0
POINT
  5
1BA
330
1F
100
AcDbEntity
  8
kat1
370
     0
100
AcDbPoint
 10
518955.697
 20
4397643.3
 30
506.6000061035156
  0
POINT
  5
1BB
330
1F
100
AcDbEntity
  8
kat1
370
     0
100
AcDbPoint
 10
518948.68530612
 20
4397642.326170736
 30
506.6000061035156
  0
POINT
  5
1BC
330
1F
100
AcDbEntity
  8
kat1
370
     0
100
AcDbPoint
 10
518949.406
 20
4397640.669
 30
506.6000061035156
  0
LINE
  5
1BD
330
1F
100
AcDbEntity
  8
kat1
370
     0
100
AcDbLine
 10
518952.687
 20
4397646.248
 30
506.6000061035156
 11
518958.474
 21
4397660.214
 31
507.1499938964844
  0
LINE
  5
1BE
330
1F
100
AcDbEntity
  8
kat1
370
     0
100
AcDbLine
 10
518955.955
 20
4397647.168
 30
506.6000061035156
 11
518960.674
 21
4397659.057
 31
507.1499938964844
  0
LINE
  5
1BF
330
1F
100
AcDbEntity
  8
kat1
370
     0
100
AcDbLine
 10
518960.674
 20
4397659.057
 30
507.1499938964844
 11
518961.904
 21
4397663.272
 31
507.1499938964844
  0
LINE
  5
1C0
330
1F
100
AcDbEntity
  8
kat1
370
     0
100
AcDbLine
 10
518958.474
 20
4397660.214
 30
507.1499938964844
 11
518958.313
 21
4397667.525
 31
507.5
  0
LINE
  5
1C1
330
1F
100
AcDbEntity
  8
kat1
370
     0
100
AcDbLine
 10
518961.904
 20
4397663.272
 30
507.1499938964844
 11
518961.075
 21
4397666.619
 31
507.5
  0
LINE
  5
1C2
330
1F
100
AcDbEntity
  8
kat1
370
     0
100
AcDbLine
 10
518961.075
 20
4397666.619
 30
507.5
 11
518959.706
 21
4397670.11
 31
507.5
  0
LINE
  5
1C3
330
1F
100
AcDbEntity
  8
kat1
370
     0
100
AcDbLine
 10
518958.313
 20
4397667.525
 30
507.5
 11
518951.832
 21
4397675.358
 31
507.75
  0
LINE
  5
1C4
330
1F
100
AcDbEntity
  8
kat1
370
     0
100
AcDbLine
 10
518959.706
 20
4397670.11
 30
507.5
 11
518955.964
 21
4397675.443
 31
507.75
  0
LINE
  5
1C5
330
1F
100
AcDbEntity
  8
kat1
370
     0
100
AcDbLine
 10
518955.964
 20
4397675.443
 30
507.75
 11
518953.745
 21
4397678.07
 31
507.75
  0
LINE
  5
1C6
330
1F
100
AcDbEntity
  8
kat1
370
     0
100
AcDbLine
 10
518951.832
 20
4397675.358
 30
507.75
 11
518950.589
 21
4397680.896
 31
507.8500061035156
  0
LINE
  5
1C7
330
1F
100
AcDbEntity
  8
kat1
370
     0
100
AcDbLine
 10
518950.589
 20
4397680.896
 30
507.8500061035156
 11
518950.07
 21
4397684.558
 31
507.8500061035156
  0
LINE
  5
1C8
330
1F
100
AcDbEntity
  8
kat1
370
     0
100
AcDbLine
 10
518950.07
 20
4397684.558
 30
507.8500061035156
 11
518950.527
 21
4397687.491
 31
507.8500061035156
  0
LINE
  5
1C9
330
1F
100
AcDbEntity
  8
kat1
370
     0
100
AcDbLine
 10
518953.745
 20
4397678.07
 30
507.75
 11
518952.599
 21
4397681.841
 31
507.8500061035156
  0
LINE
  5
1CA
330
1F
100
AcDbEntity
  8
kat1
370
     0
100
AcDbLine
 10
518952.599
 20
4397681.841
 30
507.8500061035156
 11
518952.186
 21
4397683.671
 31
507.8500061035156
  0
LINE
  5
1CB
330
1F
100
AcDbEntity
  8
kat1
370
     0
100
AcDbLine
 10
518952.186
 20
4397683.671
 30
507.8500061035156
 11
518953.063
 21
4397688.458
 31
507.8500061035156
  0
LINE
  5
1CC
330
1F
100
AcDbEntity
  8
kat1
370
     0
100
AcDbLine
 10
518950.527
 20
4397687.491
 30
507.8500061035156
 11
518954.24
 21
4397708.285
 31
508.0
  0
LINE
  5
1CD
330
1F
100
AcDbEntity
  8
kat1
370
     0
100
AcDbLine
 10
518953.063
 20
4397688.458
 30
507.8500061035156
 11
518957.21
 21
4397707.358
 31
508.0
  0
LINE
  5
1CE
330
1F
100
AcDbEntity
  8
kat1
370
     0
100
AcDbLine
 10
518954.24
 20
4397708.285
 30
508.0
 11
518953.858
 21
4397722.949
 31
508.1499938964844
  0
LINE
  5
1CF
330
1F
100
AcDbEntity
  8
kat1
370
     0
100
AcDbLine
 10
518957.21
 20
4397707.358
 30
508.0
 11
518956.32
 21
4397721.171
 31
508.1499938964844
  0
LINE
  5
1D0
330
1F
100
AcDbEntity
  8
kat1
370
     0
100
AcDbLine
 10
518953.858
 20
4397722.949
 30
508.1499938964844
 11
518964.308
 21
4397755.507
 31
508.3999938964844
  0
LINE
  5
1D1
330
1F
100
AcDbEntity
  8
kat1
370
     0
100
AcDbLine
 10
518956.32
 20
4397721.171
 30
508.1499938964844
 11
518966.535
 21
4397755.241
 31
508.3999938964844
  0
LINE
  5
1D2
330
1F
100
AcDbEntity
  8
kat1
370
     0
100
AcDbLine
 10
518608.2846891019
 20
4397595.897604321
 30
503.0
 11
518881.794865876
 21
4397635.529169054
 31
505.6900024414062
  0
LINE
  5
1D3
330
1F
100
AcDbEntity
  8
kat1
370
     0
100
AcDbLine
 10
518609.7564167368
 20
4397593.691836721
 30
503.0
 11
518882.1982757064
 21
4397633.137691067
 31
505.6900024414062
  0
LINE
  5
1D4
330
1F
100
AcDbEntity
  8
kat1
370
     0
100
AcDbLine
 10
518881.794865876
 20
4397635.529169054
 30
505.6900024414062
 11
518943.8477086913
 21
4397644.134664538
 31
506.6000061035156
  0
LINE
  5
1D5
330
1F
100
AcDbEntity
  8
kat1
370
     0
100
AcDbLine
 10
518882.1982757064
 20
4397633.137691067
 30
505.6900024414062
 11
518942.7856587935
 21
4397641.510841954
 31
506.6000061035156
  0
LINE
  5
1D6
330
1F
100
AcDbEntity
  8
kat1
370
     0
100
AcDbLine
 10
518946.552
 20
4397639.802
 30
506.6000061035156
 11
518951.405
 21
4397634.24
 31
506.6000061035156
  0
LINE
  5
1D7
330
1F
100
AcDbEntity
  8
kat1
370
     0
100
AcDbLine
 10
518950.1060715822
 20
4397625.18929087
 30
506.6000061035156
 11
518952.036139179
 21
4397624.231405471
 31
506.6000061035156
  0
LINE
  5
1D8
330
1F
100
AcDbEntity
  8
kat1
370
     0
100
AcDbLine
 10
518958.095
 20
4397636.875
 30
506.6000061035156
 11
518965.589
 21
4397650.58
 31
506.6000061035156
  0
LINE
  5
1D9
330
1F
100
AcDbEntity
  8
kat1
370
     0
100
AcDbLine
 10
518963.036
 20
4397652.321
 30
506.6000061035156
 11
518960.3180108772
 21
4397646.813361024
 31
506.6000061035156
  0
LINE
  5
1DA
330
1F
100
AcDbEntity
  8
kat1
370
     0
100
AcDbLine
 10
518943.8477086913
 20
4397644.134664538
 30
506.6000061035156
 11
518944.98035924
 21
4397644.291740648
 31
506.6000061035156
  0
LINE
  5
1DB
330
1F
100
AcDbEntity
  8
kat1
370
     0
100
AcDbLine
 10
518944.98035924
 20
4397644.291740648
 30
506.6000061035156
 11
518945.761
 21
4397644.4
 31
506.6000061035156
  0
LINE
  5
1DC
330
1F
100
AcDbEntity
  8
kat1
370
     0
100
AcDbLine
 10
518945.761
 20
4397644.4
 30
506.6000061035156
 11
518948.353
 21
4397644.866
 31
506.6000061035156
  0
LINE
  5
1DD
330
1F
100
AcDbEntity
  8
kat1
370
     0
100
AcDbLine
 10
518948.353
 20
4397644.866
 30
506.6000061035156
 11
518951.164
 21
4397645.538
 31
506.6000061035156
  0
LINE
  5
1DE
330
1F
100
AcDbEntity
  8
kat1
370
     0
100
AcDbLine
 10
518951.164
 20
4397645.538
 30
506.6000061035156
 11
518952.687
 21
4397646.248
 31
506.6000061035156
  0
LINE
  5
1DF
330
1F
100
AcDbEntity
  8
kat1
370
     0
100
AcDbLine
 10
518948.68530612
 20
4397642.326170736
 30
506.6000061035156
 11
518955.697
 21
4397643.3
 31
506.6000061035156
  0
LINE
  5
1E0
330
1F
100
AcDbEntity
  8
kat1
370
     0
100
AcDbLine
 10
518955.697
 20
4397643.3
 30
506.6000061035156
 11
518958.5171609972
 21
4397643.16418123
 31
506.6000061035156
  0
LINE
  5
1E1
330
1F
100
AcDbEntity
  8
kat1
370
     0
100
AcDbLine
 10
518958.5171609972
 20
4397643.16418123
 30
506.6000061035156
 11
518956.133
 21
4397638.333
 31
506.6000061035156
  0
LINE
  5
1E2
330
1F
100
AcDbEntity
  8
kat1
370
     0
100
AcDbLine
 10
518956.133
 20
4397638.333
 30
506.6000061035156
 11
518954.3405732902
 21
4397634.424021217
 31
506.6000061035156
  0
LINE
  5
1E3
330
1F
100
AcDbEntity
  8
kat1
370
     0
100
AcDbLine
 10
518954.3405732902
 20
4397634.424021217
 30
506.6000061035156
 11
518949.406
 21
4397640.669
 31
506.6000061035156
  0
LINE
  5
1E4
330
1F
100
AcDbEntity
  8
kat1
370
     0
100
AcDbLine
 10
518949.406
 20
4397640.669
 30
506.6000061035156
 11
518948.68530612
 21
4397642.326170736
 31
506.6000061035156
  0
LINE
  5
1E5
330
1F
100
AcDbEntity
  8
kat1
370
     0
100
AcDbLine
 10
518951.405
 20
4397634.24
 30
506.6000061035156
 11
518953.155790152
 21
4397631.84021005
 31
506.6000061035156
  0
LINE
  5
1E6
330
1F
100
AcDbEntity
  8
kat1
370
     0
100
AcDbLine
 10
518953.155790152
 20
4397631.84021005
 30
506.6000061035156
 11
518950.1060715822
 21
4397625.18929087
 31
506.6000061035156
  0
LINE
  5
1E7
330
1F
100
AcDbEntity
  8
kat1
370
     0
100
AcDbLine
 10
518952.036139179
 20
4397624.231405471
 30
506.6000061035156
 11
518958.095
 21
4397636.875
 31
506.6000061035156
  0
LINE
  5
1E8
330
1F
100
AcDbEntity
  8
kat1
370
     0
100
AcDbLine
 10
518960.3180108772
 20
4397646.813361024
 30
506.6000061035156
 11
518955.955
 21
4397647.168
 31
506.6000061035156
  0
LINE
  5
1E9
330
1F
100
AcDbEntity
  8
kat1
370
     0
100
AcDbLine
 10
518942.7856587935
 20
4397641.510841954
 30
506.6000061035156
 11
518944.983
 21
4397640.742
 31
506.6000061035156
  0
LINE
  5
1EA
330
1F
100
AcDbEntity
  8
kat1
370
     0
100
AcDbLine
 10
518944.983
 20
4397640.742
 30
506.6000061035156
 11
518945.471
 21
4397640.751
 31
506.6000061035156
  0
LINE
  5
1EB
330
1F
100
AcDbEntity
  8
kat1
370
     0
100
AcDbLine
 10
518945.471
 20
4397640.751
 30
506.6000061035156
 11
518946.552
 21
4397639.802
 31
506.6000061035156
  0
LINE
  5
1EC
330
1F
100
AcDbEntity
  8
kat1
370
     0
100
AcDbLine
 10
518928.214
 20
4397788.605
 30
509.2000122070312
 11
518938.574
 21
4397809.174
 31
510.0
  0
LINE
  5
1ED
330
1F
100
AcDbEntity
  8
kat1
370
     0
100
AcDbLine
 10
518938.574
 20
4397809.174
 30
510.0
 11
518939.172
 21
4397809.368
 31
510.0
  0
LINE
  5
1EE
330
1F
100
AcDbEntity
  8
kat1
370
     0
100
AcDbLine
 10
518939.172
 20
4397809.368
 30
510.0
 11
518942.1942114492
 21
4397807.993722751
 31
510.0
  0
LINE
  5
1EF
330
1F
100
AcDbEntity
  8
kat1
370
     0
100
AcDbLine
 10
518942.1942114492
 20
4397807.993722751
 30
510.0
 11
518940.8572753977
 21
4397805.701572509
 31
510.0
  0
LINE
  5
1F0
330
1F
100
AcDbEntity
  8
kat1
370
     0
100
AcDbLine
 10
518940.8572753977
 20
4397805.701572509
 30
510.0
 11
518939.397
 21
4397806.491
 31
510.0
  0
LINE
  5
1F1
330
1F
100
AcDbEntity
  8
kat1
370
     0
100
AcDbLine
 10
518939.397
 20
4397806.491
 30
510.0
 11
518930.744
 21
4397786.92
 31
509.2000122070312
  0
POINT
  5
1F2
330
1F
100
AcDbEntity
  8
kat1
370
     0
100
AcDbPoint
 10
518978.6185435444
 20
4397678.760068841
 30
494.3999938964844
  0
POINT
  5
1F3
330
1F
100
AcDbEntity
  8
kat1
370
     0
100
AcDbPoint
 10
518976.8174517166
 20
4397679.769143213
 30
494.3999938964844
  0
POINT
  5
1F4
330
1F
100
AcDbEntity
  8
kat1
370
     0
100
AcDbPoint
 10
518977.5506128179
 20
4397681.077758817
 30
494.3999938964844
  0
POINT
  5
1F5
330
1F
100
AcDbEntity
  8
kat1
370
     0
100
AcDbPoint
 10
518979.3755805507
 20
4397680.055307802
 30
494.3999938964844
  0
POINT
  5
1F6
330
1F
100
AcDbEntity
  8
kat1
370
     0
100
AcDbPoint
 10
518993.2030736604
 20
4397706.604304058
 30
482.7000122070312
  0
POINT
  5
1F7
330
1F
100
AcDbEntity
  8
kat1
370
     0
100
AcDbPoint
 10
518991.4103226945
 20
4397707.991401657
 30
482.7000122070312
  0
POINT
  5
1F8
330
1F
100
AcDbEntity
  8
kat1
370
     0
100
AcDbPoint
 10
518992.3282354553
 20
4397709.177755804
 30
482.7000122070312
  0
POINT
  5
1F9
330
1F
100
AcDbEntity
  8
kat1
370
     0
100
AcDbPoint
 10
518993.9080512683
 20
4397707.955411619
 30
482.7000122070312
  0
POINT
  5
200
330
1F
100
AcDbEntity
  8
kat1
370
     0
100
AcDbPoint
 10
518979.037387243
 20
4397798.420682433
 30
470.0
  0
POINT
  5
201
330
1F
100
AcDbEntity
  8
kat1
370
     0
100
AcDbPoint
 10
518980.4168714965
 20
4397797.751724477
 30
470.0
  0
LINE
  5
212
330
1F
100
AcDbEntity
  8
kat1
370
     0
100
AcDbLine
 10
518979.037387243
 20
4397798.420682433
 30
470.0
 11
518980.4920727212
 21
4397800.848220517
 31
463.2000122070312
  0
LINE
  5
213
330
1F
100
AcDbEntity
  8
kat1
370
     0
100
AcDbLine
 10
518980.4168714965
 20
4397797.751724477
 30
470.0
 11
518982.3683124752
 21
4397799.977488549
 31
463.2000122070312
  0
LINE
  5
216
330
1F
100
AcDbEntity
  8
kat1
370
     0
100
AcDbLine
 10
518963.036
 20
4397652.321
 30
506.6000061035156
 11
518978.6185435444
 21
4397678.760068841
 31
494.3999938964844
  0
LINE
  5
217
330
1F
100
AcDbEntity
  8
kat1
370
     0
100
AcDbLine
 10
518978.6185435444
 20
4397678.760068841
 30
494.3999938964844
 11
518976.8174517166
 21
4397679.769143213
 31
494.3999938964844
  0
LINE
  5
218
330
1F
100
AcDbEntity
  8
kat1
370
     0
100
AcDbLine
 10
518976.8174517166
 20
4397679.769143213
 30
494.3999938964844
 11
518977.5506128179
 21
4397681.077758817
 31
494.3999938964844
  0
LINE
  5
219
330
1F
100
AcDbEntity
  8
kat1
370
     0
100
AcDbLine
 10
518977.5506128179
 20
4397681.077758817
 30
494.3999938964844
 11
518979.3755805507
 21
4397680.055307802
 31
494.3999938964844
  0
LINE
  5
21A
330
1F
100
AcDbEntity
  8
kat1
370
     0
100
AcDbLine
 10
518979.3755805507
 20
4397680.055307802
 30
494.3999938964844
 11
518993.2030736604
 21
4397706.604304058
 31
482.7000122070312
  0
LINE
  5
21B
330
1F
100
AcDbEntity
  8
kat1
370
     0
100
AcDbLine
 10
518993.2030736604
 20
4397706.604304058
 30
482.7000122070312
 11
518991.4103226945
 21
4397707.991401657
 31
482.7000122070312
  0
LINE
  5
21C
330
1F
100
AcDbEntity
  8
kat1
370
     0
100
AcDbLine
 10
518991.4103226945
 20
4397707.991401657
 30
482.7000122070312
 11
518992.3282354553
 21
4397709.177755804
 31
482.7000122070312
  0
LINE
  5
21D
330
1F
100
AcDbEntity
  8
kat1
370
     0
100
AcDbLine
 10
518992.3282354553
 20
4397709.177755804
 30
482.7000122070312
 11
518993.9080512683
 21
4397707.955411619
 31
482.7000122070312
  0
LINE
  5
21E
330
1F
100
AcDbEntity
  8
kat1
370
     0
100
AcDbLine
 10
518993.9080512683
 20
4397707.955411619
 30
482.7000122070312
 11
519013.889
 21
4397746.345
 31
463.1000061035156
  0
LINE
  5
21F
330
1F
100
AcDbEntity
  8
kat1
370
     0
100
AcDbLine
 10
518965.589
 20
4397650.58
 30
506.6000061035156
 11
519016.574
 21
4397745.526
 31
463.1000061035156
  0
POINT
  5
4E4
330
1F
100
AcDbEntity
  8
kat1
370
     0
100
AcDbPoint
 10
518392.9198
 20
4397644.4122
 30
498.3847045898438
  0
POINT
  5
4E5
330
1F
100
AcDbEntity
  8
kat1
370
     0
100
AcDbPoint
 10
518395.96
 20
4397649.241900001
 30
498.3847045898438
  0
POINT
  5
4E6
330
1F
100
AcDbEntity
  8
kat1
370
     0
100
AcDbPoint
 10
518401.1167903506
 20
4397646.286215126
 30
498.3847045898438
  0
POINT
  5
4E7
330
1F
100
AcDbEntity
  8
kat1
370
     0
100
AcDbPoint
 10
518398.2813235336
 20
4397641.339169503
 30
498.3847045898438
  0
LINE
  5
4E8
330
1F
100
AcDbEntity
  8
kat1
370
     0
100
AcDbLine
 10
518398.2813235336
 20
4397641.339169503
 30
498.3847045898438
 11
518392.9198
 21
4397644.4122
 31
498.3847045898438
  0
LINE
  5
4E9
330
1F
100
AcDbEntity
  8
kat1
370
     0
100
AcDbLine
 10
518392.9198
 20
4397644.4122
 30
498.3847045898438
 11
518395.96
 21
4397649.241900001
 31
498.3847045898438
  0
LINE
  5
4EA
330
1F
100
AcDbEntity
  8
kat1
370
     0
100
AcDbLine
 10
518395.96
 20
4397649.241900001
 30
498.3847045898438
 11
518401.1167903506
 21
4397646.286215126
 31
498.3847045898438
  0
LINE
  5
4EB
330
1F
100
AcDbEntity
  8
kat1
370
     0
100
AcDbLine
 10
518401.1167903506
 20
4397646.286215126
 30
498.3847045898438
 11
518398.2813235336
 21
4397641.339169503
 31
498.3847045898438
  0
POINT
  5
526
330
1F
100
AcDbEntity
  8
INIT_COORD
100
AcDbPoint
 10
518609.0205529193
 20
4397594.794720521
 30
503.0
  0
LINE
  5
58F
330
1F
100
AcDbEntity
  8
geofence
100
AcDbLine
 10
518395.96
 20
4397649.241900001
 30
498.3847045898438
 11
518398.2813235336
 21
4397641.339169503
 31
498.3847045898438
  0
LINE
  5
590
330
1F
100
AcDbEntity
  8
geofence
100
AcDbLine
 10
518609.0205529193
 20
4397594.794720521
 30
503.0
 11
518628.8130812958
 21
4397597.660589977
 31
503.2064284968012
  0
LINE
  5
591
330
1F
100
AcDbEntity
  8
geofence
100
AcDbLine
 10
518628.8130812958
 20
4397597.660589977
 30
503.2064284968012
 11
518648.6056096723
 21
4397600.526459433
 31
503.4128569936022
  0
LINE
  5
592
330
1F
100
AcDbEntity
  8
geofence
100
AcDbLine
 10
518648.6056096723
 20
4397600.526459433
 30
503.4128569936022
 11
518668.3981380488
 21
4397603.392328889
 31
503.6192854904033
  0
LINE
  5
594
330
1F
100
AcDbEntity
  8
geofence
100
AcDbLine
 10
518954.192
 20
4397644.774
 30
506.6000061035156
 11
518954.192
 21
4397644.774
 31
506.6000061035156
  0
LINE
  5
595
330
1F
100
AcDbEntity
  8
geofence
100
AcDbLine
 10
518954.192
 20
4397644.774
 30
506.6000061035156
 11
518954.192
 21
4397644.774
 31
506.6000061035156
  0
LINE
  5
596
330
1F
100
AcDbEntity
  8
geofence
100
AcDbLine
 10
518954.192
 20
4397644.774
 30
506.6000061035156
 11
518954.192
 21
4397644.774
 31
506.6000061035156
  0
LINE
  5
59A
330
1F
100
AcDbEntity
  8
geofence
100
AcDbLine
 10
518668.3981380488
 20
4397603.392328889
 30
503.6192854904033
 11
518688.1906664253
 21
4397606.258198345
 31
503.8257139872043
  0
LINE
  5
59C
330
1F
100
AcDbEntity
  8
geofence
100
AcDbLine
 10
518688.1906664253
 20
4397606.258198345
 30
503.8257139872043
 11
518707.9831948018
 21
4397609.124067801
 31
504.0321424840053
  0
LINE
  5
59D
330
1F
100
AcDbEntity
  8
geofence
100
AcDbLine
 10
518707.9831948018
 20
4397609.124067801
 30
504.0321424840053
 11
518727.7757231783
 21
4397611.989937257
 31
504.2385709808062
  0
LINE
  5
59E
330
1F
100
AcDbEntity
  8
geofence
100
AcDbLine
 10
518727.7757231783
 20
4397611.989937257
 30
504.2385709808062
 11
518747.5682515549
 21
4397614.855806713
 31
504.4449994776071
  0
LINE
  5
59F
330
1F
100
AcDbEntity
  8
geofence
100
AcDbLine
 10
518747.5682515549
 20
4397614.855806713
 30
504.4449994776071
 11
518767.3607799314
 21
4397617.721676169
 31
504.6514279744079
  0
LINE
  5
5A0
330
1F
100
AcDbEntity
  8
geofence
100
AcDbLine
 10
518767.3607799314
 20
4397617.721676169
 30
504.6514279744079
 11
518787.1533083079
 21
4397620.587545625
 31
504.8578564712087
  0
LINE
  5
5A1
330
1F
100
AcDbEntity
  8
geofence
100
AcDbLine
 10
518787.1533083079
 20
4397620.587545625
 30
504.8578564712087
 11
518806.9458366844
 21
4397623.453415081
 31
505.0642849680094
  0
LINE
  5
5A2
330
1F
100
AcDbEntity
  8
geofence
100
AcDbLine
 10
518806.9458366844
 20
4397623.453415081
 30
505.0642849680094
 11
518826.7383650609
 21
4397626.319284537
 31
505.27071346481
  0
LINE
  5
5A3
330
1F
100
AcDbEntity
  8
geofence
100
AcDbLine
 10
518826.7383650609
 20
4397626.319284537
 30
505.27071346481
 11
518846.5308934374
 21
4397629.185153994
 31
505.4771419616105
  0
LINE
  5
5A4
330
1F
100
AcDbEntity
  8
geofence
100
AcDbLine
 10
518846.5308934374
 20
4397629.185153994
 30
505.4771419616105
 11
518866.3234218139
 21
4397632.05102345
 31
505.6835704584112
  0
LINE
  5
5A5
330
1F
100
AcDbEntity
  8
geofence
100
AcDbLine
 10
518866.3234218139
 20
4397632.05102345
 30
505.6835704584112
 11
518886.1159501904
 21
4397634.916892907
 31
505.8899989552118
  0
LINE
  5
5A6
330
1F
100
AcDbEntity
  8
geofence
100
AcDbLine
 10
518886.1159501904
 20
4397634.916892907
 30
505.8899989552118
 11
518905.9084785669
 21
4397637.782762363
 31
506.0964274520125
  0
LINE
  5
5A7
330
1F
100
AcDbEntity
  8
geofence
100
AcDbLine
 10
518905.9084785669
 20
4397637.782762363
 30
506.0964274520125
 11
518925.7010069434
 21
4397640.64863182
 31
506.3028559488131
  0
LINE
  5
5A8
330
1F
100
AcDbEntity
  8
geofence
100
AcDbLine
 10
518925.7010069434
 20
4397640.64863182
 30
506.3028559488131
 11
518946.264
 21
4397642.692
 31
506.6000061035156
  0
LINE
  5
5AB
330
1F
100
AcDbEntity
  8
geofence
100
AcDbLine
 10
518946.264
 20
4397642.692
 30
506.6000061035156
 11
518954.7030714399
 21
4397632.488611976
 31
506.6000061035156
  0
LINE
  5
5AD
330
1F
100
AcDbEntity
  8
geofence
100
AcDbLine
 10
518954.7030714399
 20
4397632.488611976
 30
506.6000061035156
 11
518952.5876351598
 21
4397627.958167258
 31
506.6000061035156
  0
LINE
  5
5AE
330
1F
100
AcDbEntity
  8
geofence
100
AcDbLine
 10
518954.7030714399
 20
4397632.488611976
 30
506.6000061035156
 11
518961.0800054386
 21
4397645.270430513
 31
506.6000061035156
  0
LINE
  5
5AF
330
1F
100
AcDbEntity
  8
geofence
100
AcDbLine
 10
518946.264
 20
4397642.692
 30
506.6000061035156
 11
518954.192
 21
4397644.774
 31
506.6000061035156
  0
LINE
  5
5B0
330
1F
100
AcDbEntity
  8
geofence
100
AcDbLine
 10
518954.192
 20
4397644.774
 30
506.6000061035156
 11
518961.0800054386
 21
4397645.270430513
 31
506.6000061035156
  0
LINE
  5
5B2
330
1F
100
AcDbEntity
  8
geofence
100
AcDbLine
 10
518954.1919999996
 20
4397644.774
 30
506.6000061035156
 11
518960.8531394602
 21
4397663.622236702
 31
507.2109024500792
  0
LINE
  5
5B3
330
1F
100
AcDbEntity
  8
geofence
100
AcDbLine
 10
518960.8531394602
 20
4397663.622236702
 30
507.2109024500792
 11
518959.1832568662
 21
4397668.327863773
 31
507.4727535207509
  0
LINE
  5
5B5
330
1F
100
AcDbEntity
  8
geofence
100
AcDbLine
 10
518959.1832568662
 20
4397668.327863773
 30
507.4727535207509
 11
518953.1217278664
 21
4397676.277002262
 31
507.7355528123004
  0
LINE
  5
5B9
330
1F
100
AcDbEntity
  8
geofence
100
AcDbLine
 10
518953.1217278664
 20
4397676.277002262
 30
507.7355528123004
 11
518951.8891932315
 21
4397681.122190803
 31
507.8063085297057
  0
LINE
  5
5BA
330
1F
100
AcDbEntity
  8
geofence
100
AcDbLine
 10
518951.8891932315
 20
4397681.122190803
 30
507.8063085297057
 11
518951.128
 21
4397684.1145
 31
507.8500061035156
  0
LINE
  5
5BC
330
1F
100
AcDbEntity
  8
geofence
100
AcDbLine
 10
518951.128
 20
4397684.1145
 30
507.8500061035156
 11
518955.8869858061
 21
4397708.656870351
 31
508.0052853779067
  0
LINE
  5
5BE
330
1F
100
AcDbEntity
  8
geofence
100
AcDbLine
 10
518955.8869858061
 20
4397708.656870351
 30
508.0052853779067
 11
518954.9955570746
 21
4397723.629486118
 31
508.1669390441452
  0
LINE
  5
5BF
330
1F
100
AcDbEntity
  8
geofence
100
AcDbLine
 10
518954.9955570746
 20
4397723.629486118
 30
508.1669390441452
 11
518961.2221960913
 21
4397742.635001284
 31
508.3060786549321
  0
LINE
  5
5C1
330
1F
100
AcDbEntity
  8
geofence
100
AcDbLine
 10
518961.2221960913
 20
4397742.635001284
 30
508.3060786549321
 11
518965.8921753538
 21
4397756.889137658
 31
508.4104333630198
  0
LINE
  5
5C2
330
1F
100
AcDbEntity
  8
geofence
100
AcDbLine
 10
518964.2195
 20
4397759.5625
 30
508.3999938964844
 11
518962.0343435883
 21
4397760.069865522
 31
508.4002192961696
  0
LINE
  5
5C3
330
1F
100
AcDbEntity
  8
geofence
100
AcDbLine
 10
518962.0343435883
 20
4397760.069865522
 30
508.4002192961696
 11
518944.8440173504
 21
4397770.288003668
 31
508.6871629432607
  0
LINE
  5
5C4
330
1F
100
AcDbEntity
  8
geofence
100
AcDbLine
 10
518944.8440173504
 20
4397770.288003668
 30
508.6871629432607
 11
518927.6536911125
 21
4397780.506141814
 31
508.9741065903511
  0
LINE
  5
5C6
330
1F
100
AcDbEntity
  8
geofence
100
AcDbLine
 10
518927.6536911125
 20
4397780.506141814
 30
508.9741065903511
 11
518926.1024591413
 21
4397781.428212889
 31
509.0
  0
LINE
  5
5C7
330
1F
100
AcDbEntity
  8
geofence
100
AcDbLine
 10
518926.1024591413
 20
4397781.428212889
 30
509.0
 11
518928.5029854271
 21
4397785.811027385
 31
509.168554563291
  0
LINE
  5
5C8
330
1F
100
AcDbEntity
  8
geofence
100
AcDbLine
 10
518928.5029854271
 20
4397785.811027385
 30
509.168554563291
 11
518925.1225094953
 21
4397789.49404995
 31
509.2564594126569
  0
LINE
  5
5C9
330
1F
100
AcDbEntity
  8
geofence
100
AcDbLine
 10
518925.1225094953
 20
4397789.49404995
 30
509.2564594126569
 11
518912.4091133125
 21
4397797.439923077
 31
509.7388054985923
  0
LINE
  5
5CB
330
1F
100
AcDbEntity
  8
geofence
100
AcDbLine
 10
518939.397
 20
4397806.491
 30
510.0
 11
518939.172
 21
4397809.368
 31
510.0
  0
LINE
  5
5CC
330
1F
100
AcDbEntity
  8
geofence
100
AcDbLine
 10
518928.5029854271
 20
4397785.811027385
 30
509.168554563291
 11
518937.2612169873
 21
4397803.778698218
 31
509.8439690994476
  0
LINE
  5
5CD
330
1F
100
AcDbEntity
  8
geofence
100
AcDbLine
 10
518937.2612169873
 20
4397803.778698218
 30
509.8439690994476
 11
518939.4507748774
 21
4397808.270615926
 31
510.0128227334975
  0
LINE
  5
5CE
330
1F
100
AcDbEntity
  8
geofence
100
AcDbLine
 10
518939.4507748774
 20
4397808.270615926
 30
510.0128227334975
 11
518941.1713063128
 21
4397807.267086375
 31
510.0026444161954
  0
LINE
  5
5CF
330
1F
100
AcDbEntity
  8
geofence
100
AcDbLine
 10
518926.1024591413
 20
4397781.428212889
 30
509.0
 11
518910.4556804938
 21
4397793.86350119
 31
509.7361540698941
  0
LINE
  5
5D1
330
1F
100
AcDbEntity
  8
geofence
100
AcDbLine
 10
518910.4556804938
 20
4397793.86350119
 30
509.7361540698941
 11
518902.63229117
 21
4397800.081145341
 31
510.1042311048463
  0
LINE
  5
5D2
330
1F
100
AcDbEntity
  8
geofence
100
AcDbLine
 10
518902.63229117
 20
4397800.081145341
 30
510.1042311048463
 11
518892.9288804578
 21
4397802.497178155
 31
510.0229538473379
  0
LINE
  5
5D3
330
1F
100
AcDbEntity
  8
geofence
100
AcDbLine
 10
518892.9288804578
 20
4397802.497178155
 30
510.0229538473379
 11
518890.1885
 21
4397803.179500001
 31
510.0
  0
LINE
  5
5D4
330
1F
100
AcDbEntity
  8
geofence
100
AcDbLine
 10
518890.1885
 20
4397803.179500001
 30
510.0
 11
518884.7234014726
 21
4397794.807826507
 31
510.2185886683792
  0
LINE
  5
5D5
330
1F
100
AcDbEntity
  8
geofence
100
AcDbLine
 10
518890.1885
 20
4397803.179500001
 30
510.0
 11
518886.1936298706
 21
4397806.177176283
 31
510.2344132220049
  0
LINE
  5
5DA
330
1F
100
AcDbEntity
  8
geofence
100
AcDbLine
 10
518965.8921753538
 20
4397756.889137658
 30
508.4104333630198
 11
518964.2195
 21
4397759.5625
 31
508.3999938964844
  0
LINE
  5
5DF
330
1F
100
AcDbEntity
  8
geofence
100
AcDbLine
 10
518964.2195
 20
4397759.5625
 30
508.3999938964844
 11
518967.5038764284
 21
4397769.657779475
 31
508.9969713077846
  0
LINE
  5
5E0
330
1F
100
AcDbEntity
  8
geofence
100
AcDbLine
 10
518967.5038764284
 20
4397769.657779475
 30
508.9969713077846
 11
518976.3500509533
 21
4397764.994605857
 31
508.999814864199
  0
LINE
  5
5E1
330
1F
100
AcDbEntity
  8
geofence
100
AcDbLine
 10
518967.5038764284
 20
4397769.657779475
 30
508.9969713077846
 11
518969.7115404019
 21
4397779.408152753
 31
509.2345438291059
  0
LINE
  5
5E2
330
1F
100
AcDbEntity
  8
geofence
100
AcDbLine
 10
518969.7115404019
 20
4397779.408152753
 30
509.2345438291059
 11
518970.8153723886
 21
4397784.283339393
 31
509.3533300897642
  0
LINE
  5
5E3
330
1F
100
AcDbEntity
  8
geofence
100
AcDbLine
 10
518961.0800054386
 20
4397645.270430513
 30
506.6000061035156
 11
518970.161906349
 21
4397662.028803937
 31
500.5439350977524
  0
LINE
  5
5E4
330
1F
100
AcDbEntity
  8
geofence
100
AcDbLine
 10
518970.161906349
 20
4397662.028803937
 30
500.5439350977524
 11
518979.2438072595
 21
4397678.787177362
 31
494.4878640919484
  0
LINE
  5
5E5
330
1F
100
AcDbEntity
  8
geofence
100
AcDbLine
 10
518979.2438072595
 20
4397678.787177362
 30
494.4878640919484
 11
518977.6786695488
 21
4397680.030513944
 31
494.4210951695731
  0
LINE
  5
5E6
330
1F
100
AcDbEntity
  8
geofence
100
AcDbLine
 10
518979.2438072595
 20
4397678.787177362
 30
494.4878640919484
 11
518988.2198552946
 21
4397695.243224941
 31
487.5144101619692
  0
LINE
  5
5E8
330
1F
100
AcDbEntity
  8
geofence
100
AcDbLine
 10
518988.2198552946
 20
4397695.243224941
 30
487.5144101619692
 11
518994.4168227855
 21
4397706.604304058
 31
482.7000122070312
  0
LINE
  5
5E9
330
1F
100
AcDbEntity
  8
geofence
100
AcDbLine
 10
518994.4168227855
 20
4397706.604304058
 30
482.7000122070312
 11
518992.8377735122
 21
4397707.831741793
 31
482.7000122070312
  0
LINE
  5
5EA
330
1F
100
AcDbEntity
  8
geofence
100
AcDbLine
 10
518994.4168227855
 20
4397706.604304058
 30
482.7000122070312
 11
519003.241057341
 21
4397722.857842998
 31
475.0871706582462
  0
LINE
  5
5EC
330
1F
100
AcDbEntity
  8
geofence
100
AcDbLine
 10
519003.241057341
 20
4397722.857842998
 30
475.0871706582462
 11
519012.0652918965
 21
4397739.111381938
 31
467.4743291095397
  0
LINE
  5
5EF
330
1F
100
AcDbEntity
  8
geofence
100
AcDbLine
 10
519012.0652918965
 20
4397739.111381938
 30
467.4743291095397
 11
519018.063
 21
4397750.158683728
 31
462.2999877929688
  0
LINE
  5
5F0
330
1F
100
AcDbEntity
  8
geofence
100
AcDbLine
 10
519018.063
 20
4397750.158683728
 30
462.2999877929688
 11
519022.7402769199
 21
4397748.391459743
 31
462.2999877929688
  0
LINE
  5
5F1
330
1F
100
AcDbEntity
  8
geofence
100
AcDbLine
 10
519018.063
 20
4397750.158683728
 30
462.2999877929688
 11
519019.3883511451
 21
4397754.979220478
 31
462.3766023616436
  0
LINE
  5
5F2
330
1F
100
AcDbEntity
  8
geofence
100
AcDbLine
 10
519019.3883511451
 20
4397754.979220478
 30
462.3766023616436
 11
519014.3955445777
 21
4397774.301303276
 31
463.6915164013648
  0
LINE
  5
5F3
330
1F
100
AcDbEntity
  8
geofence
100
AcDbLine
 10
519014.3955445777
 20
4397774.301303276
 30
463.6915164013648
 11
519005.209530701
 21
4397778.131951394
 31
462.7202882861578
  0
LINE
  5
5F4
330
1F
100
AcDbEntity
  8
geofence
100
AcDbLine
 10
519005.209530701
 20
4397778.131951394
 30
462.7202882861578
 11
518993.423281629
 21
4397794.289253998
 31
462.8812398492107
  0
LINE
  5
5F5
330
1F
100
AcDbEntity
  8
geofence
100
AcDbLine
 10
518993.423281629
 20
4397794.289253998
 30
462.8812398492107
 11
518983.7352009403
 21
4397799.808164172
 31
463.2000122070312
  0
LINE
  5
5FA
330
1F
100
AcDbEntity
  8
geofence
100
AcDbLine
 10
518983.7352009403
 20
4397799.808164172
 30
463.2000122070312
 11
518981.7577812376
 21
4397801.452369275
 31
463.2000122070312
  0
LINE
  5
5FD
330
1F
100
AcDbEntity
  8
geofence
100
AcDbLine
 10
518983.7352009403
 20
4397799.808164172
 30
463.2000122070312
 11
518979.4876977263
 21
4397790.758762917
 31
463.4589588754508
  0
LINE
  5
5FE
330
1F
100
AcDbEntity
  8
geofence
100
AcDbLine
 10
518980.4168714965
 20
4397797.751724477
 30
470.0
 11
518979.037387243
 21
4397798.420682433
 31
470.0
  0
LINE
  5
5FF
330
1F
100
AcDbEntity
  8
geofence
100
AcDbLine
 10
518981.7577812376
 20
4397801.452369275
 30
463.2000122070312
 11
518980.4651268663
 21
4397799.309565267
 31
467.5286881777938
  0
LINE
  5
600
330
1F
100
AcDbEntity
  8
geofence
100
AcDbLine
 10
518981.7577812376
 20
4397801.452369275
 30
463.2000122070312
 11
518977.160684825
 21
4397803.418763074
 31
463.2000122070312
  0
LINE
  5
601
330
1F
100
AcDbEntity
  8
geofence
100
AcDbLine
 10
518977.160684825
 20
4397803.418763074
 30
463.2000122070312
 11
518972.1689326346
 21
4397803.629378372
 31
463.3950795435466
  0
LINE
  5
605
330
1F
100
AcDbEntity
  8
geofence
100
AcDbLine
 10
518962.7505551055
 20
4397806.988004499
 30
463.5125327536871
 11
518948.2584723945
 21
4397810.8534511
 31
463.7071124950073
  0
LINE
  5
606
330
1F
100
AcDbEntity
  8
geofence
100
AcDbLine
 10
518948.2584723945
 20
4397810.8534511
 30
463.7071124950073
 11
518945.0642587246
 21
4397811.705437845
 31
463.75
  0
LINE
  5
60B
330
1F
100
AcDbEntity
  8
geofence
100
AcDbLine
 10
518972.1689326346
 20
4397803.629378372
 30
463.3950795435466
 11
518967.4597438701
 21
4397805.308691435
 31
463.4538061486169
  0
LINE
  5
60C
330
1F
100
AcDbEntity
  8
geofence
100
AcDbLine
 10
518967.4597438701
 20
4397805.308691435
 30
463.4538061486169
 11
518962.7505551055
 21
4397806.988004499
 31
463.5125327536873
  0
LINE
  5
60D
330
1F
100
AcDbEntity
  8
geofence
100
AcDbLine
 10
518967.4597438701
 20
4397805.308691435
 30
463.4538061486169
 11
518961.4033933796
 21
4397813.26596349
 31
463.5032043047551
  0
LINE
  5
60E
330
1F
100
AcDbEntity
  8
geofence
100
AcDbLine
 10
518961.4033933796
 20
4397813.26596349
 30
463.5032043047551
 11
518956.4033933796
 21
4397813.265963491
 31
463.5032043047551
  0
LINE
  5
60F
330
1F
100
AcDbEntity
  8
geofence
100
AcDbLine
 10
518956.4033933796
 20
4397813.265963491
 30
463.5032043047551
 11
518945.0642587246
 21
4397811.705437845
 31
463.75
  0
LINE
  5
611
330
1F
100
AcDbEntity
  8
geofence
100
AcDbLine
 10
518945.0642587246
 20
4397811.705437845
 30
463.75
 11
518942.9809955062
 21
4397807.160913233
 31
463.8355009430672
  0
LINE
  5
614
330
1F
100
AcDbEntity
  8
geofence
100
AcDbLine
 10
518963.7555357745
 20
4397806.629624903
 30
463.5
 11
518959.8169550411
 21
4397797.439849732
 31
463.6887169994852
  0
LINE
  5
616
330
1F
100
AcDbEntity
  8
geofence
100
AcDbLine
 10
518964.2195
 20
4397759.5625
 30
508.3999938964844
 11
518968.7992612714
 21
4397757.556063682
 31
508.3999938964844
  0
LINE
  5
618
330
1F
100
AcDbEntity
  8
geofence
100
AcDbLine
 10
518968.7992612714
 20
4397757.556063682
 30
508.3999938964844
 11
518971.404841522
 21
4397754.521108731
 31
508.3999938964844
  0
ENDSEC
  0
SECTION
  2
OBJECTS
  0
DICTIONARY
  5
C
330
0
100
AcDbDictionary
281
     1
  3
ACAD_DETAILVIEWSTYLE
350
53E
  3
ACAD_GROUP
350
D
  3
ACAD_LAYOUT
350
1A
  3
ACAD_MATERIAL
350
3B
  3
ACAD_MLEADERSTYLE
350
4ED
  3
ACAD_MLINESTYLE
350
17
  3
ACAD_PLOTSETTINGS
350
19
  3
ACAD_PLOTSTYLENAME
350
E
  3
ACAD_SCALELIST
350
4EE
  3
ACAD_SECTIONVIEWSTYLE
350
53F
  3
ACAD_TABLESTYLE
350
4EC
  3
ACAD_VISUALSTYLE
350
2A
  3
ACDB_RECOMPOSE_DATA
350
621
  3
AcDbVariableDictionary
350
53A
  3
APPDATA
350
51C
  0
SUN
  5
529
330
528
100
AcDbSun
 90
        1
290
     0
 63
     7
421
 16777215
 40
1.0
291
     1
 91
  2455826
 92
 54000000
292
     0
 70
     2
 71
   256
280
     1
  0
DICTIONARY
  5
51E
330
2
100
AcDbDictionary
280
     1
281
     1
  3
ACAD_LAYERSTATES
360
51F
  3
ACLYDICTIONARY
360
61E
  0
DICTIONARY
  5
53E
102
{ACAD_REACTORS
330
C
102
}
330
C
100
AcDbDictionary
281
     1
  0
DICTIONARY
  5
D
102
{ACAD_REACTORS
330
C
102
}
330
C
100
AcDbDictionary
281
     1
  0
DICTIONARY
  5
1A
102
{ACAD_REACTORS
330
C
102
}
330
C
100
AcDbDictionary
281
     1
  3
Layout1
350
1E
  3
Layout2
350
26
  3
Model
350
22
  0
DICTIONARY
  5
3B
102
{ACAD_REACTORS
330
C
102
}
330
C
100
AcDbDictionary
281
     1
  3
ByBlock
350
3D
  3
ByLayer
350
3C
  3
Global
350
3E
  0
DICTIONARY
  5
4ED
102
{ACAD_REACTORS
330
C
102
}
330
C
100
AcDbDictionary
281
     1
  3
Standard
350
51B
  0
DICTIONARY
  5
17
102
{ACAD_REACTORS
330
C
102
}
330
C
100
AcDbDictionary
281
     1
  3
Standard
350
18
  0
DICTIONARY
  5
19
102
{ACAD_REACTORS
330
C
102
}
330
C
100
AcDbDictionary
281
     1
  0
ACDBDICTIONARYWDFLT
  5
E
102
{ACAD_REACTORS
330
C
102
}
330
C
100
AcDbDictionary
281
     1
  3
Normal
350
F
100
AcDbDictionaryWithDefault
340
F
  0
DICTIONARY
  5
4EE
102
{ACAD_REACTORS
330
C
102
}
330
C
100
AcDbDictionary
281
     1
  3
A0
350
4EF
  3
A1
350
4F0
  3
A2
350
4F1
  3
A3
350
4F2
  3
A4
350
4F3
  3
A5
350
4F4
  3
A6
350
4F5
  3
A7
350
4F6
  3
A8
350
4F7
  3
A9
350
4F8
  3
B0
350
4F9
  3
B1
350
4FA
  3
B2
350
4FB
  3
B3
350
4FC
  3
B4
350
4FD
  3
B5
350
4FE
  3
B6
350
4FF
  3
B7
350
500
  3
B8
350
501
  3
B9
350
502
  3
C0
350
503
  3
C1
350
504
  3
C2
350
505
  3
C3
350
506
  3
C4
350
507
  3
C5
350
508
  3
C6
350
509
  3
C7
350
50A
  3
C8
350
50B
  3
C9
350
50C
  3
D0
350
50D
  3
D1
350
50E
  3
D2
350
50F
  0
DICTIONARY
  5
53F
102
{ACAD_REACTORS
330
C
102
}
330
C
100
AcDbDictionary
281
     1
  0
DICTIONARY
  5
4EC
102
{ACAD_REACTORS
330
C
102
}
330
C
100
AcDbDictionary
281
     1
  3
Standard
350
51A
  0
DICTIONARY
  5
2A
102
{ACAD_REACTORS
330
C
102
}
330
C
100
AcDbDictionary
281
     1
  3
2dWireframe
350
2F
  3
3D Hidden
350
31
  3
3dWireframe
350
30
  3
Basic
350
32
  3
Brighten
350
36
  3
ColorChange
350
3A
  3
Conceptual
350
34
  3
Dim
350
35
  3
EdgeColorOff
350
514
  3
Facepattern
350
39
  3
Flat
350
2B
  3
FlatWithEdges
350
2C
  3
Gouraud
350
2D
  3
GouraudWithEdges
350
2E
  3
Hidden
350
511
  3
JitterOff
350
512
  3
Linepattern
350
38
  3
OverhangOff
350
513
  3
Realistic
350
33
  3
Shaded
350
519
  3
Shaded with edges
350
518
  3
Shades of Gray
350
515
  3
Sketchy
350
516
  3
Thicken
350
37
  3
Wireframe
350
510
  3
X-Ray
350
517
  0
XRECORD
  5
621
102
{ACAD_REACTORS
330
C
102
}
330
C
100
AcDbXrecord
280
     1
 90
        1
330
51A
  0
DICTIONARY
  5
53A
102
{ACAD_REACTORS
330
C
102
}
330
C
100
AcDbDictionary
281
     1
  3
CANNOSCALE
350
53B
  3
CMLEADERSTYLE
350
53D
  3
CTABLESTYLE
350
53C
  0
DICTIONARY
  5
51C
102
{ACAD_REACTORS
330
C
102
}
330
C
100
AcDbDictionary
281
     1
  0
DICTIONARY
  5
51F
102
{ACAD_REACTORS
330
51E
102
}
330
51E
100
AcDbDictionary
281
     1
  0
DICTIONARY
  5
61E
102
{ACAD_REACTORS
330
51E
102
}
330
51E
100
AcDbDictionary
281
     1
1001
ACAD
1000
<All
  0
LAYOUT
  5
1E
102
{ACAD_REACTORS
330
1A
102
}
330
1A
100
AcDbPlotSettings
  1

  2
none_device
  4

  6

 40
0.0
 41
0.0
 42
0.0
 43
0.0
 44
0.0
 45
0.0
 46
0.0
 47
0.0
 48
0.0
 49
0.0
140
0.0
141
0.0
142
1.0
143
1.0
 70
   688
 72
     0
 73
     0
 74
     5
  7

 75
    16
 76
     0
 77
     2
 78
   300
147
1.0
148
0.0
149
0.0
100
AcDbLayout
  1
Layout1
 70
     1
 71
     1
 10
0.0
 20
0.0
 11
420.0
 21
297.0
 12
0.0
 22
0.0
 32
0.0
 14
1.000000000000000E+20
 24
1.000000000000000E+20
 34
1.000000000000000E+20
 15
-1.000000000000000E+20
 25
-1.000000000000000E+20
 35
-1.000000000000000E+20
146
0.0
 13
0.0
 23
0.0
 33
0.0
 16
1.0
 26
0.0
 36
0.0
 17
0.0
 27
1.0
 37
0.0
 76
     0
330
1B
  0
LAYOUT
  5
26
102
{ACAD_REACTORS
330
1A
102
}
330
1A
100
AcDbPlotSettings
  1

  2
none_device
  4

  6

 40
0.0
 41
0.0
 42
0.0
 43
0.0
 44
0.0
 45
0.0
 46
0.0
 47
0.0
 48
0.0
 49
0.0
140
0.0
141
0.0
142
1.0
143
1.0
 70
   688
 72
     0
 73
     0
 74
     5
  7

 75
    16
 76
     0
 77
     2
 78
   300
147
1.0
148
0.0
149
0.0
100
AcDbLayout
  1
Layout2
 70
     1
 71
     2
 10
0.0
 20
0.0
 11
0.0
 21
0.0
 12
0.0
 22
0.0
 32
0.0
 14
0.0
 24
0.0
 34
0.0
 15
0.0
 25
0.0
 35
0.0
146
0.0
 13
0.0
 23
0.0
 33
0.0
 16
1.0
 26
0.0
 36
0.0
 17
0.0
 27
1.0
 37
0.0
 76
     0
330
23
  0
LAYOUT
  5
22
102
{ACAD_REACTORS
330
1A
102
}
330
1A
100
AcDbPlotSettings
  1

  2
none_device
  4

  6

 40
0.0
 41
0.0
 42
0.0
 43
0.0
 44
0.0
 45
0.0
 46
0.0
 47
0.0
 48
0.0
 49
0.0
140
0.0
141
0.0
142
1.0
143
1.0
 70
  1712
 72
     0
 73
     0
 74
     0
  7

 75
     0
 76
     0
 77
     2
 78
   300
147
1.0
148
0.0
149
0.0
100
AcDbLayout
  1
Model
 70
     1
 71
     0
 10
0.0
 20
0.0
 11
420.0
 21
297.0
 12
0.0
 22
0.0
 32
0.0
 14
518392.9198
 24
4397593.691836721
 34
462.2999877929688
 15
519023.72
 25
4397815.1081
 35
510.2860107421875
146
0.0
 13
0.0
 23
0.0
 33
0.0
 16
1.0
 26
0.0
 36
0.0
 17
0.0
 27
1.0
 37
0.0
 76
     0
330
1F
331
528
  0
MATERIAL
  5
3D
102
{ACAD_REACTORS
330
3B
102
}
330
3B
100
AcDbMaterial
  1
ByBlock
 72
     1
 94
      127
  0
MATERIAL
  5
3C
102
{ACAD_REACTORS
330
3B
102
}
330
3B
100
AcDbMaterial
  1
ByLayer
 72
     1
 94
      127
  0
MATERIAL
  5
3E
102
{ACAD_REACTORS
330
3B
102
}
330
3B
100
AcDbMaterial
  1
Global
 72
     1
 94
      127
  0
MLEADERSTYLE
  5
51B
102
{ACAD_REACTORS
330
4ED
102
}
330
4ED
100
AcDbMLeaderStyle
179
     2
170
     2
171
     1
172
     0
 90
        2
 40
0.0
 41
0.0
173
     1
 91
-1056964608
340
14
 92
       -2
290
     1
 42
2.0
291
     1
 43
8.0
  3
Standard
341
0
 44
4.0
300

342
11
174
     1
178
     1
175
     1
176
     0
 93
-1056964608
 45
4.0
292
     0
297
     0
 46
4.0
343
0
 94
-1056964608
 47
1.0
 49
1.0
140
1.0
293
     1
141
0.0
294
     1
177
     0
142
1.0
295
     0
296
     0
143
3.75
271
     0
272
     9
273
     9
  0
MLINESTYLE
  5
18
102
{ACAD_REACTORS
330
17
102
}
330
17
100
AcDbMlineStyle
  2
Standard
 70
     0
  3

 62
   256
 51
90.0
 52
90.0
 71
     2
 49
0.5
 62
   256
  6
BYLAYER
 49
-0.5
 62
   256
  6
BYLAYER
  0
ACDBPLACEHOLDER
  5
F
102
{ACAD_REACTORS
330
E
102
}
330
E
  0
SCALE
  5
4EF
102
{ACAD_REACTORS
330
4EE
102
}
330
4EE
100
AcDbScale
 70
     0
300
1:1
140
1.0
141
1.0
290
     1
  0
SCALE
  5
4F0
102
{ACAD_REACTORS
330
4EE
102
}
330
4EE
100
AcDbScale
 70
     0
300
1:2
140
1.0
141
2.0
290
     0
  0
SCALE
  5
4F1
102
{ACAD_REACTORS
330
4EE
102
}
330
4EE
100
AcDbScale
 70
     0
300
1:4
140
1.0
141
4.0
290
     0
  0
SCALE
  5
4F2
102
{ACAD_REACTORS
330
4EE
102
}
330
4EE
100
AcDbScale
 70
     0
300
1:5
140
1.0
141
5.0
290
     0
  0
SCALE
  5
4F3
102
{ACAD_REACTORS
330
4EE
102
}
330
4EE
100
AcDbScale
 70
     0
300
1:8
140
1.0
141
8.0
290
     0
  0
SCALE
  5
4F4
102
{ACAD_REACTORS
330
4EE
102
}
330
4EE
100
AcDbScale
 70
     0
300
1:10
140
1.0
141
10.0
290
     0
  0
SCALE
  5
4F5
102
{ACAD_REACTORS
330
4EE
102
}
330
4EE
100
AcDbScale
 70
     0
300
1:16
140
1.0
141
16.0
290
     0
  0
SCALE
  5
4F6
102
{ACAD_REACTORS
330
4EE
102
}
330
4EE
100
AcDbScale
 70
     0
300
1:20
140
1.0
141
20.0
290
     0
  0
SCALE
  5
4F7
102
{ACAD_REACTORS
330
4EE
102
}
330
4EE
100
AcDbScale
 70
     0
300
1:30
140
1.0
141
30.0
290
     0
  0
SCALE
  5
4F8
102
{ACAD_REACTORS
330
4EE
102
}
330
4EE
100
AcDbScale
 70
     0
300
1:40
140
1.0
141
40.0
290
     0
  0
SCALE
  5
4F9
102
{ACAD_REACTORS
330
4EE
102
}
330
4EE
100
AcDbScale
 70
     0
300
1:50
140
1.0
141
50.0
290
     0
  0
SCALE
  5
4FA
102
{ACAD_REACTORS
330
4EE
102
}
330
4EE
100
AcDbScale
 70
     0
300
1:100
140
1.0
141
100.0
290
     0
  0
SCALE
  5
4FB
102
{ACAD_REACTORS
330
4EE
102
}
330
4EE
100
AcDbScale
 70
     0
300
2:1
140
2.0
141
1.0
290
     0
  0
SCALE
  5
4FC
102
{ACAD_REACTORS
330
4EE
102
}
330
4EE
100
AcDbScale
 70
     0
300
4:1
140
4.0
141
1.0
290
     0
  0
SCALE
  5
4FD
102
{ACAD_REACTORS
330
4EE
102
}
330
4EE
100
AcDbScale
 70
     0
300
8:1
140
8.0
141
1.0
290
     0
  0
SCALE
  5
4FE
102
{ACAD_REACTORS
330
4EE
102
}
330
4EE
100
AcDbScale
 70
     0
300
10:1
140
10.0
141
1.0
290
     0
  0
SCALE
  5
4FF
102
{ACAD_REACTORS
330
4EE
102
}
330
4EE
100
AcDbScale
 70
     0
300
100:1
140
100.0
141
1.0
290
     0
  0
SCALE
  5
500
102
{ACAD_REACTORS
330
4EE
102
}
330
4EE
100
AcDbScale
 70
     0
300
1/128" = 1'-0"
140
0.0078125
141
12.0
290
     0
  0
SCALE
  5
501
102
{ACAD_REACTORS
330
4EE
102
}
330
4EE
100
AcDbScale
 70
     0
300
1/64" = 1'-0"
140
0.015625
141
12.0
290
     0
  0
SCALE
  5
502
102
{ACAD_REACTORS
330
4EE
102
}
330
4EE
100
AcDbScale
 70
     0
300
1/32" = 1'-0"
140
0.03125
141
12.0
290
     0
  0
SCALE
  5
503
102
{ACAD_REACTORS
330
4EE
102
}
330
4EE
100
AcDbScale
 70
     0
300
1/16" = 1'-0"
140
0.0625
141
12.0
290
     0
  0
SCALE
  5
504
102
{ACAD_REACTORS
330
4EE
102
}
330
4EE
100
AcDbScale
 70
     0
300
3/32" = 1'-0"
140
0.09375
141
12.0
290
     0
  0
SCALE
  5
505
102
{ACAD_REACTORS
330
4EE
102
}
330
4EE
100
AcDbScale
 70
     0
300
1/8" = 1'-0"
140
0.125
141
12.0
290
     0
  0
SCALE
  5
506
102
{ACAD_REACTORS
330
4EE
102
}
330
4EE
100
AcDbScale
 70
     0
300
3/16" = 1'-0"
140
0.1875
141
12.0
290
     0
  0
SCALE
  5
507
102
{ACAD_REACTORS
330
4EE
102
}
330
4EE
100
AcDbScale
 70
     0
300
1/4" = 1'-0"
140
0.25
141
12.0
290
     0
  0
SCALE
  5
508
102
{ACAD_REACTORS
330
4EE
102
}
330
4EE
100
AcDbScale
 70
     0
300
3/8" = 1'-0"
140
0.375
141
12.0
290
     0
  0
SCALE
  5
509
102
{ACAD_REACTORS
330
4EE
102
}
330
4EE
100
AcDbScale
 70
     0
300
1/2" = 1'-0"
140
0.5
141
12.0
290
     0
  0
SCALE
  5
50A
102
{ACAD_REACTORS
330
4EE
102
}
330
4EE
100
AcDbScale
 70
     0
300
3/4" = 1'-0"
140
0.75
141
12.0
290
     0
  0
SCALE
  5
50B
102
{ACAD_REACTORS
330
4EE
102
}
330
4EE
100
AcDbScale
 70
     0
300
1" = 1'-0"
140
1.0
141
12.0
290
     0
  0
SCALE
  5
50C
102
{ACAD_REACTORS
330
4EE
102
}
330
4EE
100
AcDbScale
 70
     0
300
1-1/2" = 1'-0"
140
1.5
141
12.0
290
     0
  0
SCALE
  5
50D
102
{ACAD_REACTORS
330
4EE
102
}
330
4EE
100
AcDbScale
 70
     0
300
3" = 1'-0"
140
3.0
141
12.0
290
     0
  0
SCALE
  5
50E
102
{ACAD_REACTORS
330
4EE
102
}
330
4EE
100
AcDbScale
 70
     0
300
6" = 1'-0"
140
6.0
141
12.0
290
     0
  0
SCALE
  5
50F
102
{ACAD_REACTORS
330
4EE
102
}
330
4EE
100
AcDbScale
 70
     0
300
1'-0" = 1'-0"
140
12.0
141
12.0
290
     0
  0
TABLESTYLE
  5
51A
102
{ACAD_REACTORS
330
4EC
102
}
102
{ACAD_XDICTIONARY
360
61F
102
}
330
4EC
100
AcDbTableStyle
  3
Standard
 70
     0
 71
     0
 40
0.06
 41
0.06
280
     0
281
     0
  7
Standard
140
4.5
170
     2
 62
     0
 63
   257
283
     0
 90
        4
 91
        0
  1

274
    -2
284
     1
 64
     0
275
    -2
285
     1
 65
     0
276
    -2
286
     1
 66
     0
277
    -2
287
     1
 67
     0
278
    -2
288
     1
 68
     0
279
    -2
289
     1
 69
     0
  7
Standard
140
6.0
170
     5
 62
     0
 63
   257
283
     0
 90
        4
 91
        0
  1

274
    -2
284
     1
 64
     0
275
    -2
285
     1
 65
     0
276
    -2
286
     1
 66
     0
277
    -2
287
     1
 67
     0
278
    -2
288
     1
 68
     0
279
    -2
289
     1
 69
     0
  7
Standard
140
4.5
170
     5
 62
     0
 63
   257
283
     0
 90
        4
 91
        0
  1

274
    -2
284
     1
 64
     0
275
    -2
285
     1
 65
     0
276
    -2
286
     1
 66
     0
277
    -2
287
     1
 67
     0
278
    -2
288
     1
 68
     0
279
    -2
289
     1
 69
     0
  0
VISUALSTYLE
  5
2F
102
{ACAD_REACTORS
330
2A
102
}
330
2A
100
AcDbVisualStyle
  2
2dWireframe
 70
     4
177
     2
291
     0
 71
     0
176
     1
 72
     2
176
     1
 73
     0
176
     1
 90
        0
176
     1
 40
-0.6
176
     1
 41
-30.0
176
     1
 62
     5
 63
     7
421
 16777215
176
     1
 74
     1
176
     1
 91
        4
176
     1
 64
     7
176
     1
 65
   257
176
     1
 75
     1
176
     1
175
     1
176
     1
 42
1.0
176
     1
 92
        0
176
     1
 66
   257
176
     1
 43
1.0
176
     1
 76
     1
176
     1
 77
     6
176
     1
 78
     2
176
     1
 67
     7
176
     1
 79
     5
176
     1
170
     0
176
     1
171
     0
176
     1
290
     0
176
     1
 93
        1
176
     1
 44
0.0
176
     1
173
     0
176
     1
  0
VISUALSTYLE
  5
31
102
{ACAD_REACTORS
330
2A
102
}
330
2A
100
AcDbVisualStyle
  2
3D Hidden
 70
     6
177
     2
291
     0
 71
     1
176
     1
 72
     2
176
     1
 73
     2
176
     1
 90
        0
176
     1
 40
-0.6
176
     1
 41
-30.0
176
     1
 62
     5
 63
     7
421
 16777215
176
     1
 74
     2
176
     1
 91
        2
176
     1
 64
     7
176
     1
 65
   257
176
     1
 75
     2
176
     1
175
     1
176
     1
 42
40.0
176
     1
 92
        0
176
     1
 66
   257
176
     1
 43
1.0
176
     1
 76
     1
176
     1
 77
     6
176
     1
 78
     2
176
     1
 67
     7
176
     1
 79
     3
176
     1
170
     0
176
     1
171
     0
176
     1
290
     0
176
     1
 93
        1
176
     1
 44
0.0
176
     1
173
     0
176
     1
  0
VISUALSTYLE
  5
30
102
{ACAD_REACTORS
330
2A
102
}
330
2A
100
AcDbVisualStyle
  2
3dWireframe
 70
     5
177
     2
291
     0
 71
     0
176
     1
 72
     2
176
     1
 73
     0
176
     1
 90
        0
176
     1
 40
-0.6
176
     1
 41
-30.0
176
     1
 62
     5
 63
     7
421
 16777215
176
     1
 74
     1
176
     1
 91
        4
176
     1
 64
     7
176
     1
 65
   257
176
     1
 75
     1
176
     1
175
     1
176
     1
 42
1.0
176
     1
 92
        0
176
     1
 66
   257
176
     1
 43
1.0
176
     1
 76
     1
176
     1
 77
     6
176
     1
 78
     2
176
     1
 67
     7
176
     1
 79
     5
176
     1
170
     0
176
     1
171
     0
176
     1
290
     0
176
     1
 93
        1
176
     1
 44
0.0
176
     1
173
     0
176
     1
  0
VISUALSTYLE
  5
32
102
{ACAD_REACTORS
330
2A
102
}
330
2A
100
AcDbVisualStyle
  2
Basic
 70
     7
177
     2
291
     1
 71
     1
176
     1
 72
     0
176
     1
 73
     1
176
     1
 90
        0
176
     1
 40
-0.6
176
     1
 41
-30.0
176
     1
 62
     5
 63
     7
421
 16777215
176
     1
 74
     0
176
     1
 91
        4
176
     1
 64
     7
176
     1
 65
   257
176
     1
 75
     1
176
     1
175
     1
176
     1
 42
1.0
176
     1
 92
        8
176
     1
 66
     7
176
     1
 43
1.0
176
     1
 76
     1
176
     1
 77
     6
176
     1
 78
     2
176
     1
 67
     7
176
     1
 79
     5
176
     1
170
     0
176
     1
171
     0
176
     1
290
     0
176
     1
 93
        1
176
     1
 44
0.0
176
     1
173
     0
176
     1
  0
VISUALSTYLE
  5
36
102
{ACAD_REACTORS
330
2A
102
}
330
2A
100
AcDbVisualStyle
  2
Brighten
 70
    12
177
     2
291
     1
 71
     2
176
     1
 72
     2
176
     1
 73
     0
176
     1
 90
        0
176
     1
 40
-0.6
176
     1
 41
-30.0
176
     1
 62
     5
 63
     7
421
 16777215
176
     1
 74
     1
176
     1
 91
        4
176
     1
 64
     7
176
     1
 65
   257
176
     1
 75
     1
176
     1
175
     1
176
     1
 42
1.0
176
     1
 92
        8
176
     1
 66
     7
176
     1
 43
1.0
176
     1
 76
     1
176
     1
 77
     6
176
     1
 78
     2
176
     1
 67
     7
176
     1
 79
     5
176
     1
170
     0
176
     1
171
     0
176
     1
290
     0
176
     1
 93
        1
176
     1
 44
50.0
176
     1
173
     0
176
     1
  0
VISUALSTYLE
  5
3A
102
{ACAD_REACTORS
330
2A
102
}
330
2A
100
AcDbVisualStyle
  2
ColorChange
 70
    16
177
     2
291
     1
 71
     2
176
     1
 72
     2
176
     1
 73
     3
176
     1
 90
        0
176
     1
 40
-0.6
176
     1
 41
-30.0
176
     1
 62
     5
 63
     8
421
  8421504
176
     1
 74
     1
176
     1
 91
        4
176
     1
 64
     7
176
     1
 65
   257
176
     1
 75
     1
176
     1
175
     1
176
     1
 42
1.0
176
     1
 92
        8
176
     1
 66
     8
424
  8421504
176
     1
 43
1.0
176
     1
 76
     1
176
     1
 77
     6
176
     1
 78
     2
176
     1
 67
     7
176
     1
 79
     5
176
     1
170
     0
176
     1
171
     0
176
     1
290
     0
176
     1
 93
        1
176
     1
 44
0.0
176
     1
173
     0
176
     1
  0
VISUALSTYLE
  5
34
102
{ACAD_REACTORS
330
2A
102
}
330
2A
100
AcDbVisualStyle
  2
Conceptual
 70
     9
177
     2
291
     0
 71
     3
176
     1
 72
     2
176
     1
 73
     0
176
     1
 90
        0
176
     1
 40
-0.6
176
     1
 41
-30.0
176
     1
 62
     5
 63
     7
421
 16777215
176
     1
 74
     2
176
     1
 91
        2
176
     1
 64
     7
176
     1
 65
   257
176
     1
 75
     1
176
     1
175
     1
176
     1
 42
40.0
176
     1
 92
        8
176
     1
 66
     7
176
     1
 43
1.0
176
     1
 76
     1
176
     1
 77
     6
176
     1
 78
     2
176
     1
 67
     7
176
     1
 79
     3
176
     1
170
     0
176
     1
171
     0
176
     1
290
     0
176
     1
 93
        1
176
     1
 44
0.0
176
     1
173
     0
176
     1
  0
VISUALSTYLE
  5
35
102
{ACAD_REACTORS
330
2A
102
}
330
2A
100
AcDbVisualStyle
  2
Dim
 70
    11
177
     2
291
     1
 71
     2
176
     1
 72
     2
176
     1
 73
     0
176
     1
 90
        0
176
     1
 40
-0.6
176
     1
 41
-30.0
176
     1
 62
     5
 63
     7
421
 16777215
176
     1
 74
     1
176
     1
 91
        4
176
     1
 64
     7
176
     1
 65
   257
176
     1
 75
     1
176
     1
175
     1
176
     1
 42
1.0
176
     1
 92
        8
176
     1
 66
     7
176
     1
 43
1.0
176
     1
 76
     1
176
     1
 77
     6
176
     1
 78
     2
176
     1
 67
     7
176
     1
 79
     5
176
     1
170
     0
176
     1
171
     0
176
     1
290
     0
176
     1
 93
        1
176
     1
 44
-50.0
176
     1
173
     0
176
     1
  0
VISUALSTYLE
  5
514
102
{ACAD_REACTORS
330
2A
102
}
330
2A
100
AcDbVisualStyle
  2
EdgeColorOff
 70
    22
177
     2
291
     1
 71
     2
176
     0
 72
     2
176
     0
 73
     0
176
     0
 90
        0
176
     0
 40
0.6
176
     0
 41
30.0
176
     0
 62
     5
 63
     7
421
 16777215
176
     0
 74
     1
176
     0
 91
        4
176
     0
 64
     7
176
     0
 65
   257
176
     0
 75
     1
176
     0
175
     1
176
     0
 42
1.0
176
     0
 92
        8
176
     2
 66
     7
176
     0
 43
1.0
176
     0
 76
     1
176
     0
 77
     6
176
     0
 78
     2
176
     0
 67
     7
176
     0
 79
     5
176
     0
170
     0
176
     0
171
     0
176
     0
290
     0
176
     0
 93
        1
176
     0
 44
0.0
176
     0
173
     0
176
     0
  0
VISUALSTYLE
  5
39
102
{ACAD_REACTORS
330
2A
102
}
330
2A
100
AcDbVisualStyle
  2
Facepattern
 70
    15
177
     2
291
     1
 71
     2
176
     1
 72
     2
176
     1
 73
     0
176
     1
 90
        0
176
     1
 40
-0.6
176
     1
 41
-30.0
176
     1
 62
     5
 63
     7
421
 16777215
176
     1
 74
     1
176
     1
 91
        4
176
     1
 64
     7
176
     1
 65
   257
176
     1
 75
     1
176
     1
175
     1
176
     1
 42
1.0
176
     1
 92
        8
176
     1
 66
     7
176
     1
 43
1.0
176
     1
 76
     1
176
     1
 77
     6
176
     1
 78
     2
176
     1
 67
     7
176
     1
 79
     5
176
     1
170
     0
176
     1
171
     0
176
     1
290
     0
176
     1
 93
        1
176
     1
 44
0.0
176
     1
173
     0
176
     1
  0
VISUALSTYLE
  5
2B
102
{ACAD_REACTORS
330
2A
102
}
330
2A
100
AcDbVisualStyle
  2
Flat
 70
     0
177
     2
291
     1
 71
     2
176
     1
 72
     1
176
     1
 73
     1
176
     1
 90
        2
176
     1
 40
-0.6
176
     1
 41
30.0
176
     1
 62
     5
 63
     7
421
 16777215
176
     1
 74
     0
176
     1
 91
        4
176
     1
 64
     7
176
     1
 65
   257
176
     1
 75
     1
176
     1
175
     1
176
     1
 42
1.0
176
     1
 92
        8
176
     1
 66
     7
176
     1
 43
1.0
176
     1
 76
     1
176
     1
 77
     6
176
     1
 78
     2
176
     1
 67
     7
176
     1
 79
     5
176
     1
170
     0
176
     1
171
     0
176
     1
290
     0
176
     1
 93
       13
176
     1
 44
0.0
176
     1
173
     0
176
     1
  0
VISUALSTYLE
  5
2C
102
{ACAD_REACTORS
330
2A
102
}
330
2A
100
AcDbVisualStyle
  2
FlatWithEdges
 70
     1
177
     2
291
     1
 71
     2
176
     1
 72
     1
176
     1
 73
     1
176
     1
 90
        2
176
     1
 40
-0.6
176
     1
 41
30.0
176
     1
 62
     5
 63
     7
421
 16777215
176
     1
 74
     1
176
     1
 91
        4
176
     1
 64
     7
176
     1
 65
   257
176
     1
 75
     1
176
     1
175
     1
176
     1
 42
1.0
176
     1
 92
        0
176
     1
 66
   257
176
     1
 43
1.0
176
     1
 76
     1
176
     1
 77
     6
176
     1
 78
     2
176
     1
 67
     7
176
     1
 79
     5
176
     1
170
     0
176
     1
171
     0
176
     1
290
     0
176
     1
 93
       13
176
     1
 44
0.0
176
     1
173
     0
176
     1
  0
VISUALSTYLE
  5
2D
102
{ACAD_REACTORS
330
2A
102
}
330
2A
100
AcDbVisualStyle
  2
Gouraud
 70
     2
177
     2
291
     1
 71
     2
176
     1
 72
     2
176
     1
 73
     1
176
     1
 90
        2
176
     1
 40
-0.6
176
     1
 41
30.0
176
     1
 62
     5
 63
     7
421
 16777215
176
     1
 74
     0
176
     1
 91
        4
176
     1
 64
     7
176
     1
 65
   257
176
     1
 75
     1
176
     1
175
     1
176
     1
 42
1.0
176
     1
 92
        0
176
     1
 66
     7
176
     1
 43
1.0
176
     1
 76
     1
176
     1
 77
     6
176
     1
 78
     2
176
     1
 67
     7
176
     1
 79
     5
176
     1
170
     0
176
     1
171
     0
176
     1
290
     0
176
     1
 93
       13
176
     1
 44
0.0
176
     1
173
     0
176
     1
  0
VISUALSTYLE
  5
2E
102
{ACAD_REACTORS
330
2A
102
}
330
2A
100
AcDbVisualStyle
  2
GouraudWithEdges
 70
     3
177
     2
291
     1
 71
     2
176
     1
 72
     2
176
     1
 73
     1
176
     1
 90
        2
176
     1
 40
-0.6
176
     1
 41
30.0
176
     1
 62
     5
 63
     7
421
 16777215
176
     1
 74
     1
176
     1
 91
        4
176
     1
 64
     7
176
     1
 65
   257
176
     1
 75
     1
176
     1
175
     1
176
     1
 42
1.0
176
     1
 92
        0
176
     1
 66
   257
176
     1
 43
1.0
176
     1
 76
     1
176
     1
 77
     6
176
     1
 78
     2
176
     1
 67
     7
176
     1
 79
     5
176
     1
170
     0
176
     1
171
     0
176
     1
290
     0
176
     1
 93
       13
176
     1
 44
0.0
176
     1
173
     0
176
     1
  0
VISUALSTYLE
  5
511
102
{ACAD_REACTORS
330
2A
102
}
330
2A
100
AcDbVisualStyle
  2
Hidden
 70
     6
177
     2
291
     0
 71
     1
176
     1
 72
     2
176
     1
 73
     2
176
     1
 90
        0
176
     1
 40
0.6
176
     1
 41
30.0
176
     1
 62
     5
 63
     7
421
 16777215
176
     1
 74
     2
176
     1
 91
        2
176
     1
 64
     7
176
     1
 65
   257
176
     1
 75
     2
176
     1
175
     1
176
     1
 42
40.0
176
     1
 92
        0
176
     1
 66
   257
176
     1
 43
1.0
176
     1
 76
     1
176
     1
 77
     6
176
     1
 78
     2
176
     1
 67
     7
176
     1
 79
     3
176
     1
170
     0
176
     1
171
     0
176
     1
290
     0
176
     1
 93
        1
176
     1
 44
0.0
176
     1
173
     0
176
     1
  0
VISUALSTYLE
  5
512
102
{ACAD_REACTORS
330
2A
102
}
330
2A
100
AcDbVisualStyle
  2
JitterOff
 70
    20
177
     2
291
     1
 71
     2
176
     0
 72
     2
176
     0
 73
     0
176
     0
 90
        0
176
     0
 40
0.6
176
     0
 41
30.0
176
     0
 62
     5
 63
     7
421
 16777215
176
     0
 74
     1
176
     0
 91
        4
176
     0
 64
     7
176
     0
 65
   257
176
     0
 75
     1
176
     0
175
     1
176
     0
 42
1.0
176
     0
 92
       10
176
     2
 66
     7
176
     0
 43
1.0
176
     0
 76
     1
176
     0
 77
     6
176
     0
 78
     2
176
     0
 67
     7
176
     0
 79
     5
176
     0
170
     0
176
     0
171
     0
176
     0
290
     0
176
     0
 93
        1
176
     0
 44
0.0
176
     0
173
     0
176
     0
  0
VISUALSTYLE
  5
38
102
{ACAD_REACTORS
330
2A
102
}
330
2A
100
AcDbVisualStyle
  2
Linepattern
 70
    14
177
     2
291
     1
 71
     2
176
     1
 72
     2
176
     1
 73
     0
176
     1
 90
        0
176
     1
 40
-0.6
176
     1
 41
-30.0
176
     1
 62
     5
 63
     7
421
 16777215
176
     1
 74
     1
176
     1
 91
        4
176
     1
 64
     7
176
     1
 65
   257
176
     1
 75
     7
176
     1
175
     7
176
     1
 42
1.0
176
     1
 92
        8
176
     1
 66
     7
176
     1
 43
1.0
176
     1
 76
     1
176
     1
 77
     6
176
     1
 78
     2
176
     1
 67
     7
176
     1
 79
     5
176
     1
170
     0
176
     1
171
     0
176
     1
290
     0
176
     1
 93
        1
176
     1
 44
0.0
176
     1
173
     0
176
     1
  0
VISUALSTYLE
  5
513
102
{ACAD_REACTORS
330
2A
102
}
330
2A
100
AcDbVisualStyle
  2
OverhangOff
 70
    21
177
     2
291
     1
 71
     2
176
     0
 72
     2
176
     0
 73
     0
176
     0
 90
        0
176
     0
 40
0.6
176
     0
 41
30.0
176
     0
 62
     5
 63
     7
421
 16777215
176
     0
 74
     1
176
     0
 91
        4
176
     0
 64
     7
176
     0
 65
   257
176
     0
 75
     1
176
     0
175
     1
176
     0
 42
1.0
176
     0
 92
        9
176
     2
 66
     7
176
     0
 43
1.0
176
     0
 76
     1
176
     0
 77
     6
176
     0
 78
     2
176
     0
 67
     7
176
     0
 79
     5
176
     0
170
     0
176
     0
171
     0
176
     0
290
     0
176
     0
 93
        1
176
     0
 44
0.0
176
     0
173
     0
176
     0
  0
VISUALSTYLE
  5
33
102
{ACAD_REACTORS
330
2A
102
}
330
2A
100
AcDbVisualStyle
  2
Realistic
 70
     8
177
     2
291
     0
 71
     2
176
     1
 72
     2
176
     1
 73
     0
176
     1
 90
        0
176
     1
 40
-0.6
176
     1
 41
-30.0
176
     1
 62
     5
 63
     7
421
 16777215
176
     1
 74
     1
176
     1
 91
        0
176
     1
 64
     7
176
     1
 65
   257
176
     1
 75
     1
176
     1
175
     1
176
     1
 42
1.0
176
     1
 92
        8
176
     1
 66
     8
424
  7895160
176
     1
 43
1.0
176
     1
 76
     1
176
     1
 77
     6
176
     1
 78
     2
176
     1
 67
     7
176
     1
 79
     5
176
     1
170
     0
176
     1
171
     0
176
     1
290
     0
176
     1
 93
       13
176
     1
 44
0.0
176
     1
173
     0
176
     1
  0
VISUALSTYLE
  5
519
102
{ACAD_REACTORS
330
2A
102
}
330
2A
100
AcDbVisualStyle
  2
Shaded
 70
    27
177
     2
291
     0
 71
     2
176
     1
 72
     2
176
     1
 73
     1
176
     1
 90
        2
176
     1
 40
0.6
176
     1
 41
30.0
176
     1
 62
     5
 63
     7
421
 16777215
176
     1
 74
     0
176
     1
 91
        4
176
     1
 64
     7
176
     1
 65
   257
176
     1
 75
     1
176
     1
175
     1
176
     1
 42
1.0
176
     1
 92
        8
176
     1
 66
   257
176
     1
 43
1.0
176
     1
 76
     1
176
     1
 77
     6
176
     1
 78
     2
176
     1
 67
     8
425
  7895160
176
     1
 79
     3
176
     1
170
     0
176
     1
171
     0
176
     1
290
     0
176
     1
 93
        5
176
     1
 44
0.0
176
     1
173
     0
176
     1
  0
VISUALSTYLE
  5
518
102
{ACAD_REACTORS
330
2A
102
}
330
2A
100
AcDbVisualStyle
  2
Shaded with edges
 70
    26
177
     2
291
     0
 71
     2
176
     1
 72
     2
176
     1
 73
     1
176
     1
 90
        2
176
     1
 40
0.6
176
     1
 41
30.0
176
     1
 62
     5
 63
     7
421
 16777215
176
     1
 74
     1
176
     1
 91
       10
176
     1
 64
     7
176
     1
 65
   257
176
     1
 75
     2
176
     1
175
     1
176
     1
 42
1.0
176
     1
 92
        8
176
     1
 66
   257
176
     1
 43
1.0
176
     1
 76
     1
176
     1
 77
     6
176
     1
 78
     2
176
     1
 67
     7
176
     1
 79
     3
176
     1
170
     0
176
     1
171
     0
176
     1
290
     0
176
     1
 93
        5
176
     1
 44
0.0
176
     1
173
     0
176
     1
  0
VISUALSTYLE
  5
515
102
{ACAD_REACTORS
330
2A
102
}
330
2A
100
AcDbVisualStyle
  2
Shades of Gray
 70
    23
177
     2
291
     0
 71
     2
176
     1
 72
     2
176
     1
 73
     3
176
     1
 90
        0
176
     1
 40
0.6
176
     1
 41
30.0
176
     1
 62
     5
 63
     7
421
 16777215
176
     1
 74
     2
176
     1
 91
        2
176
     1
 64
     7
176
     1
 65
     7
176
     1
 75
     1
176
     1
175
     1
176
     1
 42
40.0
176
     1
 92
        8
176
     1
 66
     7
176
     1
 43
1.0
176
     1
 76
     1
176
     1
 77
     6
176
     1
 78
     2
176
     1
 67
     7
176
     1
 79
     3
176
     1
170
     0
176
     1
171
     0
176
     1
290
     0
176
     1
 93
        1
176
     1
 44
0.0
176
     1
173
     0
176
     1
  0
VISUALSTYLE
  5
516
102
{ACAD_REACTORS
330
2A
102
}
330
2A
100
AcDbVisualStyle
  2
Sketchy
 70
    24
177
     2
291
     0
 71
     1
176
     1
 72
     2
176
     1
 73
     2
176
     1
 90
        0
176
     1
 40
0.6
176
     1
 41
30.0
176
     1
 62
     5
 63
     7
421
 16777215
176
     1
 74
     2
176
     1
 91
        2
176
     1
 64
     7
176
     1
 65
     7
176
     1
 75
     1
176
     1
175
     1
176
     1
 42
40.0
176
     1
 92
       11
176
     1
 66
     7
176
     1
 43
1.0
176
     1
 76
     1
176
     1
 77
     6
176
     1
 78
     2
176
     1
 67
     7
176
     1
 79
     6
176
     1
170
     0
176
     1
171
     0
176
     1
290
     0
176
     1
 93
        1
176
     1
 44
0.0
176
     1
173
     0
176
     1
  0
VISUALSTYLE
  5
37
102
{ACAD_REACTORS
330
2A
102
}
330
2A
100
AcDbVisualStyle
  2
Thicken
 70
    13
177
     2
291
     1
 71
     2
176
     1
 72
     2
176
     1
 73
     0
176
     1
 90
        0
176
     1
 40
-0.6
176
     1
 41
-30.0
176
     1
 62
     5
 63
     7
421
 16777215
176
     1
 74
     1
176
     1
 91
        4
176
     1
 64
     7
176
     1
 65
   257
176
     1
 75
     1
176
     1
175
     1
176
     1
 42
1.0
176
     1
 92
       12
176
     1
 66
     7
176
     1
 43
1.0
176
     1
 76
     1
176
     1
 77
     6
176
     1
 78
     2
176
     1
 67
     7
176
     1
 79
     5
176
     1
170
     0
176
     1
171
     0
176
     1
290
     0
176
     1
 93
        1
176
     1
 44
0.0
176
     1
173
     0
176
     1
  0
VISUALSTYLE
  5
510
102
{ACAD_REACTORS
330
2A
102
}
330
2A
100
AcDbVisualStyle
  2
Wireframe
 70
     5
177
     2
291
     0
 71
     0
176
     1
 72
     2
176
     1
 73
     0
176
     1
 90
        0
176
     1
 40
0.6
176
     1
 41
30.0
176
     1
 62
     5
 63
     7
421
 16777215
176
     1
 74
     1
176
     1
 91
        4
176
     1
 64
     7
176
     1
 65
   257
176
     1
 75
     1
176
     1
175
     1
176
     1
 42
1.0
176
     1
 92
        0
176
     1
 66
   257
176
     1
 43
1.0
176
     1
 76
     1
176
     1
 77
     6
176
     1
 78
     2
176
     1
 67
     7
176
     1
 79
     3
176
     1
170
     0
176
     1
171
     0
176
     1
290
     0
176
     1
 93
        1
176
     1
 44
0.0
176
     1
173
     0
176
     1
  0
VISUALSTYLE
  5
517
102
{ACAD_REACTORS
330
2A
102
}
330
2A
100
AcDbVisualStyle
  2
X-Ray
 70
    25
177
     2
291
     0
 71
     2
176
     1
 72
     2
176
     1
 73
     1
176
     1
 90
        1
176
     1
 40
0.5
176
     1
 41
30.0
176
     1
 62
     5
 63
     7
421
 16777215
176
     1
 74
     1
176
     1
 91
        0
176
     1
 64
     7
176
     1
 65
   257
176
     1
 75
     1
176
     1
175
     1
176
     1
 42
1.0
176
     1
 92
        8
176
     1
 66
     7
176
     1
 43
1.0
176
     1
 76
     1
176
     1
 77
     6
176
     1
 78
     2
176
     1
 67
     7
176
     1
 79
     3
176
     1
170
     0
176
     1
171
     0
176
     1
290
     0
176
     1
 93
       13
176
     1
 44
0.0
176
     1
173
     0
176
     1
  0
DICTIONARYVAR
  5
53B
102
{ACAD_REACTORS
330
53A
102
}
330
53A
100
DictionaryVariables
280
     0
  1
1:1
  0
DICTIONARYVAR
  5
53D
102
{ACAD_REACTORS
330
53A
102
}
330
53A
100
DictionaryVariables
280
     0
  1
Standard
  0
DICTIONARYVAR
  5
53C
102
{ACAD_REACTORS
330
53A
102
}
330
53A
100
DictionaryVariables
280
     0
  1
Standard
  0
DICTIONARY
  5
61F
330
51A
100
AcDbDictionary
280
     1
281
     1
  3
ACAD_ROUNDTRIP_2008_TABLESTYLE_CELLSTYLEMAP
360
620
  0
CELLSTYLEMAP
  5
620
102
{ACAD_REACTORS
330
61F
102
}
330
61F
100
AcDbCellStyleMap
 90
        3
300
CELLSTYLE
  1
TABLEFORMAT_BEGIN
 90
        5
170
     1
 91
        0
 92
    32768
 62
   257
 93
        1
300
CONTENTFORMAT
  1
CONTENTFORMAT_BEGIN
 90
        0
 91
        0
 92
        4
 93
        0
300

 40
0.0
140
1.0
 94
        5
 62
     0
340
11
144
6.0
309
CONTENTFORMAT_END
171
     1
301
MARGIN
  1
CELLMARGIN_BEGIN
 40
1.5
 40
1.5
 40
1.5
 40
1.5
 40
1.5
 40
1.5
309
CELLMARGIN_END
 94
        6
 95
        1
302
GRIDFORMAT
  1
GRIDFORMAT_BEGIN
 90
        0
 91
        1
 62
     0
 92
       -2
340
14
 93
        0
 40
0.045
309
GRIDFORMAT_END
 95
        2
302
GRIDFORMAT
  1
GRIDFORMAT_BEGIN
 90
        0
 91
        1
 62
     0
 92
       -2
340
14
 93
        0
 40
0.045
309
GRIDFORMAT_END
 95
        4
302
GRIDFORMAT
  1
GRIDFORMAT_BEGIN
 90
        0
 91
        1
 62
     0
 92
       -2
340
14
 93
        0
 40
0.045
309
GRIDFORMAT_END
 95
        8
302
GRIDFORMAT
  1
GRIDFORMAT_BEGIN
 90
        0
 91
        1
 62
     0
 92
       -2
340
14
 93
        0
 40
0.045
309
GRIDFORMAT_END
 95
       16
302
GRIDFORMAT
  1
GRIDFORMAT_BEGIN
 90
        0
 91
        1
 62
     0
 92
       -2
340
14
 93
        0
 40
0.045
309
GRIDFORMAT_END
 95
       32
302
GRIDFORMAT
  1
GRIDFORMAT_BEGIN
 90
        0
 91
        1
 62
     0
 92
       -2
340
14
 93
        0
 40
0.045
309
GRIDFORMAT_END
309
TABLEFORMAT_END
  1
CELLSTYLE_BEGIN
 90
        1
 91
        1
300
_TITLE
309
CELLSTYLE_END
300
CELLSTYLE
  1
TABLEFORMAT_BEGIN
 90
        5
170
     1
 91
        0
 92
        0
 62
   257
 93
        1
300
CONTENTFORMAT
  1
CONTENTFORMAT_BEGIN
 90
        0
 91
        0
 92
        4
 93
        0
300

 40
0.0
140
1.0
 94
        5
 62
     0
340
11
144
4.5
309
CONTENTFORMAT_END
171
     1
301
MARGIN
  1
CELLMARGIN_BEGIN
 40
1.5
 40
1.5
 40
1.5
 40
1.5
 40
1.5
 40
1.5
309
CELLMARGIN_END
 94
        6
 95
        1
302
GRIDFORMAT
  1
GRIDFORMAT_BEGIN
 90
        0
 91
        1
 62
     0
 92
       -2
340
14
 93
        0
 40
0.045
309
GRIDFORMAT_END
 95
        2
302
GRIDFORMAT
  1
GRIDFORMAT_BEGIN
 90
        0
 91
        1
 62
     0
 92
       -2
340
14
 93
        0
 40
0.045
309
GRIDFORMAT_END
 95
        4
302
GRIDFORMAT
  1
GRIDFORMAT_BEGIN
 90
        0
 91
        1
 62
     0
 92
       -2
340
14
 93
        0
 40
0.045
309
GRIDFORMAT_END
 95
        8
302
GRIDFORMAT
  1
GRIDFORMAT_BEGIN
 90
        0
 91
        1
 62
     0
 92
       -2
340
14
 93
        0
 40
0.045
309
GRIDFORMAT_END
 95
       16
302
GRIDFORMAT
  1
GRIDFORMAT_BEGIN
 90
        0
 91
        1
 62
     0
 92
       -2
340
14
 93
        0
 40
0.045
309
GRIDFORMAT_END
 95
       32
302
GRIDFORMAT
  1
GRIDFORMAT_BEGIN
 90
        0
 91
        1
 62
     0
 92
       -2
340
14
 93
        0
 40
0.045
309
GRIDFORMAT_END
309
TABLEFORMAT_END
  1
CELLSTYLE_BEGIN
 90
        2
 91
        1
300
_HEADER
309
CELLSTYLE_END
300
CELLSTYLE
  1
TABLEFORMAT_BEGIN
 90
        5
170
     1
 91
        0
 92
        0
 62
   257
 93
        1
300
CONTENTFORMAT
  1
CONTENTFORMAT_BEGIN
 90
        0
 91
        0
 92
        4
 93
        0
300

 40
0.0
140
1.0
 94
        2
 62
     0
340
11
144
4.5
309
CONTENTFORMAT_END
171
     1
301
MARGIN
  1
CELLMARGIN_BEGIN
 40
1.5
 40
1.5
 40
1.5
 40
1.5
 40
1.5
 40
1.5
309
CELLMARGIN_END
 94
        6
 95
        1
302
GRIDFORMAT
  1
GRIDFORMAT_BEGIN
 90
        0
 91
        1
 62
     0
 92
       -2
340
14
 93
        0
 40
0.045
309
GRIDFORMAT_END
 95
        2
302
GRIDFORMAT
  1
GRIDFORMAT_BEGIN
 90
        0
 91
        1
 62
     0
 92
       -2
340
14
 93
        0
 40
0.045
309
GRIDFORMAT_END
 95
        4
302
GRIDFORMAT
  1
GRIDFORMAT_BEGIN
 90
        0
 91
        1
 62
     0
 92
       -2
340
14
 93
        0
 40
0.045
309
GRIDFORMAT_END
 95
        8
302
GRIDFORMAT
  1
GRIDFORMAT_BEGIN
 90
        0
 91
        1
 62
     0
 92
       -2
340
14
 93
        0
 40
0.045
309
GRIDFORMAT_END
 95
       16
302
GRIDFORMAT
  1
GRIDFORMAT_BEGIN
 90
        0
 91
        1
 62
     0
 92
       -2
340
14
 93
        0
 40
0.045
309
GRIDFORMAT_END
 95
       32
302
GRIDFORMAT
  1
GRIDFORMAT_BEGIN
 90
        0
 91
        1
 62
     0
 92
       -2
340
14
 93
        0
 40
0.045
309
GRIDFORMAT_END
309
TABLEFORMAT_END
  1
CELLSTYLE_BEGIN
 90
        3
 91
        2
300
_DATA
309
CELLSTYLE_END
  0
ENDSEC
  0
EOF
