  0
SECTION
  2
HEADER
  9
$ACADVER
  1
AC1024
  9
$ACADMAINTVER
 70
     6
  9
$DWGCODEPAGE
  3
ANSI_1254
  9
$LASTSAVEDBY
  1
DOZ 3
  9
$INSBASE
 10
0.0
 20
0.0
 30
0.0
  9
$EXTMIN
 10
518939.0898500018
 20
4397763.116748122
 30
487.7000122070312
  9
$EXTMAX
 10
518968.1440924852
 20
4397784.354152727
 30
507.0979400264933
  9
$LIMMIN
 10
0.0
 20
0.0
  9
$LIMMAX
 10
420.0
 20
297.0
  9
$ORTHOMODE
 70
     0
  9
$REGENMODE
 70
     1
  9
$FILLMODE
 70
     1
  9
$QTEXTMODE
 70
     0
  9
$MIRRTEXT
 70
     0
  9
$LTSCALE
 40
1.0
  9
$ATTMODE
 70
     1
  9
$TEXTSIZE
 40
2.5
  9
$TRACEWID
 40
1.0
  9
$TEXTSTYLE
  7
Standard
  9
$CLAYER
  8
INIT_COORD
  9
$CELTYPE
  6
ByLayer
  9
$CECOLOR
 62
   256
  9
$CELTSCALE
 40
1.0
  9
$DISPSILH
 70
     0
  9
$DIMSCALE
 40
1.0
  9
$DIMASZ
 40
2.5
  9
$DIMEXO
 40
0.625
  9
$DIMDLI
 40
3.75
  9
$DIMRND
 40
0.0
  9
$DIMDLE
 40
0.0
  9
$DIMEXE
 40
1.25
  9
$DIMTP
 40
0.0
  9
$DIMTM
 40
0.0
  9
$DIMTXT
 40
2.5
  9
$DIMCEN
 40
2.5
  9
$DIMTSZ
 40
0.0
  9
$DIMTOL
 70
     0
  9
$DIMLIM
 70
     0
  9
$DIMTIH
 70
     0
  9
$DIMTOH
 70
     0
  9
$DIMSE1
 70
     0
  9
$DIMSE2
 70
     0
  9
$DIMTAD
 70
     1
  9
$DIMZIN
 70
     8
  9
$DIMBLK
  1

  9
$DIMASO
 70
     1
  9
$DIMSHO
 70
     1
  9
$DIMPOST
  1

  9
$DIMAPOST
  1

  9
$DIMALT
 70
     0
  9
$DIMALTD
 70
     3
  9
$DIMALTF
 40
0.03937007874016
  9
$DIMLFAC
 40
1.0
  9
$DIMTOFL
 70
     1
  9
$DIMTVP
 40
0.0
  9
$DIMTIX
 70
     0
  9
$DIMSOXD
 70
     0
  9
$DIMSAH
 70
     0
  9
$DIMBLK1
  1

  9
$DIMBLK2
  1

  9
$DIMSTYLE
  2
ISO-25
  9
$DIMCLRD
 70
     0
  9
$DIMCLRE
 70
     0
  9
$DIMCLRT
 70
     0
  9
$DIMTFAC
 40
1.0
  9
$DIMGAP
 40
0.625
  9
$DIMJUST
 70
     0
  9
$DIMSD1
 70
     0
  9
$DIMSD2
 70
     0
  9
$DIMTOLJ
 70
     0
  9
$DIMTZIN
 70
     8
  9
$DIMALTZ
 70
     0
  9
$DIMALTTZ
 70
     0
  9
$DIMUPT
 70
     0
  9
$DIMDEC
 70
     2
  9
$DIMTDEC
 70
     2
  9
$DIMALTU
 70
     2
  9
$DIMALTTD
 70
     3
  9
$DIMTXSTY
  7
Standard
  9
$DIMAUNIT
 70
     0
  9
$DIMADEC
 70
     0
  9
$DIMALTRND
 40
0.0
  9
$DIMAZIN
 70
     0
  9
$DIMDSEP
 70
    44
  9
$DIMATFIT
 70
     3
  9
$DIMFRAC
 70
     0
  9
$DIMLDRBLK
  1

  9
$DIMLUNIT
 70
     2
  9
$DIMLWD
 70
    -2
  9
$DIMLWE
 70
    -2
  9
$DIMTMOVE
 70
     0
  9
$DIMFXL
 40
1.0
  9
$DIMFXLON
 70
     0
  9
$DIMJOGANG
 40
0.7853981633974483
  9
$DIMTFILL
 70
     0
  9
$DIMTFILLCLR
 70
     0
  9
$DIMARCSYM
 70
     0
  9
$DIMLTYPE
  6

  9
$DIMLTEX1
  6

  9
$DIMLTEX2
  6

  9
$DIMTXTDIRECTION
 70
     0
  9
$LUNITS
 70
     2
  9
$LUPREC
 70
     4
  9
$SKETCHINC
 40
1.0
  9
$FILLETRAD
 40
0.0
  9
$AUNITS
 70
     0
  9
$AUPREC
 70
     0
  9
$MENU
  1
.
  9
$ELEVATION
 40
0.0
  9
$PELEVATION
 40
0.0
  9
$THICKNESS
 40
0.0
  9
$LIMCHECK
 70
     0
  9
$CHAMFERA
 40
0.0
  9
$CHAMFERB
 40
0.0
  9
$CHAMFERC
 40
0.0
  9
$CHAMFERD
 40
0.0
  9
$SKPOLY
 70
     0
  9
$TDCREATE
 40
2454581.653024329
  9
$TDUCREATE
 40
2454581.528024329
  9
$TDUPDATE
 40
2458144.640003148
  9
$TDUUPDATE
 40
2458144.515003148
  9
$TDINDWG
 40
0.001338125
  9
$TDUSRTIMER
 40
0.0007312847
  9
$USRTIMER
 70
     1
  9
$ANGBASE
 50
0.0
  9
$ANGDIR
 70
     0
  9
$PDMODE
 70
     0
  9
$PDSIZE
 40
0.0
  9
$PLINEWID
 40
0.0
  9
$SPLFRAME
 70
     0
  9
$SPLINETYPE
 70
     6
  9
$SPLINESEGS
 70
     8
  9
$HANDSEED
  5
1AA
  9
$SURFTAB1
 70
     6
  9
$SURFTAB2
 70
     6
  9
$SURFTYPE
 70
     6
  9
$SURFU
 70
     6
  9
$SURFV
 70
     6
  9
$UCSBASE
  2

  9
$UCSNAME
  2

  9
$UCSORG
 10
0.0
 20
0.0
 30
0.0
  9
$UCSXDIR
 10
1.0
 20
0.0
 30
0.0
  9
$UCSYDIR
 10
0.0
 20
1.0
 30
0.0
  9
$UCSORTHOREF
  2

  9
$UCSORTHOVIEW
 70
     0
  9
$UCSORGTOP
 10
0.0
 20
0.0
 30
0.0
  9
$UCSORGBOTTOM
 10
0.0
 20
0.0
 30
0.0
  9
$UCSORGLEFT
 10
0.0
 20
0.0
 30
0.0
  9
$UCSORGRIGHT
 10
0.0
 20
0.0
 30
0.0
  9
$UCSORGFRONT
 10
0.0
 20
0.0
 30
0.0
  9
$UCSORGBACK
 10
0.0
 20
0.0
 30
0.0
  9
$PUCSBASE
  2

  9
$PUCSNAME
  2

  9
$PUCSORG
 10
0.0
 20
0.0
 30
0.0
  9
$PUCSXDIR
 10
1.0
 20
0.0
 30
0.0
  9
$PUCSYDIR
 10
0.0
 20
1.0
 30
0.0
  9
$PUCSORTHOREF
  2

  9
$PUCSORTHOVIEW
 70
     0
  9
$PUCSORGTOP
 10
0.0
 20
0.0
 30
0.0
  9
$PUCSORGBOTTOM
 10
0.0
 20
0.0
 30
0.0
  9
$PUCSORGLEFT
 10
0.0
 20
0.0
 30
0.0
  9
$PUCSORGRIGHT
 10
0.0
 20
0.0
 30
0.0
  9
$PUCSORGFRONT
 10
0.0
 20
0.0
 30
0.0
  9
$PUCSORGBACK
 10
0.0
 20
0.0
 30
0.0
  9
$USERI1
 70
     0
  9
$USERI2
 70
     0
  9
$USERI3
 70
     0
  9
$USERI4
 70
     0
  9
$USERI5
 70
     0
  9
$USERR1
 40
0.0
  9
$USERR2
 40
0.0
  9
$USERR3
 40
0.0
  9
$USERR4
 40
0.0
  9
$USERR5
 40
0.0
  9
$WORLDVIEW
 70
     1
  9
$SHADEDGE
 70
     3
  9
$SHADEDIF
 70
    70
  9
$TILEMODE
 70
     1
  9
$MAXACTVP
 70
    64
  9
$PINSBASE
 10
0.0
 20
0.0
 30
0.0
  9
$PLIMCHECK
 70
     0
  9
$PEXTMIN
 10
0.0
 20
0.0
 30
0.0
  9
$PEXTMAX
 10
0.0
 20
0.0
 30
0.0
  9
$PLIMMIN
 10
0.0
 20
0.0
  9
$PLIMMAX
 10
0.0
 20
0.0
  9
$UNITMODE
 70
     0
  9
$VISRETAIN
 70
     1
  9
$PLINEGEN
 70
     0
  9
$PSLTSCALE
 70
     1
  9
$TREEDEPTH
 70
  3020
  9
$CMLSTYLE
  2
Standard
  9
$CMLJUST
 70
     0
  9
$CMLSCALE
 40
20.0
  9
$PROXYGRAPHICS
 70
     1
  9
$MEASUREMENT
 70
     1
  9
$CELWEIGHT
370
    -1
  9
$ENDCAPS
280
     0
  9
$JOINSTYLE
280
     0
  9
$LWDISPLAY
290
     0
  9
$INSUNITS
 70
     4
  9
$HYPERLINKBASE
  1

  9
$STYLESHEET
  1

  9
$XEDIT
290
     1
  9
$CEPSNTYPE
380
     0
  9
$PSTYLEMODE
290
     1
  9
$FINGERPRINTGUID
  2
{FDEAD578-A652-11D2-9A35-0060089B3A3F}
  9
$VERSIONGUID
  2
{5E0A1811-664C-4445-B2B2-183B4326CC0D}
  9
$EXTNAMES
290
     1
  9
$PSVPSCALE
 40
0.0
  9
$OLESTARTUP
290
     0
  9
$SORTENTS
280
   127
  9
$INDEXCTL
280
     0
  9
$HIDETEXT
280
     1
  9
$XCLIPFRAME
280
     0
  9
$HALOGAP
280
     0
  9
$OBSCOLOR
 70
   257
  9
$OBSLTYPE
280
     0
  9
$INTERSECTIONDISPLAY
280
     0
  9
$INTERSECTIONCOLOR
 70
   257
  9
$DIMASSOC
280
     2
  9
$PROJECTNAME
  1

  9
$CAMERADISPLAY
290
     0
  9
$LENSLENGTH
 40
50.0
  9
$CAMERAHEIGHT
 40
0.0
  9
$STEPSPERSEC
 40
2.0
  9
$STEPSIZE
 40
6.0
  9
$3DDWFPREC
 40
2.0
  9
$PSOLWIDTH
 40
0.25
  9
$PSOLHEIGHT
 40
4.0
  9
$LOFTANG1
 40
1.570796326794897
  9
$LOFTANG2
 40
1.570796326794897
  9
$LOFTMAG1
 40
0.0
  9
$LOFTMAG2
 40
0.0
  9
$LOFTPARAM
 70
     7
  9
$LOFTNORMALS
280
     1
  9
$LATITUDE
 40
37.795
  9
$LONGITUDE
 40
-122.394
  9
$NORTHDIRECTION
 40
0.0
  9
$TIMEZONE
 70
 -8000
  9
$LIGHTGLYPHDISPLAY
280
     1
  9
$TILEMODELIGHTSYNCH
280
     1
  9
$SOLIDHIST
280
     0
  9
$SHOWHIST
280
     1
  9
$DWFFRAME
280
     2
  9
$DGNFRAME
280
     2
  9
$REALWORLDSCALE
290
     1
  9
$INTERFERECOLOR
 62
   256
  9
$CSHADOW
280
     0
  9
$SHADOWPLANELOCATION
 40
0.0
  0
ENDSEC
  0
SECTION
  2
CLASSES
  0
CLASS
  1
ACDBDICTIONARYWDFLT
  2
AcDbDictionaryWithDefault
  3
ObjectDBX Classes
 90
        0
 91
        4
280
     0
281
     0
  0
CLASS
  1
ACDBPLACEHOLDER
  2
AcDbPlaceHolder
  3
ObjectDBX Classes
 90
        0
 91
        1
280
     0
281
     0
  0
CLASS
  1
LAYOUT
  2
AcDbLayout
  3
ObjectDBX Classes
 90
        0
 91
        1
280
     0
281
     0
  0
CLASS
  1
DICTIONARYVAR
  2
AcDbDictionaryVar
  3
ObjectDBX Classes
 90
        0
 91
        4
280
     0
281
     0
  0
CLASS
  1
SCALE
  2
AcDbScale
  3
ObjectDBX Classes
 90
     1153
 91
        4
280
     0
281
     0
  0
CLASS
  1
VISUALSTYLE
  2
AcDbVisualStyle
  3
ObjectDBX Classes
 90
     4095
 91
        4
280
     0
281
     0
  0
CLASS
  1
MATERIAL
  2
AcDbMaterial
  3
ObjectDBX Classes
 90
     1153
 91
        4
280
     0
281
     0
  0
CLASS
  1
TABLESTYLE
  2
AcDbTableStyle
  3
ObjectDBX Classes
 90
     4095
 91
        4
280
     0
281
     0
  0
CLASS
  1
MLEADERSTYLE
  2
AcDbMLeaderStyle
  3
ACDB_MLEADERSTYLE_CLASS
 90
     4095
 91
        4
280
     0
281
     0
  0
CLASS
  1
CELLSTYLEMAP
  2
AcDbCellStyleMap
  3
ObjectDBX Classes
 90
     1152
 91
        4
280
     0
281
     0
  0
ENDSEC
  0
SECTION
  2
TABLES
  0
TABLE
  2
VPORT
  5
8
330
0
100
AcDbSymbolTable
 70
     2
  0
VPORT
  5
81
330
8
100
AcDbSymbolTableRecord
100
AcDbViewportTableRecord
  2
*Active
 70
     0
 10
0.0
 20
0.0
 11
1.0
 21
1.0
 12
518953.6169712435
 22
4397773.735450424
 13
0.0
 23
0.0
 14
10.0
 24
10.0
 15
10.0
 25
10.0
 16
0.0
 26
0.0
 36
1.0
 17
0.0
 27
0.0
 37
0.0
 40
21.66215269558132
 41
1.3680693580861
 42
50.0
 43
0.0
 44
0.0
 50
0.0
 51
0.0
 71
     0
 72
  1000
 73
     1
 74
     3
 75
     0
 76
     0
 77
     0
 78
     0
281
     0
 65
     1
110
0.0
120
0.0
130
0.0
111
1.0
121
0.0
131
0.0
112
0.0
122
1.0
132
0.0
 79
     0
146
0.0
348
17B
 60
     3
 61
     5
292
     1
282
     1
141
0.0
142
0.0
 63
   256
  0
ENDTAB
  0
TABLE
  2
LTYPE
  5
5
330
0
100
AcDbSymbolTable
 70
     1
  0
LTYPE
  5
14
330
5
100
AcDbSymbolTableRecord
100
AcDbLinetypeTableRecord
  2
ByBlock
 70
     0
  3

 72
    65
 73
     0
 40
0.0
  0
LTYPE
  5
15
330
5
100
AcDbSymbolTableRecord
100
AcDbLinetypeTableRecord
  2
ByLayer
 70
     0
  3

 72
    65
 73
     0
 40
0.0
  0
LTYPE
  5
16
330
5
100
AcDbSymbolTableRecord
100
AcDbLinetypeTableRecord
  2
Continuous
 70
     0
  3
Solid line
 72
    65
 73
     0
 40
0.0
  0
ENDTAB
  0
TABLE
  2
LAYER
  5
2
102
{ACAD_XDICTIONARY
360
195
102
}
330
0
100
AcDbSymbolTable
 70
     5
  0
LAYER
  5
10
330
2
100
AcDbSymbolTableRecord
100
AcDbLayerTableRecord
  2
0
 70
     0
 62
     5
  6
Continuous
370
     0
390
F
347
191
  0
LAYER
  5
A7
330
2
100
AcDbSymbolTableRecord
100
AcDbLayerTableRecord
  2
463_PN2017_5
 70
     0
 62
   232
  6
Continuous
370
     0
390
F
347
191
  0
LAYER
  5
A9
330
2
100
AcDbSymbolTableRecord
100
AcDbLayerTableRecord
  2
FERE
 70
     0
 62
    96
  6
Continuous
370
     0
390
F
347
191
  0
LAYER
  5
19B
330
2
100
AcDbSymbolTableRecord
100
AcDbLayerTableRecord
  2
INIT_COORD
 70
     0
 62
     5
  6
Continuous
370
     0
390
F
347
191
1001
AcAecLayerStandard
1000

1000

  0
ENDTAB
  0
TABLE
  2
STYLE
  5
3
330
0
100
AcDbSymbolTable
 70
     1
  0
STYLE
  5
11
330
3
100
AcDbSymbolTableRecord
100
AcDbTextStyleTableRecord
  2
Standard
 70
     0
 40
0.0
 41
1.0
 50
0.0
 71
     0
 42
2.5
  3
C:\WINDOWS\Font\TIMES.TTF
  4

  0
ENDTAB
  0
TABLE
  2
VIEW
  5
6
330
0
100
AcDbSymbolTable
 70
     0
  0
ENDTAB
  0
TABLE
  2
UCS
  5
7
330
0
100
AcDbSymbolTable
 70
     0
  0
ENDTAB
  0
TABLE
  2
APPID
  5
9
330
0
100
AcDbSymbolTable
 70
     2
  0
APPID
  5
12
330
9
100
AcDbSymbolTableRecord
100
AcDbRegAppTableRecord
  2
ACAD
 70
     0
  0
APPID
  5
19C
330
9
100
AcDbSymbolTableRecord
100
AcDbRegAppTableRecord
  2
AcAecLayerStandard
 70
     0
  0
ENDTAB
  0
TABLE
  2
DIMSTYLE
  5
A
330
0
100
AcDbSymbolTable
 70
     1
100
AcDbDimStyleTable
  0
DIMSTYLE
105
27
330
A
100
AcDbSymbolTableRecord
100
AcDbDimStyleTableRecord
  2
ISO-25
 70
     0
 41
2.5
 42
0.625
 43
3.75
 44
1.25
 73
     0
 74
     0
 77
     1
 78
     8
140
2.5
141
2.5
143
0.03937007874016
147
0.625
171
     3
172
     1
178
     0
271
     2
272
     2
274
     3
278
    44
283
     0
284
     8
340
11
  0
ENDTAB
  0
TABLE
  2
BLOCK_RECORD
  5
1
330
0
100
AcDbSymbolTable
 70
     1
  0
BLOCK_RECORD
  5
1F
330
1
100
AcDbSymbolTableRecord
100
AcDbBlockTableRecord
  2
*Model_Space
340
22
 70
     0
280
     1
281
     0
  0
BLOCK_RECORD
  5
50
330
1
100
AcDbSymbolTableRecord
100
AcDbBlockTableRecord
  2
*Paper_Space
340
51
 70
     0
280
     1
281
     0
  0
BLOCK_RECORD
  5
55
330
1
100
AcDbSymbolTableRecord
100
AcDbBlockTableRecord
  2
*Paper_Space0
340
56
 70
     0
280
     1
281
     0
  0
ENDTAB
  0
ENDSEC
  0
SECTION
  2
BLOCKS
  0
BLOCK
  5
20
330
1F
100
AcDbEntity
  8
0
100
AcDbBlockBegin
  2
*Model_Space
 70
     0
 10
0.0
 20
0.0
 30
0.0
  3
*Model_Space
  1

  0
ENDBLK
  5
21
330
1F
100
AcDbEntity
  8
0
100
AcDbBlockEnd
  0
BLOCK
  5
52
330
50
100
AcDbEntity
 67
     1
  8
0
100
AcDbBlockBegin
  2
*Paper_Space
 70
     0
 10
0.0
 20
0.0
 30
0.0
  3
*Paper_Space
  1

  0
ENDBLK
  5
53
330
50
100
AcDbEntity
 67
     1
  8
0
100
AcDbBlockEnd
  0
BLOCK
  5
57
330
55
100
AcDbEntity
  8
0
100
AcDbBlockBegin
  2
*Paper_Space0
 70
     0
 10
0.0
 20
0.0
 30
0.0
  3
*Paper_Space0
  1

  0
ENDBLK
  5
58
330
55
100
AcDbEntity
  8
0
100
AcDbBlockEnd
  0
ENDSEC
  0
SECTION
  2
ENTITIES
  0
POINT
  5
AA
330
1F
100
AcDbEntity
  8
463_PN2017_5
370
     0
100
AcDbPoint
 10
518963.1152627305
 20
4397776.926098736
 30
491.0
  0
POINT
  5
AB
330
1F
100
AcDbEntity
  8
463_PN2017_5
370
     0
100
AcDbPoint
 10
518964.4301468015
 20
4397779.021283919
 30
491.0
  0
POINT
  5
AC
330
1F
100
AcDbEntity
  8
463_PN2017_5
370
     0
100
AcDbPoint
 10
518963.8820838732
 20
4397777.291620467
 30
491.0
  0
POINT
  5
AD
330
1F
100
AcDbEntity
  8
463_PN2017_5
370
     0
100
AcDbPoint
 10
518957.4767586737
 20
4397773.71108758
 30
491.0
  0
POINT
  5
AE
330
1F
100
AcDbEntity
  8
463_PN2017_5
370
     0
100
AcDbPoint
 10
518957.116232781
 20
4397770.478474484
 30
491.0
  0
POINT
  5
AF
330
1F
100
AcDbEntity
  8
463_PN2017_5
370
     0
100
AcDbPoint
 10
518958.2500330464
 20
4397771.461889171
 30
491.0
  0
POINT
  5
B0
330
1F
100
AcDbEntity
  8
463_PN2017_5
370
     0
100
AcDbPoint
 10
518959.86399411
 20
4397771.849949169
 30
491.0
  0
POINT
  5
B1
330
1F
100
AcDbEntity
  8
463_PN2017_5
370
     0
100
AcDbPoint
 10
518961.2798767787
 20
4397770.814181994
 30
491.0
  0
POINT
  5
B2
330
1F
100
AcDbEntity
  8
463_PN2017_5
370
     0
100
AcDbPoint
 10
518964.8750239598
 20
4397771.359236006
 30
491.0
  0
POINT
  5
B3
330
1F
100
AcDbEntity
  8
463_PN2017_5
370
     0
100
AcDbPoint
 10
518963.1175064645
 20
4397773.765634765
 30
491.0
  0
POINT
  5
B4
330
1F
100
AcDbEntity
  8
463_PN2017_5
370
     0
100
AcDbPoint
 10
518962.5061275594
 20
4397776.145094619
 30
491.0
  0
POINT
  5
B5
330
1F
100
AcDbEntity
  8
463_PN2017_5
370
     0
100
AcDbPoint
 10
518962.5713968134
 20
4397776.338563859
 30
491.0
  0
POINT
  5
B6
330
1F
100
AcDbEntity
  8
463_PN2017_5
370
     0
100
AcDbPoint
 10
518963.379938276
 20
4397778.581024462
 30
491.0
  0
POINT
  5
B7
330
1F
100
AcDbEntity
  8
463_PN2017_5
370
     0
100
AcDbPoint
 10
518962.1337377041
 20
4397778.509766118
 30
491.0
  0
POINT
  5
B8
330
1F
100
AcDbEntity
  8
463_PN2017_5
370
     0
100
AcDbPoint
 10
518962.3282307123
 20
4397779.706918295
 30
491.0
  0
POINT
  5
B9
330
1F
100
AcDbEntity
  8
463_PN2017_5
370
     0
100
AcDbPoint
 10
518962.0754216718
 20
4397780.346496768
 30
491.0
  0
POINT
  5
BA
330
1F
100
AcDbEntity
  8
463_PN2017_5
370
     0
100
AcDbPoint
 10
518962.3490600275
 20
4397781.317351471
 30
491.0
  0
POINT
  5
BB
330
1F
100
AcDbEntity
  8
463_PN2017_5
370
     0
100
AcDbPoint
 10
518962.3203422266
 20
4397781.963007663
 30
491.0
  0
POINT
  5
BC
330
1F
100
AcDbEntity
  8
463_PN2017_5
370
     0
100
AcDbPoint
 10
518961.5411744615
 20
4397782.042511106
 30
491.0
  0
POINT
  5
BD
330
1F
100
AcDbEntity
  8
463_PN2017_5
370
     0
100
AcDbPoint
 10
518960.9486438721
 20
4397782.252679144
 30
491.0
  0
POINT
  5
BE
330
1F
100
AcDbEntity
  8
463_PN2017_5
370
     0
100
AcDbPoint
 10
518960.3563080427
 20
4397778.609155443
 30
491.0
  0
POINT
  5
BF
330
1F
100
AcDbEntity
  8
463_PN2017_5
370
     0
100
AcDbPoint
 10
518958.0977028924
 20
4397775.52443284
 30
491.0
  0
POINT
  5
C0
330
1F
100
AcDbEntity
  8
463_PN2017_5
370
     0
100
AcDbPoint
 10
518957.6107031724
 20
4397773.918777866
 30
491.0
  0
POINT
  5
C1
330
1F
100
AcDbEntity
  8
463_PN2017_5
370
     0
100
AcDbPoint
 10
518962.2832042884
 20
4397773.238149676
 30
491.0
  0
POINT
  5
C2
330
1F
100
AcDbEntity
  8
463_PN2017_5
370
     0
100
AcDbPoint
 10
518960.7531640241
 20
4397772.420060679
 30
491.0
  0
POINT
  5
C3
330
1F
100
AcDbEntity
  8
463_PN2017_5
370
     0
100
AcDbPoint
 10
518961.3090725177
 20
4397770.898607756
 30
491.0
  0
POINT
  5
C4
330
1F
100
AcDbEntity
  8
463_PN2017_5
370
     0
100
AcDbPoint
 10
518963.0975686696
 20
4397771.400636302
 30
491.0
  0
POINT
  5
C5
330
1F
100
AcDbEntity
  8
463_PN2017_5
370
     0
100
AcDbPoint
 10
518948.800701055
 20
4397775.443792391
 30
493.0499877929688
  0
POINT
  5
C6
330
1F
100
AcDbEntity
  8
463_PN2017_5
370
     0
100
AcDbPoint
 10
518950.5006590001
 20
4397772.877047719
 30
493.0499877929688
  0
POINT
  5
C7
330
1F
100
AcDbEntity
  8
463_PN2017_5
370
     0
100
AcDbPoint
 10
518951.0538209337
 20
4397772.089991552
 30
493.0499877929688
  0
POINT
  5
C8
330
1F
100
AcDbEntity
  8
463_PN2017_5
370
     0
100
AcDbPoint
 10
518953.5205722983
 20
4397770.411636163
 30
491.0
  0
POINT
  5
C9
330
1F
100
AcDbEntity
  8
463_PN2017_5
370
     0
100
AcDbPoint
 10
518953.3758764858
 20
4397769.612966239
 30
491.0
  0
POINT
  5
CA
330
1F
100
AcDbEntity
  8
463_PN2017_5
370
     0
100
AcDbPoint
 10
518953.5427919396
 20
4397769.077774939
 30
491.0
  0
POINT
  5
CB
330
1F
100
AcDbEntity
  8
463_PN2017_5
370
     0
100
AcDbPoint
 10
518952.7701438974
 20
4397766.732053486
 30
487.7000122070312
  0
POINT
  5
CC
330
1F
100
AcDbEntity
  8
463_PN2017_5
370
     0
100
AcDbPoint
 10
518955.6519058269
 20
4397768.516241861
 30
491.0
  0
POINT
  5
CD
330
1F
100
AcDbEntity
  8
463_PN2017_5
370
     0
100
AcDbPoint
 10
518957.1004255044
 20
4397769.066109354
 30
491.0
  0
POINT
  5
CE
330
1F
100
AcDbEntity
  8
463_PN2017_5
370
     0
100
AcDbPoint
 10
518952.1228755948
 20
4397773.830570519
 30
493.0499877929688
  0
POINT
  5
CF
330
1F
100
AcDbEntity
  8
463_PN2017_5
370
     0
100
AcDbPoint
 10
518952.98947903
 20
4397768.742421501
 30
489.3139953613281
  0
POINT
  5
D0
330
1F
100
AcDbEntity
  8
463_PN2017_5
370
     0
100
AcDbPoint
 10
518951.5853168211
 20
4397768.150573876
 30
487.7000122070312
  0
POINT
  5
D1
330
1F
100
AcDbEntity
  8
463_PN2017_5
370
     0
100
AcDbPoint
 10
518949.6639477448
 20
4397768.342971458
 30
487.7000122070312
  0
POINT
  5
D2
330
1F
100
AcDbEntity
  8
463_PN2017_5
370
     0
100
AcDbPoint
 10
518945.9009548182
 20
4397768.375311237
 30
487.7000122070312
  0
POINT
  5
D3
330
1F
100
AcDbEntity
  8
463_PN2017_5
370
     0
100
AcDbPoint
 10
518941.4687346279
 20
4397769.036319518
 30
487.7000122070312
  0
POINT
  5
D4
330
1F
100
AcDbEntity
  8
463_PN2017_5
370
     0
100
AcDbPoint
 10
518940.8126429961
 20
4397768.233441452
 30
487.7000122070312
  0
POINT
  5
D5
330
1F
100
AcDbEntity
  8
463_PN2017_5
370
     0
100
AcDbPoint
 10
518941.1940648648
 20
4397767.488473477
 30
487.7000122070312
  0
POINT
  5
D6
330
1F
100
AcDbEntity
  8
463_PN2017_5
370
     0
100
AcDbPoint
 10
518944.6078470308
 20
4397766.090258835
 30
487.7000122070312
  0
POINT
  5
D7
330
1F
100
AcDbEntity
  8
463_PN2017_5
370
     0
100
AcDbPoint
 10
518945.8241363304
 20
4397765.31691945
 30
487.7000122070312
  0
POINT
  5
D8
330
1F
100
AcDbEntity
  8
463_PN2017_5
370
     0
100
AcDbPoint
 10
518946.1817163089
 20
4397764.382311457
 30
487.7000122070312
  0
POINT
  5
D9
330
1F
100
AcDbEntity
  8
463_PN2017_5
370
     0
100
AcDbPoint
 10
518946.2361968333
 20
4397764.329577914
 30
487.7000122070312
  0
POINT
  5
DA
330
1F
100
AcDbEntity
  8
463_PN2017_5
370
     0
100
AcDbPoint
 10
518947.7814514796
 20
4397764.750001349
 30
487.7000122070312
  0
POINT
  5
DB
330
1F
100
AcDbEntity
  8
463_PN2017_5
370
     0
100
AcDbPoint
 10
518950.2170203929
 20
4397765.089578209
 30
487.7000122070312
  0
POINT
  5
DC
330
1F
100
AcDbEntity
  8
463_PN2017_5
370
     0
100
AcDbPoint
 10
518953.2916496728
 20
4397764.626757077
 30
487.7000122070312
  0
POINT
  5
DD
330
1F
100
AcDbEntity
  8
463_PN2017_5
370
     0
100
AcDbPoint
 10
518952.6262467448
 20
4397766.569330238
 30
487.7000122070312
  0
POINT
  5
DE
330
1F
100
AcDbEntity
  8
463_PN2017_5
370
     0
100
AcDbPoint
 10
518954.2159856033
 20
4397767.624956396
 30
489.0289916992188
  0
POINT
  5
DF
330
1F
100
AcDbEntity
  8
463_PN2017_5
370
     0
100
AcDbPoint
 10
518946.8710960836
 20
4397766.760644333
 30
487.7000122070312
  0
POINT
  5
E0
330
1F
100
AcDbEntity
  8
463_PN2017_5
370
     0
100
AcDbPoint
 10
518952.8748968884
 20
4397764.249227474
 30
487.7000122070312
  0
POINT
  5
E1
330
1F
100
AcDbEntity
  8
463_PN2017_5
370
     0
100
AcDbPoint
 10
518951.8844936591
 20
4397763.116748122
 30
487.7000122070312
  0
POINT
  5
E2
330
1F
100
AcDbEntity
  8
463_PN2017_5
370
     0
100
AcDbPoint
 10
518950.991334468
 20
4397763.982699558
 30
487.7000122070312
  0
POINT
  5
E3
330
1F
100
AcDbEntity
  8
463_PN2017_5
370
     0
100
AcDbPoint
 10
518950.1559437076
 20
4397775.86621494
 30
493.0499877929688
  0
POINT
  5
E4
330
1F
100
AcDbEntity
  8
463_PN2017_5
370
     0
100
AcDbPoint
 10
518948.7164816299
 20
4397778.438417371
 30
493.0499877929688
  0
POINT
  5
E5
330
1F
100
AcDbEntity
  8
463_PN2017_5
370
     0
100
AcDbPoint
 10
518947.1580927066
 20
4397780.506680156
 30
493.0499877929688
  0
POINT
  5
E6
330
1F
100
AcDbEntity
  8
463_PN2017_5
370
     0
100
AcDbPoint
 10
518946.9830221381
 20
4397781.289221343
 30
493.0499877929688
  0
POINT
  5
E7
330
1F
100
AcDbEntity
  8
463_PN2017_5
370
     0
100
AcDbPoint
 10
518947.1208193933
 20
4397782.094329873
 30
493.0499877929688
  0
POINT
  5
E8
330
1F
100
AcDbEntity
  8
463_PN2017_5
370
     0
100
AcDbPoint
 10
518947.4636455968
 20
4397782.794808792
 30
493.0499877929688
  0
POINT
  5
E9
330
1F
100
AcDbEntity
  8
463_PN2017_5
370
     0
100
AcDbPoint
 10
518947.3268776538
 20
4397783.147548181
 30
493.0499877929688
  0
POINT
  5
EA
330
1F
100
AcDbEntity
  8
463_PN2017_5
370
     0
100
AcDbPoint
 10
518946.538697917
 20
4397783.21428801
 30
493.0499877929688
  0
POINT
  5
EB
330
1F
100
AcDbEntity
  8
463_PN2017_5
370
     0
100
AcDbPoint
 10
518945.9280616544
 20
4397783.135916392
 30
493.0499877929688
  0
POINT
  5
EC
330
1F
100
AcDbEntity
  8
463_PN2017_5
370
     0
100
AcDbPoint
 10
518945.1758522212
 20
4397783.273362452
 30
493.0499877929688
  0
POINT
  5
ED
330
1F
100
AcDbEntity
  8
463_PN2017_5
370
     0
100
AcDbPoint
 10
518944.1389316574
 20
4397783.581105683
 30
493.0499877929688
  0
POINT
  5
EE
330
1F
100
AcDbEntity
  8
463_PN2017_5
370
     0
100
AcDbPoint
 10
518942.5828536173
 20
4397783.929158251
 30
493.0499877929688
  0
POINT
  5
EF
330
1F
100
AcDbEntity
  8
463_PN2017_5
370
     0
100
AcDbPoint
 10
518942.1006161219
 20
4397784.354152727
 30
493.0499877929688
  0
POINT
  5
F0
330
1F
100
AcDbEntity
  8
463_PN2017_5
370
     0
100
AcDbPoint
 10
518941.2404763914
 20
4397783.923298699
 30
493.0499877929688
  0
POINT
  5
F1
330
1F
100
AcDbEntity
  8
463_PN2017_5
370
     0
100
AcDbPoint
 10
518939.7771108595
 20
4397783.316656475
 30
493.0499877929688
  0
POINT
  5
F2
330
1F
100
AcDbEntity
  8
463_PN2017_5
370
     0
100
AcDbPoint
 10
518939.2614134637
 20
4397781.074842858
 30
493.0499877929688
  0
POINT
  5
F3
330
1F
100
AcDbEntity
  8
463_PN2017_5
370
     0
100
AcDbPoint
 10
518940.3669615075
 20
4397779.697248318
 30
493.0499877929688
  0
POINT
  5
F4
330
1F
100
AcDbEntity
  8
463_PN2017_5
370
     0
100
AcDbPoint
 10
518941.0627398064
 20
4397778.868599931
 30
493.0499877929688
  0
POINT
  5
F5
330
1F
100
AcDbEntity
  8
463_PN2017_5
370
     0
100
AcDbPoint
 10
518944.1504436854
 20
4397779.568918223
 30
493.0499877929688
  0
POINT
  5
F6
330
1F
100
AcDbEntity
  8
463_PN2017_5
370
     0
100
AcDbPoint
 10
518946.3868875596
 20
4397777.834159381
 30
493.0499877929688
  0
POINT
  5
F7
330
1F
100
AcDbEntity
  8
463_PN2017_5
370
     0
100
AcDbPoint
 10
518947.3516624896
 20
4397776.921091475
 30
493.0499877929688
  0
POINT
  5
F8
330
1F
100
AcDbEntity
  8
463_PN2017_5
370
     0
100
AcDbPoint
 10
518948.0850554782
 20
4397778.712733886
 30
493.0499877929688
  0
POINT
  5
F9
330
1F
100
AcDbEntity
  8
463_PN2017_5
370
     0
100
AcDbPoint
 10
518946.8309394381
 20
4397779.782436232
 30
493.0499877929688
  0
POINT
  5
FA
330
1F
100
AcDbEntity
  8
463_PN2017_5
370
     0
100
AcDbPoint
 10
518947.2236057558
 20
4397781.876424409
 30
493.0499877929688
  0
POINT
  5
FB
330
1F
100
AcDbEntity
  8
463_PN2017_5
370
     0
100
AcDbPoint
 10
518946.5903009899
 20
4397782.936104159
 30
493.0499877929688
  0
POINT
  5
FC
330
1F
100
AcDbEntity
  8
463_PN2017_5
370
     0
100
AcDbPoint
 10
518939.0898500018
 20
4397782.29732968
 30
493.0499877929688
  0
POINT
  5
FD
330
1F
100
AcDbEntity
  8
463_PN2017_5
370
     0
100
AcDbPoint
 10
518940.3225277284
 20
4397783.704774627
 30
493.0499877929688
  0
POINT
  5
FE
330
1F
100
AcDbEntity
  8
463_PN2017_5
370
     0
100
AcDbPoint
 10
518939.6195918403
 20
4397783.290069421
 30
493.0499877929688
  0
POINT
  5
FF
330
1F
100
AcDbEntity
  8
463_PN2017_5
370
     0
100
AcDbPoint
 10
518939.1699699986
 20
4397781.192241629
 30
493.0499877929688
  0
POINT
  5
100
330
1F
100
AcDbEntity
  8
463_PN2017_5
370
     0
100
AcDbPoint
 10
518940.1415416726
 20
4397779.847160147
 30
493.0499877929688
  0
POINT
  5
101
330
1F
100
AcDbEntity
  8
463_PN2017_5
370
     0
100
AcDbPoint
 10
518940.9918728662
 20
4397779.048447303
 30
493.0499877929688
  0
POINT
  5
102
330
1F
100
AcDbEntity
  8
463_PN2017_5
370
     0
100
AcDbPoint
 10
518940.7375642147
 20
4397777.114665811
 30
493.0499877929688
  0
POINT
  5
103
330
1F
100
AcDbEntity
  8
463_PN2017_5
370
     0
100
AcDbPoint
 10
518940.7132707116
 20
4397776.059314006
 30
493.0499877929688
  0
POINT
  5
104
330
1F
100
AcDbEntity
  8
463_PN2017_5
370
     0
100
AcDbPoint
 10
518941.414706247
 20
4397775.538655479
 30
493.0499877929688
  0
POINT
  5
105
330
1F
100
AcDbEntity
  8
463_PN2017_5
370
     0
100
AcDbPoint
 10
518942.4704307275
 20
4397775.342585891
 30
493.0499877929688
  0
POINT
  5
106
330
1F
100
AcDbEntity
  8
463_PN2017_5
370
     0
100
AcDbPoint
 10
518942.7662090462
 20
4397775.580087731
 30
493.0499877929688
  0
POINT
  5
107
330
1F
100
AcDbEntity
  8
463_PN2017_5
370
     0
100
AcDbPoint
 10
518943.0125745503
 20
4397777.733320095
 30
493.0499877929688
  0
LINE
  5
108
330
1F
100
AcDbEntity
  8
463_PN2017_5
370
     0
100
AcDbLine
 10
518942.7662090462
 20
4397775.580087731
 30
493.0499877929688
 11
518942.4704307275
 21
4397775.342585891
 31
493.0499877929688
  0
LINE
  5
109
330
1F
100
AcDbEntity
  8
463_PN2017_5
370
     0
100
AcDbLine
 10
518942.4704307275
 20
4397775.342585891
 30
493.0499877929688
 11
518941.414706247
 21
4397775.538655479
 31
493.0499877929688
  0
LINE
  5
10A
330
1F
100
AcDbEntity
  8
463_PN2017_5
370
     0
100
AcDbLine
 10
518941.414706247
 20
4397775.538655479
 30
493.0499877929688
 11
518940.7132707116
 21
4397776.059314006
 31
493.0499877929688
  0
LINE
  5
10B
330
1F
100
AcDbEntity
  8
463_PN2017_5
370
     0
100
AcDbLine
 10
518940.7132707116
 20
4397776.059314006
 30
493.0499877929688
 11
518940.7375642147
 21
4397777.114665811
 31
493.0499877929688
  0
LINE
  5
10C
330
1F
100
AcDbEntity
  8
463_PN2017_5
370
     0
100
AcDbLine
 10
518940.7375642147
 20
4397777.114665811
 30
493.0499877929688
 11
518941.0627398064
 21
4397778.868599931
 31
493.0499877929688
  0
LINE
  5
10D
330
1F
100
AcDbEntity
  8
463_PN2017_5
370
     0
100
AcDbLine
 10
518941.0627398064
 20
4397778.868599931
 30
493.0499877929688
 11
518940.9918728662
 21
4397779.048447303
 31
493.0499877929688
  0
LINE
  5
10E
330
1F
100
AcDbEntity
  8
463_PN2017_5
370
     0
100
AcDbLine
 10
518940.9918728662
 20
4397779.048447303
 30
493.0499877929688
 11
518940.3669615075
 21
4397779.697248318
 31
493.0499877929688
  0
LINE
  5
10F
330
1F
100
AcDbEntity
  8
463_PN2017_5
370
     0
100
AcDbLine
 10
518940.3669615075
 20
4397779.697248318
 30
493.0499877929688
 11
518940.1415416726
 21
4397779.847160147
 31
493.0499877929688
  0
LINE
  5
110
330
1F
100
AcDbEntity
  8
463_PN2017_5
370
     0
100
AcDbLine
 10
518940.1415416726
 20
4397779.847160147
 30
493.0499877929688
 11
518939.2614134637
 21
4397781.074842858
 31
493.0499877929688
  0
LINE
  5
111
330
1F
100
AcDbEntity
  8
463_PN2017_5
370
     0
100
AcDbLine
 10
518939.2614134637
 20
4397781.074842858
 30
493.0499877929688
 11
518939.1699699986
 21
4397781.192241629
 31
493.0499877929688
  0
LINE
  5
112
330
1F
100
AcDbEntity
  8
463_PN2017_5
370
     0
100
AcDbLine
 10
518939.1699699986
 20
4397781.192241629
 30
493.0499877929688
 11
518939.0898500018
 21
4397782.29732968
 31
493.0499877929688
  0
LINE
  5
113
330
1F
100
AcDbEntity
  8
463_PN2017_5
370
     0
100
AcDbLine
 10
518939.0898500018
 20
4397782.29732968
 30
493.0499877929688
 11
518939.6195918403
 21
4397783.290069421
 31
493.0499877929688
  0
LINE
  5
114
330
1F
100
AcDbEntity
  8
463_PN2017_5
370
     0
100
AcDbLine
 10
518939.6195918403
 20
4397783.290069421
 30
493.0499877929688
 11
518939.7771108595
 21
4397783.316656475
 31
493.0499877929688
  0
LINE
  5
115
330
1F
100
AcDbEntity
  8
463_PN2017_5
370
     0
100
AcDbLine
 10
518939.7771108595
 20
4397783.316656475
 30
493.0499877929688
 11
518940.3225277284
 21
4397783.704774627
 31
493.0499877929688
  0
LINE
  5
116
330
1F
100
AcDbEntity
  8
463_PN2017_5
370
     0
100
AcDbLine
 10
518940.3225277284
 20
4397783.704774627
 30
493.0499877929688
 11
518941.2404763914
 21
4397783.923298699
 31
493.0499877929688
  0
LINE
  5
117
330
1F
100
AcDbEntity
  8
463_PN2017_5
370
     0
100
AcDbLine
 10
518941.2404763914
 20
4397783.923298699
 30
493.0499877929688
 11
518942.1006161219
 21
4397784.354152727
 31
493.0499877929688
  0
LINE
  5
118
330
1F
100
AcDbEntity
  8
463_PN2017_5
370
     0
100
AcDbLine
 10
518942.1006161219
 20
4397784.354152727
 30
493.0499877929688
 11
518942.5828536173
 21
4397783.929158251
 31
493.0499877929688
  0
LINE
  5
119
330
1F
100
AcDbEntity
  8
463_PN2017_5
370
     0
100
AcDbLine
 10
518942.5828536173
 20
4397783.929158251
 30
493.0499877929688
 11
518944.1389316574
 21
4397783.581105683
 31
493.0499877929688
  0
LINE
  5
11A
330
1F
100
AcDbEntity
  8
463_PN2017_5
370
     0
100
AcDbLine
 10
518944.1389316574
 20
4397783.581105683
 30
493.0499877929688
 11
518945.1758522212
 21
4397783.273362452
 31
493.0499877929688
  0
LINE
  5
11B
330
1F
100
AcDbEntity
  8
463_PN2017_5
370
     0
100
AcDbLine
 10
518945.1758522212
 20
4397783.273362452
 30
493.0499877929688
 11
518945.9280616544
 21
4397783.135916392
 31
493.0499877929688
  0
LINE
  5
11C
330
1F
100
AcDbEntity
  8
463_PN2017_5
370
     0
100
AcDbLine
 10
518945.9280616544
 20
4397783.135916392
 30
493.0499877929688
 11
518946.538697917
 21
4397783.21428801
 31
493.0499877929688
  0
LINE
  5
11D
330
1F
100
AcDbEntity
  8
463_PN2017_5
370
     0
100
AcDbLine
 10
518946.538697917
 20
4397783.21428801
 30
493.0499877929688
 11
518947.3268776538
 21
4397783.147548181
 31
493.0499877929688
  0
LINE
  5
11E
330
1F
100
AcDbEntity
  8
463_PN2017_5
370
     0
100
AcDbLine
 10
518947.3268776538
 20
4397783.147548181
 30
493.0499877929688
 11
518947.4636455968
 21
4397782.794808792
 31
493.0499877929688
  0
LINE
  5
11F
330
1F
100
AcDbEntity
  8
463_PN2017_5
370
     0
100
AcDbLine
 10
518947.4636455968
 20
4397782.794808792
 30
493.0499877929688
 11
518947.1208193933
 21
4397782.094329873
 31
493.0499877929688
  0
LINE
  5
120
330
1F
100
AcDbEntity
  8
463_PN2017_5
370
     0
100
AcDbLine
 10
518947.1208193933
 20
4397782.094329873
 30
493.0499877929688
 11
518947.2236057558
 21
4397781.876424409
 31
493.0499877929688
  0
LINE
  5
121
330
1F
100
AcDbEntity
  8
463_PN2017_5
370
     0
100
AcDbLine
 10
518947.2236057558
 20
4397781.876424409
 30
493.0499877929688
 11
518946.9830221381
 21
4397781.289221343
 31
493.0499877929688
  0
LINE
  5
122
330
1F
100
AcDbEntity
  8
463_PN2017_5
370
     0
100
AcDbLine
 10
518946.9830221381
 20
4397781.289221343
 30
493.0499877929688
 11
518947.1580927066
 21
4397780.506680156
 31
493.0499877929688
  0
LINE
  5
123
330
1F
100
AcDbEntity
  8
463_PN2017_5
370
     0
100
AcDbLine
 10
518947.1580927066
 20
4397780.506680156
 30
493.0499877929688
 11
518946.8309394381
 21
4397779.782436232
 31
493.0499877929688
  0
LINE
  5
124
330
1F
100
AcDbEntity
  8
463_PN2017_5
370
     0
100
AcDbLine
 10
518946.8309394381
 20
4397779.782436232
 30
493.0499877929688
 11
518948.7164816299
 21
4397778.438417371
 31
493.0499877929688
  0
LINE
  5
125
330
1F
100
AcDbEntity
  8
463_PN2017_5
370
     0
100
AcDbLine
 10
518948.7164816299
 20
4397778.438417371
 30
493.0499877929688
 11
518950.1559437076
 21
4397775.86621494
 31
493.0499877929688
  0
LINE
  5
126
330
1F
100
AcDbEntity
  8
463_PN2017_5
370
     0
100
AcDbLine
 10
518950.1559437076
 20
4397775.86621494
 30
493.0499877929688
 11
518952.1228755948
 21
4397773.830570519
 31
493.0499877929688
  0
LINE
  5
127
330
1F
100
AcDbEntity
  8
463_PN2017_5
370
     0
100
AcDbLine
 10
518952.1228755948
 20
4397773.830570519
 30
493.0499877929688
 11
518957.4767586737
 21
4397773.71108758
 31
491.0
  0
LINE
  5
128
330
1F
100
AcDbEntity
  8
463_PN2017_5
370
     0
100
AcDbLine
 10
518957.4767586737
 20
4397773.71108758
 30
491.0
 11
518957.6107031724
 21
4397773.918777866
 31
491.0
  0
LINE
  5
129
330
1F
100
AcDbEntity
  8
463_PN2017_5
370
     0
100
AcDbLine
 10
518957.6107031724
 20
4397773.918777866
 30
491.0
 11
518958.0977028924
 21
4397775.52443284
 31
491.0
  0
LINE
  5
12A
330
1F
100
AcDbEntity
  8
463_PN2017_5
370
     0
100
AcDbLine
 10
518958.0977028924
 20
4397775.52443284
 30
491.0
 11
518960.3563080427
 21
4397778.609155443
 31
491.0
  0
LINE
  5
12B
330
1F
100
AcDbEntity
  8
463_PN2017_5
370
     0
100
AcDbLine
 10
518960.3563080427
 20
4397778.609155443
 30
491.0
 11
518960.9486438721
 21
4397782.252679144
 31
491.0
  0
LINE
  5
12C
330
1F
100
AcDbEntity
  8
463_PN2017_5
370
     0
100
AcDbLine
 10
518960.9486438721
 20
4397782.252679144
 30
491.0
 11
518961.5411744615
 21
4397782.042511106
 31
491.0
  0
LINE
  5
12D
330
1F
100
AcDbEntity
  8
463_PN2017_5
370
     0
100
AcDbLine
 10
518961.5411744615
 20
4397782.042511106
 30
491.0
 11
518962.3203422266
 21
4397781.963007663
 31
491.0
  0
LINE
  5
12E
330
1F
100
AcDbEntity
  8
463_PN2017_5
370
     0
100
AcDbLine
 10
518962.3203422266
 20
4397781.963007663
 30
491.0
 11
518962.3490600275
 21
4397781.317351471
 31
491.0
  0
LINE
  5
12F
330
1F
100
AcDbEntity
  8
463_PN2017_5
370
     0
100
AcDbLine
 10
518962.3490600275
 20
4397781.317351471
 30
491.0
 11
518962.0754216718
 21
4397780.346496768
 31
491.0
  0
LINE
  5
130
330
1F
100
AcDbEntity
  8
463_PN2017_5
370
     0
100
AcDbLine
 10
518962.0754216718
 20
4397780.346496768
 30
491.0
 11
518962.3282307123
 21
4397779.706918295
 31
491.0
  0
LINE
  5
131
330
1F
100
AcDbEntity
  8
463_PN2017_5
370
     0
100
AcDbLine
 10
518962.3282307123
 20
4397779.706918295
 30
491.0
 11
518962.1337377041
 21
4397778.509766118
 31
491.0
  0
LINE
  5
132
330
1F
100
AcDbEntity
  8
463_PN2017_5
370
     0
100
AcDbLine
 10
518962.1337377041
 20
4397778.509766118
 30
491.0
 11
518963.379938276
 21
4397778.581024462
 31
491.0
  0
LINE
  5
133
330
1F
100
AcDbEntity
  8
463_PN2017_5
370
     0
100
AcDbLine
 10
518963.379938276
 20
4397778.581024462
 30
491.0
 11
518964.4301468015
 21
4397779.021283919
 31
491.0
  0
LINE
  5
134
330
1F
100
AcDbEntity
  8
463_PN2017_5
370
     0
100
AcDbLine
 10
518963.8820838732
 20
4397777.291620467
 30
491.0
 11
518963.1152627305
 21
4397776.926098736
 31
491.0
  0
LINE
  5
135
330
1F
100
AcDbEntity
  8
463_PN2017_5
370
     0
100
AcDbLine
 10
518963.1152627305
 20
4397776.926098736
 30
491.0
 11
518962.5713968134
 21
4397776.338563859
 31
491.0
  0
LINE
  5
136
330
1F
100
AcDbEntity
  8
463_PN2017_5
370
     0
100
AcDbLine
 10
518962.5713968134
 20
4397776.338563859
 30
491.0
 11
518962.5061275594
 21
4397776.145094619
 31
491.0
  0
LINE
  5
137
330
1F
100
AcDbEntity
  8
463_PN2017_5
370
     0
100
AcDbLine
 10
518962.5061275594
 20
4397776.145094619
 30
491.0
 11
518963.1175064645
 21
4397773.765634765
 31
491.0
  0
LINE
  5
138
330
1F
100
AcDbEntity
  8
463_PN2017_5
370
     0
100
AcDbLine
 10
518963.1175064645
 20
4397773.765634765
 30
491.0
 11
518964.8750239598
 21
4397771.359236006
 31
491.0
  0
LINE
  5
139
330
1F
100
AcDbEntity
  8
463_PN2017_5
370
     0
100
AcDbLine
 10
518964.8750239598
 20
4397771.359236006
 30
491.0
 11
518963.0975686696
 21
4397771.400636302
 31
491.0
  0
LINE
  5
13A
330
1F
100
AcDbEntity
  8
463_PN2017_5
370
     0
100
AcDbLine
 10
518963.0975686696
 20
4397771.400636302
 30
491.0
 11
518961.2798767787
 21
4397770.814181994
 31
491.0
  0
LINE
  5
13B
330
1F
100
AcDbEntity
  8
463_PN2017_5
370
     0
100
AcDbLine
 10
518961.2798767787
 20
4397770.814181994
 30
491.0
 11
518959.86399411
 21
4397771.849949169
 31
491.0
  0
LINE
  5
13C
330
1F
100
AcDbEntity
  8
463_PN2017_5
370
     0
100
AcDbLine
 10
518959.86399411
 20
4397771.849949169
 30
491.0
 11
518958.2500330464
 21
4397771.461889171
 31
491.0
  0
LINE
  5
13D
330
1F
100
AcDbEntity
  8
463_PN2017_5
370
     0
100
AcDbLine
 10
518958.2500330464
 20
4397771.461889171
 30
491.0
 11
518957.116232781
 21
4397770.478474484
 31
491.0
  0
LINE
  5
13E
330
1F
100
AcDbEntity
  8
463_PN2017_5
370
     0
100
AcDbLine
 10
518957.116232781
 20
4397770.478474484
 30
491.0
 11
518957.1004255044
 21
4397769.066109354
 31
491.0
  0
LINE
  5
13F
330
1F
100
AcDbEntity
  8
463_PN2017_5
370
     0
100
AcDbLine
 10
518957.1004255044
 20
4397769.066109354
 30
491.0
 11
518955.6519058269
 21
4397768.516241861
 31
491.0
  0
LINE
  5
140
330
1F
100
AcDbEntity
  8
463_PN2017_5
370
     0
100
AcDbLine
 10
518955.6519058269
 20
4397768.516241861
 30
491.0
 11
518954.2159856033
 21
4397767.624956396
 31
489.0289916992188
  0
LINE
  5
141
330
1F
100
AcDbEntity
  8
463_PN2017_5
370
     0
100
AcDbLine
 10
518954.2159856033
 20
4397767.624956396
 30
489.0289916992188
 11
518952.7701438974
 21
4397766.732053486
 31
487.7000122070312
  0
LINE
  5
142
330
1F
100
AcDbEntity
  8
463_PN2017_5
370
     0
100
AcDbLine
 10
518952.7701438974
 20
4397766.732053486
 30
487.7000122070312
 11
518952.6262467448
 21
4397766.569330238
 31
487.7000122070312
  0
LINE
  5
143
330
1F
100
AcDbEntity
  8
463_PN2017_5
370
     0
100
AcDbLine
 10
518952.6262467448
 20
4397766.569330238
 30
487.7000122070312
 11
518953.2916496728
 21
4397764.626757077
 31
487.7000122070312
  0
LINE
  5
144
330
1F
100
AcDbEntity
  8
463_PN2017_5
370
     0
100
AcDbLine
 10
518953.2916496728
 20
4397764.626757077
 30
487.7000122070312
 11
518952.8748968884
 21
4397764.249227474
 31
487.7000122070312
  0
LINE
  5
145
330
1F
100
AcDbEntity
  8
463_PN2017_5
370
     0
100
AcDbLine
 10
518952.8748968884
 20
4397764.249227474
 30
487.7000122070312
 11
518951.8844936591
 21
4397763.116748122
 31
487.7000122070312
  0
LINE
  5
146
330
1F
100
AcDbEntity
  8
463_PN2017_5
370
     0
100
AcDbLine
 10
518951.8844936591
 20
4397763.116748122
 30
487.7000122070312
 11
518950.991334468
 21
4397763.982699558
 31
487.7000122070312
  0
LINE
  5
147
330
1F
100
AcDbEntity
  8
463_PN2017_5
370
     0
100
AcDbLine
 10
518950.991334468
 20
4397763.982699558
 30
487.7000122070312
 11
518950.2170203929
 21
4397765.089578209
 31
487.7000122070312
  0
LINE
  5
148
330
1F
100
AcDbEntity
  8
463_PN2017_5
370
     0
100
AcDbLine
 10
518950.2170203929
 20
4397765.089578209
 30
487.7000122070312
 11
518947.7814514796
 21
4397764.750001349
 31
487.7000122070312
  0
LINE
  5
149
330
1F
100
AcDbEntity
  8
463_PN2017_5
370
     0
100
AcDbLine
 10
518947.7814514796
 20
4397764.750001349
 30
487.7000122070312
 11
518946.2361968333
 21
4397764.329577914
 31
487.7000122070312
  0
LINE
  5
14A
330
1F
100
AcDbEntity
  8
463_PN2017_5
370
     0
100
AcDbLine
 10
518946.2361968333
 20
4397764.329577914
 30
487.7000122070312
 11
518946.1817163089
 21
4397764.382311457
 31
487.7000122070312
  0
LINE
  5
14B
330
1F
100
AcDbEntity
  8
463_PN2017_5
370
     0
100
AcDbLine
 10
518946.1817163089
 20
4397764.382311457
 30
487.7000122070312
 11
518945.8241363304
 21
4397765.31691945
 31
487.7000122070312
  0
LINE
  5
14C
330
1F
100
AcDbEntity
  8
463_PN2017_5
370
     0
100
AcDbLine
 10
518945.8241363304
 20
4397765.31691945
 30
487.7000122070312
 11
518944.6078470308
 21
4397766.090258835
 31
487.7000122070312
  0
LINE
  5
14D
330
1F
100
AcDbEntity
  8
463_PN2017_5
370
     0
100
AcDbLine
 10
518944.6078470308
 20
4397766.090258835
 30
487.7000122070312
 11
518941.1940648648
 21
4397767.488473477
 31
487.7000122070312
  0
LINE
  5
14E
330
1F
100
AcDbEntity
  8
463_PN2017_5
370
     0
100
AcDbLine
 10
518941.1940648648
 20
4397767.488473477
 30
487.7000122070312
 11
518940.8126429961
 21
4397768.233441452
 31
487.7000122070312
  0
LINE
  5
14F
330
1F
100
AcDbEntity
  8
463_PN2017_5
370
     0
100
AcDbLine
 10
518940.8126429961
 20
4397768.233441452
 30
487.7000122070312
 11
518941.4687346279
 21
4397769.036319518
 31
487.7000122070312
  0
LINE
  5
150
330
1F
100
AcDbEntity
  8
463_PN2017_5
370
     0
100
AcDbLine
 10
518941.4687346279
 20
4397769.036319518
 30
487.7000122070312
 11
518945.9009548182
 21
4397768.375311237
 31
487.7000122070312
  0
LINE
  5
151
330
1F
100
AcDbEntity
  8
463_PN2017_5
370
     0
100
AcDbLine
 10
518945.9009548182
 20
4397768.375311237
 30
487.7000122070312
 11
518946.8710960836
 21
4397766.760644333
 31
487.7000122070312
  0
LINE
  5
152
330
1F
100
AcDbEntity
  8
463_PN2017_5
370
     0
100
AcDbLine
 10
518946.8710960836
 20
4397766.760644333
 30
487.7000122070312
 11
518949.6639477448
 21
4397768.342971458
 31
487.7000122070312
  0
LINE
  5
153
330
1F
100
AcDbEntity
  8
463_PN2017_5
370
     0
100
AcDbLine
 10
518949.6639477448
 20
4397768.342971458
 30
487.7000122070312
 11
518951.5853168211
 21
4397768.150573876
 31
487.7000122070312
  0
LINE
  5
154
330
1F
100
AcDbEntity
  8
463_PN2017_5
370
     0
100
AcDbLine
 10
518951.5853168211
 20
4397768.150573876
 30
487.7000122070312
 11
518952.98947903
 21
4397768.742421501
 31
489.3139953613281
  0
LINE
  5
155
330
1F
100
AcDbEntity
  8
463_PN2017_5
370
     0
100
AcDbLine
 10
518952.98947903
 20
4397768.742421501
 30
489.3139953613281
 11
518953.5427919396
 21
4397769.077774939
 31
491.0
  0
LINE
  5
156
330
1F
100
AcDbEntity
  8
463_PN2017_5
370
     0
100
AcDbLine
 10
518953.5427919396
 20
4397769.077774939
 30
491.0
 11
518953.3758764858
 21
4397769.612966239
 31
491.0
  0
LINE
  5
157
330
1F
100
AcDbEntity
  8
463_PN2017_5
370
     0
100
AcDbLine
 10
518953.3758764858
 20
4397769.612966239
 30
491.0
 11
518953.5205722983
 21
4397770.411636163
 31
491.0
  0
LINE
  5
158
330
1F
100
AcDbEntity
  8
463_PN2017_5
370
     0
100
AcDbLine
 10
518953.5205722983
 20
4397770.411636163
 30
491.0
 11
518951.0538209337
 21
4397772.089991552
 31
493.0499877929688
  0
LINE
  5
159
330
1F
100
AcDbEntity
  8
463_PN2017_5
370
     0
100
AcDbLine
 10
518951.0538209337
 20
4397772.089991552
 30
493.0499877929688
 11
518950.5006590001
 21
4397772.877047719
 31
493.0499877929688
  0
LINE
  5
15A
330
1F
100
AcDbEntity
  8
463_PN2017_5
370
     0
100
AcDbLine
 10
518950.5006590001
 20
4397772.877047719
 30
493.0499877929688
 11
518948.800701055
 21
4397775.443792391
 31
493.0499877929688
  0
LINE
  5
15B
330
1F
100
AcDbEntity
  8
463_PN2017_5
370
     0
100
AcDbLine
 10
518948.800701055
 20
4397775.443792391
 30
493.0499877929688
 11
518947.3516624896
 21
4397776.921091475
 31
493.0499877929688
  0
LINE
  5
15C
330
1F
100
AcDbEntity
  8
463_PN2017_5
370
     0
100
AcDbLine
 10
518947.3516624896
 20
4397776.921091475
 30
493.0499877929688
 11
518946.3868875596
 21
4397777.834159381
 31
493.0499877929688
  0
LINE
  5
15D
330
1F
100
AcDbEntity
  8
463_PN2017_5
370
     0
100
AcDbLine
 10
518946.3868875596
 20
4397777.834159381
 30
493.0499877929688
 11
518944.1504436854
 21
4397779.568918223
 31
493.0499877929688
  0
LINE
  5
15E
330
1F
100
AcDbEntity
  8
463_PN2017_5
370
     0
100
AcDbLine
 10
518944.1504436854
 20
4397779.568918223
 30
493.0499877929688
 11
518943.0125745503
 21
4397777.733320095
 31
493.0499877929688
  0
LINE
  5
15F
330
1F
100
AcDbEntity
  8
463_PN2017_5
370
     0
100
AcDbLine
 10
518943.0125745503
 20
4397777.733320095
 30
493.0499877929688
 11
518942.7662090462
 21
4397775.580087731
 31
493.0499877929688
  0
POINT
  5
160
330
1F
100
AcDbEntity
  8
FERE
370
     0
100
AcDbPoint
 10
518959.7320923841
 20
4397771.189301649
 30
500.0
  0
POINT
  5
161
330
1F
100
AcDbEntity
  8
FERE
370
     0
100
AcDbPoint
 10
518961.2081988027
 20
4397770.841561513
 30
500.0
  0
POINT
  5
162
330
1F
100
AcDbEntity
  8
FERE
370
     0
100
AcDbPoint
 10
518959.8337077014
 20
4397769.522564121
 30
501.0
  0
POINT
  5
163
330
1F
100
AcDbEntity
  8
FERE
370
     0
100
AcDbPoint
 10
518961.3275645177
 20
4397770.34533449
 30
501.0
  0
POINT
  5
164
330
1F
100
AcDbEntity
  8
FERE
370
     0
100
AcDbPoint
 10
518965.3590988801
 20
4397766.061339245
 30
504.0
  0
POINT
  5
165
330
1F
100
AcDbEntity
  8
FERE
370
     0
100
AcDbPoint
 10
518965.0636296299
 20
4397768.034311336
 30
504.0
  0
POINT
  5
166
330
1F
100
AcDbEntity
  8
FERE
370
     0
100
AcDbPoint
 10
518966.4422319644
 20
4397770.909322455
 30
505.0
  0
POINT
  5
167
330
1F
100
AcDbEntity
  8
FERE
370
     0
100
AcDbPoint
 10
518967.5573901028
 20
4397769.308069743
 30
505.0
  0
POINT
  5
168
330
1F
100
AcDbEntity
  8
FERE
370
     0
100
AcDbPoint
 10
518967.8337968208
 20
4397771.176197906
 30
507.0
  0
POINT
  5
169
330
1F
100
AcDbEntity
  8
FERE
370
     0
100
AcDbPoint
 10
518968.1440924852
 20
4397769.745978471
 30
507.0
  0
LINE
  5
16A
330
1F
100
AcDbEntity
  8
FERE
370
     0
100
AcDbLine
 10
518963.8820838732
 20
4397777.291620467
 30
491.0
 11
518959.7320923841
 21
4397771.189301649
 31
500.0
  0
LINE
  5
16B
330
1F
100
AcDbEntity
  8
FERE
370
     0
100
AcDbLine
 10
518959.7320923841
 20
4397771.189301649
 30
500.0
 11
518959.8337077014
 21
4397769.522564121
 31
501.0
  0
LINE
  5
16C
330
1F
100
AcDbEntity
  8
FERE
370
     0
100
AcDbLine
 10
518959.8337077014
 20
4397769.522564121
 30
501.0
 11
518965.3590988801
 21
4397766.061339245
 31
504.0
  0
LINE
  5
16D
330
1F
100
AcDbEntity
  8
FERE
370
     0
100
AcDbLine
 10
518965.3590988801
 20
4397766.061339245
 30
504.0
 11
518967.5573901028
 21
4397769.308069743
 31
505.0
  0
LINE
  5
16E
330
1F
100
AcDbEntity
  8
FERE
370
     0
100
AcDbLine
 10
518967.5573901028
 20
4397769.308069743
 30
505.0
 11
518968.1440924852
 21
4397769.745978471
 31
507.0
  0
LINE
  5
16F
330
1F
100
AcDbEntity
  8
FERE
370
     0
100
AcDbLine
 10
518967.8337968208
 20
4397771.176197906
 30
507.0
 11
518966.4422319644
 21
4397770.909322455
 31
505.0
  0
LINE
  5
170
330
1F
100
AcDbEntity
  8
FERE
370
     0
100
AcDbLine
 10
518966.4422319644
 20
4397770.909322455
 30
505.0
 11
518965.0636296299
 21
4397768.034311336
 31
504.0
  0
LINE
  5
171
330
1F
100
AcDbEntity
  8
FERE
370
     0
100
AcDbLine
 10
518965.0636296299
 20
4397768.034311336
 30
504.0
 11
518961.3275645177
 21
4397770.34533449
 31
501.0
  0
LINE
  5
172
330
1F
100
AcDbEntity
  8
FERE
370
     0
100
AcDbLine
 10
518961.3275645177
 20
4397770.34533449
 30
501.0
 11
518961.2081988027
 21
4397770.841561513
 31
500.0
  0
POINT
  5
173
330
1F
100
AcDbEntity
  8
FERE
370
     0
100
AcDbPoint
 10
518965.1726302623
 20
4397776.914013875
 30
491.0
  0
LINE
  5
174
330
1F
100
AcDbEntity
  8
FERE
370
     0
100
AcDbLine
 10
518961.2081988027
 20
4397770.841561513
 30
500.0
 11
518965.1726302623
 21
4397776.914013875
 31
491.0
  0
LINE
  5
175
330
1F
100
AcDbEntity
  8
FERE
370
     0
100
AcDbLine
 10
518965.1726302623
 20
4397776.914013875
 30
491.0
 11
518964.4301468015
 21
4397779.021283919
 31
491.0
  0
POINT
  5
1A0
330
1F
100
AcDbEntity
  8
INIT_COORD
100
AcDbPoint
 10
518968.0176754764
 20
4397770.482532585
 30
507.0979400264933
  0
ENDSEC
  0
SECTION
  2
OBJECTS
  0
DICTIONARY
  5
C
330
0
100
AcDbDictionary
281
     1
  3
ACAD_COLOR
350
6B
  3
ACAD_DETAILVIEWSTYLE
350
1A8
  3
ACAD_GROUP
350
D
  3
ACAD_LAYOUT
350
1A
  3
ACAD_MATERIAL
350
6A
  3
ACAD_MLEADERSTYLE
350
A6
  3
ACAD_MLINESTYLE
350
17
  3
ACAD_PLOTSETTINGS
350
19
  3
ACAD_PLOTSTYLENAME
350
E
  3
ACAD_SCALELIST
350
82
  3
ACAD_SECTIONVIEWSTYLE
350
1A9
  3
ACAD_TABLESTYLE
350
A5
  3
ACAD_VISUALSTYLE
350
176
  3
ACDB_RECOMPOSE_DATA
350
1A3
  3
AcDbVariableDictionary
350
5E
  3
APPDATA
350
194
  0
DICTIONARY
  5
195
330
2
100
AcDbDictionary
280
     1
281
     1
  3
ACAD_LAYERSTATES
360
196
  3
ACLYDICTIONARY
360
19D
  0
DICTIONARY
  5
6B
102
{ACAD_REACTORS
330
C
102
}
330
C
100
AcDbDictionary
281
     1
  0
DICTIONARY
  5
1A8
102
{ACAD_REACTORS
330
C
102
}
330
C
100
AcDbDictionary
281
     1
  0
DICTIONARY
  5
D
102
{ACAD_REACTORS
330
C
102
}
330
C
100
AcDbDictionary
281
     1
  0
DICTIONARY
  5
1A
102
{ACAD_REACTORS
330
C
102
}
330
C
100
AcDbDictionary
281
     1
  3
Layout1
350
51
  3
Layout2
350
56
  3
Model
350
22
  0
DICTIONARY
  5
6A
102
{ACAD_REACTORS
330
C
102
}
330
C
100
AcDbDictionary
281
     1
  3
ByBlock
350
190
  3
ByLayer
350
18F
  3
Global
350
191
  0
DICTIONARY
  5
A6
102
{ACAD_REACTORS
330
C
102
}
330
C
100
AcDbDictionary
281
     1
  3
Standard
350
193
  0
DICTIONARY
  5
17
102
{ACAD_REACTORS
330
C
102
}
330
C
100
AcDbDictionary
281
     1
  3
Standard
350
18
  0
DICTIONARY
  5
19
102
{ACAD_REACTORS
330
C
102
}
330
C
100
AcDbDictionary
281
     1
  0
ACDBDICTIONARYWDFLT
  5
E
102
{ACAD_REACTORS
330
C
102
}
330
C
100
AcDbDictionary
281
     1
  3
Normal
350
F
100
AcDbDictionaryWithDefault
340
F
  0
DICTIONARY
  5
82
102
{ACAD_REACTORS
330
C
102
}
330
C
100
AcDbDictionary
281
     1
  3
A0
350
83
  3
A1
350
84
  3
A2
350
85
  3
A3
350
86
  3
A4
350
87
  3
A5
350
88
  3
A6
350
89
  3
A7
350
8A
  3
A8
350
8B
  3
A9
350
8C
  3
B0
350
8D
  3
B1
350
8E
  3
B2
350
8F
  3
B3
350
90
  3
B4
350
91
  3
B5
350
92
  3
B6
350
93
  3
B7
350
94
  3
B8
350
95
  3
B9
350
96
  3
C0
350
97
  3
C1
350
98
  3
C2
350
99
  3
C3
350
9A
  3
C4
350
9B
  3
C5
350
9C
  3
C6
350
9D
  3
C7
350
9E
  3
C8
350
9F
  3
C9
350
A0
  3
D0
350
A1
  3
D1
350
A2
  3
D2
350
A3
  0
DICTIONARY
  5
1A9
102
{ACAD_REACTORS
330
C
102
}
330
C
100
AcDbDictionary
281
     1
  0
DICTIONARY
  5
A5
102
{ACAD_REACTORS
330
C
102
}
330
C
100
AcDbDictionary
281
     1
  3
Standard
350
192
  0
DICTIONARY
  5
176
102
{ACAD_REACTORS
330
C
102
}
330
C
100
AcDbDictionary
281
     1
  3
2dWireframe
350
17B
  3
Basic
350
17E
  3
Brighten
350
182
  3
ColorChange
350
186
  3
Conceptual
350
180
  3
Dim
350
181
  3
EdgeColorOff
350
189
  3
Facepattern
350
185
  3
Flat
350
177
  3
FlatWithEdges
350
178
  3
Gouraud
350
179
  3
GouraudWithEdges
350
17A
  3
Hidden
350
17D
  3
JitterOff
350
187
  3
Linepattern
350
184
  3
OverhangOff
350
188
  3
Realistic
350
17F
  3
Shaded
350
18E
  3
Shaded with edges
350
18D
  3
Shades of Gray
350
18A
  3
Sketchy
350
18B
  3
Thicken
350
183
  3
Wireframe
350
17C
  3
X-Ray
350
18C
  0
XRECORD
  5
1A3
102
{ACAD_REACTORS
330
C
102
}
330
C
100
AcDbXrecord
280
     1
 90
        1
330
192
  0
DICTIONARY
  5
5E
102
{ACAD_REACTORS
330
C
102
}
330
C
100
AcDbDictionary
281
     1
  3
CANNOSCALE
350
A4
  3
CMLEADERSTYLE
350
1A5
  3
CTABLESTYLE
350
1A4
  3
DIMASSOC
350
5F
  3
HIDETEXT
350
63
  3
MSLTSCALE
350
1A6
  3
XCLIPFRAME
350
1A7
  0
DICTIONARY
  5
194
102
{ACAD_REACTORS
330
C
102
}
330
C
100
AcDbDictionary
281
     1
  0
DICTIONARY
  5
196
102
{ACAD_REACTORS
330
195
102
}
330
195
100
AcDbDictionary
281
     1
  0
DICTIONARY
  5
19D
102
{ACAD_REACTORS
330
195
102
}
330
195
100
AcDbDictionary
281
     1
1001
ACAD
1000
<All
  0
LAYOUT
  5
51
102
{ACAD_REACTORS
330
1A
102
}
330
1A
100
AcDbPlotSettings
  1

  2
None
  4

  6

 40
0.0
 41
0.0
 42
0.0
 43
0.0
 44
0.0
 45
0.0
 46
0.0
 47
0.0
 48
0.0
 49
0.0
140
0.0
141
0.0
142
1.0
143
1.0
 70
   688
 72
     0
 73
     0
 74
     5
  7

 75
    16
 76
     0
 77
     2
 78
   300
147
1.0
148
0.0
149
0.0
100
AcDbLayout
  1
Layout1
 70
     1
 71
     1
 10
0.0
 20
0.0
 11
12.0
 21
9.0
 12
0.0
 22
0.0
 32
0.0
 14
0.0
 24
0.0
 34
0.0
 15
0.0
 25
0.0
 35
0.0
146
0.0
 13
0.0
 23
0.0
 33
0.0
 16
1.0
 26
0.0
 36
0.0
 17
0.0
 27
1.0
 37
0.0
 76
     0
330
50
  0
LAYOUT
  5
56
102
{ACAD_REACTORS
330
1A
102
}
330
1A
100
AcDbPlotSettings
  1

  2
None
  4

  6

 40
0.0
 41
0.0
 42
0.0
 43
0.0
 44
0.0
 45
0.0
 46
0.0
 47
0.0
 48
0.0
 49
0.0
140
0.0
141
0.0
142
1.0
143
1.0
 70
   688
 72
     0
 73
     0
 74
     5
  7

 75
    16
 76
     0
 77
     2
 78
   300
147
1.0
148
0.0
149
0.0
100
AcDbLayout
  1
Layout2
 70
     1
 71
     2
 10
0.0
 20
0.0
 11
12.0
 21
9.0
 12
0.0
 22
0.0
 32
0.0
 14
0.0
 24
0.0
 34
0.0
 15
0.0
 25
0.0
 35
0.0
146
0.0
 13
0.0
 23
0.0
 33
0.0
 16
1.0
 26
0.0
 36
0.0
 17
0.0
 27
1.0
 37
0.0
 76
     0
330
55
  0
LAYOUT
  5
22
102
{ACAD_REACTORS
330
1A
102
}
330
1A
100
AcDbPlotSettings
  1

  2
none_device
  4
ANSI_A_(8.50_x_11.00_Inches)
  6

 40
6.349999904632568
 41
19.04999923706055
 42
6.350006103515625
 43
19.04998779296875
 44
215.8999938964844
 45
279.3999938964844
 46
0.0
 47
0.0
 48
0.0
 49
0.0
140
0.0
141
0.0
142
1.0
143
78.436453180766
 70
 11952
 72
     0
 73
     1
 74
     0
  7

 75
     0
 76
     0
 77
     2
 78
   300
147
0.0127491741332998
148
0.0
149
0.0
100
AcDbLayout
  1
Model
 70
     1
 71
     0
 10
0.0
 20
0.0
 11
12.0
 21
9.0
 12
0.0
 22
0.0
 32
0.0
 14
518939.0898500018
 24
4397763.116748122
 34
487.7000122070312
 15
518968.1440924852
 25
4397784.354152727
 35
507.0979400264933
146
0.0
 13
0.0
 23
0.0
 33
0.0
 16
1.0
 26
0.0
 36
0.0
 17
0.0
 27
1.0
 37
0.0
 76
     0
330
1F
331
81
  0
MATERIAL
  5
190
102
{ACAD_REACTORS
330
6A
102
}
330
6A
100
AcDbMaterial
  1
ByBlock
 72
     1
 94
      127
  0
MATERIAL
  5
18F
102
{ACAD_REACTORS
330
6A
102
}
330
6A
100
AcDbMaterial
  1
ByLayer
 72
     1
 94
      127
  0
MATERIAL
  5
191
102
{ACAD_REACTORS
330
6A
102
}
330
6A
100
AcDbMaterial
  1
Global
 72
     1
 94
      127
  0
MLEADERSTYLE
  5
193
102
{ACAD_REACTORS
330
A6
102
}
330
A6
100
AcDbMLeaderStyle
179
     2
170
     2
171
     1
172
     0
 90
        2
 40
0.0
 41
0.0
173
     1
 91
-1056964608
340
14
 92
       -2
290
     1
 42
2.0
291
     1
 43
8.0
  3
Standard
341
0
 44
4.0
300

342
11
174
     1
178
     1
175
     1
176
     0
 93
-1056964608
 45
4.0
292
     0
297
     0
 46
4.0
343
0
 94
-1056964608
 47
1.0
 49
1.0
140
1.0
293
     1
141
0.0
294
     1
177
     0
142
1.0
295
     0
296
     0
143
3.75
271
     0
272
     9
273
     9
  0
MLINESTYLE
  5
18
102
{ACAD_REACTORS
330
17
102
}
330
17
100
AcDbMlineStyle
  2
STANDARD
 70
     0
  3

 62
   256
 51
90.0
 52
90.0
 71
     2
 49
0.5
 62
   256
  6
BYLAYER
 49
-0.5
 62
   256
  6
BYLAYER
  0
ACDBPLACEHOLDER
  5
F
102
{ACAD_REACTORS
330
E
102
}
330
E
  0
SCALE
  5
83
102
{ACAD_REACTORS
330
82
102
}
330
82
100
AcDbScale
 70
     0
300
1:1
140
1.0
141
1.0
290
     1
  0
SCALE
  5
84
102
{ACAD_REACTORS
330
82
102
}
330
82
100
AcDbScale
 70
     0
300
1:2
140
1.0
141
2.0
290
     0
  0
SCALE
  5
85
102
{ACAD_REACTORS
330
82
102
}
330
82
100
AcDbScale
 70
     0
300
1:4
140
1.0
141
4.0
290
     0
  0
SCALE
  5
86
102
{ACAD_REACTORS
330
82
102
}
330
82
100
AcDbScale
 70
     0
300
1:5
140
1.0
141
5.0
290
     0
  0
SCALE
  5
87
102
{ACAD_REACTORS
330
82
102
}
330
82
100
AcDbScale
 70
     0
300
1:8
140
1.0
141
8.0
290
     0
  0
SCALE
  5
88
102
{ACAD_REACTORS
330
82
102
}
330
82
100
AcDbScale
 70
     0
300
1:10
140
1.0
141
10.0
290
     0
  0
SCALE
  5
89
102
{ACAD_REACTORS
330
82
102
}
330
82
100
AcDbScale
 70
     0
300
1:16
140
1.0
141
16.0
290
     0
  0
SCALE
  5
8A
102
{ACAD_REACTORS
330
82
102
}
330
82
100
AcDbScale
 70
     0
300
1:20
140
1.0
141
20.0
290
     0
  0
SCALE
  5
8B
102
{ACAD_REACTORS
330
82
102
}
330
82
100
AcDbScale
 70
     0
300
1:30
140
1.0
141
30.0
290
     0
  0
SCALE
  5
8C
102
{ACAD_REACTORS
330
82
102
}
330
82
100
AcDbScale
 70
     0
300
1:40
140
1.0
141
40.0
290
     0
  0
SCALE
  5
8D
102
{ACAD_REACTORS
330
82
102
}
330
82
100
AcDbScale
 70
     0
300
1:50
140
1.0
141
50.0
290
     0
  0
SCALE
  5
8E
102
{ACAD_REACTORS
330
82
102
}
330
82
100
AcDbScale
 70
     0
300
1:100
140
1.0
141
100.0
290
     0
  0
SCALE
  5
8F
102
{ACAD_REACTORS
330
82
102
}
330
82
100
AcDbScale
 70
     0
300
2:1
140
2.0
141
1.0
290
     0
  0
SCALE
  5
90
102
{ACAD_REACTORS
330
82
102
}
330
82
100
AcDbScale
 70
     0
300
4:1
140
4.0
141
1.0
290
     0
  0
SCALE
  5
91
102
{ACAD_REACTORS
330
82
102
}
330
82
100
AcDbScale
 70
     0
300
8:1
140
8.0
141
1.0
290
     0
  0
SCALE
  5
92
102
{ACAD_REACTORS
330
82
102
}
330
82
100
AcDbScale
 70
     0
300
10:1
140
10.0
141
1.0
290
     0
  0
SCALE
  5
93
102
{ACAD_REACTORS
330
82
102
}
330
82
100
AcDbScale
 70
     0
300
100:1
140
100.0
141
1.0
290
     0
  0
SCALE
  5
94
102
{ACAD_REACTORS
330
82
102
}
330
82
100
AcDbScale
 70
     0
300
1/128" = 1'-0"
140
0.0078125
141
12.0
290
     0
  0
SCALE
  5
95
102
{ACAD_REACTORS
330
82
102
}
330
82
100
AcDbScale
 70
     0
300
1/64" = 1'-0"
140
0.015625
141
12.0
290
     0
  0
SCALE
  5
96
102
{ACAD_REACTORS
330
82
102
}
330
82
100
AcDbScale
 70
     0
300
1/32" = 1'-0"
140
0.03125
141
12.0
290
     0
  0
SCALE
  5
97
102
{ACAD_REACTORS
330
82
102
}
330
82
100
AcDbScale
 70
     0
300
1/16" = 1'-0"
140
0.0625
141
12.0
290
     0
  0
SCALE
  5
98
102
{ACAD_REACTORS
330
82
102
}
330
82
100
AcDbScale
 70
     0
300
3/32" = 1'-0"
140
0.09375
141
12.0
290
     0
  0
SCALE
  5
99
102
{ACAD_REACTORS
330
82
102
}
330
82
100
AcDbScale
 70
     0
300
1/8" = 1'-0"
140
0.125
141
12.0
290
     0
  0
SCALE
  5
9A
102
{ACAD_REACTORS
330
82
102
}
330
82
100
AcDbScale
 70
     0
300
3/16" = 1'-0"
140
0.1875
141
12.0
290
     0
  0
SCALE
  5
9B
102
{ACAD_REACTORS
330
82
102
}
330
82
100
AcDbScale
 70
     0
300
1/4" = 1'-0"
140
0.25
141
12.0
290
     0
  0
SCALE
  5
9C
102
{ACAD_REACTORS
330
82
102
}
330
82
100
AcDbScale
 70
     0
300
3/8" = 1'-0"
140
0.375
141
12.0
290
     0
  0
SCALE
  5
9D
102
{ACAD_REACTORS
330
82
102
}
330
82
100
AcDbScale
 70
     0
300
1/2" = 1'-0"
140
0.5
141
12.0
290
     0
  0
SCALE
  5
9E
102
{ACAD_REACTORS
330
82
102
}
330
82
100
AcDbScale
 70
     0
300
3/4" = 1'-0"
140
0.75
141
12.0
290
     0
  0
SCALE
  5
9F
102
{ACAD_REACTORS
330
82
102
}
330
82
100
AcDbScale
 70
     0
300
1" = 1'-0"
140
1.0
141
12.0
290
     0
  0
SCALE
  5
A0
102
{ACAD_REACTORS
330
82
102
}
330
82
100
AcDbScale
 70
     0
300
1-1/2" = 1'-0"
140
1.5
141
12.0
290
     0
  0
SCALE
  5
A1
102
{ACAD_REACTORS
330
82
102
}
330
82
100
AcDbScale
 70
     0
300
3" = 1'-0"
140
3.0
141
12.0
290
     0
  0
SCALE
  5
A2
102
{ACAD_REACTORS
330
82
102
}
330
82
100
AcDbScale
 70
     0
300
6" = 1'-0"
140
6.0
141
12.0
290
     0
  0
SCALE
  5
A3
102
{ACAD_REACTORS
330
82
102
}
330
82
100
AcDbScale
 70
     0
300
1'-0" = 1'-0"
140
12.0
141
12.0
290
     0
  0
TABLESTYLE
  5
192
102
{ACAD_REACTORS
330
A5
102
}
102
{ACAD_XDICTIONARY
360
1A1
102
}
330
A5
100
AcDbTableStyle
  3
Standard
 70
     0
 71
     0
 40
0.06
 41
0.06
280
     0
281
     0
  7
Standard
140
4.5
170
     2
 62
     0
 63
   257
283
     0
 90
        4
 91
        0
  1

274
    -2
284
     1
 64
     0
275
    -2
285
     1
 65
     0
276
    -2
286
     1
 66
     0
277
    -2
287
     1
 67
     0
278
    -2
288
     1
 68
     0
279
    -2
289
     1
 69
     0
  7
Standard
140
6.0
170
     5
 62
     0
 63
   257
283
     0
 90
        4
 91
        0
  1

274
    -2
284
     1
 64
     0
275
    -2
285
     1
 65
     0
276
    -2
286
     1
 66
     0
277
    -2
287
     1
 67
     0
278
    -2
288
     1
 68
     0
279
    -2
289
     1
 69
     0
  7
Standard
140
4.5
170
     5
 62
     0
 63
   257
283
     0
 90
        4
 91
        0
  1

274
    -2
284
     1
 64
     0
275
    -2
285
     1
 65
     0
276
    -2
286
     1
 66
     0
277
    -2
287
     1
 67
     0
278
    -2
288
     1
 68
     0
279
    -2
289
     1
 69
     0
  0
VISUALSTYLE
  5
17B
102
{ACAD_REACTORS
330
176
102
}
330
176
100
AcDbVisualStyle
  2
2dWireframe
 70
     4
177
     2
291
     0
 71
     0
176
     1
 72
     2
176
     1
 73
     0
176
     1
 90
        0
176
     1
 40
0.6
176
     1
 41
30.0
176
     1
 62
     5
 63
     7
421
 16777215
176
     1
 74
     1
176
     1
 91
        4
176
     1
 64
     7
176
     1
 65
   257
176
     1
 75
     1
176
     1
175
     1
176
     1
 42
1.0
176
     1
 92
        0
176
     1
 66
   257
176
     1
 43
1.0
176
     1
 76
     1
176
     1
 77
     6
176
     1
 78
     2
176
     1
 67
     7
176
     1
 79
     5
176
     1
170
     0
176
     1
171
     0
176
     1
290
     0
176
     1
 93
        1
176
     1
 44
0.0
176
     1
173
     0
176
     1
  0
VISUALSTYLE
  5
17E
102
{ACAD_REACTORS
330
176
102
}
330
176
100
AcDbVisualStyle
  2
Basic
 70
     7
177
     2
291
     1
 71
     1
176
     1
 72
     0
176
     1
 73
     1
176
     1
 90
        0
176
     1
 40
0.6
176
     1
 41
30.0
176
     1
 62
     5
 63
     7
421
 16777215
176
     1
 74
     0
176
     1
 91
        4
176
     1
 64
     7
176
     1
 65
   257
176
     1
 75
     1
176
     1
175
     1
176
     1
 42
1.0
176
     1
 92
        8
176
     1
 66
     7
176
     1
 43
1.0
176
     1
 76
     1
176
     1
 77
     6
176
     1
 78
     2
176
     1
 67
     7
176
     1
 79
     5
176
     1
170
     0
176
     1
171
     0
176
     1
290
     0
176
     1
 93
        1
176
     1
 44
0.0
176
     1
173
     0
176
     1
  0
VISUALSTYLE
  5
182
102
{ACAD_REACTORS
330
176
102
}
330
176
100
AcDbVisualStyle
  2
Brighten
 70
    12
177
     2
291
     1
 71
     2
176
     1
 72
     2
176
     1
 73
     0
176
     1
 90
        0
176
     1
 40
0.6
176
     1
 41
30.0
176
     1
 62
     5
 63
     7
421
 16777215
176
     1
 74
     1
176
     1
 91
        4
176
     1
 64
     7
176
     1
 65
   257
176
     1
 75
     1
176
     1
175
     1
176
     1
 42
1.0
176
     1
 92
        8
176
     1
 66
     7
176
     1
 43
1.0
176
     1
 76
     1
176
     1
 77
     6
176
     1
 78
     2
176
     1
 67
     7
176
     1
 79
     5
176
     1
170
     0
176
     1
171
     0
176
     1
290
     0
176
     1
 93
        1
176
     1
 44
50.0
176
     1
173
     0
176
     1
  0
VISUALSTYLE
  5
186
102
{ACAD_REACTORS
330
176
102
}
330
176
100
AcDbVisualStyle
  2
ColorChange
 70
    16
177
     2
291
     1
 71
     2
176
     1
 72
     2
176
     1
 73
     3
176
     1
 90
        0
176
     1
 40
0.6
176
     1
 41
30.0
176
     1
 62
     5
 63
     8
421
  8421504
176
     1
 74
     1
176
     1
 91
        4
176
     1
 64
     7
176
     1
 65
   257
176
     1
 75
     1
176
     1
175
     1
176
     1
 42
1.0
176
     1
 92
        8
176
     1
 66
     8
424
  8421504
176
     1
 43
1.0
176
     1
 76
     1
176
     1
 77
     6
176
     1
 78
     2
176
     1
 67
     7
176
     1
 79
     5
176
     1
170
     0
176
     1
171
     0
176
     1
290
     0
176
     1
 93
        1
176
     1
 44
0.0
176
     1
173
     0
176
     1
  0
VISUALSTYLE
  5
180
102
{ACAD_REACTORS
330
176
102
}
330
176
100
AcDbVisualStyle
  2
Conceptual
 70
     9
177
     2
291
     0
 71
     3
176
     1
 72
     2
176
     1
 73
     0
176
     1
 90
        0
176
     1
 40
0.6
176
     1
 41
30.0
176
     1
 62
     5
 63
     7
421
 16777215
176
     1
 74
     2
176
     1
 91
        2
176
     1
 64
     7
176
     1
 65
   257
176
     1
 75
     1
176
     1
175
     1
176
     1
 42
179.0
176
     1
 92
        8
176
     1
 66
     7
176
     1
 43
1.0
176
     1
 76
     1
176
     1
 77
     6
176
     1
 78
     2
176
     1
 67
     7
176
     1
 79
     3
176
     1
170
     0
176
     1
171
     0
176
     1
290
     0
176
     1
 93
        1
176
     1
 44
0.0
176
     1
173
     0
176
     1
  0
VISUALSTYLE
  5
181
102
{ACAD_REACTORS
330
176
102
}
330
176
100
AcDbVisualStyle
  2
Dim
 70
    11
177
     2
291
     1
 71
     2
176
     1
 72
     2
176
     1
 73
     0
176
     1
 90
        0
176
     1
 40
0.6
176
     1
 41
30.0
176
     1
 62
     5
 63
     7
421
 16777215
176
     1
 74
     1
176
     1
 91
        4
176
     1
 64
     7
176
     1
 65
   257
176
     1
 75
     1
176
     1
175
     1
176
     1
 42
1.0
176
     1
 92
        8
176
     1
 66
     7
176
     1
 43
1.0
176
     1
 76
     1
176
     1
 77
     6
176
     1
 78
     2
176
     1
 67
     7
176
     1
 79
     5
176
     1
170
     0
176
     1
171
     0
176
     1
290
     0
176
     1
 93
        1
176
     1
 44
-50.0
176
     1
173
     0
176
     1
  0
VISUALSTYLE
  5
189
102
{ACAD_REACTORS
330
176
102
}
330
176
100
AcDbVisualStyle
  2
EdgeColorOff
 70
    22
177
     2
291
     1
 71
     2
176
     0
 72
     2
176
     0
 73
     0
176
     0
 90
        0
176
     0
 40
0.6
176
     0
 41
30.0
176
     0
 62
     5
 63
     7
421
 16777215
176
     0
 74
     1
176
     0
 91
        4
176
     0
 64
     7
176
     0
 65
   257
176
     0
 75
     1
176
     0
175
     1
176
     0
 42
1.0
176
     0
 92
        8
176
     2
 66
     7
176
     0
 43
1.0
176
     0
 76
     1
176
     0
 77
     6
176
     0
 78
     2
176
     0
 67
     7
176
     0
 79
     5
176
     0
170
     0
176
     0
171
     0
176
     0
290
     0
176
     0
 93
        1
176
     0
 44
0.0
176
     0
173
     0
176
     0
  0
VISUALSTYLE
  5
185
102
{ACAD_REACTORS
330
176
102
}
330
176
100
AcDbVisualStyle
  2
Facepattern
 70
    15
177
     2
291
     1
 71
     2
176
     1
 72
     2
176
     1
 73
     0
176
     1
 90
        0
176
     1
 40
0.6
176
     1
 41
30.0
176
     1
 62
     5
 63
     7
421
 16777215
176
     1
 74
     1
176
     1
 91
        4
176
     1
 64
     7
176
     1
 65
   257
176
     1
 75
     1
176
     1
175
     1
176
     1
 42
1.0
176
     1
 92
        8
176
     1
 66
     7
176
     1
 43
1.0
176
     1
 76
     1
176
     1
 77
     6
176
     1
 78
     2
176
     1
 67
     7
176
     1
 79
     5
176
     1
170
     0
176
     1
171
     0
176
     1
290
     0
176
     1
 93
        1
176
     1
 44
0.0
176
     1
173
     0
176
     1
  0
VISUALSTYLE
  5
177
102
{ACAD_REACTORS
330
176
102
}
330
176
100
AcDbVisualStyle
  2
Flat
 70
     0
177
     2
291
     1
 71
     2
176
     1
 72
     1
176
     1
 73
     1
176
     1
 90
        2
176
     1
 40
0.6
176
     1
 41
30.0
176
     1
 62
     5
 63
     7
421
 16777215
176
     1
 74
     0
176
     1
 91
        0
176
     1
 64
     7
176
     1
 65
   257
176
     1
 75
     1
176
     1
175
     1
176
     1
 42
1.0
176
     1
 92
        8
176
     1
 66
     7
176
     1
 43
1.0
176
     1
 76
     1
176
     1
 77
     6
176
     1
 78
     2
176
     1
 67
     7
176
     1
 79
     5
176
     1
170
     0
176
     1
171
     0
176
     1
290
     0
176
     1
 93
       13
176
     1
 44
0.0
176
     1
173
     0
176
     1
  0
VISUALSTYLE
  5
178
102
{ACAD_REACTORS
330
176
102
}
330
176
100
AcDbVisualStyle
  2
FlatWithEdges
 70
     1
177
     2
291
     1
 71
     2
176
     1
 72
     1
176
     1
 73
     1
176
     1
 90
        2
176
     1
 40
0.6
176
     1
 41
30.0
176
     1
 62
     5
 63
     7
421
 16777215
176
     1
 74
     1
176
     1
 91
        0
176
     1
 64
     7
176
     1
 65
   257
176
     1
 75
     1
176
     1
175
     1
176
     1
 42
1.0
176
     1
 92
        0
176
     1
 66
   257
176
     1
 43
1.0
176
     1
 76
     1
176
     1
 77
     6
176
     1
 78
     2
176
     1
 67
     7
176
     1
 79
     5
176
     1
170
     0
176
     1
171
     0
176
     1
290
     0
176
     1
 93
       13
176
     1
 44
0.0
176
     1
173
     0
176
     1
  0
VISUALSTYLE
  5
179
102
{ACAD_REACTORS
330
176
102
}
330
176
100
AcDbVisualStyle
  2
Gouraud
 70
     2
177
     2
291
     1
 71
     2
176
     1
 72
     2
176
     1
 73
     1
176
     1
 90
        2
176
     1
 40
0.6
176
     1
 41
30.0
176
     1
 62
     5
 63
     7
421
 16777215
176
     1
 74
     0
176
     1
 91
        0
176
     1
 64
     7
176
     1
 65
   257
176
     1
 75
     1
176
     1
175
     1
176
     1
 42
1.0
176
     1
 92
        0
176
     1
 66
     7
176
     1
 43
1.0
176
     1
 76
     1
176
     1
 77
     6
176
     1
 78
     2
176
     1
 67
     7
176
     1
 79
     5
176
     1
170
     0
176
     1
171
     0
176
     1
290
     0
176
     1
 93
       13
176
     1
 44
0.0
176
     1
173
     0
176
     1
  0
VISUALSTYLE
  5
17A
102
{ACAD_REACTORS
330
176
102
}
330
176
100
AcDbVisualStyle
  2
GouraudWithEdges
 70
     3
177
     2
291
     1
 71
     2
176
     1
 72
     2
176
     1
 73
     1
176
     1
 90
        2
176
     1
 40
0.6
176
     1
 41
30.0
176
     1
 62
     5
 63
     7
421
 16777215
176
     1
 74
     1
176
     1
 91
        0
176
     1
 64
     7
176
     1
 65
   257
176
     1
 75
     1
176
     1
175
     1
176
     1
 42
1.0
176
     1
 92
        0
176
     1
 66
   257
176
     1
 43
1.0
176
     1
 76
     1
176
     1
 77
     6
176
     1
 78
     2
176
     1
 67
     7
176
     1
 79
     5
176
     1
170
     0
176
     1
171
     0
176
     1
290
     0
176
     1
 93
       13
176
     1
 44
0.0
176
     1
173
     0
176
     1
  0
VISUALSTYLE
  5
17D
102
{ACAD_REACTORS
330
176
102
}
330
176
100
AcDbVisualStyle
  2
Hidden
 70
     6
177
     2
291
     0
 71
     1
176
     1
 72
     2
176
     1
 73
     2
176
     1
 90
        0
176
     1
 40
0.6
176
     1
 41
30.0
176
     1
 62
     5
 63
     7
421
 16777215
176
     1
 74
     2
176
     1
 91
        2
176
     1
 64
     7
176
     1
 65
   257
176
     1
 75
     2
176
     1
175
     1
176
     1
 42
40.0
176
     1
 92
        0
176
     1
 66
   257
176
     1
 43
1.0
176
     1
 76
     1
176
     1
 77
     6
176
     1
 78
     2
176
     1
 67
     7
176
     1
 79
     3
176
     1
170
     0
176
     1
171
     0
176
     1
290
     0
176
     1
 93
        1
176
     1
 44
0.0
176
     1
173
     0
176
     1
  0
VISUALSTYLE
  5
187
102
{ACAD_REACTORS
330
176
102
}
330
176
100
AcDbVisualStyle
  2
JitterOff
 70
    20
177
     2
291
     1
 71
     2
176
     0
 72
     2
176
     0
 73
     0
176
     0
 90
        0
176
     0
 40
0.6
176
     0
 41
30.0
176
     0
 62
     5
 63
     7
421
 16777215
176
     0
 74
     1
176
     0
 91
        4
176
     0
 64
     7
176
     0
 65
   257
176
     0
 75
     1
176
     0
175
     1
176
     0
 42
1.0
176
     0
 92
       10
176
     2
 66
     7
176
     0
 43
1.0
176
     0
 76
     1
176
     0
 77
     6
176
     0
 78
     2
176
     0
 67
     7
176
     0
 79
     5
176
     0
170
     0
176
     0
171
     0
176
     0
290
     0
176
     0
 93
        1
176
     0
 44
0.0
176
     0
173
     0
176
     0
  0
VISUALSTYLE
  5
184
102
{ACAD_REACTORS
330
176
102
}
330
176
100
AcDbVisualStyle
  2
Linepattern
 70
    14
177
     2
291
     1
 71
     2
176
     1
 72
     2
176
     1
 73
     0
176
     1
 90
        0
176
     1
 40
0.6
176
     1
 41
30.0
176
     1
 62
     5
 63
     7
421
 16777215
176
     1
 74
     1
176
     1
 91
        4
176
     1
 64
     7
176
     1
 65
   257
176
     1
 75
     7
176
     1
175
     7
176
     1
 42
1.0
176
     1
 92
        8
176
     1
 66
     7
176
     1
 43
1.0
176
     1
 76
     1
176
     1
 77
     6
176
     1
 78
     2
176
     1
 67
     7
176
     1
 79
     5
176
     1
170
     0
176
     1
171
     0
176
     1
290
     0
176
     1
 93
        1
176
     1
 44
0.0
176
     1
173
     0
176
     1
  0
VISUALSTYLE
  5
188
102
{ACAD_REACTORS
330
176
102
}
330
176
100
AcDbVisualStyle
  2
OverhangOff
 70
    21
177
     2
291
     1
 71
     2
176
     0
 72
     2
176
     0
 73
     0
176
     0
 90
        0
176
     0
 40
0.6
176
     0
 41
30.0
176
     0
 62
     5
 63
     7
421
 16777215
176
     0
 74
     1
176
     0
 91
        4
176
     0
 64
     7
176
     0
 65
   257
176
     0
 75
     1
176
     0
175
     1
176
     0
 42
1.0
176
     0
 92
        9
176
     2
 66
     7
176
     0
 43
1.0
176
     0
 76
     1
176
     0
 77
     6
176
     0
 78
     2
176
     0
 67
     7
176
     0
 79
     5
176
     0
170
     0
176
     0
171
     0
176
     0
290
     0
176
     0
 93
        1
176
     0
 44
0.0
176
     0
173
     0
176
     0
  0
VISUALSTYLE
  5
17F
102
{ACAD_REACTORS
330
176
102
}
330
176
100
AcDbVisualStyle
  2
Realistic
 70
     8
177
     2
291
     0
 71
     2
176
     1
 72
     3
176
     1
 73
     0
176
     1
 90
        2
176
     1
 40
0.6
176
     1
 41
30.0
176
     1
 62
     5
 63
     7
421
 16777215
176
     1
 74
     0
176
     1
 91
        0
176
     1
 64
     7
176
     1
 65
   257
176
     1
 75
     1
176
     1
175
     1
176
     1
 42
1.0
176
     1
 92
        8
176
     1
 66
   257
176
     1
 43
1.0
176
     1
 76
     1
176
     1
 77
     6
176
     1
 78
     2
176
     1
 67
     7
176
     1
 79
     3
176
     1
170
     0
176
     1
171
     0
176
     1
290
     0
176
     1
 93
       13
176
     1
 44
0.0
176
     1
173
     0
176
     1
  0
VISUALSTYLE
  5
18E
102
{ACAD_REACTORS
330
176
102
}
330
176
100
AcDbVisualStyle
  2
Shaded
 70
    27
177
     2
291
     0
 71
     2
176
     1
 72
     2
176
     1
 73
     1
176
     1
 90
        2
176
     1
 40
0.6
176
     1
 41
30.0
176
     1
 62
     5
 63
     7
421
 16777215
176
     1
 74
     0
176
     1
 91
        4
176
     1
 64
     7
176
     1
 65
   257
176
     1
 75
     1
176
     1
175
     1
176
     1
 42
1.0
176
     1
 92
        8
176
     1
 66
   257
176
     1
 43
1.0
176
     1
 76
     1
176
     1
 77
     6
176
     1
 78
     2
176
     1
 67
     8
425
  7895160
176
     1
 79
     3
176
     1
170
     0
176
     1
171
     0
176
     1
290
     0
176
     1
 93
        5
176
     1
 44
0.0
176
     1
173
     0
176
     1
  0
VISUALSTYLE
  5
18D
102
{ACAD_REACTORS
330
176
102
}
330
176
100
AcDbVisualStyle
  2
Shaded with edges
 70
    26
177
     2
291
     0
 71
     2
176
     1
 72
     2
176
     1
 73
     1
176
     1
 90
        2
176
     1
 40
0.6
176
     1
 41
30.0
176
     1
 62
     5
 63
     7
421
 16777215
176
     1
 74
     1
176
     1
 91
       10
176
     1
 64
     7
176
     1
 65
   257
176
     1
 75
     2
176
     1
175
     1
176
     1
 42
1.0
176
     1
 92
        8
176
     1
 66
   257
176
     1
 43
1.0
176
     1
 76
     1
176
     1
 77
     6
176
     1
 78
     2
176
     1
 67
     7
176
     1
 79
     3
176
     1
170
     0
176
     1
171
     0
176
     1
290
     0
176
     1
 93
        5
176
     1
 44
0.0
176
     1
173
     0
176
     1
  0
VISUALSTYLE
  5
18A
102
{ACAD_REACTORS
330
176
102
}
330
176
100
AcDbVisualStyle
  2
Shades of Gray
 70
    23
177
     2
291
     0
 71
     2
176
     1
 72
     2
176
     1
 73
     3
176
     1
 90
        0
176
     1
 40
0.6
176
     1
 41
30.0
176
     1
 62
     5
 63
     7
421
 16777215
176
     1
 74
     2
176
     1
 91
        2
176
     1
 64
     7
176
     1
 65
     7
176
     1
 75
     1
176
     1
175
     1
176
     1
 42
40.0
176
     1
 92
        8
176
     1
 66
     7
176
     1
 43
1.0
176
     1
 76
     1
176
     1
 77
     6
176
     1
 78
     2
176
     1
 67
     7
176
     1
 79
     3
176
     1
170
     0
176
     1
171
     0
176
     1
290
     0
176
     1
 93
        1
176
     1
 44
0.0
176
     1
173
     0
176
     1
  0
VISUALSTYLE
  5
18B
102
{ACAD_REACTORS
330
176
102
}
330
176
100
AcDbVisualStyle
  2
Sketchy
 70
    24
177
     2
291
     0
 71
     1
176
     1
 72
     2
176
     1
 73
     2
176
     1
 90
        0
176
     1
 40
0.6
176
     1
 41
30.0
176
     1
 62
     5
 63
     7
421
 16777215
176
     1
 74
     2
176
     1
 91
        2
176
     1
 64
     7
176
     1
 65
     7
176
     1
 75
     1
176
     1
175
     1
176
     1
 42
40.0
176
     1
 92
       11
176
     1
 66
     7
176
     1
 43
1.0
176
     1
 76
     1
176
     1
 77
     6
176
     1
 78
     2
176
     1
 67
     7
176
     1
 79
     6
176
     1
170
     0
176
     1
171
     0
176
     1
290
     0
176
     1
 93
        1
176
     1
 44
0.0
176
     1
173
     0
176
     1
  0
VISUALSTYLE
  5
183
102
{ACAD_REACTORS
330
176
102
}
330
176
100
AcDbVisualStyle
  2
Thicken
 70
    13
177
     2
291
     1
 71
     2
176
     1
 72
     2
176
     1
 73
     0
176
     1
 90
        0
176
     1
 40
0.6
176
     1
 41
30.0
176
     1
 62
     5
 63
     7
421
 16777215
176
     1
 74
     1
176
     1
 91
        4
176
     1
 64
     7
176
     1
 65
   257
176
     1
 75
     1
176
     1
175
     1
176
     1
 42
1.0
176
     1
 92
       12
176
     1
 66
     7
176
     1
 43
1.0
176
     1
 76
     1
176
     1
 77
     6
176
     1
 78
     2
176
     1
 67
     7
176
     1
 79
     5
176
     1
170
     0
176
     1
171
     0
176
     1
290
     0
176
     1
 93
        1
176
     1
 44
0.0
176
     1
173
     0
176
     1
  0
VISUALSTYLE
  5
17C
102
{ACAD_REACTORS
330
176
102
}
330
176
100
AcDbVisualStyle
  2
Wireframe
 70
     5
177
     2
291
     0
 71
     0
176
     1
 72
     2
176
     1
 73
     0
176
     1
 90
        0
176
     1
 40
0.6
176
     1
 41
30.0
176
     1
 62
     5
 63
     7
421
 16777215
176
     1
 74
     1
176
     1
 91
        4
176
     1
 64
     7
176
     1
 65
   257
176
     1
 75
     1
176
     1
175
     1
176
     1
 42
1.0
176
     1
 92
        0
176
     1
 66
   257
176
     1
 43
1.0
176
     1
 76
     1
176
     1
 77
     6
176
     1
 78
     2
176
     1
 67
     7
176
     1
 79
     3
176
     1
170
     0
176
     1
171
     0
176
     1
290
     0
176
     1
 93
        1
176
     1
 44
0.0
176
     1
173
     0
176
     1
  0
VISUALSTYLE
  5
18C
102
{ACAD_REACTORS
330
176
102
}
330
176
100
AcDbVisualStyle
  2
X-Ray
 70
    25
177
     2
291
     0
 71
     2
176
     1
 72
     2
176
     1
 73
     1
176
     1
 90
        1
176
     1
 40
0.5
176
     1
 41
30.0
176
     1
 62
     5
 63
     7
421
 16777215
176
     1
 74
     1
176
     1
 91
        0
176
     1
 64
     7
176
     1
 65
   257
176
     1
 75
     1
176
     1
175
     1
176
     1
 42
1.0
176
     1
 92
        8
176
     1
 66
     7
176
     1
 43
1.0
176
     1
 76
     1
176
     1
 77
     6
176
     1
 78
     2
176
     1
 67
     7
176
     1
 79
     3
176
     1
170
     0
176
     1
171
     0
176
     1
290
     0
176
     1
 93
       13
176
     1
 44
0.0
176
     1
173
     0
176
     1
  0
DICTIONARYVAR
  5
A4
102
{ACAD_REACTORS
330
5E
102
}
330
5E
100
DictionaryVariables
280
     0
  1
1:1
  0
DICTIONARYVAR
  5
1A5
102
{ACAD_REACTORS
330
5E
102
}
330
5E
100
DictionaryVariables
280
     0
  1
Standard
  0
DICTIONARYVAR
  5
1A4
102
{ACAD_REACTORS
330
5E
102
}
330
5E
100
DictionaryVariables
280
     0
  1
Standard
  0
DICTIONARYVAR
  5
5F
102
{ACAD_REACTORS
330
5E
102
}
330
5E
100
DictionaryVariables
280
     0
  1
2
  0
DICTIONARYVAR
  5
63
102
{ACAD_REACTORS
330
5E
102
}
330
5E
100
DictionaryVariables
280
     0
  1
1
  0
DICTIONARYVAR
  5
1A6
102
{ACAD_REACTORS
330
5E
102
}
330
5E
100
DictionaryVariables
280
     0
  1
0
  0
DICTIONARYVAR
  5
1A7
102
{ACAD_REACTORS
330
5E
102
}
330
5E
100
DictionaryVariables
280
     0
  1
0
  0
DICTIONARY
  5
1A1
330
192
100
AcDbDictionary
280
     1
281
     1
  3
ACAD_ROUNDTRIP_2008_TABLESTYLE_CELLSTYLEMAP
360
1A2
  0
CELLSTYLEMAP
  5
1A2
102
{ACAD_REACTORS
330
1A1
102
}
330
1A1
100
AcDbCellStyleMap
 90
        3
300
CELLSTYLE
  1
TABLEFORMAT_BEGIN
 90
        5
170
     1
 91
        0
 92
    32768
 62
   257
 93
        1
300
CONTENTFORMAT
  1
CONTENTFORMAT_BEGIN
 90
        0
 91
        0
 92
        4
 93
        0
300

 40
0.0
140
1.0
 94
        5
 62
     0
340
11
144
6.0
309
CONTENTFORMAT_END
171
     1
301
MARGIN
  1
CELLMARGIN_BEGIN
 40
1.5
 40
1.5
 40
1.5
 40
1.5
 40
1.5
 40
1.5
309
CELLMARGIN_END
 94
        6
 95
        1
302
GRIDFORMAT
  1
GRIDFORMAT_BEGIN
 90
        0
 91
        1
 62
     0
 92
       -2
340
14
 93
        0
 40
0.045
309
GRIDFORMAT_END
 95
        2
302
GRIDFORMAT
  1
GRIDFORMAT_BEGIN
 90
        0
 91
        1
 62
     0
 92
       -2
340
14
 93
        0
 40
0.045
309
GRIDFORMAT_END
 95
        4
302
GRIDFORMAT
  1
GRIDFORMAT_BEGIN
 90
        0
 91
        1
 62
     0
 92
       -2
340
14
 93
        0
 40
0.045
309
GRIDFORMAT_END
 95
        8
302
GRIDFORMAT
  1
GRIDFORMAT_BEGIN
 90
        0
 91
        1
 62
     0
 92
       -2
340
14
 93
        0
 40
0.045
309
GRIDFORMAT_END
 95
       16
302
GRIDFORMAT
  1
GRIDFORMAT_BEGIN
 90
        0
 91
        1
 62
     0
 92
       -2
340
14
 93
        0
 40
0.045
309
GRIDFORMAT_END
 95
       32
302
GRIDFORMAT
  1
GRIDFORMAT_BEGIN
 90
        0
 91
        1
 62
     0
 92
       -2
340
14
 93
        0
 40
0.045
309
GRIDFORMAT_END
309
TABLEFORMAT_END
  1
CELLSTYLE_BEGIN
 90
        1
 91
        1
300
_TITLE
309
CELLSTYLE_END
300
CELLSTYLE
  1
TABLEFORMAT_BEGIN
 90
        5
170
     1
 91
        0
 92
        0
 62
   257
 93
        1
300
CONTENTFORMAT
  1
CONTENTFORMAT_BEGIN
 90
        0
 91
        0
 92
        4
 93
        0
300

 40
0.0
140
1.0
 94
        5
 62
     0
340
11
144
4.5
309
CONTENTFORMAT_END
171
     1
301
MARGIN
  1
CELLMARGIN_BEGIN
 40
1.5
 40
1.5
 40
1.5
 40
1.5
 40
1.5
 40
1.5
309
CELLMARGIN_END
 94
        6
 95
        1
302
GRIDFORMAT
  1
GRIDFORMAT_BEGIN
 90
        0
 91
        1
 62
     0
 92
       -2
340
14
 93
        0
 40
0.045
309
GRIDFORMAT_END
 95
        2
302
GRIDFORMAT
  1
GRIDFORMAT_BEGIN
 90
        0
 91
        1
 62
     0
 92
       -2
340
14
 93
        0
 40
0.045
309
GRIDFORMAT_END
 95
        4
302
GRIDFORMAT
  1
GRIDFORMAT_BEGIN
 90
        0
 91
        1
 62
     0
 92
       -2
340
14
 93
        0
 40
0.045
309
GRIDFORMAT_END
 95
        8
302
GRIDFORMAT
  1
GRIDFORMAT_BEGIN
 90
        0
 91
        1
 62
     0
 92
       -2
340
14
 93
        0
 40
0.045
309
GRIDFORMAT_END
 95
       16
302
GRIDFORMAT
  1
GRIDFORMAT_BEGIN
 90
        0
 91
        1
 62
     0
 92
       -2
340
14
 93
        0
 40
0.045
309
GRIDFORMAT_END
 95
       32
302
GRIDFORMAT
  1
GRIDFORMAT_BEGIN
 90
        0
 91
        1
 62
     0
 92
       -2
340
14
 93
        0
 40
0.045
309
GRIDFORMAT_END
309
TABLEFORMAT_END
  1
CELLSTYLE_BEGIN
 90
        2
 91
        1
300
_HEADER
309
CELLSTYLE_END
300
CELLSTYLE
  1
TABLEFORMAT_BEGIN
 90
        5
170
     1
 91
        0
 92
        0
 62
   257
 93
        1
300
CONTENTFORMAT
  1
CONTENTFORMAT_BEGIN
 90
        0
 91
        0
 92
        4
 93
        0
300

 40
0.0
140
1.0
 94
        2
 62
     0
340
11
144
4.5
309
CONTENTFORMAT_END
171
     1
301
MARGIN
  1
CELLMARGIN_BEGIN
 40
1.5
 40
1.5
 40
1.5
 40
1.5
 40
1.5
 40
1.5
309
CELLMARGIN_END
 94
        6
 95
        1
302
GRIDFORMAT
  1
GRIDFORMAT_BEGIN
 90
        0
 91
        1
 62
     0
 92
       -2
340
14
 93
        0
 40
0.045
309
GRIDFORMAT_END
 95
        2
302
GRIDFORMAT
  1
GRIDFORMAT_BEGIN
 90
        0
 91
        1
 62
     0
 92
       -2
340
14
 93
        0
 40
0.045
309
GRIDFORMAT_END
 95
        4
302
GRIDFORMAT
  1
GRIDFORMAT_BEGIN
 90
        0
 91
        1
 62
     0
 92
       -2
340
14
 93
        0
 40
0.045
309
GRIDFORMAT_END
 95
        8
302
GRIDFORMAT
  1
GRIDFORMAT_BEGIN
 90
        0
 91
        1
 62
     0
 92
       -2
340
14
 93
        0
 40
0.045
309
GRIDFORMAT_END
 95
       16
302
GRIDFORMAT
  1
GRIDFORMAT_BEGIN
 90
        0
 91
        1
 62
     0
 92
       -2
340
14
 93
        0
 40
0.045
309
GRIDFORMAT_END
 95
       32
302
GRIDFORMAT
  1
GRIDFORMAT_BEGIN
 90
        0
 91
        1
 62
     0
 92
       -2
340
14
 93
        0
 40
0.045
309
GRIDFORMAT_END
309
TABLEFORMAT_END
  1
CELLSTYLE_BEGIN
 90
        3
 91
        2
300
_DATA
309
CELLSTYLE_END
  0
ENDSEC
  0
EOF
