  0
SECTION
  2
HEADER
  9
$ACADVER
  1
AC1024
  9
$ACADMAINTVER
 70
     6
  9
$DWGCODEPAGE
  3
ANSI_1254
  9
$LASTSAVEDBY
  1
DOZ 3
  9
$INSBASE
 10
0.0
 20
0.0
 30
0.0
  9
$EXTMIN
 10
520798.7390282845
 20
4393944.424299113
 30
349.0599975585938
  9
$EXTMAX
 10
521279.8699500935
 20
4394343.318186788
 30
461.39599609375
  9
$LIMMIN
 10
0.0
 20
0.0
  9
$LIMMAX
 10
420.0
 20
297.0
  9
$ORTHOMODE
 70
     0
  9
$REGENMODE
 70
     1
  9
$FILLMODE
 70
     1
  9
$QTEXTMODE
 70
     0
  9
$MIRRTEXT
 70
     1
  9
$LTSCALE
 40
1.0
  9
$ATTMODE
 70
     1
  9
$TEXTSIZE
 40
2.5
  9
$TRACEWID
 40
1.0
  9
$TEXTSTYLE
  7
Standard
  9
$CLAYER
  8
DOGU_1
  9
$CELTYPE
  6
ByLayer
  9
$CECOLOR
 62
   256
  9
$CELTSCALE
 40
1.0
  9
$DISPSILH
 70
     0
  9
$DIMSCALE
 40
1.0
  9
$DIMASZ
 40
2.5
  9
$DIMEXO
 40
0.625
  9
$DIMDLI
 40
3.75
  9
$DIMRND
 40
0.0
  9
$DIMDLE
 40
0.0
  9
$DIMEXE
 40
1.25
  9
$DIMTP
 40
0.0
  9
$DIMTM
 40
0.0
  9
$DIMTXT
 40
2.5
  9
$DIMCEN
 40
2.5
  9
$DIMTSZ
 40
0.0
  9
$DIMTOL
 70
     0
  9
$DIMLIM
 70
     0
  9
$DIMTIH
 70
     0
  9
$DIMTOH
 70
     0
  9
$DIMSE1
 70
     0
  9
$DIMSE2
 70
     0
  9
$DIMTAD
 70
     1
  9
$DIMZIN
 70
     8
  9
$DIMBLK
  1

  9
$DIMASO
 70
     1
  9
$DIMSHO
 70
     1
  9
$DIMPOST
  1

  9
$DIMAPOST
  1

  9
$DIMALT
 70
     0
  9
$DIMALTD
 70
     3
  9
$DIMALTF
 40
0.03937007874016
  9
$DIMLFAC
 40
1.0
  9
$DIMTOFL
 70
     1
  9
$DIMTVP
 40
0.0
  9
$DIMTIX
 70
     0
  9
$DIMSOXD
 70
     0
  9
$DIMSAH
 70
     0
  9
$DIMBLK1
  1

  9
$DIMBLK2
  1

  9
$DIMSTYLE
  2
ISO-25
  9
$DIMCLRD
 70
     0
  9
$DIMCLRE
 70
     0
  9
$DIMCLRT
 70
     0
  9
$DIMTFAC
 40
1.0
  9
$DIMGAP
 40
0.625
  9
$DIMJUST
 70
     0
  9
$DIMSD1
 70
     0
  9
$DIMSD2
 70
     0
  9
$DIMTOLJ
 70
     0
  9
$DIMTZIN
 70
     8
  9
$DIMALTZ
 70
     0
  9
$DIMALTTZ
 70
     0
  9
$DIMUPT
 70
     0
  9
$DIMDEC
 70
     2
  9
$DIMTDEC
 70
     2
  9
$DIMALTU
 70
     2
  9
$DIMALTTD
 70
     3
  9
$DIMTXSTY
  7
Standard
  9
$DIMAUNIT
 70
     0
  9
$DIMADEC
 70
     0
  9
$DIMALTRND
 40
0.0
  9
$DIMAZIN
 70
     0
  9
$DIMDSEP
 70
    44
  9
$DIMATFIT
 70
     3
  9
$DIMFRAC
 70
     0
  9
$DIMLDRBLK
  1

  9
$DIMLUNIT
 70
     2
  9
$DIMLWD
 70
    -2
  9
$DIMLWE
 70
    -2
  9
$DIMTMOVE
 70
     0
  9
$DIMFXL
 40
1.0
  9
$DIMFXLON
 70
     0
  9
$DIMJOGANG
 40
0.7853981633974483
  9
$DIMTFILL
 70
     0
  9
$DIMTFILLCLR
 70
     0
  9
$DIMARCSYM
 70
     0
  9
$DIMLTYPE
  6

  9
$DIMLTEX1
  6

  9
$DIMLTEX2
  6

  9
$DIMTXTDIRECTION
 70
     0
  9
$LUNITS
 70
     2
  9
$LUPREC
 70
     4
  9
$SKETCHINC
 40
1.0
  9
$FILLETRAD
 40
10.0
  9
$AUNITS
 70
     0
  9
$AUPREC
 70
     0
  9
$MENU
  1
.
  9
$ELEVATION
 40
0.0
  9
$PELEVATION
 40
0.0
  9
$THICKNESS
 40
0.0
  9
$LIMCHECK
 70
     0
  9
$CHAMFERA
 40
10.0
  9
$CHAMFERB
 40
10.0
  9
$CHAMFERC
 40
20.0
  9
$CHAMFERD
 40
0.0
  9
$SKPOLY
 70
     0
  9
$TDCREATE
 40
2458122.526389827
  9
$TDUCREATE
 40
2458122.401389827
  9
$TDUPDATE
 40
2458123.599045324
  9
$TDUUPDATE
 40
2458123.474045324
  9
$TDINDWG
 40
0.0091238889
  9
$TDUSRTIMER
 40
0.0067234606
  9
$USRTIMER
 70
     1
  9
$ANGBASE
 50
0.0
  9
$ANGDIR
 70
     0
  9
$PDMODE
 70
     0
  9
$PDSIZE
 40
0.0
  9
$PLINEWID
 40
0.0
  9
$SPLFRAME
 70
     0
  9
$SPLINETYPE
 70
     6
  9
$SPLINESEGS
 70
     8
  9
$HANDSEED
  5
B0A
  9
$SURFTAB1
 70
     6
  9
$SURFTAB2
 70
     6
  9
$SURFTYPE
 70
     6
  9
$SURFU
 70
     6
  9
$SURFV
 70
     6
  9
$UCSBASE
  2

  9
$UCSNAME
  2

  9
$UCSORG
 10
0.0
 20
0.0
 30
0.0
  9
$UCSXDIR
 10
1.0
 20
0.0
 30
0.0
  9
$UCSYDIR
 10
0.0
 20
1.0
 30
0.0
  9
$UCSORTHOREF
  2

  9
$UCSORTHOVIEW
 70
     1
  9
$UCSORGTOP
 10
0.0
 20
0.0
 30
0.0
  9
$UCSORGBOTTOM
 10
0.0
 20
0.0
 30
0.0
  9
$UCSORGLEFT
 10
0.0
 20
0.0
 30
0.0
  9
$UCSORGRIGHT
 10
0.0
 20
0.0
 30
0.0
  9
$UCSORGFRONT
 10
0.0
 20
0.0
 30
0.0
  9
$UCSORGBACK
 10
0.0
 20
0.0
 30
0.0
  9
$PUCSBASE
  2

  9
$PUCSNAME
  2

  9
$PUCSORG
 10
0.0
 20
0.0
 30
0.0
  9
$PUCSXDIR
 10
1.0
 20
0.0
 30
0.0
  9
$PUCSYDIR
 10
0.0
 20
1.0
 30
0.0
  9
$PUCSORTHOREF
  2

  9
$PUCSORTHOVIEW
 70
     0
  9
$PUCSORGTOP
 10
0.0
 20
0.0
 30
0.0
  9
$PUCSORGBOTTOM
 10
0.0
 20
0.0
 30
0.0
  9
$PUCSORGLEFT
 10
0.0
 20
0.0
 30
0.0
  9
$PUCSORGRIGHT
 10
0.0
 20
0.0
 30
0.0
  9
$PUCSORGFRONT
 10
0.0
 20
0.0
 30
0.0
  9
$PUCSORGBACK
 10
0.0
 20
0.0
 30
0.0
  9
$USERI1
 70
     0
  9
$USERI2
 70
     0
  9
$USERI3
 70
     0
  9
$USERI4
 70
     0
  9
$USERI5
 70
     0
  9
$USERR1
 40
0.0
  9
$USERR2
 40
0.0
  9
$USERR3
 40
0.0
  9
$USERR4
 40
0.0
  9
$USERR5
 40
0.0
  9
$WORLDVIEW
 70
     1
  9
$SHADEDGE
 70
     3
  9
$SHADEDIF
 70
    70
  9
$TILEMODE
 70
     1
  9
$MAXACTVP
 70
    64
  9
$PINSBASE
 10
0.0
 20
0.0
 30
0.0
  9
$PLIMCHECK
 70
     0
  9
$PEXTMIN
 10
1.000000000000000E+20
 20
1.000000000000000E+20
 30
1.000000000000000E+20
  9
$PEXTMAX
 10
-1.000000000000000E+20
 20
-1.000000000000000E+20
 30
-1.000000000000000E+20
  9
$PLIMMIN
 10
0.0
 20
0.0
  9
$PLIMMAX
 10
0.0
 20
0.0
  9
$UNITMODE
 70
     0
  9
$VISRETAIN
 70
     1
  9
$PLINEGEN
 70
     0
  9
$PSLTSCALE
 70
     1
  9
$TREEDEPTH
 70
  3020
  9
$CMLSTYLE
  2
Standard
  9
$CMLJUST
 70
     0
  9
$CMLSCALE
 40
20.0
  9
$PROXYGRAPHICS
 70
     1
  9
$MEASUREMENT
 70
     1
  9
$CELWEIGHT
370
    -1
  9
$ENDCAPS
280
     0
  9
$JOINSTYLE
280
     0
  9
$LWDISPLAY
290
     0
  9
$INSUNITS
 70
     4
  9
$HYPERLINKBASE
  1

  9
$STYLESHEET
  1

  9
$XEDIT
290
     1
  9
$CEPSNTYPE
380
     0
  9
$PSTYLEMODE
290
     1
  9
$FINGERPRINTGUID
  2
{FDA9D029-1A63-466B-A7E2-D98AD3408381}
  9
$VERSIONGUID
  2
{FAEB1C32-E019-11D5-929B-00C0DF256EC4}
  9
$EXTNAMES
290
     1
  9
$PSVPSCALE
 40
0.0
  9
$OLESTARTUP
290
     0
  9
$SORTENTS
280
   127
  9
$INDEXCTL
280
     0
  9
$HIDETEXT
280
     1
  9
$XCLIPFRAME
280
     2
  9
$HALOGAP
280
     0
  9
$OBSCOLOR
 70
   257
  9
$OBSLTYPE
280
     0
  9
$INTERSECTIONDISPLAY
280
     0
  9
$INTERSECTIONCOLOR
 70
   257
  9
$DIMASSOC
280
     2
  9
$PROJECTNAME
  1

  9
$CAMERADISPLAY
290
     0
  9
$LENSLENGTH
 40
50.0
  9
$CAMERAHEIGHT
 40
0.0
  9
$STEPSPERSEC
 40
2.0
  9
$STEPSIZE
 40
6.0
  9
$3DDWFPREC
 40
2.0
  9
$PSOLWIDTH
 40
5.0
  9
$PSOLHEIGHT
 40
80.0
  9
$LOFTANG1
 40
1.570796326794897
  9
$LOFTANG2
 40
1.570796326794897
  9
$LOFTMAG1
 40
0.0
  9
$LOFTMAG2
 40
0.0
  9
$LOFTPARAM
 70
     7
  9
$LOFTNORMALS
280
     1
  9
$LATITUDE
 40
37.795
  9
$LONGITUDE
 40
-122.394
  9
$NORTHDIRECTION
 40
0.0
  9
$TIMEZONE
 70
 -8000
  9
$LIGHTGLYPHDISPLAY
280
     1
  9
$TILEMODELIGHTSYNCH
280
     1
  9
$SOLIDHIST
280
     1
  9
$SHOWHIST
280
     1
  9
$DWFFRAME
280
     2
  9
$DGNFRAME
280
     2
  9
$REALWORLDSCALE
290
     1
  9
$INTERFERECOLOR
 62
   256
  9
$CSHADOW
280
     0
  9
$SHADOWPLANELOCATION
 40
0.0
  0
ENDSEC
  0
SECTION
  2
CLASSES
  0
CLASS
  1
ACDBDICTIONARYWDFLT
  2
AcDbDictionaryWithDefault
  3
ObjectDBX Classes
 90
        0
 91
        5
280
     0
281
     0
  0
CLASS
  1
VISUALSTYLE
  2
AcDbVisualStyle
  3
ObjectDBX Classes
 90
     4095
 91
        5
280
     0
281
     0
  0
CLASS
  1
MATERIAL
  2
AcDbMaterial
  3
ObjectDBX Classes
 90
     1153
 91
        5
280
     0
281
     0
  0
CLASS
  1
SCALE
  2
AcDbScale
  3
ObjectDBX Classes
 90
     1153
 91
        5
280
     0
281
     0
  0
CLASS
  1
TABLESTYLE
  2
AcDbTableStyle
  3
ObjectDBX Classes
 90
     4095
 91
        5
280
     0
281
     0
  0
CLASS
  1
MLEADERSTYLE
  2
AcDbMLeaderStyle
  3
ACDB_MLEADERSTYLE_CLASS
 90
     4095
 91
        5
280
     0
281
     0
  0
CLASS
  1
SUN
  2
AcDbSun
  3
SCENEOE
 90
     1153
 91
        5
280
     0
281
     0
  0
CLASS
  1
DICTIONARYVAR
  2
AcDbDictionaryVar
  3
ObjectDBX Classes
 90
        0
 91
        5
280
     0
281
     0
  0
CLASS
  1
CELLSTYLEMAP
  2
AcDbCellStyleMap
  3
ObjectDBX Classes
 90
     1152
 91
        4
280
     0
281
     0
  0
ENDSEC
  0
SECTION
  2
TABLES
  0
TABLE
  2
VPORT
  5
8
330
0
100
AcDbSymbolTable
 70
     1
  0
VPORT
  5
29
330
8
100
AcDbSymbolTableRecord
100
AcDbViewportTableRecord
  2
*Active
 70
     0
 10
0.0
 20
0.0
 11
1.0
 21
1.0
 12
236810.6177578812
 22
-515856.6562947342
 13
0.0
 23
0.0
 14
10.0
 24
10.0
 15
10.0
 25
10.0
 16
0.0
 26
0.0
 36
1.0
 17
283983.2432688624
 27
4910069.689602624
 37
-259395.034558774
 40
1017.01369262133
 41
2.363849765258216
 42
50.0
 43
0.0
 44
0.0
 50
0.0
 51
0.0
 71
    16
 72
   100
 73
     1
 74
     3
 75
     0
 76
     0
 77
     0
 78
     0
281
     0
 65
     1
110
0.0
120
0.0
130
0.0
111
1.0
121
0.0
131
0.0
112
0.0
122
1.0
132
0.0
 79
     1
146
0.0
348
2F
 60
     3
 61
     5
292
     1
282
     1
141
0.0
142
0.0
 63
   250
361
A20
  0
ENDTAB
  0
TABLE
  2
LTYPE
  5
5
330
0
100
AcDbSymbolTable
 70
     1
  0
LTYPE
  5
14
330
5
100
AcDbSymbolTableRecord
100
AcDbLinetypeTableRecord
  2
ByBlock
 70
     0
  3

 72
    65
 73
     0
 40
0.0
  0
LTYPE
  5
15
330
5
100
AcDbSymbolTableRecord
100
AcDbLinetypeTableRecord
  2
ByLayer
 70
     0
  3

 72
    65
 73
     0
 40
0.0
  0
LTYPE
  5
16
330
5
100
AcDbSymbolTableRecord
100
AcDbLinetypeTableRecord
  2
Continuous
 70
     0
  3
Solid line
 72
    65
 73
     0
 40
0.0
  0
ENDTAB
  0
TABLE
  2
LAYER
  5
2
102
{ACAD_XDICTIONARY
360
A21
102
}
330
0
100
AcDbSymbolTable
 70
    21
  0
LAYER
  5
10
330
2
100
AcDbSymbolTableRecord
100
AcDbLayerTableRecord
  2
0
 70
     4
 62
     7
  6
Continuous
370
     0
390
F
347
3E
  0
LAYER
  5
3F
330
2
100
AcDbSymbolTableRecord
100
AcDbLayerTableRecord
  2
GAL_1
 70
     4
 62
    27
  6
Continuous
370
     0
390
F
347
3E
  0
LAYER
  5
40
330
2
100
AcDbSymbolTableRecord
100
AcDbLayerTableRecord
  2
FERE_SN
 70
     4
 62
   125
  6
Continuous
370
     0
390
F
347
3E
  0
LAYER
  5
41
330
2
100
AcDbSymbolTableRecord
100
AcDbLayerTableRecord
  2
DOGU_1
 70
     4
 62
    46
  6
Continuous
370
     0
390
F
347
3E
  0
LAYER
  5
42
330
2
100
AcDbSymbolTableRecord
100
AcDbLayerTableRecord
  2
DOGU_2
 70
     4
 62
     3
  6
Continuous
370
     0
390
F
347
3E
  0
LAYER
  5
43
330
2
100
AcDbSymbolTableRecord
100
AcDbLayerTableRecord
  2
DOGU_3
 70
     4
 62
     3
  6
Continuous
370
     0
390
F
347
3E
  0
LAYER
  5
44
330
2
100
AcDbSymbolTableRecord
100
AcDbLayerTableRecord
  2
DES_5
 70
     4
 62
   150
  6
Continuous
370
     0
390
F
347
3E
  0
LAYER
  5
45
330
2
100
AcDbSymbolTableRecord
100
AcDbLayerTableRecord
  2
KY395
 70
     4
 62
   150
  6
Continuous
370
     0
390
F
347
3E
  0
LAYER
  5
46
330
2
100
AcDbSymbolTableRecord
100
AcDbLayerTableRecord
  2
360_350DES
 70
     4
 62
    11
  6
Continuous
370
     0
390
F
347
3E
  0
LAYER
  5
47
330
2
100
AcDbSymbolTableRecord
100
AcDbLayerTableRecord
  2
339KOTU
 70
     4
 62
   126
  6
Continuous
370
     0
390
F
347
3E
  0
LAYER
  5
48
330
2
100
AcDbSymbolTableRecord
100
AcDbLayerTableRecord
  2
342KOTU
 70
     4
 62
    97
  6
Continuous
370
     0
390
F
347
3E
  0
LAYER
  5
49
330
2
100
AcDbSymbolTableRecord
100
AcDbLayerTableRecord
  2
395KOTU
 70
     4
 62
   132
  6
Continuous
370
     0
390
F
347
3E
  0
LAYER
  5
4A
330
2
100
AcDbSymbolTableRecord
100
AcDbLayerTableRecord
  2
DESANDRE_1
 70
     4
 62
   171
  6
Continuous
370
     0
390
F
347
3E
  0
LAYER
  5
4B
330
2
100
AcDbSymbolTableRecord
100
AcDbLayerTableRecord
  2
395_PN
 70
     4
 62
     4
  6
Continuous
370
     0
390
F
347
3E
  0
LAYER
  5
4C
330
2
100
AcDbSymbolTableRecord
100
AcDbLayerTableRecord
  2
384_PN
 70
     4
 62
     4
  6
Continuous
370
     0
390
F
347
3E
  0
LAYER
  5
4D
330
2
100
AcDbSymbolTableRecord
100
AcDbLayerTableRecord
  2
_DOSYADAN_EKLENDI
 70
     4
 62
    18
  6
Continuous
370
     0
390
F
347
3E
  0
LAYER
  5
4E
330
2
100
AcDbSymbolTableRecord
100
AcDbLayerTableRecord
  2
SARJODASi
 70
     4
 62
   172
  6
Continuous
370
     0
390
F
347
3E
  0
LAYER
  5
4F
330
2
100
AcDbSymbolTableRecord
100
AcDbLayerTableRecord
  2
YAZI
 70
     4
 62
     7
  6
Continuous
370
    -3
390
F
347
3E
  0
LAYER
  5
50
330
2
100
AcDbSymbolTableRecord
100
AcDbLayerTableRecord
  2
MEVCUT_SISTEM
 70
     4
 62
     1
  6
Continuous
370
     0
390
F
347
3E
  0
LAYER
  5
A38
330
2
100
AcDbSymbolTableRecord
100
AcDbLayerTableRecord
  2
geofence
 70
     0
 62
     2
  6
Continuous
370
     0
390
F
347
3E
1001
AcAecLayerStandard
1000

1000

  0
LAYER
  5
A3E
330
2
100
AcDbSymbolTableRecord
100
AcDbLayerTableRecord
  2
INIT_COORD
 70
     4
 62
     7
  6
Continuous
370
     0
390
F
347
3E
1001
AcAecLayerStandard
1000

1000

  0
ENDTAB
  0
TABLE
  2
STYLE
  5
3
330
0
100
AcDbSymbolTable
 70
     1
  0
STYLE
  5
11
330
3
100
AcDbSymbolTableRecord
100
AcDbTextStyleTableRecord
  2
Standard
 70
     0
 40
0.0
 41
1.0
 50
0.0
 71
     0
 42
2.5
  3
C:\Windows\Font\TIMES.TTF
  4

  0
ENDTAB
  0
TABLE
  2
VIEW
  5
6
330
0
100
AcDbSymbolTable
 70
     0
  0
ENDTAB
  0
TABLE
  2
UCS
  5
7
330
0
100
AcDbSymbolTable
 70
     0
  0
ENDTAB
  0
TABLE
  2
APPID
  5
9
330
0
100
AcDbSymbolTable
 70
     2
  0
APPID
  5
12
330
9
100
AcDbSymbolTableRecord
100
AcDbRegAppTableRecord
  2
ACAD
 70
     0
  0
APPID
  5
A37
330
9
100
AcDbSymbolTableRecord
100
AcDbRegAppTableRecord
  2
AcAecLayerStandard
 70
     0
  0
ENDTAB
  0
TABLE
  2
DIMSTYLE
  5
A
330
0
100
AcDbSymbolTable
 70
     1
100
AcDbDimStyleTable
  0
DIMSTYLE
105
27
330
A
100
AcDbSymbolTableRecord
100
AcDbDimStyleTableRecord
  2
ISO-25
 70
     0
 41
2.5
 42
0.625
 43
3.75
 44
1.25
 73
     0
 74
     0
 77
     1
 78
     8
140
2.5
141
2.5
143
0.03937007874016
147
0.625
171
     3
172
     1
178
     0
271
     2
272
     2
274
     3
278
    44
283
     0
284
     8
340
11
  0
ENDTAB
  0
TABLE
  2
BLOCK_RECORD
  5
1
330
0
100
AcDbSymbolTable
 70
     1
  0
BLOCK_RECORD
  5
1F
330
1
100
AcDbSymbolTableRecord
100
AcDbBlockTableRecord
  2
*Model_Space
340
22
 70
     0
280
     1
281
     0
  0
BLOCK_RECORD
  5
1B
330
1
100
AcDbSymbolTableRecord
100
AcDbBlockTableRecord
  2
*Paper_Space
340
1E
 70
     0
280
     1
281
     0
  0
BLOCK_RECORD
  5
23
330
1
100
AcDbSymbolTableRecord
100
AcDbBlockTableRecord
  2
*Paper_Space0
340
26
 70
     0
280
     1
281
     0
  0
ENDTAB
  0
ENDSEC
  0
SECTION
  2
BLOCKS
  0
BLOCK
  5
20
330
1F
100
AcDbEntity
  8
0
100
AcDbBlockBegin
  2
*Model_Space
 70
     0
 10
0.0
 20
0.0
 30
0.0
  3
*Model_Space
  1

  0
ENDBLK
  5
21
330
1F
100
AcDbEntity
  8
0
100
AcDbBlockEnd
  0
BLOCK
  5
1C
330
1B
100
AcDbEntity
 67
     1
  8
0
100
AcDbBlockBegin
  2
*Paper_Space
 70
     0
 10
0.0
 20
0.0
 30
0.0
  3
*Paper_Space
  1

  0
ENDBLK
  5
1D
330
1B
100
AcDbEntity
 67
     1
  8
0
100
AcDbBlockEnd
  0
BLOCK
  5
24
330
23
100
AcDbEntity
  8
0
100
AcDbBlockBegin
  2
*Paper_Space0
 70
     0
 10
0.0
 20
0.0
 30
0.0
  3
*Paper_Space0
  1

  0
ENDBLK
  5
25
330
23
100
AcDbEntity
  8
0
100
AcDbBlockEnd
  0
ENDSEC
  0
SECTION
  2
ENTITIES
  0
POINT
  5
52
330
1F
100
AcDbEntity
  8
MEVCUT_SISTEM
370
     0
100
AcDbPoint
 10
521088.3026176283
 20
4393947.906263112
 30
459.0
  0
POINT
  5
53
330
1F
100
AcDbEntity
  8
MEVCUT_SISTEM
370
     0
100
AcDbPoint
 10
521085.9670470768
 20
4393952.213827413
 30
459.0
  0
POINT
  5
54
330
1F
100
AcDbEntity
  8
MEVCUT_SISTEM
370
     0
100
AcDbPoint
 10
521115.1501900064
 20
4393968.036989757
 30
459.0
  0
POINT
  5
55
330
1F
100
AcDbEntity
  8
MEVCUT_SISTEM
370
     0
100
AcDbPoint
 10
521113.3897040141
 20
4393972.313366963
 30
459.0
  0
POINT
  5
56
330
1F
100
AcDbEntity
  8
MEVCUT_SISTEM
370
     0
100
AcDbPoint
 10
521113.58127041
 20
4393973.031378281
 30
459.0
  0
POINT
  5
57
330
1F
100
AcDbEntity
  8
MEVCUT_SISTEM
370
     0
100
AcDbPoint
 10
521115.0652664103
 20
4393974.377590722
 30
459.0
  0
POINT
  5
58
330
1F
100
AcDbEntity
  8
MEVCUT_SISTEM
370
     0
100
AcDbPoint
 10
521117.1179658864
 20
4393974.78835496
 30
459.0
  0
POINT
  5
59
330
1F
100
AcDbEntity
  8
MEVCUT_SISTEM
370
     0
100
AcDbPoint
 10
521117.8282959859
 20
4393974.140633037
 30
459.0
  0
POINT
  5
5A
330
1F
100
AcDbEntity
  8
MEVCUT_SISTEM
370
     0
100
AcDbPoint
 10
521119.3938000903
 20
4393970.337884196
 30
459.0
  0
POINT
  5
5B
330
1F
100
AcDbEntity
  8
MEVCUT_SISTEM
370
     0
100
AcDbPoint
 10
521119.8160470768
 20
4393970.566827413
 30
459.0
  0
POINT
  5
5C
330
1F
100
AcDbEntity
  8
GAL_1
370
     0
100
AcDbPoint
 10
521121.409527162
 20
4393965.856900078
 30
459.0
  0
POINT
  5
5D
330
1F
100
AcDbEntity
  8
GAL_1
370
     0
100
AcDbPoint
 10
521132.5973497865
 20
4393964.115131892
 30
459.0
  0
POINT
  5
5E
330
1F
100
AcDbEntity
  8
GAL_1
370
     0
100
AcDbPoint
 10
521132.8949992958
 20
4393968.859092308
 30
459.0
  0
POINT
  5
5F
330
1F
100
AcDbEntity
  8
GAL_1
370
     0
100
AcDbPoint
 10
521136.6415881105
 20
4393965.879227697
 30
459.0
  0
POINT
  5
60
330
1F
100
AcDbEntity
  8
GAL_1
370
     0
100
AcDbPoint
 10
521165.1580723103
 20
4393983.394007016
 30
459.0
  0
POINT
  5
61
330
1F
100
AcDbEntity
  8
GAL_1
370
     0
100
AcDbPoint
 10
521167.2294307872
 20
4393989.947245616
 30
459.0
  0
POINT
  5
62
330
1F
100
AcDbEntity
  8
GAL_1
370
     0
100
AcDbPoint
 10
521173.78
 20
4393986.274
 30
459.0
  0
POINT
  5
63
330
1F
100
AcDbEntity
  8
GAL_1
370
     0
100
AcDbPoint
 10
521169.396
 20
4393980.983
 30
459.0
  0
LINE
  5
C8
330
1F
100
AcDbEntity
  8
MEVCUT_SISTEM
370
     0
100
AcDbLine
 10
521053.6271483984
 20
4394246.438221194
 30
444.5
 11
521074.243
 21
4394248.435
 31
444.5
  0
LINE
  5
EA
330
1F
100
AcDbEntity
  8
MEVCUT_SISTEM
370
     0
100
AcDbLine
 10
521073.693675702
 20
4394243.316656005
 30
444.5
 11
521054.2548516016
 21
4394241.477778805
 31
444.5
  0
LINE
  5
108
330
1F
100
AcDbEntity
  8
MEVCUT_SISTEM
370
     0
100
AcDbLine
 10
521085.9670470768
 20
4393952.213827413
 30
459.0
 11
521113.3897040141
 21
4393972.313366963
 31
459.0
  0
LINE
  5
109
330
1F
100
AcDbEntity
  8
MEVCUT_SISTEM
370
     0
100
AcDbLine
 10
521113.3897040141
 20
4393972.313366963
 30
459.0
 11
521113.58127041
 21
4393973.031378281
 31
459.0
  0
LINE
  5
10A
330
1F
100
AcDbEntity
  8
MEVCUT_SISTEM
370
     0
100
AcDbLine
 10
521115.0652664103
 20
4393974.377590722
 30
459.0
 11
521117.1179658864
 21
4393974.78835496
 31
459.0
  0
LINE
  5
10B
330
1F
100
AcDbEntity
  8
MEVCUT_SISTEM
370
     0
100
AcDbLine
 10
521117.1179658864
 20
4393974.78835496
 30
459.0
 11
521117.8282959859
 21
4393974.140633037
 31
459.0
  0
LINE
  5
10C
330
1F
100
AcDbEntity
  8
MEVCUT_SISTEM
370
     0
100
AcDbLine
 10
521117.8282959859
 20
4393974.140633037
 30
459.0
 11
521119.8160470768
 21
4393970.566827413
 31
459.0
  0
LINE
  5
10D
330
1F
100
AcDbEntity
  8
MEVCUT_SISTEM
370
     0
100
AcDbLine
 10
521119.8160470768
 20
4393970.566827413
 30
459.0
 11
521119.3938000903
 21
4393970.337884196
 31
459.0
  0
LINE
  5
10E
330
1F
100
AcDbEntity
  8
GAL_1
370
     0
100
AcDbLine
 10
521119.3938000903
 20
4393970.337884196
 30
459.0
 11
521132.8949992958
 21
4393968.859092308
 31
459.0
  0
LINE
  5
10F
330
1F
100
AcDbEntity
  8
GAL_1
370
     0
100
AcDbLine
 10
521132.8949992958
 20
4393968.859092308
 30
459.0
 11
521165.1580723103
 21
4393983.394007016
 31
459.0
  0
LINE
  5
110
330
1F
100
AcDbEntity
  8
GAL_1
370
     0
100
AcDbLine
 10
521165.1580723103
 20
4393983.394007016
 30
459.0
 11
521167.2294307872
 21
4393989.947245616
 31
459.0
  0
LINE
  5
111
330
1F
100
AcDbEntity
  8
GAL_1
370
     0
100
AcDbLine
 10
521167.2294307872
 20
4393989.947245616
 30
459.0
 11
521173.78
 21
4393986.274
 31
459.0
  0
LINE
  5
112
330
1F
100
AcDbEntity
  8
GAL_1
370
     0
100
AcDbLine
 10
521173.78
 20
4393986.274
 30
459.0
 11
521169.396
 21
4393980.983
 31
459.0
  0
LINE
  5
113
330
1F
100
AcDbEntity
  8
GAL_1
370
     0
100
AcDbLine
 10
521169.396
 20
4393980.983
 30
459.0
 11
521136.6415881105
 21
4393965.879227697
 31
459.0
  0
LINE
  5
114
330
1F
100
AcDbEntity
  8
GAL_1
370
     0
100
AcDbLine
 10
521132.5973497865
 20
4393964.115131892
 30
459.0
 11
521121.409527162
 21
4393965.856900078
 31
459.0
  0
LINE
  5
115
330
1F
100
AcDbEntity
  8
GAL_1
370
     0
100
AcDbLine
 10
521121.409527162
 20
4393965.856900078
 30
459.0
 11
521115.1501900064
 21
4393968.036989757
 31
459.0
  0
LINE
  5
116
330
1F
100
AcDbEntity
  8
MEVCUT_SISTEM
370
     0
100
AcDbLine
 10
521115.1501900064
 20
4393968.036989757
 30
459.0
 11
521088.3026176283
 21
4393947.906263112
 31
459.0
  0
POINT
  5
14C
330
1F
100
AcDbEntity
  8
MEVCUT_SISTEM
370
     0
100
AcDbPoint
 10
521083.9725842208
 20
4394194.333509604
 30
400.0
  0
POINT
  5
14D
330
1F
100
AcDbEntity
  8
MEVCUT_SISTEM
370
     0
100
AcDbPoint
 10
521085.3556058583
 20
4394194.559727971
 30
400.0
  0
POINT
  5
152
330
1F
100
AcDbEntity
  8
FERE_SN
370
     0
100
AcDbPoint
 10
521077.8052391095
 20
4394223.723397445
 30
427.0
  0
POINT
  5
153
330
1F
100
AcDbEntity
  8
FERE_SN
370
     0
100
AcDbPoint
 10
521079.1882607471
 20
4394223.949615812
 30
427.0
  0
POINT
  5
156
330
1F
100
AcDbEntity
  8
MEVCUT_SISTEM
370
     0
100
AcDbPoint
 10
521086.3601291568
 20
4394006.931781045
 30
430.0
  0
POINT
  5
157
330
1F
100
AcDbEntity
  8
MEVCUT_SISTEM
370
     0
100
AcDbPoint
 10
521088.3896492207
 20
4394007.59861398
 30
430.0
  0
POINT
  5
158
330
1F
100
AcDbEntity
  8
MEVCUT_SISTEM
370
     0
100
AcDbPoint
 10
521091.4803896886
 20
4394000.555160291
 30
435.0
  0
POINT
  5
159
330
1F
100
AcDbEntity
  8
MEVCUT_SISTEM
370
     0
100
AcDbPoint
 10
521093.2512175764
 20
4394001.544160796
 30
435.0
  0
POINT
  5
15A
330
1F
100
AcDbEntity
  8
MEVCUT_SISTEM
370
     0
100
AcDbPoint
 10
521097.8602921622
 20
4393992.609818785
 30
440.0
  0
POINT
  5
15B
330
1F
100
AcDbEntity
  8
MEVCUT_SISTEM
370
     0
100
AcDbPoint
 10
521099.5411778112
 20
4393993.710830689
 30
440.0
  0
POINT
  5
15C
330
1F
100
AcDbEntity
  8
MEVCUT_SISTEM
370
     0
100
AcDbPoint
 10
521106.2247663249
 20
4393982.192950498
 30
450.0
  0
POINT
  5
15D
330
1F
100
AcDbEntity
  8
MEVCUT_SISTEM
370
     0
100
AcDbPoint
 10
521107.8723897268
 20
4393983.335386221
 30
450.0
  0
LINE
  5
15E
330
1F
100
AcDbEntity
  8
MEVCUT_SISTEM
370
     0
100
AcDbLine
 10
521086.3601291568
 20
4394006.931781045
 30
430.0
 11
521091.4803896886
 21
4394000.555160291
 31
435.0
  0
LINE
  5
15F
330
1F
100
AcDbEntity
  8
MEVCUT_SISTEM
370
     0
100
AcDbLine
 10
521091.4803896886
 20
4394000.555160291
 30
435.0
 11
521097.8602921622
 21
4393992.609818785
 31
440.0
  0
LINE
  5
160
330
1F
100
AcDbEntity
  8
MEVCUT_SISTEM
370
     0
100
AcDbLine
 10
521097.8602921622
 20
4393992.609818785
 30
440.0
 11
521106.2247663249
 21
4393982.192950498
 31
450.0
  0
LINE
  5
161
330
1F
100
AcDbEntity
  8
MEVCUT_SISTEM
370
     0
100
AcDbLine
 10
521088.3896492207
 20
4394007.59861398
 30
430.0
 11
521093.2512175764
 21
4394001.544160796
 31
435.0
  0
LINE
  5
162
330
1F
100
AcDbEntity
  8
MEVCUT_SISTEM
370
     0
100
AcDbLine
 10
521093.2512175764
 20
4394001.544160796
 30
435.0
 11
521099.5411778112
 21
4393993.710830689
 31
440.0
  0
LINE
  5
163
330
1F
100
AcDbEntity
  8
MEVCUT_SISTEM
370
     0
100
AcDbLine
 10
521099.5411778112
 20
4393993.710830689
 30
440.0
 11
521107.8723897268
 21
4393983.335386221
 31
450.0
  0
LINE
  5
164
330
1F
100
AcDbEntity
  8
MEVCUT_SISTEM
370
     0
100
AcDbLine
 10
521077.1324790434
 20
4394233.746245092
 30
437.0
 11
521079.1882607471
 21
4394223.949615812
 31
427.0
  0
LINE
  5
165
330
1F
100
AcDbEntity
  8
MEVCUT_SISTEM
370
     0
100
AcDbLine
 10
521079.1882607471
 20
4394223.949615812
 30
427.0
 11
521081.2440424509
 21
4394214.152986532
 31
420.0
  0
LINE
  5
166
330
1F
100
AcDbEntity
  8
MEVCUT_SISTEM
370
     0
100
AcDbLine
 10
521081.2440424509
 20
4394214.152986532
 30
420.0
 11
521083.2998241546
 21
4394204.356357252
 31
410.0
  0
LINE
  5
167
330
1F
100
AcDbEntity
  8
MEVCUT_SISTEM
370
     0
100
AcDbLine
 10
521083.2998241546
 20
4394204.356357252
 30
410.0
 11
521085.3556058583
 21
4394194.559727971
 31
400.0
  0
LINE
  5
168
330
1F
100
AcDbEntity
  8
MEVCUT_SISTEM
370
     0
100
AcDbLine
 10
521083.9725842208
 20
4394194.333509604
 30
400.0
 11
521081.916802517
 21
4394204.130138884
 31
410.0
  0
LINE
  5
169
330
1F
100
AcDbEntity
  8
MEVCUT_SISTEM
370
     0
100
AcDbLine
 10
521081.916802517
 20
4394204.130138884
 30
410.0
 11
521079.8610208132
 21
4394213.926768164
 31
420.0
  0
LINE
  5
16A
330
1F
100
AcDbEntity
  8
MEVCUT_SISTEM
370
     0
100
AcDbLine
 10
521079.8610208132
 20
4394213.926768164
 30
420.0
 11
521077.8052391095
 21
4394223.723397445
 31
427.0
  0
LINE
  5
16B
330
1F
100
AcDbEntity
  8
MEVCUT_SISTEM
370
     0
100
AcDbLine
 10
521077.8052391095
 20
4394223.723397445
 30
427.0
 11
521075.7494574058
 21
4394233.520026725
 31
437.0
  0
POINT
  5
17B
330
1F
100
AcDbEntity
  8
DOGU_1
370
     0
100
AcDbPoint
 10
521269.1553034522
 20
4394228.07710451
 30
363.2999877929688
  0
POINT
  5
17C
330
1F
100
AcDbEntity
  8
DOGU_1
370
     0
100
AcDbPoint
 10
521274.3879589213
 20
4394226.917073953
 30
363.2999877929688
  0
POINT
  5
17D
330
1F
100
AcDbEntity
  8
DOGU_1
370
     0
100
AcDbPoint
 10
521273.4141933386
 20
4394233.421706841
 30
363.2999877929688
  0
POINT
  5
17E
330
1F
100
AcDbEntity
  8
DOGU_1
370
     0
100
AcDbPoint
 10
521270.4039047981
 20
4394227.184746339
 30
363.2999877929688
  0
POINT
  5
17F
330
1F
100
AcDbEntity
  8
DOGU_1
370
     0
100
AcDbPoint
 10
521275.7186523836
 20
4394228.493039446
 30
363.2999877929688
  0
POINT
  5
180
330
1F
100
AcDbEntity
  8
DOGU_1
370
     0
100
AcDbPoint
 10
521277.501218653
 20
4394231.352815119
 30
363.2999877929688
  0
POINT
  5
181
330
1F
100
AcDbEntity
  8
DOGU_1
370
     0
100
AcDbPoint
 10
521269.8177466938
 20
4394232.795586437
 30
363.2999877929688
  0
POINT
  5
182
330
1F
100
AcDbEntity
  8
DOGU_1
370
     0
100
AcDbPoint
 10
521266.2365752087
 20
4394230.975678854
 30
363.2999877929688
  0
POINT
  5
183
330
1F
100
AcDbEntity
  8
DOGU_1
370
     0
100
AcDbPoint
 10
521264.1500802131
 20
4394229.050915852
 30
363.2999877929688
  0
POINT
  5
184
330
1F
100
AcDbEntity
  8
DOGU_1
370
     0
100
AcDbPoint
 10
521263.7525987094
 20
4394227.333896232
 30
363.2999877929688
  0
POINT
  5
185
330
1F
100
AcDbEntity
  8
DOGU_1
370
     0
100
AcDbPoint
 10
521264.0979363683
 20
4394226.384103196
 30
363.2999877929688
  0
POINT
  5
186
330
1F
100
AcDbEntity
  8
DOGU_1
370
     0
100
AcDbPoint
 10
521268.4834445141
 20
4394227.797019053
 30
363.2999877929688
  0
POINT
  5
1A3
330
1F
100
AcDbEntity
  8
DOGU_1
370
     0
100
AcDbPoint
 10
521231.1734227756
 20
4394240.956729981
 30
378.0
  0
POINT
  5
1A5
330
1F
100
AcDbEntity
  8
DOGU_1
370
     0
100
AcDbPoint
 10
521254.5023138307
 20
4394235.162225199
 30
374.5
  0
POINT
  5
1A6
330
1F
100
AcDbEntity
  8
DOGU_1
370
     0
100
AcDbPoint
 10
521257.3601671508
 20
4394240.173679356
 30
374.5
  0
POINT
  5
1A7
330
1F
100
AcDbEntity
  8
DOGU_1
370
     0
100
AcDbPoint
 10
521253.2536308197
 20
4394242.134457964
 30
374.5
  0
POINT
  5
1A8
330
1F
100
AcDbEntity
  8
DOGU_1
370
     0
100
AcDbPoint
 10
521249.3476118481
 20
4394246.534741128
 30
374.5
  0
POINT
  5
1A9
330
1F
100
AcDbEntity
  8
DOGU_1
370
     0
100
AcDbPoint
 10
521242.8215487056
 20
4394243.151843091
 30
374.5
  0
POINT
  5
1AA
330
1F
100
AcDbEntity
  8
DOGU_1
370
     0
100
AcDbPoint
 10
521242.9014596828
 20
4394238.037540546
 30
374.5
  0
POINT
  5
1AB
330
1F
100
AcDbEntity
  8
DOGU_1
370
     0
100
AcDbPoint
 10
521250.0985193192
 20
4394237.054017548
 30
374.5
  0
POINT
  5
1AC
330
1F
100
AcDbEntity
  8
DOGU_1
370
     0
100
AcDbPoint
 10
521246.3906499745
 20
4394244.182076719
 30
374.5
  0
POINT
  5
1AD
330
1F
100
AcDbEntity
  8
DOGU_1
370
     0
100
AcDbPoint
 10
521265.363296037
 20
4394249.074050823
 30
370.0
  0
POINT
  5
1AE
330
1F
100
AcDbEntity
  8
DOGU_1
370
     0
100
AcDbPoint
 10
521263.1435466686
 20
4394254.031491079
 30
370.0
  0
POINT
  5
1AF
330
1F
100
AcDbEntity
  8
DOGU_1
370
     0
100
AcDbPoint
 10
521268.9888866718
 20
4394248.722590506
 30
369.25
  0
POINT
  5
1B0
330
1F
100
AcDbEntity
  8
DOGU_1
370
     0
100
AcDbPoint
 10
521270.3762300269
 20
4394253.920503611
 30
369.25
  0
POINT
  5
1B1
330
1F
100
AcDbEntity
  8
DOGU_1
370
     0
100
AcDbPoint
 10
521271.8767806006
 20
4394246.768471146
 30
368.1600036621094
  0
POINT
  5
1B2
330
1F
100
AcDbEntity
  8
DOGU_1
370
     0
100
AcDbPoint
 10
521275.6318566154
 20
4394250.930501211
 30
368.1600036621094
  0
POINT
  5
1B3
330
1F
100
AcDbEntity
  8
DOGU_1
370
     0
100
AcDbPoint
 10
521273.8011553198
 20
4394236.05625666
 30
365.7000122070312
  0
POINT
  5
1B4
330
1F
100
AcDbEntity
  8
DOGU_1
370
     0
100
AcDbPoint
 10
521279.8699500935
 20
4394234.360368143
 30
365.7000122070312
  0
POINT
  5
1B5
330
1F
100
AcDbEntity
  8
DOGU_1
370
     0
100
AcDbPoint
 10
521268.2156038194
 20
4394203.506552473
 30
359.5
  0
POINT
  5
1B6
330
1F
100
AcDbEntity
  8
DOGU_1
370
     0
100
AcDbPoint
 10
521274.1993377995
 20
4394205.002485967
 30
359.5
  0
POINT
  5
1B7
330
1F
100
AcDbEntity
  8
DOGU_1
370
     0
100
AcDbPoint
 10
521272.6867848669
 20
4394193.056031652
 30
357.0
  0
POINT
  5
1B8
330
1F
100
AcDbEntity
  8
DOGU_1
370
     0
100
AcDbPoint
 10
521279.4253899033
 20
4394193.497907393
 30
357.0
  0
POINT
  5
1B9
330
1F
100
AcDbEntity
  8
DOGU_1
370
     0
100
AcDbPoint
 10
521279.3870326342
 20
4394185.427537973
 30
357.0
  0
POINT
  5
1BA
330
1F
100
AcDbEntity
  8
DOGU_1
370
     0
100
AcDbPoint
 10
521271.7539360822
 20
4394187.115257814
 30
357.0
  0
POINT
  5
1BB
330
1F
100
AcDbEntity
  8
DOGU_1
370
     0
100
AcDbPoint
 10
521270.8536057379
 20
4394179.490685098
 30
355.0
  0
POINT
  5
1BC
330
1F
100
AcDbEntity
  8
DOGU_1
370
     0
100
AcDbPoint
 10
521268.0300845398
 20
4394182.181021334
 30
355.0
  0
LINE
  5
1BD
330
1F
100
AcDbEntity
  8
DOGU_1
370
     0
100
AcDbLine
 10
521232.324140848
 20
4394246.388119283
 30
378.0
 11
521242.8215487056
 21
4394243.151843091
 31
374.5
  0
LINE
  5
1BE
330
1F
100
AcDbEntity
  8
DOGU_1
370
     0
100
AcDbLine
 10
521242.8215487056
 20
4394243.151843091
 30
374.5
 11
521246.3906499745
 21
4394244.182076719
 31
374.5
  0
LINE
  5
1BF
330
1F
100
AcDbEntity
  8
DOGU_1
370
     0
100
AcDbLine
 10
521246.3906499745
 20
4394244.182076719
 30
374.5
 11
521249.3476118481
 21
4394246.534741128
 31
374.5
  0
LINE
  5
1C0
330
1F
100
AcDbEntity
  8
DOGU_1
370
     0
100
AcDbLine
 10
521249.3476118481
 20
4394246.534741128
 30
374.5
 11
521263.1435466686
 21
4394254.031491079
 31
370.0
  0
LINE
  5
1C1
330
1F
100
AcDbEntity
  8
DOGU_1
370
     0
100
AcDbLine
 10
521263.1435466686
 20
4394254.031491079
 30
370.0
 11
521270.3762300269
 21
4394253.920503611
 31
369.25
  0
LINE
  5
1C2
330
1F
100
AcDbEntity
  8
DOGU_1
370
     0
100
AcDbLine
 10
521270.3762300269
 20
4394253.920503611
 30
369.25
 11
521275.6318566154
 21
4394250.930501211
 31
368.1600036621094
  0
LINE
  5
1C3
330
1F
100
AcDbEntity
  8
DOGU_1
370
     0
100
AcDbLine
 10
521275.6318566154
 20
4394250.930501211
 30
368.1600036621094
 11
521279.8699500935
 21
4394234.360368143
 31
365.7000122070312
  0
LINE
  5
1C4
330
1F
100
AcDbEntity
  8
DOGU_1
370
     0
100
AcDbLine
 10
521279.8699500935
 20
4394234.360368143
 30
365.7000122070312
 11
521277.501218653
 21
4394231.352815119
 31
363.2999877929688
  0
LINE
  5
1C5
330
1F
100
AcDbEntity
  8
DOGU_1
370
     0
100
AcDbLine
 10
521277.501218653
 20
4394231.352815119
 30
363.2999877929688
 11
521275.7186523836
 21
4394228.493039446
 31
363.2999877929688
  0
LINE
  5
1C6
330
1F
100
AcDbEntity
  8
DOGU_1
370
     0
100
AcDbLine
 10
521275.7186523836
 20
4394228.493039446
 30
363.2999877929688
 11
521274.3879589213
 21
4394226.917073953
 31
363.2999877929688
  0
LINE
  5
1C7
330
1F
100
AcDbEntity
  8
DOGU_1
370
     0
100
AcDbLine
 10
521274.3879589213
 20
4394226.917073953
 30
363.2999877929688
 11
521274.1993377995
 21
4394205.002485967
 31
359.5
  0
LINE
  5
1C8
330
1F
100
AcDbEntity
  8
DOGU_1
370
     0
100
AcDbLine
 10
521279.4253899033
 20
4394193.497907393
 30
357.0
 11
521279.3870326342
 21
4394185.427537973
 31
357.0
  0
LINE
  5
1C9
330
1F
100
AcDbEntity
  8
DOGU_1
370
     0
100
AcDbLine
 10
521279.3870326342
 20
4394185.427537973
 30
357.0
 11
521270.8536057379
 21
4394179.490685098
 31
355.0
  0
LINE
  5
1CA
330
1F
100
AcDbEntity
  8
DOGU_1
370
     0
100
AcDbLine
 10
521270.8536057379
 20
4394179.490685098
 30
355.0
 11
521268.0300845398
 21
4394182.181021334
 31
355.0
  0
LINE
  5
1CB
330
1F
100
AcDbEntity
  8
DOGU_1
370
     0
100
AcDbLine
 10
521268.0300845398
 20
4394182.181021334
 30
355.0
 11
521271.7539360822
 21
4394187.115257814
 31
357.0
  0
LINE
  5
1CC
330
1F
100
AcDbEntity
  8
DOGU_1
370
     0
100
AcDbLine
 10
521271.7539360822
 20
4394187.115257814
 30
357.0
 11
521272.6867848669
 21
4394193.056031652
 31
357.0
  0
LINE
  5
1CD
330
1F
100
AcDbEntity
  8
DOGU_1
370
     0
100
AcDbLine
 10
521272.6867848669
 20
4394193.056031652
 30
357.0
 11
521268.2156038194
 21
4394203.506552473
 31
359.5
  0
LINE
  5
1CE
330
1F
100
AcDbEntity
  8
DOGU_1
370
     0
100
AcDbLine
 10
521268.2156038194
 20
4394203.506552473
 30
359.5
 11
521270.4039047981
 21
4394227.184746339
 31
363.2999877929688
  0
LINE
  5
1CF
330
1F
100
AcDbEntity
  8
DOGU_1
370
     0
100
AcDbLine
 10
521270.4039047981
 20
4394227.184746339
 30
363.2999877929688
 11
521269.1553034522
 21
4394228.07710451
 31
363.2999877929688
  0
LINE
  5
1D0
330
1F
100
AcDbEntity
  8
DOGU_1
370
     0
100
AcDbLine
 10
521269.1553034522
 20
4394228.07710451
 30
363.2999877929688
 11
521268.4834445141
 21
4394227.797019053
 31
363.2999877929688
  0
LINE
  5
1D1
330
1F
100
AcDbEntity
  8
DOGU_1
370
     0
100
AcDbLine
 10
521268.4834445141
 20
4394227.797019053
 30
363.2999877929688
 11
521264.0979363683
 21
4394226.384103196
 31
363.2999877929688
  0
LINE
  5
1D2
330
1F
100
AcDbEntity
  8
DOGU_1
370
     0
100
AcDbLine
 10
521264.0979363683
 20
4394226.384103196
 30
363.2999877929688
 11
521263.7525987094
 21
4394227.333896232
 31
363.2999877929688
  0
LINE
  5
1D3
330
1F
100
AcDbEntity
  8
DOGU_1
370
     0
100
AcDbLine
 10
521263.7525987094
 20
4394227.333896232
 30
363.2999877929688
 11
521264.1500802131
 21
4394229.050915852
 31
363.2999877929688
  0
LINE
  5
1D4
330
1F
100
AcDbEntity
  8
DOGU_1
370
     0
100
AcDbLine
 10
521264.1500802131
 20
4394229.050915852
 30
363.2999877929688
 11
521266.2365752087
 21
4394230.975678854
 31
363.2999877929688
  0
LINE
  5
1D5
330
1F
100
AcDbEntity
  8
DOGU_1
370
     0
100
AcDbLine
 10
521266.2365752087
 20
4394230.975678854
 30
363.2999877929688
 11
521269.8177466938
 21
4394232.795586437
 31
363.2999877929688
  0
LINE
  5
1D6
330
1F
100
AcDbEntity
  8
DOGU_1
370
     0
100
AcDbLine
 10
521269.8177466938
 20
4394232.795586437
 30
363.2999877929688
 11
521273.4141933386
 21
4394233.421706841
 31
363.2999877929688
  0
LINE
  5
1D7
330
1F
100
AcDbEntity
  8
DOGU_1
370
     0
100
AcDbLine
 10
521273.4141933386
 20
4394233.421706841
 30
363.2999877929688
 11
521273.8011553198
 21
4394236.05625666
 31
365.7000122070312
  0
LINE
  5
1D8
330
1F
100
AcDbEntity
  8
DOGU_1
370
     0
100
AcDbLine
 10
521273.8011553198
 20
4394236.05625666
 30
365.7000122070312
 11
521271.8767806006
 21
4394246.768471146
 31
368.1600036621094
  0
LINE
  5
1D9
330
1F
100
AcDbEntity
  8
DOGU_1
370
     0
100
AcDbLine
 10
521271.8767806006
 20
4394246.768471146
 30
368.1600036621094
 11
521268.9888866718
 21
4394248.722590506
 31
369.25
  0
LINE
  5
1DA
330
1F
100
AcDbEntity
  8
DOGU_1
370
     0
100
AcDbLine
 10
521268.9888866718
 20
4394248.722590506
 30
369.25
 11
521265.363296037
 21
4394249.074050823
 31
370.0
  0
LINE
  5
1DB
330
1F
100
AcDbEntity
  8
DOGU_1
370
     0
100
AcDbLine
 10
521265.363296037
 20
4394249.074050823
 30
370.0
 11
521253.2536308197
 21
4394242.134457964
 31
374.5
  0
LINE
  5
1DC
330
1F
100
AcDbEntity
  8
DOGU_1
370
     0
100
AcDbLine
 10
521253.2536308197
 20
4394242.134457964
 30
374.5
 11
521257.3601671508
 21
4394240.173679356
 31
374.5
  0
LINE
  5
1DD
330
1F
100
AcDbEntity
  8
DOGU_1
370
     0
100
AcDbLine
 10
521254.5023138307
 20
4394235.162225199
 30
374.5
 11
521250.0985193192
 21
4394237.054017548
 31
374.5
  0
LINE
  5
1DE
330
1F
100
AcDbEntity
  8
DOGU_1
370
     0
100
AcDbLine
 10
521250.0985193192
 20
4394237.054017548
 30
374.5
 11
521242.9014596828
 21
4394238.037540546
 31
374.5
  0
LINE
  5
1DF
330
1F
100
AcDbEntity
  8
DOGU_1
370
     0
100
AcDbLine
 10
521242.9014596828
 20
4394238.037540546
 30
374.5
 11
521231.1734227756
 21
4394240.956729981
 31
378.0
  0
LINE
  5
21E
330
1F
100
AcDbEntity
  8
DOGU_1
370
     0
100
AcDbLine
 10
521259.305572574
 20
4394228.048293172
 30
371.5
 11
521254.5023138307
 21
4394235.162225199
 31
374.5
  0
LINE
  5
21F
330
1F
100
AcDbEntity
  8
DOGU_1
370
     0
100
AcDbLine
 10
521261.7591245077
 20
4394233.242689025
 30
371.5
 11
521257.3601671508
 21
4394240.173679356
 31
374.5
  0
POINT
  5
220
330
1F
100
AcDbEntity
  8
DES_5
370
     0
100
AcDbPoint
 10
521172.3507118655
 20
4394176.514912194
 30
384.9400024414062
  0
POINT
  5
221
330
1F
100
AcDbEntity
  8
DES_5
370
     0
100
AcDbPoint
 10
521181.8004905691
 20
4394167.721509843
 30
382.8200073242188
  0
POINT
  5
222
330
1F
100
AcDbEntity
  8
DES_5
370
     0
100
AcDbPoint
 10
521196.646332924
 20
4394168.779969092
 30
381.1799926757812
  0
POINT
  5
223
330
1F
100
AcDbEntity
  8
DES_5
370
     0
100
AcDbPoint
 10
521184.4390430017
 20
4394171.844054768
 30
382.8200073242188
  0
POINT
  5
224
330
1F
100
AcDbEntity
  8
DES_5
370
     0
100
AcDbPoint
 10
521175.7167923559
 20
4394178.798652258
 30
384.9400024414062
  0
POINT
  5
225
330
1F
100
AcDbEntity
  8
DES_5
370
     0
100
AcDbPoint
 10
521205.0779480006
 20
4394169.721972201
 30
379.7300109863281
  0
POINT
  5
226
330
1F
100
AcDbEntity
  8
DES_5
370
     0
100
AcDbPoint
 10
521219.2506121617
 20
4394171.938881486
 30
377.7000122070312
  0
POINT
  5
227
330
1F
100
AcDbEntity
  8
DES_5
370
     0
100
AcDbPoint
 10
521205.9007665916
 20
4394165.296676477
 30
379.7300109863281
  0
POINT
  5
228
330
1F
100
AcDbEntity
  8
DES_5
370
     0
100
AcDbPoint
 10
521238.498910357
 20
4394175.119293499
 30
372.5
  0
POINT
  5
229
330
1F
100
AcDbEntity
  8
DES_5
370
     0
100
AcDbPoint
 10
521238.498910357
 20
4394175.119293499
 30
372.5
  0
POINT
  5
22A
330
1F
100
AcDbEntity
  8
DES_5
370
     0
100
AcDbPoint
 10
521221.5940610098
 20
4394168.663764484
 30
377.7000122070312
  0
POINT
  5
22B
330
1F
100
AcDbEntity
  8
DES_5
370
     0
100
AcDbPoint
 10
521235.4346840627
 20
4394177.337178723
 30
372.5
  0
POINT
  5
22C
330
1F
100
AcDbEntity
  8
DES_5
370
     0
100
AcDbPoint
 10
521240.0942
 20
4394174.0611
 30
372.5
  0
POINT
  5
22D
330
1F
100
AcDbEntity
  8
DES_5
370
     0
100
AcDbPoint
 10
521243.078
 20
4394176.8857
 30
372.5
  0
POINT
  5
22E
330
1F
100
AcDbEntity
  8
DES_5
370
     0
100
AcDbPoint
 10
521245.1422
 20
4394178.6415
 30
372.5
  0
POINT
  5
22F
330
1F
100
AcDbEntity
  8
DES_5
370
     0
100
AcDbPoint
 10
521247.0071
 20
4394179.4645
 30
372.5
  0
POINT
  5
230
330
1F
100
AcDbEntity
  8
DES_5
370
     0
100
AcDbPoint
 10
521249.8863
 20
4394181.5858
 30
372.5
  0
POINT
  5
231
330
1F
100
AcDbEntity
  8
DES_5
370
     0
100
AcDbPoint
 10
521252.0164
 20
4394183.0191
 30
372.5
  0
POINT
  5
232
330
1F
100
AcDbEntity
  8
DES_5
370
     0
100
AcDbPoint
 10
521245.2042
 20
4394186.3804
 30
372.5
  0
POINT
  5
233
330
1F
100
AcDbEntity
  8
DES_5
370
     0
100
AcDbPoint
 10
521246.3363
 20
4394191.9078
 30
372.5
  0
POINT
  5
234
330
1F
100
AcDbEntity
  8
DES_5
370
     0
100
AcDbPoint
 10
521247.4234
 20
4394195.1417
 30
372.5
  0
POINT
  5
235
330
1F
100
AcDbEntity
  8
DES_5
370
     0
100
AcDbPoint
 10
521250.4478
 20
4394181.6843
 30
372.5
  0
POINT
  5
236
330
1F
100
AcDbEntity
  8
DES_5
370
     0
100
AcDbPoint
 10
521230.0520748798
 20
4394183.356761058
 30
372.5
  0
POINT
  5
237
330
1F
100
AcDbEntity
  8
DES_5
370
     0
100
AcDbPoint
 10
521226.8391362529
 20
4394186.240065286
 30
372.5
  0
POINT
  5
238
330
1F
100
AcDbEntity
  8
DES_5
370
     0
100
AcDbPoint
 10
521227.1778480732
 20
4394188.068164234
 30
372.5
  0
POINT
  5
239
330
1F
100
AcDbEntity
  8
DES_5
370
     0
100
AcDbPoint
 10
521227.7379524841
 20
4394188.460548908
 30
372.5
  0
POINT
  5
23A
330
1F
100
AcDbEntity
  8
DES_5
370
     0
100
AcDbPoint
 10
521231.0436106327
 20
4394187.472620086
 30
372.5
  0
POINT
  5
23B
330
1F
100
AcDbEntity
  8
DES_5
370
     0
100
AcDbPoint
 10
521232.6563059531
 20
4394187.633009769
 30
372.5
  0
POINT
  5
23C
330
1F
100
AcDbEntity
  8
DES_5
370
     0
100
AcDbPoint
 10
521236.0271024854
 20
4394187.419339607
 30
372.5
  0
POINT
  5
23D
330
1F
100
AcDbEntity
  8
DES_5
370
     0
100
AcDbPoint
 10
521239.0791632234
 20
4394190.046835125
 30
372.5
  0
POINT
  5
23E
330
1F
100
AcDbEntity
  8
DES_5
370
     0
100
AcDbPoint
 10
521238.2236406654
 20
4394193.002901249
 30
372.5
  0
POINT
  5
23F
330
1F
100
AcDbEntity
  8
DES_5
370
     0
100
AcDbPoint
 10
521240.0011572636
 20
4394193.686278468
 30
372.5
  0
POINT
  5
240
330
1F
100
AcDbEntity
  8
DES_5
370
     0
100
AcDbPoint
 10
521241.8521389842
 20
4394194.665869355
 30
372.5
  0
POINT
  5
241
330
1F
100
AcDbEntity
  8
DES_5
370
     0
100
AcDbPoint
 10
521243.8271187191
 20
4394195.757002911
 30
372.5
  0
POINT
  5
242
330
1F
100
AcDbEntity
  8
DES_5
370
     0
100
AcDbPoint
 10
521245.6683916429
 20
4394196.590573934
 30
372.5
  0
POINT
  5
243
330
1F
100
AcDbEntity
  8
DES_5
370
     0
100
AcDbPoint
 10
521247.3281620871
 20
4394196.142595692
 30
372.5
  0
POINT
  5
244
330
1F
100
AcDbEntity
  8
DES_5
370
     0
100
AcDbPoint
 10
521245.5123037982
 20
4394185.063210391
 30
372.5
  0
POINT
  5
245
330
1F
100
AcDbEntity
  8
DES_5
370
     0
100
AcDbPoint
 10
521246.6952594001
 20
4394184.890989533
 30
372.5
  0
POINT
  5
246
330
1F
100
AcDbEntity
  8
DES_5
370
     0
100
AcDbPoint
 10
521249.093799265
 20
4394185.38280686
 30
372.5
  0
POINT
  5
247
330
1F
100
AcDbEntity
  8
DES_5
370
     0
100
AcDbPoint
 10
521260.9383875683
 20
4394193.409751586
 30
369.3599853515625
  0
POINT
  5
248
330
1F
100
AcDbEntity
  8
DES_5
370
     0
100
AcDbPoint
 10
521262.4482007534
 20
4394191.204416321
 30
369.3599853515625
  0
POINT
  5
249
330
1F
100
AcDbEntity
  8
DES_5
370
     0
100
AcDbPoint
 10
521262.5689135172
 20
4394190.883318606
 30
369.3599853515625
  0
POINT
  5
24A
330
1F
100
AcDbEntity
  8
DES_5
370
     0
100
AcDbPoint
 10
521262.0411822795
 20
4394192.012959047
 30
369.3599853515625
  0
POINT
  5
24B
330
1F
100
AcDbEntity
  8
DES_5
370
     0
100
AcDbPoint
 10
521262.4482007534
 20
4394191.204416321
 30
369.3599853515625
  0
POINT
  5
24C
330
1F
100
AcDbEntity
  8
DES_5
370
     0
100
AcDbPoint
 10
521262.5689135172
 20
4394190.883318606
 30
369.3599853515625
  0
POINT
  5
24D
330
1F
100
AcDbEntity
  8
DES_5
370
     0
100
AcDbPoint
 10
521262.0411822795
 20
4394192.012959047
 30
369.3599853515625
  0
POINT
  5
24E
330
1F
100
AcDbEntity
  8
DES_5
370
     0
100
AcDbPoint
 10
521195.9729222472
 20
4394164.016786684
 30
381.1799926757812
  0
POINT
  5
24F
330
1F
100
AcDbEntity
  8
DES_5
370
     0
100
AcDbPoint
 10
521254.9047648933
 20
4394179.881689454
 30
379.7799987792969
  0
POINT
  5
250
330
1F
100
AcDbEntity
  8
DES_5
370
     0
100
AcDbPoint
 10
521256.2495643257
 20
4394181.104234394
 30
379.7799987792969
  0
POINT
  5
251
330
1F
100
AcDbEntity
  8
DES_5
370
     0
100
AcDbPoint
 10
521258.9131880702
 20
4394179.162238365
 30
384.3399963378906
  0
POINT
  5
252
330
1F
100
AcDbEntity
  8
DES_5
370
     0
100
AcDbPoint
 10
521258.7460104999
 20
4394177.312061313
 30
384.3399963378906
  0
POINT
  5
253
330
1F
100
AcDbEntity
  8
DES_5
370
     0
100
AcDbPoint
 10
521259.8559857148
 20
4394179.143939672
 30
385.7999877929688
  0
POINT
  5
254
330
1F
100
AcDbEntity
  8
DES_5
370
     0
100
AcDbPoint
 10
521260.6106430847
 20
4394177.219563378
 30
385.7999877929688
  0
LINE
  5
255
330
1F
100
AcDbEntity
  8
DES_5
370
     0
100
AcDbLine
 10
521175.7167923559
 20
4394178.798652258
 30
384.9400024414062
 11
521184.4390430017
 21
4394171.844054768
 31
382.8200073242188
  0
LINE
  5
256
330
1F
100
AcDbEntity
  8
DES_5
370
     0
100
AcDbLine
 10
521184.4390430017
 20
4394171.844054768
 30
382.8200073242188
 11
521196.646332924
 21
4394168.779969092
 31
381.1799926757812
  0
LINE
  5
257
330
1F
100
AcDbEntity
  8
DES_5
370
     0
100
AcDbLine
 10
521196.646332924
 20
4394168.779969092
 30
381.1799926757812
 11
521205.0779480006
 21
4394169.721972201
 31
379.7300109863281
  0
LINE
  5
258
330
1F
100
AcDbEntity
  8
DES_5
370
     0
100
AcDbLine
 10
521205.0779480006
 20
4394169.721972201
 30
379.7300109863281
 11
521219.2506121617
 21
4394171.938881486
 31
377.7000122070312
  0
LINE
  5
259
330
1F
100
AcDbEntity
  8
DES_5
370
     0
100
AcDbLine
 10
521219.2506121617
 20
4394171.938881486
 30
377.7000122070312
 11
521230.0520748798
 21
4394183.356761058
 31
372.5
  0
LINE
  5
25A
330
1F
100
AcDbEntity
  8
DES_5
370
     0
100
AcDbLine
 10
521230.0520748798
 20
4394183.356761058
 30
372.5
 11
521226.8391362529
 21
4394186.240065286
 31
372.5
  0
LINE
  5
25B
330
1F
100
AcDbEntity
  8
DES_5
370
     0
100
AcDbLine
 10
521226.8391362529
 20
4394186.240065286
 30
372.5
 11
521227.1778480732
 21
4394188.068164234
 31
372.5
  0
LINE
  5
25C
330
1F
100
AcDbEntity
  8
DES_5
370
     0
100
AcDbLine
 10
521227.1778480732
 20
4394188.068164234
 30
372.5
 11
521227.7379524841
 21
4394188.460548908
 31
372.5
  0
LINE
  5
25D
330
1F
100
AcDbEntity
  8
DES_5
370
     0
100
AcDbLine
 10
521227.7379524841
 20
4394188.460548908
 30
372.5
 11
521231.0436106327
 21
4394187.472620086
 31
372.5
  0
LINE
  5
25E
330
1F
100
AcDbEntity
  8
DES_5
370
     0
100
AcDbLine
 10
521231.0436106327
 20
4394187.472620086
 30
372.5
 11
521232.6563059531
 21
4394187.633009769
 31
372.5
  0
LINE
  5
25F
330
1F
100
AcDbEntity
  8
DES_5
370
     0
100
AcDbLine
 10
521232.6563059531
 20
4394187.633009769
 30
372.5
 11
521236.0271024854
 21
4394187.419339607
 31
372.5
  0
LINE
  5
260
330
1F
100
AcDbEntity
  8
DES_5
370
     0
100
AcDbLine
 10
521236.0271024854
 20
4394187.419339607
 30
372.5
 11
521239.0791632234
 21
4394190.046835125
 31
372.5
  0
LINE
  5
261
330
1F
100
AcDbEntity
  8
DES_5
370
     0
100
AcDbLine
 10
521239.0791632234
 20
4394190.046835125
 30
372.5
 11
521238.2236406654
 21
4394193.002901249
 31
372.5
  0
LINE
  5
262
330
1F
100
AcDbEntity
  8
DES_5
370
     0
100
AcDbLine
 10
521238.2236406654
 20
4394193.002901249
 30
372.5
 11
521240.0011572636
 21
4394193.686278468
 31
372.5
  0
LINE
  5
263
330
1F
100
AcDbEntity
  8
DES_5
370
     0
100
AcDbLine
 10
521240.0011572636
 20
4394193.686278468
 30
372.5
 11
521241.8521389842
 21
4394194.665869355
 31
372.5
  0
LINE
  5
264
330
1F
100
AcDbEntity
  8
DES_5
370
     0
100
AcDbLine
 10
521241.8521389842
 20
4394194.665869355
 30
372.5
 11
521243.8271187191
 21
4394195.757002911
 31
372.5
  0
LINE
  5
265
330
1F
100
AcDbEntity
  8
DES_5
370
     0
100
AcDbLine
 10
521243.8271187191
 20
4394195.757002911
 30
372.5
 11
521245.6683916429
 21
4394196.590573934
 31
372.5
  0
LINE
  5
266
330
1F
100
AcDbEntity
  8
DES_5
370
     0
100
AcDbLine
 10
521245.6683916429
 20
4394196.590573934
 30
372.5
 11
521247.3281620871
 21
4394196.142595692
 31
372.5
  0
LINE
  5
267
330
1F
100
AcDbEntity
  8
DES_5
370
     0
100
AcDbLine
 10
521247.3281620871
 20
4394196.142595692
 30
372.5
 11
521247.4234
 21
4394195.1417
 31
372.5
  0
LINE
  5
268
330
1F
100
AcDbEntity
  8
DES_5
370
     0
100
AcDbLine
 10
521247.4234
 20
4394195.1417
 30
372.5
 11
521246.3363
 21
4394191.9078
 31
372.5
  0
LINE
  5
269
330
1F
100
AcDbEntity
  8
DES_5
370
     0
100
AcDbLine
 10
521246.3363
 20
4394191.9078
 30
372.5
 11
521245.2042
 21
4394186.3804
 31
372.5
  0
LINE
  5
26A
330
1F
100
AcDbEntity
  8
DES_5
370
     0
100
AcDbLine
 10
521245.2042
 20
4394186.3804
 30
372.5
 11
521245.5123037982
 21
4394185.063210391
 31
372.5
  0
LINE
  5
26B
330
1F
100
AcDbEntity
  8
DES_5
370
     0
100
AcDbLine
 10
521245.5123037982
 20
4394185.063210391
 30
372.5
 11
521246.6952594001
 21
4394184.890989533
 31
372.5
  0
LINE
  5
26C
330
1F
100
AcDbEntity
  8
DES_5
370
     0
100
AcDbLine
 10
521246.6952594001
 20
4394184.890989533
 30
372.5
 11
521249.093799265
 21
4394185.38280686
 31
372.5
  0
LINE
  5
26D
330
1F
100
AcDbEntity
  8
DES_5
370
     0
100
AcDbLine
 10
521249.093799265
 20
4394185.38280686
 30
372.5
 11
521260.9383875683
 21
4394193.409751586
 31
369.3599853515625
  0
LINE
  5
26E
330
1F
100
AcDbEntity
  8
DES_5
370
     0
100
AcDbLine
 10
521260.9383875683
 20
4394193.409751586
 30
369.3599853515625
 11
521262.0411822795
 21
4394192.012959047
 31
369.3599853515625
  0
LINE
  5
26F
330
1F
100
AcDbEntity
  8
DES_5
370
     0
100
AcDbLine
 10
521262.0411822795
 20
4394192.012959047
 30
369.3599853515625
 11
521262.4482007534
 21
4394191.204416321
 31
369.3599853515625
  0
LINE
  5
270
330
1F
100
AcDbEntity
  8
DES_5
370
     0
100
AcDbLine
 10
521262.4482007534
 20
4394191.204416321
 30
369.3599853515625
 11
521262.5689135172
 21
4394190.883318606
 31
369.3599853515625
  0
LINE
  5
271
330
1F
100
AcDbEntity
  8
DES_5
370
     0
100
AcDbLine
 10
521262.5689135172
 20
4394190.883318606
 30
369.3599853515625
 11
521252.0164
 21
4394183.0191
 31
372.5
  0
LINE
  5
272
330
1F
100
AcDbEntity
  8
DES_5
370
     0
100
AcDbLine
 10
521252.0164
 20
4394183.0191
 30
372.5
 11
521256.2495643257
 21
4394181.104234394
 31
379.7799987792969
  0
LINE
  5
273
330
1F
100
AcDbEntity
  8
DES_5
370
     0
100
AcDbLine
 10
521256.2495643257
 20
4394181.104234394
 30
379.7799987792969
 11
521258.9131880702
 21
4394179.162238365
 31
384.3399963378906
  0
LINE
  5
274
330
1F
100
AcDbEntity
  8
DES_5
370
     0
100
AcDbLine
 10
521258.9131880702
 20
4394179.162238365
 30
384.3399963378906
 11
521259.8559857148
 21
4394179.143939672
 31
385.7999877929688
  0
LINE
  5
275
330
1F
100
AcDbEntity
  8
DES_5
370
     0
100
AcDbLine
 10
521260.6106430847
 20
4394177.219563378
 30
385.7999877929688
 11
521258.7460104999
 21
4394177.312061313
 31
384.3399963378906
  0
LINE
  5
276
330
1F
100
AcDbEntity
  8
DES_5
370
     0
100
AcDbLine
 10
521258.7460104999
 20
4394177.312061313
 30
384.3399963378906
 11
521254.9047648933
 21
4394179.881689454
 31
379.7799987792969
  0
LINE
  5
277
330
1F
100
AcDbEntity
  8
DES_5
370
     0
100
AcDbLine
 10
521254.9047648933
 20
4394179.881689454
 30
379.7799987792969
 11
521250.4478
 21
4394181.6843
 31
372.5
  0
LINE
  5
278
330
1F
100
AcDbEntity
  8
DES_5
370
     0
100
AcDbLine
 10
521250.4478
 20
4394181.6843
 30
372.5
 11
521249.8863
 21
4394181.5858
 31
372.5
  0
LINE
  5
279
330
1F
100
AcDbEntity
  8
DES_5
370
     0
100
AcDbLine
 10
521249.8863
 20
4394181.5858
 30
372.5
 11
521247.0071
 21
4394179.4645
 31
372.5
  0
LINE
  5
27A
330
1F
100
AcDbEntity
  8
DES_5
370
     0
100
AcDbLine
 10
521247.0071
 20
4394179.4645
 30
372.5
 11
521245.1422
 21
4394178.6415
 31
372.5
  0
LINE
  5
27B
330
1F
100
AcDbEntity
  8
DES_5
370
     0
100
AcDbLine
 10
521245.1422
 20
4394178.6415
 30
372.5
 11
521243.078
 21
4394176.8857
 31
372.5
  0
LINE
  5
27C
330
1F
100
AcDbEntity
  8
DES_5
370
     0
100
AcDbLine
 10
521243.078
 20
4394176.8857
 30
372.5
 11
521240.0942
 21
4394174.0611
 31
372.5
  0
LINE
  5
27D
330
1F
100
AcDbEntity
  8
DES_5
370
     0
100
AcDbLine
 10
521240.0942
 20
4394174.0611
 30
372.5
 11
521238.498910357
 21
4394175.119293499
 31
372.5
  0
LINE
  5
27E
330
1F
100
AcDbEntity
  8
DES_5
370
     0
100
AcDbLine
 10
521238.498910357
 20
4394175.119293499
 30
372.5
 11
521235.4346840627
 21
4394177.337178723
 31
372.5
  0
LINE
  5
27F
330
1F
100
AcDbEntity
  8
DES_5
370
     0
100
AcDbLine
 10
521235.4346840627
 20
4394177.337178723
 30
372.5
 11
521221.5940610098
 21
4394168.663764484
 31
377.7000122070312
  0
LINE
  5
280
330
1F
100
AcDbEntity
  8
DES_5
370
     0
100
AcDbLine
 10
521221.5940610098
 20
4394168.663764484
 30
377.7000122070312
 11
521205.9007665916
 21
4394165.296676477
 31
379.7300109863281
  0
LINE
  5
281
330
1F
100
AcDbEntity
  8
DES_5
370
     0
100
AcDbLine
 10
521205.9007665916
 20
4394165.296676477
 30
379.7300109863281
 11
521195.9729222472
 21
4394164.016786684
 31
381.1799926757812
  0
LINE
  5
282
330
1F
100
AcDbEntity
  8
DES_5
370
     0
100
AcDbLine
 10
521195.9729222472
 20
4394164.016786684
 30
381.1799926757812
 11
521181.8004905691
 21
4394167.721509843
 31
382.8200073242188
  0
LINE
  5
283
330
1F
100
AcDbEntity
  8
DES_5
370
     0
100
AcDbLine
 10
521181.8004905691
 20
4394167.721509843
 30
382.8200073242188
 11
521172.3507118655
 21
4394176.514912194
 31
384.9400024414062
  0
POINT
  5
289
330
1F
100
AcDbEntity
  8
MEVCUT_SISTEM
370
     0
100
AcDbPoint
 10
521120.1539
 20
4394211.6963
 30
394.93798828125
  0
POINT
  5
28A
330
1F
100
AcDbEntity
  8
MEVCUT_SISTEM
370
     0
100
AcDbPoint
 10
521125.9361
 20
4394211.8183
 30
394.93798828125
  0
POINT
  5
28B
330
1F
100
AcDbEntity
  8
MEVCUT_SISTEM
370
     0
100
AcDbPoint
 10
521132.1483
 20
4394211.4177
 30
394.4800109863281
  0
POINT
  5
28C
330
1F
100
AcDbEntity
  8
MEVCUT_SISTEM
370
     0
100
AcDbPoint
 10
521149.0434
 20
4394206.6456
 30
390.9299926757812
  0
POINT
  5
28D
330
1F
100
AcDbEntity
  8
MEVCUT_SISTEM
370
     0
100
AcDbPoint
 10
521136.3567
 20
4394214.4309
 30
394.4800109863281
  0
POINT
  5
28E
330
1F
100
AcDbEntity
  8
MEVCUT_SISTEM
370
     0
100
AcDbPoint
 10
521130.6874
 20
4394216.3469
 30
394.93798828125
  0
POINT
  5
28F
330
1F
100
AcDbEntity
  8
MEVCUT_SISTEM
370
     0
100
AcDbPoint
 10
521124.3442
 20
4394217.0679
 30
394.93798828125
  0
POINT
  5
290
330
1F
100
AcDbEntity
  8
MEVCUT_SISTEM
370
     0
100
AcDbPoint
 10
521144.9771151274
 20
4394203.651259972
 30
390.9299926757812
  0
POINT
  5
291
330
1F
100
AcDbEntity
  8
MEVCUT_SISTEM
370
     0
100
AcDbPoint
 10
521157.6626
 20
4394192.3726
 30
388.4200134277344
  0
POINT
  5
292
330
1F
100
AcDbEntity
  8
MEVCUT_SISTEM
370
     0
100
AcDbPoint
 10
521174.6349
 20
4394180.9007
 30
387.0
  0
POINT
  5
293
330
1F
100
AcDbEntity
  8
MEVCUT_SISTEM
370
     0
100
AcDbPoint
 10
521174.7639
 20
4394181.0243
 30
387.0
  0
POINT
  5
294
330
1F
100
AcDbEntity
  8
DES_5
370
     0
100
AcDbPoint
 10
521169.4853
 20
4394179.923
 30
387.0
  0
POINT
  5
295
330
1F
100
AcDbEntity
  8
DES_5
370
     0
100
AcDbPoint
 10
521169.2715
 20
4394180.0441
 30
387.0
  0
POINT
  5
296
330
1F
100
AcDbEntity
  8
MEVCUT_SISTEM
370
     0
100
AcDbPoint
 10
521185.0036
 20
4394181.273
 30
386.7000122070312
  0
POINT
  5
298
330
1F
100
AcDbEntity
  8
MEVCUT_SISTEM
370
     0
100
AcDbPoint
 10
521176.3784
 20
4394185.8561
 30
387.0
  0
POINT
  5
299
330
1F
100
AcDbEntity
  8
MEVCUT_SISTEM
370
     0
100
AcDbPoint
 10
521166.2688
 20
4394190.1492
 30
387.5299987792969
  0
POINT
  5
29A
330
1F
100
AcDbEntity
  8
MEVCUT_SISTEM
370
     0
100
AcDbPoint
 10
521161.5339
 20
4394193.9889
 30
388.4200134277344
  0
POINT
  5
29B
330
1F
100
AcDbEntity
  8
MEVCUT_SISTEM
370
     0
100
AcDbPoint
 10
521164.0965893954
 20
4394185.222327785
 30
387.5299987792969
  0
POINT
  5
29C
330
1F
100
AcDbEntity
  8
MEVCUT_SISTEM
370
     0
100
AcDbPoint
 10
521176.5949
 20
4394181.0959
 30
387.0
  0
POINT
  5
29D
330
1F
100
AcDbEntity
  8
MEVCUT_SISTEM
370
     0
100
AcDbPoint
 10
521200.4274
 20
4394189.3196
 30
387.7999877929688
  0
POINT
  5
29E
330
1F
100
AcDbEntity
  8
MEVCUT_SISTEM
370
     0
100
AcDbPoint
 10
521205.5309
 20
4394193.7386
 30
387.7999877929688
  0
POINT
  5
29F
330
1F
100
AcDbEntity
  8
MEVCUT_SISTEM
370
     0
100
AcDbPoint
 10
521210.9006
 20
4394198.2202
 30
387.7999877929688
  0
POINT
  5
2A0
330
1F
100
AcDbEntity
  8
MEVCUT_SISTEM
370
     0
100
AcDbPoint
 10
521215.4959
 20
4394204.2931
 30
387.7999877929688
  0
POINT
  5
2A1
330
1F
100
AcDbEntity
  8
MEVCUT_SISTEM
370
     0
100
AcDbPoint
 10
521200.8147
 20
4394196.6931
 30
387.7999877929688
  0
POINT
  5
2A2
330
1F
100
AcDbEntity
  8
MEVCUT_SISTEM
370
     0
100
AcDbPoint
 10
521195.6841
 20
4394192.2756
 30
387.7999877929688
  0
POINT
  5
2A3
330
1F
100
AcDbEntity
  8
MEVCUT_SISTEM
370
     0
100
AcDbPoint
 10
521188.6541
 20
4394188.0859
 30
387.3399963378906
  0
POINT
  5
2A4
330
1F
100
AcDbEntity
  8
MEVCUT_SISTEM
370
     0
100
AcDbPoint
 10
521182.232
 20
4394185.6991
 30
386.7000122070312
  0
POINT
  5
2A5
330
1F
100
AcDbEntity
  8
MEVCUT_SISTEM
370
     0
100
AcDbPoint
 10
521216.7088
 20
4394205.0799
 30
387.7999877929688
  0
POINT
  5
2A6
330
1F
100
AcDbEntity
  8
MEVCUT_SISTEM
370
     0
100
AcDbPoint
 10
521224.7769
 20
4394209.4417
 30
385.7000122070312
  0
POINT
  5
2A7
330
1F
100
AcDbEntity
  8
MEVCUT_SISTEM
370
     0
100
AcDbPoint
 10
521229.0106
 20
4394216.1341
 30
383.8999938964844
  0
POINT
  5
2A8
330
1F
100
AcDbEntity
  8
MEVCUT_SISTEM
370
     0
100
AcDbPoint
 10
521223.0369
 20
4394218.368
 30
383.8999938964844
  0
POINT
  5
2A9
330
1F
100
AcDbEntity
  8
MEVCUT_SISTEM
370
     0
100
AcDbPoint
 10
521219.2748
 20
4394213.2423
 30
385.7000122070312
  0
POINT
  5
2AA
330
1F
100
AcDbEntity
  8
MEVCUT_SISTEM
370
     0
100
AcDbPoint
 10
521215.1832
 20
4394210.4197
 30
387.7999877929688
  0
POINT
  5
2AB
330
1F
100
AcDbEntity
  8
MEVCUT_SISTEM
370
     0
100
AcDbPoint
 10
521205.4158
 20
4394206.0588
 30
387.7999877929688
  0
POINT
  5
2AC
330
1F
100
AcDbEntity
  8
MEVCUT_SISTEM
370
     0
100
AcDbPoint
 10
521209.0765
 20
4394209.1332
 30
387.7999877929688
  0
POINT
  5
2AD
330
1F
100
AcDbEntity
  8
MEVCUT_SISTEM
370
     0
100
AcDbPoint
 10
521224.0261
 20
4394238.5622
 30
379.4500122070312
  0
POINT
  5
2AE
330
1F
100
AcDbEntity
  8
MEVCUT_SISTEM
370
     0
100
AcDbPoint
 10
521220.013
 20
4394250.1329
 30
379.4500122070312
  0
POINT
  5
2AF
330
1F
100
AcDbEntity
  8
MEVCUT_SISTEM
370
     0
100
AcDbPoint
 10
521227.0867
 20
4394245.3022
 30
379.4500122070312
  0
POINT
  5
2B0
330
1F
100
AcDbEntity
  8
MEVCUT_SISTEM
370
     0
100
AcDbPoint
 10
521227.9592
 20
4394245.2054
 30
379.4500122070312
  0
POINT
  5
2B1
330
1F
100
AcDbEntity
  8
MEVCUT_SISTEM
370
     0
100
AcDbPoint
 10
521228.4515
 20
4394238.4495
 30
379.4500122070312
  0
POINT
  5
2B2
330
1F
100
AcDbEntity
  8
MEVCUT_SISTEM
370
     0
100
AcDbPoint
 10
521218.6953
 20
4394252.3764
 30
379.4500122070312
  0
POINT
  5
2B3
330
1F
100
AcDbEntity
  8
MEVCUT_SISTEM
370
     0
100
AcDbPoint
 10
521218.6953
 20
4394252.3764
 30
379.4500122070312
  0
POINT
  5
2B4
330
1F
100
AcDbEntity
  8
MEVCUT_SISTEM
370
     0
100
AcDbPoint
 10
521220.0302
 20
4394250.5125
 30
379.4500122070312
  0
POINT
  5
2B5
330
1F
100
AcDbEntity
  8
MEVCUT_SISTEM
370
     0
100
AcDbPoint
 10
521222.4822
 20
4394257.4531
 30
379.0075988769531
  0
POINT
  5
2B6
330
1F
100
AcDbEntity
  8
MEVCUT_SISTEM
370
     0
100
AcDbPoint
 10
521221.1166
 20
4394265.3684
 30
377.7999877929688
  0
POINT
  5
2B7
330
1F
100
AcDbEntity
  8
MEVCUT_SISTEM
370
     0
100
AcDbPoint
 10
521216.2298
 20
4394272.8829
 30
376.0
  0
POINT
  5
2B8
330
1F
100
AcDbEntity
  8
MEVCUT_SISTEM
370
     0
100
AcDbPoint
 10
521216.9
 20
4394262.9279
 30
377.7999877929688
  0
POINT
  5
2B9
330
1F
100
AcDbEntity
  8
MEVCUT_SISTEM
370
     0
100
AcDbPoint
 10
521216.598
 20
4394258.1698
 30
379.0350036621094
  0
POINT
  5
2BA
330
1F
100
AcDbEntity
  8
MEVCUT_SISTEM
370
     0
100
AcDbPoint
 10
521209.9588
 20
4394251.6024
 30
379.4500122070312
  0
POINT
  5
2BB
330
1F
100
AcDbEntity
  8
MEVCUT_SISTEM
370
     0
100
AcDbPoint
 10
521205.0914
 20
4394249.4219
 30
379.4500122070312
  0
POINT
  5
2BC
330
1F
100
AcDbEntity
  8
MEVCUT_SISTEM
370
     0
100
AcDbPoint
 10
521203.2543
 20
4394245.1223
 30
379.4500122070312
  0
POINT
  5
2BD
330
1F
100
AcDbEntity
  8
MEVCUT_SISTEM
370
     0
100
AcDbPoint
 10
521204.6581
 20
4394243.7286
 30
379.4500122070312
  0
POINT
  5
2BE
330
1F
100
AcDbEntity
  8
MEVCUT_SISTEM
370
     0
100
AcDbPoint
 10
521206.4672
 20
4394238.8172
 30
379.4500122070312
  0
POINT
  5
2BF
330
1F
100
AcDbEntity
  8
MEVCUT_SISTEM
370
     0
100
AcDbPoint
 10
521205.671
 20
4394234.0076
 30
379.4500122070312
  0
POINT
  5
2C0
330
1F
100
AcDbEntity
  8
MEVCUT_SISTEM
370
     0
100
AcDbPoint
 10
521210.0724
 20
4394235.7472
 30
379.4500122070312
  0
POINT
  5
2C1
330
1F
100
AcDbEntity
  8
MEVCUT_SISTEM
370
     0
100
AcDbPoint
 10
521214.659
 20
4394240.9957
 30
379.4500122070312
  0
POINT
  5
2C2
330
1F
100
AcDbEntity
  8
MEVCUT_SISTEM
370
     0
100
AcDbPoint
 10
521219.9677
 20
4394242.062
 30
379.4500122070312
  0
POINT
  5
2C3
330
1F
100
AcDbEntity
  8
MEVCUT_SISTEM
370
     0
100
AcDbPoint
 10
521223.2813
 20
4394240.5135
 30
379.4500122070312
  0
POINT
  5
2C4
330
1F
100
AcDbEntity
  8
MEVCUT_SISTEM
370
     0
100
AcDbPoint
 10
521210.7275
 20
4394276.3671
 30
375.4800109863281
  0
POINT
  5
2C5
330
1F
100
AcDbEntity
  8
MEVCUT_SISTEM
370
     0
100
AcDbPoint
 10
521205.9809
 20
4394273.1336
 30
375.4800109863281
  0
POINT
  5
2C6
330
1F
100
AcDbEntity
  8
MEVCUT_SISTEM
370
     0
100
AcDbPoint
 10
521211.5774
 20
4394270.6143
 30
376.0
  0
POINT
  5
2C7
330
1F
100
AcDbEntity
  8
MEVCUT_SISTEM
370
     0
100
AcDbPoint
 10
521194.9013
 20
4394272.7197
 30
372.8599853515625
  0
POINT
  5
2C8
330
1F
100
AcDbEntity
  8
MEVCUT_SISTEM
370
     0
100
AcDbPoint
 10
521192.3905
 20
4394271.7187
 30
372.4500122070312
  0
POINT
  5
2C9
330
1F
100
AcDbEntity
  8
MEVCUT_SISTEM
370
     0
100
AcDbPoint
 10
521188.6379
 20
4394267.8386
 30
371.6700134277344
  0
POINT
  5
2CA
330
1F
100
AcDbEntity
  8
MEVCUT_SISTEM
370
     0
100
AcDbPoint
 10
521181.0129
 20
4394266.7034
 30
370.4500122070312
  0
POINT
  5
2CB
330
1F
100
AcDbEntity
  8
MEVCUT_SISTEM
370
     0
100
AcDbPoint
 10
521185.3177
 20
4394272.6231
 30
371.6700134277344
  0
POINT
  5
2CC
330
1F
100
AcDbEntity
  8
MEVCUT_SISTEM
370
     0
100
AcDbPoint
 10
521189.9324
 20
4394276.4389
 30
372.4500122070312
  0
POINT
  5
2CD
330
1F
100
AcDbEntity
  8
MEVCUT_SISTEM
370
     0
100
AcDbPoint
 10
521194.5094
 20
4394277.7302
 30
372.8599853515625
  0
POINT
  5
2CE
330
1F
100
AcDbEntity
  8
MEVCUT_SISTEM
370
     0
100
AcDbPoint
 10
521167.3375
 20
4394259.3058
 30
369.7000122070312
  0
POINT
  5
2CF
330
1F
100
AcDbEntity
  8
MEVCUT_SISTEM
370
     0
100
AcDbPoint
 10
521163.8515
 20
4394259.5679
 30
369.7000122070312
  0
POINT
  5
2DD
330
1F
100
AcDbEntity
  8
MEVCUT_SISTEM
370
     0
100
AcDbPoint
 10
521169.1629
 20
4394252.4493
 30
369.7000122070312
  0
POINT
  5
2DE
330
1F
100
AcDbEntity
  8
MEVCUT_SISTEM
370
     0
100
AcDbPoint
 10
521172.3817
 20
4394256.1373
 30
369.7000122070312
  0
POINT
  5
2DF
330
1F
100
AcDbEntity
  8
MEVCUT_SISTEM
370
     0
100
AcDbPoint
 10
521183.2918
 20
4394263.3591
 30
370.4500122070312
  0
POINT
  5
2E0
330
1F
100
AcDbEntity
  8
MEVCUT_SISTEM
370
     0
100
AcDbPoint
 10
521169.2053
 20
4394252.0038
 30
369.7000122070312
  0
POINT
  5
2E1
330
1F
100
AcDbEntity
  8
MEVCUT_SISTEM
370
     0
100
AcDbPoint
 10
521165.5675
 20
4394259.7786
 30
369.7000122070312
  0
POINT
  5
2F6
330
1F
100
AcDbEntity
  8
MEVCUT_SISTEM
370
     0
100
AcDbPoint
 10
521125.9361
 20
4394211.8183
 30
394.93798828125
  0
POINT
  5
2F7
330
1F
100
AcDbEntity
  8
MEVCUT_SISTEM
370
     0
100
AcDbPoint
 10
521124.3442
 20
4394217.0679
 30
394.93798828125
  0
POINT
  5
2FA
330
1F
100
AcDbEntity
  8
MEVCUT_SISTEM
370
     0
100
AcDbPoint
 10
521128.9606369184
 20
4394215.008266271
 30
367.0
  0
LINE
  5
303
330
1F
100
AcDbEntity
  8
MEVCUT_SISTEM
370
     0
100
AcDbLine
 10
521120.1539
 20
4394211.6963
 30
394.93798828125
 11
521125.9361
 21
4394211.8183
 31
394.93798828125
  0
LINE
  5
304
330
1F
100
AcDbEntity
  8
MEVCUT_SISTEM
370
     0
100
AcDbLine
 10
521125.9361
 20
4394211.8183
 30
394.93798828125
 11
521132.1483
 21
4394211.4177
 31
394.4800109863281
  0
LINE
  5
305
330
1F
100
AcDbEntity
  8
MEVCUT_SISTEM
370
     0
100
AcDbLine
 10
521132.1483
 20
4394211.4177
 30
394.4800109863281
 11
521144.9771151274
 21
4394203.651259972
 31
390.9299926757812
  0
LINE
  5
306
330
1F
100
AcDbEntity
  8
MEVCUT_SISTEM
370
     0
100
AcDbLine
 10
521144.9771151274
 20
4394203.651259972
 30
390.9299926757812
 11
521157.6626
 21
4394192.3726
 31
388.4200134277344
  0
LINE
  5
307
330
1F
100
AcDbEntity
  8
MEVCUT_SISTEM
370
     0
100
AcDbLine
 10
521157.6626
 20
4394192.3726
 30
388.4200134277344
 11
521164.0965893954
 21
4394185.222327785
 31
387.5299987792969
  0
LINE
  5
308
330
1F
100
AcDbEntity
  8
DES_5
370
     0
100
AcDbLine
 10
521164.096589395
 20
4394185.22232778
 30
387.5299987792969
 11
521169.2715
 21
4394180.0441
 31
387.0
  0
LINE
  5
309
330
1F
100
AcDbEntity
  8
DES_5
370
     0
100
AcDbLine
 10
521169.2715
 20
4394180.0441
 30
387.0
 11
521169.4853
 21
4394179.923
 31
387.0
  0
LINE
  5
30A
330
1F
100
AcDbEntity
  8
MEVCUT_SISTEM
370
     0
100
AcDbLine
 10
521174.6349
 20
4394180.9007
 30
387.0
 11
521174.7639
 21
4394181.0243
 31
387.0
  0
LINE
  5
30B
330
1F
100
AcDbEntity
  8
MEVCUT_SISTEM
370
     0
100
AcDbLine
 10
521174.7639
 20
4394181.0243
 30
387.0
 11
521176.5949
 21
4394181.0959
 31
387.0
  0
LINE
  5
30C
330
1F
100
AcDbEntity
  8
MEVCUT_SISTEM
370
     0
100
AcDbLine
 10
521176.5949
 20
4394181.0959
 30
387.0
 11
521185.0036
 21
4394181.273
 31
386.7000122070312
  0
LINE
  5
30F
330
1F
100
AcDbEntity
  8
MEVCUT_SISTEM
370
     0
100
AcDbLine
 10
521200.4274
 20
4394189.3196
 30
387.7999877929688
 11
521205.5309
 21
4394193.7386
 31
387.7999877929688
  0
LINE
  5
310
330
1F
100
AcDbEntity
  8
MEVCUT_SISTEM
370
     0
100
AcDbLine
 10
521205.5309
 20
4394193.7386
 30
387.7999877929688
 11
521210.9006
 21
4394198.2202
 31
387.7999877929688
  0
LINE
  5
311
330
1F
100
AcDbEntity
  8
MEVCUT_SISTEM
370
     0
100
AcDbLine
 10
521210.9006
 20
4394198.2202
 30
387.7999877929688
 11
521215.4959
 21
4394204.2931
 31
387.7999877929688
  0
LINE
  5
312
330
1F
100
AcDbEntity
  8
MEVCUT_SISTEM
370
     0
100
AcDbLine
 10
521215.4959
 20
4394204.2931
 30
387.7999877929688
 11
521216.7088
 21
4394205.0799
 31
387.7999877929688
  0
LINE
  5
313
330
1F
100
AcDbEntity
  8
MEVCUT_SISTEM
370
     0
100
AcDbLine
 10
521216.7088
 20
4394205.0799
 30
387.7999877929688
 11
521224.7769
 21
4394209.4417
 31
385.7000122070312
  0
LINE
  5
314
330
1F
100
AcDbEntity
  8
MEVCUT_SISTEM
370
     0
100
AcDbLine
 10
521224.7769
 20
4394209.4417
 30
385.7000122070312
 11
521229.0106
 21
4394216.1341
 31
383.8999938964844
  0
LINE
  5
315
330
1F
100
AcDbEntity
  8
MEVCUT_SISTEM
370
     0
100
AcDbLine
 10
521229.0106
 20
4394216.1341
 30
383.8999938964844
 11
521228.4515
 21
4394238.4495
 31
379.4500122070312
  0
LINE
  5
316
330
1F
100
AcDbEntity
  8
MEVCUT_SISTEM
370
     0
100
AcDbLine
 10
521227.9592
 20
4394245.2054
 30
379.4500122070312
 11
521227.0867
 21
4394245.3022
 31
379.4500122070312
  0
LINE
  5
317
330
1F
100
AcDbEntity
  8
MEVCUT_SISTEM
370
     0
100
AcDbLine
 10
521227.0867
 20
4394245.3022
 30
379.4500122070312
 11
521220.013
 21
4394250.1329
 31
379.4500122070312
  0
LINE
  5
318
330
1F
100
AcDbEntity
  8
MEVCUT_SISTEM
370
     0
100
AcDbLine
 10
521220.013
 20
4394250.1329
 30
379.4500122070312
 11
521220.0302
 21
4394250.5125
 31
379.4500122070312
  0
LINE
  5
319
330
1F
100
AcDbEntity
  8
MEVCUT_SISTEM
370
     0
100
AcDbLine
 10
521220.0302
 20
4394250.5125
 30
379.4500122070312
 11
521218.6953
 21
4394252.3764
 31
379.4500122070312
  0
LINE
  5
31A
330
1F
100
AcDbEntity
  8
MEVCUT_SISTEM
370
     0
100
AcDbLine
 10
521218.6953
 20
4394252.3764
 30
379.4500122070312
 11
521222.4822
 21
4394257.4531
 31
379.0075988769531
  0
LINE
  5
31B
330
1F
100
AcDbEntity
  8
MEVCUT_SISTEM
370
     0
100
AcDbLine
 10
521222.4822
 20
4394257.4531
 30
379.0075988769531
 11
521221.1166
 21
4394265.3684
 31
377.7999877929688
  0
LINE
  5
31C
330
1F
100
AcDbEntity
  8
MEVCUT_SISTEM
370
     0
100
AcDbLine
 10
521221.1166
 20
4394265.3684
 30
377.7999877929688
 11
521216.2298
 21
4394272.8829
 31
376.0
  0
LINE
  5
31D
330
1F
100
AcDbEntity
  8
MEVCUT_SISTEM
370
     0
100
AcDbLine
 10
521216.2298
 20
4394272.8829
 30
376.0
 11
521210.7275
 21
4394276.3671
 31
375.4800109863281
  0
LINE
  5
31E
330
1F
100
AcDbEntity
  8
MEVCUT_SISTEM
370
     0
100
AcDbLine
 10
521210.7275
 20
4394276.3671
 30
375.4800109863281
 11
521194.5094
 21
4394277.7302
 31
372.8599853515625
  0
LINE
  5
31F
330
1F
100
AcDbEntity
  8
MEVCUT_SISTEM
370
     0
100
AcDbLine
 10
521194.5094
 20
4394277.7302
 30
372.8599853515625
 11
521189.9324
 21
4394276.4389
 31
372.4500122070312
  0
LINE
  5
320
330
1F
100
AcDbEntity
  8
MEVCUT_SISTEM
370
     0
100
AcDbLine
 10
521189.9324
 20
4394276.4389
 30
372.4500122070312
 11
521185.3177
 21
4394272.6231
 31
371.6700134277344
  0
LINE
  5
321
330
1F
100
AcDbEntity
  8
MEVCUT_SISTEM
370
     0
100
AcDbLine
 10
521185.3177
 20
4394272.6231
 30
371.6700134277344
 11
521181.0129
 21
4394266.7034
 31
370.4500122070312
  0
LINE
  5
322
330
1F
100
AcDbEntity
  8
MEVCUT_SISTEM
370
     0
100
AcDbLine
 10
521181.0129
 20
4394266.7034
 30
370.4500122070312
 11
521167.3375
 21
4394259.3058
 31
369.7000122070312
  0
LINE
  5
323
330
1F
100
AcDbEntity
  8
MEVCUT_SISTEM
370
     0
100
AcDbLine
 10
521167.3375
 20
4394259.3058
 30
369.7000122070312
 11
521165.5675
 21
4394259.7786
 31
369.7000122070312
  0
LINE
  5
324
330
1F
100
AcDbEntity
  8
MEVCUT_SISTEM
370
     0
100
AcDbLine
 10
521165.5675
 20
4394259.7786
 30
369.7000122070312
 11
521163.8515
 21
4394259.5679
 31
369.7000122070312
  0
LINE
  5
356
330
1F
100
AcDbEntity
  8
MEVCUT_SISTEM
370
     0
100
AcDbLine
 10
521169.2053
 20
4394252.0038
 30
369.7000122070312
 11
521169.1629
 21
4394252.4493
 31
369.7000122070312
  0
LINE
  5
357
330
1F
100
AcDbEntity
  8
MEVCUT_SISTEM
370
     0
100
AcDbLine
 10
521169.1629
 20
4394252.4493
 30
369.7000122070312
 11
521172.3817
 21
4394256.1373
 31
369.7000122070312
  0
LINE
  5
358
330
1F
100
AcDbEntity
  8
MEVCUT_SISTEM
370
     0
100
AcDbLine
 10
521172.3817
 20
4394256.1373
 30
369.7000122070312
 11
521183.2918
 21
4394263.3591
 31
370.4500122070312
  0
LINE
  5
359
330
1F
100
AcDbEntity
  8
MEVCUT_SISTEM
370
     0
100
AcDbLine
 10
521183.2918
 20
4394263.3591
 30
370.4500122070312
 11
521188.6379
 21
4394267.8386
 31
371.6700134277344
  0
LINE
  5
35A
330
1F
100
AcDbEntity
  8
MEVCUT_SISTEM
370
     0
100
AcDbLine
 10
521188.6379
 20
4394267.8386
 30
371.6700134277344
 11
521192.3905
 21
4394271.7187
 31
372.4500122070312
  0
LINE
  5
35B
330
1F
100
AcDbEntity
  8
MEVCUT_SISTEM
370
     0
100
AcDbLine
 10
521192.3905
 20
4394271.7187
 30
372.4500122070312
 11
521194.9013
 21
4394272.7197
 31
372.8599853515625
  0
LINE
  5
35C
330
1F
100
AcDbEntity
  8
MEVCUT_SISTEM
370
     0
100
AcDbLine
 10
521194.9013
 20
4394272.7197
 30
372.8599853515625
 11
521205.9809
 21
4394273.1336
 31
375.4800109863281
  0
LINE
  5
35D
330
1F
100
AcDbEntity
  8
MEVCUT_SISTEM
370
     0
100
AcDbLine
 10
521205.9809
 20
4394273.1336
 30
375.4800109863281
 11
521211.5774
 21
4394270.6143
 31
376.0
  0
LINE
  5
35E
330
1F
100
AcDbEntity
  8
MEVCUT_SISTEM
370
     0
100
AcDbLine
 10
521211.5774
 20
4394270.6143
 30
376.0
 11
521216.9
 21
4394262.9279
 31
377.7999877929688
  0
LINE
  5
35F
330
1F
100
AcDbEntity
  8
MEVCUT_SISTEM
370
     0
100
AcDbLine
 10
521216.9
 20
4394262.9279
 30
377.7999877929688
 11
521216.598
 21
4394258.1698
 31
379.0350036621094
  0
LINE
  5
360
330
1F
100
AcDbEntity
  8
MEVCUT_SISTEM
370
     0
100
AcDbLine
 10
521216.598
 20
4394258.1698
 30
379.0350036621094
 11
521209.9588
 21
4394251.6024
 31
379.4500122070312
  0
LINE
  5
361
330
1F
100
AcDbEntity
  8
MEVCUT_SISTEM
370
     0
100
AcDbLine
 10
521209.9588
 20
4394251.6024
 30
379.4500122070312
 11
521205.0914
 21
4394249.4219
 31
379.4500122070312
  0
LINE
  5
362
330
1F
100
AcDbEntity
  8
MEVCUT_SISTEM
370
     0
100
AcDbLine
 10
521205.0914
 20
4394249.4219
 30
379.4500122070312
 11
521203.2543
 21
4394245.1223
 31
379.4500122070312
  0
LINE
  5
363
330
1F
100
AcDbEntity
  8
MEVCUT_SISTEM
370
     0
100
AcDbLine
 10
521203.2543
 20
4394245.1223
 30
379.4500122070312
 11
521204.6581
 21
4394243.7286
 31
379.4500122070312
  0
LINE
  5
364
330
1F
100
AcDbEntity
  8
MEVCUT_SISTEM
370
     0
100
AcDbLine
 10
521204.6581
 20
4394243.7286
 30
379.4500122070312
 11
521206.4672
 21
4394238.8172
 31
379.4500122070312
  0
LINE
  5
365
330
1F
100
AcDbEntity
  8
MEVCUT_SISTEM
370
     0
100
AcDbLine
 10
521206.4672
 20
4394238.8172
 30
379.4500122070312
 11
521205.671
 21
4394234.0076
 31
379.4500122070312
  0
LINE
  5
366
330
1F
100
AcDbEntity
  8
MEVCUT_SISTEM
370
     0
100
AcDbLine
 10
521205.671
 20
4394234.0076
 30
379.4500122070312
 11
521210.0724
 21
4394235.7472
 31
379.4500122070312
  0
LINE
  5
367
330
1F
100
AcDbEntity
  8
MEVCUT_SISTEM
370
     0
100
AcDbLine
 10
521210.0724
 20
4394235.7472
 30
379.4500122070312
 11
521214.659
 21
4394240.9957
 31
379.4500122070312
  0
LINE
  5
368
330
1F
100
AcDbEntity
  8
MEVCUT_SISTEM
370
     0
100
AcDbLine
 10
521214.659
 20
4394240.9957
 30
379.4500122070312
 11
521219.9677
 21
4394242.062
 31
379.4500122070312
  0
LINE
  5
369
330
1F
100
AcDbEntity
  8
MEVCUT_SISTEM
370
     0
100
AcDbLine
 10
521219.9677
 20
4394242.062
 30
379.4500122070312
 11
521223.2813
 21
4394240.5135
 31
379.4500122070312
  0
LINE
  5
36A
330
1F
100
AcDbEntity
  8
MEVCUT_SISTEM
370
     0
100
AcDbLine
 10
521223.2813
 20
4394240.5135
 30
379.4500122070312
 11
521224.0261
 21
4394238.5622
 31
379.4500122070312
  0
LINE
  5
36B
330
1F
100
AcDbEntity
  8
MEVCUT_SISTEM
370
     0
100
AcDbLine
 10
521224.0261
 20
4394238.5622
 30
379.4500122070312
 11
521223.0369
 21
4394218.368
 31
383.8999938964844
  0
LINE
  5
36C
330
1F
100
AcDbEntity
  8
MEVCUT_SISTEM
370
     0
100
AcDbLine
 10
521223.0369
 20
4394218.368
 30
383.8999938964844
 11
521219.2748
 21
4394213.2423
 31
385.7000122070312
  0
LINE
  5
36D
330
1F
100
AcDbEntity
  8
MEVCUT_SISTEM
370
     0
100
AcDbLine
 10
521219.2748
 20
4394213.2423
 30
385.7000122070312
 11
521215.1832
 21
4394210.4197
 31
387.7999877929688
  0
LINE
  5
36E
330
1F
100
AcDbEntity
  8
MEVCUT_SISTEM
370
     0
100
AcDbLine
 10
521215.1832
 20
4394210.4197
 30
387.7999877929688
 11
521209.0765
 21
4394209.1332
 31
387.7999877929688
  0
LINE
  5
36F
330
1F
100
AcDbEntity
  8
MEVCUT_SISTEM
370
     0
100
AcDbLine
 10
521209.0765
 20
4394209.1332
 30
387.7999877929688
 11
521205.4158
 21
4394206.0588
 31
387.7999877929688
  0
LINE
  5
370
330
1F
100
AcDbEntity
  8
MEVCUT_SISTEM
370
     0
100
AcDbLine
 10
521205.4158
 20
4394206.0588
 30
387.7999877929688
 11
521200.8147
 21
4394196.6931
 31
387.7999877929688
  0
LINE
  5
371
330
1F
100
AcDbEntity
  8
MEVCUT_SISTEM
370
     0
100
AcDbLine
 10
521200.8147
 20
4394196.6931
 30
387.7999877929688
 11
521195.6841
 21
4394192.2756
 31
387.7999877929688
  0
LINE
  5
372
330
1F
100
AcDbEntity
  8
MEVCUT_SISTEM
370
     0
100
AcDbLine
 10
521195.6841
 20
4394192.2756
 30
387.7999877929688
 11
521188.6541
 21
4394188.0859
 31
387.3399963378906
  0
LINE
  5
373
330
1F
100
AcDbEntity
  8
MEVCUT_SISTEM
370
     0
100
AcDbLine
 10
521188.6541
 20
4394188.0859
 30
387.3399963378906
 11
521182.232
 21
4394185.6991
 31
386.7000122070312
  0
LINE
  5
374
330
1F
100
AcDbEntity
  8
MEVCUT_SISTEM
370
     0
100
AcDbLine
 10
521182.232
 20
4394185.6991
 30
386.7000122070312
 11
521176.3784
 21
4394185.8561
 31
387.0
  0
LINE
  5
375
330
1F
100
AcDbEntity
  8
MEVCUT_SISTEM
370
     0
100
AcDbLine
 10
521176.3784
 20
4394185.8561
 30
387.0
 11
521166.2688
 21
4394190.1492
 31
387.5299987792969
  0
LINE
  5
376
330
1F
100
AcDbEntity
  8
MEVCUT_SISTEM
370
     0
100
AcDbLine
 10
521166.2688
 20
4394190.1492
 30
387.5299987792969
 11
521161.5339
 21
4394193.9889
 31
388.4200134277344
  0
LINE
  5
377
330
1F
100
AcDbEntity
  8
MEVCUT_SISTEM
370
     0
100
AcDbLine
 10
521161.5339
 20
4394193.9889
 30
388.4200134277344
 11
521149.0434
 21
4394206.6456
 31
390.9299926757812
  0
LINE
  5
378
330
1F
100
AcDbEntity
  8
MEVCUT_SISTEM
370
     0
100
AcDbLine
 10
521149.0434
 20
4394206.6456
 30
390.9299926757812
 11
521136.3567
 21
4394214.4309
 31
394.4800109863281
  0
LINE
  5
379
330
1F
100
AcDbEntity
  8
MEVCUT_SISTEM
370
     0
100
AcDbLine
 10
521136.3567
 20
4394214.4309
 30
394.4800109863281
 11
521130.6874
 21
4394216.3469
 31
394.93798828125
  0
LINE
  5
37A
330
1F
100
AcDbEntity
  8
MEVCUT_SISTEM
370
     0
100
AcDbLine
 10
521130.6874
 20
4394216.3469
 30
394.93798828125
 11
521124.3442
 21
4394217.0679
 31
394.93798828125
  0
POINT
  5
37B
330
1F
100
AcDbEntity
  8
MEVCUT_SISTEM
370
     0
100
AcDbPoint
 10
521115.1883465575
 20
4394270.27684983
 30
349.0599975585938
  0
POINT
  5
37D
330
1F
100
AcDbEntity
  8
MEVCUT_SISTEM
370
     0
100
AcDbPoint
 10
521119.4255389428
 20
4394271.10783514
 30
349.0599975585938
  0
POINT
  5
37E
330
1F
100
AcDbEntity
  8
MEVCUT_SISTEM
370
     0
100
AcDbPoint
 10
521111.5304130869
 20
4394272.216450789
 30
349.0599975585938
  0
POINT
  5
387
330
1F
100
AcDbEntity
  8
MEVCUT_SISTEM
370
     0
100
AcDbPoint
 10
521107.4112
 20
4394264.4349
 30
349.0599975585938
  0
POINT
  5
38D
330
1F
100
AcDbEntity
  8
MEVCUT_SISTEM
370
     0
100
AcDbPoint
 10
521120.5285374632
 20
4394269.81404719
 30
349.0599975585938
  0
POINT
  5
466
330
1F
100
AcDbEntity
  8
MEVCUT_SISTEM
370
     0
100
AcDbPoint
 10
521158.4193
 20
4394256.1518
 30
366.5899963378906
  0
POINT
  5
467
330
1F
100
AcDbEntity
  8
MEVCUT_SISTEM
370
     0
100
AcDbPoint
 10
521163.8515
 20
4394259.5679
 30
366.5899963378906
  0
POINT
  5
468
330
1F
100
AcDbEntity
  8
MEVCUT_SISTEM
370
     0
100
AcDbPoint
 10
521156.5
 20
4394260.507
 30
366.0
  0
POINT
  5
469
330
1F
100
AcDbEntity
  8
MEVCUT_SISTEM
370
     0
100
AcDbPoint
 10
521159.3722
 20
4394263.9761
 30
366.0
  0
POINT
  5
46A
330
1F
100
AcDbEntity
  8
MEVCUT_SISTEM
370
     0
100
AcDbPoint
 10
521148.907
 20
4394275.559
 30
360.0
  0
POINT
  5
46B
330
1F
100
AcDbEntity
  8
MEVCUT_SISTEM
370
     0
100
AcDbPoint
 10
521151.532
 20
4394277.878
 30
360.0
  0
POINT
  5
46C
330
1F
100
AcDbEntity
  8
MEVCUT_SISTEM
370
     0
100
AcDbPoint
 10
521145.08
 20
4394279.83
 30
358.2999877929688
  0
POINT
  5
46D
330
1F
100
AcDbEntity
  8
MEVCUT_SISTEM
370
     0
100
AcDbPoint
 10
521149.313
 20
4394281.4
 30
358.2999877929688
  0
POINT
  5
46E
330
1F
100
AcDbEntity
  8
MEVCUT_SISTEM
370
     0
100
AcDbPoint
 10
521141.742
 20
4394282.12
 30
358.0
  0
POINT
  5
46F
330
1F
100
AcDbEntity
  8
MEVCUT_SISTEM
370
     0
100
AcDbPoint
 10
521143.069
 20
4394286.417
 30
358.0
  0
POINT
  5
470
330
1F
100
AcDbEntity
  8
MEVCUT_SISTEM
370
     0
100
AcDbPoint
 10
521133.113
 20
4394285.592
 30
354.0
  0
POINT
  5
471
330
1F
100
AcDbEntity
  8
MEVCUT_SISTEM
370
     0
100
AcDbPoint
 10
521135.716
 20
4394289.39
 30
354.0
  0
POINT
  5
472
330
1F
100
AcDbEntity
  8
MEVCUT_SISTEM
370
     0
100
AcDbPoint
 10
521124.786
 20
4394285.324
 30
353.0
  0
POINT
  5
473
330
1F
100
AcDbEntity
  8
MEVCUT_SISTEM
370
     0
100
AcDbPoint
 10
521125.123
 20
4394290.137
 30
353.0
  0
POINT
  5
474
330
1F
100
AcDbEntity
  8
MEVCUT_SISTEM
370
     0
100
AcDbPoint
 10
521121.75
 20
4394283.004
 30
352.1900024414062
  0
POINT
  5
475
330
1F
100
AcDbEntity
  8
MEVCUT_SISTEM
370
     0
100
AcDbPoint
 10
521117.668
 20
4394285.907
 30
352.1900024414062
  0
POINT
  5
476
330
1F
100
AcDbEntity
  8
MEVCUT_SISTEM
370
     0
100
AcDbPoint
 10
521118.9465
 20
4394275.393
 30
349.75
  0
POINT
  5
477
330
1F
100
AcDbEntity
  8
MEVCUT_SISTEM
370
     0
100
AcDbPoint
 10
521114.8645
 20
4394277.4005
 30
349.75
  0
LINE
  5
47B
330
1F
100
AcDbEntity
  8
MEVCUT_SISTEM
370
     0
100
AcDbLine
 10
521156.5
 20
4394260.507
 30
366.0
 11
521148.907
 21
4394275.559
 31
360.0
  0
LINE
  5
47C
330
1F
100
AcDbEntity
  8
MEVCUT_SISTEM
370
     0
100
AcDbLine
 10
521148.907
 20
4394275.559
 30
360.0
 11
521145.08
 21
4394279.83
 31
358.2999877929688
  0
LINE
  5
47D
330
1F
100
AcDbEntity
  8
MEVCUT_SISTEM
370
     0
100
AcDbLine
 10
521145.08
 20
4394279.83
 30
358.2999877929688
 11
521141.742
 21
4394282.12
 31
358.0
  0
LINE
  5
47E
330
1F
100
AcDbEntity
  8
MEVCUT_SISTEM
370
     0
100
AcDbLine
 10
521141.742
 20
4394282.12
 30
358.0
 11
521133.113
 21
4394285.592
 31
354.0
  0
LINE
  5
47F
330
1F
100
AcDbEntity
  8
MEVCUT_SISTEM
370
     0
100
AcDbLine
 10
521133.113
 20
4394285.592
 30
354.0
 11
521124.786
 21
4394285.324
 31
353.0
  0
LINE
  5
480
330
1F
100
AcDbEntity
  8
MEVCUT_SISTEM
370
     0
100
AcDbLine
 10
521124.786
 20
4394285.324
 30
353.0
 11
521121.75
 21
4394283.004
 31
352.1900024414062
  0
LINE
  5
481
330
1F
100
AcDbEntity
  8
MEVCUT_SISTEM
370
     0
100
AcDbLine
 10
521121.75
 20
4394283.004
 30
352.1900024414062
 11
521118.9465
 21
4394275.393
 31
349.75
  0
LINE
  5
482
330
1F
100
AcDbEntity
  8
MEVCUT_SISTEM
370
     0
100
AcDbLine
 10
521118.9465
 20
4394275.393
 30
349.75
 11
521119.4255389428
 21
4394271.10783514
 31
349.0599975585938
  0
LINE
  5
483
330
1F
100
AcDbEntity
  8
MEVCUT_SISTEM
370
     0
100
AcDbLine
 10
521119.4255389428
 20
4394271.10783514
 30
349.0599975585938
 11
521120.5285374632
 21
4394269.81404719
 31
349.0599975585938
  0
LINE
  5
484
330
1F
100
AcDbEntity
  8
MEVCUT_SISTEM
370
     0
100
AcDbLine
 10
521159.3722
 20
4394263.9761
 30
366.0
 11
521151.532
 21
4394277.878
 31
360.0
  0
LINE
  5
485
330
1F
100
AcDbEntity
  8
MEVCUT_SISTEM
370
     0
100
AcDbLine
 10
521151.532
 20
4394277.878
 30
360.0
 11
521149.313
 21
4394281.4
 31
358.2999877929688
  0
LINE
  5
486
330
1F
100
AcDbEntity
  8
MEVCUT_SISTEM
370
     0
100
AcDbLine
 10
521149.313
 20
4394281.4
 30
358.2999877929688
 11
521143.069
 21
4394286.417
 31
358.0
  0
LINE
  5
487
330
1F
100
AcDbEntity
  8
MEVCUT_SISTEM
370
     0
100
AcDbLine
 10
521143.069
 20
4394286.417
 30
358.0
 11
521135.716
 21
4394289.39
 31
354.0
  0
LINE
  5
488
330
1F
100
AcDbEntity
  8
MEVCUT_SISTEM
370
     0
100
AcDbLine
 10
521135.716
 20
4394289.39
 30
354.0
 11
521125.123
 21
4394290.137
 31
353.0
  0
LINE
  5
489
330
1F
100
AcDbEntity
  8
MEVCUT_SISTEM
370
     0
100
AcDbLine
 10
521125.123
 20
4394290.137
 30
353.0
 11
521117.668
 21
4394285.907
 31
352.1900024414062
  0
LINE
  5
48A
330
1F
100
AcDbEntity
  8
MEVCUT_SISTEM
370
     0
100
AcDbLine
 10
521117.668
 20
4394285.907
 30
352.1900024414062
 11
521114.8645
 21
4394277.4005
 31
349.75
  0
LINE
  5
48B
330
1F
100
AcDbEntity
  8
MEVCUT_SISTEM
370
     0
100
AcDbLine
 10
521114.8645
 20
4394277.4005
 30
349.75
 11
521111.5304130869
 21
4394272.216450789
 31
349.0599975585938
  0
LINE
  5
48C
330
1F
100
AcDbEntity
  8
MEVCUT_SISTEM
370
     0
100
AcDbLine
 10
521111.5304130869
 20
4394272.216450789
 30
349.0599975585938
 11
521107.4112
 21
4394264.4349
 31
349.0599975585938
  0
POINT
  5
56F
330
1F
100
AcDbEntity
  8
MEVCUT_SISTEM
370
     0
100
AcDbPoint
 10
521046.254
 20
4394062.139
 30
394.5
  0
POINT
  5
570
330
1F
100
AcDbEntity
  8
MEVCUT_SISTEM
370
     0
100
AcDbPoint
 10
521045.609
 20
4394057.201
 30
394.5
  0
POINT
  5
571
330
1F
100
AcDbEntity
  8
MEVCUT_SISTEM
370
     0
100
AcDbPoint
 10
521041.285
 20
4394054.917
 30
394.5
  0
POINT
  5
572
330
1F
100
AcDbEntity
  8
MEVCUT_SISTEM
370
     0
100
AcDbPoint
 10
521036.867
 20
4394055.826
 30
394.5
  0
POINT
  5
573
330
1F
100
AcDbEntity
  8
MEVCUT_SISTEM
370
     0
100
AcDbPoint
 10
521038.132
 20
4394050.502
 30
394.5
  0
POINT
  5
574
330
1F
100
AcDbEntity
  8
MEVCUT_SISTEM
370
     0
100
AcDbPoint
 10
521043.235
 20
4394046.103
 30
394.5
  0
POINT
  5
575
330
1F
100
AcDbEntity
  8
MEVCUT_SISTEM
370
     0
100
AcDbPoint
 10
521050.658
 20
4394049.012
 30
394.5
  0
POINT
  5
576
330
1F
100
AcDbEntity
  8
MEVCUT_SISTEM
370
     0
100
AcDbPoint
 10
521050.396
 20
4394055.511
 30
394.5
  0
POINT
  5
577
330
1F
100
AcDbEntity
  8
MEVCUT_SISTEM
370
     0
100
AcDbPoint
 10
521052.06
 20
4394059.613
 30
394.5
  0
POINT
  5
578
330
1F
100
AcDbEntity
  8
MEVCUT_SISTEM
370
     0
100
AcDbPoint
 10
521055.187
 20
4394065.224
 30
394.5
  0
POINT
  5
579
330
1F
100
AcDbEntity
  8
MEVCUT_SISTEM
370
     0
100
AcDbPoint
 10
521060.251
 20
4394072.671
 30
394.5
  0
POINT
  5
57A
330
1F
100
AcDbEntity
  8
MEVCUT_SISTEM
370
     0
100
AcDbPoint
 10
521065.968
 20
4394081.285
 30
394.5
  0
POINT
  5
57B
330
1F
100
AcDbEntity
  8
MEVCUT_SISTEM
370
     0
100
AcDbPoint
 10
521079.439
 20
4394102.477
 30
394.5
  0
POINT
  5
57C
330
1F
100
AcDbEntity
  8
MEVCUT_SISTEM
370
     0
100
AcDbPoint
 10
521081.837
 20
4394109.475
 30
394.5
  0
POINT
  5
57D
330
1F
100
AcDbEntity
  8
MEVCUT_SISTEM
370
     0
100
AcDbPoint
 10
521070.0
 20
4394095.494
 30
394.5
  0
POINT
  5
57E
330
1F
100
AcDbEntity
  8
MEVCUT_SISTEM
370
     0
100
AcDbPoint
 10
521055.98
 20
4394075.697
 30
394.5
  0
POINT
  5
57F
330
1F
100
AcDbEntity
  8
MEVCUT_SISTEM
370
     0
100
AcDbPoint
 10
521052.337
 20
4394068.625
 30
394.5
  0
POINT
  5
580
330
1F
100
AcDbEntity
  8
MEVCUT_SISTEM
370
     0
100
AcDbPoint
 10
521049.487
 20
4394064.721
 30
394.5
  0
POINT
  5
581
330
1F
100
AcDbEntity
  8
MEVCUT_SISTEM
370
     0
100
AcDbPoint
 10
521089.4
 20
4394148.455
 30
394.5
  0
POINT
  5
582
330
1F
100
AcDbEntity
  8
MEVCUT_SISTEM
370
     0
100
AcDbPoint
 10
521087.413
 20
4394142.338
 30
394.5
  0
POINT
  5
583
330
1F
100
AcDbEntity
  8
MEVCUT_SISTEM
370
     0
100
AcDbPoint
 10
521086.817
 20
4394133.4
 30
394.5
  0
POINT
  5
584
330
1F
100
AcDbEntity
  8
MEVCUT_SISTEM
370
     0
100
AcDbPoint
 10
521085.567
 20
4394124.074
 30
394.5
  0
POINT
  5
585
330
1F
100
AcDbEntity
  8
MEVCUT_SISTEM
370
     0
100
AcDbPoint
 10
521083.989
 20
4394120.777
 30
394.5
  0
POINT
  5
586
330
1F
100
AcDbEntity
  8
MEVCUT_SISTEM
370
     0
100
AcDbPoint
 10
521088.561
 20
4394118.448
 30
394.5
  0
POINT
  5
587
330
1F
100
AcDbEntity
  8
MEVCUT_SISTEM
370
     0
100
AcDbPoint
 10
521089.883
 20
4394123.347
 30
394.5
  0
POINT
  5
588
330
1F
100
AcDbEntity
  8
MEVCUT_SISTEM
370
     0
100
AcDbPoint
 10
521091.295
 20
4394128.808
 30
394.5
  0
POINT
  5
589
330
1F
100
AcDbEntity
  8
MEVCUT_SISTEM
370
     0
100
AcDbPoint
 10
521094.677
 20
4394147.935
 30
394.5
  0
POINT
  5
58A
330
1F
100
AcDbEntity
  8
MEVCUT_SISTEM
370
     0
100
AcDbPoint
 10
521092.553
 20
4394133.585
 30
394.5
  0
POINT
  5
58B
330
1F
100
AcDbEntity
  8
MEVCUT_SISTEM
370
     0
100
AcDbPoint
 10
521096.573
 20
4394161.438
 30
394.5
  0
POINT
  5
58C
330
1F
100
AcDbEntity
  8
MEVCUT_SISTEM
370
     0
100
AcDbPoint
 10
521102.444
 20
4394194.779
 30
394.5
  0
POINT
  5
58D
330
1F
100
AcDbEntity
  8
MEVCUT_SISTEM
370
     0
100
AcDbPoint
 10
521094.66
 20
4394179.575
 30
394.5
  0
POINT
  5
58E
330
1F
100
AcDbEntity
  8
MEVCUT_SISTEM
370
     0
100
AcDbPoint
 10
521092.626
 20
4394181.463
 30
394.5
  0
POINT
  5
58F
330
1F
100
AcDbEntity
  8
MEVCUT_SISTEM
370
     0
100
AcDbPoint
 10
521088.339
 20
4394183.124
 30
394.5
  0
POINT
  5
590
330
1F
100
AcDbEntity
  8
MEVCUT_SISTEM
370
     0
100
AcDbPoint
 10
521082.971
 20
4394184.154
 30
394.5
  0
POINT
  5
591
330
1F
100
AcDbEntity
  8
MEVCUT_SISTEM
370
     0
100
AcDbPoint
 10
521076.527
 20
4394184.044
 30
394.5
  0
POINT
  5
592
330
1F
100
AcDbEntity
  8
MEVCUT_SISTEM
370
     0
100
AcDbPoint
 10
521068.361
 20
4394184.483
 30
394.5
  0
POINT
  5
593
330
1F
100
AcDbEntity
  8
MEVCUT_SISTEM
370
     0
100
AcDbPoint
 10
521068.197
 20
4394189.187
 30
394.5
  0
POINT
  5
594
330
1F
100
AcDbEntity
  8
MEVCUT_SISTEM
370
     0
100
AcDbPoint
 10
521077.067
 20
4394190.656
 30
394.5
  0
POINT
  5
595
330
1F
100
AcDbEntity
  8
MEVCUT_SISTEM
370
     0
100
AcDbPoint
 10
521092.166
 20
4394188.304
 30
394.5
  0
POINT
  5
596
330
1F
100
AcDbEntity
  8
MEVCUT_SISTEM
370
     0
100
AcDbPoint
 10
521094.817
 20
4394188.262
 30
394.5
  0
POINT
  5
597
330
1F
100
AcDbEntity
  8
MEVCUT_SISTEM
370
     0
100
AcDbPoint
 10
521096.764
 20
4394190.604
 30
394.5
  0
POINT
  5
598
330
1F
100
AcDbEntity
  8
MEVCUT_SISTEM
370
     0
100
AcDbPoint
 10
521097.212
 20
4394194.245
 30
394.5
  0
POINT
  5
599
330
1F
100
AcDbEntity
  8
MEVCUT_SISTEM
370
     0
100
AcDbPoint
 10
521098.064
 20
4394201.873
 30
394.5
  0
POINT
  5
59A
330
1F
100
AcDbEntity
  8
MEVCUT_SISTEM
370
     0
100
AcDbPoint
 10
521099.835
 20
4394208.556
 30
394.5
  0
POINT
  5
59C
330
1F
100
AcDbEntity
  8
MEVCUT_SISTEM
370
     0
100
AcDbPoint
 10
521102.711
 20
4394191.521
 30
394.5
  0
POINT
  5
59D
330
1F
100
AcDbEntity
  8
MEVCUT_SISTEM
370
     0
100
AcDbPoint
 10
521101.386
 20
4394183.637
 30
394.5
  0
POINT
  5
59E
330
1F
100
AcDbEntity
  8
MEVCUT_SISTEM
370
     0
100
AcDbPoint
 10
521102.377
 20
4394181.855
 30
394.5
  0
POINT
  5
59F
330
1F
100
AcDbEntity
  8
MEVCUT_SISTEM
370
     0
100
AcDbPoint
 10
521097.473
 20
4394197.225
 30
394.5
  0
POINT
  5
5A0
330
1F
100
AcDbEntity
  8
MEVCUT_SISTEM
370
     0
100
AcDbPoint
 10
521085.066
 20
4394190.197
 30
394.5
  0
POINT
  5
5A1
330
1F
100
AcDbEntity
  8
MEVCUT_SISTEM
370
     0
100
AcDbPoint
 10
521091.318
 20
4394187.722
 30
394.5
  0
POINT
  5
5A2
330
1F
100
AcDbEntity
  8
MEVCUT_SISTEM
370
     0
100
AcDbPoint
 10
521090.31
 20
4394188.521
 30
394.5
  0
POINT
  5
5A3
330
1F
100
AcDbEntity
  8
MEVCUT_SISTEM
370
     0
100
AcDbPoint
 10
521105.927
 20
4394224.9
 30
394.5
  0
POINT
  5
5A4
330
1F
100
AcDbEntity
  8
MEVCUT_SISTEM
370
     0
100
AcDbPoint
 10
521099.784
 20
4394209.801
 30
394.5
  0
POINT
  5
5A5
330
1F
100
AcDbEntity
  8
MEVCUT_SISTEM
370
     0
100
AcDbPoint
 10
521098.793
 20
4394204.269
 30
394.5
  0
POINT
  5
5A6
330
1F
100
AcDbEntity
  8
MEVCUT_SISTEM
370
     0
100
AcDbPoint
 10
521102.832
 20
4394199.029
 30
394.5
  0
POINT
  5
5A7
330
1F
100
AcDbEntity
  8
MEVCUT_SISTEM
370
     0
100
AcDbPoint
 10
521104.647
 20
4394207.073
 30
394.5
  0
POINT
  5
5A8
330
1F
100
AcDbEntity
  8
MEVCUT_SISTEM
370
     0
100
AcDbPoint
 10
521105.761
 20
4394207.984
 30
394.5
  0
POINT
  5
5AE
330
1F
100
AcDbEntity
  8
MEVCUT_SISTEM
370
     0
100
AcDbPoint
 10
521112.022
 20
4394226.865
 30
394.5
  0
POINT
  5
5B5
330
1F
100
AcDbEntity
  8
MEVCUT_SISTEM
370
     0
100
AcDbPoint
 10
521102.884
 20
4394193.16
 30
394.5
  0
POINT
  5
5B6
330
1F
100
AcDbEntity
  8
MEVCUT_SISTEM
370
     0
100
AcDbPoint
 10
521103.531
 20
4394191.482
 30
394.5
  0
POINT
  5
5B7
330
1F
100
AcDbEntity
  8
MEVCUT_SISTEM
370
     0
100
AcDbPoint
 10
521006.351
 20
4394030.831
 30
394.5
  0
POINT
  5
5B8
330
1F
100
AcDbEntity
  8
395KOTU
370
     0
100
AcDbPoint
 10
521009.56
 20
4394029.123
 30
394.5
  0
POINT
  5
5B9
330
1F
100
AcDbEntity
  8
395KOTU
370
     0
100
AcDbPoint
 10
521020.845
 20
4394023.469
 30
394.5
  0
POINT
  5
5BA
330
1F
100
AcDbEntity
  8
395KOTU
370
     0
100
AcDbPoint
 10
521015.277
 20
4394030.313
 30
394.5
  0
POINT
  5
5BB
330
1F
100
AcDbEntity
  8
MEVCUT_SISTEM
370
     0
100
AcDbPoint
 10
521010.227
 20
4394034.472
 30
394.5
  0
POINT
  5
5BC
330
1F
100
AcDbEntity
  8
395KOTU
370
     0
100
AcDbPoint
 10
521035.214
 20
4394032.075
 30
394.5
  0
POINT
  5
5BD
330
1F
100
AcDbEntity
  8
395KOTU
370
     0
100
AcDbPoint
 10
521027.267
 20
4394025.387
 30
394.5
  0
POINT
  5
5BE
330
1F
100
AcDbEntity
  8
395KOTU
370
     0
100
AcDbPoint
 10
521021.789
 20
4394023.121
 30
394.5
  0
POINT
  5
5BF
330
1F
100
AcDbEntity
  8
395KOTU
370
     0
100
AcDbPoint
 10
521010.994
 20
4394026.857
 30
394.5
  0
POINT
  5
5C0
330
1F
100
AcDbEntity
  8
395KOTU
370
     0
100
AcDbPoint
 10
521009.348
 20
4394024.932
 30
394.5
  0
POINT
  5
5C1
330
1F
100
AcDbEntity
  8
395KOTU
370
     0
100
AcDbPoint
 10
521014.795
 20
4394020.991
 30
394.5
  0
POINT
  5
5C2
330
1F
100
AcDbEntity
  8
395KOTU
370
     0
100
AcDbPoint
 10
521018.13
 20
4394018.103
 30
394.5
  0
POINT
  5
5C3
330
1F
100
AcDbEntity
  8
395KOTU
370
     0
100
AcDbPoint
 10
521026.145
 20
4394016.018
 30
394.5
  0
POINT
  5
5C4
330
1F
100
AcDbEntity
  8
395KOTU
370
     0
100
AcDbPoint
 10
521029.944
 20
4394020.782
 30
394.5
  0
POINT
  5
5C5
330
1F
100
AcDbEntity
  8
395KOTU
370
     0
100
AcDbPoint
 10
521031.447
 20
4394022.893
 30
394.5
  0
POINT
  5
5C6
330
1F
100
AcDbEntity
  8
395KOTU
370
     0
100
AcDbPoint
 10
521041.444
 20
4394031.44
 30
394.5
  0
POINT
  5
5C7
330
1F
100
AcDbEntity
  8
395KOTU
370
     0
100
AcDbPoint
 10
521042.593
 20
4394042.482
 30
394.5
  0
POINT
  5
5C8
330
1F
100
AcDbEntity
  8
395KOTU
370
     0
100
AcDbPoint
 10
521037.798
 20
4394034.713
 30
394.5
  0
POINT
  5
5C9
330
1F
100
AcDbEntity
  8
395KOTU
370
     0
100
AcDbPoint
 10
521043.451
 20
4394033.158
 30
394.5
  0
POINT
  5
5CA
330
1F
100
AcDbEntity
  8
395KOTU
370
     0
100
AcDbPoint
 10
521047.115
 20
4394040.196
 30
394.5
  0
POINT
  5
5CB
330
1F
100
AcDbEntity
  8
MEVCUT_SISTEM
370
     0
100
AcDbPoint
 10
521035.3990729504
 20
4394052.105087454
 30
394.5
  0
LINE
  5
5CC
330
1F
100
AcDbEntity
  8
MEVCUT_SISTEM
370
     0
100
AcDbLine
 10
521125.737
 20
4394226.357
 30
394.5
 11
521119.465
 21
4394225.159
 31
394.5
  0
LINE
  5
5CD
330
1F
100
AcDbEntity
  8
MEVCUT_SISTEM
370
     0
100
AcDbLine
 10
521119.465
 20
4394225.159
 30
394.5
 11
521117.295
 21
4394225.678
 31
394.5
  0
LINE
  5
5CE
330
1F
100
AcDbEntity
  8
MEVCUT_SISTEM
370
     0
100
AcDbLine
 10
521117.295
 20
4394225.678
 30
394.5
 11
521112.022
 21
4394226.865
 31
394.5
  0
LINE
  5
5CF
330
1F
100
AcDbEntity
  8
MEVCUT_SISTEM
370
     0
100
AcDbLine
 10
521123.669
 20
4394221.748
 30
394.5
 11
521120.869
 21
4394221.389
 31
394.5
  0
LINE
  5
5D0
330
1F
100
AcDbEntity
  8
MEVCUT_SISTEM
370
     0
100
AcDbLine
 10
521120.869
 20
4394221.389
 30
394.5
 11
521112.897
 21
4394219.346
 31
394.5
  0
LINE
  5
5D1
330
1F
100
AcDbEntity
  8
MEVCUT_SISTEM
370
     0
100
AcDbLine
 10
521112.897
 20
4394219.346
 30
394.5
 11
521111.517
 21
4394218.762
 31
394.5
  0
LINE
  5
5D2
330
1F
100
AcDbEntity
  8
MEVCUT_SISTEM
370
     0
100
AcDbLine
 10
521111.517
 20
4394218.762
 30
394.5
 11
521109.66
 21
4394214.608
 31
394.5
  0
LINE
  5
5D3
330
1F
100
AcDbEntity
  8
MEVCUT_SISTEM
370
     0
100
AcDbLine
 10
521109.66
 20
4394214.608
 30
394.5
 11
521117.748
 21
4394216.561
 31
394.5
  0
LINE
  5
5D4
330
1F
100
AcDbEntity
  8
MEVCUT_SISTEM
370
     0
100
AcDbLine
 10
521115.623
 20
4394210.744
 30
394.5
 11
521110.559
 21
4394208.826
 31
394.5
  0
LINE
  5
5D5
330
1F
100
AcDbEntity
  8
MEVCUT_SISTEM
370
     0
100
AcDbLine
 10
521110.559
 20
4394208.826
 30
394.5
 11
521105.761
 21
4394207.984
 31
394.5
  0
LINE
  5
5D6
330
1F
100
AcDbEntity
  8
MEVCUT_SISTEM
370
     0
100
AcDbLine
 10
521105.761
 20
4394207.984
 30
394.5
 11
521104.647
 21
4394207.073
 31
394.5
  0
LINE
  5
5D7
330
1F
100
AcDbEntity
  8
MEVCUT_SISTEM
370
     0
100
AcDbLine
 10
521104.647
 20
4394207.073
 30
394.5
 11
521103.647
 21
4394204.535
 31
394.5
  0
LINE
  5
5D8
330
1F
100
AcDbEntity
  8
MEVCUT_SISTEM
370
     0
100
AcDbLine
 10
521103.647
 20
4394204.535
 30
394.5
 11
521102.832
 21
4394199.029
 31
394.5
  0
LINE
  5
5D9
330
1F
100
AcDbEntity
  8
MEVCUT_SISTEM
370
     0
100
AcDbLine
 10
521102.832
 20
4394199.029
 30
394.5
 11
521102.444
 21
4394194.779
 31
394.5
  0
LINE
  5
5DA
330
1F
100
AcDbEntity
  8
MEVCUT_SISTEM
370
     0
100
AcDbLine
 10
521102.444
 20
4394194.779
 30
394.5
 11
521102.884
 21
4394193.16
 31
394.5
  0
LINE
  5
5DB
330
1F
100
AcDbEntity
  8
MEVCUT_SISTEM
370
     0
100
AcDbLine
 10
521102.884
 20
4394193.16
 30
394.5
 11
521103.531
 21
4394191.482
 31
394.5
  0
LINE
  5
5DC
330
1F
100
AcDbEntity
  8
MEVCUT_SISTEM
370
     0
100
AcDbLine
 10
521103.531
 20
4394191.482
 30
394.5
 11
521102.711
 21
4394191.521
 31
394.5
  0
LINE
  5
5DD
330
1F
100
AcDbEntity
  8
MEVCUT_SISTEM
370
     0
100
AcDbLine
 10
521102.711
 20
4394191.521
 30
394.5
 11
521101.386
 21
4394183.637
 31
394.5
  0
LINE
  5
5DE
330
1F
100
AcDbEntity
  8
MEVCUT_SISTEM
370
     0
100
AcDbLine
 10
521101.386
 20
4394183.637
 30
394.5
 11
521102.377
 21
4394181.855
 31
394.5
  0
LINE
  5
5DF
330
1F
100
AcDbEntity
  8
MEVCUT_SISTEM
370
     0
100
AcDbLine
 10
521102.377
 20
4394181.855
 30
394.5
 11
521096.573
 21
4394161.438
 31
394.5
  0
LINE
  5
5E0
330
1F
100
AcDbEntity
  8
MEVCUT_SISTEM
370
     0
100
AcDbLine
 10
521096.573
 20
4394161.438
 30
394.5
 11
521094.677
 21
4394147.935
 31
394.5
  0
LINE
  5
5E1
330
1F
100
AcDbEntity
  8
MEVCUT_SISTEM
370
     0
100
AcDbLine
 10
521094.677
 20
4394147.935
 30
394.5
 11
521092.553
 21
4394133.585
 31
394.5
  0
LINE
  5
5E2
330
1F
100
AcDbEntity
  8
MEVCUT_SISTEM
370
     0
100
AcDbLine
 10
521092.553
 20
4394133.585
 30
394.5
 11
521091.295
 21
4394128.808
 31
394.5
  0
LINE
  5
5E3
330
1F
100
AcDbEntity
  8
MEVCUT_SISTEM
370
     0
100
AcDbLine
 10
521091.295
 20
4394128.808
 30
394.5
 11
521089.883
 21
4394123.347
 31
394.5
  0
LINE
  5
5E4
330
1F
100
AcDbEntity
  8
MEVCUT_SISTEM
370
     0
100
AcDbLine
 10
521089.883
 20
4394123.347
 30
394.5
 11
521088.561
 21
4394118.448
 31
394.5
  0
LINE
  5
5E5
330
1F
100
AcDbEntity
  8
MEVCUT_SISTEM
370
     0
100
AcDbLine
 10
521088.561
 20
4394118.448
 30
394.5
 11
521081.837
 21
4394109.475
 31
394.5
  0
LINE
  5
5E6
330
1F
100
AcDbEntity
  8
MEVCUT_SISTEM
370
     0
100
AcDbLine
 10
521081.837
 20
4394109.475
 30
394.5
 11
521079.439
 21
4394102.477
 31
394.5
  0
LINE
  5
5E7
330
1F
100
AcDbEntity
  8
MEVCUT_SISTEM
370
     0
100
AcDbLine
 10
521079.439
 20
4394102.477
 30
394.5
 11
521065.968
 21
4394081.285
 31
394.5
  0
LINE
  5
5E8
330
1F
100
AcDbEntity
  8
MEVCUT_SISTEM
370
     0
100
AcDbLine
 10
521065.968
 20
4394081.285
 30
394.5
 11
521060.251
 21
4394072.671
 31
394.5
  0
LINE
  5
5E9
330
1F
100
AcDbEntity
  8
MEVCUT_SISTEM
370
     0
100
AcDbLine
 10
521060.251
 20
4394072.671
 30
394.5
 11
521055.187
 21
4394065.224
 31
394.5
  0
LINE
  5
5EA
330
1F
100
AcDbEntity
  8
MEVCUT_SISTEM
370
     0
100
AcDbLine
 10
521055.187
 20
4394065.224
 30
394.5
 11
521052.06
 21
4394059.613
 31
394.5
  0
LINE
  5
5EB
330
1F
100
AcDbEntity
  8
MEVCUT_SISTEM
370
     0
100
AcDbLine
 10
521052.06
 20
4394059.613
 30
394.5
 11
521050.396
 21
4394055.511
 31
394.5
  0
LINE
  5
5EC
330
1F
100
AcDbEntity
  8
MEVCUT_SISTEM
370
     0
100
AcDbLine
 10
521050.396
 20
4394055.511
 30
394.5
 11
521050.658
 21
4394049.012
 31
394.5
  0
LINE
  5
5ED
330
1F
100
AcDbEntity
  8
395KOTU
370
     0
100
AcDbLine
 10
521050.658
 20
4394049.012
 30
394.5
 11
521047.115
 21
4394040.196
 31
394.5
  0
LINE
  5
5EE
330
1F
100
AcDbEntity
  8
395KOTU
370
     0
100
AcDbLine
 10
521047.115
 20
4394040.196
 30
394.5
 11
521043.451
 21
4394033.158
 31
394.5
  0
LINE
  5
5EF
330
1F
100
AcDbEntity
  8
395KOTU
370
     0
100
AcDbLine
 10
521043.451
 20
4394033.158
 30
394.5
 11
521041.444
 21
4394031.44
 31
394.5
  0
LINE
  5
5F0
330
1F
100
AcDbEntity
  8
395KOTU
370
     0
100
AcDbLine
 10
521041.444
 20
4394031.44
 30
394.5
 11
521031.447
 21
4394022.893
 31
394.5
  0
LINE
  5
5F1
330
1F
100
AcDbEntity
  8
395KOTU
370
     0
100
AcDbLine
 10
521031.447
 20
4394022.893
 30
394.5
 11
521029.944
 21
4394020.782
 31
394.5
  0
LINE
  5
5F2
330
1F
100
AcDbEntity
  8
395KOTU
370
     0
100
AcDbLine
 10
521029.944
 20
4394020.782
 30
394.5
 11
521026.145
 21
4394016.018
 31
394.5
  0
LINE
  5
5F3
330
1F
100
AcDbEntity
  8
395KOTU
370
     0
100
AcDbLine
 10
521026.145
 20
4394016.018
 30
394.5
 11
521018.13
 21
4394018.103
 31
394.5
  0
LINE
  5
5F4
330
1F
100
AcDbEntity
  8
395KOTU
370
     0
100
AcDbLine
 10
521018.13
 20
4394018.103
 30
394.5
 11
521014.795
 21
4394020.991
 31
394.5
  0
LINE
  5
5F5
330
1F
100
AcDbEntity
  8
395KOTU
370
     0
100
AcDbLine
 10
521014.795
 20
4394020.991
 30
394.5
 11
521009.348
 21
4394024.932
 31
394.5
  0
LINE
  5
5F6
330
1F
100
AcDbEntity
  8
395KOTU
370
     0
100
AcDbLine
 10
521009.348
 20
4394024.932
 30
394.5
 11
521010.994
 21
4394026.857
 31
394.5
  0
LINE
  5
5F7
330
1F
100
AcDbEntity
  8
395KOTU
370
     0
100
AcDbLine
 10
521010.994
 20
4394026.857
 30
394.5
 11
521009.56
 21
4394029.123
 31
394.5
  0
LINE
  5
5F8
330
1F
100
AcDbEntity
  8
395KOTU
370
     0
100
AcDbLine
 10
521009.56
 20
4394029.123
 30
394.5
 11
521006.351
 21
4394030.831
 31
394.5
  0
LINE
  5
5F9
330
1F
100
AcDbEntity
  8
395KOTU
370
     0
100
AcDbLine
 10
521010.227
 20
4394034.472
 30
394.5
 11
521015.277
 21
4394030.313
 31
394.5
  0
LINE
  5
5FA
330
1F
100
AcDbEntity
  8
395KOTU
370
     0
100
AcDbLine
 10
521015.277
 20
4394030.313
 30
394.5
 11
521020.845
 21
4394023.469
 31
394.5
  0
LINE
  5
5FB
330
1F
100
AcDbEntity
  8
395KOTU
370
     0
100
AcDbLine
 10
521020.845
 20
4394023.469
 30
394.5
 11
521021.789
 21
4394023.121
 31
394.5
  0
LINE
  5
5FC
330
1F
100
AcDbEntity
  8
395KOTU
370
     0
100
AcDbLine
 10
521021.789
 20
4394023.121
 30
394.5
 11
521027.267
 21
4394025.387
 31
394.5
  0
LINE
  5
5FD
330
1F
100
AcDbEntity
  8
395KOTU
370
     0
100
AcDbLine
 10
521027.267
 20
4394025.387
 30
394.5
 11
521035.214
 21
4394032.075
 31
394.5
  0
LINE
  5
5FE
330
1F
100
AcDbEntity
  8
395KOTU
370
     0
100
AcDbLine
 10
521035.214
 20
4394032.075
 30
394.5
 11
521037.798
 21
4394034.713
 31
394.5
  0
LINE
  5
5FF
330
1F
100
AcDbEntity
  8
395KOTU
370
     0
100
AcDbLine
 10
521037.798
 20
4394034.713
 30
394.5
 11
521042.593
 21
4394042.482
 31
394.5
  0
LINE
  5
600
330
1F
100
AcDbEntity
  8
395KOTU
370
     0
100
AcDbLine
 10
521042.593
 20
4394042.482
 30
394.5
 11
521043.235
 21
4394046.103
 31
394.5
  0
LINE
  5
601
330
1F
100
AcDbEntity
  8
MEVCUT_SISTEM
370
     0
100
AcDbLine
 10
521043.235
 20
4394046.103
 30
394.5
 11
521038.132
 21
4394050.502
 31
394.5
  0
LINE
  5
602
330
1F
100
AcDbEntity
  8
MEVCUT_SISTEM
370
     0
100
AcDbLine
 10
521038.132
 20
4394050.502
 30
394.5
 11
521035.3990729504
 21
4394052.105087454
 31
394.5
  0
LINE
  5
603
330
1F
100
AcDbEntity
  8
MEVCUT_SISTEM
370
     0
100
AcDbLine
 10
521036.867
 20
4394055.826
 30
394.5
 11
521041.285
 21
4394054.917
 31
394.5
  0
LINE
  5
604
330
1F
100
AcDbEntity
  8
MEVCUT_SISTEM
370
     0
100
AcDbLine
 10
521041.285
 20
4394054.917
 30
394.5
 11
521045.609
 21
4394057.201
 31
394.5
  0
LINE
  5
605
330
1F
100
AcDbEntity
  8
MEVCUT_SISTEM
370
     0
100
AcDbLine
 10
521045.609
 20
4394057.201
 30
394.5
 11
521046.254
 21
4394062.139
 31
394.5
  0
LINE
  5
606
330
1F
100
AcDbEntity
  8
MEVCUT_SISTEM
370
     0
100
AcDbLine
 10
521046.254
 20
4394062.139
 30
394.5
 11
521049.487
 21
4394064.721
 31
394.5
  0
LINE
  5
607
330
1F
100
AcDbEntity
  8
MEVCUT_SISTEM
370
     0
100
AcDbLine
 10
521049.487
 20
4394064.721
 30
394.5
 11
521052.337
 21
4394068.625
 31
394.5
  0
LINE
  5
608
330
1F
100
AcDbEntity
  8
MEVCUT_SISTEM
370
     0
100
AcDbLine
 10
521052.337
 20
4394068.625
 30
394.5
 11
521055.98
 21
4394075.697
 31
394.5
  0
LINE
  5
609
330
1F
100
AcDbEntity
  8
MEVCUT_SISTEM
370
     0
100
AcDbLine
 10
521055.98
 20
4394075.697
 30
394.5
 11
521070.0
 21
4394095.494
 31
394.5
  0
LINE
  5
60A
330
1F
100
AcDbEntity
  8
MEVCUT_SISTEM
370
     0
100
AcDbLine
 10
521070.0
 20
4394095.494
 30
394.5
 11
521083.989
 21
4394120.777
 31
394.5
  0
LINE
  5
60B
330
1F
100
AcDbEntity
  8
MEVCUT_SISTEM
370
     0
100
AcDbLine
 10
521083.989
 20
4394120.777
 30
394.5
 11
521085.567
 21
4394124.074
 31
394.5
  0
LINE
  5
60C
330
1F
100
AcDbEntity
  8
MEVCUT_SISTEM
370
     0
100
AcDbLine
 10
521085.567
 20
4394124.074
 30
394.5
 11
521086.817
 21
4394133.4
 31
394.5
  0
LINE
  5
60D
330
1F
100
AcDbEntity
  8
MEVCUT_SISTEM
370
     0
100
AcDbLine
 10
521086.817
 20
4394133.4
 30
394.5
 11
521087.413
 21
4394142.338
 31
394.5
  0
LINE
  5
60E
330
1F
100
AcDbEntity
  8
MEVCUT_SISTEM
370
     0
100
AcDbLine
 10
521087.413
 20
4394142.338
 30
394.5
 11
521089.4
 21
4394148.455
 31
394.5
  0
LINE
  5
60F
330
1F
100
AcDbEntity
  8
MEVCUT_SISTEM
370
     0
100
AcDbLine
 10
521089.4
 20
4394148.455
 30
394.5
 11
521094.66
 21
4394179.575
 31
394.5
  0
LINE
  5
610
330
1F
100
AcDbEntity
  8
MEVCUT_SISTEM
370
     0
100
AcDbLine
 10
521094.66
 20
4394179.575
 30
394.5
 11
521092.626
 21
4394181.463
 31
394.5
  0
LINE
  5
611
330
1F
100
AcDbEntity
  8
MEVCUT_SISTEM
370
     0
100
AcDbLine
 10
521092.626
 20
4394181.463
 30
394.5
 11
521088.339
 21
4394183.124
 31
394.5
  0
LINE
  5
612
330
1F
100
AcDbEntity
  8
MEVCUT_SISTEM
370
     0
100
AcDbLine
 10
521088.339
 20
4394183.124
 30
394.5
 11
521082.971
 21
4394184.154
 31
394.5
  0
LINE
  5
613
330
1F
100
AcDbEntity
  8
MEVCUT_SISTEM
370
     0
100
AcDbLine
 10
521082.971
 20
4394184.154
 30
394.5
 11
521076.527
 21
4394184.044
 31
394.5
  0
LINE
  5
614
330
1F
100
AcDbEntity
  8
MEVCUT_SISTEM
370
     0
100
AcDbLine
 10
521076.527
 20
4394184.044
 30
394.5
 11
521068.361
 21
4394184.483
 31
394.5
  0
LINE
  5
615
330
1F
100
AcDbEntity
  8
MEVCUT_SISTEM
370
     0
100
AcDbLine
 10
521068.361
 20
4394184.483
 30
394.5
 11
521068.197
 21
4394189.187
 31
394.5
  0
LINE
  5
616
330
1F
100
AcDbEntity
  8
MEVCUT_SISTEM
370
     0
100
AcDbLine
 10
521068.197
 20
4394189.187
 30
394.5
 11
521077.067
 21
4394190.656
 31
394.5
  0
LINE
  5
617
330
1F
100
AcDbEntity
  8
MEVCUT_SISTEM
370
     0
100
AcDbLine
 10
521077.067
 20
4394190.656
 30
394.5
 11
521085.066
 21
4394190.197
 31
394.5
  0
LINE
  5
618
330
1F
100
AcDbEntity
  8
MEVCUT_SISTEM
370
     0
100
AcDbLine
 10
521090.31
 20
4394188.521
 30
394.5
 11
521091.318
 21
4394187.722
 31
394.5
  0
LINE
  5
619
330
1F
100
AcDbEntity
  8
MEVCUT_SISTEM
370
     0
100
AcDbLine
 10
521091.318
 20
4394187.722
 30
394.5
 11
521092.166
 21
4394188.304
 31
394.5
  0
LINE
  5
61A
330
1F
100
AcDbEntity
  8
MEVCUT_SISTEM
370
     0
100
AcDbLine
 10
521092.166
 20
4394188.304
 30
394.5
 11
521094.817
 21
4394188.262
 31
394.5
  0
LINE
  5
61B
330
1F
100
AcDbEntity
  8
MEVCUT_SISTEM
370
     0
100
AcDbLine
 10
521094.817
 20
4394188.262
 30
394.5
 11
521096.764
 21
4394190.604
 31
394.5
  0
LINE
  5
61C
330
1F
100
AcDbEntity
  8
MEVCUT_SISTEM
370
     0
100
AcDbLine
 10
521096.764
 20
4394190.604
 30
394.5
 11
521097.212
 21
4394194.245
 31
394.5
  0
LINE
  5
61D
330
1F
100
AcDbEntity
  8
MEVCUT_SISTEM
370
     0
100
AcDbLine
 10
521097.212
 20
4394194.245
 30
394.5
 11
521097.473
 21
4394197.225
 31
394.5
  0
LINE
  5
61E
330
1F
100
AcDbEntity
  8
MEVCUT_SISTEM
370
     0
100
AcDbLine
 10
521097.473
 20
4394197.225
 30
394.5
 11
521098.064
 21
4394201.873
 31
394.5
  0
LINE
  5
61F
330
1F
100
AcDbEntity
  8
MEVCUT_SISTEM
370
     0
100
AcDbLine
 10
521098.064
 20
4394201.873
 30
394.5
 11
521098.793
 21
4394204.269
 31
394.5
  0
LINE
  5
620
330
1F
100
AcDbEntity
  8
MEVCUT_SISTEM
370
     0
100
AcDbLine
 10
521098.793
 20
4394204.269
 30
394.5
 11
521099.835
 21
4394208.556
 31
394.5
  0
LINE
  5
621
330
1F
100
AcDbEntity
  8
MEVCUT_SISTEM
370
     0
100
AcDbLine
 10
521099.835
 20
4394208.556
 30
394.5
 11
521099.784
 21
4394209.801
 31
394.5
  0
POINT
  5
622
330
1F
100
AcDbEntity
  8
MEVCUT_SISTEM
370
     0
100
AcDbPoint
 10
521086.0622928957
 20
4394189.878581447
 30
394.5
  0
LINE
  5
623
330
1F
100
AcDbEntity
  8
MEVCUT_SISTEM
370
     0
100
AcDbLine
 10
521090.31
 20
4394188.521
 30
394.5
 11
521086.0622928957
 21
4394189.878581447
 31
394.5
  0
POINT
  5
624
330
1F
100
AcDbEntity
  8
MEVCUT_SISTEM
370
     0
100
AcDbPoint
 10
520977.434
 20
4393984.316
 30
414.3699951171875
  0
POINT
  5
625
330
1F
100
AcDbEntity
  8
MEVCUT_SISTEM
370
     0
100
AcDbPoint
 10
520971.887
 20
4393983.262
 30
413.6499938964844
  0
POINT
  5
626
330
1F
100
AcDbEntity
  8
MEVCUT_SISTEM
370
     0
100
AcDbPoint
 10
520971.675
 20
4393978.53
 30
413.6499938964844
  0
POINT
  5
627
330
1F
100
AcDbEntity
  8
MEVCUT_SISTEM
370
     0
100
AcDbPoint
 10
520977.212
 20
4393979.662
 30
414.3699951171875
  0
POINT
  5
628
330
1F
100
AcDbEntity
  8
MEVCUT_SISTEM
370
     0
100
AcDbPoint
 10
520968.62
 20
4393978.86
 30
412.5499877929688
  0
POINT
  5
629
330
1F
100
AcDbEntity
  8
MEVCUT_SISTEM
370
     0
100
AcDbPoint
 10
520964.015
 20
4393979.129
 30
411.8299865722656
  0
POINT
  5
62A
330
1F
100
AcDbEntity
  8
MEVCUT_SISTEM
370
     0
100
AcDbPoint
 10
520958.597
 20
4393981.711
 30
411.2300109863281
  0
POINT
  5
62B
330
1F
100
AcDbEntity
  8
MEVCUT_SISTEM
370
     0
100
AcDbPoint
 10
520960.112
 20
4393985.751
 30
411.2300109863281
  0
POINT
  5
62C
330
1F
100
AcDbEntity
  8
MEVCUT_SISTEM
370
     0
100
AcDbPoint
 10
520964.217
 20
4393983.846
 30
411.8299865722656
  0
POINT
  5
62D
330
1F
100
AcDbEntity
  8
MEVCUT_SISTEM
370
     0
100
AcDbPoint
 10
520968.217
 20
4393983.132
 30
412.5499877929688
  0
POINT
  5
62E
330
1F
100
AcDbEntity
  8
MEVCUT_SISTEM
370
     0
100
AcDbPoint
 10
520959.727
 20
4394034.343
 30
401.4700012207031
  0
POINT
  5
62F
330
1F
100
AcDbEntity
  8
MEVCUT_SISTEM
370
     0
100
AcDbPoint
 10
520962.68
 20
4394037.192
 30
401.5199890136719
  0
POINT
  5
630
330
1F
100
AcDbEntity
  8
MEVCUT_SISTEM
370
     0
100
AcDbPoint
 10
520972.963
 20
4394044.468
 30
400.3999938964844
  0
POINT
  5
631
330
1F
100
AcDbEntity
  8
MEVCUT_SISTEM
370
     0
100
AcDbPoint
 10
520966.842
 20
4394042.959
 30
401.1199951171875
  0
POINT
  5
632
330
1F
100
AcDbEntity
  8
MEVCUT_SISTEM
370
     0
100
AcDbPoint
 10
520960.586
 20
4394039.968
 30
401.5199890136719
  0
POINT
  5
633
330
1F
100
AcDbEntity
  8
MEVCUT_SISTEM
370
     0
100
AcDbPoint
 10
520955.007
 20
4394037.327
 30
401.4700012207031
  0
POINT
  5
634
330
1F
100
AcDbEntity
  8
MEVCUT_SISTEM
370
     0
100
AcDbPoint
 10
520971.028
 20
4394039.917
 30
401.1199951171875
  0
POINT
  5
635
330
1F
100
AcDbEntity
  8
MEVCUT_SISTEM
370
     0
100
AcDbPoint
 10
520975.367
 20
4394040.742
 30
400.3999938964844
  0
POINT
  5
636
330
1F
100
AcDbEntity
  8
MEVCUT_SISTEM
370
     0
100
AcDbPoint
 10
520984.763
 20
4394039.907
 30
397.8099975585938
  0
POINT
  5
637
330
1F
100
AcDbEntity
  8
MEVCUT_SISTEM
370
     0
100
AcDbPoint
 10
520984.513
 20
4394045.325
 30
397.8099975585938
  0
POINT
  5
638
330
1F
100
AcDbEntity
  8
DESANDRE_1
370
     0
100
AcDbPoint
 10
521163.99935821
 20
4393947.723394808
 30
455.0
  0
POINT
  5
639
330
1F
100
AcDbEntity
  8
DESANDRE_1
370
     0
100
AcDbPoint
 10
521167.0900043247
 20
4393952.380841163
 30
455.0
  0
POINT
  5
63A
330
1F
100
AcDbEntity
  8
DESANDRE_1
370
     0
100
AcDbPoint
 10
521173.729991074
 20
4393944.424299113
 30
454.6000061035156
  0
POINT
  5
63B
330
1F
100
AcDbEntity
  8
DESANDRE_1
370
     0
100
AcDbPoint
 10
521174.143693631
 20
4393949.458004101
 30
454.6000061035156
  0
POINT
  5
63C
330
1F
100
AcDbEntity
  8
DESANDRE_1
370
     0
100
AcDbPoint
 10
521186.84
 20
4393949.038
 30
453.8999938964844
  0
POINT
  5
63D
330
1F
100
AcDbEntity
  8
DESANDRE_1
370
     0
100
AcDbPoint
 10
521186.842
 20
4393953.408
 30
453.8999938964844
  0
POINT
  5
63E
330
1F
100
AcDbEntity
  8
DESANDRE_1
370
     0
100
AcDbPoint
 10
521236.3510057696
 20
4393958.874777646
 30
445.0
  0
POINT
  5
63F
330
1F
100
AcDbEntity
  8
DESANDRE_1
370
     0
100
AcDbPoint
 10
521239.4105634758
 20
4393954.071837737
 30
445.0
  0
POINT
  5
640
330
1F
100
AcDbEntity
  8
DESANDRE_1
370
     0
100
AcDbPoint
 10
521241.5988487718
 20
4393954.011457519
 30
445.0
  0
POINT
  5
641
330
1F
100
AcDbEntity
  8
DESANDRE_1
370
     0
100
AcDbPoint
 10
521243.1009015484
 20
4393954.948245157
 30
445.0
  0
POINT
  5
642
330
1F
100
AcDbEntity
  8
DESANDRE_1
370
     0
100
AcDbPoint
 10
521243.8175019483
 20
4393956.668086117
 30
445.0
  0
POINT
  5
643
330
1F
100
AcDbEntity
  8
DESANDRE_1
370
     0
100
AcDbPoint
 10
521240.7012488091
 20
4393961.56137617
 30
445.0
  0
POINT
  5
644
330
1F
100
AcDbEntity
  8
DESANDRE_1
370
     0
100
AcDbPoint
 10
521236.4837880669
 20
4393963.780248443
 30
445.0
  0
POINT
  5
645
330
1F
100
AcDbEntity
  8
DESANDRE_1
370
     0
100
AcDbPoint
 10
521244.6571303366
 20
4393982.922698067
 30
442.8800048828125
  0
POINT
  5
646
330
1F
100
AcDbEntity
  8
DESANDRE_1
370
     0
100
AcDbPoint
 10
521239.632751336
 20
4393984.14555219
 30
442.8800048828125
  0
POINT
  5
647
330
1F
100
AcDbEntity
  8
DESANDRE_1
370
     0
100
AcDbPoint
 10
521238.7573976123
 20
4393985.317986978
 30
442.8800048828125
  0
POINT
  5
648
330
1F
100
AcDbEntity
  8
DESANDRE_1
370
     0
100
AcDbPoint
 10
521239.4379741228
 20
4393987.961764961
 30
442.8800048828125
  0
POINT
  5
649
330
1F
100
AcDbEntity
  8
DESANDRE_1
370
     0
100
AcDbPoint
 10
521240.696915039
 20
4393988.517914893
 30
442.8800048828125
  0
POINT
  5
64A
330
1F
100
AcDbEntity
  8
DESANDRE_1
370
     0
100
AcDbPoint
 10
521245.9123668132
 20
4393987.248556688
 30
442.8800048828125
  0
POINT
  5
64B
330
1F
100
AcDbEntity
  8
DESANDRE_1
370
     0
100
AcDbPoint
 10
521250.741
 20
4393987.674
 30
442.8800048828125
  0
POINT
  5
64C
330
1F
100
AcDbEntity
  8
DESANDRE_1
370
     0
100
AcDbPoint
 10
521249.3357921953
 20
4393981.78398601
 30
442.8800048828125
  0
POINT
  5
64D
330
1F
100
AcDbEntity
  8
DESANDRE_1
370
     0
100
AcDbPoint
 10
521252.0367536418
 20
4394027.700271518
 30
438.7000122070312
  0
POINT
  5
64E
330
1F
100
AcDbEntity
  8
DESANDRE_1
370
     0
100
AcDbPoint
 10
521256.8970515091
 20
4394028.071253869
 30
438.7000122070312
  0
POINT
  5
64F
330
1F
100
AcDbEntity
  8
DESANDRE_1
370
     0
100
AcDbPoint
 10
521243.6195107899
 20
4394054.66037442
 30
436.4500122070312
  0
POINT
  5
650
330
1F
100
AcDbEntity
  8
DESANDRE_1
370
     0
100
AcDbPoint
 10
521247.7139880114
 20
4394057.484250643
 30
436.4500122070312
  0
POINT
  5
651
330
1F
100
AcDbEntity
  8
DESANDRE_1
370
     0
100
AcDbPoint
 10
521218.9052627818
 20
4394073.615751714
 30
433.8299865722656
  0
POINT
  5
652
330
1F
100
AcDbEntity
  8
DESANDRE_1
370
     0
100
AcDbPoint
 10
521224.6060886391
 20
4394075.63736819
 30
433.8299865722656
  0
POINT
  5
653
330
1F
100
AcDbEntity
  8
DESANDRE_1
370
     0
100
AcDbPoint
 10
521199.0338994222
 20
4394084.425200126
 30
430.9599914550781
  0
POINT
  5
654
330
1F
100
AcDbEntity
  8
DESANDRE_1
370
     0
100
AcDbPoint
 10
521200.6941005778
 20
4394088.644799874
 30
430.9599914550781
  0
POINT
  5
655
330
1F
100
AcDbEntity
  8
DESANDRE_1
370
     0
100
AcDbPoint
 10
521186.3270880158
 20
4394087.689974651
 30
429.6499938964844
  0
POINT
  5
656
330
1F
100
AcDbEntity
  8
DESANDRE_1
370
     0
100
AcDbPoint
 10
521185.8781143844
 20
4394092.451486913
 30
429.6499938964844
  0
POINT
  5
657
330
1F
100
AcDbEntity
  8
DESANDRE_1
370
     0
100
AcDbPoint
 10
521148.2106779338
 20
4394079.529941151
 30
425.1900024414062
  0
POINT
  5
658
330
1F
100
AcDbEntity
  8
DESANDRE_1
370
     0
100
AcDbPoint
 10
521146.4873634012
 20
4394084.018640092
 30
425.1900024414062
  0
POINT
  5
659
330
1F
100
AcDbEntity
  8
DESANDRE_1
370
     0
100
AcDbPoint
 10
521135.5556189
 20
4394073.383580606
 30
424.8999938964844
  0
POINT
  5
65A
330
1F
100
AcDbEntity
  8
DESANDRE_1
370
     0
100
AcDbPoint
 10
521132.9163810999
 20
4394077.104419393
 30
424.8999938964844
  0
POINT
  5
65B
330
1F
100
AcDbEntity
  8
DESANDRE_1
370
     0
100
AcDbPoint
 10
521129.588
 20
4394067.61
 30
424.8099975585938
  0
POINT
  5
65C
330
1F
100
AcDbEntity
  8
DESANDRE_1
370
     0
100
AcDbPoint
 10
521125.4287800377
 20
4394069.670983956
 30
424.8099975585938
  0
POINT
  5
65D
330
1F
100
AcDbEntity
  8
DESANDRE_1
370
     0
100
AcDbPoint
 10
521117.862
 20
4394051.98
 30
424.25
  0
POINT
  5
65E
330
1F
100
AcDbEntity
  8
DESANDRE_1
370
     0
100
AcDbPoint
 10
521114.2850190421
 20
4394053.342757508
 30
424.25
  0
POINT
  5
65F
330
1F
100
AcDbEntity
  8
DESANDRE_1
370
     0
100
AcDbPoint
 10
521104.829
 20
4394028.187
 30
424.0
  0
POINT
  5
660
330
1F
100
AcDbEntity
  8
DESANDRE_1
370
     0
100
AcDbPoint
 10
521102.671
 20
4394032.994
 30
424.0
  0
POINT
  5
661
330
1F
100
AcDbEntity
  8
DESANDRE_1
370
     0
100
AcDbPoint
 10
521103.395
 20
4394024.814
 30
423.7699890136719
  0
POINT
  5
662
330
1F
100
AcDbEntity
  8
DESANDRE_1
370
     0
100
AcDbPoint
 10
521096.296
 20
4394025.268
 30
423.7699890136719
  0
POINT
  5
663
330
1F
100
AcDbEntity
  8
DESANDRE_1
370
     0
100
AcDbPoint
 10
521093.862
 20
4394022.851
 30
423.7699890136719
  0
POINT
  5
664
330
1F
100
AcDbEntity
  8
DESANDRE_1
370
     0
100
AcDbPoint
 10
521090.592
 20
4394020.472
 30
423.7699890136719
  0
POINT
  5
665
330
1F
100
AcDbEntity
  8
DESANDRE_1
370
     0
100
AcDbPoint
 10
521086.952
 20
4394018.643
 30
423.7699890136719
  0
POINT
  5
666
330
1F
100
AcDbEntity
  8
MEVCUT_SISTEM
370
     0
100
AcDbPoint
 10
521086.54
 20
4394013.669
 30
423.7699890136719
  0
POINT
  5
667
330
1F
100
AcDbEntity
  8
DESANDRE_1
370
     0
100
AcDbPoint
 10
521092.228
 20
4394013.494
 30
423.7699890136719
  0
POINT
  5
668
330
1F
100
AcDbEntity
  8
DESANDRE_1
370
     0
100
AcDbPoint
 10
521101.821
 20
4394018.696
 30
423.7699890136719
  0
POINT
  5
669
330
1F
100
AcDbEntity
  8
MEVCUT_SISTEM
370
     0
100
AcDbPoint
 10
521078.412
 20
4394012.457
 30
422.7699890136719
  0
POINT
  5
66A
330
1F
100
AcDbEntity
  8
MEVCUT_SISTEM
370
     0
100
AcDbPoint
 10
521075.3815603153
 20
4394016.433703066
 30
422.7699890136719
  0
POINT
  5
66B
330
1F
100
AcDbEntity
  8
MEVCUT_SISTEM
370
     0
100
AcDbPoint
 10
521063.96
 20
4394007.702
 30
420.0
  0
POINT
  5
66C
330
1F
100
AcDbEntity
  8
MEVCUT_SISTEM
370
     0
100
AcDbPoint
 10
521056.693
 20
4394006.094
 30
420.0
  0
POINT
  5
66D
330
1F
100
AcDbEntity
  8
MEVCUT_SISTEM
370
     0
100
AcDbPoint
 10
521053.916
 20
4394012.335
 30
420.0
  0
POINT
  5
66E
330
1F
100
AcDbEntity
  8
MEVCUT_SISTEM
370
     0
100
AcDbPoint
 10
521062.0921097868
 20
4394013.896172676
 30
420.0
  0
POINT
  5
66F
330
1F
100
AcDbEntity
  8
MEVCUT_SISTEM
370
     0
100
AcDbPoint
 10
521031.064
 20
4393999.629
 30
416.7999877929688
  0
POINT
  5
670
330
1F
100
AcDbEntity
  8
MEVCUT_SISTEM
370
     0
100
AcDbPoint
 10
521028.665
 20
4394003.774
 30
416.7999877929688
  0
POINT
  5
671
330
1F
100
AcDbEntity
  8
MEVCUT_SISTEM
370
     0
100
AcDbPoint
 10
521027.837
 20
4393996.306
 30
416.0
  0
POINT
  5
672
330
1F
100
AcDbEntity
  8
MEVCUT_SISTEM
370
     0
100
AcDbPoint
 10
521024.18
 20
4393998.226
 30
416.0
  0
POINT
  5
673
330
1F
100
AcDbEntity
  8
MEVCUT_SISTEM
370
     0
100
AcDbPoint
 10
521018.286
 20
4393990.479
 30
415.1499938964844
  0
POINT
  5
674
330
1F
100
AcDbEntity
  8
MEVCUT_SISTEM
370
     0
100
AcDbPoint
 10
521016.184
 20
4393995.057
 30
415.1499938964844
  0
POINT
  5
675
330
1F
100
AcDbEntity
  8
MEVCUT_SISTEM
370
     0
100
AcDbPoint
 10
521011.429
 20
4393995.801
 30
415.1499938964844
  0
POINT
  5
676
330
1F
100
AcDbEntity
  8
MEVCUT_SISTEM
370
     0
100
AcDbPoint
 10
521009.023
 20
4393985.308
 30
415.1499938964844
  0
POINT
  5
677
330
1F
100
AcDbEntity
  8
MEVCUT_SISTEM
370
     0
100
AcDbPoint
 10
520999.522
 20
4393990.348
 30
415.1499938964844
  0
POINT
  5
678
330
1F
100
AcDbEntity
  8
MEVCUT_SISTEM
370
     0
100
AcDbPoint
 10
520994.003
 20
4393986.63
 30
415.1499938964844
  0
POINT
  5
679
330
1F
100
AcDbEntity
  8
MEVCUT_SISTEM
370
     0
100
AcDbPoint
 10
520992.115
 20
4393991.238
 30
415.1499938964844
  0
POINT
  5
67A
330
1F
100
AcDbEntity
  8
MEVCUT_SISTEM
370
     0
100
AcDbPoint
 10
520989.141
 20
4393992.638
 30
415.1499938964844
  0
POINT
  5
67B
330
1F
100
AcDbEntity
  8
MEVCUT_SISTEM
370
     0
100
AcDbPoint
 10
520984.971
 20
4393990.357
 30
415.1499938964844
  0
POINT
  5
67C
330
1F
100
AcDbEntity
  8
MEVCUT_SISTEM
370
     0
100
AcDbPoint
 10
520988.175
 20
4393984.357
 30
415.1499938964844
  0
POINT
  5
67D
330
1F
100
AcDbEntity
  8
MEVCUT_SISTEM
370
     0
100
AcDbPoint
 10
520982.09
 20
4393981.086
 30
415.1499938964844
  0
POINT
  5
67E
330
1F
100
AcDbEntity
  8
MEVCUT_SISTEM
370
     0
100
AcDbPoint
 10
520981.638
 20
4393986.58
 30
415.1499938964844
  0
POINT
  5
67F
330
1F
100
AcDbEntity
  8
MEVCUT_SISTEM
370
     0
100
AcDbPoint
 10
520955.8232818558
 20
4393990.397888364
 30
410.5199890136719
  0
POINT
  5
680
330
1F
100
AcDbEntity
  8
MEVCUT_SISTEM
370
     0
100
AcDbPoint
 10
520952.061
 20
4393987.196
 30
410.5199890136719
  0
POINT
  5
681
330
1F
100
AcDbEntity
  8
MEVCUT_SISTEM
370
     0
100
AcDbPoint
 10
520949.816
 20
4393998.073
 30
409.1700134277344
  0
POINT
  5
682
330
1F
100
AcDbEntity
  8
MEVCUT_SISTEM
370
     0
100
AcDbPoint
 10
520945.284
 20
4393997.714
 30
409.1700134277344
  0
POINT
  5
683
330
1F
100
AcDbEntity
  8
MEVCUT_SISTEM
370
     0
100
AcDbPoint
 10
520943.655
 20
4394003.378
 30
407.8900146484375
  0
POINT
  5
684
330
1F
100
AcDbEntity
  8
MEVCUT_SISTEM
370
     0
100
AcDbPoint
 10
520947.963
 20
4394004.131
 30
407.8900146484375
  0
POINT
  5
685
330
1F
100
AcDbEntity
  8
MEVCUT_SISTEM
370
     0
100
AcDbPoint
 10
520942.684
 20
4394008.248
 30
406.6199951171875
  0
POINT
  5
686
330
1F
100
AcDbEntity
  8
MEVCUT_SISTEM
370
     0
100
AcDbPoint
 10
520947.977
 20
4394009.039
 30
406.6199951171875
  0
POINT
  5
687
330
1F
100
AcDbEntity
  8
MEVCUT_SISTEM
370
     0
100
AcDbPoint
 10
520949.162
 20
4394022.706
 30
403.7699890136719
  0
POINT
  5
688
330
1F
100
AcDbEntity
  8
MEVCUT_SISTEM
370
     0
100
AcDbPoint
 10
520943.739
 20
4394023.29
 30
403.7699890136719
  0
LINE
  5
689
330
1F
100
AcDbEntity
  8
DESANDRE_1
370
     0
100
AcDbLine
 10
521163.99935821
 20
4393947.723394808
 30
455.0
 11
521173.729991074
 21
4393944.424299113
 31
454.6000061035156
  0
LINE
  5
68A
330
1F
100
AcDbEntity
  8
DESANDRE_1
370
     0
100
AcDbLine
 10
521173.729991074
 20
4393944.424299113
 30
454.6000061035156
 11
521186.84
 21
4393949.038
 31
453.8999938964844
  0
LINE
  5
68B
330
1F
100
AcDbEntity
  8
DESANDRE_1
370
     0
100
AcDbLine
 10
521186.84
 20
4393949.038
 30
453.8999938964844
 11
521236.3510057696
 21
4393958.874777646
 31
445.0
  0
LINE
  5
68C
330
1F
100
AcDbEntity
  8
DESANDRE_1
370
     0
100
AcDbLine
 10
521236.3510057696
 20
4393958.874777646
 30
445.0
 11
521239.4105634758
 21
4393954.071837737
 31
445.0
  0
LINE
  5
68D
330
1F
100
AcDbEntity
  8
DESANDRE_1
370
     0
100
AcDbLine
 10
521239.4105634758
 20
4393954.071837737
 30
445.0
 11
521241.5988487718
 21
4393954.011457519
 31
445.0
  0
LINE
  5
68E
330
1F
100
AcDbEntity
  8
DESANDRE_1
370
     0
100
AcDbLine
 10
521241.5988487718
 20
4393954.011457519
 30
445.0
 11
521243.1009015484
 21
4393954.948245157
 31
445.0
  0
LINE
  5
68F
330
1F
100
AcDbEntity
  8
DESANDRE_1
370
     0
100
AcDbLine
 10
521243.1009015484
 20
4393954.948245157
 30
445.0
 11
521243.8175019483
 21
4393956.668086117
 31
445.0
  0
LINE
  5
690
330
1F
100
AcDbEntity
  8
DESANDRE_1
370
     0
100
AcDbLine
 10
521243.8175019483
 20
4393956.668086117
 30
445.0
 11
521240.7012488091
 21
4393961.56137617
 31
445.0
  0
LINE
  5
691
330
1F
100
AcDbEntity
  8
DESANDRE_1
370
     0
100
AcDbLine
 10
521240.7012488091
 20
4393961.56137617
 30
445.0
 11
521249.3357921953
 21
4393981.78398601
 31
442.8800048828125
  0
LINE
  5
692
330
1F
100
AcDbEntity
  8
DESANDRE_1
370
     0
100
AcDbLine
 10
521249.3357921953
 20
4393981.78398601
 30
442.8800048828125
 11
521250.741
 21
4393987.674
 31
442.8800048828125
  0
LINE
  5
693
330
1F
100
AcDbEntity
  8
DESANDRE_1
370
     0
100
AcDbLine
 10
521250.741
 20
4393987.674
 30
442.8800048828125
 11
521256.8970515091
 21
4394028.071253869
 31
438.7000122070312
  0
LINE
  5
694
330
1F
100
AcDbEntity
  8
DESANDRE_1
370
     0
100
AcDbLine
 10
521256.8970515091
 20
4394028.071253869
 30
438.7000122070312
 11
521247.7139880114
 21
4394057.484250643
 31
436.4500122070312
  0
LINE
  5
695
330
1F
100
AcDbEntity
  8
DESANDRE_1
370
     0
100
AcDbLine
 10
521247.7139880114
 20
4394057.484250643
 30
436.4500122070312
 11
521224.6060886391
 21
4394075.63736819
 31
433.8299865722656
  0
LINE
  5
696
330
1F
100
AcDbEntity
  8
DESANDRE_1
370
     0
100
AcDbLine
 10
521224.6060886391
 20
4394075.63736819
 30
433.8299865722656
 11
521200.6941005778
 21
4394088.644799874
 31
430.9599914550781
  0
LINE
  5
697
330
1F
100
AcDbEntity
  8
DESANDRE_1
370
     0
100
AcDbLine
 10
521200.6941005778
 20
4394088.644799874
 30
430.9599914550781
 11
521185.8781143844
 21
4394092.451486913
 31
429.6499938964844
  0
LINE
  5
698
330
1F
100
AcDbEntity
  8
DESANDRE_1
370
     0
100
AcDbLine
 10
521185.8781143844
 20
4394092.451486913
 30
429.6499938964844
 11
521146.4873634012
 21
4394084.018640092
 31
425.1900024414062
  0
LINE
  5
699
330
1F
100
AcDbEntity
  8
DESANDRE_1
370
     0
100
AcDbLine
 10
521146.4873634012
 20
4394084.018640092
 30
425.1900024414062
 11
521132.9163810999
 21
4394077.104419393
 31
424.8999938964844
  0
LINE
  5
69A
330
1F
100
AcDbEntity
  8
DESANDRE_1
370
     0
100
AcDbLine
 10
521132.9163810999
 20
4394077.104419393
 30
424.8999938964844
 11
521125.4287800377
 21
4394069.670983956
 31
424.8099975585938
  0
LINE
  5
69B
330
1F
100
AcDbEntity
  8
DESANDRE_1
370
     0
100
AcDbLine
 10
521125.4287800377
 20
4394069.670983956
 30
424.8099975585938
 11
521114.2850190421
 21
4394053.342757508
 31
424.25
  0
LINE
  5
69C
330
1F
100
AcDbEntity
  8
DESANDRE_1
370
     0
100
AcDbLine
 10
521114.2850190421
 20
4394053.342757508
 30
424.25
 11
521102.671
 21
4394032.994
 31
424.0
  0
LINE
  5
69D
330
1F
100
AcDbEntity
  8
DESANDRE_1
370
     0
100
AcDbLine
 10
521102.671
 20
4394032.994
 30
424.0
 11
521096.296
 21
4394025.268
 31
423.7699890136719
  0
LINE
  5
69E
330
1F
100
AcDbEntity
  8
DESANDRE_1
370
     0
100
AcDbLine
 10
521096.296
 20
4394025.268
 30
423.7699890136719
 11
521093.862
 21
4394022.851
 31
423.7699890136719
  0
LINE
  5
69F
330
1F
100
AcDbEntity
  8
DESANDRE_1
370
     0
100
AcDbLine
 10
521093.862
 20
4394022.851
 30
423.7699890136719
 11
521090.592
 21
4394020.472
 31
423.7699890136719
  0
LINE
  5
6A0
330
1F
100
AcDbEntity
  8
DESANDRE_1
370
     0
100
AcDbLine
 10
521090.592
 20
4394020.472
 30
423.7699890136719
 11
521086.952
 21
4394018.643
 31
423.7699890136719
  0
LINE
  5
6A1
330
1F
100
AcDbEntity
  8
DESANDRE_1
370
     0
100
AcDbLine
 10
521086.952
 20
4394018.643
 30
423.7699890136719
 11
521075.3815603153
 21
4394016.433703066
 31
422.7699890136719
  0
LINE
  5
6A2
330
1F
100
AcDbEntity
  8
MEVCUT_SISTEM
370
     0
100
AcDbLine
 10
521075.3815603153
 20
4394016.433703066
 30
422.7699890136719
 11
521062.0921097868
 21
4394013.896172676
 31
420.0
  0
LINE
  5
6A3
330
1F
100
AcDbEntity
  8
MEVCUT_SISTEM
370
     0
100
AcDbLine
 10
521062.0921097868
 20
4394013.896172676
 30
420.0
 11
521053.916
 21
4394012.335
 31
420.0
  0
LINE
  5
6A4
330
1F
100
AcDbEntity
  8
MEVCUT_SISTEM
370
     0
100
AcDbLine
 10
521053.916
 20
4394012.335
 30
420.0
 11
521028.665
 21
4394003.774
 31
416.7999877929688
  0
LINE
  5
6A5
330
1F
100
AcDbEntity
  8
MEVCUT_SISTEM
370
     0
100
AcDbLine
 10
521028.665
 20
4394003.774
 30
416.7999877929688
 11
521024.18
 21
4393998.226
 31
416.0
  0
LINE
  5
6A6
330
1F
100
AcDbEntity
  8
MEVCUT_SISTEM
370
     0
100
AcDbLine
 10
521024.18
 20
4393998.226
 30
416.0
 11
521016.184
 21
4393995.057
 31
415.1499938964844
  0
LINE
  5
6A7
330
1F
100
AcDbEntity
  8
MEVCUT_SISTEM
370
     0
100
AcDbLine
 10
521016.184
 20
4393995.057
 30
415.1499938964844
 11
521011.429
 21
4393995.801
 31
415.1499938964844
  0
LINE
  5
6A8
330
1F
100
AcDbEntity
  8
MEVCUT_SISTEM
370
     0
100
AcDbLine
 10
521011.429
 20
4393995.801
 30
415.1499938964844
 11
520999.522
 21
4393990.348
 31
415.1499938964844
  0
LINE
  5
6A9
330
1F
100
AcDbEntity
  8
MEVCUT_SISTEM
370
     0
100
AcDbLine
 10
520999.522
 20
4393990.348
 30
415.1499938964844
 11
520992.115
 21
4393991.238
 31
415.1499938964844
  0
LINE
  5
6AA
330
1F
100
AcDbEntity
  8
MEVCUT_SISTEM
370
     0
100
AcDbLine
 10
520992.115
 20
4393991.238
 30
415.1499938964844
 11
520989.141
 21
4393992.638
 31
415.1499938964844
  0
LINE
  5
6AB
330
1F
100
AcDbEntity
  8
MEVCUT_SISTEM
370
     0
100
AcDbLine
 10
520989.141
 20
4393992.638
 30
415.1499938964844
 11
520984.971
 21
4393990.357
 31
415.1499938964844
  0
LINE
  5
6AC
330
1F
100
AcDbEntity
  8
MEVCUT_SISTEM
370
     0
100
AcDbLine
 10
520984.971
 20
4393990.357
 30
415.1499938964844
 11
520981.638
 21
4393986.58
 31
415.1499938964844
  0
LINE
  5
6AD
330
1F
100
AcDbEntity
  8
MEVCUT_SISTEM
370
     0
100
AcDbLine
 10
520981.638
 20
4393986.58
 30
415.1499938964844
 11
520977.434
 21
4393984.316
 31
414.3699951171875
  0
LINE
  5
6AE
330
1F
100
AcDbEntity
  8
MEVCUT_SISTEM
370
     0
100
AcDbLine
 10
520977.434
 20
4393984.316
 30
414.3699951171875
 11
520971.887
 21
4393983.262
 31
413.6499938964844
  0
LINE
  5
6AF
330
1F
100
AcDbEntity
  8
MEVCUT_SISTEM
370
     0
100
AcDbLine
 10
520971.887
 20
4393983.262
 30
413.6499938964844
 11
520968.217
 21
4393983.132
 31
412.5499877929688
  0
LINE
  5
6B0
330
1F
100
AcDbEntity
  8
MEVCUT_SISTEM
370
     0
100
AcDbLine
 10
520968.217
 20
4393983.132
 30
412.5499877929688
 11
520964.217
 21
4393983.846
 31
411.8299865722656
  0
LINE
  5
6B1
330
1F
100
AcDbEntity
  8
MEVCUT_SISTEM
370
     0
100
AcDbLine
 10
520964.217
 20
4393983.846
 30
411.8299865722656
 11
520960.112
 21
4393985.751
 31
411.2300109863281
  0
LINE
  5
6B2
330
1F
100
AcDbEntity
  8
MEVCUT_SISTEM
370
     0
100
AcDbLine
 10
520960.112
 20
4393985.751
 30
411.2300109863281
 11
520955.8232818558
 21
4393990.397888364
 31
410.5199890136719
  0
LINE
  5
6B3
330
1F
100
AcDbEntity
  8
MEVCUT_SISTEM
370
     0
100
AcDbLine
 10
520955.8232818558
 20
4393990.397888364
 30
410.5199890136719
 11
520949.816
 21
4393998.073
 31
409.1700134277344
  0
LINE
  5
6B4
330
1F
100
AcDbEntity
  8
MEVCUT_SISTEM
370
     0
100
AcDbLine
 10
520949.816
 20
4393998.073
 30
409.1700134277344
 11
520947.963
 21
4394004.131
 31
407.8900146484375
  0
LINE
  5
6B5
330
1F
100
AcDbEntity
  8
MEVCUT_SISTEM
370
     0
100
AcDbLine
 10
520947.963
 20
4394004.131
 30
407.8900146484375
 11
520947.977
 21
4394009.039
 31
406.6199951171875
  0
LINE
  5
6B6
330
1F
100
AcDbEntity
  8
MEVCUT_SISTEM
370
     0
100
AcDbLine
 10
520947.977
 20
4394009.039
 30
406.6199951171875
 11
520949.162
 21
4394022.706
 31
403.7699890136719
  0
LINE
  5
6B7
330
1F
100
AcDbEntity
  8
MEVCUT_SISTEM
370
     0
100
AcDbLine
 10
520949.162
 20
4394022.706
 30
403.7699890136719
 11
520959.727
 21
4394034.343
 31
401.4700012207031
  0
LINE
  5
6B8
330
1F
100
AcDbEntity
  8
MEVCUT_SISTEM
370
     0
100
AcDbLine
 10
520959.727
 20
4394034.343
 30
401.4700012207031
 11
520962.68
 21
4394037.192
 31
401.5199890136719
  0
LINE
  5
6B9
330
1F
100
AcDbEntity
  8
MEVCUT_SISTEM
370
     0
100
AcDbLine
 10
520962.68
 20
4394037.192
 30
401.5199890136719
 11
520971.028
 21
4394039.917
 31
401.1199951171875
  0
LINE
  5
6BA
330
1F
100
AcDbEntity
  8
MEVCUT_SISTEM
370
     0
100
AcDbLine
 10
520971.028
 20
4394039.917
 30
401.1199951171875
 11
520975.367
 21
4394040.742
 31
400.3999938964844
  0
LINE
  5
6BB
330
1F
100
AcDbEntity
  8
MEVCUT_SISTEM
370
     0
100
AcDbLine
 10
520975.367
 20
4394040.742
 30
400.3999938964844
 11
520984.763
 21
4394039.907
 31
397.8099975585938
  0
LINE
  5
6BC
330
1F
100
AcDbEntity
  8
MEVCUT_SISTEM
370
     0
100
AcDbLine
 10
520972.963
 20
4394044.468
 30
400.3999938964844
 11
520966.842
 21
4394042.959
 31
401.1199951171875
  0
LINE
  5
6BD
330
1F
100
AcDbEntity
  8
MEVCUT_SISTEM
370
     0
100
AcDbLine
 10
520966.842
 20
4394042.959
 30
401.1199951171875
 11
520960.586
 21
4394039.968
 31
401.5199890136719
  0
LINE
  5
6BE
330
1F
100
AcDbEntity
  8
MEVCUT_SISTEM
370
     0
100
AcDbLine
 10
520960.586
 20
4394039.968
 30
401.5199890136719
 11
520955.007
 21
4394037.327
 31
401.4700012207031
  0
LINE
  5
6BF
330
1F
100
AcDbEntity
  8
MEVCUT_SISTEM
370
     0
100
AcDbLine
 10
520955.007
 20
4394037.327
 30
401.4700012207031
 11
520943.739
 21
4394023.29
 31
403.7699890136719
  0
LINE
  5
6C0
330
1F
100
AcDbEntity
  8
MEVCUT_SISTEM
370
     0
100
AcDbLine
 10
520943.739
 20
4394023.29
 30
403.7699890136719
 11
520942.684
 21
4394008.248
 31
406.6199951171875
  0
LINE
  5
6C1
330
1F
100
AcDbEntity
  8
MEVCUT_SISTEM
370
     0
100
AcDbLine
 10
520942.684
 20
4394008.248
 30
406.6199951171875
 11
520943.655
 21
4394003.378
 31
407.8900146484375
  0
LINE
  5
6C2
330
1F
100
AcDbEntity
  8
MEVCUT_SISTEM
370
     0
100
AcDbLine
 10
520943.655
 20
4394003.378
 30
407.8900146484375
 11
520945.284
 21
4393997.714
 31
409.1700134277344
  0
LINE
  5
6C3
330
1F
100
AcDbEntity
  8
MEVCUT_SISTEM
370
     0
100
AcDbLine
 10
520945.284
 20
4393997.714
 30
409.1700134277344
 11
520952.061
 21
4393987.196
 31
410.5199890136719
  0
LINE
  5
6C4
330
1F
100
AcDbEntity
  8
MEVCUT_SISTEM
370
     0
100
AcDbLine
 10
520952.061
 20
4393987.196
 30
410.5199890136719
 11
520958.597
 21
4393981.711
 31
411.2300109863281
  0
LINE
  5
6C5
330
1F
100
AcDbEntity
  8
MEVCUT_SISTEM
370
     0
100
AcDbLine
 10
520958.597
 20
4393981.711
 30
411.2300109863281
 11
520964.015
 21
4393979.129
 31
411.8299865722656
  0
LINE
  5
6C6
330
1F
100
AcDbEntity
  8
MEVCUT_SISTEM
370
     0
100
AcDbLine
 10
520964.015
 20
4393979.129
 30
411.8299865722656
 11
520968.62
 21
4393978.86
 31
412.5499877929688
  0
LINE
  5
6C7
330
1F
100
AcDbEntity
  8
MEVCUT_SISTEM
370
     0
100
AcDbLine
 10
520968.62
 20
4393978.86
 30
412.5499877929688
 11
520971.675
 21
4393978.53
 31
413.6499938964844
  0
LINE
  5
6C8
330
1F
100
AcDbEntity
  8
MEVCUT_SISTEM
370
     0
100
AcDbLine
 10
520971.675
 20
4393978.53
 30
413.6499938964844
 11
520977.212
 21
4393979.662
 31
414.3699951171875
  0
LINE
  5
6C9
330
1F
100
AcDbEntity
  8
MEVCUT_SISTEM
370
     0
100
AcDbLine
 10
520977.212
 20
4393979.662
 30
414.3699951171875
 11
520982.09
 21
4393981.086
 31
415.1499938964844
  0
LINE
  5
6CA
330
1F
100
AcDbEntity
  8
MEVCUT_SISTEM
370
     0
100
AcDbLine
 10
520982.09
 20
4393981.086
 30
415.1499938964844
 11
520988.175
 21
4393984.357
 31
415.1499938964844
  0
LINE
  5
6CB
330
1F
100
AcDbEntity
  8
MEVCUT_SISTEM
370
     0
100
AcDbLine
 10
520988.175
 20
4393984.357
 30
415.1499938964844
 11
520994.003
 21
4393986.63
 31
415.1499938964844
  0
LINE
  5
6CC
330
1F
100
AcDbEntity
  8
MEVCUT_SISTEM
370
     0
100
AcDbLine
 10
520994.003
 20
4393986.63
 30
415.1499938964844
 11
521009.023
 21
4393985.308
 31
415.1499938964844
  0
LINE
  5
6CD
330
1F
100
AcDbEntity
  8
MEVCUT_SISTEM
370
     0
100
AcDbLine
 10
521009.023
 20
4393985.308
 30
415.1499938964844
 11
521018.286
 21
4393990.479
 31
415.1499938964844
  0
LINE
  5
6CE
330
1F
100
AcDbEntity
  8
MEVCUT_SISTEM
370
     0
100
AcDbLine
 10
521018.286
 20
4393990.479
 30
415.1499938964844
 11
521027.837
 21
4393996.306
 31
416.0
  0
LINE
  5
6CF
330
1F
100
AcDbEntity
  8
MEVCUT_SISTEM
370
     0
100
AcDbLine
 10
521027.837
 20
4393996.306
 30
416.0
 11
521031.064
 21
4393999.629
 31
416.7999877929688
  0
LINE
  5
6D0
330
1F
100
AcDbEntity
  8
MEVCUT_SISTEM
370
     0
100
AcDbLine
 10
521031.064
 20
4393999.629
 30
416.7999877929688
 11
521056.693
 21
4394006.094
 31
420.0
  0
LINE
  5
6D1
330
1F
100
AcDbEntity
  8
MEVCUT_SISTEM
370
     0
100
AcDbLine
 10
521056.693
 20
4394006.094
 30
420.0
 11
521063.96
 21
4394007.702
 31
420.0
  0
LINE
  5
6D2
330
1F
100
AcDbEntity
  8
MEVCUT_SISTEM
370
     0
100
AcDbLine
 10
521063.96
 20
4394007.702
 30
420.0
 11
521078.412
 21
4394012.457
 31
422.7699890136719
  0
LINE
  5
6D3
330
1F
100
AcDbEntity
  8
DESANDRE_1
370
     0
100
AcDbLine
 10
521086.54
 20
4394013.669
 30
423.7699890136719
 11
521092.228
 21
4394013.494
 31
423.7699890136719
  0
LINE
  5
6D4
330
1F
100
AcDbEntity
  8
DESANDRE_1
370
     0
100
AcDbLine
 10
521092.228
 20
4394013.494
 30
423.7699890136719
 11
521101.821
 21
4394018.696
 31
423.7699890136719
  0
LINE
  5
6D5
330
1F
100
AcDbEntity
  8
DESANDRE_1
370
     0
100
AcDbLine
 10
521101.821
 20
4394018.696
 30
423.7699890136719
 11
521103.395
 21
4394024.814
 31
423.7699890136719
  0
LINE
  5
6D6
330
1F
100
AcDbEntity
  8
DESANDRE_1
370
     0
100
AcDbLine
 10
521103.395
 20
4394024.814
 30
423.7699890136719
 11
521104.829
 21
4394028.187
 31
424.0
  0
LINE
  5
6D7
330
1F
100
AcDbEntity
  8
DESANDRE_1
370
     0
100
AcDbLine
 10
521104.829
 20
4394028.187
 30
424.0
 11
521117.862
 21
4394051.98
 31
424.25
  0
LINE
  5
6D8
330
1F
100
AcDbEntity
  8
DESANDRE_1
370
     0
100
AcDbLine
 10
521117.862
 20
4394051.98
 30
424.25
 11
521129.588
 21
4394067.61
 31
424.8099975585938
  0
LINE
  5
6D9
330
1F
100
AcDbEntity
  8
DESANDRE_1
370
     0
100
AcDbLine
 10
521129.588
 20
4394067.61
 30
424.8099975585938
 11
521135.5556189
 21
4394073.383580606
 31
424.8999938964844
  0
LINE
  5
6DA
330
1F
100
AcDbEntity
  8
DESANDRE_1
370
     0
100
AcDbLine
 10
521135.5556189
 20
4394073.383580606
 30
424.8999938964844
 11
521148.2106779338
 21
4394079.529941151
 31
425.1900024414062
  0
LINE
  5
6DB
330
1F
100
AcDbEntity
  8
DESANDRE_1
370
     0
100
AcDbLine
 10
521148.2106779338
 20
4394079.529941151
 30
425.1900024414062
 11
521186.3270880158
 21
4394087.689974651
 31
429.6499938964844
  0
LINE
  5
6DC
330
1F
100
AcDbEntity
  8
DESANDRE_1
370
     0
100
AcDbLine
 10
521186.3270880158
 20
4394087.689974651
 30
429.6499938964844
 11
521199.0338994222
 21
4394084.425200126
 31
430.9599914550781
  0
LINE
  5
6DD
330
1F
100
AcDbEntity
  8
DESANDRE_1
370
     0
100
AcDbLine
 10
521199.0338994222
 20
4394084.425200126
 30
430.9599914550781
 11
521218.9052627818
 21
4394073.615751714
 31
433.8299865722656
  0
LINE
  5
6DE
330
1F
100
AcDbEntity
  8
DESANDRE_1
370
     0
100
AcDbLine
 10
521218.9052627818
 20
4394073.615751714
 30
433.8299865722656
 11
521243.6195107899
 21
4394054.66037442
 31
436.4500122070312
  0
LINE
  5
6DF
330
1F
100
AcDbEntity
  8
DESANDRE_1
370
     0
100
AcDbLine
 10
521243.6195107899
 20
4394054.66037442
 30
436.4500122070312
 11
521252.0367536418
 21
4394027.700271518
 31
438.7000122070312
  0
LINE
  5
6E0
330
1F
100
AcDbEntity
  8
DESANDRE_1
370
     0
100
AcDbLine
 10
521252.0367536418
 20
4394027.700271518
 30
438.7000122070312
 11
521245.9123668132
 21
4393987.248556688
 31
442.8800048828125
  0
LINE
  5
6E1
330
1F
100
AcDbEntity
  8
DESANDRE_1
370
     0
100
AcDbLine
 10
521245.9123668132
 20
4393987.248556688
 30
442.8800048828125
 11
521240.696915039
 21
4393988.517914893
 31
442.8800048828125
  0
LINE
  5
6E2
330
1F
100
AcDbEntity
  8
DESANDRE_1
370
     0
100
AcDbLine
 10
521240.696915039
 20
4393988.517914893
 30
442.8800048828125
 11
521239.4379741228
 21
4393987.961764961
 31
442.8800048828125
  0
LINE
  5
6E3
330
1F
100
AcDbEntity
  8
DESANDRE_1
370
     0
100
AcDbLine
 10
521239.4379741228
 20
4393987.961764961
 30
442.8800048828125
 11
521238.7573976123
 21
4393985.317986978
 31
442.8800048828125
  0
LINE
  5
6E4
330
1F
100
AcDbEntity
  8
DESANDRE_1
370
     0
100
AcDbLine
 10
521238.7573976123
 20
4393985.317986978
 30
442.8800048828125
 11
521239.632751336
 21
4393984.14555219
 31
442.8800048828125
  0
LINE
  5
6E5
330
1F
100
AcDbEntity
  8
DESANDRE_1
370
     0
100
AcDbLine
 10
521239.632751336
 20
4393984.14555219
 30
442.8800048828125
 11
521244.6571303366
 21
4393982.922698067
 31
442.8800048828125
  0
LINE
  5
6E6
330
1F
100
AcDbEntity
  8
DESANDRE_1
370
     0
100
AcDbLine
 10
521244.6571303366
 20
4393982.922698067
 30
442.8800048828125
 11
521236.4837880669
 21
4393963.780248443
 31
445.0
  0
LINE
  5
6E7
330
1F
100
AcDbEntity
  8
DESANDRE_1
370
     0
100
AcDbLine
 10
521236.4837880669
 20
4393963.780248443
 30
445.0
 11
521186.842
 21
4393953.408
 31
453.8999938964844
  0
LINE
  5
6E8
330
1F
100
AcDbEntity
  8
DESANDRE_1
370
     0
100
AcDbLine
 10
521186.842
 20
4393953.408
 30
453.8999938964844
 11
521174.143693631
 21
4393949.458004101
 31
454.6000061035156
  0
LINE
  5
6E9
330
1F
100
AcDbEntity
  8
DESANDRE_1
370
     0
100
AcDbLine
 10
521174.143693631
 20
4393949.458004101
 30
454.6000061035156
 11
521167.0900043247
 21
4393952.380841163
 31
455.0
  0
LINE
  5
6EA
330
1F
100
AcDbEntity
  8
MEVCUT_SISTEM
370
     0
100
AcDbLine
 10
520984.763
 20
4394039.907
 30
397.8099975585938
 11
521006.351
 21
4394030.831
 31
394.5
  0
POINT
  5
6EB
330
1F
100
AcDbEntity
  8
MEVCUT_SISTEM
370
     0
100
AcDbPoint
 10
521004.396
 20
4394039.133
 30
396.4599914550781
  0
POINT
  5
6EC
330
1F
100
AcDbEntity
  8
MEVCUT_SISTEM
370
     0
100
AcDbPoint
 10
521002.229
 20
4394045.09
 30
396.4599914550781
  0
POINT
  5
6ED
330
1F
100
AcDbEntity
  8
MEVCUT_SISTEM
370
     0
100
AcDbPoint
 10
521014.3818185577
 20
4394041.214141565
 30
395.3999938964844
  0
POINT
  5
6EE
330
1F
100
AcDbEntity
  8
MEVCUT_SISTEM
370
     0
100
AcDbPoint
 10
521011.5269294483
 20
4394046.664384411
 30
395.3999938964844
  0
POINT
  5
6EF
330
1F
100
AcDbEntity
  8
MEVCUT_SISTEM
370
     0
100
AcDbPoint
 10
521024.8930011878
 20
4394052.76346569
 30
394.0
  0
POINT
  5
6F0
330
1F
100
AcDbEntity
  8
MEVCUT_SISTEM
370
     0
100
AcDbPoint
 10
521020.3511321502
 20
4394056.526728607
 30
394.0
  0
POINT
  5
6F1
330
1F
100
AcDbEntity
  8
MEVCUT_SISTEM
370
     0
100
AcDbPoint
 10
521022.3337457062
 20
4394057.518035385
 30
394.0
  0
POINT
  5
6F2
330
1F
100
AcDbEntity
  8
MEVCUT_SISTEM
370
     0
100
AcDbPoint
 10
521017.8863722747
 20
4394059.576765074
 30
394.0
  0
POINT
  5
6F3
330
1F
100
AcDbEntity
  8
MEVCUT_SISTEM
370
     0
100
AcDbPoint
 10
521019.442
 20
4394062.65
 30
394.0
  0
POINT
  5
6F4
330
1F
100
AcDbEntity
  8
MEVCUT_SISTEM
370
     0
100
AcDbPoint
 10
521027.582
 20
4394059.489
 30
394.0
  0
LINE
  5
6F5
330
1F
100
AcDbEntity
  8
MEVCUT_SISTEM
370
     0
100
AcDbLine
 10
521010.227
 20
4394034.472
 30
394.5
 11
521004.396
 21
4394039.133
 31
396.4599914550781
  0
LINE
  5
6F6
330
1F
100
AcDbEntity
  8
MEVCUT_SISTEM
370
     0
100
AcDbLine
 10
521004.396
 20
4394039.133
 30
396.4599914550781
 11
521014.3818185577
 21
4394041.214141565
 31
395.3999938964844
  0
LINE
  5
6F7
330
1F
100
AcDbEntity
  8
MEVCUT_SISTEM
370
     0
100
AcDbLine
 10
521014.3818185577
 20
4394041.214141565
 30
395.3999938964844
 11
521024.8930011878
 21
4394052.76346569
 31
394.0
  0
LINE
  5
6F8
330
1F
100
AcDbEntity
  8
MEVCUT_SISTEM
370
     0
100
AcDbLine
 10
521024.8930011878
 20
4394052.76346569
 30
394.0
 11
521035.3990729504
 21
4394052.105087454
 31
394.5
  0
LINE
  5
6F9
330
1F
100
AcDbEntity
  8
MEVCUT_SISTEM
370
     0
100
AcDbLine
 10
521036.867
 20
4394055.826
 30
394.5
 11
521027.582
 21
4394059.489
 31
394.0
  0
LINE
  5
6FA
330
1F
100
AcDbEntity
  8
MEVCUT_SISTEM
370
     0
100
AcDbLine
 10
521027.582
 20
4394059.489
 30
394.0
 11
521019.442
 21
4394062.65
 31
394.0
  0
LINE
  5
6FB
330
1F
100
AcDbEntity
  8
MEVCUT_SISTEM
370
     0
100
AcDbLine
 10
521019.442
 20
4394062.65
 30
394.0
 11
521017.8863722747
 21
4394059.576765074
 31
394.0
  0
LINE
  5
6FC
330
1F
100
AcDbEntity
  8
MEVCUT_SISTEM
370
     0
100
AcDbLine
 10
521017.8863722747
 20
4394059.576765074
 30
394.0
 11
521022.3337457062
 21
4394057.518035385
 31
394.0
  0
LINE
  5
6FD
330
1F
100
AcDbEntity
  8
MEVCUT_SISTEM
370
     0
100
AcDbLine
 10
521022.3337457062
 20
4394057.518035385
 30
394.0
 11
521020.3511321502
 21
4394056.526728607
 31
394.0
  0
LINE
  5
6FE
330
1F
100
AcDbEntity
  8
MEVCUT_SISTEM
370
     0
100
AcDbLine
 10
521020.3511321502
 20
4394056.526728607
 30
394.0
 11
521011.5269294483
 21
4394046.664384411
 31
395.3999938964844
  0
LINE
  5
6FF
330
1F
100
AcDbEntity
  8
MEVCUT_SISTEM
370
     0
100
AcDbLine
 10
521011.5269294483
 20
4394046.664384411
 30
395.3999938964844
 11
521002.229
 21
4394045.09
 31
396.4599914550781
  0
LINE
  5
700
330
1F
100
AcDbEntity
  8
MEVCUT_SISTEM
370
     0
100
AcDbLine
 10
521002.229
 20
4394045.09
 30
396.4599914550781
 11
520984.513
 21
4394045.325
 31
397.8099975585938
  0
POINT
  5
716
330
1F
100
AcDbEntity
  8
MEVCUT_SISTEM
370
     0
100
AcDbPoint
 10
521112.5351
 20
4394250.9271
 30
395.3999938964844
  0
POINT
  5
717
330
1F
100
AcDbEntity
  8
MEVCUT_SISTEM
370
     0
100
AcDbPoint
 10
521109.4220794931
 20
4394248.677589536
 30
391.0
  0
POINT
  5
71A
330
1F
100
AcDbEntity
  8
MEVCUT_SISTEM
370
     0
100
AcDbPoint
 10
521131.548152299
 20
4394249.983927195
 30
395.3999938964844
  0
POINT
  5
71C
330
1F
100
AcDbEntity
  8
MEVCUT_SISTEM
370
     0
100
AcDbPoint
 10
521125.3262640269
 20
4394239.74634891
 30
395.3999938964844
  0
POINT
  5
71D
330
1F
100
AcDbEntity
  8
MEVCUT_SISTEM
370
     0
100
AcDbPoint
 10
521120.5736355946
 20
4394241.330269678
 30
395.3999938964844
  0
POINT
  5
723
330
1F
100
AcDbEntity
  8
MEVCUT_SISTEM
370
     0
100
AcDbPoint
 10
521155.4882378388
 20
4394231.984742914
 30
393.8999938964844
  0
POINT
  5
724
330
1F
100
AcDbEntity
  8
MEVCUT_SISTEM
370
     0
100
AcDbPoint
 10
521141.9320034634
 20
4394232.047616588
 30
395.3999938964844
  0
POINT
  5
725
330
1F
100
AcDbEntity
  8
MEVCUT_SISTEM
370
     0
100
AcDbPoint
 10
521130.1424928945
 20
4394235.313105882
 30
395.3999938964844
  0
POINT
  5
726
330
1F
100
AcDbEntity
  8
MEVCUT_SISTEM
370
     0
100
AcDbPoint
 10
521130.4992083801
 20
4394238.87126598
 30
395.3999938964844
  0
POINT
  5
738
330
1F
100
AcDbEntity
  8
MEVCUT_SISTEM
370
     0
100
AcDbPoint
 10
521121.5196343665
 20
4394250.083853668
 30
395.3999938964844
  0
POINT
  5
7B1
330
1F
100
AcDbEntity
  8
MEVCUT_SISTEM
370
     0
100
AcDbPoint
 10
521108.3994679623
 20
4394242.563393401
 30
391.0
  0
LINE
  5
838
330
1F
100
AcDbEntity
  8
MEVCUT_SISTEM
370
     0
100
AcDbLine
 10
521120.5736355946
 20
4394241.330269678
 30
395.3999938964844
 11
521125.3262640269
 21
4394239.74634891
 31
395.3999938964844
  0
LINE
  5
839
330
1F
100
AcDbEntity
  8
MEVCUT_SISTEM
370
     0
100
AcDbLine
 10
521125.3262640269
 20
4394239.74634891
 30
395.3999938964844
 11
521130.4992083801
 21
4394238.87126598
 31
395.3999938964844
  0
LINE
  5
83A
330
1F
100
AcDbEntity
  8
MEVCUT_SISTEM
370
     0
100
AcDbLine
 10
521130.4992083801
 20
4394238.87126598
 30
395.3999938964844
 11
521130.1424928945
 21
4394235.313105882
 31
395.3999938964844
  0
LINE
  5
83B
330
1F
100
AcDbEntity
  8
MEVCUT_SISTEM
370
     0
100
AcDbLine
 10
521130.1424928945
 20
4394235.313105882
 30
395.3999938964844
 11
521141.9320034634
 21
4394232.047616588
 31
395.3999938964844
  0
LINE
  5
83C
330
1F
100
AcDbEntity
  8
MEVCUT_SISTEM
370
     0
100
AcDbLine
 10
521141.9320034634
 20
4394232.047616588
 30
395.3999938964844
 11
521155.4882378388
 21
4394231.984742914
 31
393.8999938964844
  0
LINE
  5
85F
330
1F
100
AcDbEntity
  8
MEVCUT_SISTEM
370
     0
100
AcDbLine
 10
521109.4220794931
 20
4394248.677589536
 30
391.0
 11
521112.5351
 21
4394250.9271
 31
395.3999938964844
  0
LINE
  5
860
330
1F
100
AcDbEntity
  8
MEVCUT_SISTEM
370
     0
100
AcDbLine
 10
521112.5351
 20
4394250.9271
 30
395.3999938964844
 11
521121.5196343665
 21
4394250.083853668
 31
395.3999938964844
  0
LINE
  5
861
330
1F
100
AcDbEntity
  8
MEVCUT_SISTEM
370
     0
100
AcDbLine
 10
521121.5196343665
 20
4394250.083853668
 30
395.3999938964844
 11
521131.548152299
 21
4394249.983927195
 31
395.3999938964844
  0
LINE
  5
9A1
330
1F
100
AcDbEntity
  8
MEVCUT_SISTEM
370
     0
100
AcDbLine
 10
521105.927
 20
4394224.9
 30
394.5
 11
521109.4220794931
 21
4394248.677589536
 31
391.0
  0
LINE
  5
9A2
330
1F
100
AcDbEntity
  8
MEVCUT_SISTEM
370
     0
100
AcDbLine
 10
521120.5736355946
 20
4394241.330269678
 30
395.3999938964844
 11
521112.022
 21
4394226.865
 31
394.5
  0
LINE
  5
9A3
330
1F
100
AcDbEntity
  8
MEVCUT_SISTEM
370
     0
100
AcDbLine
 10
521123.669
 20
4394221.748
 30
394.5
 11
521125.737
 21
4394226.357
 31
394.5
  0
LINE
  5
9A4
330
1F
100
AcDbEntity
  8
MEVCUT_SISTEM
370
     0
100
AcDbLine
 10
521117.748
 20
4394216.561
 30
394.5
 11
521124.3442
 21
4394217.0679
 31
394.93798828125
  0
LINE
  5
9A5
330
1F
100
AcDbEntity
  8
MEVCUT_SISTEM
370
     0
100
AcDbLine
 10
521115.623
 20
4394210.744
 30
394.5
 11
521120.1539
 21
4394211.6963
 31
394.93798828125
  0
LINE
  5
9A6
330
1F
100
AcDbEntity
  8
MEVCUT_SISTEM
370
     0
100
AcDbLine
 10
521098.2552918473
 20
4394213.045081641
 30
394.0
 11
521099.784
 21
4394209.801
 31
394.5
  0
LINE
  5
9A7
330
1F
100
AcDbEntity
  8
MEVCUT_SISTEM
370
     0
100
AcDbLine
 10
521101.6624248118
 20
4394220.346080851
 30
394.0
 11
521105.927
 21
4394224.9
 31
394.5
  0
LINE
  5
9A8
330
1F
100
AcDbEntity
  8
MEVCUT_SISTEM
370
     0
100
AcDbLine
 10
521083.9725842208
 20
4394194.333509604
 30
400.0
 11
521085.066
 21
4394190.197
 31
394.5
  0
LINE
  5
9A9
330
1F
100
AcDbEntity
  8
MEVCUT_SISTEM
370
     0
100
AcDbLine
 10
521086.0622928957
 20
4394189.878581447
 30
394.5
 11
521085.3556058583
 21
4394194.559727971
 31
400.0
  0
LINE
  5
9AA
330
1F
100
AcDbEntity
  8
MEVCUT_SISTEM
370
     0
100
AcDbLine
 10
521075.7494574058
 20
4394233.520026725
 30
437.0
 11
521073.693675702
 21
4394243.316656005
 31
444.5
  0
LINE
  5
9AB
330
1F
100
AcDbEntity
  8
MEVCUT_SISTEM
370
     0
100
AcDbLine
 10
521077.1324790434
 20
4394233.746245092
 30
437.0
 11
521075.1573152426
 21
4394243.158697537
 31
444.5
  0
LINE
  5
9AC
330
1F
100
AcDbEntity
  8
MEVCUT_SISTEM
370
     0
100
AcDbLine
 10
521086.3601291568
 20
4394006.931781045
 30
430.0
 11
521078.412
 21
4394012.457
 31
422.7699890136719
  0
LINE
  5
9AD
330
1F
100
AcDbEntity
  8
MEVCUT_SISTEM
370
     0
100
AcDbLine
 10
521088.3896492207
 20
4394007.59861398
 30
430.0
 11
521086.54
 21
4394013.669
 31
423.7699890136719
  0
LINE
  5
9AE
330
1F
100
AcDbEntity
  8
MEVCUT_SISTEM
370
     0
100
AcDbLine
 10
521106.2247663249
 20
4393982.192950498
 30
450.0
 11
521113.58127041
 21
4393973.031378281
 31
459.0
  0
LINE
  5
9AF
330
1F
100
AcDbEntity
  8
MEVCUT_SISTEM
370
     0
100
AcDbLine
 10
521107.8723897268
 20
4393983.335386221
 30
450.0
 11
521115.0652664103
 21
4393974.377590722
 31
459.0
  0
LINE
  5
9B0
330
1F
100
AcDbEntity
  8
DESANDRE_1
370
     0
100
AcDbLine
 10
521163.99935821
 20
4393947.723394808
 30
455.0
 11
521132.5973497865
 21
4393964.115131892
 31
459.0
  0
LINE
  5
9B1
330
1F
100
AcDbEntity
  8
DESANDRE_1
370
     0
100
AcDbLine
 10
521167.0900043247
 20
4393952.380841163
 30
455.0
 11
521136.6415881105
 21
4393965.879227697
 31
459.0
  0
LINE
  5
9B2
330
1F
100
AcDbEntity
  8
DES_5
370
     0
100
AcDbLine
 10
521259.8559857148
 20
4394179.143939672
 30
385.7999877929688
 11
521258.1394588859
 21
4394179.37297376
 31
387.0
  0
LINE
  5
9B3
330
1F
100
AcDbEntity
  8
DES_5
370
     0
100
AcDbLine
 10
521260.6106430847
 20
4394177.219563378
 30
385.7999877929688
 11
521260.5046929012
 21
4394178.618507685
 31
387.0
  0
LINE
  5
9BF
330
1F
100
AcDbEntity
  8
MEVCUT_SISTEM
370
     0
100
AcDbLine
 10
521156.5
 20
4394260.507
 30
366.0
 11
521158.4193
 21
4394256.1518
 31
369.7000122070312
  0
LINE
  5
9C0
330
1F
100
AcDbEntity
  8
MEVCUT_SISTEM
370
     0
100
AcDbLine
 10
521159.3722
 20
4394263.9761
 30
366.0
 11
521163.8515
 21
4394259.5679
 31
369.7000122070312
  0
LINE
  5
9C1
330
1F
100
AcDbEntity
  8
DES_5
370
     0
100
AcDbLine
 10
521172.3507118655
 20
4394176.514912194
 30
384.9400024414062
 11
521169.4853
 21
4394179.923
 31
387.0
  0
LINE
  5
9C2
330
1F
100
AcDbEntity
  8
DES_5
370
     0
100
AcDbLine
 10
521175.7167923559
 20
4394178.798652258
 30
384.9400024414062
 11
521174.6349
 21
4394180.9007
 31
387.0
  0
LINE
  5
9C3
330
1F
100
AcDbEntity
  8
DOGU_1
370
     0
100
AcDbLine
 10
521231.1734227756
 20
4394240.956729981
 30
378.0
 11
521228.4515
 21
4394238.4495
 31
379.4500122070312
  0
LINE
  5
9CB
330
1F
100
AcDbEntity
  8
MEVCUT_SISTEM
370
     0
100
AcDbLine
 10
520972.963
 20
4394044.468
 30
400.3999938964844
 11
520984.513
 21
4394045.325
 31
397.8099975585938
  0
POINT
  5
9E7
330
1F
100
AcDbEntity
  8
_DOSYADAN_EKLENDI
370
     0
100
AcDbPoint
 10
520812.4801619297
 20
4394343.318186788
 30
461.39599609375
  0
POINT
  5
9E8
330
1F
100
AcDbEntity
  8
_DOSYADAN_EKLENDI
370
     0
100
AcDbPoint
 10
520798.7390282845
 20
4394340.743358248
 30
461.39599609375
  0
POINT
  5
9E9
330
1F
100
AcDbEntity
  8
_DOSYADAN_EKLENDI
370
     0
100
AcDbPoint
 10
520800.6132799105
 20
4394332.159844682
 30
461.39599609375
  0
POINT
  5
9EA
330
1F
100
AcDbEntity
  8
_DOSYADAN_EKLENDI
370
     0
100
AcDbPoint
 10
520814.1135115661
 20
4394334.867801479
 30
461.39599609375
  0
LINE
  5
9EB
330
1F
100
AcDbEntity
  8
SARJODASi
370
     0
100
AcDbLine
 10
520800.6132799105
 20
4394332.159844682
 30
461.39599609375
 11
520814.1135115661
 21
4394334.867801479
 31
461.39599609375
  0
LINE
  5
9EC
330
1F
100
AcDbEntity
  8
SARJODASi
370
     0
100
AcDbLine
 10
520814.1135115661
 20
4394334.867801479
 30
461.39599609375
 11
520812.4801619297
 21
4394343.318186788
 31
461.39599609375
  0
LINE
  5
9ED
330
1F
100
AcDbEntity
  8
SARJODASi
370
     0
100
AcDbLine
 10
520812.4801619297
 20
4394343.318186788
 30
461.39599609375
 11
520798.7390282845
 21
4394340.743358248
 31
461.39599609375
  0
LINE
  5
9EE
330
1F
100
AcDbEntity
  8
SARJODASi
370
     0
100
AcDbLine
 10
520798.7390282845
 20
4394340.743358248
 30
461.39599609375
 11
520800.6132799105
 21
4394332.159844682
 31
461.39599609375
  0
POINT
  5
A4A
330
1F
100
AcDbEntity
  8
INIT_COORD
100
AcDbPoint
 10
521053.941
 20
4394243.958
 30
444.5
  0
ENDSEC
  0
SECTION
  2
OBJECTS
  0
DICTIONARY
  5
C
330
0
100
AcDbDictionary
281
     1
  3
ACAD_DETAILVIEWSTYLE
350
A2C
  3
ACAD_GROUP
350
D
  3
ACAD_LAYOUT
350
1A
  3
ACAD_MATERIAL
350
3B
  3
ACAD_MLEADERSTYLE
350
9F0
  3
ACAD_MLINESTYLE
350
17
  3
ACAD_PLOTSETTINGS
350
19
  3
ACAD_PLOTSTYLENAME
350
E
  3
ACAD_SCALELIST
350
9F1
  3
ACAD_SECTIONVIEWSTYLE
350
A2D
  3
ACAD_TABLESTYLE
350
9EF
  3
ACAD_VISUALSTYLE
350
2A
  3
ACDB_RECOMPOSE_DATA
350
B09
  3
AcDbVariableDictionary
350
A28
  3
APPDATA
350
A1F
  0
SUN
  5
A20
330
29
100
AcDbSun
 90
        1
290
     0
 63
     7
421
 16777215
 40
1.0
291
     1
 91
  2455826
 92
 54000000
292
     0
 70
     2
 71
   256
280
     1
  0
DICTIONARY
  5
A21
330
2
100
AcDbDictionary
280
     1
281
     1
  3
ACAD_LAYERSTATES
360
A22
  3
ACLYDICTIONARY
360
B06
  0
DICTIONARY
  5
A2C
102
{ACAD_REACTORS
330
C
102
}
330
C
100
AcDbDictionary
281
     1
  0
DICTIONARY
  5
D
102
{ACAD_REACTORS
330
C
102
}
330
C
100
AcDbDictionary
281
     1
  0
DICTIONARY
  5
1A
102
{ACAD_REACTORS
330
C
102
}
330
C
100
AcDbDictionary
281
     1
  3
Layout1
350
1E
  3
Layout2
350
26
  3
Model
350
22
  0
DICTIONARY
  5
3B
102
{ACAD_REACTORS
330
C
102
}
330
C
100
AcDbDictionary
281
     1
  3
ByBlock
350
3D
  3
ByLayer
350
3C
  3
Global
350
3E
  0
DICTIONARY
  5
9F0
102
{ACAD_REACTORS
330
C
102
}
330
C
100
AcDbDictionary
281
     1
  3
Standard
350
A1E
  0
DICTIONARY
  5
17
102
{ACAD_REACTORS
330
C
102
}
330
C
100
AcDbDictionary
281
     1
  3
Standard
350
18
  0
DICTIONARY
  5
19
102
{ACAD_REACTORS
330
C
102
}
330
C
100
AcDbDictionary
281
     1
  0
ACDBDICTIONARYWDFLT
  5
E
102
{ACAD_REACTORS
330
C
102
}
330
C
100
AcDbDictionary
281
     1
  3
Normal
350
F
100
AcDbDictionaryWithDefault
340
F
  0
DICTIONARY
  5
9F1
102
{ACAD_REACTORS
330
C
102
}
330
C
100
AcDbDictionary
281
     1
  3
A0
350
9F2
  3
A1
350
9F3
  3
A2
350
9F4
  3
A3
350
9F5
  3
A4
350
9F6
  3
A5
350
9F7
  3
A6
350
9F8
  3
A7
350
9F9
  3
A8
350
9FA
  3
A9
350
9FB
  3
B0
350
9FC
  3
B1
350
9FD
  3
B2
350
9FE
  3
B3
350
9FF
  3
B4
350
A00
  3
B5
350
A01
  3
B6
350
A02
  3
B7
350
A03
  3
B8
350
A04
  3
B9
350
A05
  3
C0
350
A06
  3
C1
350
A07
  3
C2
350
A08
  3
C3
350
A09
  3
C4
350
A0A
  3
C5
350
A0B
  3
C6
350
A0C
  3
C7
350
A0D
  3
C8
350
A0E
  3
C9
350
A0F
  3
D0
350
A10
  3
D1
350
A11
  3
D2
350
A12
  0
DICTIONARY
  5
A2D
102
{ACAD_REACTORS
330
C
102
}
330
C
100
AcDbDictionary
281
     1
  0
DICTIONARY
  5
9EF
102
{ACAD_REACTORS
330
C
102
}
330
C
100
AcDbDictionary
281
     1
  3
Standard
350
A1D
  0
DICTIONARY
  5
2A
102
{ACAD_REACTORS
330
C
102
}
330
C
100
AcDbDictionary
281
     1
  3
2dWireframe
350
2F
  3
3D Hidden
350
31
  3
3dWireframe
350
30
  3
Basic
350
32
  3
Brighten
350
36
  3
ColorChange
350
3A
  3
Conceptual
350
34
  3
Dim
350
35
  3
EdgeColorOff
350
A17
  3
Facepattern
350
39
  3
Flat
350
2B
  3
FlatWithEdges
350
2C
  3
Gouraud
350
2D
  3
GouraudWithEdges
350
2E
  3
Hidden
350
A14
  3
JitterOff
350
A15
  3
Linepattern
350
38
  3
OverhangOff
350
A16
  3
Realistic
350
33
  3
Shaded
350
A1C
  3
Shaded with edges
350
A1B
  3
Shades of Gray
350
A18
  3
Sketchy
350
A19
  3
Thicken
350
37
  3
Wireframe
350
A13
  3
X-Ray
350
A1A
  0
XRECORD
  5
B09
102
{ACAD_REACTORS
330
C
102
}
330
C
100
AcDbXrecord
280
     1
 90
        1
330
A1D
  0
DICTIONARY
  5
A28
102
{ACAD_REACTORS
330
C
102
}
330
C
100
AcDbDictionary
281
     1
  3
CANNOSCALE
350
A29
  3
CMLEADERSTYLE
350
A2B
  3
CTABLESTYLE
350
A2A
  0
DICTIONARY
  5
A1F
102
{ACAD_REACTORS
330
C
102
}
330
C
100
AcDbDictionary
281
     1
  0
DICTIONARY
  5
A22
102
{ACAD_REACTORS
330
A21
102
}
330
A21
100
AcDbDictionary
281
     1
  0
DICTIONARY
  5
B06
102
{ACAD_REACTORS
330
A21
102
}
330
A21
100
AcDbDictionary
281
     1
1001
ACAD
1000
<All
  0
LAYOUT
  5
1E
102
{ACAD_REACTORS
330
1A
102
}
330
1A
100
AcDbPlotSettings
  1

  2
none_device
  4

  6

 40
0.0
 41
0.0
 42
0.0
 43
0.0
 44
0.0
 45
0.0
 46
0.0
 47
0.0
 48
0.0
 49
0.0
140
0.0
141
0.0
142
1.0
143
1.0
 70
   688
 72
     0
 73
     0
 74
     5
  7

 75
    16
 76
     0
 77
     2
 78
   300
147
1.0
148
0.0
149
0.0
100
AcDbLayout
  1
Layout1
 70
     1
 71
     1
 10
0.0
 20
0.0
 11
420.0
 21
297.0
 12
0.0
 22
0.0
 32
0.0
 14
1.000000000000000E+20
 24
1.000000000000000E+20
 34
1.000000000000000E+20
 15
-1.000000000000000E+20
 25
-1.000000000000000E+20
 35
-1.000000000000000E+20
146
0.0
 13
0.0
 23
0.0
 33
0.0
 16
1.0
 26
0.0
 36
0.0
 17
0.0
 27
1.0
 37
0.0
 76
     0
330
1B
  0
LAYOUT
  5
26
102
{ACAD_REACTORS
330
1A
102
}
330
1A
100
AcDbPlotSettings
  1

  2
none_device
  4

  6

 40
0.0
 41
0.0
 42
0.0
 43
0.0
 44
0.0
 45
0.0
 46
0.0
 47
0.0
 48
0.0
 49
0.0
140
0.0
141
0.0
142
1.0
143
1.0
 70
   688
 72
     0
 73
     0
 74
     5
  7

 75
    16
 76
     0
 77
     2
 78
   300
147
1.0
148
0.0
149
0.0
100
AcDbLayout
  1
Layout2
 70
     1
 71
     2
 10
0.0
 20
0.0
 11
0.0
 21
0.0
 12
0.0
 22
0.0
 32
0.0
 14
0.0
 24
0.0
 34
0.0
 15
0.0
 25
0.0
 35
0.0
146
0.0
 13
0.0
 23
0.0
 33
0.0
 16
1.0
 26
0.0
 36
0.0
 17
0.0
 27
1.0
 37
0.0
 76
     0
330
23
  0
LAYOUT
  5
22
102
{ACAD_REACTORS
330
1A
102
}
330
1A
100
AcDbPlotSettings
  1

  2
none_device
  4

  6

 40
0.0
 41
0.0
 42
0.0
 43
0.0
 44
0.0
 45
0.0
 46
0.0
 47
0.0
 48
0.0
 49
0.0
140
0.0
141
0.0
142
1.0
143
1.0
 70
  1712
 72
     0
 73
     0
 74
     0
  7

 75
     0
 76
     0
 77
     2
 78
   300
147
1.0
148
0.0
149
0.0
100
AcDbLayout
  1
Model
 70
     1
 71
     0
 10
0.0
 20
0.0
 11
420.0
 21
297.0
 12
0.0
 22
0.0
 32
0.0
 14
520798.7390282845
 24
4393944.424299113
 34
349.0599975585938
 15
521279.8699500935
 25
4394343.318186788
 35
461.39599609375
146
0.0
 13
0.0
 23
0.0
 33
0.0
 16
1.0
 26
0.0
 36
0.0
 17
0.0
 27
1.0
 37
0.0
 76
     0
330
1F
331
29
  0
MATERIAL
  5
3D
102
{ACAD_REACTORS
330
3B
102
}
330
3B
100
AcDbMaterial
  1
ByBlock
 72
     1
 94
      127
  0
MATERIAL
  5
3C
102
{ACAD_REACTORS
330
3B
102
}
330
3B
100
AcDbMaterial
  1
ByLayer
 72
     1
 94
      127
  0
MATERIAL
  5
3E
102
{ACAD_REACTORS
330
3B
102
}
330
3B
100
AcDbMaterial
  1
Global
 72
     1
 94
      127
  0
MLEADERSTYLE
  5
A1E
102
{ACAD_REACTORS
330
9F0
102
}
330
9F0
100
AcDbMLeaderStyle
179
     2
170
     2
171
     1
172
     0
 90
        2
 40
0.0
 41
0.0
173
     1
 91
-1056964608
340
14
 92
       -2
290
     1
 42
2.0
291
     1
 43
8.0
  3
Standard
341
0
 44
4.0
300

342
11
174
     1
178
     1
175
     1
176
     0
 93
-1056964608
 45
4.0
292
     0
297
     0
 46
4.0
343
0
 94
-1056964608
 47
1.0
 49
1.0
140
1.0
293
     1
141
0.0
294
     1
177
     0
142
1.0
295
     0
296
     0
143
3.75
271
     0
272
     9
273
     9
  0
MLINESTYLE
  5
18
102
{ACAD_REACTORS
330
17
102
}
330
17
100
AcDbMlineStyle
  2
Standard
 70
     0
  3

 62
   256
 51
90.0
 52
90.0
 71
     2
 49
0.5
 62
   256
  6
BYLAYER
 49
-0.5
 62
   256
  6
BYLAYER
  0
ACDBPLACEHOLDER
  5
F
102
{ACAD_REACTORS
330
E
102
}
330
E
  0
SCALE
  5
9F2
102
{ACAD_REACTORS
330
9F1
102
}
330
9F1
100
AcDbScale
 70
     0
300
1:1
140
1.0
141
1.0
290
     1
  0
SCALE
  5
9F3
102
{ACAD_REACTORS
330
9F1
102
}
330
9F1
100
AcDbScale
 70
     0
300
1:2
140
1.0
141
2.0
290
     0
  0
SCALE
  5
9F4
102
{ACAD_REACTORS
330
9F1
102
}
330
9F1
100
AcDbScale
 70
     0
300
1:4
140
1.0
141
4.0
290
     0
  0
SCALE
  5
9F5
102
{ACAD_REACTORS
330
9F1
102
}
330
9F1
100
AcDbScale
 70
     0
300
1:5
140
1.0
141
5.0
290
     0
  0
SCALE
  5
9F6
102
{ACAD_REACTORS
330
9F1
102
}
330
9F1
100
AcDbScale
 70
     0
300
1:8
140
1.0
141
8.0
290
     0
  0
SCALE
  5
9F7
102
{ACAD_REACTORS
330
9F1
102
}
330
9F1
100
AcDbScale
 70
     0
300
1:10
140
1.0
141
10.0
290
     0
  0
SCALE
  5
9F8
102
{ACAD_REACTORS
330
9F1
102
}
330
9F1
100
AcDbScale
 70
     0
300
1:16
140
1.0
141
16.0
290
     0
  0
SCALE
  5
9F9
102
{ACAD_REACTORS
330
9F1
102
}
330
9F1
100
AcDbScale
 70
     0
300
1:20
140
1.0
141
20.0
290
     0
  0
SCALE
  5
9FA
102
{ACAD_REACTORS
330
9F1
102
}
330
9F1
100
AcDbScale
 70
     0
300
1:30
140
1.0
141
30.0
290
     0
  0
SCALE
  5
9FB
102
{ACAD_REACTORS
330
9F1
102
}
330
9F1
100
AcDbScale
 70
     0
300
1:40
140
1.0
141
40.0
290
     0
  0
SCALE
  5
9FC
102
{ACAD_REACTORS
330
9F1
102
}
330
9F1
100
AcDbScale
 70
     0
300
1:50
140
1.0
141
50.0
290
     0
  0
SCALE
  5
9FD
102
{ACAD_REACTORS
330
9F1
102
}
330
9F1
100
AcDbScale
 70
     0
300
1:100
140
1.0
141
100.0
290
     0
  0
SCALE
  5
9FE
102
{ACAD_REACTORS
330
9F1
102
}
330
9F1
100
AcDbScale
 70
     0
300
2:1
140
2.0
141
1.0
290
     0
  0
SCALE
  5
9FF
102
{ACAD_REACTORS
330
9F1
102
}
330
9F1
100
AcDbScale
 70
     0
300
4:1
140
4.0
141
1.0
290
     0
  0
SCALE
  5
A00
102
{ACAD_REACTORS
330
9F1
102
}
330
9F1
100
AcDbScale
 70
     0
300
8:1
140
8.0
141
1.0
290
     0
  0
SCALE
  5
A01
102
{ACAD_REACTORS
330
9F1
102
}
330
9F1
100
AcDbScale
 70
     0
300
10:1
140
10.0
141
1.0
290
     0
  0
SCALE
  5
A02
102
{ACAD_REACTORS
330
9F1
102
}
330
9F1
100
AcDbScale
 70
     0
300
100:1
140
100.0
141
1.0
290
     0
  0
SCALE
  5
A03
102
{ACAD_REACTORS
330
9F1
102
}
330
9F1
100
AcDbScale
 70
     0
300
1/128" = 1'-0"
140
0.0078125
141
12.0
290
     0
  0
SCALE
  5
A04
102
{ACAD_REACTORS
330
9F1
102
}
330
9F1
100
AcDbScale
 70
     0
300
1/64" = 1'-0"
140
0.015625
141
12.0
290
     0
  0
SCALE
  5
A05
102
{ACAD_REACTORS
330
9F1
102
}
330
9F1
100
AcDbScale
 70
     0
300
1/32" = 1'-0"
140
0.03125
141
12.0
290
     0
  0
SCALE
  5
A06
102
{ACAD_REACTORS
330
9F1
102
}
330
9F1
100
AcDbScale
 70
     0
300
1/16" = 1'-0"
140
0.0625
141
12.0
290
     0
  0
SCALE
  5
A07
102
{ACAD_REACTORS
330
9F1
102
}
330
9F1
100
AcDbScale
 70
     0
300
3/32" = 1'-0"
140
0.09375
141
12.0
290
     0
  0
SCALE
  5
A08
102
{ACAD_REACTORS
330
9F1
102
}
330
9F1
100
AcDbScale
 70
     0
300
1/8" = 1'-0"
140
0.125
141
12.0
290
     0
  0
SCALE
  5
A09
102
{ACAD_REACTORS
330
9F1
102
}
330
9F1
100
AcDbScale
 70
     0
300
3/16" = 1'-0"
140
0.1875
141
12.0
290
     0
  0
SCALE
  5
A0A
102
{ACAD_REACTORS
330
9F1
102
}
330
9F1
100
AcDbScale
 70
     0
300
1/4" = 1'-0"
140
0.25
141
12.0
290
     0
  0
SCALE
  5
A0B
102
{ACAD_REACTORS
330
9F1
102
}
330
9F1
100
AcDbScale
 70
     0
300
3/8" = 1'-0"
140
0.375
141
12.0
290
     0
  0
SCALE
  5
A0C
102
{ACAD_REACTORS
330
9F1
102
}
330
9F1
100
AcDbScale
 70
     0
300
1/2" = 1'-0"
140
0.5
141
12.0
290
     0
  0
SCALE
  5
A0D
102
{ACAD_REACTORS
330
9F1
102
}
330
9F1
100
AcDbScale
 70
     0
300
3/4" = 1'-0"
140
0.75
141
12.0
290
     0
  0
SCALE
  5
A0E
102
{ACAD_REACTORS
330
9F1
102
}
330
9F1
100
AcDbScale
 70
     0
300
1" = 1'-0"
140
1.0
141
12.0
290
     0
  0
SCALE
  5
A0F
102
{ACAD_REACTORS
330
9F1
102
}
330
9F1
100
AcDbScale
 70
     0
300
1-1/2" = 1'-0"
140
1.5
141
12.0
290
     0
  0
SCALE
  5
A10
102
{ACAD_REACTORS
330
9F1
102
}
330
9F1
100
AcDbScale
 70
     0
300
3" = 1'-0"
140
3.0
141
12.0
290
     0
  0
SCALE
  5
A11
102
{ACAD_REACTORS
330
9F1
102
}
330
9F1
100
AcDbScale
 70
     0
300
6" = 1'-0"
140
6.0
141
12.0
290
     0
  0
SCALE
  5
A12
102
{ACAD_REACTORS
330
9F1
102
}
330
9F1
100
AcDbScale
 70
     0
300
1'-0" = 1'-0"
140
12.0
141
12.0
290
     0
  0
TABLESTYLE
  5
A1D
102
{ACAD_REACTORS
330
9EF
102
}
102
{ACAD_XDICTIONARY
360
B07
102
}
330
9EF
100
AcDbTableStyle
  3
Standard
 70
     0
 71
     0
 40
1.5
 41
1.5
280
     0
281
     0
  7
Standard
140
4.5
170
     2
 62
     0
 63
   257
283
     0
 90
        4
 91
        0
  1

274
    -2
284
     1
 64
     0
275
    -2
285
     1
 65
     0
276
    -2
286
     1
 66
     0
277
    -2
287
     1
 67
     0
278
    -2
288
     1
 68
     0
279
    -2
289
     1
 69
     0
  7
Standard
140
6.0
170
     5
 62
     0
 63
   257
283
     0
 90
        4
 91
        0
  1

274
    -2
284
     1
 64
     0
275
    -2
285
     1
 65
     0
276
    -2
286
     1
 66
     0
277
    -2
287
     1
 67
     0
278
    -2
288
     1
 68
     0
279
    -2
289
     1
 69
     0
  7
Standard
140
4.5
170
     5
 62
     0
 63
   257
283
     0
 90
        4
 91
        0
  1

274
    -2
284
     1
 64
     0
275
    -2
285
     1
 65
     0
276
    -2
286
     1
 66
     0
277
    -2
287
     1
 67
     0
278
    -2
288
     1
 68
     0
279
    -2
289
     1
 69
     0
  0
VISUALSTYLE
  5
2F
102
{ACAD_REACTORS
330
2A
102
}
330
2A
100
AcDbVisualStyle
  2
2dWireframe
 70
     4
177
     2
291
     0
 71
     0
176
     1
 72
     2
176
     1
 73
     0
176
     1
 90
        0
176
     1
 40
-0.6
176
     1
 41
-30.0
176
     1
 62
     5
 63
     7
421
 16777215
176
     1
 74
     1
176
     1
 91
        4
176
     1
 64
     7
176
     1
 65
   257
176
     1
 75
     1
176
     1
175
     1
176
     1
 42
1.0
176
     1
 92
        0
176
     1
 66
   257
176
     1
 43
1.0
176
     1
 76
     1
176
     1
 77
     6
176
     1
 78
     2
176
     1
 67
     7
176
     1
 79
     5
176
     1
170
     0
176
     1
171
     0
176
     1
290
     0
176
     1
 93
        1
176
     1
 44
0.0
176
     1
173
     0
176
     1
  0
VISUALSTYLE
  5
31
102
{ACAD_REACTORS
330
2A
102
}
330
2A
100
AcDbVisualStyle
  2
3D Hidden
 70
     6
177
     2
291
     0
 71
     1
176
     1
 72
     2
176
     1
 73
     2
176
     1
 90
        0
176
     1
 40
-0.6
176
     1
 41
-30.0
176
     1
 62
     5
 63
     7
421
 16777215
176
     1
 74
     2
176
     1
 91
        2
176
     1
 64
     7
176
     1
 65
   257
176
     1
 75
     2
176
     1
175
     1
176
     1
 42
40.0
176
     1
 92
        0
176
     1
 66
   257
176
     1
 43
1.0
176
     1
 76
     1
176
     1
 77
     6
176
     1
 78
     2
176
     1
 67
     7
176
     1
 79
     3
176
     1
170
     0
176
     1
171
     0
176
     1
290
     0
176
     1
 93
        1
176
     1
 44
0.0
176
     1
173
     0
176
     1
  0
VISUALSTYLE
  5
30
102
{ACAD_REACTORS
330
2A
102
}
330
2A
100
AcDbVisualStyle
  2
3dWireframe
 70
     5
177
     2
291
     0
 71
     0
176
     1
 72
     2
176
     1
 73
     0
176
     1
 90
        0
176
     1
 40
-0.6
176
     1
 41
-30.0
176
     1
 62
     5
 63
     7
421
 16777215
176
     1
 74
     1
176
     1
 91
        4
176
     1
 64
     7
176
     1
 65
   257
176
     1
 75
     1
176
     1
175
     1
176
     1
 42
1.0
176
     1
 92
        0
176
     1
 66
   257
176
     1
 43
1.0
176
     1
 76
     1
176
     1
 77
     6
176
     1
 78
     2
176
     1
 67
     7
176
     1
 79
     5
176
     1
170
     0
176
     1
171
     0
176
     1
290
     0
176
     1
 93
        1
176
     1
 44
0.0
176
     1
173
     0
176
     1
  0
VISUALSTYLE
  5
32
102
{ACAD_REACTORS
330
2A
102
}
330
2A
100
AcDbVisualStyle
  2
Basic
 70
     7
177
     2
291
     1
 71
     1
176
     1
 72
     0
176
     1
 73
     1
176
     1
 90
        0
176
     1
 40
-0.6
176
     1
 41
-30.0
176
     1
 62
     5
 63
     7
421
 16777215
176
     1
 74
     0
176
     1
 91
        4
176
     1
 64
     7
176
     1
 65
   257
176
     1
 75
     1
176
     1
175
     1
176
     1
 42
1.0
176
     1
 92
        8
176
     1
 66
     7
176
     1
 43
1.0
176
     1
 76
     1
176
     1
 77
     6
176
     1
 78
     2
176
     1
 67
     7
176
     1
 79
     5
176
     1
170
     0
176
     1
171
     0
176
     1
290
     0
176
     1
 93
        1
176
     1
 44
0.0
176
     1
173
     0
176
     1
  0
VISUALSTYLE
  5
36
102
{ACAD_REACTORS
330
2A
102
}
330
2A
100
AcDbVisualStyle
  2
Brighten
 70
    12
177
     2
291
     1
 71
     2
176
     1
 72
     2
176
     1
 73
     0
176
     1
 90
        0
176
     1
 40
-0.6
176
     1
 41
-30.0
176
     1
 62
     5
 63
     7
421
 16777215
176
     1
 74
     1
176
     1
 91
        4
176
     1
 64
     7
176
     1
 65
   257
176
     1
 75
     1
176
     1
175
     1
176
     1
 42
1.0
176
     1
 92
        8
176
     1
 66
     7
176
     1
 43
1.0
176
     1
 76
     1
176
     1
 77
     6
176
     1
 78
     2
176
     1
 67
     7
176
     1
 79
     5
176
     1
170
     0
176
     1
171
     0
176
     1
290
     0
176
     1
 93
        1
176
     1
 44
50.0
176
     1
173
     0
176
     1
  0
VISUALSTYLE
  5
3A
102
{ACAD_REACTORS
330
2A
102
}
330
2A
100
AcDbVisualStyle
  2
ColorChange
 70
    16
177
     2
291
     1
 71
     2
176
     1
 72
     2
176
     1
 73
     3
176
     1
 90
        0
176
     1
 40
-0.6
176
     1
 41
-30.0
176
     1
 62
     5
 63
     8
421
  8421504
176
     1
 74
     1
176
     1
 91
        4
176
     1
 64
     7
176
     1
 65
   257
176
     1
 75
     1
176
     1
175
     1
176
     1
 42
1.0
176
     1
 92
        8
176
     1
 66
     8
424
  8421504
176
     1
 43
1.0
176
     1
 76
     1
176
     1
 77
     6
176
     1
 78
     2
176
     1
 67
     7
176
     1
 79
     5
176
     1
170
     0
176
     1
171
     0
176
     1
290
     0
176
     1
 93
        1
176
     1
 44
0.0
176
     1
173
     0
176
     1
  0
VISUALSTYLE
  5
34
102
{ACAD_REACTORS
330
2A
102
}
330
2A
100
AcDbVisualStyle
  2
Conceptual
 70
     9
177
     2
291
     0
 71
     3
176
     1
 72
     2
176
     1
 73
     0
176
     1
 90
        0
176
     1
 40
-0.6
176
     1
 41
-30.0
176
     1
 62
     5
 63
     7
421
 16777215
176
     1
 74
     2
176
     1
 91
        2
176
     1
 64
     7
176
     1
 65
   257
176
     1
 75
     1
176
     1
175
     1
176
     1
 42
40.0
176
     1
 92
        8
176
     1
 66
     7
176
     1
 43
1.0
176
     1
 76
     1
176
     1
 77
     6
176
     1
 78
     2
176
     1
 67
     7
176
     1
 79
     3
176
     1
170
     0
176
     1
171
     0
176
     1
290
     0
176
     1
 93
        1
176
     1
 44
0.0
176
     1
173
     0
176
     1
  0
VISUALSTYLE
  5
35
102
{ACAD_REACTORS
330
2A
102
}
330
2A
100
AcDbVisualStyle
  2
Dim
 70
    11
177
     2
291
     1
 71
     2
176
     1
 72
     2
176
     1
 73
     0
176
     1
 90
        0
176
     1
 40
-0.6
176
     1
 41
-30.0
176
     1
 62
     5
 63
     7
421
 16777215
176
     1
 74
     1
176
     1
 91
        4
176
     1
 64
     7
176
     1
 65
   257
176
     1
 75
     1
176
     1
175
     1
176
     1
 42
1.0
176
     1
 92
        8
176
     1
 66
     7
176
     1
 43
1.0
176
     1
 76
     1
176
     1
 77
     6
176
     1
 78
     2
176
     1
 67
     7
176
     1
 79
     5
176
     1
170
     0
176
     1
171
     0
176
     1
290
     0
176
     1
 93
        1
176
     1
 44
-50.0
176
     1
173
     0
176
     1
  0
VISUALSTYLE
  5
A17
102
{ACAD_REACTORS
330
2A
102
}
330
2A
100
AcDbVisualStyle
  2
EdgeColorOff
 70
    22
177
     2
291
     1
 71
     2
176
     0
 72
     2
176
     0
 73
     0
176
     0
 90
        0
176
     0
 40
0.6
176
     0
 41
30.0
176
     0
 62
     5
 63
     7
421
 16777215
176
     0
 74
     1
176
     0
 91
        4
176
     0
 64
     7
176
     0
 65
   257
176
     0
 75
     1
176
     0
175
     1
176
     0
 42
1.0
176
     0
 92
        8
176
     2
 66
     7
176
     0
 43
1.0
176
     0
 76
     1
176
     0
 77
     6
176
     0
 78
     2
176
     0
 67
     7
176
     0
 79
     5
176
     0
170
     0
176
     0
171
     0
176
     0
290
     0
176
     0
 93
        1
176
     0
 44
0.0
176
     0
173
     0
176
     0
  0
VISUALSTYLE
  5
39
102
{ACAD_REACTORS
330
2A
102
}
330
2A
100
AcDbVisualStyle
  2
Facepattern
 70
    15
177
     2
291
     1
 71
     2
176
     1
 72
     2
176
     1
 73
     0
176
     1
 90
        0
176
     1
 40
-0.6
176
     1
 41
-30.0
176
     1
 62
     5
 63
     7
421
 16777215
176
     1
 74
     1
176
     1
 91
        4
176
     1
 64
     7
176
     1
 65
   257
176
     1
 75
     1
176
     1
175
     1
176
     1
 42
1.0
176
     1
 92
        8
176
     1
 66
     7
176
     1
 43
1.0
176
     1
 76
     1
176
     1
 77
     6
176
     1
 78
     2
176
     1
 67
     7
176
     1
 79
     5
176
     1
170
     0
176
     1
171
     0
176
     1
290
     0
176
     1
 93
        1
176
     1
 44
0.0
176
     1
173
     0
176
     1
  0
VISUALSTYLE
  5
2B
102
{ACAD_REACTORS
330
2A
102
}
330
2A
100
AcDbVisualStyle
  2
Flat
 70
     0
177
     2
291
     1
 71
     2
176
     1
 72
     1
176
     1
 73
     1
176
     1
 90
        2
176
     1
 40
-0.6
176
     1
 41
30.0
176
     1
 62
     5
 63
     7
421
 16777215
176
     1
 74
     0
176
     1
 91
        4
176
     1
 64
     7
176
     1
 65
   257
176
     1
 75
     1
176
     1
175
     1
176
     1
 42
1.0
176
     1
 92
        8
176
     1
 66
     7
176
     1
 43
1.0
176
     1
 76
     1
176
     1
 77
     6
176
     1
 78
     2
176
     1
 67
     7
176
     1
 79
     5
176
     1
170
     0
176
     1
171
     0
176
     1
290
     0
176
     1
 93
       13
176
     1
 44
0.0
176
     1
173
     0
176
     1
  0
VISUALSTYLE
  5
2C
102
{ACAD_REACTORS
330
2A
102
}
330
2A
100
AcDbVisualStyle
  2
FlatWithEdges
 70
     1
177
     2
291
     1
 71
     2
176
     1
 72
     1
176
     1
 73
     1
176
     1
 90
        2
176
     1
 40
-0.6
176
     1
 41
30.0
176
     1
 62
     5
 63
     7
421
 16777215
176
     1
 74
     1
176
     1
 91
        4
176
     1
 64
     7
176
     1
 65
   257
176
     1
 75
     1
176
     1
175
     1
176
     1
 42
1.0
176
     1
 92
        0
176
     1
 66
   257
176
     1
 43
1.0
176
     1
 76
     1
176
     1
 77
     6
176
     1
 78
     2
176
     1
 67
     7
176
     1
 79
     5
176
     1
170
     0
176
     1
171
     0
176
     1
290
     0
176
     1
 93
       13
176
     1
 44
0.0
176
     1
173
     0
176
     1
  0
VISUALSTYLE
  5
2D
102
{ACAD_REACTORS
330
2A
102
}
330
2A
100
AcDbVisualStyle
  2
Gouraud
 70
     2
177
     2
291
     1
 71
     2
176
     1
 72
     2
176
     1
 73
     1
176
     1
 90
        2
176
     1
 40
-0.6
176
     1
 41
30.0
176
     1
 62
     5
 63
     7
421
 16777215
176
     1
 74
     0
176
     1
 91
        4
176
     1
 64
     7
176
     1
 65
   257
176
     1
 75
     1
176
     1
175
     1
176
     1
 42
1.0
176
     1
 92
        0
176
     1
 66
     7
176
     1
 43
1.0
176
     1
 76
     1
176
     1
 77
     6
176
     1
 78
     2
176
     1
 67
     7
176
     1
 79
     5
176
     1
170
     0
176
     1
171
     0
176
     1
290
     0
176
     1
 93
       13
176
     1
 44
0.0
176
     1
173
     0
176
     1
  0
VISUALSTYLE
  5
2E
102
{ACAD_REACTORS
330
2A
102
}
330
2A
100
AcDbVisualStyle
  2
GouraudWithEdges
 70
     3
177
     2
291
     1
 71
     2
176
     1
 72
     2
176
     1
 73
     1
176
     1
 90
        2
176
     1
 40
-0.6
176
     1
 41
30.0
176
     1
 62
     5
 63
     7
421
 16777215
176
     1
 74
     1
176
     1
 91
        4
176
     1
 64
     7
176
     1
 65
   257
176
     1
 75
     1
176
     1
175
     1
176
     1
 42
1.0
176
     1
 92
        0
176
     1
 66
   257
176
     1
 43
1.0
176
     1
 76
     1
176
     1
 77
     6
176
     1
 78
     2
176
     1
 67
     7
176
     1
 79
     5
176
     1
170
     0
176
     1
171
     0
176
     1
290
     0
176
     1
 93
       13
176
     1
 44
0.0
176
     1
173
     0
176
     1
  0
VISUALSTYLE
  5
A14
102
{ACAD_REACTORS
330
2A
102
}
330
2A
100
AcDbVisualStyle
  2
Hidden
 70
     6
177
     2
291
     0
 71
     1
176
     1
 72
     2
176
     1
 73
     2
176
     1
 90
        0
176
     1
 40
0.6
176
     1
 41
30.0
176
     1
 62
     5
 63
     7
421
 16777215
176
     1
 74
     2
176
     1
 91
        2
176
     1
 64
     7
176
     1
 65
   257
176
     1
 75
     2
176
     1
175
     1
176
     1
 42
40.0
176
     1
 92
        0
176
     1
 66
   257
176
     1
 43
1.0
176
     1
 76
     1
176
     1
 77
     6
176
     1
 78
     2
176
     1
 67
     7
176
     1
 79
     3
176
     1
170
     0
176
     1
171
     0
176
     1
290
     0
176
     1
 93
        1
176
     1
 44
0.0
176
     1
173
     0
176
     1
  0
VISUALSTYLE
  5
A15
102
{ACAD_REACTORS
330
2A
102
}
330
2A
100
AcDbVisualStyle
  2
JitterOff
 70
    20
177
     2
291
     1
 71
     2
176
     0
 72
     2
176
     0
 73
     0
176
     0
 90
        0
176
     0
 40
0.6
176
     0
 41
30.0
176
     0
 62
     5
 63
     7
421
 16777215
176
     0
 74
     1
176
     0
 91
        4
176
     0
 64
     7
176
     0
 65
   257
176
     0
 75
     1
176
     0
175
     1
176
     0
 42
1.0
176
     0
 92
       10
176
     2
 66
     7
176
     0
 43
1.0
176
     0
 76
     1
176
     0
 77
     6
176
     0
 78
     2
176
     0
 67
     7
176
     0
 79
     5
176
     0
170
     0
176
     0
171
     0
176
     0
290
     0
176
     0
 93
        1
176
     0
 44
0.0
176
     0
173
     0
176
     0
  0
VISUALSTYLE
  5
38
102
{ACAD_REACTORS
330
2A
102
}
330
2A
100
AcDbVisualStyle
  2
Linepattern
 70
    14
177
     2
291
     1
 71
     2
176
     1
 72
     2
176
     1
 73
     0
176
     1
 90
        0
176
     1
 40
-0.6
176
     1
 41
-30.0
176
     1
 62
     5
 63
     7
421
 16777215
176
     1
 74
     1
176
     1
 91
        4
176
     1
 64
     7
176
     1
 65
   257
176
     1
 75
     7
176
     1
175
     7
176
     1
 42
1.0
176
     1
 92
        8
176
     1
 66
     7
176
     1
 43
1.0
176
     1
 76
     1
176
     1
 77
     6
176
     1
 78
     2
176
     1
 67
     7
176
     1
 79
     5
176
     1
170
     0
176
     1
171
     0
176
     1
290
     0
176
     1
 93
        1
176
     1
 44
0.0
176
     1
173
     0
176
     1
  0
VISUALSTYLE
  5
A16
102
{ACAD_REACTORS
330
2A
102
}
330
2A
100
AcDbVisualStyle
  2
OverhangOff
 70
    21
177
     2
291
     1
 71
     2
176
     0
 72
     2
176
     0
 73
     0
176
     0
 90
        0
176
     0
 40
0.6
176
     0
 41
30.0
176
     0
 62
     5
 63
     7
421
 16777215
176
     0
 74
     1
176
     0
 91
        4
176
     0
 64
     7
176
     0
 65
   257
176
     0
 75
     1
176
     0
175
     1
176
     0
 42
1.0
176
     0
 92
        9
176
     2
 66
     7
176
     0
 43
1.0
176
     0
 76
     1
176
     0
 77
     6
176
     0
 78
     2
176
     0
 67
     7
176
     0
 79
     5
176
     0
170
     0
176
     0
171
     0
176
     0
290
     0
176
     0
 93
        1
176
     0
 44
0.0
176
     0
173
     0
176
     0
  0
VISUALSTYLE
  5
33
102
{ACAD_REACTORS
330
2A
102
}
330
2A
100
AcDbVisualStyle
  2
Realistic
 70
     8
177
     2
291
     0
 71
     2
176
     1
 72
     2
176
     1
 73
     0
176
     1
 90
        0
176
     1
 40
-0.6
176
     1
 41
-30.0
176
     1
 62
     5
 63
     7
421
 16777215
176
     1
 74
     1
176
     1
 91
        0
176
     1
 64
     7
176
     1
 65
   257
176
     1
 75
     1
176
     1
175
     1
176
     1
 42
1.0
176
     1
 92
        8
176
     1
 66
     8
424
  7895160
176
     1
 43
1.0
176
     1
 76
     1
176
     1
 77
     6
176
     1
 78
     2
176
     1
 67
     7
176
     1
 79
     5
176
     1
170
     0
176
     1
171
     0
176
     1
290
     0
176
     1
 93
       13
176
     1
 44
0.0
176
     1
173
     0
176
     1
  0
VISUALSTYLE
  5
A1C
102
{ACAD_REACTORS
330
2A
102
}
330
2A
100
AcDbVisualStyle
  2
Shaded
 70
    27
177
     2
291
     0
 71
     2
176
     1
 72
     2
176
     1
 73
     1
176
     1
 90
        2
176
     1
 40
0.6
176
     1
 41
30.0
176
     1
 62
     5
 63
     7
421
 16777215
176
     1
 74
     0
176
     1
 91
        4
176
     1
 64
     7
176
     1
 65
   257
176
     1
 75
     1
176
     1
175
     1
176
     1
 42
1.0
176
     1
 92
        8
176
     1
 66
   257
176
     1
 43
1.0
176
     1
 76
     1
176
     1
 77
     6
176
     1
 78
     2
176
     1
 67
     8
425
  7895160
176
     1
 79
     3
176
     1
170
     0
176
     1
171
     0
176
     1
290
     0
176
     1
 93
        5
176
     1
 44
0.0
176
     1
173
     0
176
     1
  0
VISUALSTYLE
  5
A1B
102
{ACAD_REACTORS
330
2A
102
}
330
2A
100
AcDbVisualStyle
  2
Shaded with edges
 70
    26
177
     2
291
     0
 71
     2
176
     1
 72
     2
176
     1
 73
     1
176
     1
 90
        2
176
     1
 40
0.6
176
     1
 41
30.0
176
     1
 62
     5
 63
     7
421
 16777215
176
     1
 74
     1
176
     1
 91
       10
176
     1
 64
     7
176
     1
 65
   257
176
     1
 75
     2
176
     1
175
     1
176
     1
 42
1.0
176
     1
 92
        8
176
     1
 66
   257
176
     1
 43
1.0
176
     1
 76
     1
176
     1
 77
     6
176
     1
 78
     2
176
     1
 67
     7
176
     1
 79
     3
176
     1
170
     0
176
     1
171
     0
176
     1
290
     0
176
     1
 93
        5
176
     1
 44
0.0
176
     1
173
     0
176
     1
  0
VISUALSTYLE
  5
A18
102
{ACAD_REACTORS
330
2A
102
}
330
2A
100
AcDbVisualStyle
  2
Shades of Gray
 70
    23
177
     2
291
     0
 71
     2
176
     1
 72
     2
176
     1
 73
     3
176
     1
 90
        0
176
     1
 40
0.6
176
     1
 41
30.0
176
     1
 62
     5
 63
     7
421
 16777215
176
     1
 74
     2
176
     1
 91
        2
176
     1
 64
     7
176
     1
 65
     7
176
     1
 75
     1
176
     1
175
     1
176
     1
 42
40.0
176
     1
 92
        8
176
     1
 66
     7
176
     1
 43
1.0
176
     1
 76
     1
176
     1
 77
     6
176
     1
 78
     2
176
     1
 67
     7
176
     1
 79
     3
176
     1
170
     0
176
     1
171
     0
176
     1
290
     0
176
     1
 93
        1
176
     1
 44
0.0
176
     1
173
     0
176
     1
  0
VISUALSTYLE
  5
A19
102
{ACAD_REACTORS
330
2A
102
}
330
2A
100
AcDbVisualStyle
  2
Sketchy
 70
    24
177
     2
291
     0
 71
     1
176
     1
 72
     2
176
     1
 73
     2
176
     1
 90
        0
176
     1
 40
0.6
176
     1
 41
30.0
176
     1
 62
     5
 63
     7
421
 16777215
176
     1
 74
     2
176
     1
 91
        2
176
     1
 64
     7
176
     1
 65
     7
176
     1
 75
     1
176
     1
175
     1
176
     1
 42
40.0
176
     1
 92
       11
176
     1
 66
     7
176
     1
 43
1.0
176
     1
 76
     1
176
     1
 77
     6
176
     1
 78
     2
176
     1
 67
     7
176
     1
 79
     6
176
     1
170
     0
176
     1
171
     0
176
     1
290
     0
176
     1
 93
        1
176
     1
 44
0.0
176
     1
173
     0
176
     1
  0
VISUALSTYLE
  5
37
102
{ACAD_REACTORS
330
2A
102
}
330
2A
100
AcDbVisualStyle
  2
Thicken
 70
    13
177
     2
291
     1
 71
     2
176
     1
 72
     2
176
     1
 73
     0
176
     1
 90
        0
176
     1
 40
-0.6
176
     1
 41
-30.0
176
     1
 62
     5
 63
     7
421
 16777215
176
     1
 74
     1
176
     1
 91
        4
176
     1
 64
     7
176
     1
 65
   257
176
     1
 75
     1
176
     1
175
     1
176
     1
 42
1.0
176
     1
 92
       12
176
     1
 66
     7
176
     1
 43
1.0
176
     1
 76
     1
176
     1
 77
     6
176
     1
 78
     2
176
     1
 67
     7
176
     1
 79
     5
176
     1
170
     0
176
     1
171
     0
176
     1
290
     0
176
     1
 93
        1
176
     1
 44
0.0
176
     1
173
     0
176
     1
  0
VISUALSTYLE
  5
A13
102
{ACAD_REACTORS
330
2A
102
}
330
2A
100
AcDbVisualStyle
  2
Wireframe
 70
     5
177
     2
291
     0
 71
     0
176
     1
 72
     2
176
     1
 73
     0
176
     1
 90
        0
176
     1
 40
0.6
176
     1
 41
30.0
176
     1
 62
     5
 63
     7
421
 16777215
176
     1
 74
     1
176
     1
 91
        4
176
     1
 64
     7
176
     1
 65
   257
176
     1
 75
     1
176
     1
175
     1
176
     1
 42
1.0
176
     1
 92
        0
176
     1
 66
   257
176
     1
 43
1.0
176
     1
 76
     1
176
     1
 77
     6
176
     1
 78
     2
176
     1
 67
     7
176
     1
 79
     3
176
     1
170
     0
176
     1
171
     0
176
     1
290
     0
176
     1
 93
        1
176
     1
 44
0.0
176
     1
173
     0
176
     1
  0
VISUALSTYLE
  5
A1A
102
{ACAD_REACTORS
330
2A
102
}
330
2A
100
AcDbVisualStyle
  2
X-Ray
 70
    25
177
     2
291
     0
 71
     2
176
     1
 72
     2
176
     1
 73
     1
176
     1
 90
        1
176
     1
 40
0.5
176
     1
 41
30.0
176
     1
 62
     5
 63
     7
421
 16777215
176
     1
 74
     1
176
     1
 91
        0
176
     1
 64
     7
176
     1
 65
   257
176
     1
 75
     1
176
     1
175
     1
176
     1
 42
1.0
176
     1
 92
        8
176
     1
 66
     7
176
     1
 43
1.0
176
     1
 76
     1
176
     1
 77
     6
176
     1
 78
     2
176
     1
 67
     7
176
     1
 79
     3
176
     1
170
     0
176
     1
171
     0
176
     1
290
     0
176
     1
 93
       13
176
     1
 44
0.0
176
     1
173
     0
176
     1
  0
DICTIONARYVAR
  5
A29
102
{ACAD_REACTORS
330
A28
102
}
330
A28
100
DictionaryVariables
280
     0
  1
1:1
  0
DICTIONARYVAR
  5
A2B
102
{ACAD_REACTORS
330
A28
102
}
330
A28
100
DictionaryVariables
280
     0
  1
Standard
  0
DICTIONARYVAR
  5
A2A
102
{ACAD_REACTORS
330
A28
102
}
330
A28
100
DictionaryVariables
280
     0
  1
Standard
  0
DICTIONARY
  5
B07
330
A1D
100
AcDbDictionary
280
     1
281
     1
  3
ACAD_ROUNDTRIP_2008_TABLESTYLE_CELLSTYLEMAP
360
B08
  0
CELLSTYLEMAP
  5
B08
102
{ACAD_REACTORS
330
B07
102
}
330
B07
100
AcDbCellStyleMap
 90
        3
300
CELLSTYLE
  1
TABLEFORMAT_BEGIN
 90
        5
170
     1
 91
        0
 92
    32768
 62
   257
 93
        1
300
CONTENTFORMAT
  1
CONTENTFORMAT_BEGIN
 90
        0
 91
        0
 92
        4
 93
        0
300

 40
0.0
140
1.0
 94
        5
 62
     0
340
11
144
6.0
309
CONTENTFORMAT_END
171
     1
301
MARGIN
  1
CELLMARGIN_BEGIN
 40
1.5
 40
1.5
 40
1.5
 40
1.5
 40
1.5
 40
1.5
309
CELLMARGIN_END
 94
        6
 95
        1
302
GRIDFORMAT
  1
GRIDFORMAT_BEGIN
 90
        0
 91
        1
 62
     0
 92
       -2
340
14
 93
        0
 40
0.045
309
GRIDFORMAT_END
 95
        2
302
GRIDFORMAT
  1
GRIDFORMAT_BEGIN
 90
        0
 91
        1
 62
     0
 92
       -2
340
14
 93
        0
 40
0.045
309
GRIDFORMAT_END
 95
        4
302
GRIDFORMAT
  1
GRIDFORMAT_BEGIN
 90
        0
 91
        1
 62
     0
 92
       -2
340
14
 93
        0
 40
0.045
309
GRIDFORMAT_END
 95
        8
302
GRIDFORMAT
  1
GRIDFORMAT_BEGIN
 90
        0
 91
        1
 62
     0
 92
       -2
340
14
 93
        0
 40
0.045
309
GRIDFORMAT_END
 95
       16
302
GRIDFORMAT
  1
GRIDFORMAT_BEGIN
 90
        0
 91
        1
 62
     0
 92
       -2
340
14
 93
        0
 40
0.045
309
GRIDFORMAT_END
 95
       32
302
GRIDFORMAT
  1
GRIDFORMAT_BEGIN
 90
        0
 91
        1
 62
     0
 92
       -2
340
14
 93
        0
 40
0.045
309
GRIDFORMAT_END
309
TABLEFORMAT_END
  1
CELLSTYLE_BEGIN
 90
        1
 91
        1
300
_TITLE
309
CELLSTYLE_END
300
CELLSTYLE
  1
TABLEFORMAT_BEGIN
 90
        5
170
     1
 91
        0
 92
        0
 62
   257
 93
        1
300
CONTENTFORMAT
  1
CONTENTFORMAT_BEGIN
 90
        0
 91
        0
 92
        4
 93
        0
300

 40
0.0
140
1.0
 94
        5
 62
     0
340
11
144
4.5
309
CONTENTFORMAT_END
171
     1
301
MARGIN
  1
CELLMARGIN_BEGIN
 40
1.5
 40
1.5
 40
1.5
 40
1.5
 40
1.5
 40
1.5
309
CELLMARGIN_END
 94
        6
 95
        1
302
GRIDFORMAT
  1
GRIDFORMAT_BEGIN
 90
        0
 91
        1
 62
     0
 92
       -2
340
14
 93
        0
 40
0.045
309
GRIDFORMAT_END
 95
        2
302
GRIDFORMAT
  1
GRIDFORMAT_BEGIN
 90
        0
 91
        1
 62
     0
 92
       -2
340
14
 93
        0
 40
0.045
309
GRIDFORMAT_END
 95
        4
302
GRIDFORMAT
  1
GRIDFORMAT_BEGIN
 90
        0
 91
        1
 62
     0
 92
       -2
340
14
 93
        0
 40
0.045
309
GRIDFORMAT_END
 95
        8
302
GRIDFORMAT
  1
GRIDFORMAT_BEGIN
 90
        0
 91
        1
 62
     0
 92
       -2
340
14
 93
        0
 40
0.045
309
GRIDFORMAT_END
 95
       16
302
GRIDFORMAT
  1
GRIDFORMAT_BEGIN
 90
        0
 91
        1
 62
     0
 92
       -2
340
14
 93
        0
 40
0.045
309
GRIDFORMAT_END
 95
       32
302
GRIDFORMAT
  1
GRIDFORMAT_BEGIN
 90
        0
 91
        1
 62
     0
 92
       -2
340
14
 93
        0
 40
0.045
309
GRIDFORMAT_END
309
TABLEFORMAT_END
  1
CELLSTYLE_BEGIN
 90
        2
 91
        1
300
_HEADER
309
CELLSTYLE_END
300
CELLSTYLE
  1
TABLEFORMAT_BEGIN
 90
        5
170
     1
 91
        0
 92
        0
 62
   257
 93
        1
300
CONTENTFORMAT
  1
CONTENTFORMAT_BEGIN
 90
        0
 91
        0
 92
        4
 93
        0
300

 40
0.0
140
1.0
 94
        2
 62
     0
340
11
144
4.5
309
CONTENTFORMAT_END
171
     1
301
MARGIN
  1
CELLMARGIN_BEGIN
 40
1.5
 40
1.5
 40
1.5
 40
1.5
 40
1.5
 40
1.5
309
CELLMARGIN_END
 94
        6
 95
        1
302
GRIDFORMAT
  1
GRIDFORMAT_BEGIN
 90
        0
 91
        1
 62
     0
 92
       -2
340
14
 93
        0
 40
0.045
309
GRIDFORMAT_END
 95
        2
302
GRIDFORMAT
  1
GRIDFORMAT_BEGIN
 90
        0
 91
        1
 62
     0
 92
       -2
340
14
 93
        0
 40
0.045
309
GRIDFORMAT_END
 95
        4
302
GRIDFORMAT
  1
GRIDFORMAT_BEGIN
 90
        0
 91
        1
 62
     0
 92
       -2
340
14
 93
        0
 40
0.045
309
GRIDFORMAT_END
 95
        8
302
GRIDFORMAT
  1
GRIDFORMAT_BEGIN
 90
        0
 91
        1
 62
     0
 92
       -2
340
14
 93
        0
 40
0.045
309
GRIDFORMAT_END
 95
       16
302
GRIDFORMAT
  1
GRIDFORMAT_BEGIN
 90
        0
 91
        1
 62
     0
 92
       -2
340
14
 93
        0
 40
0.045
309
GRIDFORMAT_END
 95
       32
302
GRIDFORMAT
  1
GRIDFORMAT_BEGIN
 90
        0
 91
        1
 62
     0
 92
       -2
340
14
 93
        0
 40
0.045
309
GRIDFORMAT_END
309
TABLEFORMAT_END
  1
CELLSTYLE_BEGIN
 90
        3
 91
        2
300
_DATA
309
CELLSTYLE_END
  0
ENDSEC
  0
EOF
