  0
SECTION
  2
HEADER
  9
$ACADVER
  1
AC1024
  9
$ACADMAINTVER
 70
     6
  9
$DWGCODEPAGE
  3
ANSI_1252
  9
$LASTSAVEDBY
  1
mehme
  9
$INSBASE
 10
0.0
 20
0.0
 30
0.0
  9
$EXTMIN
 10
516769.287
 20
4400251.388
 30
410.3999938964844
  9
$EXTMAX
 10
517109.38497597
 20
4400501.481
 30
416.0
  9
$LIMMIN
 10
496260.3999451914
 20
4226807.409272929
  9
$LIMMAX
 10
496843.3640573141
 20
4227264.678272929
  9
$ORTHOMODE
 70
     0
  9
$REGENMODE
 70
     1
  9
$FILLMODE
 70
     1
  9
$QTEXTMODE
 70
     0
  9
$MIRRTEXT
 70
     1
  9
$LTSCALE
 40
1.0
  9
$ATTMODE
 70
     1
  9
$TEXTSIZE
 40
2.5
  9
$TRACEWID
 40
1.0
  9
$TEXTSTYLE
  7
Standard
  9
$CLAYER
  8
INIT_COORD
  9
$CELTYPE
  6
ByLayer
  9
$CECOLOR
 62
     3
  9
$CELTSCALE
 40
1.0
  9
$DISPSILH
 70
     0
  9
$DIMSCALE
 40
1.0
  9
$DIMASZ
 40
2.5
  9
$DIMEXO
 40
0.625
  9
$DIMDLI
 40
3.75
  9
$DIMRND
 40
0.0
  9
$DIMDLE
 40
0.0
  9
$DIMEXE
 40
1.25
  9
$DIMTP
 40
0.0
  9
$DIMTM
 40
0.0
  9
$DIMTXT
 40
2.499999999999999
  9
$DIMCEN
 40
0.0
  9
$DIMTSZ
 40
0.0
  9
$DIMTOL
 70
     0
  9
$DIMLIM
 70
     0
  9
$DIMTIH
 70
     0
  9
$DIMTOH
 70
     0
  9
$DIMSE1
 70
     0
  9
$DIMSE2
 70
     0
  9
$DIMTAD
 70
     1
  9
$DIMZIN
 70
     8
  9
$DIMBLK
  1

  9
$DIMASO
 70
     1
  9
$DIMSHO
 70
     1
  9
$DIMPOST
  1

  9
$DIMAPOST
  1
뎠甈鐔^X뎿甈
  9
$DIMALT
 70
     0
  9
$DIMALTD
 70
     3
  9
$DIMALTF
 40
0.03937007874016
  9
$DIMLFAC
 40
1.0
  9
$DIMTOFL
 70
     1
  9
$DIMTVP
 40
0.0
  9
$DIMTIX
 70
     0
  9
$DIMSOXD
 70
     0
  9
$DIMSAH
 70
     0
  9
$DIMBLK1
  1

  9
$DIMBLK2
  1

  9
$DIMSTYLE
  2
Standard
  9
$DIMCLRD
 70
     0
  9
$DIMCLRE
 70
     0
  9
$DIMCLRT
 70
     0
  9
$DIMTFAC
 40
1.0
  9
$DIMGAP
 40
0.625
  9
$DIMJUST
 70
     0
  9
$DIMSD1
 70
     0
  9
$DIMSD2
 70
     0
  9
$DIMTOLJ
 70
     0
  9
$DIMTZIN
 70
     8
  9
$DIMALTZ
 70
     0
  9
$DIMALTTZ
 70
     0
  9
$DIMUPT
 70
     0
  9
$DIMDEC
 70
     2
  9
$DIMTDEC
 70
     2
  9
$DIMALTU
 70
     2
  9
$DIMALTTD
 70
     3
  9
$DIMTXSTY
  7
Standard
  9
$DIMAUNIT
 70
     0
  9
$DIMADEC
 70
     0
  9
$DIMALTRND
 40
0.0
  9
$DIMAZIN
 70
     0
  9
$DIMDSEP
 70
    44
  9
$DIMATFIT
 70
     3
  9
$DIMFRAC
 70
     0
  9
$DIMLDRBLK
  1

  9
$DIMLUNIT
 70
     2
  9
$DIMLWD
 70
    -2
  9
$DIMLWE
 70
    -2
  9
$DIMTMOVE
 70
     0
  9
$DIMFXL
 40
1.0
  9
$DIMFXLON
 70
     0
  9
$DIMJOGANG
 40
0.7853981633974483
  9
$DIMTFILL
 70
     0
  9
$DIMTFILLCLR
 70
     0
  9
$DIMARCSYM
 70
     0
  9
$DIMLTYPE
  6
ByBlock
  9
$DIMLTEX1
  6
ByBlock
  9
$DIMLTEX2
  6
ByBlock
  9
$DIMTXTDIRECTION
 70
     0
  9
$LUNITS
 70
     2
  9
$LUPREC
 70
     4
  9
$SKETCHINC
 40
1.0
  9
$FILLETRAD
 40
10.0
  9
$AUNITS
 70
     0
  9
$AUPREC
 70
     0
  9
$MENU
  1
.
  9
$ELEVATION
 40
0.0
  9
$PELEVATION
 40
0.0
  9
$THICKNESS
 40
0.0
  9
$LIMCHECK
 70
     0
  9
$CHAMFERA
 40
0.5
  9
$CHAMFERB
 40
0.5
  9
$CHAMFERC
 40
1.0
  9
$CHAMFERD
 40
0.0
  9
$SKPOLY
 70
     0
  9
$TDCREATE
 40
2457871.659417049
  9
$TDUCREATE
 40
2457871.534417049
  9
$TDUPDATE
 40
2457913.57333434
  9
$TDUUPDATE
 40
2457913.44833434
  9
$TDINDWG
 40
0.008251088
  9
$TDUSRTIMER
 40
2457913.437539062
  9
$USRTIMER
 70
     1
  9
$ANGBASE
 50
0.0
  9
$ANGDIR
 70
     0
  9
$PDMODE
 70
     0
  9
$PDSIZE
 40
0.0
  9
$PLINEWID
 40
0.0
  9
$SPLFRAME
 70
     0
  9
$SPLINETYPE
 70
     6
  9
$SPLINESEGS
 70
     8
  9
$HANDSEED
  5
502
  9
$SURFTAB1
 70
     6
  9
$SURFTAB2
 70
     6
  9
$SURFTYPE
 70
     6
  9
$SURFU
 70
     6
  9
$SURFV
 70
     6
  9
$UCSBASE
  2

  9
$UCSNAME
  2

  9
$UCSORG
 10
0.0
 20
0.0
 30
0.0
  9
$UCSXDIR
 10
1.0
 20
0.0
 30
0.0
  9
$UCSYDIR
 10
0.0
 20
1.0
 30
0.0
  9
$UCSORTHOREF
  2

  9
$UCSORTHOVIEW
 70
     1
  9
$UCSORGTOP
 10
0.0
 20
0.0
 30
0.0
  9
$UCSORGBOTTOM
 10
0.0
 20
0.0
 30
0.0
  9
$UCSORGLEFT
 10
0.0
 20
0.0
 30
0.0
  9
$UCSORGRIGHT
 10
0.0
 20
0.0
 30
0.0
  9
$UCSORGFRONT
 10
0.0
 20
0.0
 30
0.0
  9
$UCSORGBACK
 10
0.0
 20
0.0
 30
0.0
  9
$PUCSBASE
  2

  9
$PUCSNAME
  2

  9
$PUCSORG
 10
0.0
 20
0.0
 30
0.0
  9
$PUCSXDIR
 10
1.0
 20
0.0
 30
0.0
  9
$PUCSYDIR
 10
0.0
 20
1.0
 30
0.0
  9
$PUCSORTHOREF
  2

  9
$PUCSORTHOVIEW
 70
     0
  9
$PUCSORGTOP
 10
0.0
 20
0.0
 30
0.0
  9
$PUCSORGBOTTOM
 10
0.0
 20
0.0
 30
0.0
  9
$PUCSORGLEFT
 10
0.0
 20
0.0
 30
0.0
  9
$PUCSORGRIGHT
 10
0.0
 20
0.0
 30
0.0
  9
$PUCSORGFRONT
 10
0.0
 20
0.0
 30
0.0
  9
$PUCSORGBACK
 10
0.0
 20
0.0
 30
0.0
  9
$USERI1
 70
     0
  9
$USERI2
 70
     0
  9
$USERI3
 70
     0
  9
$USERI4
 70
     0
  9
$USERI5
 70
     0
  9
$USERR1
 40
0.0
  9
$USERR2
 40
0.0
  9
$USERR3
 40
0.0
  9
$USERR4
 40
0.0
  9
$USERR5
 40
0.0
  9
$WORLDVIEW
 70
     1
  9
$SHADEDGE
 70
     3
  9
$SHADEDIF
 70
    70
  9
$TILEMODE
 70
     1
  9
$MAXACTVP
 70
    64
  9
$PINSBASE
 10
0.0
 20
0.0
 30
0.0
  9
$PLIMCHECK
 70
     0
  9
$PEXTMIN
 10
0.0
 20
0.0
 30
0.0
  9
$PEXTMAX
 10
420.0
 20
297.0
 30
0.0
  9
$PLIMMIN
 10
0.0
 20
0.0
  9
$PLIMMAX
 10
420.0
 20
297.0
  9
$UNITMODE
 70
     0
  9
$VISRETAIN
 70
     1
  9
$PLINEGEN
 70
     0
  9
$PSLTSCALE
 70
     1
  9
$TREEDEPTH
 70
  3020
  9
$CMLSTYLE
  2
Standard
  9
$CMLJUST
 70
     0
  9
$CMLSCALE
 40
1.0
  9
$PROXYGRAPHICS
 70
     1
  9
$MEASUREMENT
 70
     0
  9
$CELWEIGHT
370
    -1
  9
$ENDCAPS
280
     0
  9
$JOINSTYLE
280
     0
  9
$LWDISPLAY
290
     0
  9
$INSUNITS
 70
     4
  9
$HYPERLINKBASE
  1

  9
$STYLESHEET
  1

  9
$XEDIT
290
     1
  9
$CEPSNTYPE
380
     0
  9
$PSTYLEMODE
290
     1
  9
$FINGERPRINTGUID
  2
{2D13BD71-8D30-400B-B1D5-87DC81BEED39}
  9
$VERSIONGUID
  2
{FAEB1C32-E019-11D5-929B-00C0DF256EC4}
  9
$EXTNAMES
290
     1
  9
$PSVPSCALE
 40
0.0
  9
$OLESTARTUP
290
     0
  9
$SORTENTS
280
   127
  9
$INDEXCTL
280
     0
  9
$HIDETEXT
280
     1
  9
$XCLIPFRAME
280
     2
  9
$HALOGAP
280
     0
  9
$OBSCOLOR
 70
   257
  9
$OBSLTYPE
280
     0
  9
$INTERSECTIONDISPLAY
280
     0
  9
$INTERSECTIONCOLOR
 70
   257
  9
$DIMASSOC
280
     2
  9
$PROJECTNAME
  1

  9
$CAMERADISPLAY
290
     0
  9
$LENSLENGTH
 40
50.0
  9
$CAMERAHEIGHT
 40
0.0
  9
$STEPSPERSEC
 40
2.0
  9
$STEPSIZE
 40
6.0
  9
$3DDWFPREC
 40
2.0
  9
$PSOLWIDTH
 40
0.25
  9
$PSOLHEIGHT
 40
4.0
  9
$LOFTANG1
 40
1.570796326794897
  9
$LOFTANG2
 40
1.570796326794897
  9
$LOFTMAG1
 40
0.0
  9
$LOFTMAG2
 40
0.0
  9
$LOFTPARAM
 70
     7
  9
$LOFTNORMALS
280
     1
  9
$LATITUDE
 40
37.795
  9
$LONGITUDE
 40
-122.394
  9
$NORTHDIRECTION
 40
0.0
  9
$TIMEZONE
 70
 -8000
  9
$LIGHTGLYPHDISPLAY
280
     1
  9
$TILEMODELIGHTSYNCH
280
     1
  9
$CMATERIAL
347
3C
  9
$SOLIDHIST
280
     1
  9
$SHOWHIST
280
     1
  9
$DWFFRAME
280
     2
  9
$DGNFRAME
280
     2
  9
$REALWORLDSCALE
290
     1
  9
$INTERFERECOLOR
 62
   256
  9
$CSHADOW
280
     0
  9
$SHADOWPLANELOCATION
 40
0.0
  0
ENDSEC
  0
SECTION
  2
CLASSES
  0
CLASS
  1
ACDBDICTIONARYWDFLT
  2
AcDbDictionaryWithDefault
  3
ObjectDBX Classes
 90
        0
 91
        8
280
     0
281
     0
  0
CLASS
  1
VISUALSTYLE
  2
AcDbVisualStyle
  3
ObjectDBX Classes
 90
     4095
 91
        8
280
     0
281
     0
  0
CLASS
  1
MATERIAL
  2
AcDbMaterial
  3
ObjectDBX Classes
 90
     1153
 91
        8
280
     0
281
     0
  0
CLASS
  1
SUN
  2
AcDbSun
  3
SCENEOE
 90
     1153
 91
        8
280
     0
281
     0
  0
CLASS
  1
AEC_VARS_DWG_SETUP
  2
AecDbVarsDwgSetup
  3
AecBase60
 90
      129
 91
        4
280
     0
281
     0
  0
CLASS
  1
AEC_DISP_REP_2D_SECTION
  2
AecDbDispRep2dSection
  3
AecBase60
 90
      129
 91
        5
280
     0
281
     0
  0
CLASS
  1
AEC_DISP_PROPS_2D_SECTION
  2
AecDbDispProps2dSection
  3
AecBase60
 90
      129
 91
        5
280
     0
281
     0
  0
CLASS
  1
AEC_DISP_REP_CLIP_VOLUME_MODEL
  2
AecDbDispRepClipVolModel
  3
AecBase60
 90
      129
 91
        7
280
     0
281
     0
  0
CLASS
  1
AEC_DISP_PROPS_CLIP_VOLUME
  2
AecDbDispPropsClipVol
  3
AecBase60
 90
      129
 91
        5
280
     0
281
     0
  0
CLASS
  1
AEC_DISP_REP_CLIP_VOLUME_PLAN
  2
AecDbDispRepClipVolPlan
  3
AecBase60
 90
      129
 91
        5
280
     0
281
     0
  0
CLASS
  1
AEC_DISP_REP_CLIP_VOLUME_RESULT
  2
AecDbDispRepClipVolResult
  3
AecBase60
 90
      129
 91
        7
280
     0
281
     0
  0
CLASS
  1
AEC_DISP_REP_CLIP_VOLUME_RESULT_SUBDIV
  2
AecDbDispRepClipVolResSubDiv
  3
AecBase60
 90
      129
 91
        6
280
     0
281
     0
  0
CLASS
  1
AEC_DISP_PROPS_CLIP_VOLUME_RESULT
  2
AecDbDispPropsClipVolResSubDiv
  3
AecBase60
 90
      129
 91
        5
280
     0
281
     0
  0
CLASS
  1
AEC_DISP_REP_DISPLAYTHEME
  2
AecDbDispRepDisplayTheme
  3
AecBase60
 90
      129
 91
        5
280
     0
281
     0
  0
CLASS
  1
AEC_DISP_PROPS_DISPLAYTHEME
  2
AecDbDispPropsDisplayTheme
  3
AecBase60
 90
      129
 91
        5
280
     0
281
     0
  0
CLASS
  1
AEC_DISP_REP_ENT_REF
  2
AecDbDispRepEntRef
  3
AecBase60
 90
      129
 91
        5
280
     0
281
     0
  0
CLASS
  1
AEC_DISP_PROPS_ENT_REF
  2
AecDbDispPropsEntRef
  3
AecBase60
 90
      129
 91
        5
280
     0
281
     0
  0
CLASS
  1
AEC_DISP_REP_LAYOUT_CURVE
  2
AecDbDispRepLayoutCurve
  3
AecBase60
 90
      129
 91
        5
280
     0
281
     0
  0
CLASS
  1
AEC_DISP_PROPS_LAYOUT_CURVE
  2
AecDbDispPropsLayoutCurve
  3
AecBase60
 90
      129
 91
        5
280
     0
281
     0
  0
CLASS
  1
AEC_DISP_REP_LAYOUT_GRID2D
  2
AecDbDispRepLayoutGrid2d
  3
AecBase60
 90
      129
 91
        7
280
     0
281
     0
  0
CLASS
  1
AEC_DISP_PROPS_LAYOUT_GRID2D
  2
AecDbDispPropsLayoutGrid2d
  3
AecBase60
 90
      129
 91
        6
280
     0
281
     0
  0
CLASS
  1
AEC_DISP_REP_LAYOUT_GRID3D
  2
AecDbDispRepLayoutGrid3d
  3
AecBase60
 90
      129
 91
        5
280
     0
281
     0
  0
CLASS
  1
AEC_DISP_PROPS_LAYOUT_GRID3D
  2
AecDbDispPropsLayoutGrid3d
  3
AecBase60
 90
      129
 91
        5
280
     0
281
     0
  0
CLASS
  1
AEC_DISP_REP_MASKBLOCK_REF
  2
AecDbDispRepMaskBlockRef
  3
AecBase60
 90
      129
 91
        6
280
     0
281
     0
  0
CLASS
  1
AEC_DISP_PROPS_MASKBLOCK
  2
AecDbDispPropsMaskBlock
  3
AecBase60
 90
      129
 91
        5
280
     0
281
     0
  0
CLASS
  1
AEC_DISP_REP_MASKBLOCK_REF_RCP
  2
AecDbDispRepMaskBlockRefRcp
  3
AecArchBase60
 90
      129
 91
        5
280
     0
281
     0
  0
CLASS
  1
AEC_DISP_REP_MASS_ELEM_MODEL
  2
AecDbDispRepMassElemModel
  3
AecBase60
 90
      129
 91
        5
280
     0
281
     0
  0
CLASS
  1
AEC_DISP_PROPS_MASS_ELEM_MODEL
  2
AecDbDispPropsMassElem
  3
AecBase60
 90
      129
 91
        6
280
     0
281
     0
  0
CLASS
  1
AEC_DISP_REP_MASS_ELEM_SCHEM
  2
AecDbDispRepMassElemSchem
  3
AecBase60
 90
      129
 91
        6
280
     0
281
     0
  0
CLASS
  1
AEC_DISPREPAECDBDISPREPMASSELEMPLAN50
  2
AecDbDispRepMassElemPlan50
  3
AecArchDACHBase60
 90
      129
 91
        5
280
     0
281
     0
  0
CLASS
  1
AEC_DISPROPSMASSELEMPLANCOMMON
  2
AecDbDispPropsMassElemPlanCommon
  3
AecArchDACHBase60
 90
      129
 91
        5
280
     0
281
     0
  0
CLASS
  1
AEC_DISPREPAECDBDISPREPMASSELEMPLAN100
  2
AecDbDispRepMassElemPlan100
  3
AecArchDACHBase60
 90
      129
 91
        5
280
     0
281
     0
  0
CLASS
  1
AEC_DISP_REP_MASS_ELEM_RCP
  2
AecDbDispRepMassElemRcp
  3
AecArchBase60
 90
      129
 91
        5
280
     0
281
     0
  0
CLASS
  1
AEC_DISP_REP_MASS_GROUP_MODEL
  2
AecDbDispRepMassGroupModel
  3
AecBase60
 90
      129
 91
        5
280
     0
281
     0
  0
CLASS
  1
AEC_DISP_PROPS_MASS_GROUP
  2
AecDbDispPropsMassGroup
  3
AecBase60
 90
      129
 91
        6
280
     0
281
     0
  0
CLASS
  1
AEC_DISP_REP_MASS_GROUP_PLAN
  2
AecDbDispRepMassGroupPlan
  3
AecBase60
 90
      129
 91
        9
280
     0
281
     0
  0
CLASS
  1
AEC_DISPREPAECDBDISPREPMASSGROUPPLAN50
  2
AecDbDispRepMassGroupPlan50
  3
AecArchDACHBase60
 90
      129
 91
        5
280
     0
281
     0
  0
CLASS
  1
AEC_DISPROPSMASSGROUPPLANCOMMON
  2
AecDbDispPropsMassGroupPlanCommon
  3
AecArchDACHBase60
 90
      129
 91
        5
280
     0
281
     0
  0
CLASS
  1
AEC_DISPREPAECDBDISPREPMASSGROUPPLAN100
  2
AecDbDispRepMassGroupPlan100
  3
AecArchDACHBase60
 90
      129
 91
        5
280
     0
281
     0
  0
CLASS
  1
AEC_DISP_REP_MASS_GROUP_RCP
  2
AecDbDispRepMassGroupRcp
  3
AecArchBase60
 90
      129
 91
        5
280
     0
281
     0
  0
CLASS
  1
AEC_DISP_REP_MVBLOCK_REF
  2
AecDbDispRepMvBlockRef
  3
AecBase60
 90
      129
 91
        9
280
     0
281
     0
  0
CLASS
  1
AEC_DISP_REP_MVBLOCK_REF_MODEL
  2
AecDbDispRepMvBlockRefModel
  3
AecBase60
 90
      129
 91
        5
280
     0
281
     0
  0
CLASS
  1
AEC_AECDBDISPREPMVBLOCKREFPLAN100
  2
AecDbDispRepMvBlockRefPlan100
  3
AecBase60
 90
      129
 91
        5
280
     0
281
     0
  0
CLASS
  1
AEC_AECDBDISPREPMVBLOCKREFPLAN50
  2
AecDbDispRepMvBlockRefPlan50
  3
AecBase60
 90
      129
 91
        5
280
     0
281
     0
  0
CLASS
  1
AEC_DISP_REP_POLYGON_MODEL
  2
AecDbDispRepPolygonModel
  3
AecBase60
 90
      129
 91
        5
280
     0
281
     0
  0
CLASS
  1
AEC_DISP_PROPS_POLYGON_MODEL
  2
AecDbDispPropsPolygonModel
  3
AecBase60
 90
      129
 91
        5
280
     0
281
     0
  0
CLASS
  1
AEC_DISP_REP_POLYGON_TRUECOLOUR
  2
AecDbDispRepPolygonTrueColour
  3
AecBase60
 90
      129
 91
        5
280
     0
281
     0
  0
CLASS
  1
AEC_DISP_PROPS_POLYGON_TRUECOLOUR
  2
AecDbDispPropsPolygonTrueColour
  3
AecBase60
 90
      129
 91
        5
280
     0
281
     0
  0
CLASS
  1
AEC_DISP_REP_SLICE
  2
AecDbDispRepSlice
  3
AecBase60
 90
      129
 91
        5
280
     0
281
     0
  0
CLASS
  1
AEC_DISP_PROPS_SLICE
  2
AecDbDispPropsSlice
  3
AecBase60
 90
      129
 91
        5
280
     0
281
     0
  0
CLASS
  1
AEC_DISP_REP_ANCHOR
  2
AecDbDispRepAnchor
  3
AecBase60
 90
      129
 91
        5
280
     0
281
     0
  0
CLASS
  1
AEC_DISP_REP_ANCHOR_ENT_TO_NODE
  2
AecDbDispRepAnchorEntToNode
  3
AecBase60
 90
      129
 91
        6
280
     0
281
     0
  0
CLASS
  1
AEC_DISP_PROPS_ENT
  2
AecDbDispPropsEnt
  3
AecBase60
 90
      129
 91
        5
280
     0
281
     0
  0
CLASS
  1
AEC_DISP_REP_MATERIAL
  2
AecDbDispRepMaterial
  3
AecBase60
 90
      129
 91
        5
280
     0
281
     0
  0
CLASS
  1
AEC_DISP_PROPS_MATERIAL
  2
AecDbDispPropsMaterial
  3
AecBase60
 90
      129
 91
        5
280
     0
281
     0
  0
CLASS
  1
AEC_DISP_REP_EDITINPLACEPROFILE
  2
AecDbDispRepEditInPlaceProfile
  3
AecBase60
 90
      129
 91
        5
280
     0
281
     0
  0
CLASS
  1
AEC_DISP_PROPS_EDITINPLACEPROFILE_MODEL
  2
AecDbDispPropsEditInPlaceProfile
  3
AecBase60
 90
      129
 91
        5
280
     0
281
     0
  0
CLASS
  1
AEC_VARS_ARCHBASE
  2
AecDbVarsArchBase
  3
AecArchBase60
 90
      129
 91
        4
280
     0
281
     0
  0
CLASS
  1
AEC_DISP_REP_BDG_ELEVLINE_PLAN
  2
AecDbDispRepBdgElevLinePlan
  3
AecArchBase60
 90
      129
 91
        8
280
     0
281
     0
  0
CLASS
  1
AEC_DISP_REP_BDG_ELEVLINE_MODEL
  2
AecDbDispRepBdgElevLineModel
  3
AecArchBase60
 90
      129
 91
        5
280
     0
281
     0
  0
CLASS
  1
AEC_DISP_REP_BDG_ELEVLINE_RCP
  2
AecDbDispRepBdgElevLineRcp
  3
AecArchBase60
 90
      129
 91
        5
280
     0
281
     0
  0
CLASS
  1
AEC_AECDBDISPREPBDGELEVLINEPLAN100
  2
AecDbDispRepBdgElevLinePlan100
  3
AecBase60
 90
      129
 91
        5
280
     0
281
     0
  0
CLASS
  1
AEC_AECDBDISPREPBDGELEVLINEPLAN50
  2
AecDbDispRepBdgElevLinePlan50
  3
AecBase60
 90
      129
 91
        5
280
     0
281
     0
  0
CLASS
  1
AEC_DISP_REP_BDG_SECTIONLINE_MODEL
  2
AecDbDispRepBdgSectionLineModel
  3
AecArchBase60
 90
      129
 91
        5
280
     0
281
     0
  0
CLASS
  1
AEC_DISP_REP_BDG_SECTIONLINE_PLAN
  2
AecDbDispRepBdgSectionLinePlan
  3
AecArchBase60
 90
      129
 91
        8
280
     0
281
     0
  0
CLASS
  1
AEC_DISP_REP_BDG_SECTIONLINE_RCP
  2
AecDbDispRepBdgSectionLineRcp
  3
AecArchBase60
 90
      129
 91
        5
280
     0
281
     0
  0
CLASS
  1
AEC_AECDBDISPREPBDGSECTIONLINEPLAN100
  2
AecDbDispRepBdgSectionLinePlan100
  3
AecBase60
 90
      129
 91
        5
280
     0
281
     0
  0
CLASS
  1
AEC_AECDBDISPREPBDGSECTIONLINEPLAN50
  2
AecDbDispRepBdgSectionLinePlan50
  3
AecBase60
 90
      129
 91
        5
280
     0
281
     0
  0
CLASS
  1
AEC_DISP_REP_BDG_SECTION_SUBDIV
  2
AecDbDispRepBdgSectionSubDiv
  3
AecArchBase60
 90
      129
 91
        5
280
     0
281
     0
  0
CLASS
  1
AEC_DISP_REP_BDG_SECTION_MODEL
  2
AecDbDispRepBdgSectionModel
  3
AecArchBase60
 90
      129
 91
        5
280
     0
281
     0
  0
CLASS
  1
AEC_DISP_REP_CEILING_GRID
  2
AecDbDispRepCeilingGrid
  3
AecArchBase60
 90
      893
 91
        9
280
     0
281
     0
  0
CLASS
  1
AEC_DISP_REP_CEILING_GRID_MODEL
  2
AecDbDispRepCeilingGridModel
  3
AecArchBase60
 90
      129
 91
        5
280
     0
281
     0
  0
CLASS
  1
AEC_DISP_REP_CEILING_GRID_RCP
  2
AecDbDispRepCeilingGridRcp
  3
AecArchBase60
 90
      129
 91
        5
280
     0
281
     0
  0
CLASS
  1
AEC_AECDBDISPREPCEILINGGRIDPLAN100
  2
AecDbDispRepCeilingGridPlan100
  3
AecBase60
 90
      129
 91
        5
280
     0
281
     0
  0
CLASS
  1
AEC_AECDBDISPREPCEILINGGRIDPLAN50
  2
AecDbDispRepCeilingGridPlan50
  3
AecBase60
 90
      129
 91
        5
280
     0
281
     0
  0
CLASS
  1
AEC_DISP_REP_CURTAIN_WALL_LAYOUT_MODEL
  2
AecDbDispRepCurtainWallLayoutModel
  3
AecArchBase60
 90
      129
 91
        5
280
     0
281
     0
  0
CLASS
  1
AEC_DISP_PROPS_GRID_ASSEMBLY_MODEL
  2
AecDbDispPropsGridAssemblyModel
  3
AecArchBase60
 90
      129
 91
        5
280
     0
281
     0
  0
CLASS
  1
AEC_DISP_REP_CURTAIN_WALL_LAYOUT_PLAN
  2
AecDbDispRepCurtainWallLayoutPlan
  3
AecArchBase60
 90
      129
 91
        7
280
     0
281
     0
  0
CLASS
  1
AEC_DISP_PROPS_GRID_ASSEMBLY_PLAN
  2
AecDbDispPropsGridAssemblyPlan
  3
AecArchBase60
 90
      129
 91
        5
280
     0
281
     0
  0
CLASS
  1
AEC_AECDBDISPREPCURTAINWALLLAYOUTPLAN100
  2
AecDbDispRepCurtainWallLayoutPlan100
  3
AecBase60
 90
      129
 91
        5
280
     0
281
     0
  0
CLASS
  1
AEC_AECDBDISPREPCURTAINWALLLAYOUTPLAN50
  2
AecDbDispRepCurtainWallLayoutPlan50
  3
AecBase60
 90
      129
 91
        5
280
     0
281
     0
  0
CLASS
  1
AEC_DISP_REP_CURTAIN_WALL_UNIT_MODEL
  2
AecDbDispRepCurtainWallUnitModel
  3
AecArchBase60
 90
      129
 91
        5
280
     0
281
     0
  0
CLASS
  1
AEC_DISP_REP_CURTAIN_WALL_UNIT_PLAN
  2
AecDbDispRepCurtainWallUnitPlan
  3
AecArchBase60
 90
      129
 91
        7
280
     0
281
     0
  0
CLASS
  1
AEC_AECDBDISPREPCURTAINWALLUNITPLAN100
  2
AecDbDispRepCurtainWallUnitPlan100
  3
AecBase60
 90
      129
 91
        5
280
     0
281
     0
  0
CLASS
  1
AEC_AECDBDISPREPCURTAINWALLUNITPLAN50
  2
AecDbDispRepCurtainWallUnitPlan50
  3
AecBase60
 90
      129
 91
        5
280
     0
281
     0
  0
CLASS
  1
AEC_DISP_REP_DOOR_MODEL
  2
AecDbDispRepDoorModel
  3
AecArchBase60
 90
      129
 91
        6
280
     0
281
     0
  0
CLASS
  1
AEC_DISP_PROPS_DOOR
  2
AecDbDispPropsDoor
  3
AecArchBase60
 90
      129
 91
        6
280
     0
281
     0
  0
CLASS
  1
AEC_DISP_REP_DOOR_ELEV
  2
AecDbDispRepDoorElev
  3
AecArchBase60
 90
      129
 91
        5
280
     0
281
     0
  0
CLASS
  1
AEC_DISP_REP_DOOR_PLAN
  2
AecDbDispRepDoorPlan
  3
AecArchBase60
 90
      129
 91
        9
280
     0
281
     0
  0
CLASS
  1
AEC_DISP_REP_DOOR_NOMINAL
  2
AecDbDispRepDoorNominal
  3
AecArchBase60
 90
      129
 91
        5
280
     0
281
     0
  0
CLASS
  1
AEC_DISP_PROPS_DOOR_NOMINAL
  2
AecDbDispPropsDoorNominal
  3
AecArchBase60
 90
      129
 91
        5
280
     0
281
     0
  0
CLASS
  1
AEC_DISP_REP_DOOR_THRESHOLD_PLAN
  2
AecDbDispRepDoorThresholdPlan
  3
AecArchBase60
 90
      129
 91
        5
280
     0
281
     0
  0
CLASS
  1
AEC_DISP_PROPS_DOOR_THRESHOLD_PLAN
  2
AecDbDispPropsDoorThresholdPlan
  3
AecArchBase60
 90
      129
 91
        5
280
     0
281
     0
  0
CLASS
  1
AEC_DISP_REP_DOOR_PLAN_50
  2
AecDbDispRepDoorPlan50
  3
AecArchDACHBase60
 90
      129
 91
        5
280
     0
281
     0
  0
CLASS
  1
AEC_DISP_PROPS_DOOR_PLAN_50
  2
AecDbDispPropsDoorPlan50
  3
AecArchDACHBase60
 90
      129
 91
        5
280
     0
281
     0
  0
CLASS
  1
AEC_DISP_REP_DOOR_PLAN_HEKTO
  2
AecDbDispRepDoorPlanHekto
  3
AecArchDACHBase60
 90
      129
 91
        5
280
     0
281
     0
  0
CLASS
  1
AEC_DISP_PROPS_DOOR_PLAN_100
  2
AecDbDispPropsDoorPlan100
  3
AecArchDACHBase60
 90
      129
 91
        5
280
     0
281
     0
  0
CLASS
  1
AEC_DISP_REP_DOOR_RCP
  2
AecDbDispRepDoorRcp
  3
AecArchBase60
 90
      129
 91
        5
280
     0
281
     0
  0
CLASS
  1
AEC_DISP_REP_DOOR_THRESHOLD_SYMBOL_PLAN
  2
AecDbDispRepDoorThresholdSymbolPlan
  3
AecArchDACHBase60
 90
      129
 91
        5
280
     0
281
     0
  0
CLASS
  1
AEC_DISP_PROPS_DOOR_THRESHOLD_SYMBOL_PLAN
  2
AecDbDispPropsDoorThresholdSymbolPlan
  3
AecArchDACHBase60
 90
      129
 91
        5
280
     0
281
     0
  0
CLASS
  1
AEC_DISP_REP_OPENING
  2
AecDbDispRepOpening
  3
AecArchBase60
 90
      129
 91
        7
280
     0
281
     0
  0
CLASS
  1
AEC_DISP_PROPS_OPENING
  2
AecDbDispPropsOpening
  3
AecArchBase60
 90
      129
 91
        6
280
     0
281
     0
  0
CLASS
  1
AEC_DISP_REP_OPENING_MODEL
  2
AecDbDispRepOpeningModel
  3
AecArchBase60
 90
      129
 91
        5
280
     0
281
     0
  0
CLASS
  1
AEC_DISPREPAECDBDISPREPOPENINGPLAN100
  2
AecDbDispRepOpeningPlan100
  3
AecArchDACHBase60
 90
      129
 91
        5
280
     0
281
     0
  0
CLASS
  1
AEC_DISPROPSOPENINGPLANCOMMONHATCHED
  2
AecDbDispPropsOpeningPlanCommonHatched
  3
AecArchDACHBase60
 90
      129
 91
        5
280
     0
281
     0
  0
CLASS
  1
AEC_DISPREPAECDBDISPREPOPENINGPLAN50
  2
AecDbDispRepOpeningPlan50
  3
AecArchDACHBase60
 90
      129
 91
        5
280
     0
281
     0
  0
CLASS
  1
AEC_DISPREPAECDBDISPREPOPENINGPLANREFLECTED
  2
AecDbDispRepOpeningPlanReflected
  3
AecArchDACHBase60
 90
      129
 91
        5
280
     0
281
     0
  0
CLASS
  1
AEC_DISPROPSOPENINGPLANCOMMON
  2
AecDbDispPropsOpeningPlanCommon
  3
AecArchDACHBase60
 90
      129
 91
        6
280
     0
281
     0
  0
CLASS
  1
AEC_DISPREPAECDBDISPREPOPENINGSILLPLAN
  2
AecDbDispRepOpeningSillPlan
  3
AecArchDACHBase60
 90
      129
 91
        5
280
     0
281
     0
  0
CLASS
  1
AEC_DISPROPSOPENINGSILLPLAN
  2
AecDbDispPropsOpeningSillPlan
  3
AecArchDACHBase60
 90
      129
 91
        5
280
     0
281
     0
  0
CLASS
  1
AEC_DISP_REP_RAILING_MODEL
  2
AecDbDispRepRailingModel
  3
AecArchBase60
 90
      129
 91
        5
280
     0
281
     0
  0
CLASS
  1
AEC_DISP_PROPS_RAILING_MODEL
  2
AecDbDispPropsRailingModel
  3
AecArchBase60
 90
      129
 91
        5
280
     0
281
     0
  0
CLASS
  1
AEC_DISP_REP_RAILING_PLAN
  2
AecDbDispRepRailingPlan
  3
AecArchBase60
 90
      129
 91
        6
280
     0
281
     0
  0
CLASS
  1
AEC_DISP_PROPS_RAILING_PLAN
  2
AecDbDispPropsRailingPlan
  3
AecArchBase60
 90
      129
 91
        6
280
     0
281
     0
  0
CLASS
  1
AEC_DISP_REP_RAILING_PLAN_100
  2
AecDbDispRepRailingPlan100
  3
AecArchDACHBase60
 90
      129
 91
        5
280
     0
281
     0
  0
CLASS
  1
AEC_DISP_ROPS_RAILING_PLAN_100
  2
AecDbDispPropsRailingPlan100
  3
AecArchDACHBase60
 90
      129
 91
        5
280
     0
281
     0
  0
CLASS
  1
AEC_DISP_REP_RAILING_PLAN_50
  2
AecDbDispRepRailingPlan50
  3
AecArchDACHBase60
 90
      129
 91
        5
280
     0
281
     0
  0
CLASS
  1
AEC_DISP_ROPS_RAILING_PLAN_50
  2
AecDbDispPropsRailingPlan50
  3
AecArchDACHBase60
 90
      129
 91
        5
280
     0
281
     0
  0
CLASS
  1
AEC_DISP_REP_ROOF_MODEL
  2
AecDbDispRepRoofModel
  3
AecArchBase60
 90
      129
 91
        5
280
     0
281
     0
  0
CLASS
  1
AEC_DISP_PROPS_ROOF
  2
AecDbDispPropsRoof
  3
AecArchBase60
 90
      129
 91
        5
280
     0
281
     0
  0
CLASS
  1
AEC_DISP_REP_ROOF_PLAN
  2
AecDbDispRepRoofPlan
  3
AecArchBase60
 90
      129
 91
        9
280
     0
281
     0
  0
CLASS
  1
AEC_DISP_REP_ROOF_RCP
  2
AecDbDispRepRoofRcp
  3
AecArchBase60
 90
      129
 91
        5
280
     0
281
     0
  0
CLASS
  1
AEC_AECDBDISPREPROOFPLAN100
  2
AecDbDispRepRoofPlan100
  3
AecBase60
 90
      129
 91
        5
280
     0
281
     0
  0
CLASS
  1
AEC_AECDBDISPREPROOFPLAN50
  2
AecDbDispRepRoofPlan50
  3
AecBase60
 90
      129
 91
        5
280
     0
281
     0
  0
CLASS
  1
AEC_DISP_REP_ROOFSLAB_MODEL
  2
AecDbDispRepRoofSlabModel
  3
AecArchBase60
 90
      129
 91
        5
280
     0
281
     0
  0
CLASS
  1
AEC_DISP_PROPS_ROOFSLAB
  2
AecDbDispPropsRoofSlab
  3
AecArchBase60
 90
      129
 91
        5
280
     0
281
     0
  0
CLASS
  1
AEC_DISP_REP_ROOFSLAB_PLAN
  2
AecDbDispRepRoofSlabPlan
  3
AecArchBase60
 90
      129
 91
        7
280
     0
281
     0
  0
CLASS
  1
AEC_DISP_PROPS_ROOFSLAB_PLAN
  2
AecDbDispPropsRoofSlabPlan
  3
AecArchBase60
 90
      129
 91
        5
280
     0
281
     0
  0
CLASS
  1
AEC_AECDBDISPREPROOFSLABPLAN100
  2
AecDbDispRepRoofSlabPlan100
  3
AecBase60
 90
      129
 91
        5
280
     0
281
     0
  0
CLASS
  1
AEC_AECDBDISPREPROOFSLABPLAN50
  2
AecDbDispRepRoofSlabPlan50
  3
AecBase60
 90
      129
 91
        5
280
     0
281
     0
  0
CLASS
  1
AEC_DISP_REP_SLAB_MODEL
  2
AecDbDispRepSlabModel
  3
AecArchBase60
 90
      129
 91
        6
280
     0
281
     0
  0
CLASS
  1
AEC_DISP_PROPS_SLAB
  2
AecDbDispPropsSlab
  3
AecArchBase60
 90
      129
 91
        7
280
     0
281
     0
  0
CLASS
  1
AEC_DISP_REP_SLAB_PLAN
  2
AecDbDispRepSlabPlan
  3
AecArchBase60
 90
      129
 91
        8
280
     0
281
     0
  0
CLASS
  1
AEC_DISP_PROPS_SLAB_PLAN
  2
AecDbDispPropsSlabPlan
  3
AecArchBase60
 90
      129
 91
        6
280
     0
281
     0
  0
CLASS
  1
AEC_AECDBDISPREPSLABPLAN100
  2
AecDbDispRepSlabPlan100
  3
AecBase60
 90
      129
 91
        5
280
     0
281
     0
  0
CLASS
  1
AEC_AECDBDISPREPSLABPLAN50
  2
AecDbDispRepSlabPlan50
  3
AecBase60
 90
      129
 91
        5
280
     0
281
     0
  0
CLASS
  1
AEC_DISP_REP_SPACE_MODEL
  2
AecDbDispRepSpaceModel
  3
AecArchBase60
 90
      129
 91
        5
280
     0
281
     0
  0
CLASS
  1
AEC_DISP_PROPS_SPACE_MODEL
  2
AecDbDispPropsSpaceModel
  3
AecArchBase60
 90
      129
 91
        5
280
     0
281
     0
  0
CLASS
  1
AEC_DISP_REP_SPACE_PLAN
  2
AecDbDispRepSpacePlan
  3
AecArchBase60
 90
      129
 91
        8
280
     0
281
     0
  0
CLASS
  1
AEC_DISP_PROPS_SPACE_PLAN
  2
AecDbDispPropsSpacePlan
  3
AecArchBase60
 90
      129
 91
        5
280
     0
281
     0
  0
CLASS
  1
AEC_DISP_REP_SPACE_RCP
  2
AecDbDispRepSpaceRcp
  3
AecArchBase60
 90
      129
 91
        5
280
     0
281
     0
  0
CLASS
  1
AEC_DISP_REP_SPACE_VOLUME
  2
AecDbDispRepSpaceVolume
  3
AecArchBase60
 90
      129
 91
        5
280
     0
281
     0
  0
CLASS
  1
AEC_DISP_REP_SPACE_DECOMPOSED
  2
AecDbDispRepSpaceDecomposed
  3
AecArchBase60
 90
      129
 91
        5
280
     0
281
     0
  0
CLASS
  1
AEC_DISP_PROPS_SPACE_DECOMPOSED
  2
AecDbDispPropsSpaceDecomposed
  3
AecArchBase60
 90
      129
 91
        5
280
     0
281
     0
  0
CLASS
  1
AEC_AECDBDISPREPSPACEPLAN100
  2
AecDbDispRepSpacePlan100
  3
AecBase60
 90
      129
 91
        5
280
     0
281
     0
  0
CLASS
  1
AEC_AECDBDISPREPSPACEPLAN50
  2
AecDbDispRepSpacePlan50
  3
AecBase60
 90
      129
 91
        5
280
     0
281
     0
  0
CLASS
  1
AEC_DISP_REP_STAIR_MODEL
  2
AecDbDispRepStairModel
  3
AecArchBase60
 90
      129
 91
        5
280
     0
281
     0
  0
CLASS
  1
AEC_DISP_PROPS_STAIR_MODEL
  2
AecDbDispPropsStairModel
  3
AecArchBase60
 90
      129
 91
        5
280
     0
281
     0
  0
CLASS
  1
AEC_DISP_REP_STAIR_PLAN
  2
AecDbDispRepStairPlan
  3
AecArchBase60
 90
      129
 91
        8
280
     0
281
     0
  0
CLASS
  1
AEC_DISP_PROPS_STAIR_PLAN
  2
AecDbDispPropsStairPlan
  3
AecArchBase60
 90
      129
 91
        7
280
     0
281
     0
  0
CLASS
  1
AEC_DISP_REP_STAIR_RCP
  2
AecDbDispRepStairRcp
  3
AecArchBase60
 90
      129
 91
        5
280
     0
281
     0
  0
CLASS
  1
AEC_DISP_REP_STAIR_PLAN_100
  2
AecDbDispRepStairPlan100
  3
AecArchDACHBase60
 90
      129
 91
        5
280
     0
281
     0
  0
CLASS
  1
AEC_DISP_ROPS_STAIR_PLAN_100
  2
AecDbDispPropsStairPlan100
  3
AecArchDACHBase60
 90
      129
 91
        5
280
     0
281
     0
  0
CLASS
  1
AEC_DISP_REP_STAIR_PLAN_50
  2
AecDbDispRepStairPlan50
  3
AecArchDACHBase60
 90
      129
 91
        5
280
     0
281
     0
  0
CLASS
  1
AEC_DISP_ROPS_STAIR_PLAN_50
  2
AecDbDispPropsStairPlan50
  3
AecArchDACHBase60
 90
      129
 91
        5
280
     0
281
     0
  0
CLASS
  1
AEC_DISP_REP_STAIR_PLAN_OVERLAPPING
  2
AecDbDispRepStairPlanOverlapping
  3
AecArchBase60
 90
      129
 91
        5
280
     0
281
     0
  0
CLASS
  1
AEC_DISP_PROPS_STAIR_PLAN_OVERLAPPING
  2
AecDbDispPropsStairPlanOverlapping
  3
AecArchBase60
 90
      129
 91
        5
280
     0
281
     0
  0
CLASS
  1
AEC_DISP_REP_WALL_GRAPH
  2
AecDbDispRepWallGraph
  3
AecArchBase60
 90
      129
 91
        5
280
     0
281
     0
  0
CLASS
  1
AEC_DISP_PROPS_WALL_GRAPH
  2
AecDbDispPropsWallGraph
  3
AecArchBase60
 90
      129
 91
        5
280
     0
281
     0
  0
CLASS
  1
AEC_DISP_REP_WALL_MODEL
  2
AecDbDispRepWallModel
  3
AecArchBase60
 90
      129
 91
        5
280
     0
281
     0
  0
CLASS
  1
AEC_DISP_PROPS_WALL_MODEL
  2
AecDbDispPropsWallModel
  3
AecArchBase60
 90
      129
 91
        5
280
     0
281
     0
  0
CLASS
  1
AEC_DISP_REP_WALL_PLAN
  2
AecDbDispRepWallPlan
  3
AecArchBase60
 90
      129
 91
        8
280
     0
281
     0
  0
CLASS
  1
AEC_DISP_PROPS_WALL_PLAN
  2
AecDbDispPropsWallPlan
  3
AecArchBase60
 90
      129
 91
        5
280
     0
281
     0
  0
CLASS
  1
AEC_DISP_REP_WALL_RCP
  2
AecDbDispRepWallRcp
  3
AecArchBase60
 90
      129
 91
        5
280
     0
281
     0
  0
CLASS
  1
AEC_DISP_REP_WALL_SCHEM
  2
AecDbDispRepWallSchem
  3
AecArchBase60
 90
      129
 91
        5
280
     0
281
     0
  0
CLASS
  1
AEC_DISP_PROPS_WALL_SCHEM
  2
AecDbDispPropsWallSchem
  3
AecArchBase60
 90
      129
 91
        5
280
     0
281
     0
  0
CLASS
  1
AEC_AECDBDISPREPWALLPLAN100
  2
AecDbDispRepWallPlan100
  3
AecBase60
 90
      129
 91
        5
280
     0
281
     0
  0
CLASS
  1
AEC_AECDBDISPREPWALLPLAN50
  2
AecDbDispRepWallPlan50
  3
AecBase60
 90
      129
 91
        5
280
     0
281
     0
  0
CLASS
  1
AEC_DISP_REP_WINDOW_MODEL
  2
AecDbDispRepWindowModel
  3
AecArchBase60
 90
      129
 91
        6
280
     0
281
     0
  0
CLASS
  1
AEC_DISP_PROPS_WINDOW
  2
AecDbDispPropsWindow
  3
AecArchBase60
 90
      129
 91
        7
280
     0
281
     0
  0
CLASS
  1
AEC_DISP_REP_WINDOW_ELEV
  2
AecDbDispRepWindowElev
  3
AecArchBase60
 90
      129
 91
        5
280
     0
281
     0
  0
CLASS
  1
AEC_DISP_REP_WINDOW_PLAN
  2
AecDbDispRepWindowPlan
  3
AecArchBase60
 90
      129
 91
        9
280
     0
281
     0
  0
CLASS
  1
AEC_DISP_REP_WINDOW_NOMINAL
  2
AecDbDispRepWindowNominal
  3
AecArchBase60
 90
      129
 91
        5
280
     0
281
     0
  0
CLASS
  1
AEC_DISP_PROPS_WINDOW_NOMINAL
  2
AecDbDispPropsWindowNominal
  3
AecArchBase60
 90
      129
 91
        5
280
     0
281
     0
  0
CLASS
  1
AEC_DISP_REP_WINDOW_RCP
  2
AecDbDispRepWindowRcp
  3
AecArchBase60
 90
      129
 91
        5
280
     0
281
     0
  0
CLASS
  1
AEC_DISP_REP_WINDOW_SILL_PLAN
  2
AecDbDispRepWindowSillPlan
  3
AecArchBase60
 90
      129
 91
        5
280
     0
281
     0
  0
CLASS
  1
AEC_DISP_PROPS_WINDOW_SILL_PLAN
  2
AecDbDispPropsWindowSillPlan
  3
AecArchBase60
 90
      129
 91
        5
280
     0
281
     0
  0
CLASS
  1
AEC_DISP_REP_WINDOW_PLAN_100
  2
AecDbDispRepWindowPlan100
  3
AecArchDACHBase60
 90
      129
 91
        5
280
     0
281
     0
  0
CLASS
  1
AEC_DISP_PROPS_WINDOW_PLAN_100
  2
AecDbDispPropsWindowPlan100
  3
AecArchDACHBase60
 90
      129
 91
        5
280
     0
281
     0
  0
CLASS
  1
AEC_DISP_REP_WINDOW_PLAN_50
  2
AecDbDispRepWindowPlan50
  3
AecArchDACHBase60
 90
      129
 91
        5
280
     0
281
     0
  0
CLASS
  1
AEC_DISP_PROPS_WINDOW_PLAN_50
  2
AecDbDispPropsWindowPlan50
  3
AecArchDACHBase60
 90
      129
 91
        5
280
     0
281
     0
  0
CLASS
  1
AEC_DISP_REP_WINDOW_ASSEMBLY_MODEL
  2
AecDbDispRepWindowAssemblyModel
  3
AecArchBase60
 90
      129
 91
        5
280
     0
281
     0
  0
CLASS
  1
AEC_DISP_REP_WINDOW_ASSEMBLY_PLAN
  2
AecDbDispRepWindowAssemblyPlan
  3
AecArchBase60
 90
      129
 91
        7
280
     0
281
     0
  0
CLASS
  1
AEC_DISP_REP_WINDOWASSEMBLY_SILL_PLAN
  2
AecDbDispRepWindowAssemblySillPlan
  3
AecArchBase60
 90
      129
 91
        5
280
     0
281
     0
  0
CLASS
  1
AEC_DISP_PROPS_WINDOW_ASSEMBLY_SILL_PLAN
  2
AecDbDispPropsWindowAssemblySillPlan
  3
AecArchBase60
 90
      129
 91
        5
280
     0
281
     0
  0
CLASS
  1
AEC_AECDBDISPREPWINDOWASSEMBLYPLAN100
  2
AecDbDispRepWindowAssemblyPlan100
  3
AecBase60
 90
      129
 91
        5
280
     0
281
     0
  0
CLASS
  1
AEC_AECDBDISPREPWINDOWASSEMBLYPLAN50
  2
AecDbDispRepWindowAssemblyPlan50
  3
AecBase60
 90
      129
 91
        5
280
     0
281
     0
  0
CLASS
  1
AEC_DB_DISP_REP_DIM_GROUP_PLAN
  2
AecDbDispRepDimGroupPlan
  3
AecArchDACHBase60
 90
      129
 91
        4
280
     0
281
     0
  0
CLASS
  1
AEC_DISP_PROPS_DIM
  2
AecDbDispPropsDimGroup
  3
AecArchDACHBase60
 90
      129
 91
        5
280
     0
281
     0
  0
CLASS
  1
AEC_DB_DISP_REP_DIM_GROUP_PLAN100
  2
AecDbDispRepDimGroupPlan100
  3
AecArchDACHBase60
 90
      129
 91
        5
280
     0
281
     0
  0
CLASS
  1
AEC_DB_DISP_REP_DIM_GROUP_PLAN50
  2
AecDbDispRepDimGroupPlan50
  3
AecArchDACHBase60
 90
      129
 91
        5
280
     0
281
     0
  0
CLASS
  1
AEC_DISP_REP_SCHEDULE_TABLE
  2
AecDbDispRepScheduleTable
  3
AecSchedule50
 90
      129
 91
        4
280
     0
281
     0
  0
CLASS
  1
AEC_DISP_PROPS_SCHEDULE_TABLE
  2
AecDbDispPropsScheduleTable
  3
AecSchedule50
 90
      129
 91
        5
280
     0
281
     0
  0
CLASS
  1
AEC_DISP_REP_ANCHOR_TAG_TO_ENT
  2
AecDbDispRepAnchorTagToEnt
  3
AecScheduleData60
 90
      129
 91
        6
280
     0
281
     0
  0
CLASS
  1
AEC_DISP_REP_ANCHOR_EXT_TAG_TO_ENT
  2
AecDbDispRepAnchorExtendedTagToEnt
  3
AecScheduleData60
 90
      129
 91
        5
280
     0
281
     0
  0
CLASS
  1
AEC_DISP_REP_SET
  2
AecDbDispRepSet
  3
AecBase60
 90
      129
 91
        5
280
     0
281
     0
  0
CLASS
  1
AECS_DISP_REP_MEMBER_MODEL_DESIGN
  2
AecsDbDispRepMemberModelDesign
  3
AecStructureBase60
 90
      129
 91
        5
280
     0
281
     0
  0
CLASS
  1
AECS_DISP_PROPS_MEMBER
  2
AecsDbDispPropsMember
  3
AecStructureBase60
 90
      129
 91
        7
280
     0
281
     0
  0
CLASS
  1
AECS_DISP_REP_MEMBER_PLAN_DESIGN
  2
AecsDbDispRepMemberPlanDesign
  3
AecStructureBase60
 90
      129
 91
        5
280
     0
281
     0
  0
CLASS
  1
AECS_DISP_PROPS_MEMBER_PLAN
  2
AecsDbDispPropsMemberPlan
  3
AecStructureBase60
 90
      129
 91
        6
280
     0
281
     0
  0
CLASS
  1
AEC_DISP_REP_CONFIG
  2
AecDbDispRepConfig
  3
AecBase60
 90
      129
 91
        5
280
     0
281
     0
  0
CLASS
  1
MLEADERSTYLE
  2
AcDbMLeaderStyle
  3
ACDB_MLEADERSTYLE_CLASS
 90
     4095
 91
        8
280
     0
281
     0
  0
CLASS
  1
GEODATA
  2
AcDbGeoData
  3
ObjectDBX Classes
 90
     4095
 91
        5
280
     0
281
     0
  0
CLASS
  1
AEC_WALL_STYLE
  2
AecDbWallStyle
  3
AecArchBase60
 90
      129
 91
        5
280
     0
281
     0
  0
CLASS
  1
AEC_CLEANUP_GROUP_DEF
  2
AecDbCleanupGroupDef
  3
AecArchBase60
 90
      129
 91
        5
280
     0
281
     0
  0
CLASS
  1
AEC_ENDCAP_STYLE
  2
AecDbEndcapStyle
  3
AecArchBase60
 90
      129
 91
        5
280
     0
281
     0
  0
CLASS
  1
AEC_FRAME_DEF
  2
AecDbOpeningEndcapStyle
  3
AecArchBase60
 90
      129
 91
        5
280
     0
281
     0
  0
CLASS
  1
AEC_MATERIAL_DEF
  2
AecDbMaterialDef
  3
AecBase60
 90
      129
 91
        5
280
     0
281
     0
  0
CLASS
  1
TABLESTYLE
  2
AcDbTableStyle
  3
ObjectDBX Classes
 90
     4095
 91
        8
280
     0
281
     0
  0
CLASS
  1
TCPOINTENTITY
  2
TcPointEntity
  3
ExTcadCustObjs|Description: TurboCAD point
 90
     4095
 91
        1
280
     1
281
     1
  0
CLASS
  1
TCOPTIONALDATA
  2
TcOptionalData
  3
ExTcadCustObjs|Description: TurboCAD extension data object
 90
     4095
 91
        1
280
     1
281
     0
  0
CLASS
  1
SCALE
  2
AcDbScale
  3
ObjectDBX Classes
 90
     1153
 91
        8
280
     0
281
     0
  0
CLASS
  1
RASTERVARIABLES
  2
AcDbRasterVariables
  3
ISM
 90
        0
 91
        8
280
     0
281
     0
  0
CLASS
  1
DICTIONARYVAR
  2
AcDbDictionaryVar
  3
ObjectDBX Classes
 90
        0
 91
        8
280
     0
281
     0
  0
CLASS
  1
CELLSTYLEMAP
  2
AcDbCellStyleMap
  3
ObjectDBX Classes
 90
     1152
 91
        5
280
     0
281
     0
  0
ENDSEC
  0
SECTION
  2
TABLES
  0
TABLE
  2
VPORT
  5
8
330
0
100
AcDbSymbolTable
 70
     1
  0
VPORT
  5
29
330
8
100
AcDbSymbolTableRecord
100
AcDbViewportTableRecord
  2
*Active
 70
     0
 10
0.0
 20
0.0
 11
1.0
 21
1.0
 12
-107.4650880878908
 22
-119.6513064438477
 13
0.0
 23
0.0
 14
10.0
 24
10.0
 15
10.0
 25
10.0
 16
0.0
 26
0.0
 36
1.0
 17
517014.8815110426
 27
4400513.215440393
 37
459.5096568354743
 40
318.8685749992493
 41
1.983490566037736
 42
50.0
 43
0.0
 44
0.0
 50
0.0
 51
0.0
 71
    16
 72
   100
 73
     1
 74
     3
 75
     0
 76
     0
 77
     0
 78
     0
281
     0
 65
     1
110
0.0
120
0.0
130
0.0
111
1.0
121
0.0
131
0.0
112
0.0
122
1.0
132
0.0
 79
     1
146
0.0
348
2F
 60
     3
 61
     5
292
     1
282
     1
141
0.0
142
0.0
 63
   250
361
3F
  0
ENDTAB
  0
TABLE
  2
LTYPE
  5
5
330
0
100
AcDbSymbolTable
 70
    14
  0
LTYPE
  5
14
330
5
100
AcDbSymbolTableRecord
100
AcDbLinetypeTableRecord
  2
ByBlock
 70
     0
  3

 72
    65
 73
     0
 40
0.0
  0
LTYPE
  5
15
330
5
100
AcDbSymbolTableRecord
100
AcDbLinetypeTableRecord
  2
ByLayer
 70
     0
  3

 72
    65
 73
     0
 40
0.0
  0
LTYPE
  5
16
330
5
100
AcDbSymbolTableRecord
100
AcDbLinetypeTableRecord
  2
Continuous
 70
     0
  3
Solid line
 72
    65
 73
     0
 40
0.0
  0
LTYPE
  5
155
330
5
100
AcDbSymbolTableRecord
100
AcDbLinetypeTableRecord
  2
BORDER
 70
     0
  3
BORDER
 72
    65
 73
     6
 40
1.75
 49
0.5
 74
     0
 49
-0.25
 74
     0
 49
0.5
 74
     0
 49
-0.25
 74
     0
 49
0.0
 74
     0
 49
-0.25
 74
     0
  0
LTYPE
  5
156
330
5
100
AcDbSymbolTableRecord
100
AcDbLinetypeTableRecord
  2
CENTER
 70
     0
  3
CENTER
 72
    65
 73
     4
 40
2.0
 49
1.25
 74
     0
 49
-0.25
 74
     0
 49
0.25
 74
     0
 49
-0.25
 74
     0
  0
LTYPE
  5
157
330
5
100
AcDbSymbolTableRecord
100
AcDbLinetypeTableRecord
  2
DASHDOT
 70
     0
  3
DASHDOT
 72
    65
 73
     4
 40
1.0
 49
0.5
 74
     0
 49
-0.25
 74
     0
 49
0.0
 74
     0
 49
-0.25
 74
     0
  0
LTYPE
  5
158
330
5
100
AcDbSymbolTableRecord
100
AcDbLinetypeTableRecord
  2
DASHED
 70
     0
  3
DASHED
 72
    65
 73
     2
 40
0.75
 49
0.5
 74
     0
 49
-0.25
 74
     0
  0
LTYPE
  5
159
330
5
100
AcDbSymbolTableRecord
100
AcDbLinetypeTableRecord
  2
DIVIDE
 70
     0
  3
DIVIDE
 72
    65
 73
     6
 40
1.25
 49
0.5
 74
     0
 49
-0.25
 74
     0
 49
0.0
 74
     0
 49
-0.25
 74
     0
 49
0.0
 74
     0
 49
-0.25
 74
     0
  0
LTYPE
  5
15A
330
5
100
AcDbSymbolTableRecord
100
AcDbLinetypeTableRecord
  2
DOT
 70
     0
  3
DOT
 72
    65
 73
     2
 40
0.25
 49
0.0
 74
     0
 49
-0.25
 74
     0
  0
LTYPE
  5
15B
330
5
100
AcDbSymbolTableRecord
100
AcDbLinetypeTableRecord
  2
HIDDEN
 70
     0
  3
HIDDEN
 72
    65
 73
     2
 40
0.375
 49
0.25
 74
     0
 49
-0.125
 74
     0
  0
LTYPE
  5
15C
330
5
100
AcDbSymbolTableRecord
100
AcDbLinetypeTableRecord
  2
PHANTOM
 70
     0
  3
PHANTOM
 72
    65
 73
     6
 40
2.5
 49
1.25
 74
     0
 49
-0.25
 74
     0
 49
0.25
 74
     0
 49
-0.25
 74
     0
 49
0.25
 74
     0
 49
-0.25
 74
     0
  0
LTYPE
  5
15D
330
5
100
AcDbSymbolTableRecord
100
AcDbLinetypeTableRecord
  2
$INVISIBLE
 70
     0
  3
$INVISIBLE
 72
    65
 73
     2
 40
200.0
 49
-100.0
 74
     0
 49
-100.0
 74
     0
  0
LTYPE
  5
15E
330
5
100
AcDbSymbolTableRecord
100
AcDbLinetypeTableRecord
  2
$CONSTRUCTION
 70
     0
  3
$CONSTRUCTION
 72
    65
 73
     4
 40
0.3
 49
0.2
 74
     0
 49
-0.05
 74
     0
 49
0.0
 74
     0
 49
-0.05
 74
     0
  0
LTYPE
  5
15F
330
5
100
AcDbSymbolTableRecord
100
AcDbLinetypeTableRecord
  2
$AUXILIARY
 70
     0
  3
$AUXILIARY
 72
    65
 73
     2
 40
0.1
 49
0.05
 74
     0
 49
-0.05
 74
     0
  0
LTYPE
  5
160
330
5
100
AcDbSymbolTableRecord
100
AcDbLinetypeTableRecord
  2
$SNAPEXT
 70
     0
  3
$SNAPEXT
 72
    65
 73
     2
 40
0.04
 49
0.02
 74
     0
 49
-0.02
 74
     0
  0
LTYPE
  5
161
330
5
100
AcDbSymbolTableRecord
100
AcDbLinetypeTableRecord
  2
$DYNDIMDOT
 70
     0
  3
$DYNDIMDOT
 72
    65
 73
     2
 40
0.05
 49
0.0
 74
     0
 49
-0.05
 74
     0
  0
ENDTAB
  0
TABLE
  2
LAYER
  5
2
102
{ACAD_XDICTIONARY
360
408
102
}
330
0
100
AcDbSymbolTable
 70
     4
  0
LAYER
  5
10
330
2
100
AcDbSymbolTableRecord
100
AcDbLayerTableRecord
  2
0
 70
     0
 62
     7
  6
Continuous
370
     0
390
F
347
3E
  0
LAYER
  5
162
330
2
100
AcDbSymbolTableRecord
100
AcDbLayerTableRecord
  2
415_T
 70
     4
 62
     4
  6
Continuous
370
     0
390
F
347
3E
  0
LAYER
  5
163
330
2
100
AcDbSymbolTableRecord
100
AcDbLayerTableRecord
  2
INIT_COORD
 70
     4
 62
     5
  6
Continuous
370
     0
390
F
347
3E
  0
LAYER
  5
164
330
2
100
AcDbSymbolTableRecord
100
AcDbLayerTableRecord
  2
GEOFENCE
 70
     0
 62
     3
  6
Continuous
370
     0
390
F
347
3E
  0
ENDTAB
  0
TABLE
  2
STYLE
  5
3
330
0
100
AcDbSymbolTable
 70
     1
  0
STYLE
  5
11
330
3
100
AcDbSymbolTableRecord
100
AcDbTextStyleTableRecord
  2
Standard
 70
     0
 40
0.0
 41
1.0
 50
0.0
 71
     0
 42
2.5
  3
TIMES.TTF.SHX
  4

  0
ENDTAB
  0
TABLE
  2
VIEW
  5
6
330
0
100
AcDbSymbolTable
 70
     1
  0
VIEW
  5
165
330
6
100
AcDbSymbolTableRecord
100
AcDbViewTableRecord
  2
View_0
 70
     0
 40
8.267716535433072
 10
5.846456692913386
 20
4.133858267716536
 41
11.69291338582677
 11
0.0
 21
0.0
 31
1.0
 12
0.0
 22
0.0
 32
0.0
 42
50.0
 43
0.0
 44
0.0
 50
0.0
 71
     0
281
     0
 72
     0
 73
     0
348
2F
  0
ENDTAB
  0
TABLE
  2
UCS
  5
7
330
0
100
AcDbSymbolTable
 70
     0
  0
ENDTAB
  0
TABLE
  2
APPID
  5
9
330
0
100
AcDbSymbolTable
 70
     3
  0
APPID
  5
12
330
9
100
AcDbSymbolTableRecord
100
AcDbRegAppTableRecord
  2
ACAD
 70
     0
  0
APPID
  5
40
330
9
100
AcDbSymbolTableRecord
100
AcDbRegAppTableRecord
  2
TCAD
 70
     0
  0
APPID
  5
169
330
9
100
AcDbSymbolTableRecord
100
AcDbRegAppTableRecord
  2
ACAD_MLEADERVER
 70
     0
  0
ENDTAB
  0
TABLE
  2
DIMSTYLE
  5
A
330
0
100
AcDbSymbolTable
 70
     2
100
AcDbDimStyleTable
  0
DIMSTYLE
105
27
330
A
100
AcDbSymbolTableRecord
100
AcDbDimStyleTableRecord
  2
Standard
 70
     0
  4
^B2147483648l^B^B2147483648l^B^B2147483648l^B
 41
0.25
 43
0.375
 44
0.125
 45
0.01
 74
     0
 77
     1
 78
     1
140
0.1463414634146341
141
0.0
143
1.0
147
0.0625
148
0.01
172
     1
178
     0
179
     2
271
     2
272
     3
276
     2
278
     0
340
11
345
14
346
14
347
14
  0
DIMSTYLE
105
166
330
A
100
AcDbSymbolTableRecord
100
AcDbDimStyleTableRecord
  2
ISO-25
 70
     0
  4
뎠甈鐔^X뎿甈
 41
2.5
 42
0.625
 43
3.75
 44
1.25
 73
     0
 74
     0
 77
     1
 78
     8
140
2.499999999999999
141
0.0
143
0.03937007874016
147
0.625
171
     3
172
     1
178
     0
271
     2
272
     2
274
     3
278
    44
283
     0
284
     8
340
11
345
14
346
14
347
14
  0
ENDTAB
  0
TABLE
  2
BLOCK_RECORD
  5
1
330
0
100
AcDbSymbolTable
 70
     1
  0
BLOCK_RECORD
  5
1F
102
{ACAD_XDICTIONARY
360
16A
102
}
330
1
100
AcDbSymbolTableRecord
100
AcDbBlockTableRecord
  2
*Model_Space
340
22
 70
     0
280
     1
281
     0
  0
BLOCK_RECORD
  5
1B
330
1
100
AcDbSymbolTableRecord
100
AcDbBlockTableRecord
  2
*Paper_Space
340
1E
 70
     0
280
     1
281
     0
  0
BLOCK_RECORD
  5
151
330
1
100
AcDbSymbolTableRecord
100
AcDbBlockTableRecord
  2
*Paper_Space0
340
152
 70
     0
280
     1
281
     0
  0
ENDTAB
  0
ENDSEC
  0
SECTION
  2
BLOCKS
  0
BLOCK
  5
20
330
1F
100
AcDbEntity
  8
0
100
AcDbBlockBegin
  2
*Model_Space
 70
     0
 10
0.0
 20
0.0
 30
0.0
  3
*Model_Space
  1

  0
ENDBLK
  5
21
330
1F
100
AcDbEntity
  8
0
100
AcDbBlockEnd
  0
BLOCK
  5
1C
330
1B
100
AcDbEntity
 67
     1
  8
0
100
AcDbBlockBegin
  2
*Paper_Space
 70
     0
 10
0.0
 20
0.0
 30
0.0
  3
*Paper_Space
  1

  0
ENDBLK
  5
1D
330
1B
100
AcDbEntity
 67
     1
  8
0
100
AcDbBlockEnd
  0
BLOCK
  5
153
330
151
100
AcDbEntity
  8
0
100
AcDbBlockBegin
  2
*Paper_Space0
 70
     0
 10
0.0
 20
0.0
 30
0.0
  3
*Paper_Space0
  1

  0
VIEWPORT
  5
3D9
330
151
100
AcDbEntity
  8
0
100
AcDbViewport
 10
496551.8820012527
 20
4227036.043772928
 30
0.0
 40
582.9641121227178
 41
457.2690000003204
 68
     1
 69
     1
 12
496551.8820012527
 22
4227036.043772928
 13
0.0
 23
0.0
 14
0.5
 24
0.5
 15
0.5
 25
0.5
 16
0.0
 26
0.0
 36
1.0
 17
0.0
 27
0.0
 37
0.0
 42
50.0
 43
0.0
 44
0.0
 45
457.2690000003204
 50
0.0
 51
0.0
 72
  1000
 90
    32800
  1

281
     0
 71
     1
 74
     0
110
0.0
120
0.0
130
0.0
111
1.0
121
0.0
131
0.0
112
0.0
122
1.0
132
0.0
 79
     0
146
0.0
170
     0
 61
     5
348
2F
292
     1
282
     1
141
0.0
142
0.0
 63
   256
  0
ENDBLK
  5
154
330
151
100
AcDbEntity
  8
0
100
AcDbBlockEnd
  0
ENDSEC
  0
SECTION
  2
ENTITIES
  0
POINT
  5
178
330
1F
100
AcDbEntity
  8
415_T
  6
Continuous
100
AcDbPoint
 10
516770.944
 20
4400477.256
 30
416.0
  0
POINT
  5
179
330
1F
100
AcDbEntity
  8
415_T
  6
Continuous
100
AcDbPoint
 10
516769.287
 20
4400480.9975
 30
416.0
  0
POINT
  5
17A
330
1F
100
AcDbEntity
  8
415_T
  6
Continuous
100
AcDbPoint
 10
516771.3693
 20
4400481.0015
 30
416.0
  0
POINT
  5
17B
330
1F
100
AcDbEntity
  8
415_T
  6
Continuous
100
AcDbPoint
 10
516775.5883
 20
4400482.0175
 30
416.0
  0
POINT
  5
17C
330
1F
100
AcDbEntity
  8
415_T
  6
Continuous
100
AcDbPoint
 10
516777.9327864317
 20
4400482.583481384
 30
416.0
  0
POINT
  5
17D
330
1F
100
AcDbEntity
  8
415_T
  6
Continuous
100
AcDbPoint
 10
516781.028
 20
4400484.34
 30
416.0
  0
POINT
  5
17E
330
1F
100
AcDbEntity
  8
415_T
  6
Continuous
100
AcDbPoint
 10
516781.823
 20
4400484.91
 30
416.0
  0
POINT
  5
17F
330
1F
100
AcDbEntity
  8
415_T
  6
Continuous
100
AcDbPoint
 10
516782.145
 20
4400486.653
 30
416.0
  0
POINT
  5
180
330
1F
100
AcDbEntity
  8
415_T
  6
Continuous
100
AcDbPoint
 10
516784.218
 20
4400489.913
 30
416.0
  0
POINT
  5
181
330
1F
100
AcDbEntity
  8
415_T
  6
Continuous
100
AcDbPoint
 10
516786.193
 20
4400489.173
 30
416.0
  0
POINT
  5
182
330
1F
100
AcDbEntity
  8
415_T
  6
Continuous
100
AcDbPoint
 10
516788.462
 20
4400489.836
 30
416.0
  0
POINT
  5
183
330
1F
100
AcDbEntity
  8
415_T
  6
Continuous
100
AcDbPoint
 10
516789.61
 20
4400490.061
 30
416.0
  0
POINT
  5
184
330
1F
100
AcDbEntity
  8
415_T
  6
Continuous
100
AcDbPoint
 10
516797.146
 20
4400494.502
 30
415.7000122070312
  0
POINT
  5
185
330
1F
100
AcDbEntity
  8
415_T
  6
Continuous
100
AcDbPoint
 10
516804.498
 20
4400497.148
 30
415.7000122070312
  0
POINT
  5
186
330
1F
100
AcDbEntity
  8
415_T
  6
Continuous
100
AcDbPoint
 10
516808.154
 20
4400497.057
 30
415.7000122070312
  0
POINT
  5
187
330
1F
100
AcDbEntity
  8
415_T
  6
Continuous
100
AcDbPoint
 10
516809.129
 20
4400496.634
 30
415.7000122070312
  0
POINT
  5
188
330
1F
100
AcDbEntity
  8
415_T
  6
Continuous
100
AcDbPoint
 10
516814.639
 20
4400495.101
 30
415.7000122070312
  0
POINT
  5
189
330
1F
100
AcDbEntity
  8
415_T
  6
Continuous
100
AcDbPoint
 10
516820.507
 20
4400493.702
 30
415.6000061035156
  0
POINT
  5
18A
330
1F
100
AcDbEntity
  8
415_T
  6
Continuous
100
AcDbPoint
 10
516823.585
 20
4400492.08
 30
415.6000061035156
  0
POINT
  5
18B
330
1F
100
AcDbEntity
  8
415_T
  6
Continuous
100
AcDbPoint
 10
516824.176
 20
4400492.237
 30
415.6000061035156
  0
POINT
  5
18C
330
1F
100
AcDbEntity
  8
415_T
  6
Continuous
100
AcDbPoint
 10
516827.578
 20
4400491.011
 30
415.6000061035156
  0
POINT
  5
18D
330
1F
100
AcDbEntity
  8
415_T
  6
Continuous
100
AcDbPoint
 10
516829.861
 20
4400490.869
 30
415.6000061035156
  0
POINT
  5
18E
330
1F
100
AcDbEntity
  8
415_T
  6
Continuous
100
AcDbPoint
 10
516834.561
 20
4400490.811
 30
415.6000061035156
  0
POINT
  5
18F
330
1F
100
AcDbEntity
  8
415_T
  6
Continuous
100
AcDbPoint
 10
516836.3190595651
 20
4400490.630974701
 30
415.6000061035156
  0
POINT
  5
190
330
1F
100
AcDbEntity
  8
415_T
  6
Continuous
100
AcDbPoint
 10
516841.602
 20
4400489.775
 30
415.6000061035156
  0
POINT
  5
191
330
1F
100
AcDbEntity
  8
415_T
  6
Continuous
100
AcDbPoint
 10
516844.013
 20
4400489.811
 30
415.6000061035156
  0
POINT
  5
192
330
1F
100
AcDbEntity
  8
415_T
  6
Continuous
100
AcDbPoint
 10
516845.199
 20
4400489.81
 30
415.6000061035156
  0
POINT
  5
193
330
1F
100
AcDbEntity
  8
415_T
  6
Continuous
100
AcDbPoint
 10
516853.851
 20
4400489.575
 30
415.3999938964844
  0
POINT
  5
194
330
1F
100
AcDbEntity
  8
415_T
  6
Continuous
100
AcDbPoint
 10
516858.118
 20
4400489.597
 30
415.3999938964844
  0
POINT
  5
195
330
1F
100
AcDbEntity
  8
415_T
  6
Continuous
100
AcDbPoint
 10
516863.606
 20
4400490.473
 30
415.3999938964844
  0
POINT
  5
196
330
1F
100
AcDbEntity
  8
415_T
  6
Continuous
100
AcDbPoint
 10
516871.356
 20
4400490.505
 30
415.3999938964844
  0
POINT
  5
197
330
1F
100
AcDbEntity
  8
415_T
  6
Continuous
100
AcDbPoint
 10
516875.456
 20
4400490.869
 30
415.3999938964844
  0
POINT
  5
198
330
1F
100
AcDbEntity
  8
415_T
  6
Continuous
100
AcDbPoint
 10
516883.782
 20
4400491.195
 30
415.3999938964844
  0
POINT
  5
199
330
1F
100
AcDbEntity
  8
415_T
  6
Continuous
100
AcDbPoint
 10
516888.639
 20
4400491.707
 30
415.3999938964844
  0
POINT
  5
19A
330
1F
100
AcDbEntity
  8
415_T
  6
Continuous
100
AcDbPoint
 10
516894.652
 20
4400492.81
 30
414.8999938964844
  0
POINT
  5
19B
330
1F
100
AcDbEntity
  8
415_T
  6
Continuous
100
AcDbPoint
 10
516895.068
 20
4400494.459
 30
414.8999938964844
  0
POINT
  5
19C
330
1F
100
AcDbEntity
  8
415_T
  6
Continuous
100
AcDbPoint
 10
516895.528
 20
4400495.669
 30
414.8999938964844
  0
POINT
  5
19D
330
1F
100
AcDbEntity
  8
415_T
  6
Continuous
100
AcDbPoint
 10
516895.632
 20
4400496.462
 30
414.8999938964844
  0
POINT
  5
19E
330
1F
100
AcDbEntity
  8
415_T
  6
Continuous
100
AcDbPoint
 10
516897.6063068606
 20
4400496.577210424
 30
414.8999938964844
  0
POINT
  5
19F
330
1F
100
AcDbEntity
  8
415_T
  6
Continuous
100
AcDbPoint
 10
516898.715
 20
4400495.059
 30
414.8999938964844
  0
POINT
  5
1A0
330
1F
100
AcDbEntity
  8
415_T
  6
Continuous
100
AcDbPoint
 10
516900.185
 20
4400494.478
 30
414.8999938964844
  0
POINT
  5
1A1
330
1F
100
AcDbEntity
  8
415_T
  6
Continuous
100
AcDbPoint
 10
516902.636
 20
4400494.48
 30
414.8999938964844
  0
POINT
  5
1A2
330
1F
100
AcDbEntity
  8
415_T
  6
Continuous
100
AcDbPoint
 10
516904.135
 20
4400494.325
 30
414.8999938964844
  0
POINT
  5
1A3
330
1F
100
AcDbEntity
  8
415_T
  6
Continuous
100
AcDbPoint
 10
516907.014
 20
4400494.472
 30
414.8999938964844
  0
POINT
  5
1A4
330
1F
100
AcDbEntity
  8
415_T
  6
Continuous
100
AcDbPoint
 10
516909.43
 20
4400494.895
 30
414.8999938964844
  0
POINT
  5
1A5
330
1F
100
AcDbEntity
  8
415_T
  6
Continuous
100
AcDbPoint
 10
516910.571
 20
4400495.652
 30
414.8999938964844
  0
POINT
  5
1A6
330
1F
100
AcDbEntity
  8
415_T
  6
Continuous
100
AcDbPoint
 10
516911.992
 20
4400495.736
 30
414.8999938964844
  0
POINT
  5
1A7
330
1F
100
AcDbEntity
  8
415_T
  6
Continuous
100
AcDbPoint
 10
516914.9675
 20
4400494.612
 30
414.8999938964844
  0
POINT
  5
1A8
330
1F
100
AcDbEntity
  8
415_T
  6
Continuous
100
AcDbPoint
 10
516916.534
 20
4400494.336
 30
414.8999938964844
  0
POINT
  5
1A9
330
1F
100
AcDbEntity
  8
415_T
  6
Continuous
100
AcDbPoint
 10
516920.345
 20
4400495.888
 30
414.8999938964844
  0
POINT
  5
1AA
330
1F
100
AcDbEntity
  8
415_T
  6
Continuous
100
AcDbPoint
 10
516922.308
 20
4400496.555
 30
414.8999938964844
  0
POINT
  5
1AB
330
1F
100
AcDbEntity
  8
415_T
  6
Continuous
100
AcDbPoint
 10
516926.855
 20
4400495.7235
 30
414.8999938964844
  0
POINT
  5
1AC
330
1F
100
AcDbEntity
  8
415_T
  6
Continuous
100
AcDbPoint
 10
516928.892
 20
4400495.655
 30
414.8999938964844
  0
POINT
  5
1AD
330
1F
100
AcDbEntity
  8
415_T
  6
Continuous
100
AcDbPoint
 10
516932.568
 20
4400494.443
 30
414.8999938964844
  0
POINT
  5
1AE
330
1F
100
AcDbEntity
  8
415_T
  6
Continuous
100
AcDbPoint
 10
516935.512
 20
4400494.078
 30
414.8999938964844
  0
POINT
  5
1AF
330
1F
100
AcDbEntity
  8
415_T
  6
Continuous
100
AcDbPoint
 10
516942.205
 20
4400493.074
 30
414.75
  0
POINT
  5
1B0
330
1F
100
AcDbEntity
  8
415_T
  6
Continuous
100
AcDbPoint
 10
516948.297
 20
4400492.706
 30
414.75
  0
POINT
  5
1B1
330
1F
100
AcDbEntity
  8
415_T
  6
Continuous
100
AcDbPoint
 10
516949.612
 20
4400492.342
 30
414.75
  0
POINT
  5
1B2
330
1F
100
AcDbEntity
  8
415_T
  6
Continuous
100
AcDbPoint
 10
516952.64
 20
4400492.889
 30
414.75
  0
POINT
  5
1B3
330
1F
100
AcDbEntity
  8
415_T
  6
Continuous
100
AcDbPoint
 10
516955.995
 20
4400492.485
 30
414.75
  0
POINT
  5
1B4
330
1F
100
AcDbEntity
  8
415_T
  6
Continuous
100
AcDbPoint
 10
516958.803
 20
4400491.985
 30
414.75
  0
POINT
  5
1B5
330
1F
100
AcDbEntity
  8
415_T
  6
Continuous
100
AcDbPoint
 10
516962.404
 20
4400491.675
 30
414.75
  0
POINT
  5
1B6
330
1F
100
AcDbEntity
  8
415_T
  6
Continuous
100
AcDbPoint
 10
516973.313
 20
4400490.63
 30
414.6000061035156
  0
POINT
  5
1B7
330
1F
100
AcDbEntity
  8
415_T
  6
Continuous
100
AcDbPoint
 10
516976.735
 20
4400491.051
 30
414.6000061035156
  0
POINT
  5
1B8
330
1F
100
AcDbEntity
  8
415_T
  6
Continuous
100
AcDbPoint
 10
516978.934
 20
4400491.396
 30
414.6000061035156
  0
POINT
  5
1B9
330
1F
100
AcDbEntity
  8
415_T
  6
Continuous
100
AcDbPoint
 10
516985.586
 20
4400489.955
 30
414.6000061035156
  0
POINT
  5
1BA
330
1F
100
AcDbEntity
  8
415_T
  6
Continuous
100
AcDbPoint
 10
516986.571
 20
4400489.494
 30
414.6000061035156
  0
POINT
  5
1BB
330
1F
100
AcDbEntity
  8
415_T
  6
Continuous
100
AcDbPoint
 10
516990.651
 20
4400490.287
 30
414.6000061035156
  0
POINT
  5
1BC
330
1F
100
AcDbEntity
  8
415_T
  6
Continuous
100
AcDbPoint
 10
516995.104
 20
4400490.326
 30
414.6000061035156
  0
POINT
  5
1BD
330
1F
100
AcDbEntity
  8
415_T
  6
Continuous
100
AcDbPoint
 10
517001.186
 20
4400491.631
 30
414.6000061035156
  0
POINT
  5
1BE
330
1F
100
AcDbEntity
  8
415_T
  6
Continuous
100
AcDbPoint
 10
517005.475
 20
4400491.876
 30
414.6000061035156
  0
POINT
  5
1BF
330
1F
100
AcDbEntity
  8
415_T
  6
Continuous
100
AcDbPoint
 10
517013.522
 20
4400493.002
 30
414.6000061035156
  0
POINT
  5
1C0
330
1F
100
AcDbEntity
  8
415_T
  6
Continuous
100
AcDbPoint
 10
517016.341
 20
4400492.899
 30
414.6000061035156
  0
POINT
  5
1C1
330
1F
100
AcDbEntity
  8
415_T
  6
Continuous
100
AcDbPoint
 10
517022.537
 20
4400493.239
 30
414.5
  0
POINT
  5
1C2
330
1F
100
AcDbEntity
  8
415_T
  6
Continuous
100
AcDbPoint
 10
517028.101
 20
4400493.433
 30
414.5
  0
POINT
  5
1C3
330
1F
100
AcDbEntity
  8
415_T
  6
Continuous
100
AcDbPoint
 10
517029.377
 20
4400493.865
 30
414.5
  0
POINT
  5
1C4
330
1F
100
AcDbEntity
  8
415_T
  6
Continuous
100
AcDbPoint
 10
517029.874
 20
4400495.011
 30
414.5
  0
POINT
  5
1C5
330
1F
100
AcDbEntity
  8
415_T
  6
Continuous
100
AcDbPoint
 10
517032.458
 20
4400495.737
 30
414.5
  0
POINT
  5
1C6
330
1F
100
AcDbEntity
  8
415_T
  6
Continuous
100
AcDbPoint
 10
517033.182
 20
4400495.134
 30
414.5
  0
POINT
  5
1C7
330
1F
100
AcDbEntity
  8
415_T
  6
Continuous
100
AcDbPoint
 10
517035.352
 20
4400492.966
 30
414.5
  0
POINT
  5
1C8
330
1F
100
AcDbEntity
  8
415_T
  6
Continuous
100
AcDbPoint
 10
517037.779
 20
4400490.807
 30
414.5
  0
POINT
  5
1C9
330
1F
100
AcDbEntity
  8
415_T
  6
Continuous
100
AcDbPoint
 10
517043.017
 20
4400487.38
 30
414.5
  0
POINT
  5
1CA
330
1F
100
AcDbEntity
  8
415_T
  6
Continuous
100
AcDbPoint
 10
517048.423
 20
4400486.845
 30
414.2000122070312
  0
POINT
  5
1CB
330
1F
100
AcDbEntity
  8
415_T
  6
Continuous
100
AcDbPoint
 10
517053.821
 20
4400485.684
 30
414.2000122070312
  0
POINT
  5
1CC
330
1F
100
AcDbEntity
  8
415_T
  6
Continuous
100
AcDbPoint
 10
517057.755
 20
4400484.999
 30
414.2000122070312
  0
POINT
  5
1CD
330
1F
100
AcDbEntity
  8
415_T
  6
Continuous
100
AcDbPoint
 10
517058.659
 20
4400485.167
 30
414.2000122070312
  0
POINT
  5
1CE
330
1F
100
AcDbEntity
  8
415_T
  6
Continuous
100
AcDbPoint
 10
517060.816
 20
4400484.378
 30
414.2000122070312
  0
POINT
  5
1CF
330
1F
100
AcDbEntity
  8
415_T
  6
Continuous
100
AcDbPoint
 10
517069.496
 20
4400481.118
 30
413.8999938964844
  0
POINT
  5
1D0
330
1F
100
AcDbEntity
  8
415_T
  6
Continuous
100
AcDbPoint
 10
517072.289
 20
4400481.068
 30
413.8999938964844
  0
POINT
  5
1D1
330
1F
100
AcDbEntity
  8
415_T
  6
Continuous
100
AcDbPoint
 10
517076.973
 20
4400478.144
 30
413.8999938964844
  0
POINT
  5
1D2
330
1F
100
AcDbEntity
  8
415_T
  6
Continuous
100
AcDbPoint
 10
517079.043
 20
4400476.889
 30
413.8999938964844
  0
POINT
  5
1D3
330
1F
100
AcDbEntity
  8
415_T
  6
Continuous
100
AcDbPoint
 10
517082.1849170169
 20
4400473.619009327
 30
413.8999938964844
  0
POINT
  5
1D4
330
1F
100
AcDbEntity
  8
415_T
  6
Continuous
100
AcDbPoint
 10
517083.2
 20
4400482.727
 30
413.8999938964844
  0
POINT
  5
1D5
330
1F
100
AcDbEntity
  8
415_T
  6
Continuous
100
AcDbPoint
 10
517083.742
 20
4400490.972
 30
414.2999877929688
  0
POINT
  5
1D6
330
1F
100
AcDbEntity
  8
415_T
  6
Continuous
100
AcDbPoint
 10
517084.153
 20
4400494.28
 30
414.2999877929688
  0
POINT
  5
1D7
330
1F
100
AcDbEntity
  8
415_T
  6
Continuous
100
AcDbPoint
 10
517086.764
 20
4400494.978
 30
414.5
  0
POINT
  5
1D8
330
1F
100
AcDbEntity
  8
415_T
  6
Continuous
100
AcDbPoint
 10
517087.451
 20
4400494.981
 30
414.5
  0
POINT
  5
1D9
330
1F
100
AcDbEntity
  8
415_T
  6
Continuous
100
AcDbPoint
 10
517088.194
 20
4400495.453
 30
414.5
  0
POINT
  5
1DA
330
1F
100
AcDbEntity
  8
415_T
  6
Continuous
100
AcDbPoint
 10
517090.809
 20
4400497.083
 30
414.5
  0
POINT
  5
1DB
330
1F
100
AcDbEntity
  8
415_T
  6
Continuous
100
AcDbPoint
 10
517093.671
 20
4400498.254
 30
414.5
  0
POINT
  5
1DC
330
1F
100
AcDbEntity
  8
415_T
  6
Continuous
100
AcDbPoint
 10
517098.245
 20
4400499.159
 30
414.5
  0
POINT
  5
1DD
330
1F
100
AcDbEntity
  8
415_T
  6
Continuous
100
AcDbPoint
 10
517099.588
 20
4400499.537
 30
414.5
  0
POINT
  5
1DE
330
1F
100
AcDbEntity
  8
415_T
  6
Continuous
100
AcDbPoint
 10
517100.448
 20
4400499.83
 30
414.5
  0
POINT
  5
1DF
330
1F
100
AcDbEntity
  8
415_T
  6
Continuous
100
AcDbPoint
 10
517101.472
 20
4400500.186
 30
414.5
  0
POINT
  5
1E0
330
1F
100
AcDbEntity
  8
415_T
  6
Continuous
100
AcDbPoint
 10
517103.817
 20
4400500.66
 30
414.5
  0
POINT
  5
1E1
330
1F
100
AcDbEntity
  8
415_T
  6
Continuous
100
AcDbPoint
 10
517106.781
 20
4400501.481
 30
414.5
  0
POINT
  5
1E2
330
1F
100
AcDbEntity
  8
415_T
  6
Continuous
100
AcDbPoint
 10
517109.2384165234
 20
4400501.422665692
 30
414.5
  0
POINT
  5
1E3
330
1F
100
AcDbEntity
  8
415_T
  6
Continuous
100
AcDbPoint
 10
517109.38497597
 20
4400498.032744749
 30
414.5
  0
POINT
  5
1E4
330
1F
100
AcDbEntity
  8
415_T
  6
Continuous
100
AcDbPoint
 10
517106.227
 20
4400498.126
 30
414.5
  0
POINT
  5
1E5
330
1F
100
AcDbEntity
  8
415_T
  6
Continuous
100
AcDbPoint
 10
517102.558
 20
4400497.904
 30
414.5
  0
POINT
  5
1E6
330
1F
100
AcDbEntity
  8
415_T
  6
Continuous
100
AcDbPoint
 10
517100.586
 20
4400497.584
 30
414.5
  0
POINT
  5
1E7
330
1F
100
AcDbEntity
  8
415_T
  6
Continuous
100
AcDbPoint
 10
517098.965
 20
4400497.265
 30
414.5
  0
POINT
  5
1E8
330
1F
100
AcDbEntity
  8
415_T
  6
Continuous
100
AcDbPoint
 10
517097.124
 20
4400495.952
 30
414.5
  0
POINT
  5
1E9
330
1F
100
AcDbEntity
  8
415_T
  6
Continuous
100
AcDbPoint
 10
517094.896
 20
4400495.405
 30
414.5
  0
POINT
  5
1EA
330
1F
100
AcDbEntity
  8
415_T
  6
Continuous
100
AcDbPoint
 10
517091.3
 20
4400494.742
 30
414.5
  0
POINT
  5
1EB
330
1F
100
AcDbEntity
  8
415_T
  6
Continuous
100
AcDbPoint
 10
517088.354
 20
4400493.155
 30
414.5
  0
POINT
  5
1EC
330
1F
100
AcDbEntity
  8
415_T
  6
Continuous
100
AcDbPoint
 10
517087.625
 20
4400492.61
 30
414.5
  0
POINT
  5
1ED
330
1F
100
AcDbEntity
  8
415_T
  6
Continuous
100
AcDbPoint
 10
517086.035
 20
4400491.147
 30
414.2999877929688
  0
POINT
  5
1EE
330
1F
100
AcDbEntity
  8
415_T
  6
Continuous
100
AcDbPoint
 10
517085.613
 20
4400485.882
 30
414.2999877929688
  0
POINT
  5
1EF
330
1F
100
AcDbEntity
  8
415_T
  6
Continuous
100
AcDbPoint
 10
517084.218
 20
4400474.909
 30
413.8999938964844
  0
POINT
  5
1F0
330
1F
100
AcDbEntity
  8
415_T
  6
Continuous
100
AcDbPoint
 10
517083.951
 20
4400471.855
 30
413.8999938964844
  0
POINT
  5
1F1
330
1F
100
AcDbEntity
  8
415_T
  6
Continuous
100
AcDbPoint
 10
517083.934
 20
4400470.966
 30
413.8999938964844
  0
POINT
  5
1F2
330
1F
100
AcDbEntity
  8
415_T
  6
Continuous
100
AcDbPoint
 10
517084.124
 20
4400469.227
 30
413.8999938964844
  0
POINT
  5
1F3
330
1F
100
AcDbEntity
  8
415_T
  6
Continuous
100
AcDbPoint
 10
517083.678
 20
4400468.209
 30
413.8999938964844
  0
POINT
  5
1F4
330
1F
100
AcDbEntity
  8
415_T
  6
Continuous
100
AcDbPoint
 10
517083.352
 20
4400467.633
 30
413.8999938964844
  0
POINT
  5
1F5
330
1F
100
AcDbEntity
  8
415_T
  6
Continuous
100
AcDbPoint
 10
517082.858
 20
4400464.354
 30
413.7000122070312
  0
POINT
  5
1F6
330
1F
100
AcDbEntity
  8
415_T
  6
Continuous
100
AcDbPoint
 10
517084.713
 20
4400463.006
 30
413.7000122070312
  0
POINT
  5
1F7
330
1F
100
AcDbEntity
  8
415_T
  6
Continuous
100
AcDbPoint
 10
517083.974
 20
4400462.282
 30
413.7000122070312
  0
POINT
  5
1F8
330
1F
100
AcDbEntity
  8
415_T
  6
Continuous
100
AcDbPoint
 10
517082.924
 20
4400460.258
 30
413.7000122070312
  0
POINT
  5
1F9
330
1F
100
AcDbEntity
  8
415_T
  6
Continuous
100
AcDbPoint
 10
517082.581
 20
4400455.972
 30
413.7000122070312
  0
POINT
  5
1FA
330
1F
100
AcDbEntity
  8
415_T
  6
Continuous
100
AcDbPoint
 10
517081.177
 20
4400448.305
 30
413.7000122070312
  0
POINT
  5
1FB
330
1F
100
AcDbEntity
  8
415_T
  6
Continuous
100
AcDbPoint
 10
517076.574
 20
4400413.301
 30
413.2000122070312
  0
POINT
  5
1FC
330
1F
100
AcDbEntity
  8
415_T
  6
Continuous
100
AcDbPoint
 10
517076.469
 20
4400409.815
 30
413.2000122070312
  0
POINT
  5
1FD
330
1F
100
AcDbEntity
  8
415_T
  6
Continuous
100
AcDbPoint
 10
517076.455
 20
4400407.16
 30
413.2000122070312
  0
POINT
  5
1FE
330
1F
100
AcDbEntity
  8
415_T
  6
Continuous
100
AcDbPoint
 10
517074.921
 20
4400404.248
 30
413.2000122070312
  0
POINT
  5
1FF
330
1F
100
AcDbEntity
  8
415_T
  6
Continuous
100
AcDbPoint
 10
517073.281927395
 20
4400395.563758805
 30
412.8999938964844
  0
POINT
  5
200
330
1F
100
AcDbEntity
  8
415_T
  6
Continuous
100
AcDbPoint
 10
517071.8568701014
 20
4400388.640895248
 30
412.8999938964844
  0
POINT
  5
201
330
1F
100
AcDbEntity
  8
415_T
  6
Continuous
100
AcDbPoint
 10
517070.1655149002
 20
4400382.922228971
 30
412.8999938964844
  0
POINT
  5
202
330
1F
100
AcDbEntity
  8
415_T
  6
Continuous
100
AcDbPoint
 10
517070.2088062587
 20
4400381.447230545
 30
412.8999938964844
  0
POINT
  5
203
330
1F
100
AcDbEntity
  8
415_T
  6
Continuous
100
AcDbPoint
 10
517067.4839733801
 20
4400373.500678516
 30
412.5
  0
POINT
  5
204
330
1F
100
AcDbEntity
  8
415_T
  6
Continuous
100
AcDbPoint
 10
517064.426
 20
4400364.348
 30
412.25
  0
POINT
  5
205
330
1F
100
AcDbEntity
  8
415_T
  6
Continuous
100
AcDbPoint
 10
517063.585
 20
4400360.009
 30
412.25
  0
POINT
  5
206
330
1F
100
AcDbEntity
  8
415_T
  6
Continuous
100
AcDbPoint
 10
517063.216
 20
4400357.66
 30
412.25
  0
POINT
  5
207
330
1F
100
AcDbEntity
  8
415_T
  6
Continuous
100
AcDbPoint
 10
517063.714
 20
4400357.005
 30
412.25
  0
POINT
  5
208
330
1F
100
AcDbEntity
  8
415_T
  6
Continuous
100
AcDbPoint
 10
517066.877
 20
4400354.929
 30
412.25
  0
POINT
  5
209
330
1F
100
AcDbEntity
  8
415_T
  6
Continuous
100
AcDbPoint
 10
517063.8
 20
4400352.79
 30
412.25
  0
POINT
  5
20A
330
1F
100
AcDbEntity
  8
415_T
  6
Continuous
100
AcDbPoint
 10
517063.078
 20
4400352.801
 30
412.25
  0
POINT
  5
20B
330
1F
100
AcDbEntity
  8
415_T
  6
Continuous
100
AcDbPoint
 10
517062.236
 20
4400351.227
 30
412.25
  0
POINT
  5
20C
330
1F
100
AcDbEntity
  8
415_T
  6
Continuous
100
AcDbPoint
 10
517058.915
 20
4400342.213
 30
411.7000122070312
  0
POINT
  5
20D
330
1F
100
AcDbEntity
  8
415_T
  6
Continuous
100
AcDbPoint
 10
517058.327
 20
4400340.18
 30
411.7000122070312
  0
POINT
  5
20E
330
1F
100
AcDbEntity
  8
415_T
  6
Continuous
100
AcDbPoint
 10
517058.026
 20
4400338.367
 30
411.7000122070312
  0
POINT
  5
20F
330
1F
100
AcDbEntity
  8
415_T
  6
Continuous
100
AcDbPoint
 10
517058.002
 20
4400335.455
 30
411.7000122070312
  0
POINT
  5
210
330
1F
100
AcDbEntity
  8
415_T
  6
Continuous
100
AcDbPoint
 10
517057.967
 20
4400319.644
 30
411.5
  0
POINT
  5
211
330
1F
100
AcDbEntity
  8
415_T
  6
Continuous
100
AcDbPoint
 10
517057.2519838823
 20
4400315.595791725
 30
411.5
  0
POINT
  5
212
330
1F
100
AcDbEntity
  8
415_T
  6
Continuous
100
AcDbPoint
 10
517056.557
 20
4400311.661
 30
411.5
  0
POINT
  5
213
330
1F
100
AcDbEntity
  8
415_T
  6
Continuous
100
AcDbPoint
 10
517055.894
 20
4400308.368
 30
411.5
  0
POINT
  5
214
330
1F
100
AcDbEntity
  8
415_T
  6
Continuous
100
AcDbPoint
 10
517055.079
 20
4400306.624
 30
411.5
  0
POINT
  5
215
330
1F
100
AcDbEntity
  8
415_T
  6
Continuous
100
AcDbPoint
 10
517054.362
 20
4400301.056
 30
411.0
  0
POINT
  5
216
330
1F
100
AcDbEntity
  8
415_T
  6
Continuous
100
AcDbPoint
 10
517054.675
 20
4400300.397
 30
411.0
  0
POINT
  5
217
330
1F
100
AcDbEntity
  8
415_T
  6
Continuous
100
AcDbPoint
 10
517055.086
 20
4400299.329
 30
411.0
  0
POINT
  5
218
330
1F
100
AcDbEntity
  8
415_T
  6
Continuous
100
AcDbPoint
 10
517056.53
 20
4400298.658
 30
411.0
  0
POINT
  5
219
330
1F
100
AcDbEntity
  8
415_T
  6
Continuous
100
AcDbPoint
 10
517058.234
 20
4400296.717
 30
411.0
  0
POINT
  5
21A
330
1F
100
AcDbEntity
  8
415_T
  6
Continuous
100
AcDbPoint
 10
517059.015
 20
4400294.899
 30
411.0
  0
POINT
  5
21B
330
1F
100
AcDbEntity
  8
415_T
  6
Continuous
100
AcDbPoint
 10
517057.71
 20
4400293.295
 30
411.0
  0
POINT
  5
21C
330
1F
100
AcDbEntity
  8
415_T
  6
Continuous
100
AcDbPoint
 10
517055.964
 20
4400295.015
 30
411.0
  0
POINT
  5
21D
330
1F
100
AcDbEntity
  8
415_T
  6
Continuous
100
AcDbPoint
 10
517053.826
 20
4400296.316
 30
411.0
  0
POINT
  5
21E
330
1F
100
AcDbEntity
  8
415_T
  6
Continuous
100
AcDbPoint
 10
517051.472
 20
4400292.66
 30
411.0
  0
POINT
  5
21F
330
1F
100
AcDbEntity
  8
415_T
  6
Continuous
100
AcDbPoint
 10
517045.541
 20
4400288.13
 30
410.75
  0
POINT
  5
220
330
1F
100
AcDbEntity
  8
415_T
  6
Continuous
100
AcDbPoint
 10
517043.183
 20
4400285.92
 30
410.75
  0
POINT
  5
221
330
1F
100
AcDbEntity
  8
415_T
  6
Continuous
100
AcDbPoint
 10
517039.781
 20
4400281.588
 30
410.75
  0
POINT
  5
222
330
1F
100
AcDbEntity
  8
415_T
  6
Continuous
100
AcDbPoint
 10
517038.479
 20
4400279.757
 30
410.75
  0
POINT
  5
223
330
1F
100
AcDbEntity
  8
415_T
  6
Continuous
100
AcDbPoint
 10
517035.769
 20
4400276.474
 30
410.75
  0
POINT
  5
224
330
1F
100
AcDbEntity
  8
415_T
  6
Continuous
100
AcDbPoint
 10
517034.107
 20
4400270.97
 30
410.5
  0
POINT
  5
225
330
1F
100
AcDbEntity
  8
415_T
  6
Continuous
100
AcDbPoint
 10
517033.413
 20
4400267.778
 30
410.5
  0
POINT
  5
226
330
1F
100
AcDbEntity
  8
415_T
  6
Continuous
100
AcDbPoint
 10
517033.089
 20
4400264.738
 30
410.5
  0
POINT
  5
227
330
1F
100
AcDbEntity
  8
415_T
  6
Continuous
100
AcDbPoint
 10
517032.992
 20
4400261.651
 30
410.5
  0
POINT
  5
228
330
1F
100
AcDbEntity
  8
415_T
  6
Continuous
100
AcDbPoint
 10
517032.829
 20
4400255.888
 30
410.3999938964844
  0
POINT
  5
229
330
1F
100
AcDbEntity
  8
415_T
  6
Continuous
100
AcDbPoint
 10
517032.422
 20
4400252.135
 30
410.3999938964844
  0
POINT
  5
22A
330
1F
100
AcDbEntity
  8
415_T
  6
Continuous
100
AcDbPoint
 10
517032.496
 20
4400251.388
 30
410.3999938964844
  0
POINT
  5
22B
330
1F
100
AcDbEntity
  8
415_T
  6
Continuous
100
AcDbPoint
 10
517028.0168586755
 20
4400251.947583837
 30
410.3999938964844
  0
POINT
  5
22C
330
1F
100
AcDbEntity
  8
415_T
  6
Continuous
100
AcDbPoint
 10
517028.5218842759
 20
4400254.170089495
 30
410.3999938964844
  0
POINT
  5
22D
330
1F
100
AcDbEntity
  8
415_T
  6
Continuous
100
AcDbPoint
 10
517028.9912017442
 20
4400257.441680146
 30
410.3999938964844
  0
POINT
  5
22E
330
1F
100
AcDbEntity
  8
415_T
  6
Continuous
100
AcDbPoint
 10
517029.4450092404
 20
4400267.534916169
 30
410.5
  0
POINT
  5
22F
330
1F
100
AcDbEntity
  8
415_T
  6
Continuous
100
AcDbPoint
 10
517029.8218795093
 20
4400269.372624579
 30
410.5
  0
POINT
  5
230
330
1F
100
AcDbEntity
  8
415_T
  6
Continuous
100
AcDbPoint
 10
517031.369230508
 20
4400274.833387163
 30
410.75
  0
POINT
  5
231
330
1F
100
AcDbEntity
  8
415_T
  6
Continuous
100
AcDbPoint
 10
517033.050766673
 20
4400278.696540811
 30
410.75
  0
POINT
  5
232
330
1F
100
AcDbEntity
  8
415_T
  6
Continuous
100
AcDbPoint
 10
517033.8585925996
 20
4400280.462906457
 30
410.75
  0
POINT
  5
233
330
1F
100
AcDbEntity
  8
415_T
  6
Continuous
100
AcDbPoint
 10
517036.7436807813
 20
4400283.720732224
 30
410.75
  0
POINT
  5
234
330
1F
100
AcDbEntity
  8
415_T
  6
Continuous
100
AcDbPoint
 10
517039.4496413117
 20
4400286.345962441
 30
410.75
  0
POINT
  5
235
330
1F
100
AcDbEntity
  8
415_T
  6
Continuous
100
AcDbPoint
 10
517044.9098255506
 20
4400291.916967753
 30
411.0
  0
POINT
  5
236
330
1F
100
AcDbEntity
  8
415_T
  6
Continuous
100
AcDbPoint
 10
517048.2561891078
 20
4400295.623612602
 30
411.0
  0
POINT
  5
237
330
1F
100
AcDbEntity
  8
415_T
  6
Continuous
100
AcDbPoint
 10
517049.5341891078
 20
4400297.775612602
 30
411.0
  0
POINT
  5
238
330
1F
100
AcDbEntity
  8
415_T
  6
Continuous
100
AcDbPoint
 10
517049.6767779446
 20
4400299.063188154
 30
411.0
  0
POINT
  5
239
330
1F
100
AcDbEntity
  8
415_T
  6
Continuous
100
AcDbPoint
 10
517050.1032381221
 20
4400300.742126003
 30
411.0
  0
POINT
  5
23A
330
1F
100
AcDbEntity
  8
415_T
  6
Continuous
100
AcDbPoint
 10
517051.4977742434
 20
4400306.535045034
 30
411.5
  0
POINT
  5
23B
330
1F
100
AcDbEntity
  8
415_T
  6
Continuous
100
AcDbPoint
 10
517052.1328083688
 20
4400308.40322304
 30
411.5
  0
POINT
  5
23C
330
1F
100
AcDbEntity
  8
415_T
  6
Continuous
100
AcDbPoint
 10
517052.4473075744
 20
4400310.431543866
 30
411.5
  0
POINT
  5
23D
330
1F
100
AcDbEntity
  8
415_T
  6
Continuous
100
AcDbPoint
 10
517053.6923250215
 20
4400316.049461512
 30
411.5
  0
POINT
  5
23E
330
1F
100
AcDbEntity
  8
415_T
  6
Continuous
100
AcDbPoint
 10
517054.3003250215
 20
4400327.848461512
 30
411.5
  0
POINT
  5
23F
330
1F
100
AcDbEntity
  8
415_T
  6
Continuous
100
AcDbPoint
 10
517055.1356140923
 20
4400340.898053216
 30
411.7000122070312
  0
POINT
  5
240
330
1F
100
AcDbEntity
  8
415_T
  6
Continuous
100
AcDbPoint
 10
517055.6154057006
 20
4400344.197885796
 30
411.7000122070312
  0
POINT
  5
241
330
1F
100
AcDbEntity
  8
415_T
  6
Continuous
100
AcDbPoint
 10
517056.9428897074
 20
4400347.085408662
 30
411.7000122070312
  0
POINT
  5
242
330
1F
100
AcDbEntity
  8
415_T
  6
Continuous
100
AcDbPoint
 10
517059.0608718224
 20
4400350.947156692
 30
412.25
  0
POINT
  5
243
330
1F
100
AcDbEntity
  8
415_T
  6
Continuous
100
AcDbPoint
 10
517059.3008718223
 20
4400354.864156692
 30
412.25
  0
POINT
  5
244
330
1F
100
AcDbEntity
  8
415_T
  6
Continuous
100
AcDbPoint
 10
517060.44951331
 20
4400362.289660742
 30
412.25
  0
POINT
  5
245
330
1F
100
AcDbEntity
  8
415_T
  6
Continuous
100
AcDbPoint
 10
517064.6472886481
 20
4400374.477008483
 30
412.5
  0
POINT
  5
246
330
1F
100
AcDbEntity
  8
415_T
  6
Continuous
100
AcDbPoint
 10
517067.1980620362
 20
4400383.466615905
 30
412.8999938964844
  0
POINT
  5
247
330
1F
100
AcDbEntity
  8
415_T
  6
Continuous
100
AcDbPoint
 10
517068.9440649491
 20
4400389.370052375
 30
412.8999938964844
  0
POINT
  5
248
330
1F
100
AcDbEntity
  8
415_T
  6
Continuous
100
AcDbPoint
 10
517070.3323180605
 20
4400396.114122888
 30
412.8999938964844
  0
POINT
  5
249
330
1F
100
AcDbEntity
  8
415_T
  6
Continuous
100
AcDbPoint
 10
517071.0023345397
 20
4400403.388587519
 30
413.2000122070312
  0
POINT
  5
24A
330
1F
100
AcDbEntity
  8
415_T
  6
Continuous
100
AcDbPoint
 10
517073.0957484443
 20
4400416.373167728
 30
413.2000122070312
  0
POINT
  5
24B
330
1F
100
AcDbEntity
  8
415_T
  6
Continuous
100
AcDbPoint
 10
517073.6423264613
 20
4400420.885878002
 30
413.2000122070312
  0
POINT
  5
24C
330
1F
100
AcDbEntity
  8
415_T
  6
Continuous
100
AcDbPoint
 10
517074.8668472724
 20
4400424.378246426
 30
413.2000122070312
  0
POINT
  5
24D
330
1F
100
AcDbEntity
  8
415_T
  6
Continuous
100
AcDbPoint
 10
517075.6893187361
 20
4400430.150286304
 30
413.2000122070312
  0
POINT
  5
24E
330
1F
100
AcDbEntity
  8
415_T
  6
Continuous
100
AcDbPoint
 10
517078.0084830655
 20
4400447.633525116
 30
413.7000122070312
  0
POINT
  5
24F
330
1F
100
AcDbEntity
  8
415_T
  6
Continuous
100
AcDbPoint
 10
517079.786738111
 20
4400462.646295933
 30
413.7000122070312
  0
POINT
  5
250
330
1F
100
AcDbEntity
  8
415_T
  6
Continuous
100
AcDbPoint
 10
517079.7474828622
 20
4400471.275682512
 30
413.8999938964844
  0
POINT
  5
251
330
1F
100
AcDbEntity
  8
415_T
  6
Continuous
100
AcDbPoint
 10
517078.083
 20
4400473.394
 30
413.8999938964844
  0
POINT
  5
252
330
1F
100
AcDbEntity
  8
415_T
  6
Continuous
100
AcDbPoint
 10
517076.227
 20
4400474.421
 30
413.8999938964844
  0
POINT
  5
253
330
1F
100
AcDbEntity
  8
415_T
  6
Continuous
100
AcDbPoint
 10
517072.558
 20
4400477.269
 30
413.8999938964844
  0
POINT
  5
254
330
1F
100
AcDbEntity
  8
415_T
  6
Continuous
100
AcDbPoint
 10
517070.081
 20
4400478.124
 30
413.8999938964844
  0
POINT
  5
255
330
1F
100
AcDbEntity
  8
415_T
  6
Continuous
100
AcDbPoint
 10
517066.257
 20
4400478.66
 30
413.8999938964844
  0
POINT
  5
256
330
1F
100
AcDbEntity
  8
415_T
  6
Continuous
100
AcDbPoint
 10
517064.6382762819
 20
4400479.356189463
 30
413.8999938964844
  0
POINT
  5
257
330
1F
100
AcDbEntity
  8
415_T
  6
Continuous
100
AcDbPoint
 10
517059.935
 20
4400481.379
 30
414.2000122070312
  0
POINT
  5
258
330
1F
100
AcDbEntity
  8
415_T
  6
Continuous
100
AcDbPoint
 10
517059.391
 20
4400481.509
 30
414.2000122070312
  0
POINT
  5
259
330
1F
100
AcDbEntity
  8
415_T
  6
Continuous
100
AcDbPoint
 10
517054.367
 20
4400482.242
 30
414.2000122070312
  0
POINT
  5
25A
330
1F
100
AcDbEntity
  8
415_T
  6
Continuous
100
AcDbPoint
 10
517049.064
 20
4400482.663
 30
414.2000122070312
  0
POINT
  5
25B
330
1F
100
AcDbEntity
  8
415_T
  6
Continuous
100
AcDbPoint
 10
517041.339
 20
4400484.818
 30
414.5
  0
POINT
  5
25C
330
1F
100
AcDbEntity
  8
415_T
  6
Continuous
100
AcDbPoint
 10
517039.545
 20
4400486.746
 30
414.5
  0
POINT
  5
25D
330
1F
100
AcDbEntity
  8
415_T
  6
Continuous
100
AcDbPoint
 10
517035.718
 20
4400489.012
 30
414.5
  0
POINT
  5
25E
330
1F
100
AcDbEntity
  8
415_T
  6
Continuous
100
AcDbPoint
 10
517033.091
 20
4400490.648
 30
414.5
  0
POINT
  5
25F
330
1F
100
AcDbEntity
  8
415_T
  6
Continuous
100
AcDbPoint
 10
517031.18
 20
4400490.658
 30
414.5
  0
POINT
  5
260
330
1F
100
AcDbEntity
  8
415_T
  6
Continuous
100
AcDbPoint
 10
517030.251
 20
4400490.606
 30
414.5
  0
POINT
  5
261
330
1F
100
AcDbEntity
  8
415_T
  6
Continuous
100
AcDbPoint
 10
517028.833
 20
4400490.756
 30
414.5
  0
POINT
  5
262
330
1F
100
AcDbEntity
  8
415_T
  6
Continuous
100
AcDbPoint
 10
517024.076
 20
4400490.426
 30
414.5
  0
POINT
  5
263
330
1F
100
AcDbEntity
  8
415_T
  6
Continuous
100
AcDbPoint
 10
517016.616
 20
4400489.985
 30
414.6000061035156
  0
POINT
  5
264
330
1F
100
AcDbEntity
  8
415_T
  6
Continuous
100
AcDbPoint
 10
517008.891
 20
4400489.922
 30
414.6000061035156
  0
POINT
  5
265
330
1F
100
AcDbEntity
  8
415_T
  6
Continuous
100
AcDbPoint
 10
517005.676
 20
4400489.617
 30
414.6000061035156
  0
POINT
  5
266
330
1F
100
AcDbEntity
  8
415_T
  6
Continuous
100
AcDbPoint
 10
517000.161
 20
4400488.423
 30
414.6000061035156
  0
POINT
  5
267
330
1F
100
AcDbEntity
  8
415_T
  6
Continuous
100
AcDbPoint
 10
516990.386
 20
4400486.858
 30
414.6000061035156
  0
POINT
  5
268
330
1F
100
AcDbEntity
  8
415_T
  6
Continuous
100
AcDbPoint
 10
516985.57125
 20
4400486.052
 30
414.6000061035156
  0
POINT
  5
269
330
1F
100
AcDbEntity
  8
415_T
  6
Continuous
100
AcDbPoint
 10
516982.599
 20
4400486.131
 30
414.6000061035156
  0
POINT
  5
26A
330
1F
100
AcDbEntity
  8
415_T
  6
Continuous
100
AcDbPoint
 10
516977.669
 20
4400486.673
 30
414.6000061035156
  0
POINT
  5
26B
330
1F
100
AcDbEntity
  8
415_T
  6
Continuous
100
AcDbPoint
 10
516972.299
 20
4400487.548
 30
414.6000061035156
  0
POINT
  5
26C
330
1F
100
AcDbEntity
  8
415_T
  6
Continuous
100
AcDbPoint
 10
516971.767
 20
4400488.18
 30
414.6000061035156
  0
POINT
  5
26D
330
1F
100
AcDbEntity
  8
415_T
  6
Continuous
100
AcDbPoint
 10
516955.051
 20
4400489.113
 30
414.75
  0
POINT
  5
26E
330
1F
100
AcDbEntity
  8
415_T
  6
Continuous
100
AcDbPoint
 10
516952.721
 20
4400489.421
 30
414.75
  0
POINT
  5
26F
330
1F
100
AcDbEntity
  8
415_T
  6
Continuous
100
AcDbPoint
 10
516951.351
 20
4400489.182
 30
414.75
  0
POINT
  5
270
330
1F
100
AcDbEntity
  8
415_T
  6
Continuous
100
AcDbPoint
 10
516944.923
 20
4400489.138
 30
414.75
  0
POINT
  5
271
330
1F
100
AcDbEntity
  8
415_T
  6
Continuous
100
AcDbPoint
 10
516939.851
 20
4400490.008
 30
414.75
  0
POINT
  5
272
330
1F
100
AcDbEntity
  8
415_T
  6
Continuous
100
AcDbPoint
 10
516937.312
 20
4400490.567
 30
414.75
  0
POINT
  5
273
330
1F
100
AcDbEntity
  8
415_T
  6
Continuous
100
AcDbPoint
 10
516934.043
 20
4400491.315
 30
414.8999938964844
  0
POINT
  5
274
330
1F
100
AcDbEntity
  8
415_T
  6
Continuous
100
AcDbPoint
 10
516930.395
 20
4400492.038
 30
414.8999938964844
  0
POINT
  5
275
330
1F
100
AcDbEntity
  8
415_T
  6
Continuous
100
AcDbPoint
 10
516923.682
 20
4400492.949
 30
414.8999938964844
  0
POINT
  5
276
330
1F
100
AcDbEntity
  8
415_T
  6
Continuous
100
AcDbPoint
 10
516915.656
 20
4400490.911
 30
414.8999938964844
  0
POINT
  5
277
330
1F
100
AcDbEntity
  8
415_T
  6
Continuous
100
AcDbPoint
 10
516913.73
 20
4400490.219
 30
414.8999938964844
  0
POINT
  5
278
330
1F
100
AcDbEntity
  8
415_T
  6
Continuous
100
AcDbPoint
 10
516912.035
 20
4400490.788
 30
414.8999938964844
  0
POINT
  5
279
330
1F
100
AcDbEntity
  8
415_T
  6
Continuous
100
AcDbPoint
 10
516902.422
 20
4400491.322
 30
414.8999938964844
  0
POINT
  5
27A
330
1F
100
AcDbEntity
  8
415_T
  6
Continuous
100
AcDbPoint
 10
516899.304
 20
4400490.701
 30
414.8999938964844
  0
POINT
  5
27B
330
1F
100
AcDbEntity
  8
415_T
  6
Continuous
100
AcDbPoint
 10
516894.117
 20
4400489.724
 30
414.8999938964844
  0
POINT
  5
27C
330
1F
100
AcDbEntity
  8
415_T
  6
Continuous
100
AcDbPoint
 10
516887.165
 20
4400488.312
 30
415.3999938964844
  0
POINT
  5
27D
330
1F
100
AcDbEntity
  8
415_T
  6
Continuous
100
AcDbPoint
 10
516883.623
 20
4400487.634
 30
415.3999938964844
  0
POINT
  5
27E
330
1F
100
AcDbEntity
  8
415_T
  6
Continuous
100
AcDbPoint
 10
516875.087
 20
4400487.665
 30
415.3999938964844
  0
POINT
  5
27F
330
1F
100
AcDbEntity
  8
415_T
  6
Continuous
100
AcDbPoint
 10
516869.405
 20
4400487.58
 30
415.3999938964844
  0
POINT
  5
280
330
1F
100
AcDbEntity
  8
415_T
  6
Continuous
100
AcDbPoint
 10
516866.383
 20
4400487.452
 30
415.3999938964844
  0
POINT
  5
281
330
1F
100
AcDbEntity
  8
415_T
  6
Continuous
100
AcDbPoint
 10
516862.019
 20
4400486.769
 30
415.3999938964844
  0
POINT
  5
282
330
1F
100
AcDbEntity
  8
415_T
  6
Continuous
100
AcDbPoint
 10
516857.81
 20
4400486.593
 30
415.3999938964844
  0
POINT
  5
283
330
1F
100
AcDbEntity
  8
415_T
  6
Continuous
100
AcDbPoint
 10
516853.806
 20
4400486.575
 30
415.3999938964844
  0
POINT
  5
284
330
1F
100
AcDbEntity
  8
415_T
  6
Continuous
100
AcDbPoint
 10
516850.954
 20
4400486.68
 30
415.3999938964844
  0
POINT
  5
285
330
1F
100
AcDbEntity
  8
415_T
  6
Continuous
100
AcDbPoint
 10
516842.729
 20
4400486.529
 30
415.6000061035156
  0
POINT
  5
286
330
1F
100
AcDbEntity
  8
415_T
  6
Continuous
100
AcDbPoint
 10
516840.409
 20
4400486.34
 30
415.6000061035156
  0
POINT
  5
287
330
1F
100
AcDbEntity
  8
415_T
  6
Continuous
100
AcDbPoint
 10
516837.512
 20
4400486.405
 30
415.6000061035156
  0
POINT
  5
288
330
1F
100
AcDbEntity
  8
415_T
  6
Continuous
100
AcDbPoint
 10
516827.115
 20
4400487.481
 30
415.6000061035156
  0
POINT
  5
289
330
1F
100
AcDbEntity
  8
415_T
  6
Continuous
100
AcDbPoint
 10
516826.319
 20
4400487.972
 30
415.6000061035156
  0
POINT
  5
28A
330
1F
100
AcDbEntity
  8
415_T
  6
Continuous
100
AcDbPoint
 10
516823.092
 20
4400488.944
 30
415.6000061035156
  0
POINT
  5
28B
330
1F
100
AcDbEntity
  8
415_T
  6
Continuous
100
AcDbPoint
 10
516820.081
 20
4400490.751
 30
415.6000061035156
  0
POINT
  5
28C
330
1F
100
AcDbEntity
  8
415_T
  6
Continuous
100
AcDbPoint
 10
516810.502
 20
4400492.899
 30
415.7000122070312
  0
POINT
  5
28D
330
1F
100
AcDbEntity
  8
415_T
  6
Continuous
100
AcDbPoint
 10
516808.676
 20
4400493.525
 30
415.7000122070312
  0
POINT
  5
28E
330
1F
100
AcDbEntity
  8
415_T
  6
Continuous
100
AcDbPoint
 10
516805.363
 20
4400493.91
 30
415.7000122070312
  0
POINT
  5
28F
330
1F
100
AcDbEntity
  8
415_T
  6
Continuous
100
AcDbPoint
 10
516799.915
 20
4400492.024
 30
415.7000122070312
  0
POINT
  5
290
330
1F
100
AcDbEntity
  8
415_T
  6
Continuous
100
AcDbPoint
 10
516798.499
 20
4400491.65
 30
415.7000122070312
  0
POINT
  5
291
330
1F
100
AcDbEntity
  8
415_T
  6
Continuous
100
AcDbPoint
 10
516795.038
 20
4400489.868
 30
415.7000122070312
  0
POINT
  5
292
330
1F
100
AcDbEntity
  8
415_T
  6
Continuous
100
AcDbPoint
 10
516789.485
 20
4400485.837
 30
416.0
  0
POINT
  5
293
330
1F
100
AcDbEntity
  8
415_T
  6
Continuous
100
AcDbPoint
 10
516785.338
 20
4400483.446
 30
416.0
  0
POINT
  5
294
330
1F
100
AcDbEntity
  8
415_T
  6
Continuous
100
AcDbPoint
 10
516781.76
 20
4400481.065
 30
416.0
  0
POINT
  5
295
330
1F
100
AcDbEntity
  8
415_T
  6
Continuous
100
AcDbPoint
 10
516781.204
 20
4400480.488
 30
416.0
  0
POINT
  5
296
330
1F
100
AcDbEntity
  8
415_T
  6
Continuous
100
AcDbPoint
 10
516776.998
 20
4400478.938
 30
416.0
  0
LINE
  5
297
330
1F
100
AcDbEntity
  8
415_T
370
     0
100
AcDbLine
 10
516770.944
 20
4400477.256
 30
416.0
 11
516769.287
 21
4400480.9975
 31
416.0
  0
LINE
  5
298
330
1F
100
AcDbEntity
  8
415_T
370
     0
100
AcDbLine
 10
516769.287
 20
4400480.9975
 30
416.0
 11
516771.3693
 21
4400481.0015
 31
416.0
  0
LINE
  5
299
330
1F
100
AcDbEntity
  8
415_T
370
     0
100
AcDbLine
 10
516771.3693
 20
4400481.0015
 30
416.0
 11
516775.5883
 21
4400482.0175
 31
416.0
  0
LINE
  5
29A
330
1F
100
AcDbEntity
  8
415_T
370
     0
100
AcDbLine
 10
516775.5883
 20
4400482.0175
 30
416.0
 11
516777.9327864317
 21
4400482.583481384
 31
416.0
  0
LINE
  5
29B
330
1F
100
AcDbEntity
  8
415_T
370
     0
100
AcDbLine
 10
516777.9327864317
 20
4400482.583481384
 30
416.0
 11
516781.028
 21
4400484.34
 31
416.0
  0
LINE
  5
29C
330
1F
100
AcDbEntity
  8
415_T
370
     0
100
AcDbLine
 10
516781.028
 20
4400484.34
 30
416.0
 11
516781.823
 21
4400484.91
 31
416.0
  0
LINE
  5
29D
330
1F
100
AcDbEntity
  8
415_T
370
     0
100
AcDbLine
 10
516781.823
 20
4400484.91
 30
416.0
 11
516782.145
 21
4400486.653
 31
416.0
  0
LINE
  5
29E
330
1F
100
AcDbEntity
  8
415_T
370
     0
100
AcDbLine
 10
516782.145
 20
4400486.653
 30
416.0
 11
516784.218
 21
4400489.913
 31
416.0
  0
LINE
  5
29F
330
1F
100
AcDbEntity
  8
415_T
370
     0
100
AcDbLine
 10
516784.218
 20
4400489.913
 30
416.0
 11
516786.193
 21
4400489.173
 31
416.0
  0
LINE
  5
2A0
330
1F
100
AcDbEntity
  8
415_T
370
     0
100
AcDbLine
 10
516786.193
 20
4400489.173
 30
416.0
 11
516788.462
 21
4400489.836
 31
416.0
  0
LINE
  5
2A1
330
1F
100
AcDbEntity
  8
415_T
370
     0
100
AcDbLine
 10
516788.462
 20
4400489.836
 30
416.0
 11
516789.61
 21
4400490.061
 31
416.0
  0
LINE
  5
2A2
330
1F
100
AcDbEntity
  8
415_T
370
     0
100
AcDbLine
 10
516789.61
 20
4400490.061
 30
416.0
 11
516797.146
 21
4400494.502
 31
415.7000122070312
  0
LINE
  5
2A3
330
1F
100
AcDbEntity
  8
415_T
370
     0
100
AcDbLine
 10
516797.146
 20
4400494.502
 30
415.7000122070312
 11
516804.498
 21
4400497.148
 31
415.7000122070312
  0
LINE
  5
2A4
330
1F
100
AcDbEntity
  8
415_T
370
     0
100
AcDbLine
 10
516804.498
 20
4400497.148
 30
415.7000122070312
 11
516808.154
 21
4400497.057
 31
415.7000122070312
  0
LINE
  5
2A5
330
1F
100
AcDbEntity
  8
415_T
370
     0
100
AcDbLine
 10
516808.154
 20
4400497.057
 30
415.7000122070312
 11
516809.129
 21
4400496.634
 31
415.7000122070312
  0
LINE
  5
2A6
330
1F
100
AcDbEntity
  8
415_T
370
     0
100
AcDbLine
 10
516809.129
 20
4400496.634
 30
415.7000122070312
 11
516814.639
 21
4400495.101
 31
415.7000122070312
  0
LINE
  5
2A7
330
1F
100
AcDbEntity
  8
415_T
370
     0
100
AcDbLine
 10
516814.639
 20
4400495.101
 30
415.7000122070312
 11
516820.507
 21
4400493.702
 31
415.6000061035156
  0
LINE
  5
2A8
330
1F
100
AcDbEntity
  8
415_T
370
     0
100
AcDbLine
 10
516820.507
 20
4400493.702
 30
415.6000061035156
 11
516823.585
 21
4400492.08
 31
415.6000061035156
  0
LINE
  5
2A9
330
1F
100
AcDbEntity
  8
415_T
370
     0
100
AcDbLine
 10
516823.585
 20
4400492.08
 30
415.6000061035156
 11
516824.176
 21
4400492.237
 31
415.6000061035156
  0
LINE
  5
2AA
330
1F
100
AcDbEntity
  8
415_T
370
     0
100
AcDbLine
 10
516824.176
 20
4400492.237
 30
415.6000061035156
 11
516827.578
 21
4400491.011
 31
415.6000061035156
  0
LINE
  5
2AB
330
1F
100
AcDbEntity
  8
415_T
370
     0
100
AcDbLine
 10
516827.578
 20
4400491.011
 30
415.6000061035156
 11
516829.861
 21
4400490.869
 31
415.6000061035156
  0
LINE
  5
2AC
330
1F
100
AcDbEntity
  8
415_T
370
     0
100
AcDbLine
 10
516829.861
 20
4400490.869
 30
415.6000061035156
 11
516834.561
 21
4400490.811
 31
415.6000061035156
  0
LINE
  5
2AD
330
1F
100
AcDbEntity
  8
415_T
370
     0
100
AcDbLine
 10
516834.561
 20
4400490.811
 30
415.6000061035156
 11
516836.3190595651
 21
4400490.630974701
 31
415.6000061035156
  0
LINE
  5
2AE
330
1F
100
AcDbEntity
  8
415_T
370
     0
100
AcDbLine
 10
516836.3190595651
 20
4400490.630974701
 30
415.6000061035156
 11
516841.602
 21
4400489.775
 31
415.6000061035156
  0
LINE
  5
2AF
330
1F
100
AcDbEntity
  8
415_T
370
     0
100
AcDbLine
 10
516841.602
 20
4400489.775
 30
415.6000061035156
 11
516844.013
 21
4400489.811
 31
415.6000061035156
  0
LINE
  5
2B0
330
1F
100
AcDbEntity
  8
415_T
370
     0
100
AcDbLine
 10
516844.013
 20
4400489.811
 30
415.6000061035156
 11
516845.199
 21
4400489.81
 31
415.6000061035156
  0
LINE
  5
2B1
330
1F
100
AcDbEntity
  8
415_T
370
     0
100
AcDbLine
 10
516845.199
 20
4400489.81
 30
415.6000061035156
 11
516853.851
 21
4400489.575
 31
415.3999938964844
  0
LINE
  5
2B2
330
1F
100
AcDbEntity
  8
415_T
370
     0
100
AcDbLine
 10
516853.851
 20
4400489.575
 30
415.3999938964844
 11
516858.118
 21
4400489.597
 31
415.3999938964844
  0
LINE
  5
2B3
330
1F
100
AcDbEntity
  8
415_T
370
     0
100
AcDbLine
 10
516858.118
 20
4400489.597
 30
415.3999938964844
 11
516863.606
 21
4400490.473
 31
415.3999938964844
  0
LINE
  5
2B4
330
1F
100
AcDbEntity
  8
415_T
370
     0
100
AcDbLine
 10
516863.606
 20
4400490.473
 30
415.3999938964844
 11
516871.356
 21
4400490.505
 31
415.3999938964844
  0
LINE
  5
2B5
330
1F
100
AcDbEntity
  8
415_T
370
     0
100
AcDbLine
 10
516871.356
 20
4400490.505
 30
415.3999938964844
 11
516875.456
 21
4400490.869
 31
415.3999938964844
  0
LINE
  5
2B6
330
1F
100
AcDbEntity
  8
415_T
370
     0
100
AcDbLine
 10
516875.456
 20
4400490.869
 30
415.3999938964844
 11
516883.782
 21
4400491.195
 31
415.3999938964844
  0
LINE
  5
2B7
330
1F
100
AcDbEntity
  8
415_T
370
     0
100
AcDbLine
 10
516883.782
 20
4400491.195
 30
415.3999938964844
 11
516888.639
 21
4400491.707
 31
415.3999938964844
  0
LINE
  5
2B8
330
1F
100
AcDbEntity
  8
415_T
370
     0
100
AcDbLine
 10
516888.639
 20
4400491.707
 30
415.3999938964844
 11
516894.652
 21
4400492.81
 31
414.8999938964844
  0
LINE
  5
2B9
330
1F
100
AcDbEntity
  8
415_T
370
     0
100
AcDbLine
 10
516894.652
 20
4400492.81
 30
414.8999938964844
 11
516895.068
 21
4400494.459
 31
414.8999938964844
  0
LINE
  5
2BA
330
1F
100
AcDbEntity
  8
415_T
370
     0
100
AcDbLine
 10
516895.068
 20
4400494.459
 30
414.8999938964844
 11
516895.528
 21
4400495.669
 31
414.8999938964844
  0
LINE
  5
2BB
330
1F
100
AcDbEntity
  8
415_T
370
     0
100
AcDbLine
 10
516895.528
 20
4400495.669
 30
414.8999938964844
 11
516895.632
 21
4400496.462
 31
414.8999938964844
  0
LINE
  5
2BC
330
1F
100
AcDbEntity
  8
415_T
370
     0
100
AcDbLine
 10
516895.632
 20
4400496.462
 30
414.8999938964844
 11
516897.6063068606
 21
4400496.577210424
 31
414.8999938964844
  0
LINE
  5
2BD
330
1F
100
AcDbEntity
  8
415_T
370
     0
100
AcDbLine
 10
516897.6063068606
 20
4400496.577210424
 30
414.8999938964844
 11
516898.715
 21
4400495.059
 31
414.8999938964844
  0
LINE
  5
2BE
330
1F
100
AcDbEntity
  8
415_T
370
     0
100
AcDbLine
 10
516898.715
 20
4400495.059
 30
414.8999938964844
 11
516900.185
 21
4400494.478
 31
414.8999938964844
  0
LINE
  5
2BF
330
1F
100
AcDbEntity
  8
415_T
370
     0
100
AcDbLine
 10
516900.185
 20
4400494.478
 30
414.8999938964844
 11
516902.636
 21
4400494.48
 31
414.8999938964844
  0
LINE
  5
2C0
330
1F
100
AcDbEntity
  8
415_T
370
     0
100
AcDbLine
 10
516902.636
 20
4400494.48
 30
414.8999938964844
 11
516904.135
 21
4400494.325
 31
414.8999938964844
  0
LINE
  5
2C1
330
1F
100
AcDbEntity
  8
415_T
370
     0
100
AcDbLine
 10
516904.135
 20
4400494.325
 30
414.8999938964844
 11
516907.014
 21
4400494.472
 31
414.8999938964844
  0
LINE
  5
2C2
330
1F
100
AcDbEntity
  8
415_T
370
     0
100
AcDbLine
 10
516907.014
 20
4400494.472
 30
414.8999938964844
 11
516909.43
 21
4400494.895
 31
414.8999938964844
  0
LINE
  5
2C3
330
1F
100
AcDbEntity
  8
415_T
370
     0
100
AcDbLine
 10
516909.43
 20
4400494.895
 30
414.8999938964844
 11
516910.571
 21
4400495.652
 31
414.8999938964844
  0
LINE
  5
2C4
330
1F
100
AcDbEntity
  8
415_T
370
     0
100
AcDbLine
 10
516910.571
 20
4400495.652
 30
414.8999938964844
 11
516911.992
 21
4400495.736
 31
414.8999938964844
  0
LINE
  5
2C5
330
1F
100
AcDbEntity
  8
415_T
370
     0
100
AcDbLine
 10
516911.992
 20
4400495.736
 30
414.8999938964844
 11
516914.9675
 21
4400494.612
 31
414.8999938964844
  0
LINE
  5
2C6
330
1F
100
AcDbEntity
  8
415_T
370
     0
100
AcDbLine
 10
516914.9675
 20
4400494.612
 30
414.8999938964844
 11
516916.534
 21
4400494.336
 31
414.8999938964844
  0
LINE
  5
2C7
330
1F
100
AcDbEntity
  8
415_T
370
     0
100
AcDbLine
 10
516916.534
 20
4400494.336
 30
414.8999938964844
 11
516920.345
 21
4400495.888
 31
414.8999938964844
  0
LINE
  5
2C8
330
1F
100
AcDbEntity
  8
415_T
370
     0
100
AcDbLine
 10
516920.345
 20
4400495.888
 30
414.8999938964844
 11
516922.308
 21
4400496.555
 31
414.8999938964844
  0
LINE
  5
2C9
330
1F
100
AcDbEntity
  8
415_T
370
     0
100
AcDbLine
 10
516922.308
 20
4400496.555
 30
414.8999938964844
 11
516926.855
 21
4400495.7235
 31
414.8999938964844
  0
LINE
  5
2CA
330
1F
100
AcDbEntity
  8
415_T
370
     0
100
AcDbLine
 10
516926.855
 20
4400495.7235
 30
414.8999938964844
 11
516928.892
 21
4400495.655
 31
414.8999938964844
  0
LINE
  5
2CB
330
1F
100
AcDbEntity
  8
415_T
370
     0
100
AcDbLine
 10
516928.892
 20
4400495.655
 30
414.8999938964844
 11
516932.568
 21
4400494.443
 31
414.8999938964844
  0
LINE
  5
2CC
330
1F
100
AcDbEntity
  8
415_T
370
     0
100
AcDbLine
 10
516932.568
 20
4400494.443
 30
414.8999938964844
 11
516935.512
 21
4400494.078
 31
414.8999938964844
  0
LINE
  5
2CD
330
1F
100
AcDbEntity
  8
415_T
370
     0
100
AcDbLine
 10
516935.512
 20
4400494.078
 30
414.8999938964844
 11
516942.205
 21
4400493.074
 31
414.75
  0
LINE
  5
2CE
330
1F
100
AcDbEntity
  8
415_T
370
     0
100
AcDbLine
 10
516942.205
 20
4400493.074
 30
414.75
 11
516948.297
 21
4400492.706
 31
414.75
  0
LINE
  5
2CF
330
1F
100
AcDbEntity
  8
415_T
370
     0
100
AcDbLine
 10
516948.297
 20
4400492.706
 30
414.75
 11
516949.612
 21
4400492.342
 31
414.75
  0
LINE
  5
2D0
330
1F
100
AcDbEntity
  8
415_T
370
     0
100
AcDbLine
 10
516949.612
 20
4400492.342
 30
414.75
 11
516952.64
 21
4400492.889
 31
414.75
  0
LINE
  5
2D1
330
1F
100
AcDbEntity
  8
415_T
370
     0
100
AcDbLine
 10
516952.64
 20
4400492.889
 30
414.75
 11
516955.995
 21
4400492.485
 31
414.75
  0
LINE
  5
2D2
330
1F
100
AcDbEntity
  8
415_T
370
     0
100
AcDbLine
 10
516955.995
 20
4400492.485
 30
414.75
 11
516958.803
 21
4400491.985
 31
414.75
  0
LINE
  5
2D3
330
1F
100
AcDbEntity
  8
415_T
370
     0
100
AcDbLine
 10
516958.803
 20
4400491.985
 30
414.75
 11
516962.404
 21
4400491.675
 31
414.75
  0
LINE
  5
2D4
330
1F
100
AcDbEntity
  8
415_T
370
     0
100
AcDbLine
 10
516962.404
 20
4400491.675
 30
414.75
 11
516973.313
 21
4400490.63
 31
414.6000061035156
  0
LINE
  5
2D5
330
1F
100
AcDbEntity
  8
415_T
370
     0
100
AcDbLine
 10
516973.313
 20
4400490.63
 30
414.6000061035156
 11
516976.735
 21
4400491.051
 31
414.6000061035156
  0
LINE
  5
2D6
330
1F
100
AcDbEntity
  8
415_T
370
     0
100
AcDbLine
 10
516976.735
 20
4400491.051
 30
414.6000061035156
 11
516978.934
 21
4400491.396
 31
414.6000061035156
  0
LINE
  5
2D7
330
1F
100
AcDbEntity
  8
415_T
370
     0
100
AcDbLine
 10
516978.934
 20
4400491.396
 30
414.6000061035156
 11
516985.586
 21
4400489.955
 31
414.6000061035156
  0
LINE
  5
2D8
330
1F
100
AcDbEntity
  8
415_T
370
     0
100
AcDbLine
 10
516985.586
 20
4400489.955
 30
414.6000061035156
 11
516986.571
 21
4400489.494
 31
414.6000061035156
  0
LINE
  5
2D9
330
1F
100
AcDbEntity
  8
415_T
370
     0
100
AcDbLine
 10
516986.571
 20
4400489.494
 30
414.6000061035156
 11
516990.651
 21
4400490.287
 31
414.6000061035156
  0
LINE
  5
2DA
330
1F
100
AcDbEntity
  8
415_T
370
     0
100
AcDbLine
 10
516990.651
 20
4400490.287
 30
414.6000061035156
 11
516995.104
 21
4400490.326
 31
414.6000061035156
  0
LINE
  5
2DB
330
1F
100
AcDbEntity
  8
415_T
370
     0
100
AcDbLine
 10
516995.104
 20
4400490.326
 30
414.6000061035156
 11
517001.186
 21
4400491.631
 31
414.6000061035156
  0
LINE
  5
2DC
330
1F
100
AcDbEntity
  8
415_T
370
     0
100
AcDbLine
 10
517001.186
 20
4400491.631
 30
414.6000061035156
 11
517005.475
 21
4400491.876
 31
414.6000061035156
  0
LINE
  5
2DD
330
1F
100
AcDbEntity
  8
415_T
370
     0
100
AcDbLine
 10
517005.475
 20
4400491.876
 30
414.6000061035156
 11
517013.522
 21
4400493.002
 31
414.6000061035156
  0
LINE
  5
2DE
330
1F
100
AcDbEntity
  8
415_T
370
     0
100
AcDbLine
 10
517013.522
 20
4400493.002
 30
414.6000061035156
 11
517016.341
 21
4400492.899
 31
414.6000061035156
  0
LINE
  5
2DF
330
1F
100
AcDbEntity
  8
415_T
370
     0
100
AcDbLine
 10
517016.341
 20
4400492.899
 30
414.6000061035156
 11
517022.537
 21
4400493.239
 31
414.5
  0
LINE
  5
2E0
330
1F
100
AcDbEntity
  8
415_T
370
     0
100
AcDbLine
 10
517022.537
 20
4400493.239
 30
414.5
 11
517028.101
 21
4400493.433
 31
414.5
  0
LINE
  5
2E1
330
1F
100
AcDbEntity
  8
415_T
370
     0
100
AcDbLine
 10
517028.101
 20
4400493.433
 30
414.5
 11
517029.377
 21
4400493.865
 31
414.5
  0
LINE
  5
2E2
330
1F
100
AcDbEntity
  8
415_T
370
     0
100
AcDbLine
 10
517029.377
 20
4400493.865
 30
414.5
 11
517029.874
 21
4400495.011
 31
414.5
  0
LINE
  5
2E3
330
1F
100
AcDbEntity
  8
415_T
370
     0
100
AcDbLine
 10
517029.874
 20
4400495.011
 30
414.5
 11
517032.458
 21
4400495.737
 31
414.5
  0
LINE
  5
2E4
330
1F
100
AcDbEntity
  8
415_T
370
     0
100
AcDbLine
 10
517032.458
 20
4400495.737
 30
414.5
 11
517033.182
 21
4400495.134
 31
414.5
  0
LINE
  5
2E5
330
1F
100
AcDbEntity
  8
415_T
370
     0
100
AcDbLine
 10
517033.182
 20
4400495.134
 30
414.5
 11
517035.352
 21
4400492.966
 31
414.5
  0
LINE
  5
2E6
330
1F
100
AcDbEntity
  8
415_T
370
     0
100
AcDbLine
 10
517035.352
 20
4400492.966
 30
414.5
 11
517037.779
 21
4400490.807
 31
414.5
  0
LINE
  5
2E7
330
1F
100
AcDbEntity
  8
415_T
370
     0
100
AcDbLine
 10
517037.779
 20
4400490.807
 30
414.5
 11
517043.017
 21
4400487.38
 31
414.5
  0
LINE
  5
2E8
330
1F
100
AcDbEntity
  8
415_T
370
     0
100
AcDbLine
 10
517043.017
 20
4400487.38
 30
414.5
 11
517048.423
 21
4400486.845
 31
414.2000122070312
  0
LINE
  5
2E9
330
1F
100
AcDbEntity
  8
415_T
370
     0
100
AcDbLine
 10
517048.423
 20
4400486.845
 30
414.2000122070312
 11
517053.821
 21
4400485.684
 31
414.2000122070312
  0
LINE
  5
2EA
330
1F
100
AcDbEntity
  8
415_T
370
     0
100
AcDbLine
 10
517053.821
 20
4400485.684
 30
414.2000122070312
 11
517057.755
 21
4400484.999
 31
414.2000122070312
  0
LINE
  5
2EB
330
1F
100
AcDbEntity
  8
415_T
370
     0
100
AcDbLine
 10
517057.755
 20
4400484.999
 30
414.2000122070312
 11
517058.659
 21
4400485.167
 31
414.2000122070312
  0
LINE
  5
2EC
330
1F
100
AcDbEntity
  8
415_T
370
     0
100
AcDbLine
 10
517058.659
 20
4400485.167
 30
414.2000122070312
 11
517060.816
 21
4400484.378
 31
414.2000122070312
  0
LINE
  5
2ED
330
1F
100
AcDbEntity
  8
415_T
370
     0
100
AcDbLine
 10
517060.816
 20
4400484.378
 30
414.2000122070312
 11
517069.496
 21
4400481.118
 31
413.8999938964844
  0
LINE
  5
2EE
330
1F
100
AcDbEntity
  8
415_T
370
     0
100
AcDbLine
 10
517069.496
 20
4400481.118
 30
413.8999938964844
 11
517072.289
 21
4400481.068
 31
413.8999938964844
  0
LINE
  5
2EF
330
1F
100
AcDbEntity
  8
415_T
370
     0
100
AcDbLine
 10
517072.289
 20
4400481.068
 30
413.8999938964844
 11
517076.973
 21
4400478.144
 31
413.8999938964844
  0
LINE
  5
2F0
330
1F
100
AcDbEntity
  8
415_T
370
     0
100
AcDbLine
 10
517076.973
 20
4400478.144
 30
413.8999938964844
 11
517079.043
 21
4400476.889
 31
413.8999938964844
  0
LINE
  5
2F1
330
1F
100
AcDbEntity
  8
415_T
370
     0
100
AcDbLine
 10
517079.043
 20
4400476.889
 30
413.8999938964844
 11
517082.1849170169
 21
4400473.619009327
 31
413.8999938964844
  0
LINE
  5
2F2
330
1F
100
AcDbEntity
  8
415_T
370
     0
100
AcDbLine
 10
517082.1849170169
 20
4400473.619009327
 30
413.8999938964844
 11
517083.2
 21
4400482.727
 31
413.8999938964844
  0
LINE
  5
2F3
330
1F
100
AcDbEntity
  8
415_T
370
     0
100
AcDbLine
 10
517083.2
 20
4400482.727
 30
413.8999938964844
 11
517083.742
 21
4400490.972
 31
414.2999877929688
  0
LINE
  5
2F4
330
1F
100
AcDbEntity
  8
415_T
370
     0
100
AcDbLine
 10
517083.742
 20
4400490.972
 30
414.2999877929688
 11
517084.153
 21
4400494.28
 31
414.2999877929688
  0
LINE
  5
2F5
330
1F
100
AcDbEntity
  8
415_T
370
     0
100
AcDbLine
 10
517084.153
 20
4400494.28
 30
414.2999877929688
 11
517086.764
 21
4400494.978
 31
414.5
  0
LINE
  5
2F6
330
1F
100
AcDbEntity
  8
415_T
370
     0
100
AcDbLine
 10
517086.764
 20
4400494.978
 30
414.5
 11
517087.451
 21
4400494.981
 31
414.5
  0
LINE
  5
2F7
330
1F
100
AcDbEntity
  8
415_T
370
     0
100
AcDbLine
 10
517087.451
 20
4400494.981
 30
414.5
 11
517088.194
 21
4400495.453
 31
414.5
  0
LINE
  5
2F8
330
1F
100
AcDbEntity
  8
415_T
370
     0
100
AcDbLine
 10
517088.194
 20
4400495.453
 30
414.5
 11
517090.809
 21
4400497.083
 31
414.5
  0
LINE
  5
2F9
330
1F
100
AcDbEntity
  8
415_T
370
     0
100
AcDbLine
 10
517090.809
 20
4400497.083
 30
414.5
 11
517093.671
 21
4400498.254
 31
414.5
  0
LINE
  5
2FA
330
1F
100
AcDbEntity
  8
415_T
370
     0
100
AcDbLine
 10
517093.671
 20
4400498.254
 30
414.5
 11
517098.245
 21
4400499.159
 31
414.5
  0
LINE
  5
2FB
330
1F
100
AcDbEntity
  8
415_T
370
     0
100
AcDbLine
 10
517098.245
 20
4400499.159
 30
414.5
 11
517099.588
 21
4400499.537
 31
414.5
  0
LINE
  5
2FC
330
1F
100
AcDbEntity
  8
415_T
370
     0
100
AcDbLine
 10
517099.588
 20
4400499.537
 30
414.5
 11
517100.448
 21
4400499.83
 31
414.5
  0
LINE
  5
2FD
330
1F
100
AcDbEntity
  8
415_T
370
     0
100
AcDbLine
 10
517100.448
 20
4400499.83
 30
414.5
 11
517101.472
 21
4400500.186
 31
414.5
  0
LINE
  5
2FE
330
1F
100
AcDbEntity
  8
415_T
370
     0
100
AcDbLine
 10
517101.472
 20
4400500.186
 30
414.5
 11
517103.817
 21
4400500.66
 31
414.5
  0
LINE
  5
2FF
330
1F
100
AcDbEntity
  8
415_T
370
     0
100
AcDbLine
 10
517103.817
 20
4400500.66
 30
414.5
 11
517106.781
 21
4400501.481
 31
414.5
  0
LINE
  5
300
330
1F
100
AcDbEntity
  8
415_T
370
     0
100
AcDbLine
 10
517106.781
 20
4400501.481
 30
414.5
 11
517109.2384165234
 21
4400501.422665692
 31
414.5
  0
LINE
  5
301
330
1F
100
AcDbEntity
  8
415_T
370
     0
100
AcDbLine
 10
517109.2384165234
 20
4400501.422665692
 30
414.5
 11
517109.38497597
 21
4400498.032744749
 31
414.5
  0
LINE
  5
302
330
1F
100
AcDbEntity
  8
415_T
370
     0
100
AcDbLine
 10
517109.38497597
 20
4400498.032744749
 30
414.5
 11
517106.227
 21
4400498.126
 31
414.5
  0
LINE
  5
303
330
1F
100
AcDbEntity
  8
415_T
370
     0
100
AcDbLine
 10
517106.227
 20
4400498.126
 30
414.5
 11
517102.558
 21
4400497.904
 31
414.5
  0
LINE
  5
304
330
1F
100
AcDbEntity
  8
415_T
370
     0
100
AcDbLine
 10
517102.558
 20
4400497.904
 30
414.5
 11
517100.586
 21
4400497.584
 31
414.5
  0
LINE
  5
305
330
1F
100
AcDbEntity
  8
415_T
370
     0
100
AcDbLine
 10
517100.586
 20
4400497.584
 30
414.5
 11
517098.965
 21
4400497.265
 31
414.5
  0
LINE
  5
306
330
1F
100
AcDbEntity
  8
415_T
370
     0
100
AcDbLine
 10
517098.965
 20
4400497.265
 30
414.5
 11
517097.124
 21
4400495.952
 31
414.5
  0
LINE
  5
307
330
1F
100
AcDbEntity
  8
415_T
370
     0
100
AcDbLine
 10
517097.124
 20
4400495.952
 30
414.5
 11
517094.896
 21
4400495.405
 31
414.5
  0
LINE
  5
308
330
1F
100
AcDbEntity
  8
415_T
370
     0
100
AcDbLine
 10
517094.896
 20
4400495.405
 30
414.5
 11
517091.3
 21
4400494.742
 31
414.5
  0
LINE
  5
309
330
1F
100
AcDbEntity
  8
415_T
370
     0
100
AcDbLine
 10
517091.3
 20
4400494.742
 30
414.5
 11
517088.354
 21
4400493.155
 31
414.5
  0
LINE
  5
30A
330
1F
100
AcDbEntity
  8
415_T
370
     0
100
AcDbLine
 10
517088.354
 20
4400493.155
 30
414.5
 11
517087.625
 21
4400492.61
 31
414.5
  0
LINE
  5
30B
330
1F
100
AcDbEntity
  8
415_T
370
     0
100
AcDbLine
 10
517087.625
 20
4400492.61
 30
414.5
 11
517086.035
 21
4400491.147
 31
414.2999877929688
  0
LINE
  5
30C
330
1F
100
AcDbEntity
  8
415_T
370
     0
100
AcDbLine
 10
517086.035
 20
4400491.147
 30
414.2999877929688
 11
517085.613
 21
4400485.882
 31
414.2999877929688
  0
LINE
  5
30D
330
1F
100
AcDbEntity
  8
415_T
370
     0
100
AcDbLine
 10
517084.218
 20
4400474.909
 30
413.8999938964844
 11
517083.951
 21
4400471.855
 31
413.8999938964844
  0
LINE
  5
30E
330
1F
100
AcDbEntity
  8
415_T
370
     0
100
AcDbLine
 10
517083.951
 20
4400471.855
 30
413.8999938964844
 11
517083.934
 21
4400470.966
 31
413.8999938964844
  0
LINE
  5
30F
330
1F
100
AcDbEntity
  8
415_T
370
     0
100
AcDbLine
 10
517083.934
 20
4400470.966
 30
413.8999938964844
 11
517084.124
 21
4400469.227
 31
413.8999938964844
  0
LINE
  5
310
330
1F
100
AcDbEntity
  8
415_T
370
     0
100
AcDbLine
 10
517084.124
 20
4400469.227
 30
413.8999938964844
 11
517083.678
 21
4400468.209
 31
413.8999938964844
  0
LINE
  5
311
330
1F
100
AcDbEntity
  8
415_T
370
     0
100
AcDbLine
 10
517083.678
 20
4400468.209
 30
413.8999938964844
 11
517083.352
 21
4400467.633
 31
413.8999938964844
  0
LINE
  5
312
330
1F
100
AcDbEntity
  8
415_T
370
     0
100
AcDbLine
 10
517083.352
 20
4400467.633
 30
413.8999938964844
 11
517082.858
 21
4400464.354
 31
413.7000122070312
  0
LINE
  5
313
330
1F
100
AcDbEntity
  8
415_T
370
     0
100
AcDbLine
 10
517082.858
 20
4400464.354
 30
413.7000122070312
 11
517084.713
 21
4400463.006
 31
413.7000122070312
  0
LINE
  5
314
330
1F
100
AcDbEntity
  8
415_T
370
     0
100
AcDbLine
 10
517084.713
 20
4400463.006
 30
413.7000122070312
 11
517083.974
 21
4400462.282
 31
413.7000122070312
  0
LINE
  5
315
330
1F
100
AcDbEntity
  8
415_T
370
     0
100
AcDbLine
 10
517083.974
 20
4400462.282
 30
413.7000122070312
 11
517082.924
 21
4400460.258
 31
413.7000122070312
  0
LINE
  5
316
330
1F
100
AcDbEntity
  8
415_T
370
     0
100
AcDbLine
 10
517082.924
 20
4400460.258
 30
413.7000122070312
 11
517082.581
 21
4400455.972
 31
413.7000122070312
  0
LINE
  5
317
330
1F
100
AcDbEntity
  8
415_T
370
     0
100
AcDbLine
 10
517082.581
 20
4400455.972
 30
413.7000122070312
 11
517081.177
 21
4400448.305
 31
413.7000122070312
  0
LINE
  5
318
330
1F
100
AcDbEntity
  8
415_T
370
     0
100
AcDbLine
 10
517081.177
 20
4400448.305
 30
413.7000122070312
 11
517076.574
 21
4400413.301
 31
413.2000122070312
  0
LINE
  5
319
330
1F
100
AcDbEntity
  8
415_T
370
     0
100
AcDbLine
 10
517076.574
 20
4400413.301
 30
413.2000122070312
 11
517076.469
 21
4400409.815
 31
413.2000122070312
  0
LINE
  5
31A
330
1F
100
AcDbEntity
  8
415_T
370
     0
100
AcDbLine
 10
517076.469
 20
4400409.815
 30
413.2000122070312
 11
517076.455
 21
4400407.16
 31
413.2000122070312
  0
LINE
  5
31B
330
1F
100
AcDbEntity
  8
415_T
370
     0
100
AcDbLine
 10
517076.455
 20
4400407.16
 30
413.2000122070312
 11
517074.921
 21
4400404.248
 31
413.2000122070312
  0
LINE
  5
31C
330
1F
100
AcDbEntity
  8
415_T
370
     0
100
AcDbLine
 10
517074.921
 20
4400404.248
 30
413.2000122070312
 11
517073.281927395
 21
4400395.563758805
 31
412.8999938964844
  0
LINE
  5
31D
330
1F
100
AcDbEntity
  8
415_T
370
     0
100
AcDbLine
 10
517073.281927395
 20
4400395.563758805
 30
412.8999938964844
 11
517071.8568701014
 21
4400388.640895248
 31
412.8999938964844
  0
LINE
  5
31E
330
1F
100
AcDbEntity
  8
415_T
370
     0
100
AcDbLine
 10
517071.8568701014
 20
4400388.640895248
 30
412.8999938964844
 11
517070.1655149002
 21
4400382.922228971
 31
412.8999938964844
  0
LINE
  5
31F
330
1F
100
AcDbEntity
  8
415_T
370
     0
100
AcDbLine
 10
517070.1655149002
 20
4400382.922228971
 30
412.8999938964844
 11
517070.2088062587
 21
4400381.447230545
 31
412.8999938964844
  0
LINE
  5
320
330
1F
100
AcDbEntity
  8
415_T
370
     0
100
AcDbLine
 10
517070.2088062587
 20
4400381.447230545
 30
412.8999938964844
 11
517067.4839733801
 21
4400373.500678516
 31
412.5
  0
LINE
  5
321
330
1F
100
AcDbEntity
  8
415_T
370
     0
100
AcDbLine
 10
517067.4839733801
 20
4400373.500678516
 30
412.5
 11
517064.426
 21
4400364.348
 31
412.25
  0
LINE
  5
322
330
1F
100
AcDbEntity
  8
415_T
370
     0
100
AcDbLine
 10
517064.426
 20
4400364.348
 30
412.25
 11
517063.585
 21
4400360.009
 31
412.25
  0
LINE
  5
323
330
1F
100
AcDbEntity
  8
415_T
370
     0
100
AcDbLine
 10
517063.585
 20
4400360.009
 30
412.25
 11
517063.216
 21
4400357.66
 31
412.25
  0
LINE
  5
324
330
1F
100
AcDbEntity
  8
415_T
370
     0
100
AcDbLine
 10
517063.216
 20
4400357.66
 30
412.25
 11
517063.714
 21
4400357.005
 31
412.25
  0
LINE
  5
325
330
1F
100
AcDbEntity
  8
415_T
370
     0
100
AcDbLine
 10
517063.714
 20
4400357.005
 30
412.25
 11
517066.877
 21
4400354.929
 31
412.25
  0
LINE
  5
326
330
1F
100
AcDbEntity
  8
415_T
370
     0
100
AcDbLine
 10
517063.8
 20
4400352.79
 30
412.25
 11
517063.078
 21
4400352.801
 31
412.25
  0
LINE
  5
327
330
1F
100
AcDbEntity
  8
415_T
370
     0
100
AcDbLine
 10
517063.078
 20
4400352.801
 30
412.25
 11
517062.236
 21
4400351.227
 31
412.25
  0
LINE
  5
328
330
1F
100
AcDbEntity
  8
415_T
370
     0
100
AcDbLine
 10
517062.236
 20
4400351.227
 30
412.25
 11
517058.915
 21
4400342.213
 31
411.7000122070312
  0
LINE
  5
329
330
1F
100
AcDbEntity
  8
415_T
370
     0
100
AcDbLine
 10
517058.915
 20
4400342.213
 30
411.7000122070312
 11
517058.327
 21
4400340.18
 31
411.7000122070312
  0
LINE
  5
32A
330
1F
100
AcDbEntity
  8
415_T
370
     0
100
AcDbLine
 10
517058.327
 20
4400340.18
 30
411.7000122070312
 11
517058.026
 21
4400338.367
 31
411.7000122070312
  0
LINE
  5
32B
330
1F
100
AcDbEntity
  8
415_T
370
     0
100
AcDbLine
 10
517058.026
 20
4400338.367
 30
411.7000122070312
 11
517058.002
 21
4400335.455
 31
411.7000122070312
  0
LINE
  5
32C
330
1F
100
AcDbEntity
  8
415_T
370
     0
100
AcDbLine
 10
517058.002
 20
4400335.455
 30
411.7000122070312
 11
517057.967
 21
4400319.644
 31
411.5
  0
LINE
  5
32D
330
1F
100
AcDbEntity
  8
415_T
370
     0
100
AcDbLine
 10
517057.967
 20
4400319.644
 30
411.5
 11
517057.2519838823
 21
4400315.595791725
 31
411.5
  0
LINE
  5
32E
330
1F
100
AcDbEntity
  8
415_T
370
     0
100
AcDbLine
 10
517057.2519838823
 20
4400315.595791725
 30
411.5
 11
517056.557
 21
4400311.661
 31
411.5
  0
LINE
  5
32F
330
1F
100
AcDbEntity
  8
415_T
370
     0
100
AcDbLine
 10
517056.557
 20
4400311.661
 30
411.5
 11
517055.894
 21
4400308.368
 31
411.5
  0
LINE
  5
330
330
1F
100
AcDbEntity
  8
415_T
370
     0
100
AcDbLine
 10
517055.894
 20
4400308.368
 30
411.5
 11
517055.079
 21
4400306.624
 31
411.5
  0
LINE
  5
331
330
1F
100
AcDbEntity
  8
415_T
370
     0
100
AcDbLine
 10
517055.079
 20
4400306.624
 30
411.5
 11
517054.362
 21
4400301.056
 31
411.0
  0
LINE
  5
332
330
1F
100
AcDbEntity
  8
415_T
370
     0
100
AcDbLine
 10
517054.362
 20
4400301.056
 30
411.0
 11
517054.675
 21
4400300.397
 31
411.0
  0
LINE
  5
333
330
1F
100
AcDbEntity
  8
415_T
370
     0
100
AcDbLine
 10
517054.675
 20
4400300.397
 30
411.0
 11
517055.086
 21
4400299.329
 31
411.0
  0
LINE
  5
334
330
1F
100
AcDbEntity
  8
415_T
370
     0
100
AcDbLine
 10
517055.086
 20
4400299.329
 30
411.0
 11
517056.53
 21
4400298.658
 31
411.0
  0
LINE
  5
335
330
1F
100
AcDbEntity
  8
415_T
370
     0
100
AcDbLine
 10
517056.53
 20
4400298.658
 30
411.0
 11
517058.234
 21
4400296.717
 31
411.0
  0
LINE
  5
336
330
1F
100
AcDbEntity
  8
415_T
370
     0
100
AcDbLine
 10
517058.234
 20
4400296.717
 30
411.0
 11
517059.015
 21
4400294.899
 31
411.0
  0
LINE
  5
337
330
1F
100
AcDbEntity
  8
415_T
370
     0
100
AcDbLine
 10
517059.015
 20
4400294.899
 30
411.0
 11
517057.71
 21
4400293.295
 31
411.0
  0
LINE
  5
338
330
1F
100
AcDbEntity
  8
415_T
370
     0
100
AcDbLine
 10
517057.71
 20
4400293.295
 30
411.0
 11
517055.964
 21
4400295.015
 31
411.0
  0
LINE
  5
339
330
1F
100
AcDbEntity
  8
415_T
370
     0
100
AcDbLine
 10
517055.964
 20
4400295.015
 30
411.0
 11
517053.826
 21
4400296.316
 31
411.0
  0
LINE
  5
33A
330
1F
100
AcDbEntity
  8
415_T
370
     0
100
AcDbLine
 10
517053.826
 20
4400296.316
 30
411.0
 11
517051.472
 21
4400292.66
 31
411.0
  0
LINE
  5
33B
330
1F
100
AcDbEntity
  8
415_T
370
     0
100
AcDbLine
 10
517051.472
 20
4400292.66
 30
411.0
 11
517045.541
 21
4400288.13
 31
410.75
  0
LINE
  5
33C
330
1F
100
AcDbEntity
  8
415_T
370
     0
100
AcDbLine
 10
517045.541
 20
4400288.13
 30
410.75
 11
517043.183
 21
4400285.92
 31
410.75
  0
LINE
  5
33D
330
1F
100
AcDbEntity
  8
415_T
370
     0
100
AcDbLine
 10
517043.183
 20
4400285.92
 30
410.75
 11
517039.781
 21
4400281.588
 31
410.75
  0
LINE
  5
33E
330
1F
100
AcDbEntity
  8
415_T
370
     0
100
AcDbLine
 10
517039.781
 20
4400281.588
 30
410.75
 11
517038.479
 21
4400279.757
 31
410.75
  0
LINE
  5
33F
330
1F
100
AcDbEntity
  8
415_T
370
     0
100
AcDbLine
 10
517038.479
 20
4400279.757
 30
410.75
 11
517035.769
 21
4400276.474
 31
410.75
  0
LINE
  5
340
330
1F
100
AcDbEntity
  8
415_T
370
     0
100
AcDbLine
 10
517035.769
 20
4400276.474
 30
410.75
 11
517034.107
 21
4400270.97
 31
410.5
  0
LINE
  5
341
330
1F
100
AcDbEntity
  8
415_T
370
     0
100
AcDbLine
 10
517034.107
 20
4400270.97
 30
410.5
 11
517033.413
 21
4400267.778
 31
410.5
  0
LINE
  5
342
330
1F
100
AcDbEntity
  8
415_T
370
     0
100
AcDbLine
 10
517033.413
 20
4400267.778
 30
410.5
 11
517033.089
 21
4400264.738
 31
410.5
  0
LINE
  5
343
330
1F
100
AcDbEntity
  8
415_T
370
     0
100
AcDbLine
 10
517033.089
 20
4400264.738
 30
410.5
 11
517032.992
 21
4400261.651
 31
410.5
  0
LINE
  5
344
330
1F
100
AcDbEntity
  8
415_T
370
     0
100
AcDbLine
 10
517032.992
 20
4400261.651
 30
410.5
 11
517032.829
 21
4400255.888
 31
410.3999938964844
  0
LINE
  5
345
330
1F
100
AcDbEntity
  8
415_T
370
     0
100
AcDbLine
 10
517032.829
 20
4400255.888
 30
410.3999938964844
 11
517032.422
 21
4400252.135
 31
410.3999938964844
  0
LINE
  5
346
330
1F
100
AcDbEntity
  8
415_T
370
     0
100
AcDbLine
 10
517032.422
 20
4400252.135
 30
410.3999938964844
 11
517032.496
 21
4400251.388
 31
410.3999938964844
  0
LINE
  5
347
330
1F
100
AcDbEntity
  8
415_T
370
     0
100
AcDbLine
 10
517028.0168586755
 20
4400251.947583837
 30
410.3999938964844
 11
517028.5218842759
 21
4400254.170089495
 31
410.3999938964844
  0
LINE
  5
348
330
1F
100
AcDbEntity
  8
415_T
370
     0
100
AcDbLine
 10
517028.5218842759
 20
4400254.170089495
 30
410.3999938964844
 11
517028.9912017442
 21
4400257.441680146
 31
410.3999938964844
  0
LINE
  5
349
330
1F
100
AcDbEntity
  8
415_T
370
     0
100
AcDbLine
 10
517028.9912017442
 20
4400257.441680146
 30
410.3999938964844
 11
517029.4450092404
 21
4400267.534916169
 31
410.5
  0
LINE
  5
34A
330
1F
100
AcDbEntity
  8
415_T
370
     0
100
AcDbLine
 10
517029.4450092404
 20
4400267.534916169
 30
410.5
 11
517029.8218795093
 21
4400269.372624579
 31
410.5
  0
LINE
  5
34B
330
1F
100
AcDbEntity
  8
415_T
370
     0
100
AcDbLine
 10
517029.8218795093
 20
4400269.372624579
 30
410.5
 11
517031.369230508
 21
4400274.833387163
 31
410.75
  0
LINE
  5
34C
330
1F
100
AcDbEntity
  8
415_T
370
     0
100
AcDbLine
 10
517031.369230508
 20
4400274.833387163
 30
410.75
 11
517033.050766673
 21
4400278.696540811
 31
410.75
  0
LINE
  5
34D
330
1F
100
AcDbEntity
  8
415_T
370
     0
100
AcDbLine
 10
517033.050766673
 20
4400278.696540811
 30
410.75
 11
517033.8585925996
 21
4400280.462906457
 31
410.75
  0
LINE
  5
34E
330
1F
100
AcDbEntity
  8
415_T
370
     0
100
AcDbLine
 10
517033.8585925996
 20
4400280.462906457
 30
410.75
 11
517036.7436807813
 21
4400283.720732224
 31
410.75
  0
LINE
  5
34F
330
1F
100
AcDbEntity
  8
415_T
370
     0
100
AcDbLine
 10
517036.7436807813
 20
4400283.720732224
 30
410.75
 11
517039.4496413117
 21
4400286.345962441
 31
410.75
  0
LINE
  5
350
330
1F
100
AcDbEntity
  8
415_T
370
     0
100
AcDbLine
 10
517039.4496413117
 20
4400286.345962441
 30
410.75
 11
517044.9098255506
 21
4400291.916967753
 31
411.0
  0
LINE
  5
351
330
1F
100
AcDbEntity
  8
415_T
370
     0
100
AcDbLine
 10
517044.9098255506
 20
4400291.916967753
 30
411.0
 11
517048.2561891078
 21
4400295.623612602
 31
411.0
  0
LINE
  5
352
330
1F
100
AcDbEntity
  8
415_T
370
     0
100
AcDbLine
 10
517048.2561891078
 20
4400295.623612602
 30
411.0
 11
517049.5341891078
 21
4400297.775612602
 31
411.0
  0
LINE
  5
353
330
1F
100
AcDbEntity
  8
415_T
370
     0
100
AcDbLine
 10
517049.5341891078
 20
4400297.775612602
 30
411.0
 11
517049.6767779446
 21
4400299.063188154
 31
411.0
  0
LINE
  5
354
330
1F
100
AcDbEntity
  8
415_T
370
     0
100
AcDbLine
 10
517049.6767779446
 20
4400299.063188154
 30
411.0
 11
517050.1032381221
 21
4400300.742126003
 31
411.0
  0
LINE
  5
355
330
1F
100
AcDbEntity
  8
415_T
370
     0
100
AcDbLine
 10
517050.1032381221
 20
4400300.742126003
 30
411.0
 11
517051.4977742434
 21
4400306.535045034
 31
411.5
  0
LINE
  5
356
330
1F
100
AcDbEntity
  8
415_T
370
     0
100
AcDbLine
 10
517051.4977742434
 20
4400306.535045034
 30
411.5
 11
517052.1328083688
 21
4400308.40322304
 31
411.5
  0
LINE
  5
357
330
1F
100
AcDbEntity
  8
415_T
370
     0
100
AcDbLine
 10
517052.1328083688
 20
4400308.40322304
 30
411.5
 11
517052.4473075744
 21
4400310.431543866
 31
411.5
  0
LINE
  5
358
330
1F
100
AcDbEntity
  8
415_T
370
     0
100
AcDbLine
 10
517052.4473075744
 20
4400310.431543866
 30
411.5
 11
517053.6923250215
 21
4400316.049461512
 31
411.5
  0
LINE
  5
359
330
1F
100
AcDbEntity
  8
415_T
370
     0
100
AcDbLine
 10
517053.6923250215
 20
4400316.049461512
 30
411.5
 11
517054.3003250215
 21
4400327.848461512
 31
411.5
  0
LINE
  5
35A
330
1F
100
AcDbEntity
  8
415_T
370
     0
100
AcDbLine
 10
517054.3003250215
 20
4400327.848461512
 30
411.5
 11
517055.1356140923
 21
4400340.898053216
 31
411.7000122070312
  0
LINE
  5
35B
330
1F
100
AcDbEntity
  8
415_T
370
     0
100
AcDbLine
 10
517055.1356140923
 20
4400340.898053216
 30
411.7000122070312
 11
517055.6154057006
 21
4400344.197885796
 31
411.7000122070312
  0
LINE
  5
35C
330
1F
100
AcDbEntity
  8
415_T
370
     0
100
AcDbLine
 10
517055.6154057006
 20
4400344.197885796
 30
411.7000122070312
 11
517056.9428897074
 21
4400347.085408662
 31
411.7000122070312
  0
LINE
  5
35D
330
1F
100
AcDbEntity
  8
415_T
370
     0
100
AcDbLine
 10
517056.9428897074
 20
4400347.085408662
 30
411.7000122070312
 11
517059.0608718224
 21
4400350.947156692
 31
412.25
  0
LINE
  5
35E
330
1F
100
AcDbEntity
  8
415_T
370
     0
100
AcDbLine
 10
517059.0608718224
 20
4400350.947156692
 30
412.25
 11
517059.3008718223
 21
4400354.864156692
 31
412.25
  0
LINE
  5
35F
330
1F
100
AcDbEntity
  8
415_T
370
     0
100
AcDbLine
 10
517059.3008718223
 20
4400354.864156692
 30
412.25
 11
517060.44951331
 21
4400362.289660742
 31
412.25
  0
LINE
  5
360
330
1F
100
AcDbEntity
  8
415_T
370
     0
100
AcDbLine
 10
517060.44951331
 20
4400362.289660742
 30
412.25
 11
517064.6472886481
 21
4400374.477008483
 31
412.5
  0
LINE
  5
361
330
1F
100
AcDbEntity
  8
415_T
370
     0
100
AcDbLine
 10
517064.6472886481
 20
4400374.477008483
 30
412.5
 11
517067.1980620362
 21
4400383.466615905
 31
412.8999938964844
  0
LINE
  5
362
330
1F
100
AcDbEntity
  8
415_T
370
     0
100
AcDbLine
 10
517067.1980620362
 20
4400383.466615905
 30
412.8999938964844
 11
517068.9440649491
 21
4400389.370052375
 31
412.8999938964844
  0
LINE
  5
363
330
1F
100
AcDbEntity
  8
415_T
370
     0
100
AcDbLine
 10
517068.9440649491
 20
4400389.370052375
 30
412.8999938964844
 11
517070.3323180605
 21
4400396.114122888
 31
412.8999938964844
  0
LINE
  5
364
330
1F
100
AcDbEntity
  8
415_T
370
     0
100
AcDbLine
 10
517070.3323180605
 20
4400396.114122888
 30
412.8999938964844
 11
517071.0023345397
 21
4400403.388587519
 31
413.2000122070312
  0
LINE
  5
365
330
1F
100
AcDbEntity
  8
415_T
370
     0
100
AcDbLine
 10
517071.0023345397
 20
4400403.388587519
 30
413.2000122070312
 11
517073.0957484443
 21
4400416.373167728
 31
413.2000122070312
  0
LINE
  5
366
330
1F
100
AcDbEntity
  8
415_T
370
     0
100
AcDbLine
 10
517073.0957484443
 20
4400416.373167728
 30
413.2000122070312
 11
517073.6423264613
 21
4400420.885878002
 31
413.2000122070312
  0
LINE
  5
367
330
1F
100
AcDbEntity
  8
415_T
370
     0
100
AcDbLine
 10
517073.6423264613
 20
4400420.885878002
 30
413.2000122070312
 11
517074.8668472724
 21
4400424.378246426
 31
413.2000122070312
  0
LINE
  5
368
330
1F
100
AcDbEntity
  8
415_T
370
     0
100
AcDbLine
 10
517074.8668472724
 20
4400424.378246426
 30
413.2000122070312
 11
517075.6893187361
 21
4400430.150286304
 31
413.2000122070312
  0
LINE
  5
369
330
1F
100
AcDbEntity
  8
415_T
370
     0
100
AcDbLine
 10
517075.6893187361
 20
4400430.150286304
 30
413.2000122070312
 11
517078.0084830655
 21
4400447.633525116
 31
413.7000122070312
  0
LINE
  5
36A
330
1F
100
AcDbEntity
  8
415_T
370
     0
100
AcDbLine
 10
517078.0084830655
 20
4400447.633525116
 30
413.7000122070312
 11
517079.786738111
 21
4400462.646295933
 31
413.7000122070312
  0
LINE
  5
36B
330
1F
100
AcDbEntity
  8
415_T
370
     0
100
AcDbLine
 10
517079.786738111
 20
4400462.646295933
 30
413.7000122070312
 11
517079.7474828622
 21
4400471.275682512
 31
413.8999938964844
  0
LINE
  5
36C
330
1F
100
AcDbEntity
  8
415_T
370
     0
100
AcDbLine
 10
517079.7474828622
 20
4400471.275682512
 30
413.8999938964844
 11
517078.083
 21
4400473.394
 31
413.8999938964844
  0
LINE
  5
36D
330
1F
100
AcDbEntity
  8
415_T
370
     0
100
AcDbLine
 10
517078.083
 20
4400473.394
 30
413.8999938964844
 11
517076.227
 21
4400474.421
 31
413.8999938964844
  0
LINE
  5
36E
330
1F
100
AcDbEntity
  8
415_T
370
     0
100
AcDbLine
 10
517076.227
 20
4400474.421
 30
413.8999938964844
 11
517072.558
 21
4400477.269
 31
413.8999938964844
  0
LINE
  5
36F
330
1F
100
AcDbEntity
  8
415_T
370
     0
100
AcDbLine
 10
517072.558
 20
4400477.269
 30
413.8999938964844
 11
517070.081
 21
4400478.124
 31
413.8999938964844
  0
LINE
  5
370
330
1F
100
AcDbEntity
  8
415_T
370
     0
100
AcDbLine
 10
517070.081
 20
4400478.124
 30
413.8999938964844
 11
517066.257
 21
4400478.66
 31
413.8999938964844
  0
LINE
  5
371
330
1F
100
AcDbEntity
  8
415_T
370
     0
100
AcDbLine
 10
517066.257
 20
4400478.66
 30
413.8999938964844
 11
517064.6382762819
 21
4400479.356189463
 31
413.8999938964844
  0
LINE
  5
372
330
1F
100
AcDbEntity
  8
415_T
370
     0
100
AcDbLine
 10
517064.6382762819
 20
4400479.356189463
 30
413.8999938964844
 11
517059.935
 21
4400481.379
 31
414.2000122070312
  0
LINE
  5
373
330
1F
100
AcDbEntity
  8
415_T
370
     0
100
AcDbLine
 10
517059.935
 20
4400481.379
 30
414.2000122070312
 11
517059.391
 21
4400481.509
 31
414.2000122070312
  0
LINE
  5
374
330
1F
100
AcDbEntity
  8
415_T
370
     0
100
AcDbLine
 10
517059.391
 20
4400481.509
 30
414.2000122070312
 11
517054.367
 21
4400482.242
 31
414.2000122070312
  0
LINE
  5
375
330
1F
100
AcDbEntity
  8
415_T
370
     0
100
AcDbLine
 10
517054.367
 20
4400482.242
 30
414.2000122070312
 11
517049.064
 21
4400482.663
 31
414.2000122070312
  0
LINE
  5
376
330
1F
100
AcDbEntity
  8
415_T
370
     0
100
AcDbLine
 10
517049.064
 20
4400482.663
 30
414.2000122070312
 11
517041.339
 21
4400484.818
 31
414.5
  0
LINE
  5
377
330
1F
100
AcDbEntity
  8
415_T
370
     0
100
AcDbLine
 10
517041.339
 20
4400484.818
 30
414.5
 11
517039.545
 21
4400486.746
 31
414.5
  0
LINE
  5
378
330
1F
100
AcDbEntity
  8
415_T
370
     0
100
AcDbLine
 10
517039.545
 20
4400486.746
 30
414.5
 11
517035.718
 21
4400489.012
 31
414.5
  0
LINE
  5
379
330
1F
100
AcDbEntity
  8
415_T
370
     0
100
AcDbLine
 10
517035.718
 20
4400489.012
 30
414.5
 11
517033.091
 21
4400490.648
 31
414.5
  0
LINE
  5
37A
330
1F
100
AcDbEntity
  8
415_T
370
     0
100
AcDbLine
 10
517033.091
 20
4400490.648
 30
414.5
 11
517031.18
 21
4400490.658
 31
414.5
  0
LINE
  5
37B
330
1F
100
AcDbEntity
  8
415_T
370
     0
100
AcDbLine
 10
517031.18
 20
4400490.658
 30
414.5
 11
517030.251
 21
4400490.606
 31
414.5
  0
LINE
  5
37C
330
1F
100
AcDbEntity
  8
415_T
370
     0
100
AcDbLine
 10
517030.251
 20
4400490.606
 30
414.5
 11
517028.833
 21
4400490.756
 31
414.5
  0
LINE
  5
37D
330
1F
100
AcDbEntity
  8
415_T
370
     0
100
AcDbLine
 10
517028.833
 20
4400490.756
 30
414.5
 11
517024.076
 21
4400490.426
 31
414.5
  0
LINE
  5
37E
330
1F
100
AcDbEntity
  8
415_T
370
     0
100
AcDbLine
 10
517024.076
 20
4400490.426
 30
414.5
 11
517016.616
 21
4400489.985
 31
414.6000061035156
  0
LINE
  5
37F
330
1F
100
AcDbEntity
  8
415_T
370
     0
100
AcDbLine
 10
517016.616
 20
4400489.985
 30
414.6000061035156
 11
517008.891
 21
4400489.922
 31
414.6000061035156
  0
LINE
  5
380
330
1F
100
AcDbEntity
  8
415_T
370
     0
100
AcDbLine
 10
517008.891
 20
4400489.922
 30
414.6000061035156
 11
517005.676
 21
4400489.617
 31
414.6000061035156
  0
LINE
  5
381
330
1F
100
AcDbEntity
  8
415_T
370
     0
100
AcDbLine
 10
517005.676
 20
4400489.617
 30
414.6000061035156
 11
517000.161
 21
4400488.423
 31
414.6000061035156
  0
LINE
  5
382
330
1F
100
AcDbEntity
  8
415_T
370
     0
100
AcDbLine
 10
517000.161
 20
4400488.423
 30
414.6000061035156
 11
516990.386
 21
4400486.858
 31
414.6000061035156
  0
LINE
  5
383
330
1F
100
AcDbEntity
  8
415_T
370
     0
100
AcDbLine
 10
516990.386
 20
4400486.858
 30
414.6000061035156
 11
516985.57125
 21
4400486.052
 31
414.6000061035156
  0
LINE
  5
384
330
1F
100
AcDbEntity
  8
415_T
370
     0
100
AcDbLine
 10
516985.57125
 20
4400486.052
 30
414.6000061035156
 11
516982.599
 21
4400486.131
 31
414.6000061035156
  0
LINE
  5
385
330
1F
100
AcDbEntity
  8
415_T
370
     0
100
AcDbLine
 10
516982.599
 20
4400486.131
 30
414.6000061035156
 11
516977.669
 21
4400486.673
 31
414.6000061035156
  0
LINE
  5
386
330
1F
100
AcDbEntity
  8
415_T
370
     0
100
AcDbLine
 10
516977.669
 20
4400486.673
 30
414.6000061035156
 11
516972.299
 21
4400487.548
 31
414.6000061035156
  0
LINE
  5
387
330
1F
100
AcDbEntity
  8
415_T
370
     0
100
AcDbLine
 10
516972.299
 20
4400487.548
 30
414.6000061035156
 11
516971.767
 21
4400488.18
 31
414.6000061035156
  0
LINE
  5
388
330
1F
100
AcDbEntity
  8
415_T
370
     0
100
AcDbLine
 10
516971.767
 20
4400488.18
 30
414.6000061035156
 11
516955.051
 21
4400489.113
 31
414.75
  0
LINE
  5
389
330
1F
100
AcDbEntity
  8
415_T
370
     0
100
AcDbLine
 10
516955.051
 20
4400489.113
 30
414.75
 11
516952.721
 21
4400489.421
 31
414.75
  0
LINE
  5
38A
330
1F
100
AcDbEntity
  8
415_T
370
     0
100
AcDbLine
 10
516952.721
 20
4400489.421
 30
414.75
 11
516951.351
 21
4400489.182
 31
414.75
  0
LINE
  5
38B
330
1F
100
AcDbEntity
  8
415_T
370
     0
100
AcDbLine
 10
516951.351
 20
4400489.182
 30
414.75
 11
516944.923
 21
4400489.138
 31
414.75
  0
LINE
  5
38C
330
1F
100
AcDbEntity
  8
415_T
370
     0
100
AcDbLine
 10
516944.923
 20
4400489.138
 30
414.75
 11
516939.851
 21
4400490.008
 31
414.75
  0
LINE
  5
38D
330
1F
100
AcDbEntity
  8
415_T
370
     0
100
AcDbLine
 10
516939.851
 20
4400490.008
 30
414.75
 11
516937.312
 21
4400490.567
 31
414.75
  0
LINE
  5
38E
330
1F
100
AcDbEntity
  8
415_T
370
     0
100
AcDbLine
 10
516937.312
 20
4400490.567
 30
414.75
 11
516934.043
 21
4400491.315
 31
414.8999938964844
  0
LINE
  5
38F
330
1F
100
AcDbEntity
  8
415_T
370
     0
100
AcDbLine
 10
516934.043
 20
4400491.315
 30
414.8999938964844
 11
516930.395
 21
4400492.038
 31
414.8999938964844
  0
LINE
  5
390
330
1F
100
AcDbEntity
  8
415_T
370
     0
100
AcDbLine
 10
516930.395
 20
4400492.038
 30
414.8999938964844
 11
516923.682
 21
4400492.949
 31
414.8999938964844
  0
LINE
  5
391
330
1F
100
AcDbEntity
  8
415_T
370
     0
100
AcDbLine
 10
516923.682
 20
4400492.949
 30
414.8999938964844
 11
516915.656
 21
4400490.911
 31
414.8999938964844
  0
LINE
  5
392
330
1F
100
AcDbEntity
  8
415_T
370
     0
100
AcDbLine
 10
516915.656
 20
4400490.911
 30
414.8999938964844
 11
516913.73
 21
4400490.219
 31
414.8999938964844
  0
LINE
  5
393
330
1F
100
AcDbEntity
  8
415_T
370
     0
100
AcDbLine
 10
516913.73
 20
4400490.219
 30
414.8999938964844
 11
516912.035
 21
4400490.788
 31
414.8999938964844
  0
LINE
  5
394
330
1F
100
AcDbEntity
  8
415_T
370
     0
100
AcDbLine
 10
516912.035
 20
4400490.788
 30
414.8999938964844
 11
516902.422
 21
4400491.322
 31
414.8999938964844
  0
LINE
  5
395
330
1F
100
AcDbEntity
  8
415_T
370
     0
100
AcDbLine
 10
516902.422
 20
4400491.322
 30
414.8999938964844
 11
516899.304
 21
4400490.701
 31
414.8999938964844
  0
LINE
  5
396
330
1F
100
AcDbEntity
  8
415_T
370
     0
100
AcDbLine
 10
516899.304
 20
4400490.701
 30
414.8999938964844
 11
516894.117
 21
4400489.724
 31
414.8999938964844
  0
LINE
  5
397
330
1F
100
AcDbEntity
  8
415_T
370
     0
100
AcDbLine
 10
516894.117
 20
4400489.724
 30
414.8999938964844
 11
516887.165
 21
4400488.312
 31
415.3999938964844
  0
LINE
  5
398
330
1F
100
AcDbEntity
  8
415_T
370
     0
100
AcDbLine
 10
516887.165
 20
4400488.312
 30
415.3999938964844
 11
516883.623
 21
4400487.634
 31
415.3999938964844
  0
LINE
  5
399
330
1F
100
AcDbEntity
  8
415_T
370
     0
100
AcDbLine
 10
516883.623
 20
4400487.634
 30
415.3999938964844
 11
516875.087
 21
4400487.665
 31
415.3999938964844
  0
LINE
  5
39A
330
1F
100
AcDbEntity
  8
415_T
370
     0
100
AcDbLine
 10
516875.087
 20
4400487.665
 30
415.3999938964844
 11
516869.405
 21
4400487.58
 31
415.3999938964844
  0
LINE
  5
39B
330
1F
100
AcDbEntity
  8
415_T
370
     0
100
AcDbLine
 10
516869.405
 20
4400487.58
 30
415.3999938964844
 11
516866.383
 21
4400487.452
 31
415.3999938964844
  0
LINE
  5
39C
330
1F
100
AcDbEntity
  8
415_T
370
     0
100
AcDbLine
 10
516866.383
 20
4400487.452
 30
415.3999938964844
 11
516862.019
 21
4400486.769
 31
415.3999938964844
  0
LINE
  5
39D
330
1F
100
AcDbEntity
  8
415_T
370
     0
100
AcDbLine
 10
516862.019
 20
4400486.769
 30
415.3999938964844
 11
516857.81
 21
4400486.593
 31
415.3999938964844
  0
LINE
  5
39E
330
1F
100
AcDbEntity
  8
415_T
370
     0
100
AcDbLine
 10
516857.81
 20
4400486.593
 30
415.3999938964844
 11
516853.806
 21
4400486.575
 31
415.3999938964844
  0
LINE
  5
39F
330
1F
100
AcDbEntity
  8
415_T
370
     0
100
AcDbLine
 10
516853.806
 20
4400486.575
 30
415.3999938964844
 11
516850.954
 21
4400486.68
 31
415.3999938964844
  0
LINE
  5
3A0
330
1F
100
AcDbEntity
  8
415_T
370
     0
100
AcDbLine
 10
516850.954
 20
4400486.68
 30
415.3999938964844
 11
516842.729
 21
4400486.529
 31
415.6000061035156
  0
LINE
  5
3A1
330
1F
100
AcDbEntity
  8
415_T
370
     0
100
AcDbLine
 10
516842.729
 20
4400486.529
 30
415.6000061035156
 11
516840.409
 21
4400486.34
 31
415.6000061035156
  0
LINE
  5
3A2
330
1F
100
AcDbEntity
  8
415_T
370
     0
100
AcDbLine
 10
516840.409
 20
4400486.34
 30
415.6000061035156
 11
516837.512
 21
4400486.405
 31
415.6000061035156
  0
LINE
  5
3A3
330
1F
100
AcDbEntity
  8
415_T
370
     0
100
AcDbLine
 10
516837.512
 20
4400486.405
 30
415.6000061035156
 11
516827.115
 21
4400487.481
 31
415.6000061035156
  0
LINE
  5
3A4
330
1F
100
AcDbEntity
  8
415_T
370
     0
100
AcDbLine
 10
516827.115
 20
4400487.481
 30
415.6000061035156
 11
516826.319
 21
4400487.972
 31
415.6000061035156
  0
LINE
  5
3A5
330
1F
100
AcDbEntity
  8
415_T
370
     0
100
AcDbLine
 10
516826.319
 20
4400487.972
 30
415.6000061035156
 11
516823.092
 21
4400488.944
 31
415.6000061035156
  0
LINE
  5
3A6
330
1F
100
AcDbEntity
  8
415_T
370
     0
100
AcDbLine
 10
516823.092
 20
4400488.944
 30
415.6000061035156
 11
516820.081
 21
4400490.751
 31
415.6000061035156
  0
LINE
  5
3A7
330
1F
100
AcDbEntity
  8
415_T
370
     0
100
AcDbLine
 10
516820.081
 20
4400490.751
 30
415.6000061035156
 11
516810.502
 21
4400492.899
 31
415.7000122070312
  0
LINE
  5
3A8
330
1F
100
AcDbEntity
  8
415_T
370
     0
100
AcDbLine
 10
516810.502
 20
4400492.899
 30
415.7000122070312
 11
516808.676
 21
4400493.525
 31
415.7000122070312
  0
LINE
  5
3A9
330
1F
100
AcDbEntity
  8
415_T
370
     0
100
AcDbLine
 10
516808.676
 20
4400493.525
 30
415.7000122070312
 11
516805.363
 21
4400493.91
 31
415.7000122070312
  0
LINE
  5
3AA
330
1F
100
AcDbEntity
  8
415_T
370
     0
100
AcDbLine
 10
516805.363
 20
4400493.91
 30
415.7000122070312
 11
516799.915
 21
4400492.024
 31
415.7000122070312
  0
LINE
  5
3AB
330
1F
100
AcDbEntity
  8
415_T
370
     0
100
AcDbLine
 10
516799.915
 20
4400492.024
 30
415.7000122070312
 11
516798.499
 21
4400491.65
 31
415.7000122070312
  0
LINE
  5
3AC
330
1F
100
AcDbEntity
  8
415_T
370
     0
100
AcDbLine
 10
516798.499
 20
4400491.65
 30
415.7000122070312
 11
516795.038
 21
4400489.868
 31
415.7000122070312
  0
LINE
  5
3AD
330
1F
100
AcDbEntity
  8
415_T
370
     0
100
AcDbLine
 10
516795.038
 20
4400489.868
 30
415.7000122070312
 11
516789.485
 21
4400485.837
 31
416.0
  0
LINE
  5
3AE
330
1F
100
AcDbEntity
  8
415_T
370
     0
100
AcDbLine
 10
516789.485
 20
4400485.837
 30
416.0
 11
516785.338
 21
4400483.446
 31
416.0
  0
LINE
  5
3AF
330
1F
100
AcDbEntity
  8
415_T
370
     0
100
AcDbLine
 10
516785.338
 20
4400483.446
 30
416.0
 11
516781.76
 21
4400481.065
 31
416.0
  0
LINE
  5
3B0
330
1F
100
AcDbEntity
  8
415_T
370
     0
100
AcDbLine
 10
516781.76
 20
4400481.065
 30
416.0
 11
516781.204
 21
4400480.488
 31
416.0
  0
LINE
  5
3B1
330
1F
100
AcDbEntity
  8
415_T
370
     0
100
AcDbLine
 10
516781.204
 20
4400480.488
 30
416.0
 11
516776.998
 21
4400478.938
 31
416.0
  0
LINE
  5
3B2
330
1F
100
AcDbEntity
  8
415_T
370
     0
100
AcDbLine
 10
516776.998
 20
4400478.938
 30
416.0
 11
516773.5671147624
 21
4400477.984787419
 31
416.0
  0
LINE
  5
3B3
330
1F
100
AcDbEntity
  8
415_T
370
     0
100
AcDbLine
 10
517084.218
 20
4400474.909
 30
413.8999938964844
 11
517084.7664077852
 21
4400479.22274812
 31
414.2200012207031
  0
LINE
  5
3B4
330
1F
100
AcDbEntity
  8
415_T
370
     0
100
AcDbLine
 10
517084.9786917343
 20
4400480.892563011
 30
414.2200012207031
 11
517085.613
 21
4400485.882
 31
414.2999877929688
  0
POINT
  5
4F9
330
1F
100
AcDbEntity
  8
INIT_COORD
 62
     3
100
AcDbPoint
 10
517030.2564293378
 20
4400251.667791919
 30
410.3999938964844
  0
VIEWPORT
  5
3D8
330
1B
100
AcDbEntity
 67
     1
  8
0
100
AcDbViewport
 10
496551.8820012527
 20
4227036.043772928
 30
0.0
 40
582.9641121227178
 41
457.2690000003204
 68
     1
 69
     1
 12
496551.8820012527
 22
4227036.043772928
 13
0.0
 23
0.0
 14
0.5
 24
0.5
 15
0.5
 25
0.5
 16
0.0
 26
0.0
 36
1.0
 17
0.0
 27
0.0
 37
0.0
 42
50.0
 43
0.0
 44
0.0
 45
457.2690000003204
 50
0.0
 51
0.0
 72
  1000
 90
    32800
  1

281
     0
 71
     1
 74
     0
110
0.0
120
0.0
130
0.0
111
1.0
121
0.0
131
0.0
112
0.0
122
1.0
132
0.0
 79
     0
146
0.0
170
     0
 61
     5
348
2F
292
     1
282
     1
141
0.0
142
0.0
 63
   256
  0
ENDSEC
  0
SECTION
  2
OBJECTS
  0
DICTIONARY
  5
C
330
0
100
AcDbDictionary
281
     1
  3
ACAD_DETAILVIEWSTYLE
350
416
  3
ACAD_GROUP
350
D
  3
ACAD_IMAGE_VARS
350
407
  3
ACAD_LAYOUT
350
1A
  3
ACAD_MATERIAL
350
3B
  3
ACAD_MLEADERSTYLE
350
167
  3
ACAD_MLINESTYLE
350
17
  3
ACAD_PLOTSETTINGS
350
19
  3
ACAD_PLOTSTYLENAME
350
E
  3
ACAD_SCALELIST
350
3DA
  3
ACAD_SECTIONVIEWSTYLE
350
417
  3
ACAD_TABLESTYLE
350
176
  3
ACAD_VISUALSTYLE
350
2A
  3
ACDB_RECOMPOSE_DATA
350
501
  3
AcDbVariableDictionary
350
40F
  3
APPDATA
350
406
  0
SUN
  5
3F
330
29
100
AcDbSun
 90
        1
290
     0
 63
     7
421
 16777215
 40
1.0
291
     1
 91
  2455826
 92
 54000000
292
     0
 70
     2
 71
   256
280
     1
  0
DICTIONARY
  5
408
330
2
100
AcDbDictionary
280
     1
281
     1
  3
ACAD_LAYERSTATES
360
409
  3
ACLYDICTIONARY
360
4BA
  0
DICTIONARY
  5
16A
330
1F
100
AcDbDictionary
280
     1
281
     1
  3
ACAD_GEOGRAPHICDATA
360
16B
  0
DICTIONARY
  5
416
102
{ACAD_REACTORS
330
C
102
}
330
C
100
AcDbDictionary
281
     1
  0
DICTIONARY
  5
D
102
{ACAD_REACTORS
330
C
102
}
330
C
100
AcDbDictionary
281
     1
  0
RASTERVARIABLES
  5
407
102
{ACAD_REACTORS
330
C
102
}
330
C
100
AcDbRasterVariables
 90
        0
 70
     1
 71
     1
 72
     1
  0
DICTIONARY
  5
1A
102
{ACAD_REACTORS
330
C
102
}
330
C
100
AcDbDictionary
281
     1
  3
Layout1
350
1E
  3
Layout2
350
152
  3
Model
350
22
  0
DICTIONARY
  5
3B
102
{ACAD_REACTORS
330
C
102
}
330
C
100
AcDbDictionary
281
     1
  3
ByBlock
350
3D
  3
ByLayer
350
3C
  3
Global
350
3E
  0
DICTIONARY
  5
167
102
{ACAD_REACTORS
330
C
102
}
330
C
100
AcDbDictionary
281
     1
  3
Standard
350
168
  0
DICTIONARY
  5
17
102
{ACAD_REACTORS
330
C
102
}
330
C
100
AcDbDictionary
281
     1
  3
Standard
350
18
  0
DICTIONARY
  5
19
102
{ACAD_REACTORS
330
C
102
}
330
C
100
AcDbDictionary
281
     1
  0
ACDBDICTIONARYWDFLT
  5
E
102
{ACAD_REACTORS
330
C
102
}
330
C
100
AcDbDictionary
281
     1
  3
Normal
350
F
100
AcDbDictionaryWithDefault
340
F
  0
DICTIONARY
  5
3DA
102
{ACAD_REACTORS
330
C
102
}
330
C
100
AcDbDictionary
281
     1
  3
A0
350
3DB
  3
A1
350
3DC
  3
A2
350
3DD
  3
A3
350
3DE
  3
A4
350
3DF
  3
A5
350
3E0
  3
A6
350
3E1
  3
A7
350
3E2
  3
A8
350
3E3
  3
A9
350
3E4
  3
B0
350
3E5
  3
B1
350
3E6
  3
B2
350
3E7
  3
B3
350
3E8
  3
B4
350
3E9
  3
B5
350
3EA
  3
B6
350
3EB
  3
B7
350
3EC
  3
B8
350
3ED
  3
B9
350
3EE
  3
C0
350
3EF
  3
C1
350
3F0
  3
C2
350
3F1
  3
C3
350
3F2
  3
C4
350
3F3
  3
C5
350
3F4
  3
C6
350
3F5
  3
C7
350
3F6
  3
C8
350
3F7
  3
C9
350
3F8
  3
D0
350
3F9
  3
D1
350
3FA
  3
D2
350
3FB
  0
DICTIONARY
  5
417
102
{ACAD_REACTORS
330
C
102
}
330
C
100
AcDbDictionary
281
     1
  0
DICTIONARY
  5
176
102
{ACAD_REACTORS
330
C
102
}
330
C
100
AcDbDictionary
281
     1
  3
Standard
350
177
  0
DICTIONARY
  5
2A
102
{ACAD_REACTORS
330
C
102
}
330
C
100
AcDbDictionary
281
     1
  3
2dWireframe
350
2F
  3
3D Hidden
350
31
  3
3dWireframe
350
30
  3
Basic
350
32
  3
Brighten
350
36
  3
ColorChange
350
3A
  3
Conceptual
350
34
  3
Dim
350
35
  3
EdgeColorOff
350
400
  3
Facepattern
350
39
  3
Flat
350
2B
  3
FlatWithEdges
350
2C
  3
Gouraud
350
2D
  3
GouraudWithEdges
350
2E
  3
Hidden
350
3FD
  3
JitterOff
350
3FE
  3
Linepattern
350
38
  3
OverhangOff
350
3FF
  3
Realistic
350
33
  3
Shaded
350
405
  3
Shaded with edges
350
404
  3
Shades of Gray
350
401
  3
Sketchy
350
402
  3
Thicken
350
37
  3
Wireframe
350
3FC
  3
X-Ray
350
403
  0
XRECORD
  5
501
102
{ACAD_REACTORS
330
C
102
}
330
C
100
AcDbXrecord
280
     1
 90
        1
330
177
  0
DICTIONARY
  5
40F
102
{ACAD_REACTORS
330
C
102
}
330
C
100
AcDbDictionary
281
     1
  3
CANNOSCALE
350
410
  3
CMLEADERSTYLE
350
415
  3
CTABLESTYLE
350
414
  0
DICTIONARY
  5
406
102
{ACAD_REACTORS
330
C
102
}
330
C
100
AcDbDictionary
281
     1
  0
DICTIONARY
  5
409
102
{ACAD_REACTORS
330
408
102
}
330
408
100
AcDbDictionary
281
     1
  0
DICTIONARY
  5
4BA
102
{ACAD_REACTORS
330
408
102
}
330
408
100
AcDbDictionary
281
     1
1001
ACAD
1000
<All
  0
GEODATA
  5
16B
102
{ACAD_REACTORS
330
16A
102
}
330
16A
100
AcDbGeoData
 90
        2
330
1F
 70
     1
 10
0.0
 20
0.0
 30
0.0
 11
-122.394
 21
37.795
 31
0.0
 40
1.0
 91
        6
 41
1.0
 92
        6
210
0.0
220
0.0
230
1.0
 12
0.0
 22
1.0
 95
        3
141
1.0
294
     0
142
0.0
143
0.0
301

302
<georss:point>37.7950 -122.3940</georss:point>
305

306

307

 93
        0
 96
        0
  0
LAYOUT
  5
1E
102
{ACAD_REACTORS
330
1A
102
}
330
1A
100
AcDbPlotSettings
  1

  2
TCAD_Plot
  4
420.00 x 297.00 Inches
  6

 40
0.0
 41
0.0
 42
0.0
 43
0.0
 44
10668.0
 45
7543.799999999999
 46
0.0
 47
0.0
 48
0.0
 49
0.0
140
0.0
141
0.0
142
1.0
143
1.0
 70
   672
 72
     0
 73
     0
 74
     5
  7

 75
    16
 76
     0
 77
     2
 78
   300
147
1.0
148
0.0
149
0.0
100
AcDbLayout
  1
Layout1
 70
     1
 71
     1
 10
0.0
 20
0.0
 11
420.0
 21
297.0
 12
0.0
 22
0.0
 32
0.0
 14
0.0
 24
0.0
 34
0.0
 15
420.0
 25
297.0
 35
0.0
146
0.0
 13
0.0
 23
0.0
 33
0.0
 16
1.0
 26
0.0
 36
0.0
 17
0.0
 27
1.0
 37
0.0
 76
     0
330
1B
331
3D8
  0
LAYOUT
  5
152
102
{ACAD_REACTORS
330
1A
102
}
330
1A
100
AcDbPlotSettings
  1

  2
TCAD_Plot
  4
297.00 x 420.00 Inches
  6

 40
0.0
 41
0.0
 42
0.0
 43
0.0
 44
7543.799999999999
 45
10668.0
 46
0.0
 47
0.0
 48
0.0
 49
0.0
140
0.0
141
0.0
142
1.0
143
1.0
 70
   672
 72
     0
 73
     0
 74
     5
  7

 75
    16
 76
     0
 77
     2
 78
   300
147
1.0
148
0.0
149
0.0
100
AcDbLayout
  1
Layout2
 70
     1
 71
     2
 10
0.0
 20
0.0
 11
297.0
 21
420.0
 12
0.0
 22
0.0
 32
0.0
 14
0.0
 24
0.0
 34
0.0
 15
0.0
 25
0.0
 35
0.0
146
0.0
 13
0.0
 23
0.0
 33
0.0
 16
1.0
 26
0.0
 36
0.0
 17
0.0
 27
1.0
 37
0.0
 76
     0
330
151
331
3D9
  0
LAYOUT
  5
22
102
{ACAD_REACTORS
330
1A
102
}
330
1A
100
AcDbPlotSettings
  1

  2
TCAD_Plot
  4
582.96 x 457.27 Inches
  6

 40
0.0
 41
0.0
 42
0.0
 43
0.0
 44
14807.28844791703
 45
11614.63260000814
 46
0.0
 47
0.0
 48
-291.4820560613298
 49
-228.6344999996945
140
291.482056061388
141
228.6345000006258
142
1.0
143
1.0
 70
  1696
 72
     0
 73
     0
 74
     4
  7

 75
     0
 76
     0
 77
     2
 78
   300
147
0.5456188990721819
148
7403.644223957776
149
5807.316299992241
100
AcDbLayout
  1
Model
 70
     1
 71
     0
 10
496260.3999451914
 20
4226807.409272929
 11
496843.3640573141
 21
4227264.678272929
 12
0.0
 22
0.0
 32
0.0
 14
516769.287
 24
4400251.388
 34
410.3999938964844
 15
517109.38497597
 25
4400501.481
 35
416.0
146
0.0
 13
0.0
 23
0.0
 33
0.0
 16
1.0
 26
0.0
 36
0.0
 17
0.0
 27
1.0
 37
0.0
 76
     0
330
1F
331
29
  0
MATERIAL
  5
3D
102
{ACAD_REACTORS
330
3B
102
}
330
3B
100
AcDbMaterial
  1
ByBlock
 72
     1
 94
      127
  0
MATERIAL
  5
3C
102
{ACAD_REACTORS
330
3B
102
}
330
3B
100
AcDbMaterial
  1
ByLayer
 72
     1
 94
      127
  0
MATERIAL
  5
3E
102
{ACAD_REACTORS
330
3B
102
}
330
3B
100
AcDbMaterial
  1
Global
 72
     1
 94
      127
  0
MLEADERSTYLE
  5
168
102
{ACAD_REACTORS
330
167
102
}
330
167
100
AcDbMLeaderStyle
179
     2
170
     2
171
     1
172
     0
 90
        2
 40
0.0
 41
0.0
173
     1
 91
-1056964608
340
14
 92
       -2
290
     1
 42
0.25
291
     1
 43
0.25
  3

341
0
 44
0.25
300

342
11
174
     1
178
     1
175
     1
176
     0
 93
-1056964608
 45
0.1358925967199632
292
     0
297
     0
 46
0.18
343
0
 94
-1056964608
 47
1.0
 49
1.0
140
1.0
293
     1
141
0.0
294
     1
177
     0
142
1.0
295
     0
296
     0
143
0.125
271
     0
272
     9
273
     9
  0
MLINESTYLE
  5
18
102
{ACAD_REACTORS
330
17
102
}
330
17
100
AcDbMlineStyle
  2
Standard
 70
     0
  3

 62
     0
 51
90.0
 52
90.0
 71
     2
 49
0.5
 62
   256
  6
BYLAYER
 49
-0.5
 62
   256
  6
BYLAYER
  0
ACDBPLACEHOLDER
  5
F
102
{ACAD_REACTORS
330
E
102
}
330
E
  0
SCALE
  5
3DB
102
{ACAD_REACTORS
330
3DA
102
}
330
3DA
100
AcDbScale
 70
     0
300
1:1
140
1.0
141
1.0
290
     1
  0
SCALE
  5
3DC
102
{ACAD_REACTORS
330
3DA
102
}
330
3DA
100
AcDbScale
 70
     0
300
1:2
140
1.0
141
2.0
290
     0
  0
SCALE
  5
3DD
102
{ACAD_REACTORS
330
3DA
102
}
330
3DA
100
AcDbScale
 70
     0
300
1:4
140
1.0
141
4.0
290
     0
  0
SCALE
  5
3DE
102
{ACAD_REACTORS
330
3DA
102
}
330
3DA
100
AcDbScale
 70
     0
300
1:5
140
1.0
141
5.0
290
     0
  0
SCALE
  5
3DF
102
{ACAD_REACTORS
330
3DA
102
}
330
3DA
100
AcDbScale
 70
     0
300
1:8
140
1.0
141
8.0
290
     0
  0
SCALE
  5
3E0
102
{ACAD_REACTORS
330
3DA
102
}
330
3DA
100
AcDbScale
 70
     0
300
1:10
140
1.0
141
10.0
290
     0
  0
SCALE
  5
3E1
102
{ACAD_REACTORS
330
3DA
102
}
330
3DA
100
AcDbScale
 70
     0
300
1:16
140
1.0
141
16.0
290
     0
  0
SCALE
  5
3E2
102
{ACAD_REACTORS
330
3DA
102
}
330
3DA
100
AcDbScale
 70
     0
300
1:20
140
1.0
141
20.0
290
     0
  0
SCALE
  5
3E3
102
{ACAD_REACTORS
330
3DA
102
}
330
3DA
100
AcDbScale
 70
     0
300
1:30
140
1.0
141
30.0
290
     0
  0
SCALE
  5
3E4
102
{ACAD_REACTORS
330
3DA
102
}
330
3DA
100
AcDbScale
 70
     0
300
1:40
140
1.0
141
40.0
290
     0
  0
SCALE
  5
3E5
102
{ACAD_REACTORS
330
3DA
102
}
330
3DA
100
AcDbScale
 70
     0
300
1:50
140
1.0
141
50.0
290
     0
  0
SCALE
  5
3E6
102
{ACAD_REACTORS
330
3DA
102
}
330
3DA
100
AcDbScale
 70
     0
300
1:100
140
1.0
141
100.0
290
     0
  0
SCALE
  5
3E7
102
{ACAD_REACTORS
330
3DA
102
}
330
3DA
100
AcDbScale
 70
     0
300
2:1
140
2.0
141
1.0
290
     0
  0
SCALE
  5
3E8
102
{ACAD_REACTORS
330
3DA
102
}
330
3DA
100
AcDbScale
 70
     0
300
4:1
140
4.0
141
1.0
290
     0
  0
SCALE
  5
3E9
102
{ACAD_REACTORS
330
3DA
102
}
330
3DA
100
AcDbScale
 70
     0
300
8:1
140
8.0
141
1.0
290
     0
  0
SCALE
  5
3EA
102
{ACAD_REACTORS
330
3DA
102
}
330
3DA
100
AcDbScale
 70
     0
300
10:1
140
10.0
141
1.0
290
     0
  0
SCALE
  5
3EB
102
{ACAD_REACTORS
330
3DA
102
}
330
3DA
100
AcDbScale
 70
     0
300
100:1
140
100.0
141
1.0
290
     0
  0
SCALE
  5
3EC
102
{ACAD_REACTORS
330
3DA
102
}
330
3DA
100
AcDbScale
 70
     0
300
1/128" = 1'-0"
140
0.0078125
141
12.0
290
     0
  0
SCALE
  5
3ED
102
{ACAD_REACTORS
330
3DA
102
}
330
3DA
100
AcDbScale
 70
     0
300
1/64" = 1'-0"
140
0.015625
141
12.0
290
     0
  0
SCALE
  5
3EE
102
{ACAD_REACTORS
330
3DA
102
}
330
3DA
100
AcDbScale
 70
     0
300
1/32" = 1'-0"
140
0.03125
141
12.0
290
     0
  0
SCALE
  5
3EF
102
{ACAD_REACTORS
330
3DA
102
}
330
3DA
100
AcDbScale
 70
     0
300
1/16" = 1'-0"
140
0.0625
141
12.0
290
     0
  0
SCALE
  5
3F0
102
{ACAD_REACTORS
330
3DA
102
}
330
3DA
100
AcDbScale
 70
     0
300
3/32" = 1'-0"
140
0.09375
141
12.0
290
     0
  0
SCALE
  5
3F1
102
{ACAD_REACTORS
330
3DA
102
}
330
3DA
100
AcDbScale
 70
     0
300
1/8" = 1'-0"
140
0.125
141
12.0
290
     0
  0
SCALE
  5
3F2
102
{ACAD_REACTORS
330
3DA
102
}
330
3DA
100
AcDbScale
 70
     0
300
3/16" = 1'-0"
140
0.1875
141
12.0
290
     0
  0
SCALE
  5
3F3
102
{ACAD_REACTORS
330
3DA
102
}
330
3DA
100
AcDbScale
 70
     0
300
1/4" = 1'-0"
140
0.25
141
12.0
290
     0
  0
SCALE
  5
3F4
102
{ACAD_REACTORS
330
3DA
102
}
330
3DA
100
AcDbScale
 70
     0
300
3/8" = 1'-0"
140
0.375
141
12.0
290
     0
  0
SCALE
  5
3F5
102
{ACAD_REACTORS
330
3DA
102
}
330
3DA
100
AcDbScale
 70
     0
300
1/2" = 1'-0"
140
0.5
141
12.0
290
     0
  0
SCALE
  5
3F6
102
{ACAD_REACTORS
330
3DA
102
}
330
3DA
100
AcDbScale
 70
     0
300
3/4" = 1'-0"
140
0.75
141
12.0
290
     0
  0
SCALE
  5
3F7
102
{ACAD_REACTORS
330
3DA
102
}
330
3DA
100
AcDbScale
 70
     0
300
1" = 1'-0"
140
1.0
141
12.0
290
     0
  0
SCALE
  5
3F8
102
{ACAD_REACTORS
330
3DA
102
}
330
3DA
100
AcDbScale
 70
     0
300
1-1/2" = 1'-0"
140
1.5
141
12.0
290
     0
  0
SCALE
  5
3F9
102
{ACAD_REACTORS
330
3DA
102
}
330
3DA
100
AcDbScale
 70
     0
300
3" = 1'-0"
140
3.0
141
12.0
290
     0
  0
SCALE
  5
3FA
102
{ACAD_REACTORS
330
3DA
102
}
330
3DA
100
AcDbScale
 70
     0
300
6" = 1'-0"
140
6.0
141
12.0
290
     0
  0
SCALE
  5
3FB
102
{ACAD_REACTORS
330
3DA
102
}
330
3DA
100
AcDbScale
 70
     0
300
1'-0" = 1'-0"
140
12.0
141
12.0
290
     0
  0
TABLESTYLE
  5
177
102
{ACAD_REACTORS
330
176
102
}
102
{ACAD_XDICTIONARY
360
4FF
102
}
330
176
100
AcDbTableStyle
  3

 70
     0
 71
     0
 40
0.06
 41
0.06
280
     0
281
     0
  7
Standard
140
2.5
170
     5
 62
     0
 63
   257
283
     0
 90
        4
 91
        0
  1

274
    -2
284
     1
 64
     0
275
    -2
285
     1
 65
     0
276
    -2
286
     1
 66
     0
277
    -2
287
     1
 67
     0
278
    -2
288
     1
 68
     0
279
    -2
289
     1
 69
     0
  7
Standard
140
2.5
170
     5
 62
     0
 63
   257
283
     0
 90
        4
 91
        0
  1

274
    -2
284
     1
 64
     0
275
    -2
285
     1
 65
     0
276
    -2
286
     1
 66
     0
277
    -2
287
     1
 67
     0
278
    -2
288
     1
 68
     0
279
    -2
289
     1
 69
     0
  7
Standard
140
2.5
170
     5
 62
     0
 63
   257
283
     0
 90
        4
 91
        0
  1

274
    -2
284
     1
 64
     0
275
    -2
285
     1
 65
     0
276
    -2
286
     1
 66
     0
277
    -2
287
     1
 67
     0
278
    -2
288
     1
 68
     0
279
    -2
289
     1
 69
     0
  0
VISUALSTYLE
  5
2F
102
{ACAD_REACTORS
330
2A
102
}
330
2A
100
AcDbVisualStyle
  2
2dWireframe
 70
     4
177
     2
291
     0
 71
     0
176
     1
 72
     2
176
     1
 73
     0
176
     1
 90
        0
176
     1
 40
-0.6
176
     1
 41
-30.0
176
     1
 62
     5
 63
     7
421
 16777215
176
     1
 74
     1
176
     1
 91
        4
176
     1
 64
     7
176
     1
 65
   257
176
     1
 75
     1
176
     1
175
     1
176
     1
 42
1.0
176
     1
 92
        0
176
     1
 66
   257
176
     1
 43
1.0
176
     1
 76
     1
176
     1
 77
     6
176
     1
 78
     2
176
     1
 67
     7
176
     1
 79
     5
176
     1
170
     0
176
     1
171
     0
176
     1
290
     0
176
     1
 93
        1
176
     1
 44
0.0
176
     1
173
     0
176
     1
  0
VISUALSTYLE
  5
31
102
{ACAD_REACTORS
330
2A
102
}
330
2A
100
AcDbVisualStyle
  2
3D Hidden
 70
     6
177
     2
291
     0
 71
     1
176
     1
 72
     2
176
     1
 73
     2
176
     1
 90
        0
176
     1
 40
-0.6
176
     1
 41
-30.0
176
     1
 62
     5
 63
     7
421
 16777215
176
     1
 74
     2
176
     1
 91
        2
176
     1
 64
     7
176
     1
 65
   257
176
     1
 75
     2
176
     1
175
     1
176
     1
 42
40.0
176
     1
 92
        0
176
     1
 66
   257
176
     1
 43
1.0
176
     1
 76
     1
176
     1
 77
     6
176
     1
 78
     2
176
     1
 67
     7
176
     1
 79
     3
176
     1
170
     0
176
     1
171
     0
176
     1
290
     0
176
     1
 93
        1
176
     1
 44
0.0
176
     1
173
     0
176
     1
  0
VISUALSTYLE
  5
30
102
{ACAD_REACTORS
330
2A
102
}
330
2A
100
AcDbVisualStyle
  2
3dWireframe
 70
     5
177
     2
291
     0
 71
     0
176
     1
 72
     2
176
     1
 73
     0
176
     1
 90
        0
176
     1
 40
-0.6
176
     1
 41
-30.0
176
     1
 62
     5
 63
     7
421
 16777215
176
     1
 74
     1
176
     1
 91
        4
176
     1
 64
     7
176
     1
 65
   257
176
     1
 75
     1
176
     1
175
     1
176
     1
 42
1.0
176
     1
 92
        0
176
     1
 66
   257
176
     1
 43
1.0
176
     1
 76
     1
176
     1
 77
     6
176
     1
 78
     2
176
     1
 67
     7
176
     1
 79
     5
176
     1
170
     0
176
     1
171
     0
176
     1
290
     0
176
     1
 93
        1
176
     1
 44
0.0
176
     1
173
     0
176
     1
  0
VISUALSTYLE
  5
32
102
{ACAD_REACTORS
330
2A
102
}
330
2A
100
AcDbVisualStyle
  2
Basic
 70
     7
177
     2
291
     1
 71
     1
176
     1
 72
     0
176
     1
 73
     1
176
     1
 90
        0
176
     1
 40
-0.6
176
     1
 41
-30.0
176
     1
 62
     5
 63
     7
421
 16777215
176
     1
 74
     0
176
     1
 91
        4
176
     1
 64
     7
176
     1
 65
   257
176
     1
 75
     1
176
     1
175
     1
176
     1
 42
1.0
176
     1
 92
        8
176
     1
 66
     7
176
     1
 43
1.0
176
     1
 76
     1
176
     1
 77
     6
176
     1
 78
     2
176
     1
 67
     7
176
     1
 79
     5
176
     1
170
     0
176
     1
171
     0
176
     1
290
     0
176
     1
 93
        1
176
     1
 44
0.0
176
     1
173
     0
176
     1
  0
VISUALSTYLE
  5
36
102
{ACAD_REACTORS
330
2A
102
}
330
2A
100
AcDbVisualStyle
  2
Brighten
 70
    12
177
     2
291
     1
 71
     2
176
     1
 72
     2
176
     1
 73
     0
176
     1
 90
        0
176
     1
 40
-0.6
176
     1
 41
-30.0
176
     1
 62
     5
 63
     7
421
 16777215
176
     1
 74
     1
176
     1
 91
        4
176
     1
 64
     7
176
     1
 65
   257
176
     1
 75
     1
176
     1
175
     1
176
     1
 42
1.0
176
     1
 92
        8
176
     1
 66
     7
176
     1
 43
1.0
176
     1
 76
     1
176
     1
 77
     6
176
     1
 78
     2
176
     1
 67
     7
176
     1
 79
     5
176
     1
170
     0
176
     1
171
     0
176
     1
290
     0
176
     1
 93
        1
176
     1
 44
50.0
176
     1
173
     0
176
     1
  0
VISUALSTYLE
  5
3A
102
{ACAD_REACTORS
330
2A
102
}
330
2A
100
AcDbVisualStyle
  2
ColorChange
 70
    16
177
     2
291
     1
 71
     2
176
     1
 72
     2
176
     1
 73
     3
176
     1
 90
        0
176
     1
 40
-0.6
176
     1
 41
-30.0
176
     1
 62
     5
 63
     8
421
  8421504
176
     1
 74
     1
176
     1
 91
        4
176
     1
 64
     7
176
     1
 65
   257
176
     1
 75
     1
176
     1
175
     1
176
     1
 42
1.0
176
     1
 92
        8
176
     1
 66
     8
424
  8421504
176
     1
 43
1.0
176
     1
 76
     1
176
     1
 77
     6
176
     1
 78
     2
176
     1
 67
     7
176
     1
 79
     5
176
     1
170
     0
176
     1
171
     0
176
     1
290
     0
176
     1
 93
        1
176
     1
 44
0.0
176
     1
173
     0
176
     1
  0
VISUALSTYLE
  5
34
102
{ACAD_REACTORS
330
2A
102
}
330
2A
100
AcDbVisualStyle
  2
Conceptual
 70
     9
177
     2
291
     0
 71
     3
176
     1
 72
     2
176
     1
 73
     0
176
     1
 90
        0
176
     1
 40
-0.6
176
     1
 41
-30.0
176
     1
 62
     5
 63
     7
421
 16777215
176
     1
 74
     2
176
     1
 91
        2
176
     1
 64
     7
176
     1
 65
   257
176
     1
 75
     1
176
     1
175
     1
176
     1
 42
40.0
176
     1
 92
        8
176
     1
 66
     7
176
     1
 43
1.0
176
     1
 76
     1
176
     1
 77
     6
176
     1
 78
     2
176
     1
 67
     7
176
     1
 79
     3
176
     1
170
     0
176
     1
171
     0
176
     1
290
     0
176
     1
 93
        1
176
     1
 44
0.0
176
     1
173
     0
176
     1
  0
VISUALSTYLE
  5
35
102
{ACAD_REACTORS
330
2A
102
}
330
2A
100
AcDbVisualStyle
  2
Dim
 70
    11
177
     2
291
     1
 71
     2
176
     1
 72
     2
176
     1
 73
     0
176
     1
 90
        0
176
     1
 40
-0.6
176
     1
 41
-30.0
176
     1
 62
     5
 63
     7
421
 16777215
176
     1
 74
     1
176
     1
 91
        4
176
     1
 64
     7
176
     1
 65
   257
176
     1
 75
     1
176
     1
175
     1
176
     1
 42
1.0
176
     1
 92
        8
176
     1
 66
     7
176
     1
 43
1.0
176
     1
 76
     1
176
     1
 77
     6
176
     1
 78
     2
176
     1
 67
     7
176
     1
 79
     5
176
     1
170
     0
176
     1
171
     0
176
     1
290
     0
176
     1
 93
        1
176
     1
 44
-50.0
176
     1
173
     0
176
     1
  0
VISUALSTYLE
  5
400
102
{ACAD_REACTORS
330
2A
102
}
330
2A
100
AcDbVisualStyle
  2
EdgeColorOff
 70
    22
177
     2
291
     1
 71
     2
176
     0
 72
     2
176
     0
 73
     0
176
     0
 90
        0
176
     0
 40
0.6
176
     0
 41
30.0
176
     0
 62
     5
 63
     7
421
 16777215
176
     0
 74
     1
176
     0
 91
        4
176
     0
 64
     7
176
     0
 65
   257
176
     0
 75
     1
176
     0
175
     1
176
     0
 42
1.0
176
     0
 92
        8
176
     2
 66
     7
176
     0
 43
1.0
176
     0
 76
     1
176
     0
 77
     6
176
     0
 78
     2
176
     0
 67
     7
176
     0
 79
     5
176
     0
170
     0
176
     0
171
     0
176
     0
290
     0
176
     0
 93
        1
176
     0
 44
0.0
176
     0
173
     0
176
     0
  0
VISUALSTYLE
  5
39
102
{ACAD_REACTORS
330
2A
102
}
330
2A
100
AcDbVisualStyle
  2
Facepattern
 70
    15
177
     2
291
     1
 71
     2
176
     1
 72
     2
176
     1
 73
     0
176
     1
 90
        0
176
     1
 40
-0.6
176
     1
 41
-30.0
176
     1
 62
     5
 63
     7
421
 16777215
176
     1
 74
     1
176
     1
 91
        4
176
     1
 64
     7
176
     1
 65
   257
176
     1
 75
     1
176
     1
175
     1
176
     1
 42
1.0
176
     1
 92
        8
176
     1
 66
     7
176
     1
 43
1.0
176
     1
 76
     1
176
     1
 77
     6
176
     1
 78
     2
176
     1
 67
     7
176
     1
 79
     5
176
     1
170
     0
176
     1
171
     0
176
     1
290
     0
176
     1
 93
        1
176
     1
 44
0.0
176
     1
173
     0
176
     1
  0
VISUALSTYLE
  5
2B
102
{ACAD_REACTORS
330
2A
102
}
330
2A
100
AcDbVisualStyle
  2
Flat
 70
     0
177
     2
291
     1
 71
     2
176
     1
 72
     1
176
     1
 73
     1
176
     1
 90
        2
176
     1
 40
-0.6
176
     1
 41
30.0
176
     1
 62
     5
 63
     7
421
 16777215
176
     1
 74
     0
176
     1
 91
        4
176
     1
 64
     7
176
     1
 65
   257
176
     1
 75
     1
176
     1
175
     1
176
     1
 42
1.0
176
     1
 92
        8
176
     1
 66
     7
176
     1
 43
1.0
176
     1
 76
     1
176
     1
 77
     6
176
     1
 78
     2
176
     1
 67
     7
176
     1
 79
     5
176
     1
170
     0
176
     1
171
     0
176
     1
290
     0
176
     1
 93
       13
176
     1
 44
0.0
176
     1
173
     0
176
     1
  0
VISUALSTYLE
  5
2C
102
{ACAD_REACTORS
330
2A
102
}
330
2A
100
AcDbVisualStyle
  2
FlatWithEdges
 70
     1
177
     2
291
     1
 71
     2
176
     1
 72
     1
176
     1
 73
     1
176
     1
 90
        2
176
     1
 40
-0.6
176
     1
 41
30.0
176
     1
 62
     5
 63
     7
421
 16777215
176
     1
 74
     1
176
     1
 91
        4
176
     1
 64
     7
176
     1
 65
   257
176
     1
 75
     1
176
     1
175
     1
176
     1
 42
1.0
176
     1
 92
        0
176
     1
 66
   257
176
     1
 43
1.0
176
     1
 76
     1
176
     1
 77
     6
176
     1
 78
     2
176
     1
 67
     7
176
     1
 79
     5
176
     1
170
     0
176
     1
171
     0
176
     1
290
     0
176
     1
 93
       13
176
     1
 44
0.0
176
     1
173
     0
176
     1
  0
VISUALSTYLE
  5
2D
102
{ACAD_REACTORS
330
2A
102
}
330
2A
100
AcDbVisualStyle
  2
Gouraud
 70
     2
177
     2
291
     1
 71
     2
176
     1
 72
     2
176
     1
 73
     1
176
     1
 90
        2
176
     1
 40
-0.6
176
     1
 41
30.0
176
     1
 62
     5
 63
     7
421
 16777215
176
     1
 74
     0
176
     1
 91
        4
176
     1
 64
     7
176
     1
 65
   257
176
     1
 75
     1
176
     1
175
     1
176
     1
 42
1.0
176
     1
 92
        0
176
     1
 66
     7
176
     1
 43
1.0
176
     1
 76
     1
176
     1
 77
     6
176
     1
 78
     2
176
     1
 67
     7
176
     1
 79
     5
176
     1
170
     0
176
     1
171
     0
176
     1
290
     0
176
     1
 93
       13
176
     1
 44
0.0
176
     1
173
     0
176
     1
  0
VISUALSTYLE
  5
2E
102
{ACAD_REACTORS
330
2A
102
}
330
2A
100
AcDbVisualStyle
  2
GouraudWithEdges
 70
     3
177
     2
291
     1
 71
     2
176
     1
 72
     2
176
     1
 73
     1
176
     1
 90
        2
176
     1
 40
-0.6
176
     1
 41
30.0
176
     1
 62
     5
 63
     7
421
 16777215
176
     1
 74
     1
176
     1
 91
        4
176
     1
 64
     7
176
     1
 65
   257
176
     1
 75
     1
176
     1
175
     1
176
     1
 42
1.0
176
     1
 92
        0
176
     1
 66
   257
176
     1
 43
1.0
176
     1
 76
     1
176
     1
 77
     6
176
     1
 78
     2
176
     1
 67
     7
176
     1
 79
     5
176
     1
170
     0
176
     1
171
     0
176
     1
290
     0
176
     1
 93
       13
176
     1
 44
0.0
176
     1
173
     0
176
     1
  0
VISUALSTYLE
  5
3FD
102
{ACAD_REACTORS
330
2A
102
}
330
2A
100
AcDbVisualStyle
  2
Hidden
 70
     6
177
     2
291
     0
 71
     1
176
     1
 72
     2
176
     1
 73
     2
176
     1
 90
        0
176
     1
 40
0.6
176
     1
 41
30.0
176
     1
 62
     5
 63
     7
421
 16777215
176
     1
 74
     2
176
     1
 91
        2
176
     1
 64
     7
176
     1
 65
   257
176
     1
 75
     2
176
     1
175
     1
176
     1
 42
40.0
176
     1
 92
        0
176
     1
 66
   257
176
     1
 43
1.0
176
     1
 76
     1
176
     1
 77
     6
176
     1
 78
     2
176
     1
 67
     7
176
     1
 79
     3
176
     1
170
     0
176
     1
171
     0
176
     1
290
     0
176
     1
 93
        1
176
     1
 44
0.0
176
     1
173
     0
176
     1
  0
VISUALSTYLE
  5
3FE
102
{ACAD_REACTORS
330
2A
102
}
330
2A
100
AcDbVisualStyle
  2
JitterOff
 70
    20
177
     2
291
     1
 71
     2
176
     0
 72
     2
176
     0
 73
     0
176
     0
 90
        0
176
     0
 40
0.6
176
     0
 41
30.0
176
     0
 62
     5
 63
     7
421
 16777215
176
     0
 74
     1
176
     0
 91
        4
176
     0
 64
     7
176
     0
 65
   257
176
     0
 75
     1
176
     0
175
     1
176
     0
 42
1.0
176
     0
 92
       10
176
     2
 66
     7
176
     0
 43
1.0
176
     0
 76
     1
176
     0
 77
     6
176
     0
 78
     2
176
     0
 67
     7
176
     0
 79
     5
176
     0
170
     0
176
     0
171
     0
176
     0
290
     0
176
     0
 93
        1
176
     0
 44
0.0
176
     0
173
     0
176
     0
  0
VISUALSTYLE
  5
38
102
{ACAD_REACTORS
330
2A
102
}
330
2A
100
AcDbVisualStyle
  2
Linepattern
 70
    14
177
     2
291
     1
 71
     2
176
     1
 72
     2
176
     1
 73
     0
176
     1
 90
        0
176
     1
 40
-0.6
176
     1
 41
-30.0
176
     1
 62
     5
 63
     7
421
 16777215
176
     1
 74
     1
176
     1
 91
        4
176
     1
 64
     7
176
     1
 65
   257
176
     1
 75
     7
176
     1
175
     7
176
     1
 42
1.0
176
     1
 92
        8
176
     1
 66
     7
176
     1
 43
1.0
176
     1
 76
     1
176
     1
 77
     6
176
     1
 78
     2
176
     1
 67
     7
176
     1
 79
     5
176
     1
170
     0
176
     1
171
     0
176
     1
290
     0
176
     1
 93
        1
176
     1
 44
0.0
176
     1
173
     0
176
     1
  0
VISUALSTYLE
  5
3FF
102
{ACAD_REACTORS
330
2A
102
}
330
2A
100
AcDbVisualStyle
  2
OverhangOff
 70
    21
177
     2
291
     1
 71
     2
176
     0
 72
     2
176
     0
 73
     0
176
     0
 90
        0
176
     0
 40
0.6
176
     0
 41
30.0
176
     0
 62
     5
 63
     7
421
 16777215
176
     0
 74
     1
176
     0
 91
        4
176
     0
 64
     7
176
     0
 65
   257
176
     0
 75
     1
176
     0
175
     1
176
     0
 42
1.0
176
     0
 92
        9
176
     2
 66
     7
176
     0
 43
1.0
176
     0
 76
     1
176
     0
 77
     6
176
     0
 78
     2
176
     0
 67
     7
176
     0
 79
     5
176
     0
170
     0
176
     0
171
     0
176
     0
290
     0
176
     0
 93
        1
176
     0
 44
0.0
176
     0
173
     0
176
     0
  0
VISUALSTYLE
  5
33
102
{ACAD_REACTORS
330
2A
102
}
330
2A
100
AcDbVisualStyle
  2
Realistic
 70
     8
177
     2
291
     0
 71
     2
176
     1
 72
     2
176
     1
 73
     0
176
     1
 90
        0
176
     1
 40
-0.6
176
     1
 41
-30.0
176
     1
 62
     5
 63
     7
421
 16777215
176
     1
 74
     1
176
     1
 91
        0
176
     1
 64
     7
176
     1
 65
   257
176
     1
 75
     1
176
     1
175
     1
176
     1
 42
1.0
176
     1
 92
        8
176
     1
 66
     8
424
  7895160
176
     1
 43
1.0
176
     1
 76
     1
176
     1
 77
     6
176
     1
 78
     2
176
     1
 67
     7
176
     1
 79
     5
176
     1
170
     0
176
     1
171
     0
176
     1
290
     0
176
     1
 93
       13
176
     1
 44
0.0
176
     1
173
     0
176
     1
  0
VISUALSTYLE
  5
405
102
{ACAD_REACTORS
330
2A
102
}
330
2A
100
AcDbVisualStyle
  2
Shaded
 70
    27
177
     2
291
     0
 71
     2
176
     1
 72
     2
176
     1
 73
     1
176
     1
 90
        2
176
     1
 40
0.6
176
     1
 41
30.0
176
     1
 62
     5
 63
     7
421
 16777215
176
     1
 74
     0
176
     1
 91
        4
176
     1
 64
     7
176
     1
 65
   257
176
     1
 75
     1
176
     1
175
     1
176
     1
 42
1.0
176
     1
 92
        8
176
     1
 66
   257
176
     1
 43
1.0
176
     1
 76
     1
176
     1
 77
     6
176
     1
 78
     2
176
     1
 67
     8
425
  7895160
176
     1
 79
     3
176
     1
170
     0
176
     1
171
     0
176
     1
290
     0
176
     1
 93
        5
176
     1
 44
0.0
176
     1
173
     0
176
     1
  0
VISUALSTYLE
  5
404
102
{ACAD_REACTORS
330
2A
102
}
330
2A
100
AcDbVisualStyle
  2
Shaded with edges
 70
    26
177
     2
291
     0
 71
     2
176
     1
 72
     2
176
     1
 73
     1
176
     1
 90
        2
176
     1
 40
0.6
176
     1
 41
30.0
176
     1
 62
     5
 63
     7
421
 16777215
176
     1
 74
     1
176
     1
 91
       10
176
     1
 64
     7
176
     1
 65
   257
176
     1
 75
     2
176
     1
175
     1
176
     1
 42
1.0
176
     1
 92
        8
176
     1
 66
   257
176
     1
 43
1.0
176
     1
 76
     1
176
     1
 77
     6
176
     1
 78
     2
176
     1
 67
     7
176
     1
 79
     3
176
     1
170
     0
176
     1
171
     0
176
     1
290
     0
176
     1
 93
        5
176
     1
 44
0.0
176
     1
173
     0
176
     1
  0
VISUALSTYLE
  5
401
102
{ACAD_REACTORS
330
2A
102
}
330
2A
100
AcDbVisualStyle
  2
Shades of Gray
 70
    23
177
     2
291
     0
 71
     2
176
     1
 72
     2
176
     1
 73
     3
176
     1
 90
        0
176
     1
 40
0.6
176
     1
 41
30.0
176
     1
 62
     5
 63
     7
421
 16777215
176
     1
 74
     2
176
     1
 91
        2
176
     1
 64
     7
176
     1
 65
     7
176
     1
 75
     1
176
     1
175
     1
176
     1
 42
40.0
176
     1
 92
        8
176
     1
 66
     7
176
     1
 43
1.0
176
     1
 76
     1
176
     1
 77
     6
176
     1
 78
     2
176
     1
 67
     7
176
     1
 79
     3
176
     1
170
     0
176
     1
171
     0
176
     1
290
     0
176
     1
 93
        1
176
     1
 44
0.0
176
     1
173
     0
176
     1
  0
VISUALSTYLE
  5
402
102
{ACAD_REACTORS
330
2A
102
}
330
2A
100
AcDbVisualStyle
  2
Sketchy
 70
    24
177
     2
291
     0
 71
     1
176
     1
 72
     2
176
     1
 73
     2
176
     1
 90
        0
176
     1
 40
0.6
176
     1
 41
30.0
176
     1
 62
     5
 63
     7
421
 16777215
176
     1
 74
     2
176
     1
 91
        2
176
     1
 64
     7
176
     1
 65
     7
176
     1
 75
     1
176
     1
175
     1
176
     1
 42
40.0
176
     1
 92
       11
176
     1
 66
     7
176
     1
 43
1.0
176
     1
 76
     1
176
     1
 77
     6
176
     1
 78
     2
176
     1
 67
     7
176
     1
 79
     6
176
     1
170
     0
176
     1
171
     0
176
     1
290
     0
176
     1
 93
        1
176
     1
 44
0.0
176
     1
173
     0
176
     1
  0
VISUALSTYLE
  5
37
102
{ACAD_REACTORS
330
2A
102
}
330
2A
100
AcDbVisualStyle
  2
Thicken
 70
    13
177
     2
291
     1
 71
     2
176
     1
 72
     2
176
     1
 73
     0
176
     1
 90
        0
176
     1
 40
-0.6
176
     1
 41
-30.0
176
     1
 62
     5
 63
     7
421
 16777215
176
     1
 74
     1
176
     1
 91
        4
176
     1
 64
     7
176
     1
 65
   257
176
     1
 75
     1
176
     1
175
     1
176
     1
 42
1.0
176
     1
 92
       12
176
     1
 66
     7
176
     1
 43
1.0
176
     1
 76
     1
176
     1
 77
     6
176
     1
 78
     2
176
     1
 67
     7
176
     1
 79
     5
176
     1
170
     0
176
     1
171
     0
176
     1
290
     0
176
     1
 93
        1
176
     1
 44
0.0
176
     1
173
     0
176
     1
  0
VISUALSTYLE
  5
3FC
102
{ACAD_REACTORS
330
2A
102
}
330
2A
100
AcDbVisualStyle
  2
Wireframe
 70
     5
177
     2
291
     0
 71
     0
176
     1
 72
     2
176
     1
 73
     0
176
     1
 90
        0
176
     1
 40
0.6
176
     1
 41
30.0
176
     1
 62
     5
 63
     7
421
 16777215
176
     1
 74
     1
176
     1
 91
        4
176
     1
 64
     7
176
     1
 65
   257
176
     1
 75
     1
176
     1
175
     1
176
     1
 42
1.0
176
     1
 92
        0
176
     1
 66
   257
176
     1
 43
1.0
176
     1
 76
     1
176
     1
 77
     6
176
     1
 78
     2
176
     1
 67
     7
176
     1
 79
     3
176
     1
170
     0
176
     1
171
     0
176
     1
290
     0
176
     1
 93
        1
176
     1
 44
0.0
176
     1
173
     0
176
     1
  0
VISUALSTYLE
  5
403
102
{ACAD_REACTORS
330
2A
102
}
330
2A
100
AcDbVisualStyle
  2
X-Ray
 70
    25
177
     2
291
     0
 71
     2
176
     1
 72
     2
176
     1
 73
     1
176
     1
 90
        1
176
     1
 40
0.5
176
     1
 41
30.0
176
     1
 62
     5
 63
     7
421
 16777215
176
     1
 74
     1
176
     1
 91
        0
176
     1
 64
     7
176
     1
 65
   257
176
     1
 75
     1
176
     1
175
     1
176
     1
 42
1.0
176
     1
 92
        8
176
     1
 66
     7
176
     1
 43
1.0
176
     1
 76
     1
176
     1
 77
     6
176
     1
 78
     2
176
     1
 67
     7
176
     1
 79
     3
176
     1
170
     0
176
     1
171
     0
176
     1
290
     0
176
     1
 93
       13
176
     1
 44
0.0
176
     1
173
     0
176
     1
  0
DICTIONARYVAR
  5
410
102
{ACAD_REACTORS
330
40F
102
}
330
40F
100
DictionaryVariables
280
     0
  1
1:1
  0
DICTIONARYVAR
  5
415
102
{ACAD_REACTORS
330
40F
102
}
330
40F
100
DictionaryVariables
280
     0
  1
Standard
  0
DICTIONARYVAR
  5
414
102
{ACAD_REACTORS
330
40F
102
}
330
40F
100
DictionaryVariables
280
     0
  1
Standard
  0
DICTIONARY
  5
4FF
330
177
100
AcDbDictionary
280
     1
281
     1
  3
ACAD_ROUNDTRIP_2008_TABLESTYLE_CELLSTYLEMAP
360
500
  0
CELLSTYLEMAP
  5
500
102
{ACAD_REACTORS
330
4FF
102
}
330
4FF
100
AcDbCellStyleMap
 90
        3
300
CELLSTYLE
  1
TABLEFORMAT_BEGIN
 90
        5
170
     1
 91
        0
 92
        0
 62
   257
 93
        1
300
CONTENTFORMAT
  1
CONTENTFORMAT_BEGIN
 90
        0
 91
        0
 92
        4
 93
        0
300

 40
0.0
140
1.0
 94
        5
 62
     0
340
11
144
2.5
309
CONTENTFORMAT_END
171
     0
 94
        6
 95
        1
302
GRIDFORMAT
  1
GRIDFORMAT_BEGIN
 90
        0
 91
        1
 62
     0
 92
       -2
340
0
 93
        0
 40
0.045
309
GRIDFORMAT_END
 95
        2
302
GRIDFORMAT
  1
GRIDFORMAT_BEGIN
 90
        0
 91
        1
 62
     0
 92
       -2
340
0
 93
        0
 40
0.045
309
GRIDFORMAT_END
 95
        4
302
GRIDFORMAT
  1
GRIDFORMAT_BEGIN
 90
        0
 91
        1
 62
     0
 92
       -2
340
0
 93
        0
 40
0.045
309
GRIDFORMAT_END
 95
        8
302
GRIDFORMAT
  1
GRIDFORMAT_BEGIN
 90
        0
 91
        1
 62
     0
 92
       -2
340
0
 93
        0
 40
0.045
309
GRIDFORMAT_END
 95
       16
302
GRIDFORMAT
  1
GRIDFORMAT_BEGIN
 90
        0
 91
        1
 62
     0
 92
       -2
340
0
 93
        0
 40
0.045
309
GRIDFORMAT_END
 95
       32
302
GRIDFORMAT
  1
GRIDFORMAT_BEGIN
 90
        0
 91
        1
 62
     0
 92
       -2
340
0
 93
        0
 40
0.045
309
GRIDFORMAT_END
309
TABLEFORMAT_END
  1
CELLSTYLE_BEGIN
 90
        1
 91
        1
300
_TITLE
309
CELLSTYLE_END
300
CELLSTYLE
  1
TABLEFORMAT_BEGIN
 90
        5
170
     1
 91
        0
 92
        0
 62
   257
 93
        1
300
CONTENTFORMAT
  1
CONTENTFORMAT_BEGIN
 90
        0
 91
        0
 92
        4
 93
        0
300

 40
0.0
140
1.0
 94
        5
 62
     0
340
11
144
2.5
309
CONTENTFORMAT_END
171
     0
 94
        6
 95
        1
302
GRIDFORMAT
  1
GRIDFORMAT_BEGIN
 90
        0
 91
        1
 62
     0
 92
       -2
340
0
 93
        0
 40
0.045
309
GRIDFORMAT_END
 95
        2
302
GRIDFORMAT
  1
GRIDFORMAT_BEGIN
 90
        0
 91
        1
 62
     0
 92
       -2
340
0
 93
        0
 40
0.045
309
GRIDFORMAT_END
 95
        4
302
GRIDFORMAT
  1
GRIDFORMAT_BEGIN
 90
        0
 91
        1
 62
     0
 92
       -2
340
0
 93
        0
 40
0.045
309
GRIDFORMAT_END
 95
        8
302
GRIDFORMAT
  1
GRIDFORMAT_BEGIN
 90
        0
 91
        1
 62
     0
 92
       -2
340
0
 93
        0
 40
0.045
309
GRIDFORMAT_END
 95
       16
302
GRIDFORMAT
  1
GRIDFORMAT_BEGIN
 90
        0
 91
        1
 62
     0
 92
       -2
340
0
 93
        0
 40
0.045
309
GRIDFORMAT_END
 95
       32
302
GRIDFORMAT
  1
GRIDFORMAT_BEGIN
 90
        0
 91
        1
 62
     0
 92
       -2
340
0
 93
        0
 40
0.045
309
GRIDFORMAT_END
309
TABLEFORMAT_END
  1
CELLSTYLE_BEGIN
 90
        2
 91
        1
300
_HEADER
309
CELLSTYLE_END
300
CELLSTYLE
  1
TABLEFORMAT_BEGIN
 90
        5
170
     1
 91
        0
 92
        0
 62
   257
 93
        1
300
CONTENTFORMAT
  1
CONTENTFORMAT_BEGIN
 90
        0
 91
        0
 92
        4
 93
        0
300

 40
0.0
140
1.0
 94
        5
 62
     0
340
11
144
2.5
309
CONTENTFORMAT_END
171
     0
 94
        6
 95
        1
302
GRIDFORMAT
  1
GRIDFORMAT_BEGIN
 90
        0
 91
        1
 62
     0
 92
       -2
340
0
 93
        0
 40
0.045
309
GRIDFORMAT_END
 95
        2
302
GRIDFORMAT
  1
GRIDFORMAT_BEGIN
 90
        0
 91
        1
 62
     0
 92
       -2
340
0
 93
        0
 40
0.045
309
GRIDFORMAT_END
 95
        4
302
GRIDFORMAT
  1
GRIDFORMAT_BEGIN
 90
        0
 91
        1
 62
     0
 92
       -2
340
0
 93
        0
 40
0.045
309
GRIDFORMAT_END
 95
        8
302
GRIDFORMAT
  1
GRIDFORMAT_BEGIN
 90
        0
 91
        1
 62
     0
 92
       -2
340
0
 93
        0
 40
0.045
309
GRIDFORMAT_END
 95
       16
302
GRIDFORMAT
  1
GRIDFORMAT_BEGIN
 90
        0
 91
        1
 62
     0
 92
       -2
340
0
 93
        0
 40
0.045
309
GRIDFORMAT_END
 95
       32
302
GRIDFORMAT
  1
GRIDFORMAT_BEGIN
 90
        0
 91
        1
 62
     0
 92
       -2
340
0
 93
        0
 40
0.045
309
GRIDFORMAT_END
309
TABLEFORMAT_END
  1
CELLSTYLE_BEGIN
 90
        3
 91
        2
300
_DATA
309
CELLSTYLE_END
  0
ENDSEC
  0
EOF
