  0
SECTION
  2
HEADER
  9
$ACADVER
  1
AC1024
  9
$ACADMAINTVER
 70
     6
  9
$DWGCODEPAGE
  3
ANSI_1252
  9
$LASTSAVEDBY
  1
mehme
  9
$INSBASE
 10
0.0
 20
0.0
 30
0.0
  9
$EXTMIN
 10
699796.127251698
 20
4219079.36677447
 30
1587.599975585938
  9
$EXTMAX
 10
700716.923630215
 20
4220079.9103911
 30
1678.099975585938
  9
$LIMMIN
 10
0.0
 20
0.0
  9
$LIMMAX
 10
420.0
 20
297.0
  9
$ORTHOMODE
 70
     0
  9
$REGENMODE
 70
     1
  9
$FILLMODE
 70
     1
  9
$QTEXTMODE
 70
     0
  9
$MIRRTEXT
 70
     1
  9
$LTSCALE
 40
1.0
  9
$ATTMODE
 70
     1
  9
$TEXTSIZE
 40
2.5
  9
$TRACEWID
 40
1.0
  9
$TEXTSTYLE
  7
Standard
  9
$CLAYER
  8
INIT_COORD
  9
$CELTYPE
  6
ByLayer
  9
$CECOLOR
 62
   256
  9
$CELTSCALE
 40
1.0
  9
$DISPSILH
 70
     0
  9
$DIMSCALE
 40
1.0
  9
$DIMASZ
 40
2.5
  9
$DIMEXO
 40
0.625
  9
$DIMDLI
 40
3.75
  9
$DIMRND
 40
0.0
  9
$DIMDLE
 40
0.0
  9
$DIMEXE
 40
1.25
  9
$DIMTP
 40
0.0
  9
$DIMTM
 40
0.0
  9
$DIMTXT
 40
2.5
  9
$DIMCEN
 40
2.5
  9
$DIMTSZ
 40
0.0
  9
$DIMTOL
 70
     0
  9
$DIMLIM
 70
     0
  9
$DIMTIH
 70
     0
  9
$DIMTOH
 70
     0
  9
$DIMSE1
 70
     0
  9
$DIMSE2
 70
     0
  9
$DIMTAD
 70
     1
  9
$DIMZIN
 70
     8
  9
$DIMBLK
  1

  9
$DIMASO
 70
     1
  9
$DIMSHO
 70
     1
  9
$DIMPOST
  1

  9
$DIMAPOST
  1

  9
$DIMALT
 70
     0
  9
$DIMALTD
 70
     3
  9
$DIMALTF
 40
0.03937007874016
  9
$DIMLFAC
 40
1.0
  9
$DIMTOFL
 70
     1
  9
$DIMTVP
 40
0.0
  9
$DIMTIX
 70
     0
  9
$DIMSOXD
 70
     0
  9
$DIMSAH
 70
     0
  9
$DIMBLK1
  1

  9
$DIMBLK2
  1

  9
$DIMSTYLE
  2
ISO-25
  9
$DIMCLRD
 70
     0
  9
$DIMCLRE
 70
     0
  9
$DIMCLRT
 70
     0
  9
$DIMTFAC
 40
1.0
  9
$DIMGAP
 40
0.625
  9
$DIMJUST
 70
     0
  9
$DIMSD1
 70
     0
  9
$DIMSD2
 70
     0
  9
$DIMTOLJ
 70
     0
  9
$DIMTZIN
 70
     8
  9
$DIMALTZ
 70
     0
  9
$DIMALTTZ
 70
     0
  9
$DIMUPT
 70
     0
  9
$DIMDEC
 70
     2
  9
$DIMTDEC
 70
     2
  9
$DIMALTU
 70
     2
  9
$DIMALTTD
 70
     3
  9
$DIMTXSTY
  7
Standard
  9
$DIMAUNIT
 70
     0
  9
$DIMADEC
 70
     0
  9
$DIMALTRND
 40
0.0
  9
$DIMAZIN
 70
     0
  9
$DIMDSEP
 70
    44
  9
$DIMATFIT
 70
     3
  9
$DIMFRAC
 70
     0
  9
$DIMLDRBLK
  1

  9
$DIMLUNIT
 70
     2
  9
$DIMLWD
 70
    -2
  9
$DIMLWE
 70
    -2
  9
$DIMTMOVE
 70
     0
  9
$DIMFXL
 40
1.0
  9
$DIMFXLON
 70
     0
  9
$DIMJOGANG
 40
0.7853981633974483
  9
$DIMTFILL
 70
     0
  9
$DIMTFILLCLR
 70
     0
  9
$DIMARCSYM
 70
     0
  9
$DIMLTYPE
  6

  9
$DIMLTEX1
  6

  9
$DIMLTEX2
  6

  9
$DIMTXTDIRECTION
 70
     0
  9
$LUNITS
 70
     2
  9
$LUPREC
 70
     4
  9
$SKETCHINC
 40
1.0
  9
$FILLETRAD
 40
10.0
  9
$AUNITS
 70
     0
  9
$AUPREC
 70
     0
  9
$MENU
  1
.
  9
$ELEVATION
 40
0.0
  9
$PELEVATION
 40
0.0
  9
$THICKNESS
 40
0.0
  9
$LIMCHECK
 70
     0
  9
$CHAMFERA
 40
10.0
  9
$CHAMFERB
 40
10.0
  9
$CHAMFERC
 40
20.0
  9
$CHAMFERD
 40
0.0
  9
$SKPOLY
 70
     0
  9
$TDCREATE
 40
2457912.744512685
  9
$TDUCREATE
 40
2457912.619512685
  9
$TDUPDATE
 40
2457912.806946956
  9
$TDUUPDATE
 40
2457912.681946956
  9
$TDINDWG
 40
0.0029929282
  9
$TDUSRTIMER
 40
2457912.681438993
  9
$USRTIMER
 70
     1
  9
$ANGBASE
 50
0.0
  9
$ANGDIR
 70
     0
  9
$PDMODE
 70
     0
  9
$PDSIZE
 40
0.0
  9
$PLINEWID
 40
0.0
  9
$SPLFRAME
 70
     0
  9
$SPLINETYPE
 70
     6
  9
$SPLINESEGS
 70
     8
  9
$HANDSEED
  5
42B
  9
$SURFTAB1
 70
     6
  9
$SURFTAB2
 70
     6
  9
$SURFTYPE
 70
     6
  9
$SURFU
 70
     6
  9
$SURFV
 70
     6
  9
$UCSBASE
  2

  9
$UCSNAME
  2

  9
$UCSORG
 10
0.0
 20
0.0
 30
0.0
  9
$UCSXDIR
 10
1.0
 20
0.0
 30
0.0
  9
$UCSYDIR
 10
0.0
 20
1.0
 30
0.0
  9
$UCSORTHOREF
  2

  9
$UCSORTHOVIEW
 70
     1
  9
$UCSORGTOP
 10
0.0
 20
0.0
 30
0.0
  9
$UCSORGBOTTOM
 10
0.0
 20
0.0
 30
0.0
  9
$UCSORGLEFT
 10
0.0
 20
0.0
 30
0.0
  9
$UCSORGRIGHT
 10
0.0
 20
0.0
 30
0.0
  9
$UCSORGFRONT
 10
0.0
 20
0.0
 30
0.0
  9
$UCSORGBACK
 10
0.0
 20
0.0
 30
0.0
  9
$PUCSBASE
  2

  9
$PUCSNAME
  2

  9
$PUCSORG
 10
0.0
 20
0.0
 30
0.0
  9
$PUCSXDIR
 10
1.0
 20
0.0
 30
0.0
  9
$PUCSYDIR
 10
0.0
 20
1.0
 30
0.0
  9
$PUCSORTHOREF
  2

  9
$PUCSORTHOVIEW
 70
     0
  9
$PUCSORGTOP
 10
0.0
 20
0.0
 30
0.0
  9
$PUCSORGBOTTOM
 10
0.0
 20
0.0
 30
0.0
  9
$PUCSORGLEFT
 10
0.0
 20
0.0
 30
0.0
  9
$PUCSORGRIGHT
 10
0.0
 20
0.0
 30
0.0
  9
$PUCSORGFRONT
 10
0.0
 20
0.0
 30
0.0
  9
$PUCSORGBACK
 10
0.0
 20
0.0
 30
0.0
  9
$USERI1
 70
     0
  9
$USERI2
 70
     0
  9
$USERI3
 70
     0
  9
$USERI4
 70
     0
  9
$USERI5
 70
     0
  9
$USERR1
 40
0.0
  9
$USERR2
 40
0.0
  9
$USERR3
 40
0.0
  9
$USERR4
 40
0.0
  9
$USERR5
 40
0.0
  9
$WORLDVIEW
 70
     1
  9
$SHADEDGE
 70
     3
  9
$SHADEDIF
 70
    70
  9
$TILEMODE
 70
     1
  9
$MAXACTVP
 70
    64
  9
$PINSBASE
 10
0.0
 20
0.0
 30
0.0
  9
$PLIMCHECK
 70
     0
  9
$PEXTMIN
 10
1.000000000000000E+20
 20
1.000000000000000E+20
 30
1.000000000000000E+20
  9
$PEXTMAX
 10
-1.000000000000000E+20
 20
-1.000000000000000E+20
 30
-1.000000000000000E+20
  9
$PLIMMIN
 10
0.0
 20
0.0
  9
$PLIMMAX
 10
0.0
 20
0.0
  9
$UNITMODE
 70
     0
  9
$VISRETAIN
 70
     1
  9
$PLINEGEN
 70
     0
  9
$PSLTSCALE
 70
     1
  9
$TREEDEPTH
 70
  3020
  9
$CMLSTYLE
  2
Standard
  9
$CMLJUST
 70
     0
  9
$CMLSCALE
 40
20.0
  9
$PROXYGRAPHICS
 70
     1
  9
$MEASUREMENT
 70
     1
  9
$CELWEIGHT
370
    -1
  9
$ENDCAPS
280
     0
  9
$JOINSTYLE
280
     0
  9
$LWDISPLAY
290
     0
  9
$INSUNITS
 70
     4
  9
$HYPERLINKBASE
  1

  9
$STYLESHEET
  1

  9
$XEDIT
290
     1
  9
$CEPSNTYPE
380
     0
  9
$PSTYLEMODE
290
     1
  9
$FINGERPRINTGUID
  2
{7163108B-F441-40BB-A9DA-DA7C2886A1E2}
  9
$VERSIONGUID
  2
{FAEB1C32-E019-11D5-929B-00C0DF256EC4}
  9
$EXTNAMES
290
     1
  9
$PSVPSCALE
 40
0.0
  9
$OLESTARTUP
290
     0
  9
$SORTENTS
280
   127
  9
$INDEXCTL
280
     0
  9
$HIDETEXT
280
     1
  9
$XCLIPFRAME
280
     2
  9
$HALOGAP
280
     0
  9
$OBSCOLOR
 70
   257
  9
$OBSLTYPE
280
     0
  9
$INTERSECTIONDISPLAY
280
     0
  9
$INTERSECTIONCOLOR
 70
   257
  9
$DIMASSOC
280
     2
  9
$PROJECTNAME
  1

  9
$CAMERADISPLAY
290
     0
  9
$LENSLENGTH
 40
50.0
  9
$CAMERAHEIGHT
 40
0.0
  9
$STEPSPERSEC
 40
2.0
  9
$STEPSIZE
 40
6.0
  9
$3DDWFPREC
 40
2.0
  9
$PSOLWIDTH
 40
5.0
  9
$PSOLHEIGHT
 40
80.0
  9
$LOFTANG1
 40
1.570796326794897
  9
$LOFTANG2
 40
1.570796326794897
  9
$LOFTMAG1
 40
0.0
  9
$LOFTMAG2
 40
0.0
  9
$LOFTPARAM
 70
     7
  9
$LOFTNORMALS
280
     1
  9
$LATITUDE
 40
37.795
  9
$LONGITUDE
 40
-122.394
  9
$NORTHDIRECTION
 40
0.0
  9
$TIMEZONE
 70
 -8000
  9
$LIGHTGLYPHDISPLAY
280
     1
  9
$TILEMODELIGHTSYNCH
280
     1
  9
$SOLIDHIST
280
     1
  9
$SHOWHIST
280
     1
  9
$DWFFRAME
280
     2
  9
$DGNFRAME
280
     2
  9
$REALWORLDSCALE
290
     1
  9
$INTERFERECOLOR
 62
   256
  9
$CSHADOW
280
     0
  9
$SHADOWPLANELOCATION
 40
0.0
  0
ENDSEC
  0
SECTION
  2
CLASSES
  0
CLASS
  1
ACDBDICTIONARYWDFLT
  2
AcDbDictionaryWithDefault
  3
ObjectDBX Classes
 90
        0
 91
        7
280
     0
281
     0
  0
CLASS
  1
VISUALSTYLE
  2
AcDbVisualStyle
  3
ObjectDBX Classes
 90
     4095
 91
        7
280
     0
281
     0
  0
CLASS
  1
MATERIAL
  2
AcDbMaterial
  3
ObjectDBX Classes
 90
     1153
 91
        7
280
     0
281
     0
  0
CLASS
  1
SCALE
  2
AcDbScale
  3
ObjectDBX Classes
 90
     1153
 91
        7
280
     0
281
     0
  0
CLASS
  1
DICTIONARYVAR
  2
AcDbDictionaryVar
  3
ObjectDBX Classes
 90
        0
 91
        7
280
     0
281
     0
  0
CLASS
  1
TABLESTYLE
  2
AcDbTableStyle
  3
ObjectDBX Classes
 90
     4095
 91
        7
280
     0
281
     0
  0
CLASS
  1
MLEADERSTYLE
  2
AcDbMLeaderStyle
  3
ACDB_MLEADERSTYLE_CLASS
 90
     4095
 91
        7
280
     0
281
     0
  0
CLASS
  1
SUN
  2
AcDbSun
  3
SCENEOE
 90
     1153
 91
        7
280
     0
281
     0
  0
CLASS
  1
RASTERVARIABLES
  2
AcDbRasterVariables
  3
ISM
 90
        0
 91
        7
280
     0
281
     0
  0
CLASS
  1
CELLSTYLEMAP
  2
AcDbCellStyleMap
  3
ObjectDBX Classes
 90
     1152
 91
        7
280
     0
281
     0
  0
ENDSEC
  0
SECTION
  2
TABLES
  0
TABLE
  2
VPORT
  5
8
330
0
100
AcDbSymbolTable
 70
     1
  0
VPORT
  5
29
330
8
100
AcDbSymbolTableRecord
100
AcDbViewportTableRecord
  2
*Active
 70
     0
 10
0.0
 20
0.0
 11
1.0
 21
1.0
 12
-251417.5187563197
 22
4235374.527896281
 13
0.0
 23
0.0
 14
10.0
 24
10.0
 15
10.0
 25
10.0
 16
0.0
 26
0.0
 36
1.0
 17
951666.4344177139
 27
-15733.74222739507
 37
-540662.4195746654
 40
1605.942628618328
 41
1.983490566037736
 42
50.0
 43
0.0
 44
0.0
 50
0.0
 51
0.0
 71
    16
 72
   100
 73
     1
 74
     3
 75
     0
 76
     0
 77
     0
 78
     0
281
     0
 65
     1
110
0.0
120
0.0
130
0.0
111
1.0
121
0.0
131
0.0
112
0.0
122
1.0
132
0.0
 79
     1
146
0.0
348
2F
 60
     3
 61
     5
292
     1
282
     1
141
0.0
142
0.0
 63
   250
361
3D7
  0
ENDTAB
  0
TABLE
  2
LTYPE
  5
5
330
0
100
AcDbSymbolTable
 70
     1
  0
LTYPE
  5
14
330
5
100
AcDbSymbolTableRecord
100
AcDbLinetypeTableRecord
  2
ByBlock
 70
     0
  3

 72
    65
 73
     0
 40
0.0
  0
LTYPE
  5
15
330
5
100
AcDbSymbolTableRecord
100
AcDbLinetypeTableRecord
  2
ByLayer
 70
     0
  3

 72
    65
 73
     0
 40
0.0
  0
LTYPE
  5
16
330
5
100
AcDbSymbolTableRecord
100
AcDbLinetypeTableRecord
  2
Continuous
 70
     0
  3
Solid line
 72
    65
 73
     0
 40
0.0
  0
ENDTAB
  0
TABLE
  2
LAYER
  5
2
102
{ACAD_XDICTIONARY
360
405
102
}
330
0
100
AcDbSymbolTable
 70
    31
  0
LAYER
  5
10
330
2
100
AcDbSymbolTableRecord
100
AcDbLayerTableRecord
  2
0
 70
     0
 62
     7
  6
Continuous
370
    -3
390
F
347
3E
  0
LAYER
  5
3F
330
2
100
AcDbSymbolTableRecord
100
AcDbLayerTableRecord
  2
ANAGAL
 70
     0
 62
     3
  6
Continuous
370
     0
390
F
347
3E
  0
LAYER
  5
40
330
2
100
AcDbSymbolTableRecord
100
AcDbLayerTableRecord
  2
1_KAT
 70
     0
 62
     6
  6
Continuous
370
     0
390
F
347
3E
  0
LAYER
  5
41
330
2
100
AcDbSymbolTableRecord
100
AcDbLayerTableRecord
  2
1677_390_DESENDRE
 70
     0
 62
    44
  6
Continuous
370
     0
390
F
347
3E
  0
LAYER
  5
42
330
2
100
AcDbSymbolTableRecord
100
AcDbLayerTableRecord
  2
OLUK
 70
     0
 62
     5
  6
Continuous
370
     0
390
F
347
3E
  0
LAYER
  5
43
330
2
100
AcDbSymbolTableRecord
100
AcDbLayerTableRecord
  2
1660_1_KAT
 70
     4
 62
    12
  6
Continuous
370
     0
390
F
347
3E
  0
LAYER
  5
44
330
2
100
AcDbSymbolTableRecord
100
AcDbLayerTableRecord
  2
POL
 70
     0
 62
     5
  6
Continuous
370
     0
390
F
347
3E
  0
LAYER
  5
45
330
2
100
AcDbSymbolTableRecord
100
AcDbLayerTableRecord
  2
YOL
 70
     0
 62
    20
  6
Continuous
370
     0
390
F
347
3E
  0
LAYER
  5
46
330
2
100
AcDbSymbolTableRecord
100
AcDbLayerTableRecord
  2
YKN
 70
     0
 62
     2
  6
Continuous
370
     0
390
F
347
3E
  0
LAYER
  5
47
330
2
100
AcDbSymbolTableRecord
100
AcDbLayerTableRecord
  2
ESKI_IM
 70
     4
 62
     2
  6
Continuous
370
     0
390
F
347
3E
  0
LAYER
  5
48
330
2
100
AcDbSymbolTableRecord
100
AcDbLayerTableRecord
  2
1630_2_KAT
 70
     0
 62
    94
  6
Continuous
370
     0
390
F
347
3E
  0
LAYER
  5
49
330
2
100
AcDbSymbolTableRecord
100
AcDbLayerTableRecord
  2
ARAKAT
 70
     0
 62
    54
  6
Continuous
370
     0
390
F
347
3E
  0
LAYER
  5
4A
330
2
100
AcDbSymbolTableRecord
100
AcDbLayerTableRecord
  2
1630
 70
     0
 62
    18
  6
Continuous
370
     0
390
F
347
3E
  0
LAYER
  5
4B
330
2
100
AcDbSymbolTableRecord
100
AcDbLayerTableRecord
  2
OLUK_FERE
 70
     0
 62
   176
  6
Continuous
370
     0
390
F
347
3E
  0
LAYER
  5
4C
330
2
100
AcDbSymbolTableRecord
100
AcDbLayerTableRecord
  2
YENINOKTA
 70
     0
 62
    18
  6
Continuous
370
     0
390
F
347
3E
  0
LAYER
  5
4D
330
2
100
AcDbSymbolTableRecord
100
AcDbLayerTableRecord
  2
AKSES_POINT
 70
     0
 62
   152
  6
Continuous
370
     0
390
F
347
3E
  0
LAYER
  5
4E
330
2
100
AcDbSymbolTableRecord
100
AcDbLayerTableRecord
  2
NADI
 70
     0
 62
     7
  6
Continuous
370
     0
390
F
347
3E
  0
LAYER
  5
4F
330
2
100
AcDbSymbolTableRecord
100
AcDbLayerTableRecord
  2
NKOT
 70
     0
 62
     1
  6
Continuous
370
     0
390
F
347
3E
  0
LAYER
  5
50
330
2
100
AcDbSymbolTableRecord
100
AcDbLayerTableRecord
  2
NKOD
 70
     0
 62
     2
  6
Continuous
370
     0
390
F
347
3E
  0
LAYER
  5
51
330
2
100
AcDbSymbolTableRecord
100
AcDbLayerTableRecord
  2
ROL_Z
 70
     0
 62
   176
  6
Continuous
370
     0
390
F
347
3E
  0
LAYER
  5
52
330
2
100
AcDbSymbolTableRecord
100
AcDbLayerTableRecord
  2
AKSESPOINT
 70
     0
 62
   151
  6
Continuous
370
     0
390
F
347
3E
  0
LAYER
  5
53
330
2
100
AcDbSymbolTableRecord
100
AcDbLayerTableRecord
  2
YENI2
 70
     4
 62
     6
  6
Continuous
370
     0
390
F
347
3E
  0
LAYER
  5
54
330
2
100
AcDbSymbolTableRecord
100
AcDbLayerTableRecord
  2
1680KOTU
 70
     0
 62
    52
  6
Continuous
370
     0
390
F
347
3E
  0
LAYER
  5
55
330
2
100
AcDbSymbolTableRecord
100
AcDbLayerTableRecord
  2
IKINCIKAT
 70
     4
 62
    30
  6
Continuous
370
     0
390
F
347
3E
  0
LAYER
  5
56
330
2
100
AcDbSymbolTableRecord
100
AcDbLayerTableRecord
  2
BIRINCIKAT
 70
     0
 62
     5
  6
Continuous
370
     0
390
F
347
3E
  0
LAYER
  5
57
330
2
100
AcDbSymbolTableRecord
100
AcDbLayerTableRecord
  2
NEFESLIK
 70
     4
 62
   144
  6
Continuous
370
     0
390
F
347
3E
  0
LAYER
  5
58
330
2
100
AcDbSymbolTableRecord
100
AcDbLayerTableRecord
  2
ANADESENDRE
 70
     0
 62
     8
  6
Continuous
370
     0
390
F
347
3E
  0
LAYER
  5
59
330
2
100
AcDbSymbolTableRecord
100
AcDbLayerTableRecord
  2
BINA
 70
     4
 62
     3
  6
Continuous
370
     0
390
F
347
3E
  0
LAYER
  5
3E0
330
2
100
AcDbSymbolTableRecord
100
AcDbLayerTableRecord
  2
GEOFENCE
 70
     0
 62
     3
  6
Continuous
370
     0
390
F
347
3E
1001
AcAecLayerStandard
1000

1000

  0
LAYER
  5
3E3
330
2
100
AcDbSymbolTableRecord
100
AcDbLayerTableRecord
  2
TEXT
 70
     4
 62
     2
  6
Continuous
370
     0
390
F
347
3E
1001
AcAecLayerStandard
1000

1000

  0
LAYER
  5
410
330
2
100
AcDbSymbolTableRecord
100
AcDbLayerTableRecord
  2
INIT_COORD
 70
     4
 62
     7
  6
Continuous
370
    -3
390
F
347
3E
1001
AcAecLayerStandard
1000

1000

  0
ENDTAB
  0
TABLE
  2
STYLE
  5
3
330
0
100
AcDbSymbolTable
 70
     1
  0
STYLE
  5
11
330
3
100
AcDbSymbolTableRecord
100
AcDbTextStyleTableRecord
  2
Standard
 70
     0
 40
0.0
 41
1.0
 50
0.0
 71
     0
 42
2.5
  3
C:\Windows\Font\TIMES.TTF
  4

  0
ENDTAB
  0
TABLE
  2
VIEW
  5
6
330
0
100
AcDbSymbolTable
 70
     0
  0
ENDTAB
  0
TABLE
  2
UCS
  5
7
330
0
100
AcDbSymbolTable
 70
     0
  0
ENDTAB
  0
TABLE
  2
APPID
  5
9
330
0
100
AcDbSymbolTable
 70
     2
  0
APPID
  5
12
330
9
100
AcDbSymbolTableRecord
100
AcDbRegAppTableRecord
  2
ACAD
 70
     0
  0
APPID
  5
3E2
330
9
100
AcDbSymbolTableRecord
100
AcDbRegAppTableRecord
  2
AcAecLayerStandard
 70
     0
  0
ENDTAB
  0
TABLE
  2
DIMSTYLE
  5
A
330
0
100
AcDbSymbolTable
 70
     1
100
AcDbDimStyleTable
  0
DIMSTYLE
105
27
330
A
100
AcDbSymbolTableRecord
100
AcDbDimStyleTableRecord
  2
ISO-25
 70
     0
 41
2.5
 42
0.625
 43
3.75
 44
1.25
 73
     0
 74
     0
 77
     1
 78
     8
140
2.5
141
2.5
143
0.03937007874016
147
0.625
171
     3
172
     1
178
     0
271
     2
272
     2
274
     3
278
    44
283
     0
284
     8
340
11
  0
ENDTAB
  0
TABLE
  2
BLOCK_RECORD
  5
1
330
0
100
AcDbSymbolTable
 70
     6
  0
BLOCK_RECORD
  5
1F
330
1
100
AcDbSymbolTableRecord
100
AcDbBlockTableRecord
  2
*Model_Space
340
22
 70
     0
280
     1
281
     0
  0
BLOCK_RECORD
  5
1B
330
1
100
AcDbSymbolTableRecord
100
AcDbBlockTableRecord
  2
*Paper_Space
340
1E
 70
     0
280
     1
281
     0
  0
BLOCK_RECORD
  5
23
330
1
100
AcDbSymbolTableRecord
100
AcDbBlockTableRecord
  2
*Paper_Space0
340
26
 70
     0
280
     1
281
     0
  0
BLOCK_RECORD
  5
5B
330
1
100
AcDbSymbolTableRecord
100
AcDbBlockTableRecord
  2
70
340
0
102
{BLKREFS
331
0
331
0
331
0
331
0
331
0
331
0
331
0
331
0
331
0
331
0
331
0
331
0
331
0
331
0
331
0
331
0
331
0
331
0
331
0
331
0
331
0
331
0
331
0
331
0
331
0
331
0
331
0
331
0
331
0
331
0
331
0
331
0
331
0
331
0
331
0
331
0
331
0
331
0
331
0
331
0
331
0
331
0
331
0
331
0
331
0
331
0
331
0
331
0
331
0
331
0
331
0
331
0
331
0
331
0
331
0
331
0
331
0
331
0
331
0
331
0
331
0
331
0
331
0
102
}
 70
     0
280
     1
281
     0
  0
BLOCK_RECORD
  5
82
330
1
100
AcDbSymbolTableRecord
100
AcDbBlockTableRecord
  2
237
340
0
102
{BLKREFS
331
0
102
}
 70
     0
280
     1
281
     0
  0
BLOCK_RECORD
  5
15C
330
1
100
AcDbSymbolTableRecord
100
AcDbBlockTableRecord
  2
0
340
0
102
{BLKREFS
331
15F
331
161
331
163
331
165
331
167
331
297
331
299
331
29B
102
}
 70
     0
280
     1
281
     0
  0
BLOCK_RECORD
  5
16A
330
1
100
AcDbSymbolTableRecord
100
AcDbBlockTableRecord
  2
2
340
0
102
{BLKREFS
331
0
102
}
 70
     0
280
     1
281
     0
  0
ENDTAB
  0
ENDSEC
  0
SECTION
  2
BLOCKS
  0
BLOCK
  5
20
330
1F
100
AcDbEntity
  8
0
100
AcDbBlockBegin
  2
*Model_Space
 70
     0
 10
0.0
 20
0.0
 30
0.0
  3
*Model_Space
  1

  0
ENDBLK
  5
21
330
1F
100
AcDbEntity
  8
0
100
AcDbBlockEnd
  0
BLOCK
  5
1C
330
1B
100
AcDbEntity
 67
     1
  8
0
100
AcDbBlockBegin
  2
*Paper_Space
 70
     0
 10
0.0
 20
0.0
 30
0.0
  3
*Paper_Space
  1

  0
ENDBLK
  5
1D
330
1B
100
AcDbEntity
 67
     1
  8
0
100
AcDbBlockEnd
  0
BLOCK
  5
24
330
23
100
AcDbEntity
  8
0
100
AcDbBlockBegin
  2
*Paper_Space0
 70
     0
 10
0.0
 20
0.0
 30
0.0
  3
*Paper_Space0
  1

  0
ENDBLK
  5
25
330
23
100
AcDbEntity
  8
0
100
AcDbBlockEnd
  0
BLOCK
  5
5C
330
5B
100
AcDbEntity
  8
0
100
AcDbBlockBegin
  2
70
 70
     0
 10
0.0
 20
0.0
 30
0.0
  3
70
  1

  0
CIRCLE
  5
5E
330
5B
100
AcDbEntity
  8
POL
370
     0
100
AcDbCircle
 10
0.0
 20
0.0
 30
1660.0
 40
1.200000047683716
  0
ENDBLK
  5
5D
330
5B
100
AcDbEntity
  8
0
100
AcDbBlockEnd
  0
BLOCK
  5
83
330
82
100
AcDbEntity
  8
0
100
AcDbBlockBegin
  2
237
 70
     0
 10
0.0
 20
0.0
 30
0.0
  3
237
  1

  0
LINE
  5
85
330
82
100
AcDbEntity
  8
ANAGAL
370
     0
100
AcDbLine
 10
-1.275000035762787
 20
0.0
 30
1660.0
 11
-1.195312533527613
 21
0.5578125156462193
 31
1660.0
  0
LINE
  5
86
330
82
100
AcDbEntity
  8
ANAGAL
370
     0
100
AcDbLine
 10
-1.195312533527613
 20
0.5578125156462193
 30
1660.0
 11
-0.9562500268220901
 21
1.514062542468309
 31
1660.0
  0
LINE
  5
87
330
82
100
AcDbEntity
  8
ANAGAL
370
     0
100
AcDbLine
 10
-0.9562500268220901
 20
1.514062542468309
 30
1660.0
 11
-0.7968750223517418
 21
1.91250005364418
 31
1660.0
  0
LINE
  5
88
330
82
100
AcDbEntity
  8
ANAGAL
370
     0
100
AcDbLine
 10
-0.7968750223517418
 20
1.91250005364418
 30
1660.0
 11
-0.5578125156462193
 21
2.231250062584877
 31
1660.0
  0
LINE
  5
89
330
82
100
AcDbEntity
  8
ANAGAL
370
     0
100
AcDbLine
 10
-0.5578125156462193
 20
2.231250062584877
 30
1660.0
 11
-0.2390625067055225
 21
2.390625067055225
 31
1660.0
  0
LINE
  5
8A
330
82
100
AcDbEntity
  8
ANAGAL
370
     0
100
AcDbLine
 10
-0.2390625067055225
 20
2.390625067055225
 30
1660.0
 11
0.2390625067055225
 21
2.390625067055225
 31
1660.0
  0
LINE
  5
8B
330
82
100
AcDbEntity
  8
ANAGAL
370
     0
100
AcDbLine
 10
0.2390625067055225
 20
2.390625067055225
 30
1660.0
 11
0.5578125156462193
 21
2.231250062584877
 31
1660.0
  0
LINE
  5
8C
330
82
100
AcDbEntity
  8
ANAGAL
370
     0
100
AcDbLine
 10
0.5578125156462193
 20
2.231250062584877
 30
1660.0
 11
0.7968750223517418
 21
1.91250005364418
 31
1660.0
  0
LINE
  5
8D
330
82
100
AcDbEntity
  8
ANAGAL
370
     0
100
AcDbLine
 10
0.7968750223517418
 20
1.91250005364418
 30
1660.0
 11
0.9562500268220901
 21
1.514062542468309
 31
1660.0
  0
LINE
  5
8E
330
82
100
AcDbEntity
  8
ANAGAL
370
     0
100
AcDbLine
 10
0.9562500268220901
 20
1.514062542468309
 30
1660.0
 11
1.195312533527613
 21
0.5578125156462193
 31
1660.0
  0
LINE
  5
8F
330
82
100
AcDbEntity
  8
ANAGAL
370
     0
100
AcDbLine
 10
1.195312533527613
 20
0.5578125156462193
 30
1660.0
 11
1.275000035762787
 21
0.0
 31
1660.0
  0
LINE
  5
90
330
82
100
AcDbEntity
  8
ANAGAL
370
     0
100
AcDbLine
 10
-1.275000035762787
 20
0.0796875022351742
 30
1660.0
 11
-1.035937529057264
 21
0.0796875022351742
 31
1660.0
  0
LINE
  5
91
330
82
100
AcDbEntity
  8
ANAGAL
370
     0
100
AcDbLine
 10
-1.195312533527613
 20
0.5578125156462193
 30
1660.0
 11
-0.9562500268220901
 21
0.5578125156462193
 31
1660.0
  0
LINE
  5
92
330
82
100
AcDbEntity
  8
ANAGAL
370
     0
100
AcDbLine
 10
-1.035937529057264
 20
1.195312533527613
 30
1660.0
 11
-0.7968750223517418
 21
1.115625031292439
 31
1660.0
  0
LINE
  5
93
330
82
100
AcDbEntity
  8
ANAGAL
370
     0
100
AcDbLine
 10
-0.2390625067055225
 20
2.390625067055225
 30
1660.0
 11
-0.2390625067055225
 21
2.151562560349703
 31
1660.0
  0
LINE
  5
94
330
82
100
AcDbEntity
  8
ANAGAL
370
     0
100
AcDbLine
 10
0.0
 20
2.390625067055225
 30
1660.0
 11
0.0
 21
2.151562560349703
 31
1660.0
  0
LINE
  5
95
330
82
100
AcDbEntity
  8
ANAGAL
370
     0
100
AcDbLine
 10
0.2390625067055225
 20
2.390625067055225
 30
1660.0
 11
0.2390625067055225
 21
2.151562560349703
 31
1660.0
  0
LINE
  5
96
330
82
100
AcDbEntity
  8
ANAGAL
370
     0
100
AcDbLine
 10
0.5578125156462193
 20
2.231250062584877
 30
1660.0
 11
0.3984375111758709
 21
1.992187555879354
 31
1660.0
  0
LINE
  5
97
330
82
100
AcDbEntity
  8
ANAGAL
370
     0
100
AcDbLine
 10
0.7968750223517418
 20
1.91250005364418
 30
1660.0
 11
0.5578125156462193
 21
1.753125049173832
 31
1660.0
  0
LINE
  5
98
330
82
100
AcDbEntity
  8
ANAGAL
370
     0
100
AcDbLine
 10
0.9562500268220901
 20
1.514062542468309
 30
1660.0
 11
0.7171875201165676
 21
1.434375040233135
 31
1660.0
  0
LINE
  5
99
330
82
100
AcDbEntity
  8
ANAGAL
370
     0
100
AcDbLine
 10
1.035937529057264
 20
1.115625031292439
 30
1660.0
 11
0.7968750223517418
 21
1.035937529057264
 31
1660.0
  0
LINE
  5
9A
330
82
100
AcDbEntity
  8
ANAGAL
370
     0
100
AcDbLine
 10
1.195312533527613
 20
0.5578125156462193
 30
1660.0
 11
0.9562500268220901
 21
0.5578125156462193
 31
1660.0
  0
LINE
  5
9B
330
82
100
AcDbEntity
  8
ANAGAL
370
     0
100
AcDbLine
 10
1.275000035762787
 20
0.0796875022351742
 30
1660.0
 11
1.035937529057264
 21
0.0796875022351742
 31
1660.0
  0
LINE
  5
9C
330
82
100
AcDbEntity
  8
ANAGAL
370
     0
100
AcDbLine
 10
-1.115625031292439
 20
0.876562524586916
 30
1660.0
 11
-0.876562524586916
 21
0.7968750223517418
 31
1660.0
  0
LINE
  5
9D
330
82
100
AcDbEntity
  8
ANAGAL
370
     0
100
AcDbLine
 10
-0.9562500268220901
 20
1.514062542468309
 30
1660.0
 11
-0.7171875201165676
 21
1.434375040233135
 31
1660.0
  0
POINT
  5
9E
330
82
100
AcDbEntity
  8
ANAGAL
370
     0
100
AcDbPoint
 10
-0.7968750223517418
 20
1.91250005364418
 30
1660.0
  0
LINE
  5
9F
330
82
100
AcDbEntity
  8
ANAGAL
370
     0
100
AcDbLine
 10
-0.7968750223517418
 20
1.91250005364418
 30
1660.0
 11
-0.5578125156462193
 21
1.753125049173832
 31
1660.0
  0
LINE
  5
A0
330
82
100
AcDbEntity
  8
ANAGAL
370
     0
100
AcDbLine
 10
1.195312533527613
 20
0.3187500089406967
 30
1660.0
 11
0.9562500268220901
 21
0.3187500089406967
 31
1660.0
  0
LINE
  5
A1
330
82
100
AcDbEntity
  8
ANAGAL
370
     0
100
AcDbLine
 10
-1.195312533527613
 20
0.3187500089406967
 30
1660.0
 11
-0.9562500268220901
 21
0.3187500089406967
 31
1660.0
  0
LINE
  5
A2
330
82
100
AcDbEntity
  8
ANAGAL
370
     0
100
AcDbLine
 10
1.115625031292439
 20
0.876562524586916
 30
1660.0
 11
0.876562524586916
 21
0.7968750223517418
 31
1660.0
  0
LINE
  5
A3
330
82
100
AcDbEntity
  8
ANAGAL
370
     0
100
AcDbLine
 10
-0.5578125156462193
 20
2.231250062584877
 30
1660.0
 11
-0.3984375111758709
 21
1.992187555879354
 31
1660.0
  0
ENDBLK
  5
84
330
82
100
AcDbEntity
  8
0
100
AcDbBlockEnd
  0
BLOCK
  5
15D
330
15C
100
AcDbEntity
  8
0
100
AcDbBlockBegin
  2
0
 70
     0
 10
0.0
 20
0.0
 30
0.0
  3
0
  1

  0
ENDBLK
  5
15E
330
15C
100
AcDbEntity
  8
0
100
AcDbBlockEnd
  0
BLOCK
  5
16B
330
16A
100
AcDbEntity
  8
0
100
AcDbBlockBegin
  2
2
 70
     0
 10
0.0
 20
0.0
 30
0.0
  3
2
  1

  0
LINE
  5
16D
330
16A
100
AcDbEntity
  8
OLUK_FERE
370
     0
100
AcDbLine
 10
-1.399999976158142
 20
1.399999976158142
 30
1660.0
 11
1.399999976158142
 21
1.399999976158142
 31
1660.0
  0
LINE
  5
16E
330
16A
100
AcDbEntity
  8
OLUK_FERE
370
     0
100
AcDbLine
 10
1.399999976158142
 20
1.399999976158142
 30
1660.0
 11
1.399999976158142
 21
-1.399999976158142
 31
1660.0
  0
LINE
  5
16F
330
16A
100
AcDbEntity
  8
OLUK_FERE
370
     0
100
AcDbLine
 10
1.399999976158142
 20
-1.399999976158142
 30
1660.0
 11
-1.399999976158142
 21
-1.399999976158142
 31
1660.0
  0
LINE
  5
170
330
16A
100
AcDbEntity
  8
OLUK_FERE
370
     0
100
AcDbLine
 10
-1.399999976158142
 20
-1.399999976158142
 30
1660.0
 11
-1.399999976158142
 21
1.399999976158142
 31
1660.0
  0
LINE
  5
171
330
16A
100
AcDbEntity
  8
OLUK_FERE
370
     0
100
AcDbLine
 10
-1.399999976158142
 20
1.399999976158142
 30
1660.0
 11
1.399999976158142
 21
-1.399999976158142
 31
1660.0
  0
LINE
  5
172
330
16A
100
AcDbEntity
  8
OLUK_FERE
370
     0
100
AcDbLine
 10
1.399999976158142
 20
1.399999976158142
 30
1660.0
 11
-1.399999976158142
 21
-1.399999976158142
 31
1660.0
  0
ENDBLK
  5
16C
330
16A
100
AcDbEntity
  8
0
100
AcDbBlockEnd
  0
ENDSEC
  0
SECTION
  2
ENTITIES
  0
LINE
  5
109
330
1F
100
AcDbEntity
  8
IKINCIKAT
370
    13
100
AcDbLine
 10
700396.059432924
 20
4219922.490561644
 30
1631.969970703125
 11
700402.0971067644
 21
4219932.460960724
 31
1632.204467773438
  0
LINE
  5
10A
330
1F
100
AcDbEntity
  8
IKINCIKAT
370
    13
100
AcDbLine
 10
700402.0971067644
 20
4219932.460960724
 30
1632.204467773438
 11
700405.3277182806
 21
4219937.795877273
 31
1632.329956054688
  0
LINE
  5
10B
330
1F
100
AcDbEntity
  8
IKINCIKAT
370
    13
100
AcDbLine
 10
700405.3277182806
 20
4219937.795877273
 30
1632.329956054688
 11
700422.2979293477
 21
4219956.038690175
 31
1632.834716796875
  0
LINE
  5
10C
330
1F
100
AcDbEntity
  8
IKINCIKAT
370
    13
100
AcDbLine
 10
700422.2979293477
 20
4219956.038690175
 30
1632.834716796875
 11
700431.2188244405
 21
4219965.628566191
 31
1633.099975585938
  0
LINE
  5
10D
330
1F
100
AcDbEntity
  8
IKINCIKAT
370
    13
100
AcDbLine
 10
700431.2188244405
 20
4219965.628566191
 30
1633.099975585938
 11
700432.803199576
 21
4219967.914879678
 31
1633.130004882812
  0
LINE
  5
10E
330
1F
100
AcDbEntity
  8
IKINCIKAT
370
    13
100
AcDbLine
 10
700434.5723827538
 20
4219966.870126858
 30
1633.130981445312
 11
700433.2882590399
 21
4219964.990312191
 31
1633.106567382812
  0
LINE
  5
10F
330
1F
100
AcDbEntity
  8
IKINCIKAT
370
    13
100
AcDbLine
 10
700433.2882590399
 20
4219964.990312191
 30
1633.106567382812
 11
700436.9268582291
 21
4219960.689382304
 31
1633.153930664062
  0
LINE
  5
110
330
1F
100
AcDbEntity
  8
IKINCIKAT
370
    13
100
AcDbLine
 10
700436.926858229
 20
4219960.6893823
 30
1633.153930664062
 11
700464.629831827
 21
4219948.74844541
 31
1633.514404296875
  0
LINE
  5
111
330
1F
100
AcDbEntity
  8
IKINCIKAT
370
    13
100
AcDbLine
 10
700464.629831827
 20
4219948.74844541
 30
1633.514404296875
 11
700471.094817458
 21
4219945.97592897
 31
1633.514038085938
  0
LINE
  5
112
330
1F
100
AcDbEntity
  8
IKINCIKAT
370
    13
100
AcDbLine
 10
700472.935578326
 20
4219945.18843769
 30
1633.514038085938
 11
700489.258784169
 21
4219938.13251767
 31
1633.834838867188
  0
LINE
  5
113
330
1F
100
AcDbEntity
  8
IKINCIKAT
370
    13
100
AcDbLine
 10
700489.258784169
 20
4219938.13251767
 30
1633.834838867188
 11
700494.271826967
 21
4219935.97172336
 31
1633.900024414062
  0
LINE
  5
114
330
1F
100
AcDbEntity
  8
IKINCIKAT
370
    13
100
AcDbLine
 10
700494.271826967
 20
4219935.97172336
 30
1633.900024414062
 11
700506.632948404
 21
4219934.25004052
 31
1634.074462890625
  0
LINE
  5
115
330
1F
100
AcDbEntity
  8
IKINCIKAT
370
    13
100
AcDbLine
 10
700512.824519848
 20
4219933.36553031
 30
1634.099975585938
 11
700521.488480159
 21
4219932.17015002
 31
1634.189819335938
  0
LINE
  5
116
330
1F
100
AcDbEntity
  8
IKINCIKAT
370
    13
100
AcDbLine
 10
700521.488480159
 20
4219932.17015002
 30
1634.189819335938
 11
700522.250698333
 21
4219935.23434762
 31
1634.203002929688
  0
LINE
  5
117
330
1F
100
AcDbEntity
  8
IKINCIKAT
370
    13
100
AcDbLine
 10
700522.786174176
 20
4219937.33067858
 30
1634.441040039062
 11
700524.38272499
 21
4219943.90661975
 31
1634.404663085938
  0
LINE
  5
129
330
1F
100
AcDbEntity
  8
IKINCIKAT
370
    13
100
AcDbLine
 10
700526.002280009
 20
4219941.82857048
 30
1634.441162109375
 11
700524.962256857
 21
4219937.74652684
 31
1634.441040039062
  0
LINE
  5
12A
330
1F
100
AcDbEntity
  8
IKINCIKAT
370
    13
100
AcDbLine
 10
700524.426781014
 20
4219935.60462347
 30
1634.203002929688
 11
700523.085364332
 21
4219930.40763447
 31
1634.203125
  0
LINE
  5
12B
330
1F
100
AcDbEntity
  8
IKINCIKAT
370
    13
100
AcDbLine
 10
700493.727940923
 20
4219934.02827664
 30
1633.900024414062
 11
700478.95267655
 21
4219940.39692507
 31
1633.710083007812
  0
LINE
  5
12C
330
1F
100
AcDbEntity
  8
IKINCIKAT
370
    13
100
AcDbLine
 10
700478.95267655
 20
4219940.39692507
 30
1633.710083007812
 11
700472.128399763
 21
4219943.35752046
 31
1633.7099609375
  0
LINE
  5
12D
330
1F
100
AcDbEntity
  8
IKINCIKAT
370
    13
100
AcDbLine
 10
700470.32701346
 20
4219944.1351681
 30
1633.151000976562
 11
700454.270481628
 21
4219951.03580219
 31
1633.392944335938
  0
LINE
  5
12E
330
1F
100
AcDbEntity
  8
IKINCIKAT
370
    13
100
AcDbLine
 10
700454.270481628
 20
4219951.03580219
 30
1633.392944335938
 11
700435.468469061
 21
4219959.14011796
 31
1633.151245117188
  0
LINE
  5
12F
330
1F
100
AcDbEntity
  8
IKINCIKAT
370
    13
100
AcDbLine
 10
700435.4684690607
 20
4219959.140117955
 30
1633.151245117188
 11
700431.9428585684
 21
4219963.470500661
 31
1633.108642578125
  0
LINE
  5
130
330
1F
100
AcDbEntity
  8
IKINCIKAT
370
    13
100
AcDbLine
 10
700431.942858568
 20
4219963.47050066
 30
1633.108642578125
 11
700426.526135621
 21
4219957.64757584
 31
1632.52001953125
  0
LINE
  5
131
330
1F
100
AcDbEntity
  8
IKINCIKAT
370
    13
100
AcDbLine
 10
700426.526135621
 20
4219957.64757584
 30
1632.52001953125
 11
700415.13446032
 21
4219945.40163498
 31
1632.52001953125
  0
LINE
  5
132
330
1F
100
AcDbEntity
  8
IKINCIKAT
370
    13
100
AcDbLine
 10
700415.13446032
 20
4219945.40163498
 30
1632.52001953125
 11
700406.9320496101
 21
4219936.584122728
 31
1632.329956054688
  0
LINE
  5
133
330
1F
100
AcDbEntity
  8
IKINCIKAT
370
    13
100
AcDbLine
 10
700406.9320496101
 20
4219936.584122728
 30
1632.329956054688
 11
700402.2987048358
 21
4219928.932782544
 31
1632.1513671875
  0
LINE
  5
134
330
1F
100
AcDbEntity
  8
IKINCIKAT
370
    13
100
AcDbLine
 10
700402.2987048358
 20
4219928.932782544
 30
1632.1513671875
 11
700397.7848301618
 21
4219921.478731018
 31
1631.977294921875
  0
LINE
  5
142
330
1F
100
AcDbEntity
  8
IKINCIKAT
370
    13
100
AcDbLine
 10
700575.823531634
 20
4219992.98506976
 30
1635.333374023438
 11
700578.735630595
 21
4219986.44039589
 31
1635.5703125
  0
LINE
  5
143
330
1F
100
AcDbEntity
  8
IKINCIKAT
370
    13
100
AcDbLine
 10
700578.735630595
 20
4219986.44039589
 30
1635.5703125
 11
700581.559395889
 21
4219980.09424379
 31
1635.800048828125
  0
LINE
  5
144
330
1F
100
AcDbEntity
  8
IKINCIKAT
370
    13
100
AcDbLine
 10
700580.268694601
 20
4219978.07528416
 30
1635.287963867188
 11
700577.896779361
 21
4219983.40594493
 31
1635.800048828125
  0
LINE
  5
145
330
1F
100
AcDbEntity
  8
IKINCIKAT
370
    13
100
AcDbLine
 10
700577.8967793605
 20
4219983.40594493
 30
1635.62255859375
 11
700573.9960309793
 21
4219992.172517199
 31
1635.28759765625
  0
LINE
  5
146
330
1F
100
AcDbEntity
  8
IKINCIKAT
370
     0
100
AcDbLine
 10
700573.996030979
 20
4219992.1725172
 30
1635.28759765625
 11
700566.397527947
 21
4219988.71865218
 31
1635.18359375
  0
LINE
  5
147
330
1F
100
AcDbEntity
  8
IKINCIKAT
370
     0
100
AcDbLine
 10
700566.397527947
 20
4219988.71865218
 30
1635.18359375
 11
700552.981977207
 21
4219982.62067458
 31
1635.0
  0
LINE
  5
148
330
1F
100
AcDbEntity
  8
IKINCIKAT
370
     0
100
AcDbLine
 10
700552.981977207
 20
4219982.62067458
 30
1635.0
 11
700543.515390398
 21
4219976.46739315
 31
1634.831420898438
  0
LINE
  5
14A
330
1F
100
AcDbEntity
  8
IKINCIKAT
370
     0
100
AcDbLine
 10
700539.713414336
 20
4219973.99028221
 30
1634.650024414062
 11
700533.331004838
 21
4219969.84754254
 31
1634.849975585938
  0
LINE
  5
14B
330
1F
100
AcDbEntity
  8
IKINCIKAT
370
    13
100
AcDbLine
 10
700533.331004838
 20
4219969.847542536
 30
1634.650024414062
 11
700530.2775814342
 21
4219961.123475668
 31
1634.559326171875
  0
LINE
  5
14C
330
1F
100
AcDbEntity
  8
IKINCIKAT
370
    13
100
AcDbLine
 10
700529.7279123983
 20
4219959.137252272
 30
1634.539916992188
 11
700526.4689054629
 21
4219944.09040682
 31
1634.400024414062
  0
LINE
  5
154
330
1F
100
AcDbEntity
  8
IKINCIKAT
370
    13
100
AcDbLine
 10
700524.3827249897
 20
4219943.90661975
 30
1634.404663085938
 11
700526.6432997732
 21
4219954.34370076
 31
1634.49462890625
  0
LINE
  5
155
330
1F
100
AcDbEntity
  8
IKINCIKAT
370
    13
100
AcDbLine
 10
700526.6432997732
 20
4219954.34370076
 30
1634.49462890625
 11
700528.0356205902
 21
4219960.772050428
 31
1634.550048828125
  0
LINE
  5
156
330
1F
100
AcDbEntity
  8
IKINCIKAT
370
    13
100
AcDbLine
 10
700528.0356205902
 20
4219960.772050428
 30
1634.550048828125
 11
700531.8851278584
 21
4219971.293094588
 31
1634.653686523438
  0
LINE
  5
157
330
1F
100
AcDbEntity
  8
IKINCIKAT
370
    13
100
AcDbLine
 10
700531.885127858
 20
4219971.29309459
 30
1634.653686523438
 11
700540.591755087
 21
4219976.96619848
 31
1634.820922851562
  0
LINE
  5
158
330
1F
100
AcDbEntity
  8
IKINCIKAT
370
    13
100
AcDbLine
 10
700543.3577854863
 20
4219978.739319133
 30
1635.0
 11
700551.5887932349
 21
4219984.231114081
 31
1635.1689453125
  0
LINE
  5
159
330
1F
100
AcDbEntity
  8
IKINCIKAT
370
    13
100
AcDbLine
 10
700564.4479720182
 20
4219990.02940785
 30
1635.1689453125
 11
700573.029386905
 21
4219993.930050979
 31
1635.28564453125
  0
LINE
  5
15A
330
1F
100
AcDbEntity
  8
IKINCIKAT
370
    13
100
AcDbLine
 10
700551.5887932349
 20
4219984.231114081
 30
1635.0
 11
700564.4479720182
 21
4219990.02940785
 31
1635.1689453125
  0
POINT
  5
15B
330
1F
100
AcDbEntity
  8
1660_1_KAT
370
     0
100
AcDbPoint
 10
700285.6018283302
 20
4219816.474304646
 30
1658.944580078125
  0
INSERT
  5
15F
330
1F
100
AcDbEntity
  8
1660_1_KAT
370
     0
100
AcDbBlockReference
  2
0
 10
700285.6018283302
 20
4219816.474304646
 30
1658.944580078125
  0
POINT
  5
160
330
1F
100
AcDbEntity
  8
1660_1_KAT
370
     0
100
AcDbPoint
 10
700291.6794109036
 20
4219812.756584643
 30
1659.099975585938
  0
INSERT
  5
161
330
1F
100
AcDbEntity
  8
1660_1_KAT
370
     0
100
AcDbBlockReference
  2
0
 10
700291.6794109036
 20
4219812.756584643
 30
1659.099975585938
  0
INSERT
  5
163
330
1F
100
AcDbEntity
  8
1660_1_KAT
370
     0
100
AcDbBlockReference
  2
0
 10
700500.9010488049
 20
4219931.073164233
 30
1662.474731445312
  0
POINT
  5
164
330
1F
100
AcDbEntity
  8
1660_1_KAT
370
     0
100
AcDbPoint
 10
700290.3203569871
 20
4219811.243415357
 30
1659.099975585938
  0
INSERT
  5
165
330
1F
100
AcDbEntity
  8
1660_1_KAT
370
     0
100
AcDbBlockReference
  2
0
 10
700290.3203569871
 20
4219811.243415357
 30
1659.099975585938
  0
POINT
  5
166
330
1F
100
AcDbEntity
  8
1660_1_KAT
370
     0
100
AcDbPoint
 10
700285.2005277886
 20
4219814.375267732
 30
1658.962646484375
  0
INSERT
  5
167
330
1F
100
AcDbEntity
  8
1660_1_KAT
370
     0
100
AcDbBlockReference
  2
0
 10
700285.2005277886
 20
4219814.375267732
 30
1658.962646484375
  0
LINE
  5
168
330
1F
100
AcDbEntity
  8
1660_1_KAT
370
    13
100
AcDbLine
 10
700271.155999912
 20
4219819.87787939
 30
1659.099975585938
 11
700271.633748709
 21
4219821.55202921
 31
1659.099975585938
  0
LINE
  5
169
330
1F
100
AcDbEntity
  8
1660_1_KAT
370
    13
100
AcDbLine
 10
700290.320356987
 20
4219811.24341536
 30
1659.099975585938
 11
700285.088249634
 21
4219814.51585197
 31
1659.099975585938
  0
LINE
  5
1CC
330
1F
100
AcDbEntity
  8
YENI2
370
     0
100
AcDbLine
 10
700267.776875863
 20
4219765.63141694
 30
1677.390014648438
 11
700284.083264292
 21
4219817.21642402
 31
1659.099975585938
  0
LINE
  5
1D1
330
1F
100
AcDbEntity
  8
YENI2
370
     0
100
AcDbLine
 10
700285.851203241
 20
4219816.17843408
 30
1659.099975585938
 11
700269.585137326
 21
4219764.71123929
 31
1677.390014648438
  0
LINE
  5
1D2
330
1F
100
AcDbEntity
  8
1660_1_KAT
370
    13
100
AcDbLine
 10
700282.335383899
 20
4219818.2426372
 30
1659.099975585938
 11
700284.083264292
 21
4219817.21642402
 31
1659.099975585938
  0
LINE
  5
1D3
330
1F
100
AcDbEntity
  8
1660_1_KAT
370
    13
100
AcDbLine
 10
700271.633748709
 20
4219821.55202921
 30
1659.099975585938
 11
700282.335383899
 21
4219818.2426372
 31
1659.099975585938
  0
LINE
  5
1D4
330
1F
100
AcDbEntity
  8
ESKI_IM
370
     0
100
AcDbLine
 10
700029.4095709114
 20
4219450.0
 30
1670.500610351562
 11
700100.0
 21
4219573.870888396
 31
1671.827270507812
  0
LINE
  5
1D5
330
1F
100
AcDbEntity
  8
ESKI_IM
370
     0
100
AcDbLine
 10
700100.0
 20
4219570.518931574
 30
1671.794921875
 11
700031.6828777442
 21
4219450.0
 31
1670.514770507812
  0
POINT
  5
212
330
1F
100
AcDbEntity
  8
ESKI_IM
370
     0
100
AcDbPoint
 10
700287.2260189563
 20
4219745.586070428
 30
1676.670043945312
  0
POINT
  5
213
330
1F
100
AcDbEntity
  8
ESKI_IM
370
     0
100
AcDbPoint
 10
700288.289911777
 20
4219743.48367951
 30
1677.050048828125
  0
POINT
  5
214
330
1F
100
AcDbEntity
  8
ESKI_IM
370
     0
100
AcDbPoint
 10
700269.6427868162
 20
4219764.672142354
 30
1677.356689453125
  0
POINT
  5
215
330
1F
100
AcDbEntity
  8
ESKI_IM
370
     0
100
AcDbPoint
 10
700279.1727695271
 20
4219758.209064247
 30
1676.93994140625
  0
POINT
  5
216
330
1F
100
AcDbEntity
  8
ESKI_IM
370
     0
100
AcDbPoint
 10
700283.2913573037
 20
4219754.22706229
 30
1676.910034179688
  0
LINE
  5
218
330
1F
100
AcDbEntity
  8
ESKI_IM
370
    13
100
AcDbLine
 10
700269.6427868162
 20
4219764.672142354
 30
1677.390014648438
 11
700279.1727695271
 21
4219758.209064247
 31
1676.93994140625
  0
LINE
  5
219
330
1F
100
AcDbEntity
  8
ESKI_IM
370
    13
100
AcDbLine
 10
700279.1727695271
 20
4219758.209064247
 30
1676.93994140625
 11
700283.2913573037
 21
4219754.22706229
 31
1676.910034179688
  0
POINT
  5
21A
330
1F
100
AcDbEntity
  8
ESKI_IM
370
     0
100
AcDbPoint
 10
700283.2913573037
 20
4219754.22706229
 30
1676.910034179688
  0
POINT
  5
21B
330
1F
100
AcDbEntity
  8
ESKI_IM
370
     0
100
AcDbPoint
 10
700287.2260189563
 20
4219745.586070428
 30
1676.670043945312
  0
POINT
  5
21C
330
1F
100
AcDbEntity
  8
ESKI_IM
370
     0
100
AcDbPoint
 10
700288.289911777
 20
4219743.48367951
 30
1677.050048828125
  0
POINT
  5
21D
330
1F
100
AcDbEntity
  8
ESKI_IM
370
     0
100
AcDbPoint
 10
700297.0945564017
 20
4219730.664742248
 30
1677.099975585938
  0
POINT
  5
21E
330
1F
100
AcDbEntity
  8
ESKI_IM
370
     0
100
AcDbPoint
 10
700304.0399423515
 20
4219720.552753573
 30
1676.420043945312
  0
POINT
  5
21F
330
1F
100
AcDbEntity
  8
ESKI_IM
370
     0
100
AcDbPoint
 10
700297.513704856
 20
4219708.45403086
 30
1676.089965820312
  0
POINT
  5
220
330
1F
100
AcDbEntity
  8
ESKI_IM
370
     0
100
AcDbPoint
 10
700283.1529411484
 20
4219701.009355625
 30
1675.71630859375
  0
POINT
  5
221
330
1F
100
AcDbEntity
  8
ESKI_IM
370
     0
100
AcDbPoint
 10
700267.9167442974
 20
4219693.110852476
 30
1675.319946289062
  0
POINT
  5
222
330
1F
100
AcDbEntity
  8
ESKI_IM
370
     0
100
AcDbPoint
 10
700260.8619918659
 20
4219693.660504141
 30
1675.209594726562
  0
POINT
  5
223
330
1F
100
AcDbEntity
  8
ESKI_IM
370
     0
100
AcDbPoint
 10
700254.0765752983
 20
4219694.113666397
 30
1675.103393554688
  0
POINT
  5
224
330
1F
100
AcDbEntity
  8
ESKI_IM
370
     0
100
AcDbPoint
 10
700236.8425777482
 20
4219692.389756609
 30
1674.835083007812
  0
POINT
  5
225
330
1F
100
AcDbEntity
  8
ESKI_IM
370
     0
100
AcDbPoint
 10
700221.0935289892
 20
4219690.814385647
 30
1674.589965820312
  0
POINT
  5
226
330
1F
100
AcDbEntity
  8
ESKI_IM
370
     0
100
AcDbPoint
 10
700209.3118589063
 20
4219681.393868259
 30
1674.347900390625
  0
POINT
  5
227
330
1F
100
AcDbEntity
  8
ESKI_IM
370
     0
100
AcDbPoint
 10
700191.8987279377
 20
4219667.470485419
 30
1673.989990234375
  0
POINT
  5
228
330
1F
100
AcDbEntity
  8
ESKI_IM
370
     0
100
AcDbPoint
 10
700175.1420081479
 20
4219659.251261316
 30
1673.727172851562
  0
POINT
  5
229
330
1F
100
AcDbEntity
  8
ESKI_IM
370
     0
100
AcDbPoint
 10
700161.9398965333
 20
4219652.775583777
 30
1673.52001953125
  0
POINT
  5
22A
330
1F
100
AcDbEntity
  8
ESKI_IM
370
     0
100
AcDbPoint
 10
700151.2103201809
 20
4219642.026338174
 30
1672.969970703125
  0
POINT
  5
22B
330
1F
100
AcDbEntity
  8
ESKI_IM
370
     0
100
AcDbPoint
 10
700136.6390062349
 20
4219621.066182782
 30
1672.592041015625
  0
POINT
  5
22C
330
1F
100
AcDbEntity
  8
ESKI_IM
370
     0
100
AcDbPoint
 10
700123.1384034157
 20
4219601.646195399
 30
1672.241943359375
  0
POINT
  5
22D
330
1F
100
AcDbEntity
  8
ESKI_IM
370
     0
100
AcDbPoint
 10
700112.7135170968
 20
4219587.618038449
 30
1672.040283203125
  0
POINT
  5
22E
330
1F
100
AcDbEntity
  8
ESKI_IM
370
     0
100
AcDbPoint
 10
700100.0
 20
4219570.518931574
 30
1671.794921875
  0
POINT
  5
22F
330
1F
100
AcDbEntity
  8
ESKI_IM
370
     0
100
AcDbPoint
 10
700031.6828777442
 20
4219450.0
 30
1670.514770507812
  0
POINT
  5
230
330
1F
100
AcDbEntity
  8
ESKI_IM
370
     0
100
AcDbPoint
 10
700010.8181071455
 20
4219413.360222084
 30
1670.128540039062
  0
POINT
  5
231
330
1F
100
AcDbEntity
  8
ESKI_IM
370
     0
100
AcDbPoint
 10
699991.0289243576
 20
4219399.752117047
 30
1670.050903320312
  0
POINT
  5
232
330
1F
100
AcDbEntity
  8
ESKI_IM
370
     0
100
AcDbPoint
 10
699970.416637393
 20
4219385.578001368
 30
1669.969970703125
  0
POINT
  5
233
330
1F
100
AcDbEntity
  8
ESKI_IM
370
     0
100
AcDbPoint
 10
699943.3419402811
 20
4219356.543473634
 30
1669.969970703125
  0
POINT
  5
234
330
1F
100
AcDbEntity
  8
ESKI_IM
370
     0
100
AcDbPoint
 10
699915.1102247189
 20
4219326.268175445
 30
1669.969970703125
  0
LINE
  5
235
330
1F
100
AcDbEntity
  8
ESKI_IM
370
     0
100
AcDbLine
 10
700297.0945564017
 20
4219730.664742248
 30
1677.099975585938
 11
700304.0399423515
 21
4219720.552753573
 31
1676.420043945312
  0
LINE
  5
236
330
1F
100
AcDbEntity
  8
ESKI_IM
370
     0
100
AcDbLine
 10
700304.0399423515
 20
4219720.552753573
 30
1676.420043945312
 11
700297.513704856
 21
4219708.45403086
 31
1676.089965820312
  0
LINE
  5
237
330
1F
100
AcDbEntity
  8
ESKI_IM
370
     0
100
AcDbLine
 10
700297.513704856
 20
4219708.45403086
 30
1676.089965820312
 11
700283.1529411484
 21
4219701.009355625
 31
1675.71630859375
  0
LINE
  5
238
330
1F
100
AcDbEntity
  8
ESKI_IM
370
     0
100
AcDbLine
 10
700283.1529411484
 20
4219701.009355625
 30
1675.71630859375
 11
700267.9167442974
 21
4219693.110852476
 31
1675.319946289062
  0
LINE
  5
239
330
1F
100
AcDbEntity
  8
ESKI_IM
370
     0
100
AcDbLine
 10
700267.9167442974
 20
4219693.110852476
 30
1675.319946289062
 11
700260.8619918659
 21
4219693.660504141
 31
1675.209594726562
  0
LINE
  5
23A
330
1F
100
AcDbEntity
  8
ESKI_IM
370
     0
100
AcDbLine
 10
700260.8619918659
 20
4219693.660504141
 30
1675.209594726562
 11
700254.0765752983
 21
4219694.113666397
 31
1675.103393554688
  0
LINE
  5
23B
330
1F
100
AcDbEntity
  8
ESKI_IM
370
     0
100
AcDbLine
 10
700254.0765752983
 20
4219694.113666397
 30
1675.103393554688
 11
700236.8425777482
 21
4219692.389756609
 31
1674.835083007812
  0
LINE
  5
23C
330
1F
100
AcDbEntity
  8
ESKI_IM
370
     0
100
AcDbLine
 10
700236.8425777482
 20
4219692.389756609
 30
1674.835083007812
 11
700221.0935289892
 21
4219690.814385647
 31
1674.589965820312
  0
LINE
  5
23D
330
1F
100
AcDbEntity
  8
ESKI_IM
370
     0
100
AcDbLine
 10
700221.0935289892
 20
4219690.814385647
 30
1674.589965820312
 11
700209.3118589063
 21
4219681.393868259
 31
1674.347900390625
  0
LINE
  5
23E
330
1F
100
AcDbEntity
  8
ESKI_IM
370
     0
100
AcDbLine
 10
700209.3118589063
 20
4219681.393868259
 30
1674.347900390625
 11
700191.8987279377
 21
4219667.470485419
 31
1673.989990234375
  0
LINE
  5
23F
330
1F
100
AcDbEntity
  8
ESKI_IM
370
     0
100
AcDbLine
 10
700191.8987279377
 20
4219667.470485419
 30
1673.989990234375
 11
700175.1420081479
 21
4219659.251261316
 31
1673.727172851562
  0
LINE
  5
240
330
1F
100
AcDbEntity
  8
ESKI_IM
370
     0
100
AcDbLine
 10
700175.1420081479
 20
4219659.251261316
 30
1673.727172851562
 11
700161.9398965333
 21
4219652.775583777
 31
1673.52001953125
  0
LINE
  5
241
330
1F
100
AcDbEntity
  8
ESKI_IM
370
     0
100
AcDbLine
 10
700161.9398965333
 20
4219652.775583777
 30
1673.52001953125
 11
700151.2103201809
 21
4219642.026338174
 31
1672.969970703125
  0
LINE
  5
242
330
1F
100
AcDbEntity
  8
ESKI_IM
370
     0
100
AcDbLine
 10
700151.2103201809
 20
4219642.026338174
 30
1672.969970703125
 11
700136.6390062349
 21
4219621.066182782
 31
1672.592041015625
  0
LINE
  5
243
330
1F
100
AcDbEntity
  8
ESKI_IM
370
     0
100
AcDbLine
 10
700136.6390062349
 20
4219621.066182782
 30
1672.592041015625
 11
700123.1384034157
 21
4219601.646195399
 31
1672.241943359375
  0
LINE
  5
244
330
1F
100
AcDbEntity
  8
ESKI_IM
370
     0
100
AcDbLine
 10
700123.1384034157
 20
4219601.646195399
 30
1672.241943359375
 11
700112.7135170968
 21
4219587.618038449
 31
1672.040283203125
  0
LINE
  5
245
330
1F
100
AcDbEntity
  8
ESKI_IM
370
     0
100
AcDbLine
 10
700112.7135170968
 20
4219587.618038449
 30
1672.040283203125
 11
700100.0
 21
4219570.518931574
 31
1671.794921875
  0
LINE
  5
246
330
1F
100
AcDbEntity
  8
ESKI_IM
370
     0
100
AcDbLine
 10
700100.0
 20
4219570.518931574
 30
1671.794921875
 11
700031.6828777442
 21
4219450.0
 31
1670.514770507812
  0
LINE
  5
247
330
1F
100
AcDbEntity
  8
ESKI_IM
370
     0
100
AcDbLine
 10
700031.6828777442
 20
4219450.0
 30
1670.514770507812
 11
700010.8181071455
 21
4219413.360222084
 31
1670.128540039062
  0
LINE
  5
248
330
1F
100
AcDbEntity
  8
ESKI_IM
370
     0
100
AcDbLine
 10
700010.8181071455
 20
4219413.360222084
 30
1670.128540039062
 11
699991.0289243576
 21
4219399.752117047
 31
1670.050903320312
  0
LINE
  5
249
330
1F
100
AcDbEntity
  8
ESKI_IM
370
     0
100
AcDbLine
 10
699991.0289243576
 20
4219399.752117047
 30
1670.050903320312
 11
699970.416637393
 21
4219385.578001368
 31
1669.969970703125
  0
LINE
  5
24A
330
1F
100
AcDbEntity
  8
ESKI_IM
370
     0
100
AcDbLine
 10
699970.416637393
 20
4219385.578001368
 30
1669.969970703125
 11
699943.3419402811
 21
4219356.543473634
 31
1669.969970703125
  0
LINE
  5
24B
330
1F
100
AcDbEntity
  8
ESKI_IM
370
     0
100
AcDbLine
 10
699943.3419402811
 20
4219356.543473634
 30
1669.969970703125
 11
699915.1102247189
 21
4219326.268175445
 31
1669.969970703125
  0
POINT
  5
24C
330
1F
100
AcDbEntity
  8
ESKI_IM
370
     0
100
AcDbPoint
 10
700288.2899117771
 20
4219743.483679508
 30
1677.050048828125
  0
POINT
  5
24D
330
1F
100
AcDbEntity
  8
ESKI_IM
370
     0
100
AcDbPoint
 10
700297.0945564017
 20
4219730.664742248
 30
1677.099975585938
  0
POINT
  5
24E
330
1F
100
AcDbEntity
  8
ESKI_IM
370
     0
100
AcDbPoint
 10
700304.0399423515
 20
4219720.552753573
 30
1676.420043945312
  0
POINT
  5
24F
330
1F
100
AcDbEntity
  8
ESKI_IM
370
     0
100
AcDbPoint
 10
700297.513704856
 20
4219708.45403086
 30
1676.089965820312
  0
POINT
  5
250
330
1F
100
AcDbEntity
  8
ESKI_IM
370
     0
100
AcDbPoint
 10
700283.1529411484
 20
4219701.009355625
 30
1675.71630859375
  0
POINT
  5
251
330
1F
100
AcDbEntity
  8
ESKI_IM
370
     0
100
AcDbPoint
 10
700267.9167442974
 20
4219693.110852476
 30
1675.319946289062
  0
POINT
  5
252
330
1F
100
AcDbEntity
  8
ESKI_IM
370
     0
100
AcDbPoint
 10
700260.8619918659
 20
4219693.660504141
 30
1675.209594726562
  0
POINT
  5
253
330
1F
100
AcDbEntity
  8
ESKI_IM
370
     0
100
AcDbPoint
 10
700254.0765752983
 20
4219694.113666397
 30
1675.103393554688
  0
POINT
  5
254
330
1F
100
AcDbEntity
  8
ESKI_IM
370
     0
100
AcDbPoint
 10
700236.8425777482
 20
4219692.389756609
 30
1674.835083007812
  0
POINT
  5
255
330
1F
100
AcDbEntity
  8
ESKI_IM
370
     0
100
AcDbPoint
 10
700221.0935289892
 20
4219690.814385647
 30
1674.589965820312
  0
POINT
  5
256
330
1F
100
AcDbEntity
  8
ESKI_IM
370
     0
100
AcDbPoint
 10
700209.3118589063
 20
4219681.393868259
 30
1674.347900390625
  0
POINT
  5
257
330
1F
100
AcDbEntity
  8
ESKI_IM
370
     0
100
AcDbPoint
 10
700191.8987279377
 20
4219667.470485419
 30
1673.989990234375
  0
POINT
  5
258
330
1F
100
AcDbEntity
  8
ESKI_IM
370
     0
100
AcDbPoint
 10
700175.1420081479
 20
4219659.251261316
 30
1673.727172851562
  0
POINT
  5
259
330
1F
100
AcDbEntity
  8
ESKI_IM
370
     0
100
AcDbPoint
 10
700161.9398965333
 20
4219652.775583777
 30
1673.52001953125
  0
POINT
  5
25A
330
1F
100
AcDbEntity
  8
ESKI_IM
370
     0
100
AcDbPoint
 10
700151.2103201809
 20
4219642.026338174
 30
1672.969970703125
  0
POINT
  5
25B
330
1F
100
AcDbEntity
  8
ESKI_IM
370
     0
100
AcDbPoint
 10
700136.6390062349
 20
4219621.066182782
 30
1672.592041015625
  0
POINT
  5
25C
330
1F
100
AcDbEntity
  8
ESKI_IM
370
     0
100
AcDbPoint
 10
700123.1384034157
 20
4219601.646195399
 30
1672.241943359375
  0
POINT
  5
25D
330
1F
100
AcDbEntity
  8
ESKI_IM
370
     0
100
AcDbPoint
 10
700112.7135170968
 20
4219587.618038449
 30
1672.040283203125
  0
POINT
  5
25E
330
1F
100
AcDbEntity
  8
ESKI_IM
370
     0
100
AcDbPoint
 10
700100.0
 20
4219570.518931574
 30
1671.794921875
  0
LINE
  5
25F
330
1F
100
AcDbEntity
  8
ESKI_IM
370
    13
100
AcDbLine
 10
700297.0945564017
 20
4219730.664742248
 30
1677.099975585938
 11
700304.0399423515
 21
4219720.552753573
 31
1676.420043945312
  0
LINE
  5
260
330
1F
100
AcDbEntity
  8
ESKI_IM
370
    13
100
AcDbLine
 10
700304.0399423515
 20
4219720.552753573
 30
1676.420043945312
 11
700297.513704856
 21
4219708.45403086
 31
1676.089965820312
  0
LINE
  5
261
330
1F
100
AcDbEntity
  8
ESKI_IM
370
    13
100
AcDbLine
 10
700297.513704856
 20
4219708.45403086
 30
1676.089965820312
 11
700283.1529411484
 21
4219701.009355625
 31
1675.71630859375
  0
LINE
  5
262
330
1F
100
AcDbEntity
  8
ESKI_IM
370
    13
100
AcDbLine
 10
700283.1529411484
 20
4219701.009355625
 30
1675.71630859375
 11
700267.9167442974
 21
4219693.110852476
 31
1675.319946289062
  0
LINE
  5
263
330
1F
100
AcDbEntity
  8
ESKI_IM
370
    13
100
AcDbLine
 10
700267.9167442974
 20
4219693.110852476
 30
1675.319946289062
 11
700260.8619918659
 21
4219693.660504141
 31
1675.209594726562
  0
LINE
  5
264
330
1F
100
AcDbEntity
  8
ESKI_IM
370
    13
100
AcDbLine
 10
700260.8619918659
 20
4219693.660504141
 30
1675.209594726562
 11
700254.0765752983
 21
4219694.113666397
 31
1675.103393554688
  0
LINE
  5
265
330
1F
100
AcDbEntity
  8
ESKI_IM
370
    13
100
AcDbLine
 10
700254.0765752983
 20
4219694.113666397
 30
1675.103393554688
 11
700236.8425777482
 21
4219692.389756609
 31
1674.835083007812
  0
LINE
  5
266
330
1F
100
AcDbEntity
  8
ESKI_IM
370
    13
100
AcDbLine
 10
700236.8425777482
 20
4219692.389756609
 30
1674.835083007812
 11
700221.0935289892
 21
4219690.814385647
 31
1674.589965820312
  0
LINE
  5
267
330
1F
100
AcDbEntity
  8
ESKI_IM
370
    13
100
AcDbLine
 10
700221.0935289892
 20
4219690.814385647
 30
1674.589965820312
 11
700209.3118589063
 21
4219681.393868259
 31
1674.347900390625
  0
LINE
  5
268
330
1F
100
AcDbEntity
  8
ESKI_IM
370
    13
100
AcDbLine
 10
700209.3118589063
 20
4219681.393868259
 30
1674.347900390625
 11
700191.8987279377
 21
4219667.470485419
 31
1673.989990234375
  0
LINE
  5
269
330
1F
100
AcDbEntity
  8
ESKI_IM
370
    13
100
AcDbLine
 10
700191.8987279377
 20
4219667.470485419
 30
1673.989990234375
 11
700175.1420081479
 21
4219659.251261316
 31
1673.727172851562
  0
LINE
  5
26A
330
1F
100
AcDbEntity
  8
ESKI_IM
370
    13
100
AcDbLine
 10
700175.1420081479
 20
4219659.251261316
 30
1673.727172851562
 11
700161.9398965333
 21
4219652.775583777
 31
1673.52001953125
  0
LINE
  5
26B
330
1F
100
AcDbEntity
  8
ESKI_IM
370
    13
100
AcDbLine
 10
700161.9398965333
 20
4219652.775583777
 30
1673.52001953125
 11
700151.2103201809
 21
4219642.026338174
 31
1672.969970703125
  0
LINE
  5
26C
330
1F
100
AcDbEntity
  8
ESKI_IM
370
    13
100
AcDbLine
 10
700151.2103201809
 20
4219642.026338174
 30
1672.969970703125
 11
700136.6390062349
 21
4219621.066182782
 31
1672.592041015625
  0
LINE
  5
26D
330
1F
100
AcDbEntity
  8
ESKI_IM
370
    13
100
AcDbLine
 10
700136.6390062349
 20
4219621.066182782
 30
1672.592041015625
 11
700123.1384034157
 21
4219601.646195399
 31
1672.241943359375
  0
LINE
  5
26E
330
1F
100
AcDbEntity
  8
ESKI_IM
370
    13
100
AcDbLine
 10
700123.1384034157
 20
4219601.646195399
 30
1672.241943359375
 11
700112.7135170968
 21
4219587.618038449
 31
1672.040283203125
  0
LINE
  5
26F
330
1F
100
AcDbEntity
  8
ESKI_IM
370
    13
100
AcDbLine
 10
700112.7135170968
 20
4219587.618038449
 30
1672.040283203125
 11
700100.0
 21
4219570.518931574
 31
1671.794921875
  0
LINE
  5
270
330
1F
100
AcDbEntity
  8
ESKI_IM
370
     0
100
AcDbLine
 10
700283.2913573037
 20
4219754.22706229
 30
1676.910034179688
 11
700283.497995508
 21
4219754.204332651
 31
1675.510864257812
  0
LINE
  5
271
330
1F
100
AcDbEntity
  8
ESKI_IM
370
    13
100
AcDbLine
 10
700283.291357304
 20
4219754.22706229
 30
1676.910034179688
 11
700287.226018956
 21
4219745.58607043
 31
1676.670043945312
  0
LINE
  5
272
330
1F
100
AcDbEntity
  8
ESKI_IM
370
     0
100
AcDbLine
 10
700287.2260189563
 20
4219745.586070428
 30
1676.670043945312
 11
700288.2899117771
 21
4219743.483679508
 31
1677.050048828125
  0
LINE
  5
273
330
1F
100
AcDbEntity
  8
ESKI_IM
370
    13
100
AcDbLine
 10
700288.289911777
 20
4219743.48367951
 30
1677.050048828125
 11
700297.094556402
 21
4219730.66474225
 31
1677.099975585938
  0
LINE
  5
279
330
1F
100
AcDbEntity
  8
ESKI_IM
370
    13
100
AcDbLine
 10
699796.127251698
 20
4219173.15646376
 30
1669.969970703125
 11
699863.228420617
 21
4219261.43873555
 31
1669.170043945312
  0
POINT
  5
27A
330
1F
100
AcDbEntity
  8
ESKI_IM
370
     0
100
AcDbPoint
 10
700031.6828777442
 20
4219450.0
 30
1670.514770507812
  0
POINT
  5
27B
330
1F
100
AcDbEntity
  8
ESKI_IM
370
     0
100
AcDbPoint
 10
700010.8181071455
 20
4219413.360222084
 30
1670.128540039062
  0
POINT
  5
27C
330
1F
100
AcDbEntity
  8
ESKI_IM
370
     0
100
AcDbPoint
 10
699991.0289243576
 20
4219399.752117047
 30
1670.050903320312
  0
POINT
  5
27D
330
1F
100
AcDbEntity
  8
ESKI_IM
370
     0
100
AcDbPoint
 10
699970.416637393
 20
4219385.578001368
 30
1669.969970703125
  0
POINT
  5
27E
330
1F
100
AcDbEntity
  8
ESKI_IM
370
     0
100
AcDbPoint
 10
699943.3419402811
 20
4219356.543473634
 30
1669.969970703125
  0
POINT
  5
27F
330
1F
100
AcDbEntity
  8
ESKI_IM
370
     0
100
AcDbPoint
 10
699915.1102247189
 20
4219326.268175445
 30
1669.969970703125
  0
LINE
  5
280
330
1F
100
AcDbEntity
  8
ESKI_IM
370
    13
100
AcDbLine
 10
700031.6828777442
 20
4219450.0
 30
1670.514770507812
 11
700010.8181071455
 21
4219413.360222084
 31
1670.128540039062
  0
LINE
  5
281
330
1F
100
AcDbEntity
  8
ESKI_IM
370
    13
100
AcDbLine
 10
700010.8181071455
 20
4219413.360222084
 30
1670.128540039062
 11
699991.0289243576
 21
4219399.752117047
 31
1670.050903320312
  0
LINE
  5
282
330
1F
100
AcDbEntity
  8
ESKI_IM
370
    13
100
AcDbLine
 10
699991.0289243576
 20
4219399.752117047
 30
1670.050903320312
 11
699970.416637393
 21
4219385.578001368
 31
1669.969970703125
  0
LINE
  5
283
330
1F
100
AcDbEntity
  8
ESKI_IM
370
    13
100
AcDbLine
 10
699970.416637393
 20
4219385.578001368
 30
1669.969970703125
 11
699943.3419402811
 21
4219356.543473634
 31
1669.969970703125
  0
LINE
  5
284
330
1F
100
AcDbEntity
  8
ESKI_IM
370
    13
100
AcDbLine
 10
699943.341940281
 20
4219356.54347363
 30
1669.969970703125
 11
699915.110224719
 21
4219326.26817544
 31
1669.969970703125
  0
LINE
  5
285
330
1F
100
AcDbEntity
  8
ESKI_IM
370
    13
100
AcDbLine
 10
699915.110224719
 20
4219326.26817544
 30
1669.969970703125
 11
699797.584201014
 21
4219171.88475811
 31
1669.170043945312
  0
POINT
  5
289
330
1F
100
AcDbEntity
  8
ESKI_IM
370
     0
100
AcDbPoint
 10
699913.0682795626
 20
4219327.011005672
 30
1669.969970703125
  0
POINT
  5
28A
330
1F
100
AcDbEntity
  8
ESKI_IM
370
     0
100
AcDbPoint
 10
699939.6691394208
 20
4219355.53739694
 30
1669.969970703125
  0
POINT
  5
28B
330
1F
100
AcDbEntity
  8
ESKI_IM
370
     0
100
AcDbPoint
 10
699969.1031304977
 20
4219387.101998632
 30
1669.969970703125
  0
POINT
  5
28C
330
1F
100
AcDbEntity
  8
ESKI_IM
370
     0
100
AcDbPoint
 10
699986.9804512829
 20
4219399.395404661
 30
1670.04052734375
  0
POINT
  5
28D
330
1F
100
AcDbEntity
  8
ESKI_IM
370
     0
100
AcDbPoint
 10
700009.662592069
 20
4219414.992863008
 30
1670.130004882812
  0
POINT
  5
28E
330
1F
100
AcDbEntity
  8
ESKI_IM
370
     0
100
AcDbPoint
 10
700029.4095709114
 20
4219450.0
 30
1670.500610351562
  0
LINE
  5
28F
330
1F
100
AcDbEntity
  8
ESKI_IM
370
    13
100
AcDbLine
 10
699864.428900533
 20
4219263.01815802
 30
1669.969970703125
 11
699913.068279563
 21
4219327.01100567
 31
1669.969970703125
  0
LINE
  5
290
330
1F
100
AcDbEntity
  8
ESKI_IM
370
    13
100
AcDbLine
 10
699913.0682795626
 20
4219327.011005672
 30
1669.969970703125
 11
699939.6691394208
 21
4219355.53739694
 31
1669.969970703125
  0
LINE
  5
291
330
1F
100
AcDbEntity
  8
ESKI_IM
370
    13
100
AcDbLine
 10
699939.6691394208
 20
4219355.53739694
 30
1669.969970703125
 11
699969.1031304977
 21
4219387.101998632
 31
1669.969970703125
  0
LINE
  5
292
330
1F
100
AcDbEntity
  8
ESKI_IM
370
    13
100
AcDbLine
 10
699969.1031304977
 20
4219387.101998632
 30
1669.969970703125
 11
699986.9804512829
 21
4219399.395404661
 31
1670.04052734375
  0
LINE
  5
293
330
1F
100
AcDbEntity
  8
ESKI_IM
370
    13
100
AcDbLine
 10
699986.9804512829
 20
4219399.395404661
 30
1670.04052734375
 11
700009.662592069
 21
4219414.992863008
 31
1670.130004882812
  0
LINE
  5
294
330
1F
100
AcDbEntity
  8
ESKI_IM
370
    13
100
AcDbLine
 10
700009.662592069
 20
4219414.992863008
 30
1670.130004882812
 11
700029.4095709114
 21
4219450.0
 31
1670.500610351562
  0
LINE
  5
295
330
1F
100
AcDbEntity
  8
ESKI_IM
370
    13
100
AcDbLine
 10
699863.228420617
 20
4219261.43873555
 30
1669.969970703125
 11
699864.428900533
 21
4219263.01815802
 31
1669.969970703125
  0
POINT
  5
296
330
1F
100
AcDbEntity
  8
1660_1_KAT
370
     0
100
AcDbPoint
 10
700283.2673226953
 20
4219815.588898202
 30
1659.099975585938
  0
INSERT
  5
297
330
1F
100
AcDbEntity
  8
1660_1_KAT
370
     0
100
AcDbBlockReference
  2
0
 10
700283.2673226953
 20
4219815.588898202
 30
1659.099975585938
  0
INSERT
  5
299
330
1F
100
AcDbEntity
  8
1660_1_KAT
370
     0
100
AcDbBlockReference
  2
0
 10
700279.6765877784
 20
4219817.046685337
 30
1884.426391601562
  0
INSERT
  5
29B
330
1F
100
AcDbEntity
  8
1660_1_KAT
370
     0
100
AcDbBlockReference
  2
0
 10
700271.0766335959
 20
4219819.769305418
 30
1884.426391601562
  0
LINE
  5
29C
330
1F
100
AcDbEntity
  8
1660_1_KAT
370
    13
100
AcDbLine
 10
700283.267322695
 20
4219815.5888982
 30
1659.099975585938
 11
700279.676587778
 21
4219817.04668534
 31
1659.099975585938
  0
LINE
  5
29D
330
1F
100
AcDbEntity
  8
1660_1_KAT
370
    13
100
AcDbLine
 10
700279.676587778
 20
4219817.04668534
 30
1659.099975585938
 11
700271.076633596
 21
4219819.76930542
 31
1659.099975585938
  0
LINE
  5
2A4
330
1F
100
AcDbEntity
  8
IKINCIKAT
370
    13
100
AcDbLine
 10
700470.32701346
 20
4219944.1351681
 30
1633.151000976562
 11
700472.128399763
 21
4219943.35752046
 31
1633.7099609375
  0
LINE
  5
2A5
330
1F
100
AcDbEntity
  8
IKINCIKAT
370
    13
100
AcDbLine
 10
700471.094817458
 20
4219945.97592897
 30
1633.514038085938
 11
700472.935578326
 21
4219945.18843769
 31
1633.514038085938
  0
LINE
  5
2A6
330
1F
100
AcDbEntity
  8
IKINCIKAT
370
    13
100
AcDbLine
 10
700506.632948404
 20
4219934.25004052
 30
1634.074462890625
 11
700512.824519848
 21
4219933.36553031
 31
1634.099975585938
  0
LINE
  5
2A7
330
1F
100
AcDbEntity
  8
IKINCIKAT
370
     0
100
AcDbLine
 10
700493.727940923
 20
4219934.02827664
 30
1633.900024414062
 11
700520.5895898445
 21
4219930.212141727
 31
1634.216796875
  0
LINE
  5
2A8
330
1F
100
AcDbEntity
  8
IKINCIKAT
370
     0
100
AcDbLine
 10
700520.589589844
 20
4219930.21214173
 30
1634.216796875
 11
700522.855739673
 21
4219929.90965937
 31
1634.217041015625
  0
LINE
  5
2A9
330
1F
100
AcDbEntity
  8
IKINCIKAT
370
     0
100
AcDbLine
 10
700523.007741195
 20
4219930.46525114
 30
1634.217041015625
 11
700522.855739673
 21
4219929.90965937
 31
1634.203002929688
  0
LINE
  5
2AA
330
1F
100
AcDbEntity
  8
IKINCIKAT
370
    13
100
AcDbLine
 10
700522.250698333
 20
4219935.23434762
 30
1634.203002929688
 11
700522.786174176
 21
4219937.33067858
 31
1634.441040039062
  0
LINE
  5
2AB
330
1F
100
AcDbEntity
  8
IKINCIKAT
370
    13
100
AcDbLine
 10
700524.962256857
 20
4219937.74652684
 30
1634.203002929688
 11
700524.426781014
 21
4219935.60462347
 31
1634.441040039062
  0
LINE
  5
2AC
330
1F
100
AcDbEntity
  8
IKINCIKAT
370
    13
100
AcDbLine
 10
700526.002280009
 20
4219941.82857048
 30
1634.441162109375
 11
700526.468905463
 21
4219944.09040682
 31
1634.400024414062
  0
LINE
  5
2AD
330
1F
100
AcDbEntity
  8
IKINCIKAT
370
     0
100
AcDbLine
 10
700529.7279123983
 20
4219959.137252272
 30
1634.539916992188
 11
700530.2775814342
 21
4219961.123475668
 31
1634.559326171875
  0
LINE
  5
2AE
330
1F
100
AcDbEntity
  8
IKINCIKAT
370
    13
100
AcDbLine
 10
700540.592
 20
4219976.96619848
 30
1634.820922851562
 11
700543.357785486
 21
4219978.73931913
 31
1635.0
  0
LINE
  5
2AF
330
1F
100
AcDbEntity
  8
IKINCIKAT
370
     0
100
AcDbLine
 10
700539.713414336
 20
4219973.99028221
 30
1634.849975585938
 11
700542.459152169
 21
4219975.77899939
 31
1634.8310546875
  0
POINT
  5
2B2
330
1F
100
AcDbEntity
  8
ESKI_IM
370
     0
100
AcDbPoint
 10
700258.4823483973
 20
4219767.205209406
 30
1677.390014648438
  0
POINT
  5
2B3
330
1F
100
AcDbEntity
  8
ESKI_IM
370
     0
100
AcDbPoint
 10
700259.2270096109
 20
4219769.06140974
 30
1677.390014648438
  0
POINT
  5
2B4
330
1F
100
AcDbEntity
  8
ESKI_IM
370
     0
100
AcDbPoint
 10
700267.7431710443
 20
4219765.644938471
 30
1677.390014648438
  0
POINT
  5
2B5
330
1F
100
AcDbEntity
  8
ESKI_IM
370
     0
100
AcDbPoint
 10
700267.7758711785
 20
4219765.628192683
 30
1677.390014648438
  0
LINE
  5
2B6
330
1F
100
AcDbEntity
  8
ESKI_IM
370
    13
100
AcDbLine
 10
700258.4823483973
 20
4219767.205209406
 30
1677.390014648438
 11
700259.2270096109
 21
4219769.06140974
 31
1677.390014648438
  0
LINE
  5
2B7
330
1F
100
AcDbEntity
  8
ESKI_IM
370
    13
100
AcDbLine
 10
700259.2270096109
 20
4219769.06140974
 30
1677.390014648438
 11
700267.7431710443
 21
4219765.644938471
 31
1677.390014648438
  0
LINE
  5
2B8
330
1F
100
AcDbEntity
  8
ESKI_IM
370
    13
100
AcDbLine
 10
700267.7431710443
 20
4219765.644938471
 30
1677.390014648438
 11
700267.7758711785
 21
4219765.628192683
 31
1677.390014648438
  0
POINT
  5
2B9
330
1F
100
AcDbEntity
  8
ESKI_IM
370
     0
100
AcDbPoint
 10
700100.0
 20
4219573.870888396
 30
1671.827270507812
  0
POINT
  5
2BA
330
1F
100
AcDbEntity
  8
ESKI_IM
370
     0
100
AcDbPoint
 10
700109.1121145524
 20
4219586.12627134
 30
1672.002685546875
  0
POINT
  5
2BB
330
1F
100
AcDbEntity
  8
ESKI_IM
370
     0
100
AcDbPoint
 10
700121.0431283694
 20
4219602.172946609
 30
1672.232421875
  0
POINT
  5
2BC
330
1F
100
AcDbEntity
  8
ESKI_IM
370
     0
100
AcDbPoint
 10
700129.5379020383
 20
4219614.355372469
 30
1672.449462890625
  0
POINT
  5
2BD
330
1F
100
AcDbEntity
  8
ESKI_IM
370
     0
100
AcDbPoint
 10
700148.9658411869
 20
4219642.301556665
 30
1672.951782226562
  0
POINT
  5
2BE
330
1F
100
AcDbEntity
  8
ESKI_IM
370
     0
100
AcDbPoint
 10
700160.7598713574
 20
4219654.424416223
 30
1673.52001953125
  0
POINT
  5
2BF
330
1F
100
AcDbEntity
  8
ESKI_IM
370
     0
100
AcDbPoint
 10
700174.3627348982
 20
4219661.096663851
 30
1673.732666015625
  0
POINT
  5
2C0
330
1F
100
AcDbEntity
  8
ESKI_IM
370
     0
100
AcDbPoint
 10
700190.8210399529
 20
4219669.169514582
 30
1673.989990234375
  0
POINT
  5
2C1
330
1F
100
AcDbEntity
  8
ESKI_IM
370
     0
100
AcDbPoint
 10
700202.5687823512
 20
4219678.562903698
 30
1674.22900390625
  0
POINT
  5
2C2
330
1F
100
AcDbEntity
  8
ESKI_IM
370
     0
100
AcDbPoint
 10
700220.3062389013
 20
4219692.745614354
 30
1674.589965820312
  0
POINT
  5
2C3
330
1F
100
AcDbEntity
  8
ESKI_IM
370
     0
100
AcDbPoint
 10
700236.2715570573
 20
4219694.342618655
 30
1674.832885742188
  0
POINT
  5
2C4
330
1F
100
AcDbEntity
  8
ESKI_IM
370
     0
100
AcDbPoint
 10
700254.1738288378
 20
4219696.133375644
 30
1675.105346679688
  0
POINT
  5
2C5
330
1F
100
AcDbEntity
  8
ESKI_IM
370
     0
100
AcDbPoint
 10
700259.3425226152
 20
4219695.78495055
 30
1675.188354492188
  0
POINT
  5
2C6
330
1F
100
AcDbEntity
  8
ESKI_IM
370
     0
100
AcDbPoint
 10
700267.7690769385
 20
4219695.287070603
 30
1675.3271484375
  0
POINT
  5
2C7
330
1F
100
AcDbEntity
  8
ESKI_IM
370
     0
100
AcDbPoint
 10
700281.3158004886
 20
4219702.309744284
 30
1675.692626953125
  0
POINT
  5
2C8
330
1F
100
AcDbEntity
  8
ESKI_IM
370
     0
100
AcDbPoint
 10
700296.0460630347
 20
4219709.94596914
 30
1676.089965820312
  0
POINT
  5
2C9
330
1F
100
AcDbEntity
  8
ESKI_IM
370
     0
100
AcDbPoint
 10
700301.6998255391
 20
4219720.427246427
 30
1677.099975585938
  0
POINT
  5
2CA
330
1F
100
AcDbEntity
  8
ESKI_IM
370
     0
100
AcDbPoint
 10
700295.1780237872
 20
4219729.922526593
 30
1676.525390625
  0
POINT
  5
2CB
330
1F
100
AcDbEntity
  8
ESKI_IM
370
     0
100
AcDbPoint
 10
700286.2260527316
 20
4219742.955960673
 30
1676.670043945312
  0
POINT
  5
2CC
330
1F
100
AcDbEntity
  8
ESKI_IM
370
     0
100
AcDbPoint
 10
700283.9900819242
 20
4219747.866422424
 30
1676.786743164062
  0
POINT
  5
2CD
330
1F
100
AcDbEntity
  8
ESKI_IM
370
     0
100
AcDbPoint
 10
700281.6284105869
 20
4219753.05293771
 30
1676.910034179688
  0
POINT
  5
2CE
330
1F
100
AcDbEntity
  8
ESKI_IM
370
     0
100
AcDbPoint
 10
700277.9069983637
 20
4219756.650935752
 30
1676.93994140625
  0
POINT
  5
2CF
330
1F
100
AcDbEntity
  8
ESKI_IM
370
     0
100
AcDbPoint
 10
700268.635420509
 20
4219762.73412952
 30
1677.842041015625
  0
POINT
  5
2D0
330
1F
100
AcDbEntity
  8
ESKI_IM
370
     0
100
AcDbPoint
 10
700267.52696601
 20
4219759.44387072
 30
1677.099975585938
  0
POINT
  5
2D1
330
1F
100
AcDbEntity
  8
ESKI_IM
370
     0
100
AcDbPoint
 10
700266.6788763624
 20
4219759.855927022
 30
1677.589965820312
  0
POINT
  5
2D2
330
1F
100
AcDbEntity
  8
ESKI_IM
370
     0
100
AcDbPoint
 10
700265.776475082
 20
4219759.95620953
 30
1677.579956054688
  0
POINT
  5
2D3
330
1F
100
AcDbEntity
  8
ESKI_IM
370
     0
100
AcDbPoint
 10
700266.9157647875
 20
4219763.682905091
 30
1677.390014648438
  0
POINT
  5
2D4
330
1F
100
AcDbEntity
  8
ESKI_IM
370
     0
100
AcDbPoint
 10
700258.4823483973
 20
4219767.205209406
 30
1677.390014648438
  0
LINE
  5
2D5
330
1F
100
AcDbEntity
  8
ESKI_IM
370
    13
100
AcDbLine
 10
700100.0
 20
4219573.870888396
 30
1671.827270507812
 11
700109.1121145524
 21
4219586.12627134
 31
1672.002685546875
  0
LINE
  5
2D6
330
1F
100
AcDbEntity
  8
ESKI_IM
370
    13
100
AcDbLine
 10
700109.1121145524
 20
4219586.12627134
 30
1672.002685546875
 11
700121.0431283694
 21
4219602.172946609
 31
1672.232421875
  0
LINE
  5
2D7
330
1F
100
AcDbEntity
  8
ESKI_IM
370
    13
100
AcDbLine
 10
700121.0431283694
 20
4219602.172946609
 30
1672.232421875
 11
700129.5379020383
 21
4219614.355372469
 31
1672.449462890625
  0
LINE
  5
2D8
330
1F
100
AcDbEntity
  8
ESKI_IM
370
    13
100
AcDbLine
 10
700129.5379020383
 20
4219614.355372469
 30
1672.449462890625
 11
700148.9658411869
 21
4219642.301556665
 31
1672.951782226562
  0
LINE
  5
2D9
330
1F
100
AcDbEntity
  8
ESKI_IM
370
    13
100
AcDbLine
 10
700148.9658411869
 20
4219642.301556665
 30
1672.951782226562
 11
700160.7598713574
 21
4219654.424416223
 31
1673.52001953125
  0
LINE
  5
2DA
330
1F
100
AcDbEntity
  8
ESKI_IM
370
    13
100
AcDbLine
 10
700160.7598713574
 20
4219654.424416223
 30
1673.52001953125
 11
700174.3627348982
 21
4219661.096663851
 31
1673.732666015625
  0
LINE
  5
2DB
330
1F
100
AcDbEntity
  8
ESKI_IM
370
    13
100
AcDbLine
 10
700174.3627348982
 20
4219661.096663851
 30
1673.732666015625
 11
700190.8210399529
 21
4219669.169514582
 31
1673.989990234375
  0
LINE
  5
2DC
330
1F
100
AcDbEntity
  8
ESKI_IM
370
    13
100
AcDbLine
 10
700190.8210399529
 20
4219669.169514582
 30
1673.989990234375
 11
700202.5687823512
 21
4219678.562903698
 31
1674.22900390625
  0
LINE
  5
2DD
330
1F
100
AcDbEntity
  8
ESKI_IM
370
    13
100
AcDbLine
 10
700202.5687823512
 20
4219678.562903698
 30
1674.22900390625
 11
700220.3062389013
 21
4219692.745614354
 31
1674.589965820312
  0
LINE
  5
2DE
330
1F
100
AcDbEntity
  8
ESKI_IM
370
    13
100
AcDbLine
 10
700220.3062389013
 20
4219692.745614354
 30
1674.589965820312
 11
700236.2715570573
 21
4219694.342618655
 31
1674.832885742188
  0
LINE
  5
2DF
330
1F
100
AcDbEntity
  8
ESKI_IM
370
    13
100
AcDbLine
 10
700236.2715570573
 20
4219694.342618655
 30
1674.832885742188
 11
700254.1738288378
 21
4219696.133375644
 31
1675.105346679688
  0
LINE
  5
2E0
330
1F
100
AcDbEntity
  8
ESKI_IM
370
    13
100
AcDbLine
 10
700254.1738288378
 20
4219696.133375644
 30
1675.105346679688
 11
700259.3425226152
 21
4219695.78495055
 31
1675.188354492188
  0
LINE
  5
2E1
330
1F
100
AcDbEntity
  8
ESKI_IM
370
    13
100
AcDbLine
 10
700259.3425226152
 20
4219695.78495055
 30
1675.188354492188
 11
700267.7690769385
 21
4219695.287070603
 31
1675.3271484375
  0
LINE
  5
2E2
330
1F
100
AcDbEntity
  8
ESKI_IM
370
    13
100
AcDbLine
 10
700267.7690769385
 20
4219695.287070603
 30
1675.3271484375
 11
700281.3158004886
 21
4219702.309744284
 31
1675.692626953125
  0
LINE
  5
2E3
330
1F
100
AcDbEntity
  8
ESKI_IM
370
    13
100
AcDbLine
 10
700281.3158004886
 20
4219702.309744284
 30
1675.692626953125
 11
700296.0460630347
 21
4219709.94596914
 31
1676.089965820312
  0
LINE
  5
2E4
330
1F
100
AcDbEntity
  8
ESKI_IM
370
    13
100
AcDbLine
 10
700296.0460630347
 20
4219709.94596914
 30
1676.089965820312
 11
700301.6998255391
 21
4219720.427246427
 31
1677.099975585938
  0
LINE
  5
2E5
330
1F
100
AcDbEntity
  8
ESKI_IM
370
    13
100
AcDbLine
 10
700301.6998255391
 20
4219720.427246427
 30
1677.099975585938
 11
700295.1780237872
 21
4219729.922526593
 31
1676.525390625
  0
LINE
  5
2E6
330
1F
100
AcDbEntity
  8
ESKI_IM
370
    13
100
AcDbLine
 10
700295.1780237872
 20
4219729.922526593
 30
1676.525390625
 11
700286.2260527316
 21
4219742.955960673
 31
1676.670043945312
  0
LINE
  5
2E7
330
1F
100
AcDbEntity
  8
ESKI_IM
370
    13
100
AcDbLine
 10
700286.2260527316
 20
4219742.955960673
 30
1676.670043945312
 11
700283.9900819242
 21
4219747.866422424
 31
1676.786743164062
  0
LINE
  5
2E8
330
1F
100
AcDbEntity
  8
ESKI_IM
370
    13
100
AcDbLine
 10
700283.9900819242
 20
4219747.866422424
 30
1676.786743164062
 11
700281.6284105869
 21
4219753.05293771
 31
1676.910034179688
  0
LINE
  5
2E9
330
1F
100
AcDbEntity
  8
ESKI_IM
370
    13
100
AcDbLine
 10
700281.6284105869
 20
4219753.05293771
 30
1676.910034179688
 11
700277.9069983637
 21
4219756.650935752
 31
1676.93994140625
  0
LINE
  5
2EA
330
1F
100
AcDbEntity
  8
ESKI_IM
370
     0
100
AcDbLine
 10
700277.906998364
 20
4219756.65093575
 30
1676.93994140625
 11
700268.635420509
 21
4219762.73412952
 31
1677.390014648438
  0
LINE
  5
2EB
330
1F
100
AcDbEntity
  8
ESKI_IM
370
     0
100
AcDbLine
 10
700268.635420509
 20
4219762.73412952
 30
1677.390014648438
 11
700267.52696601
 21
4219759.44387072
 31
1677.390014648438
  0
LINE
  5
2EC
330
1F
100
AcDbEntity
  8
ESKI_IM
370
    13
100
AcDbLine
 10
700265.776475082
 20
4219759.95620953
 30
1677.579956054688
 11
700266.9157647875
 21
4219763.682905091
 31
1677.390014648438
  0
LINE
  5
2ED
330
1F
100
AcDbEntity
  8
ESKI_IM
370
    13
100
AcDbLine
 10
700266.9157647875
 20
4219763.682905091
 30
1677.390014648438
 11
700258.4823483973
 21
4219767.205209406
 31
1677.390014648438
  0
LINE
  5
2EF
330
1F
100
AcDbEntity
  8
ESKI_IM
370
     0
100
AcDbLine
 10
700265.776475082
 20
4219759.95620953
 30
1677.390014648438
 11
700267.52696601
 21
4219759.44387072
 31
1677.390014648438
  0
LINE
  5
2F0
330
1F
100
AcDbEntity
  8
YENI2
370
     0
100
AcDbLine
 10
700285.851203241
 20
4219816.17843408
 30
1659.099975585938
 11
700306.004644511
 21
4219879.24570663
 31
1629.7900390625
  0
LINE
  5
2F1
330
1F
100
AcDbEntity
  8
YENI2
370
     0
100
AcDbLine
 10
700284.083264292
 20
4219817.21642402
 30
1659.099975585938
 11
700304.099550102
 21
4219879.85448844
 31
1629.7900390625
  0
LINE
  5
2F2
330
1F
100
AcDbEntity
  8
1660_1_KAT
370
    13
100
AcDbLine
 10
700285.851203241
 20
4219816.17843408
 30
1659.099975585938
 11
700291.679410904
 21
4219812.75658464
 31
1659.099975585938
  0
LINE
  5
2F3
330
1F
100
AcDbEntity
  8
IKINCIKAT
370
     0
100
AcDbLine
 10
700306.004644511
 20
4219879.24570663
 30
1629.7900390625
 11
700307.4238706623
 21
4219883.328911885
 31
1629.7900390625
  0
LINE
  5
2F4
330
1F
100
AcDbEntity
  8
IKINCIKAT
370
     0
100
AcDbLine
 10
700304.099550102
 20
4219879.85448844
 30
1629.7900390625
 11
700306.995156946
 21
4219888.18727276
 31
1629.7900390625
  0
LINE
  5
2F5
330
1F
100
AcDbEntity
  8
IKINCIKAT
370
     0
100
AcDbLine
 10
700306.995156946
 20
4219888.18727276
 30
1629.7900390625
 11
700308.8842968
 21
4219887.53065216
 31
1629.7900390625
  0
LINE
  5
2F6
330
1F
100
AcDbEntity
  8
IKINCIKAT
370
     0
100
AcDbLine
 10
700307.423870662
 20
4219883.32891188
 30
1629.7900390625
 11
700316.674780784
 21
4219878.66605422
 31
1629.900024414062
  0
LINE
  5
2F7
330
1F
100
AcDbEntity
  8
IKINCIKAT
370
     0
100
AcDbLine
 10
700308.086285512
 20
4219885.23472217
 30
1629.7900390625
 11
700317.917051056
 21
4219880.42007313
 31
1629.900024414062
  0
LINE
  5
2F8
330
1F
100
AcDbEntity
  8
IKINCIKAT
370
     0
100
AcDbLine
 10
700308.0862855125
 20
4219885.234722171
 30
1629.7900390625
 11
700308.8842968
 21
4219887.53065216
 31
1629.7900390625
  0
LINE
  5
2F9
330
1F
100
AcDbEntity
  8
IKINCIKAT
370
     0
100
AcDbLine
 10
700316.613638206
 20
4219878.69139714
 30
1629.900024414062
 11
700327.842587336
 21
4219859.45219439
 31
1630.35888671875
  0
LINE
  5
2FA
330
1F
100
AcDbEntity
  8
IKINCIKAT
370
     0
100
AcDbLine
 10
700317.917051056
 20
4219880.42007313
 30
1629.900024414062
 11
700329.523488666
 21
4219860.53939557
 31
1630.358520507812
  0
LINE
  5
2FB
330
1F
100
AcDbEntity
  8
IKINCIKAT
370
     0
100
AcDbLine
 10
700337.499048583
 20
4219865.69796018
 30
1630.430053710938
 11
700329.523488666
 21
4219860.53939557
 31
1630.359008789062
  0
LINE
  5
2FC
330
1F
100
AcDbEntity
  8
IKINCIKAT
370
     0
100
AcDbLine
 10
700338.585240655
 20
4219864.01861901
 30
1630.430053710938
 11
700328.851795437
 21
4219857.72306025
 31
1630.359008789062
  0
LINE
  5
2FD
330
1F
100
AcDbEntity
  8
IKINCIKAT
370
     0
100
AcDbLine
 10
700327.842587336
 20
4219859.45219439
 30
1630.35888671875
 11
700328.851795437
 21
4219857.72306025
 31
1630.359008789062
  0
LINE
  5
2FE
330
1F
100
AcDbEntity
  8
IKINCIKAT
370
     0
100
AcDbLine
 10
700338.585240655
 20
4219864.01861901
 30
1630.430053710938
 11
700373.915628084
 21
4219901.64930702
 31
1631.400024414062
  0
LINE
  5
2FF
330
1F
100
AcDbEntity
  8
IKINCIKAT
370
     0
100
AcDbLine
 10
700337.499048583
 20
4219865.69796018
 30
1630.430053710938
 11
700372.457551995
 21
4219903.01825338
 31
1631.400024414062
  0
LINE
  5
300
330
1F
100
AcDbEntity
  8
IKINCIKAT
370
     0
100
AcDbLine
 10
700373.915628084
 20
4219901.64930702
 30
1631.400024414062
 11
700397.784830162
 21
4219921.47873102
 31
1632.0
  0
LINE
  5
301
330
1F
100
AcDbEntity
  8
IKINCIKAT
370
     0
100
AcDbLine
 10
700372.457551995
 20
4219903.01825338
 30
1631.400024414062
 11
700396.506805059
 21
4219923.01712363
 31
1632.0
  0
LINE
  5
302
330
1F
100
AcDbEntity
  8
YENI2
370
     0
100
AcDbLine
 10
700629.739493646
 20
4219983.91721422
 30
1638.199951171875
 11
700635.443195101
 21
4219990.96296308
 31
1640.199951171875
  0
LINE
  5
303
330
1F
100
AcDbEntity
  8
YENI2
370
     0
100
AcDbLine
 10
700628.185003905
 20
4219985.17561068
 30
1638.199951171875
 11
700633.88870536
 21
4219992.22135953
 31
1640.199951171875
  0
LINE
  5
304
330
1F
100
AcDbEntity
  8
YENI2
370
     0
100
AcDbLine
 10
700635.443195101
 20
4219990.96296308
 30
1640.199951171875
 11
700637.671577875
 21
4219995.74120433
 31
1641.400024414062
  0
LINE
  5
305
330
1F
100
AcDbEntity
  8
YENI2
370
     0
100
AcDbLine
 10
700633.88870536
 20
4219992.22135953
 30
1640.199951171875
 11
700635.601458584
 21
4219996.35523125
 31
1641.400024414062
  0
LINE
  5
306
330
1F
100
AcDbEntity
  8
YENI2
370
     0
100
AcDbLine
 10
700637.671577875
 20
4219995.74120433
 30
1641.400024414062
 11
700636.883669426
 21
4220006.07352856
 31
1643.5
  0
LINE
  5
307
330
1F
100
AcDbEntity
  8
YENI2
370
     0
100
AcDbLine
 10
700635.601458584
 20
4219996.35523125
 30
1641.400024414062
 11
700634.813550135
 21
4220006.68755548
 31
1643.5
  0
LINE
  5
308
330
1F
100
AcDbEntity
  8
YENI2
370
     0
100
AcDbLine
 10
700636.883669426
 20
4220006.07352856
 30
1643.5
 11
700638.058460501
 21
4220008.79694532
 31
1644.099975585938
  0
LINE
  5
309
330
1F
100
AcDbEntity
  8
YENI2
370
     0
100
AcDbLine
 10
700634.813550135
 20
4220006.68755548
 30
1643.5
 11
700636.5284215
 21
4220010.29938979
 31
1644.099975585938
  0
LINE
  5
30A
330
1F
100
AcDbEntity
  8
YENI2
370
     0
100
AcDbLine
 10
700638.058460501
 20
4220008.79694532
 30
1644.099975585938
 11
700640.431399503
 21
4220009.8721833
 31
1644.699951171875
  0
LINE
  5
30B
330
1F
100
AcDbEntity
  8
YENI2
370
     0
100
AcDbLine
 10
700636.5284215
 20
4220010.29938979
 30
1644.099975585938
 11
700639.605938749
 21
4220011.69388979
 31
1644.699951171875
  0
LINE
  5
30C
330
1F
100
AcDbEntity
  8
YENI2
370
     0
100
AcDbLine
 10
700640.431399503
 20
4220009.8721833
 30
1644.699951171875
 11
700643.009743692
 21
4220008.95655832
 31
1645.300048828125
  0
LINE
  5
30D
330
1F
100
AcDbEntity
  8
YENI2
370
     0
100
AcDbLine
 10
700639.605938749
 20
4220011.69388979
 30
1644.699951171875
 11
700645.045964419
 21
4220010.35582062
 31
1645.300048828125
  0
LINE
  5
331
330
1F
100
AcDbEntity
  8
YENI2
370
     0
100
AcDbLine
 10
700608.591101823
 20
4219978.48466607
 30
1636.199951171875
 11
700620.174316818
 21
4219979.081739
 31
1638.199951171875
  0
LINE
  5
332
330
1F
100
AcDbEntity
  8
YENI2
370
     0
100
AcDbLine
 10
700608.488145728
 20
4219980.48201432
 30
1636.199951171875
 11
700619.649230931
 21
4219981.05732799
 31
1638.199951171875
  0
LINE
  5
333
330
1F
100
AcDbEntity
  8
IKINCIKAT
370
     0
100
AcDbLine
 10
700580.268694601
 20
4219978.07528416
 30
1635.800048828125
 11
700581.747748927
 21
4219978.12970692
 31
1635.800048828125
  0
LINE
  5
334
330
1F
100
AcDbEntity
  8
IKINCIKAT
370
     0
100
AcDbLine
 10
700581.559395889
 20
4219980.09424379
 30
1635.800048828125
 11
700608.49651309
 21
4219980.4855306
 31
1636.199951171875
  0
LINE
  5
335
330
1F
100
AcDbEntity
  8
IKINCIKAT
370
     0
100
AcDbLine
 10
700581.747748927
 20
4219978.12970692
 30
1635.800048828125
 11
700608.525561895
 21
4219978.48574157
 31
1636.199951171875
  0
LINE
  5
336
330
1F
100
AcDbEntity
  8
IKINCIKAT
370
     0
100
AcDbLine
 10
700575.823531634
 20
4219992.98506976
 30
1635.3330078125
 11
700586.645342792
 21
4219997.69020505
 31
1635.5
  0
LINE
  5
337
330
1F
100
AcDbEntity
  8
IKINCIKAT
370
     0
100
AcDbLine
 10
700575.026079411
 20
4219994.81920987
 30
1635.3330078125
 11
700585.333909374
 21
4219999.30087508
 31
1635.449951171875
  0
LINE
  5
338
330
1F
100
AcDbEntity
  8
IKINCIKAT
370
     0
100
AcDbLine
 10
700586.645342792
 20
4219997.69020505
 30
1635.449951171875
 11
700594.347455016
 21
4220008.6116814
 31
1635.599975585938
  0
LINE
  5
339
330
1F
100
AcDbEntity
  8
IKINCIKAT
370
     0
100
AcDbLine
 10
700585.333909374
 20
4219999.30087508
 30
1635.449951171875
 11
700592.560365311
 21
4220009.54787815
 31
1635.599975585938
  0
LINE
  5
33A
330
1F
100
AcDbEntity
  8
IKINCIKAT
370
     0
100
AcDbLine
 10
700594.347455016
 20
4220008.6116814
 30
1635.599975585938
 11
700600.622343576
 21
4220025.75436162
 31
1635.800048828125
  0
LINE
  5
33B
330
1F
100
AcDbEntity
  8
IKINCIKAT
370
     0
100
AcDbLine
 10
700592.560365311
 20
4220009.54787815
 30
1635.599975585938
 11
700598.713801706
 21
4220026.35875716
 31
1635.800048828125
  0
LINE
  5
33C
330
1F
100
AcDbEntity
  8
IKINCIKAT
370
     0
100
AcDbLine
 10
700600.622343576
 20
4220025.75436162
 30
1635.800048828125
 11
700603.458926019
 21
4220036.31171141
 31
1635.949951171875
  0
LINE
  5
33D
330
1F
100
AcDbEntity
  8
IKINCIKAT
370
     0
100
AcDbLine
 10
700598.713801706
 20
4220026.35875716
 30
1635.800048828125
 11
700601.7086569
 21
4220037.50517525
 31
1635.949951171875
  0
LINE
  5
33E
330
1F
100
AcDbEntity
  8
IKINCIKAT
370
     0
100
AcDbLine
 10
700603.458926019
 20
4220036.31171141
 30
1635.949951171875
 11
700627.153048271
 21
4220053.8195401
 31
1636.349975585938
  0
LINE
  5
33F
330
1F
100
AcDbEntity
  8
IKINCIKAT
370
     0
100
AcDbLine
 10
700601.7086569
 20
4220037.50517525
 30
1635.949951171875
 11
700626.179455671
 21
4220055.58689814
 31
1636.349975585938
  0
LINE
  5
340
330
1F
100
AcDbEntity
  8
IKINCIKAT
370
     0
100
AcDbLine
 10
700627.153048271
 20
4220053.8195401
 30
1636.349975585938
 11
700659.049770302
 21
4220066.21544091
 31
1636.75
  0
LINE
  5
341
330
1F
100
AcDbEntity
  8
IKINCIKAT
370
     0
100
AcDbLine
 10
700626.179455671
 20
4220055.58689814
 30
1636.349975585938
 11
700658.655510244
 21
4220068.20794274
 31
1636.75
  0
LINE
  5
342
330
1F
100
AcDbEntity
  8
IKINCIKAT
370
     0
100
AcDbLine
 10
700659.049770302
 20
4220066.21544091
 30
1636.75
 11
700660.393114534
 21
4220066.24235684
 31
1636.7646484375
  0
LINE
  5
343
330
1F
100
AcDbEntity
  8
IKINCIKAT
370
     0
100
AcDbLine
 10
700658.655510244
 20
4220068.20794274
 30
1636.75
 11
700661.8717980525
 21
4220068.272385919
 31
1636.784057617188
  0
LINE
  5
344
330
1F
100
AcDbEntity
  8
IKINCIKAT
370
     0
100
AcDbLine
 10
700677.347630262
 20
4220066.58206615
 30
1636.949951171875
 11
700682.594078143
 21
4220065.44751253
 31
1637.0
  0
LINE
  5
345
330
1F
100
AcDbEntity
  8
IKINCIKAT
370
     0
100
AcDbLine
 10
700677.541584402
 20
4220068.58635373
 30
1636.949951171875
 11
700683.230776166
 21
4220067.35605597
 31
1637.0
  0
LINE
  5
346
330
1F
100
AcDbEntity
  8
IKINCIKAT
370
     0
100
AcDbLine
 10
700682.594078143
 20
4220065.44751253
 30
1637.0
 11
700701.273230054
 21
4220056.85787489
 31
1637.25
  0
LINE
  5
347
330
1F
100
AcDbEntity
  8
IKINCIKAT
370
     0
100
AcDbLine
 10
700683.230776166
 20
4220067.35605597
 30
1637.0
 11
700702.164727469
 21
4220058.64924842
 31
1637.25
  0
LINE
  5
348
330
1F
100
AcDbEntity
  8
IKINCIKAT
370
     0
100
AcDbLine
 10
700701.273230054
 20
4220056.85787489
 30
1637.25
 11
700705.202781634
 21
4220054.74909256
 31
1637.400024414062
  0
LINE
  5
349
330
1F
100
AcDbEntity
  8
IKINCIKAT
370
     0
100
AcDbLine
 10
700702.164727469
 20
4220058.64924842
 30
1637.25
 11
700707.481904626
 21
4220055.7958009
 31
1637.400024414062
  0
LINE
  5
34A
330
1F
100
AcDbEntity
  8
IKINCIKAT
370
     0
100
AcDbLine
 10
700700.802660864
 20
4220050.527461
 30
1637.400024414062
 11
700716.923630215
 21
4220057.93116544
 31
1637.400024414062
  0
LINE
  5
34B
330
1F
100
AcDbEntity
  8
IKINCIKAT
370
     0
100
AcDbLine
 10
700699.967960971
 20
4220052.3449527
 30
1637.400024414062
 11
700705.202781633
 21
4220054.74909256
 31
1637.400024414062
  0
LINE
  5
34C
330
1F
100
AcDbEntity
  8
IKINCIKAT
370
     0
100
AcDbLine
 10
700707.481904626
 20
4220055.7958009
 30
1637.400024414062
 11
700716.088930322
 21
4220059.74865714
 31
1637.400024414062
  0
LINE
  5
34D
330
1F
100
AcDbEntity
  8
IKINCIKAT
370
     0
100
AcDbLine
 10
700699.967960971
 20
4220052.3449527
 30
1637.400024414062
 11
700700.802660864
 21
4220050.527461
 31
1637.400024414062
  0
LINE
  5
34E
330
1F
100
AcDbEntity
  8
IKINCIKAT
370
     0
100
AcDbLine
 10
700716.088930322
 20
4220059.74865714
 30
1637.400024414062
 11
700716.923630215
 21
4220057.93116544
 31
1637.400024414062
  0
LINE
  5
34F
330
1F
100
AcDbEntity
  8
IKINCIKAT
370
     0
100
AcDbLine
 10
700664.319212146
 20
4220068.32142355
 30
1636.81005859375
 11
700671.397500329
 21
4220078.79015229
 31
1636.900024414062
  0
LINE
  5
350
330
1F
100
AcDbEntity
  8
IKINCIKAT
370
     0
100
AcDbLine
 10
700661.871798052
 20
4220068.27238592
 30
1636.784057617188
 11
700669.740676553
 21
4220079.9103911
 31
1636.900024414062
  0
LINE
  5
351
330
1F
100
AcDbEntity
  8
IKINCIKAT
370
     0
100
AcDbLine
 10
700660.393114534
 20
4220066.24235684
 30
1636.77001953125
 11
700658.728441492
 21
4220063.41965038
 31
1636.77001953125
  0
LINE
  5
352
330
1F
100
AcDbEntity
  8
IKINCIKAT
370
     0
100
AcDbLine
 10
700662.742772667
 20
4220066.28943579
 30
1636.77001953125
 11
700660.451173298
 21
4220062.40368034
 31
1636.77001953125
  0
LINE
  5
353
330
1F
100
AcDbEntity
  8
IKINCIKAT
370
     0
100
AcDbLine
 10
700664.319212146
 20
4220068.32142355
 30
1636.809936523438
 11
700677.541584402
 21
4220068.58635373
 31
1636.949951171875
  0
LINE
  5
354
330
1F
100
AcDbEntity
  8
IKINCIKAT
370
     0
100
AcDbLine
 10
700662.7427726671
 20
4220066.289435786
 30
1636.790405273438
 11
700677.347630262
 21
4220066.58206615
 31
1636.949951171875
  0
LINE
  5
355
330
1F
100
AcDbEntity
  8
IKINCIKAT
370
     0
100
AcDbLine
 10
700658.728441492
 20
4220063.41965038
 30
1636.77001953125
 11
700660.451173298
 21
4220062.40368034
 31
1636.77001953125
  0
LINE
  5
356
330
1F
100
AcDbEntity
  8
IKINCIKAT
370
     0
100
AcDbLine
 10
700669.740676553
 20
4220079.9103911
 30
1636.900024414062
 11
700671.397500329
 21
4220078.79015229
 31
1636.900024414062
  0
LINE
  5
35F
330
1F
100
AcDbEntity
  8
YENI2
370
     0
100
AcDbLine
 10
700619.649230931
 20
4219981.05732799
 30
1638.199951171875
 11
700628.185003905
 21
4219985.17561068
 31
1638.199951171875
  0
LINE
  5
360
330
1F
100
AcDbEntity
  8
YENI2
370
     0
100
AcDbLine
 10
700620.174316818
 20
4219979.081739
 30
1638.199951171875
 11
700629.739493646
 21
4219983.91721422
 31
1638.199951171875
  0
LINE
  5
3A8
330
1F
100
AcDbEntity
  8
YENI2
370
     0
100
AcDbLine
 10
700306.004644511
 20
4219879.24570663
 30
1629.7900390625
 11
700336.957368305
 21
4219968.5139603
 31
1587.599975585938
  0
LINE
  5
3A9
330
1F
100
AcDbEntity
  8
YENI2
370
     0
100
AcDbLine
 10
700304.115014017
 20
4219879.90091392
 30
1629.7900390625
 11
700335.067737811
 21
4219969.16916759
 31
1587.599975585938
  0
LINE
  5
3B4
330
1F
100
AcDbEntity
  8
NEFESLIK
370
     0
100
AcDbLine
 10
700438.672060661
 20
4219868.97307356
 30
1678.099975585938
 11
700385.088
 21
4219841.727
 31
1677.5
  0
LINE
  5
3B5
330
1F
100
AcDbEntity
  8
NEFESLIK
370
     0
100
AcDbLine
 10
700385.087699591
 20
4219841.72660215
 30
1677.5
 11
700342.393304913
 21
4219804.83021169
 31
1677.099975585938
  0
LINE
  5
3B6
330
1F
100
AcDbEntity
  8
NEFESLIK
370
     0
100
AcDbLine
 10
700342.393304913
 20
4219804.83021169
 30
1677.099975585938
 11
700280.283133813
 21
4219757.17501607
 31
1676.900024414062
  0
LINE
  5
3BB
330
1F
100
AcDbEntity
  8
NEFESLIK
370
     0
100
AcDbLine
 10
700437.2159922596
 20
4219870.476399485
 30
1678.099975585938
 11
700384.1815082064
 21
4219843.509771053
 31
1677.5
  0
LINE
  5
3BC
330
1F
100
AcDbEntity
  8
NEFESLIK
370
     0
100
AcDbLine
 10
700383.7799735276
 20
4219843.239828023
 30
1677.5
 11
700341.1296391034
 21
4219806.381514325
 31
1677.099975585938
  0
LINE
  5
3BD
330
1F
100
AcDbEntity
  8
NEFESLIK
370
     0
100
AcDbLine
 10
700341.129639103
 20
4219806.38151433
 30
1677.099975585938
 11
700279.065669082
 21
4219758.76176735
 31
1676.900024414062
  0
LINE
  5
3C0
330
1F
100
AcDbEntity
  8
BINA
370
     0
100
AcDbLine
 10
699848.90838878
 20
4219084.36677447
 30
1660.0
 11
699856.90838878
 21
4219084.36677447
 31
1660.0
  0
LINE
  5
3C1
330
1F
100
AcDbEntity
  8
BINA
370
     0
100
AcDbLine
 10
699856.90838878
 20
4219084.36677447
 30
1660.0
 11
699856.90838878
 21
4219079.36677447
 31
1660.0
  0
LINE
  5
3C2
330
1F
100
AcDbEntity
  8
BINA
370
     0
100
AcDbLine
 10
699848.90838878
 20
4219081.86677447
 30
1660.0
 11
699856.90838878
 21
4219081.86677447
 31
1660.0
  0
LINE
  5
3C3
330
1F
100
AcDbEntity
  8
BINA
370
     0
100
AcDbLine
 10
699848.90838878
 20
4219079.36677447
 30
1660.0
 11
699856.90838878
 21
4219079.36677447
 31
1660.0
  0
LINE
  5
3C4
330
1F
100
AcDbEntity
  8
BINA
370
     0
100
AcDbLine
 10
699852.90838878
 20
4219084.36677447
 30
1660.0
 11
699852.90838878
 21
4219079.36677447
 31
1660.0
  0
LINE
  5
3C5
330
1F
100
AcDbEntity
  8
BINA
370
     0
100
AcDbLine
 10
699848.90838878
 20
4219084.36677447
 30
1660.0
 11
699848.90838878
 21
4219079.36677447
 31
1660.0
  0
MTEXT
  5
40A
330
1F
100
AcDbEntity
  8
TEXT
100
AcDbMText
 10
699847.7921778542
 20
4219094.675401879
 30
1660.0
 40
2.5
 41
21.75209890888073
 46
6.721721721721722
 71
     1
 72
     5
  1
{SARJ ISTASYONU}
 73
     1
 44
1.0
1001
ACAD
1000
ACAD_MTEXT_DEFINED_HEIGHT_BEGIN
1070
    46
1040
6.721721721721722
1000
ACAD_MTEXT_DEFINED_HEIGHT_END
  0
POINT
  5
413
330
1F
100
AcDbEntity
  8
INIT_COORD
100
AcDbPoint
 10
699796.8557000001
 20
4219172.520599999
 30
1669.57
  0
ENDSEC
  0
SECTION
  2
OBJECTS
  0
DICTIONARY
  5
C
330
0
100
AcDbDictionary
281
     1
  3
ACAD_DETAILVIEWSTYLE
350
3DB
  3
ACAD_GROUP
350
D
  3
ACAD_IMAGE_VARS
350
3D8
  3
ACAD_LAYOUT
350
1A
  3
ACAD_MATERIAL
350
3B
  3
ACAD_MLEADERSTYLE
350
3C9
  3
ACAD_MLINESTYLE
350
17
  3
ACAD_PLOTSETTINGS
350
19
  3
ACAD_PLOTSTYLENAME
350
E
  3
ACAD_SCALELIST
350
5F
  3
ACAD_SECTIONVIEWSTYLE
350
3DC
  3
ACAD_TABLESTYLE
350
3C8
  3
ACAD_VISUALSTYLE
350
2A
  3
ACDB_RECOMPOSE_DATA
350
42A
  3
AcDbVariableDictionary
350
3C6
  3
APPDATA
350
3D6
  0
SUN
  5
3D7
330
29
100
AcDbSun
 90
        1
290
     0
 63
     7
421
 16777215
 40
1.0
291
     1
 91
  2455826
 92
 54000000
292
     0
 70
     2
 71
   256
280
     1
  0
DICTIONARY
  5
405
330
2
100
AcDbDictionary
280
     1
281
     1
  3
ACAD_LAYERSTATES
360
406
  3
ACLYDICTIONARY
360
411
  0
DICTIONARY
  5
3DB
102
{ACAD_REACTORS
330
C
102
}
330
C
100
AcDbDictionary
281
     1
  0
DICTIONARY
  5
D
102
{ACAD_REACTORS
330
C
102
}
330
C
100
AcDbDictionary
281
     1
  0
RASTERVARIABLES
  5
3D8
102
{ACAD_REACTORS
330
C
102
}
330
C
100
AcDbRasterVariables
 90
        0
 70
     1
 71
     1
 72
     1
  0
DICTIONARY
  5
1A
102
{ACAD_REACTORS
330
C
102
}
330
C
100
AcDbDictionary
281
     1
  3
Layout1
350
1E
  3
Layout2
350
26
  3
Model
350
22
  0
DICTIONARY
  5
3B
102
{ACAD_REACTORS
330
C
102
}
330
C
100
AcDbDictionary
281
     1
  3
ByBlock
350
3D
  3
ByLayer
350
3C
  3
Global
350
3E
  0
DICTIONARY
  5
3C9
102
{ACAD_REACTORS
330
C
102
}
330
C
100
AcDbDictionary
281
     1
  3
Standard
350
3D5
  0
DICTIONARY
  5
17
102
{ACAD_REACTORS
330
C
102
}
330
C
100
AcDbDictionary
281
     1
  3
Standard
350
18
  0
DICTIONARY
  5
19
102
{ACAD_REACTORS
330
C
102
}
330
C
100
AcDbDictionary
281
     1
  0
ACDBDICTIONARYWDFLT
  5
E
102
{ACAD_REACTORS
330
C
102
}
330
C
100
AcDbDictionary
281
     1
  3
Normal
350
F
100
AcDbDictionaryWithDefault
340
F
  0
DICTIONARY
  5
5F
102
{ACAD_REACTORS
330
C
102
}
330
C
100
AcDbDictionary
281
     1
  3
A0
350
60
  3
A1
350
61
  3
A2
350
62
  3
A3
350
63
  3
A4
350
64
  3
A5
350
65
  3
A6
350
66
  3
A7
350
67
  3
A8
350
68
  3
A9
350
69
  3
B0
350
6A
  3
B1
350
6B
  3
B2
350
6C
  3
B3
350
6D
  3
B4
350
6E
  3
B5
350
6F
  3
B6
350
70
  3
B7
350
71
  3
B8
350
72
  3
B9
350
73
  3
C0
350
74
  3
C1
350
75
  3
C2
350
76
  3
C3
350
77
  3
C4
350
78
  3
C5
350
79
  3
C6
350
7A
  3
C7
350
7B
  3
C8
350
7C
  3
C9
350
7D
  3
D0
350
7E
  3
D1
350
7F
  3
D2
350
80
  0
DICTIONARY
  5
3DC
102
{ACAD_REACTORS
330
C
102
}
330
C
100
AcDbDictionary
281
     1
  0
DICTIONARY
  5
3C8
102
{ACAD_REACTORS
330
C
102
}
330
C
100
AcDbDictionary
281
     1
  3
Standard
350
3D4
  0
DICTIONARY
  5
2A
102
{ACAD_REACTORS
330
C
102
}
330
C
100
AcDbDictionary
281
     1
  3
2dWireframe
350
2F
  3
3D Hidden
350
31
  3
3dWireframe
350
30
  3
Basic
350
32
  3
Brighten
350
36
  3
ColorChange
350
3A
  3
Conceptual
350
34
  3
Dim
350
35
  3
EdgeColorOff
350
3CE
  3
Facepattern
350
39
  3
Flat
350
2B
  3
FlatWithEdges
350
2C
  3
Gouraud
350
2D
  3
GouraudWithEdges
350
2E
  3
Hidden
350
3CB
  3
JitterOff
350
3CC
  3
Linepattern
350
38
  3
OverhangOff
350
3CD
  3
Realistic
350
33
  3
Shaded
350
3D3
  3
Shaded with edges
350
3D2
  3
Shades of Gray
350
3CF
  3
Sketchy
350
3D0
  3
Thicken
350
37
  3
Wireframe
350
3CA
  3
X-Ray
350
3D1
  0
XRECORD
  5
42A
102
{ACAD_REACTORS
330
C
102
}
330
C
100
AcDbXrecord
280
     1
 90
        1
330
3D4
  0
DICTIONARY
  5
3C6
102
{ACAD_REACTORS
330
C
102
}
330
C
100
AcDbDictionary
281
     1
  3
CANNOSCALE
350
3C7
  3
CMLEADERSTYLE
350
3DA
  3
CTABLESTYLE
350
3D9
  0
DICTIONARY
  5
3D6
102
{ACAD_REACTORS
330
C
102
}
330
C
100
AcDbDictionary
281
     1
  0
DICTIONARY
  5
406
102
{ACAD_REACTORS
330
405
102
}
330
405
100
AcDbDictionary
281
     1
  0
DICTIONARY
  5
411
102
{ACAD_REACTORS
330
405
102
}
330
405
100
AcDbDictionary
281
     1
1001
ACAD
1000
<All
  0
LAYOUT
  5
1E
102
{ACAD_REACTORS
330
1A
102
}
330
1A
100
AcDbPlotSettings
  1

  2
none_device
  4

  6

 40
0.0
 41
0.0
 42
0.0
 43
0.0
 44
0.0
 45
0.0
 46
0.0
 47
0.0
 48
0.0
 49
0.0
140
0.0
141
0.0
142
1.0
143
1.0
 70
   688
 72
     0
 73
     0
 74
     5
  7

 75
    16
 76
     0
 77
     2
 78
   300
147
1.0
148
0.0
149
0.0
100
AcDbLayout
  1
Layout1
 70
     1
 71
     1
 10
0.0
 20
0.0
 11
420.0
 21
297.0
 12
0.0
 22
0.0
 32
0.0
 14
1.000000000000000E+20
 24
1.000000000000000E+20
 34
1.000000000000000E+20
 15
-1.000000000000000E+20
 25
-1.000000000000000E+20
 35
-1.000000000000000E+20
146
0.0
 13
0.0
 23
0.0
 33
0.0
 16
1.0
 26
0.0
 36
0.0
 17
0.0
 27
1.0
 37
0.0
 76
     0
330
1B
  0
LAYOUT
  5
26
102
{ACAD_REACTORS
330
1A
102
}
330
1A
100
AcDbPlotSettings
  1

  2
none_device
  4

  6

 40
0.0
 41
0.0
 42
0.0
 43
0.0
 44
0.0
 45
0.0
 46
0.0
 47
0.0
 48
0.0
 49
0.0
140
0.0
141
0.0
142
1.0
143
1.0
 70
   688
 72
     0
 73
     0
 74
     5
  7

 75
    16
 76
     0
 77
     2
 78
   300
147
1.0
148
0.0
149
0.0
100
AcDbLayout
  1
Layout2
 70
     1
 71
     2
 10
0.0
 20
0.0
 11
0.0
 21
0.0
 12
0.0
 22
0.0
 32
0.0
 14
0.0
 24
0.0
 34
0.0
 15
0.0
 25
0.0
 35
0.0
146
0.0
 13
0.0
 23
0.0
 33
0.0
 16
1.0
 26
0.0
 36
0.0
 17
0.0
 27
1.0
 37
0.0
 76
     0
330
23
  0
LAYOUT
  5
22
102
{ACAD_REACTORS
330
1A
102
}
330
1A
100
AcDbPlotSettings
  1

  2
none_device
  4

  6

 40
0.0
 41
0.0
 42
0.0
 43
0.0
 44
0.0
 45
0.0
 46
0.0
 47
0.0
 48
0.0
 49
0.0
140
0.0
141
0.0
142
1.0
143
1.0
 70
  1712
 72
     0
 73
     0
 74
     0
  7

 75
     0
 76
     0
 77
     2
 78
   300
147
1.0
148
0.0
149
0.0
100
AcDbLayout
  1
Model
 70
     1
 71
     0
 10
0.0
 20
0.0
 11
420.0
 21
297.0
 12
0.0
 22
0.0
 32
0.0
 14
699796.127251698
 24
4219079.36677447
 34
1587.599975585938
 15
700716.923630215
 25
4220079.9103911
 35
1678.099975585938
146
0.0
 13
0.0
 23
0.0
 33
0.0
 16
1.0
 26
0.0
 36
0.0
 17
0.0
 27
1.0
 37
0.0
 76
     0
330
1F
331
29
  0
MATERIAL
  5
3D
102
{ACAD_REACTORS
330
3B
102
}
330
3B
100
AcDbMaterial
  1
ByBlock
 72
     1
 94
      127
  0
MATERIAL
  5
3C
102
{ACAD_REACTORS
330
3B
102
}
330
3B
100
AcDbMaterial
  1
ByLayer
 72
     1
 94
      127
  0
MATERIAL
  5
3E
102
{ACAD_REACTORS
330
3B
102
}
330
3B
100
AcDbMaterial
  1
Global
 72
     1
 94
      127
  0
MLEADERSTYLE
  5
3D5
102
{ACAD_REACTORS
330
3C9
102
}
330
3C9
100
AcDbMLeaderStyle
179
     2
170
     2
171
     1
172
     0
 90
        2
 40
0.0
 41
0.0
173
     1
 91
-1056964608
340
14
 92
       -2
290
     1
 42
2.0
291
     1
 43
8.0
  3
Standard
341
0
 44
4.0
300

342
11
174
     1
178
     1
175
     1
176
     0
 93
-1056964608
 45
4.0
292
     0
297
     0
 46
4.0
343
0
 94
-1056964608
 47
1.0
 49
1.0
140
1.0
293
     1
141
0.0
294
     1
177
     0
142
1.0
295
     0
296
     0
143
3.75
271
     0
272
     9
273
     9
  0
MLINESTYLE
  5
18
102
{ACAD_REACTORS
330
17
102
}
330
17
100
AcDbMlineStyle
  2
Standard
 70
     0
  3

 62
   256
 51
90.0
 52
90.0
 71
     2
 49
0.5
 62
   256
  6
BYLAYER
 49
-0.5
 62
   256
  6
BYLAYER
  0
ACDBPLACEHOLDER
  5
F
102
{ACAD_REACTORS
330
E
102
}
330
E
  0
SCALE
  5
60
102
{ACAD_REACTORS
330
5F
102
}
330
5F
100
AcDbScale
 70
     0
300
1:1
140
1.0
141
1.0
290
     1
  0
SCALE
  5
61
102
{ACAD_REACTORS
330
5F
102
}
330
5F
100
AcDbScale
 70
     0
300
1:2
140
1.0
141
2.0
290
     0
  0
SCALE
  5
62
102
{ACAD_REACTORS
330
5F
102
}
330
5F
100
AcDbScale
 70
     0
300
1:4
140
1.0
141
4.0
290
     0
  0
SCALE
  5
63
102
{ACAD_REACTORS
330
5F
102
}
330
5F
100
AcDbScale
 70
     0
300
1:5
140
1.0
141
5.0
290
     0
  0
SCALE
  5
64
102
{ACAD_REACTORS
330
5F
102
}
330
5F
100
AcDbScale
 70
     0
300
1:8
140
1.0
141
8.0
290
     0
  0
SCALE
  5
65
102
{ACAD_REACTORS
330
5F
102
}
330
5F
100
AcDbScale
 70
     0
300
1:10
140
1.0
141
10.0
290
     0
  0
SCALE
  5
66
102
{ACAD_REACTORS
330
5F
102
}
330
5F
100
AcDbScale
 70
     0
300
1:16
140
1.0
141
16.0
290
     0
  0
SCALE
  5
67
102
{ACAD_REACTORS
330
5F
102
}
330
5F
100
AcDbScale
 70
     0
300
1:20
140
1.0
141
20.0
290
     0
  0
SCALE
  5
68
102
{ACAD_REACTORS
330
5F
102
}
330
5F
100
AcDbScale
 70
     0
300
1:30
140
1.0
141
30.0
290
     0
  0
SCALE
  5
69
102
{ACAD_REACTORS
330
5F
102
}
330
5F
100
AcDbScale
 70
     0
300
1:40
140
1.0
141
40.0
290
     0
  0
SCALE
  5
6A
102
{ACAD_REACTORS
330
5F
102
}
330
5F
100
AcDbScale
 70
     0
300
1:50
140
1.0
141
50.0
290
     0
  0
SCALE
  5
6B
102
{ACAD_REACTORS
330
5F
102
}
330
5F
100
AcDbScale
 70
     0
300
1:100
140
1.0
141
100.0
290
     0
  0
SCALE
  5
6C
102
{ACAD_REACTORS
330
5F
102
}
330
5F
100
AcDbScale
 70
     0
300
2:1
140
2.0
141
1.0
290
     0
  0
SCALE
  5
6D
102
{ACAD_REACTORS
330
5F
102
}
330
5F
100
AcDbScale
 70
     0
300
4:1
140
4.0
141
1.0
290
     0
  0
SCALE
  5
6E
102
{ACAD_REACTORS
330
5F
102
}
330
5F
100
AcDbScale
 70
     0
300
8:1
140
8.0
141
1.0
290
     0
  0
SCALE
  5
6F
102
{ACAD_REACTORS
330
5F
102
}
330
5F
100
AcDbScale
 70
     0
300
10:1
140
10.0
141
1.0
290
     0
  0
SCALE
  5
70
102
{ACAD_REACTORS
330
5F
102
}
330
5F
100
AcDbScale
 70
     0
300
100:1
140
100.0
141
1.0
290
     0
  0
SCALE
  5
71
102
{ACAD_REACTORS
330
5F
102
}
330
5F
100
AcDbScale
 70
     0
300
1/128" = 1'-0"
140
0.0078125
141
12.0
290
     0
  0
SCALE
  5
72
102
{ACAD_REACTORS
330
5F
102
}
330
5F
100
AcDbScale
 70
     0
300
1/64" = 1'-0"
140
0.015625
141
12.0
290
     0
  0
SCALE
  5
73
102
{ACAD_REACTORS
330
5F
102
}
330
5F
100
AcDbScale
 70
     0
300
1/32" = 1'-0"
140
0.03125
141
12.0
290
     0
  0
SCALE
  5
74
102
{ACAD_REACTORS
330
5F
102
}
330
5F
100
AcDbScale
 70
     0
300
1/16" = 1'-0"
140
0.0625
141
12.0
290
     0
  0
SCALE
  5
75
102
{ACAD_REACTORS
330
5F
102
}
330
5F
100
AcDbScale
 70
     0
300
3/32" = 1'-0"
140
0.09375
141
12.0
290
     0
  0
SCALE
  5
76
102
{ACAD_REACTORS
330
5F
102
}
330
5F
100
AcDbScale
 70
     0
300
1/8" = 1'-0"
140
0.125
141
12.0
290
     0
  0
SCALE
  5
77
102
{ACAD_REACTORS
330
5F
102
}
330
5F
100
AcDbScale
 70
     0
300
3/16" = 1'-0"
140
0.1875
141
12.0
290
     0
  0
SCALE
  5
78
102
{ACAD_REACTORS
330
5F
102
}
330
5F
100
AcDbScale
 70
     0
300
1/4" = 1'-0"
140
0.25
141
12.0
290
     0
  0
SCALE
  5
79
102
{ACAD_REACTORS
330
5F
102
}
330
5F
100
AcDbScale
 70
     0
300
3/8" = 1'-0"
140
0.375
141
12.0
290
     0
  0
SCALE
  5
7A
102
{ACAD_REACTORS
330
5F
102
}
330
5F
100
AcDbScale
 70
     0
300
1/2" = 1'-0"
140
0.5
141
12.0
290
     0
  0
SCALE
  5
7B
102
{ACAD_REACTORS
330
5F
102
}
330
5F
100
AcDbScale
 70
     0
300
3/4" = 1'-0"
140
0.75
141
12.0
290
     0
  0
SCALE
  5
7C
102
{ACAD_REACTORS
330
5F
102
}
330
5F
100
AcDbScale
 70
     0
300
1" = 1'-0"
140
1.0
141
12.0
290
     0
  0
SCALE
  5
7D
102
{ACAD_REACTORS
330
5F
102
}
330
5F
100
AcDbScale
 70
     0
300
1-1/2" = 1'-0"
140
1.5
141
12.0
290
     0
  0
SCALE
  5
7E
102
{ACAD_REACTORS
330
5F
102
}
330
5F
100
AcDbScale
 70
     0
300
3" = 1'-0"
140
3.0
141
12.0
290
     0
  0
SCALE
  5
7F
102
{ACAD_REACTORS
330
5F
102
}
330
5F
100
AcDbScale
 70
     0
300
6" = 1'-0"
140
6.0
141
12.0
290
     0
  0
SCALE
  5
80
102
{ACAD_REACTORS
330
5F
102
}
330
5F
100
AcDbScale
 70
     0
300
1'-0" = 1'-0"
140
12.0
141
12.0
290
     0
  0
TABLESTYLE
  5
3D4
102
{ACAD_REACTORS
330
3C8
102
}
102
{ACAD_XDICTIONARY
360
428
102
}
330
3C8
100
AcDbTableStyle
  3
Standard
 70
     0
 71
     0
 40
0.06
 41
0.06
280
     0
281
     0
  7
Standard
140
4.5
170
     2
 62
     0
 63
   257
283
     0
 90
        4
 91
        0
  1

274
    -2
284
     1
 64
     0
275
    -2
285
     1
 65
     0
276
    -2
286
     1
 66
     0
277
    -2
287
     1
 67
     0
278
    -2
288
     1
 68
     0
279
    -2
289
     1
 69
     0
  7
Standard
140
6.0
170
     5
 62
     0
 63
   257
283
     0
 90
        4
 91
        0
  1

274
    -2
284
     1
 64
     0
275
    -2
285
     1
 65
     0
276
    -2
286
     1
 66
     0
277
    -2
287
     1
 67
     0
278
    -2
288
     1
 68
     0
279
    -2
289
     1
 69
     0
  7
Standard
140
4.5
170
     5
 62
     0
 63
   257
283
     0
 90
        4
 91
        0
  1

274
    -2
284
     1
 64
     0
275
    -2
285
     1
 65
     0
276
    -2
286
     1
 66
     0
277
    -2
287
     1
 67
     0
278
    -2
288
     1
 68
     0
279
    -2
289
     1
 69
     0
  0
VISUALSTYLE
  5
2F
102
{ACAD_REACTORS
330
2A
102
}
330
2A
100
AcDbVisualStyle
  2
2dWireframe
 70
     4
177
     2
291
     0
 71
     0
176
     1
 72
     2
176
     1
 73
     0
176
     1
 90
        0
176
     1
 40
-0.6
176
     1
 41
-30.0
176
     1
 62
     5
 63
     7
421
 16777215
176
     1
 74
     1
176
     1
 91
        4
176
     1
 64
     7
176
     1
 65
   257
176
     1
 75
     1
176
     1
175
     1
176
     1
 42
1.0
176
     1
 92
        0
176
     1
 66
   257
176
     1
 43
1.0
176
     1
 76
     1
176
     1
 77
     6
176
     1
 78
     2
176
     1
 67
     7
176
     1
 79
     5
176
     1
170
     0
176
     1
171
     0
176
     1
290
     0
176
     1
 93
        1
176
     1
 44
0.0
176
     1
173
     0
176
     1
  0
VISUALSTYLE
  5
31
102
{ACAD_REACTORS
330
2A
102
}
330
2A
100
AcDbVisualStyle
  2
3D Hidden
 70
     6
177
     2
291
     0
 71
     1
176
     1
 72
     2
176
     1
 73
     2
176
     1
 90
        0
176
     1
 40
-0.6
176
     1
 41
-30.0
176
     1
 62
     5
 63
     7
421
 16777215
176
     1
 74
     2
176
     1
 91
        2
176
     1
 64
     7
176
     1
 65
   257
176
     1
 75
     2
176
     1
175
     1
176
     1
 42
40.0
176
     1
 92
        0
176
     1
 66
   257
176
     1
 43
1.0
176
     1
 76
     1
176
     1
 77
     6
176
     1
 78
     2
176
     1
 67
     7
176
     1
 79
     3
176
     1
170
     0
176
     1
171
     0
176
     1
290
     0
176
     1
 93
        1
176
     1
 44
0.0
176
     1
173
     0
176
     1
  0
VISUALSTYLE
  5
30
102
{ACAD_REACTORS
330
2A
102
}
330
2A
100
AcDbVisualStyle
  2
3dWireframe
 70
     5
177
     2
291
     0
 71
     0
176
     1
 72
     2
176
     1
 73
     0
176
     1
 90
        0
176
     1
 40
-0.6
176
     1
 41
-30.0
176
     1
 62
     5
 63
     7
421
 16777215
176
     1
 74
     1
176
     1
 91
        4
176
     1
 64
     7
176
     1
 65
   257
176
     1
 75
     1
176
     1
175
     1
176
     1
 42
1.0
176
     1
 92
        0
176
     1
 66
   257
176
     1
 43
1.0
176
     1
 76
     1
176
     1
 77
     6
176
     1
 78
     2
176
     1
 67
     7
176
     1
 79
     5
176
     1
170
     0
176
     1
171
     0
176
     1
290
     0
176
     1
 93
        1
176
     1
 44
0.0
176
     1
173
     0
176
     1
  0
VISUALSTYLE
  5
32
102
{ACAD_REACTORS
330
2A
102
}
330
2A
100
AcDbVisualStyle
  2
Basic
 70
     7
177
     2
291
     1
 71
     1
176
     1
 72
     0
176
     1
 73
     1
176
     1
 90
        0
176
     1
 40
-0.6
176
     1
 41
-30.0
176
     1
 62
     5
 63
     7
421
 16777215
176
     1
 74
     0
176
     1
 91
        4
176
     1
 64
     7
176
     1
 65
   257
176
     1
 75
     1
176
     1
175
     1
176
     1
 42
1.0
176
     1
 92
        8
176
     1
 66
     7
176
     1
 43
1.0
176
     1
 76
     1
176
     1
 77
     6
176
     1
 78
     2
176
     1
 67
     7
176
     1
 79
     5
176
     1
170
     0
176
     1
171
     0
176
     1
290
     0
176
     1
 93
        1
176
     1
 44
0.0
176
     1
173
     0
176
     1
  0
VISUALSTYLE
  5
36
102
{ACAD_REACTORS
330
2A
102
}
330
2A
100
AcDbVisualStyle
  2
Brighten
 70
    12
177
     2
291
     1
 71
     2
176
     1
 72
     2
176
     1
 73
     0
176
     1
 90
        0
176
     1
 40
-0.6
176
     1
 41
-30.0
176
     1
 62
     5
 63
     7
421
 16777215
176
     1
 74
     1
176
     1
 91
        4
176
     1
 64
     7
176
     1
 65
   257
176
     1
 75
     1
176
     1
175
     1
176
     1
 42
1.0
176
     1
 92
        8
176
     1
 66
     7
176
     1
 43
1.0
176
     1
 76
     1
176
     1
 77
     6
176
     1
 78
     2
176
     1
 67
     7
176
     1
 79
     5
176
     1
170
     0
176
     1
171
     0
176
     1
290
     0
176
     1
 93
        1
176
     1
 44
50.0
176
     1
173
     0
176
     1
  0
VISUALSTYLE
  5
3A
102
{ACAD_REACTORS
330
2A
102
}
330
2A
100
AcDbVisualStyle
  2
ColorChange
 70
    16
177
     2
291
     1
 71
     2
176
     1
 72
     2
176
     1
 73
     3
176
     1
 90
        0
176
     1
 40
-0.6
176
     1
 41
-30.0
176
     1
 62
     5
 63
     8
421
  8421504
176
     1
 74
     1
176
     1
 91
        4
176
     1
 64
     7
176
     1
 65
   257
176
     1
 75
     1
176
     1
175
     1
176
     1
 42
1.0
176
     1
 92
        8
176
     1
 66
     8
424
  8421504
176
     1
 43
1.0
176
     1
 76
     1
176
     1
 77
     6
176
     1
 78
     2
176
     1
 67
     7
176
     1
 79
     5
176
     1
170
     0
176
     1
171
     0
176
     1
290
     0
176
     1
 93
        1
176
     1
 44
0.0
176
     1
173
     0
176
     1
  0
VISUALSTYLE
  5
34
102
{ACAD_REACTORS
330
2A
102
}
330
2A
100
AcDbVisualStyle
  2
Conceptual
 70
     9
177
     2
291
     0
 71
     3
176
     1
 72
     2
176
     1
 73
     0
176
     1
 90
        0
176
     1
 40
-0.6
176
     1
 41
-30.0
176
     1
 62
     5
 63
     7
421
 16777215
176
     1
 74
     2
176
     1
 91
        2
176
     1
 64
     7
176
     1
 65
   257
176
     1
 75
     1
176
     1
175
     1
176
     1
 42
40.0
176
     1
 92
        8
176
     1
 66
     7
176
     1
 43
1.0
176
     1
 76
     1
176
     1
 77
     6
176
     1
 78
     2
176
     1
 67
     7
176
     1
 79
     3
176
     1
170
     0
176
     1
171
     0
176
     1
290
     0
176
     1
 93
        1
176
     1
 44
0.0
176
     1
173
     0
176
     1
  0
VISUALSTYLE
  5
35
102
{ACAD_REACTORS
330
2A
102
}
330
2A
100
AcDbVisualStyle
  2
Dim
 70
    11
177
     2
291
     1
 71
     2
176
     1
 72
     2
176
     1
 73
     0
176
     1
 90
        0
176
     1
 40
-0.6
176
     1
 41
-30.0
176
     1
 62
     5
 63
     7
421
 16777215
176
     1
 74
     1
176
     1
 91
        4
176
     1
 64
     7
176
     1
 65
   257
176
     1
 75
     1
176
     1
175
     1
176
     1
 42
1.0
176
     1
 92
        8
176
     1
 66
     7
176
     1
 43
1.0
176
     1
 76
     1
176
     1
 77
     6
176
     1
 78
     2
176
     1
 67
     7
176
     1
 79
     5
176
     1
170
     0
176
     1
171
     0
176
     1
290
     0
176
     1
 93
        1
176
     1
 44
-50.0
176
     1
173
     0
176
     1
  0
VISUALSTYLE
  5
3CE
102
{ACAD_REACTORS
330
2A
102
}
330
2A
100
AcDbVisualStyle
  2
EdgeColorOff
 70
    22
177
     2
291
     1
 71
     2
176
     0
 72
     2
176
     0
 73
     0
176
     0
 90
        0
176
     0
 40
0.6
176
     0
 41
30.0
176
     0
 62
     5
 63
     7
421
 16777215
176
     0
 74
     1
176
     0
 91
        4
176
     0
 64
     7
176
     0
 65
   257
176
     0
 75
     1
176
     0
175
     1
176
     0
 42
1.0
176
     0
 92
        8
176
     2
 66
     7
176
     0
 43
1.0
176
     0
 76
     1
176
     0
 77
     6
176
     0
 78
     2
176
     0
 67
     7
176
     0
 79
     5
176
     0
170
     0
176
     0
171
     0
176
     0
290
     0
176
     0
 93
        1
176
     0
 44
0.0
176
     0
173
     0
176
     0
  0
VISUALSTYLE
  5
39
102
{ACAD_REACTORS
330
2A
102
}
330
2A
100
AcDbVisualStyle
  2
Facepattern
 70
    15
177
     2
291
     1
 71
     2
176
     1
 72
     2
176
     1
 73
     0
176
     1
 90
        0
176
     1
 40
-0.6
176
     1
 41
-30.0
176
     1
 62
     5
 63
     7
421
 16777215
176
     1
 74
     1
176
     1
 91
        4
176
     1
 64
     7
176
     1
 65
   257
176
     1
 75
     1
176
     1
175
     1
176
     1
 42
1.0
176
     1
 92
        8
176
     1
 66
     7
176
     1
 43
1.0
176
     1
 76
     1
176
     1
 77
     6
176
     1
 78
     2
176
     1
 67
     7
176
     1
 79
     5
176
     1
170
     0
176
     1
171
     0
176
     1
290
     0
176
     1
 93
        1
176
     1
 44
0.0
176
     1
173
     0
176
     1
  0
VISUALSTYLE
  5
2B
102
{ACAD_REACTORS
330
2A
102
}
330
2A
100
AcDbVisualStyle
  2
Flat
 70
     0
177
     2
291
     1
 71
     2
176
     1
 72
     1
176
     1
 73
     1
176
     1
 90
        2
176
     1
 40
-0.6
176
     1
 41
30.0
176
     1
 62
     5
 63
     7
421
 16777215
176
     1
 74
     0
176
     1
 91
        4
176
     1
 64
     7
176
     1
 65
   257
176
     1
 75
     1
176
     1
175
     1
176
     1
 42
1.0
176
     1
 92
        8
176
     1
 66
     7
176
     1
 43
1.0
176
     1
 76
     1
176
     1
 77
     6
176
     1
 78
     2
176
     1
 67
     7
176
     1
 79
     5
176
     1
170
     0
176
     1
171
     0
176
     1
290
     0
176
     1
 93
       13
176
     1
 44
0.0
176
     1
173
     0
176
     1
  0
VISUALSTYLE
  5
2C
102
{ACAD_REACTORS
330
2A
102
}
330
2A
100
AcDbVisualStyle
  2
FlatWithEdges
 70
     1
177
     2
291
     1
 71
     2
176
     1
 72
     1
176
     1
 73
     1
176
     1
 90
        2
176
     1
 40
-0.6
176
     1
 41
30.0
176
     1
 62
     5
 63
     7
421
 16777215
176
     1
 74
     1
176
     1
 91
        4
176
     1
 64
     7
176
     1
 65
   257
176
     1
 75
     1
176
     1
175
     1
176
     1
 42
1.0
176
     1
 92
        0
176
     1
 66
   257
176
     1
 43
1.0
176
     1
 76
     1
176
     1
 77
     6
176
     1
 78
     2
176
     1
 67
     7
176
     1
 79
     5
176
     1
170
     0
176
     1
171
     0
176
     1
290
     0
176
     1
 93
       13
176
     1
 44
0.0
176
     1
173
     0
176
     1
  0
VISUALSTYLE
  5
2D
102
{ACAD_REACTORS
330
2A
102
}
330
2A
100
AcDbVisualStyle
  2
Gouraud
 70
     2
177
     2
291
     1
 71
     2
176
     1
 72
     2
176
     1
 73
     1
176
     1
 90
        2
176
     1
 40
-0.6
176
     1
 41
30.0
176
     1
 62
     5
 63
     7
421
 16777215
176
     1
 74
     0
176
     1
 91
        4
176
     1
 64
     7
176
     1
 65
   257
176
     1
 75
     1
176
     1
175
     1
176
     1
 42
1.0
176
     1
 92
        0
176
     1
 66
     7
176
     1
 43
1.0
176
     1
 76
     1
176
     1
 77
     6
176
     1
 78
     2
176
     1
 67
     7
176
     1
 79
     5
176
     1
170
     0
176
     1
171
     0
176
     1
290
     0
176
     1
 93
       13
176
     1
 44
0.0
176
     1
173
     0
176
     1
  0
VISUALSTYLE
  5
2E
102
{ACAD_REACTORS
330
2A
102
}
330
2A
100
AcDbVisualStyle
  2
GouraudWithEdges
 70
     3
177
     2
291
     1
 71
     2
176
     1
 72
     2
176
     1
 73
     1
176
     1
 90
        2
176
     1
 40
-0.6
176
     1
 41
30.0
176
     1
 62
     5
 63
     7
421
 16777215
176
     1
 74
     1
176
     1
 91
        4
176
     1
 64
     7
176
     1
 65
   257
176
     1
 75
     1
176
     1
175
     1
176
     1
 42
1.0
176
     1
 92
        0
176
     1
 66
   257
176
     1
 43
1.0
176
     1
 76
     1
176
     1
 77
     6
176
     1
 78
     2
176
     1
 67
     7
176
     1
 79
     5
176
     1
170
     0
176
     1
171
     0
176
     1
290
     0
176
     1
 93
       13
176
     1
 44
0.0
176
     1
173
     0
176
     1
  0
VISUALSTYLE
  5
3CB
102
{ACAD_REACTORS
330
2A
102
}
330
2A
100
AcDbVisualStyle
  2
Hidden
 70
     6
177
     2
291
     0
 71
     1
176
     1
 72
     2
176
     1
 73
     2
176
     1
 90
        0
176
     1
 40
0.6
176
     1
 41
30.0
176
     1
 62
     5
 63
     7
421
 16777215
176
     1
 74
     2
176
     1
 91
        2
176
     1
 64
     7
176
     1
 65
   257
176
     1
 75
     2
176
     1
175
     1
176
     1
 42
40.0
176
     1
 92
        0
176
     1
 66
   257
176
     1
 43
1.0
176
     1
 76
     1
176
     1
 77
     6
176
     1
 78
     2
176
     1
 67
     7
176
     1
 79
     3
176
     1
170
     0
176
     1
171
     0
176
     1
290
     0
176
     1
 93
        1
176
     1
 44
0.0
176
     1
173
     0
176
     1
  0
VISUALSTYLE
  5
3CC
102
{ACAD_REACTORS
330
2A
102
}
330
2A
100
AcDbVisualStyle
  2
JitterOff
 70
    20
177
     2
291
     1
 71
     2
176
     0
 72
     2
176
     0
 73
     0
176
     0
 90
        0
176
     0
 40
0.6
176
     0
 41
30.0
176
     0
 62
     5
 63
     7
421
 16777215
176
     0
 74
     1
176
     0
 91
        4
176
     0
 64
     7
176
     0
 65
   257
176
     0
 75
     1
176
     0
175
     1
176
     0
 42
1.0
176
     0
 92
       10
176
     2
 66
     7
176
     0
 43
1.0
176
     0
 76
     1
176
     0
 77
     6
176
     0
 78
     2
176
     0
 67
     7
176
     0
 79
     5
176
     0
170
     0
176
     0
171
     0
176
     0
290
     0
176
     0
 93
        1
176
     0
 44
0.0
176
     0
173
     0
176
     0
  0
VISUALSTYLE
  5
38
102
{ACAD_REACTORS
330
2A
102
}
330
2A
100
AcDbVisualStyle
  2
Linepattern
 70
    14
177
     2
291
     1
 71
     2
176
     1
 72
     2
176
     1
 73
     0
176
     1
 90
        0
176
     1
 40
-0.6
176
     1
 41
-30.0
176
     1
 62
     5
 63
     7
421
 16777215
176
     1
 74
     1
176
     1
 91
        4
176
     1
 64
     7
176
     1
 65
   257
176
     1
 75
     7
176
     1
175
     7
176
     1
 42
1.0
176
     1
 92
        8
176
     1
 66
     7
176
     1
 43
1.0
176
     1
 76
     1
176
     1
 77
     6
176
     1
 78
     2
176
     1
 67
     7
176
     1
 79
     5
176
     1
170
     0
176
     1
171
     0
176
     1
290
     0
176
     1
 93
        1
176
     1
 44
0.0
176
     1
173
     0
176
     1
  0
VISUALSTYLE
  5
3CD
102
{ACAD_REACTORS
330
2A
102
}
330
2A
100
AcDbVisualStyle
  2
OverhangOff
 70
    21
177
     2
291
     1
 71
     2
176
     0
 72
     2
176
     0
 73
     0
176
     0
 90
        0
176
     0
 40
0.6
176
     0
 41
30.0
176
     0
 62
     5
 63
     7
421
 16777215
176
     0
 74
     1
176
     0
 91
        4
176
     0
 64
     7
176
     0
 65
   257
176
     0
 75
     1
176
     0
175
     1
176
     0
 42
1.0
176
     0
 92
        9
176
     2
 66
     7
176
     0
 43
1.0
176
     0
 76
     1
176
     0
 77
     6
176
     0
 78
     2
176
     0
 67
     7
176
     0
 79
     5
176
     0
170
     0
176
     0
171
     0
176
     0
290
     0
176
     0
 93
        1
176
     0
 44
0.0
176
     0
173
     0
176
     0
  0
VISUALSTYLE
  5
33
102
{ACAD_REACTORS
330
2A
102
}
330
2A
100
AcDbVisualStyle
  2
Realistic
 70
     8
177
     2
291
     0
 71
     2
176
     1
 72
     2
176
     1
 73
     0
176
     1
 90
        0
176
     1
 40
-0.6
176
     1
 41
-30.0
176
     1
 62
     5
 63
     7
421
 16777215
176
     1
 74
     1
176
     1
 91
        0
176
     1
 64
     7
176
     1
 65
   257
176
     1
 75
     1
176
     1
175
     1
176
     1
 42
1.0
176
     1
 92
        8
176
     1
 66
     8
424
  7895160
176
     1
 43
1.0
176
     1
 76
     1
176
     1
 77
     6
176
     1
 78
     2
176
     1
 67
     7
176
     1
 79
     5
176
     1
170
     0
176
     1
171
     0
176
     1
290
     0
176
     1
 93
       13
176
     1
 44
0.0
176
     1
173
     0
176
     1
  0
VISUALSTYLE
  5
3D3
102
{ACAD_REACTORS
330
2A
102
}
330
2A
100
AcDbVisualStyle
  2
Shaded
 70
    27
177
     2
291
     0
 71
     2
176
     1
 72
     2
176
     1
 73
     1
176
     1
 90
        2
176
     1
 40
0.6
176
     1
 41
30.0
176
     1
 62
     5
 63
     7
421
 16777215
176
     1
 74
     0
176
     1
 91
        4
176
     1
 64
     7
176
     1
 65
   257
176
     1
 75
     1
176
     1
175
     1
176
     1
 42
1.0
176
     1
 92
        8
176
     1
 66
   257
176
     1
 43
1.0
176
     1
 76
     1
176
     1
 77
     6
176
     1
 78
     2
176
     1
 67
     8
425
  7895160
176
     1
 79
     3
176
     1
170
     0
176
     1
171
     0
176
     1
290
     0
176
     1
 93
        5
176
     1
 44
0.0
176
     1
173
     0
176
     1
  0
VISUALSTYLE
  5
3D2
102
{ACAD_REACTORS
330
2A
102
}
330
2A
100
AcDbVisualStyle
  2
Shaded with edges
 70
    26
177
     2
291
     0
 71
     2
176
     1
 72
     2
176
     1
 73
     1
176
     1
 90
        2
176
     1
 40
0.6
176
     1
 41
30.0
176
     1
 62
     5
 63
     7
421
 16777215
176
     1
 74
     1
176
     1
 91
       10
176
     1
 64
     7
176
     1
 65
   257
176
     1
 75
     2
176
     1
175
     1
176
     1
 42
1.0
176
     1
 92
        8
176
     1
 66
   257
176
     1
 43
1.0
176
     1
 76
     1
176
     1
 77
     6
176
     1
 78
     2
176
     1
 67
     7
176
     1
 79
     3
176
     1
170
     0
176
     1
171
     0
176
     1
290
     0
176
     1
 93
        5
176
     1
 44
0.0
176
     1
173
     0
176
     1
  0
VISUALSTYLE
  5
3CF
102
{ACAD_REACTORS
330
2A
102
}
330
2A
100
AcDbVisualStyle
  2
Shades of Gray
 70
    23
177
     2
291
     0
 71
     2
176
     1
 72
     2
176
     1
 73
     3
176
     1
 90
        0
176
     1
 40
0.6
176
     1
 41
30.0
176
     1
 62
     5
 63
     7
421
 16777215
176
     1
 74
     2
176
     1
 91
        2
176
     1
 64
     7
176
     1
 65
     7
176
     1
 75
     1
176
     1
175
     1
176
     1
 42
40.0
176
     1
 92
        8
176
     1
 66
     7
176
     1
 43
1.0
176
     1
 76
     1
176
     1
 77
     6
176
     1
 78
     2
176
     1
 67
     7
176
     1
 79
     3
176
     1
170
     0
176
     1
171
     0
176
     1
290
     0
176
     1
 93
        1
176
     1
 44
0.0
176
     1
173
     0
176
     1
  0
VISUALSTYLE
  5
3D0
102
{ACAD_REACTORS
330
2A
102
}
330
2A
100
AcDbVisualStyle
  2
Sketchy
 70
    24
177
     2
291
     0
 71
     1
176
     1
 72
     2
176
     1
 73
     2
176
     1
 90
        0
176
     1
 40
0.6
176
     1
 41
30.0
176
     1
 62
     5
 63
     7
421
 16777215
176
     1
 74
     2
176
     1
 91
        2
176
     1
 64
     7
176
     1
 65
     7
176
     1
 75
     1
176
     1
175
     1
176
     1
 42
40.0
176
     1
 92
       11
176
     1
 66
     7
176
     1
 43
1.0
176
     1
 76
     1
176
     1
 77
     6
176
     1
 78
     2
176
     1
 67
     7
176
     1
 79
     6
176
     1
170
     0
176
     1
171
     0
176
     1
290
     0
176
     1
 93
        1
176
     1
 44
0.0
176
     1
173
     0
176
     1
  0
VISUALSTYLE
  5
37
102
{ACAD_REACTORS
330
2A
102
}
330
2A
100
AcDbVisualStyle
  2
Thicken
 70
    13
177
     2
291
     1
 71
     2
176
     1
 72
     2
176
     1
 73
     0
176
     1
 90
        0
176
     1
 40
-0.6
176
     1
 41
-30.0
176
     1
 62
     5
 63
     7
421
 16777215
176
     1
 74
     1
176
     1
 91
        4
176
     1
 64
     7
176
     1
 65
   257
176
     1
 75
     1
176
     1
175
     1
176
     1
 42
1.0
176
     1
 92
       12
176
     1
 66
     7
176
     1
 43
1.0
176
     1
 76
     1
176
     1
 77
     6
176
     1
 78
     2
176
     1
 67
     7
176
     1
 79
     5
176
     1
170
     0
176
     1
171
     0
176
     1
290
     0
176
     1
 93
        1
176
     1
 44
0.0
176
     1
173
     0
176
     1
  0
VISUALSTYLE
  5
3CA
102
{ACAD_REACTORS
330
2A
102
}
330
2A
100
AcDbVisualStyle
  2
Wireframe
 70
     5
177
     2
291
     0
 71
     0
176
     1
 72
     2
176
     1
 73
     0
176
     1
 90
        0
176
     1
 40
0.6
176
     1
 41
30.0
176
     1
 62
     5
 63
     7
421
 16777215
176
     1
 74
     1
176
     1
 91
        4
176
     1
 64
     7
176
     1
 65
   257
176
     1
 75
     1
176
     1
175
     1
176
     1
 42
1.0
176
     1
 92
        0
176
     1
 66
   257
176
     1
 43
1.0
176
     1
 76
     1
176
     1
 77
     6
176
     1
 78
     2
176
     1
 67
     7
176
     1
 79
     3
176
     1
170
     0
176
     1
171
     0
176
     1
290
     0
176
     1
 93
        1
176
     1
 44
0.0
176
     1
173
     0
176
     1
  0
VISUALSTYLE
  5
3D1
102
{ACAD_REACTORS
330
2A
102
}
330
2A
100
AcDbVisualStyle
  2
X-Ray
 70
    25
177
     2
291
     0
 71
     2
176
     1
 72
     2
176
     1
 73
     1
176
     1
 90
        1
176
     1
 40
0.5
176
     1
 41
30.0
176
     1
 62
     5
 63
     7
421
 16777215
176
     1
 74
     1
176
     1
 91
        0
176
     1
 64
     7
176
     1
 65
   257
176
     1
 75
     1
176
     1
175
     1
176
     1
 42
1.0
176
     1
 92
        8
176
     1
 66
     7
176
     1
 43
1.0
176
     1
 76
     1
176
     1
 77
     6
176
     1
 78
     2
176
     1
 67
     7
176
     1
 79
     3
176
     1
170
     0
176
     1
171
     0
176
     1
290
     0
176
     1
 93
       13
176
     1
 44
0.0
176
     1
173
     0
176
     1
  0
DICTIONARYVAR
  5
3C7
102
{ACAD_REACTORS
330
3C6
102
}
330
3C6
100
DictionaryVariables
280
     0
  1
1:1
  0
DICTIONARYVAR
  5
3DA
102
{ACAD_REACTORS
330
3C6
102
}
330
3C6
100
DictionaryVariables
280
     0
  1
Standard
  0
DICTIONARYVAR
  5
3D9
102
{ACAD_REACTORS
330
3C6
102
}
330
3C6
100
DictionaryVariables
280
     0
  1
Standard
  0
DICTIONARY
  5
428
330
3D4
100
AcDbDictionary
280
     1
281
     1
  3
ACAD_ROUNDTRIP_2008_TABLESTYLE_CELLSTYLEMAP
360
429
  0
CELLSTYLEMAP
  5
429
102
{ACAD_REACTORS
330
428
102
}
330
428
100
AcDbCellStyleMap
 90
        3
300
CELLSTYLE
  1
TABLEFORMAT_BEGIN
 90
        5
170
     1
 91
        0
 92
    32768
 62
   257
 93
        1
300
CONTENTFORMAT
  1
CONTENTFORMAT_BEGIN
 90
        0
 91
        0
 92
        4
 93
        0
300

 40
0.0
140
1.0
 94
        5
 62
     0
340
11
144
6.0
309
CONTENTFORMAT_END
171
     1
301
MARGIN
  1
CELLMARGIN_BEGIN
 40
1.5
 40
1.5
 40
1.5
 40
1.5
 40
1.5
 40
1.5
309
CELLMARGIN_END
 94
        6
 95
        1
302
GRIDFORMAT
  1
GRIDFORMAT_BEGIN
 90
        0
 91
        1
 62
     0
 92
       -2
340
14
 93
        0
 40
0.045
309
GRIDFORMAT_END
 95
        2
302
GRIDFORMAT
  1
GRIDFORMAT_BEGIN
 90
        0
 91
        1
 62
     0
 92
       -2
340
14
 93
        0
 40
0.045
309
GRIDFORMAT_END
 95
        4
302
GRIDFORMAT
  1
GRIDFORMAT_BEGIN
 90
        0
 91
        1
 62
     0
 92
       -2
340
14
 93
        0
 40
0.045
309
GRIDFORMAT_END
 95
        8
302
GRIDFORMAT
  1
GRIDFORMAT_BEGIN
 90
        0
 91
        1
 62
     0
 92
       -2
340
14
 93
        0
 40
0.045
309
GRIDFORMAT_END
 95
       16
302
GRIDFORMAT
  1
GRIDFORMAT_BEGIN
 90
        0
 91
        1
 62
     0
 92
       -2
340
14
 93
        0
 40
0.045
309
GRIDFORMAT_END
 95
       32
302
GRIDFORMAT
  1
GRIDFORMAT_BEGIN
 90
        0
 91
        1
 62
     0
 92
       -2
340
14
 93
        0
 40
0.045
309
GRIDFORMAT_END
309
TABLEFORMAT_END
  1
CELLSTYLE_BEGIN
 90
        1
 91
        1
300
_TITLE
309
CELLSTYLE_END
300
CELLSTYLE
  1
TABLEFORMAT_BEGIN
 90
        5
170
     1
 91
        0
 92
        0
 62
   257
 93
        1
300
CONTENTFORMAT
  1
CONTENTFORMAT_BEGIN
 90
        0
 91
        0
 92
        4
 93
        0
300

 40
0.0
140
1.0
 94
        5
 62
     0
340
11
144
4.5
309
CONTENTFORMAT_END
171
     1
301
MARGIN
  1
CELLMARGIN_BEGIN
 40
1.5
 40
1.5
 40
1.5
 40
1.5
 40
1.5
 40
1.5
309
CELLMARGIN_END
 94
        6
 95
        1
302
GRIDFORMAT
  1
GRIDFORMAT_BEGIN
 90
        0
 91
        1
 62
     0
 92
       -2
340
14
 93
        0
 40
0.045
309
GRIDFORMAT_END
 95
        2
302
GRIDFORMAT
  1
GRIDFORMAT_BEGIN
 90
        0
 91
        1
 62
     0
 92
       -2
340
14
 93
        0
 40
0.045
309
GRIDFORMAT_END
 95
        4
302
GRIDFORMAT
  1
GRIDFORMAT_BEGIN
 90
        0
 91
        1
 62
     0
 92
       -2
340
14
 93
        0
 40
0.045
309
GRIDFORMAT_END
 95
        8
302
GRIDFORMAT
  1
GRIDFORMAT_BEGIN
 90
        0
 91
        1
 62
     0
 92
       -2
340
14
 93
        0
 40
0.045
309
GRIDFORMAT_END
 95
       16
302
GRIDFORMAT
  1
GRIDFORMAT_BEGIN
 90
        0
 91
        1
 62
     0
 92
       -2
340
14
 93
        0
 40
0.045
309
GRIDFORMAT_END
 95
       32
302
GRIDFORMAT
  1
GRIDFORMAT_BEGIN
 90
        0
 91
        1
 62
     0
 92
       -2
340
14
 93
        0
 40
0.045
309
GRIDFORMAT_END
309
TABLEFORMAT_END
  1
CELLSTYLE_BEGIN
 90
        2
 91
        1
300
_HEADER
309
CELLSTYLE_END
300
CELLSTYLE
  1
TABLEFORMAT_BEGIN
 90
        5
170
     1
 91
        0
 92
        0
 62
   257
 93
        1
300
CONTENTFORMAT
  1
CONTENTFORMAT_BEGIN
 90
        0
 91
        0
 92
        4
 93
        0
300

 40
0.0
140
1.0
 94
        2
 62
     0
340
11
144
4.5
309
CONTENTFORMAT_END
171
     1
301
MARGIN
  1
CELLMARGIN_BEGIN
 40
1.5
 40
1.5
 40
1.5
 40
1.5
 40
1.5
 40
1.5
309
CELLMARGIN_END
 94
        6
 95
        1
302
GRIDFORMAT
  1
GRIDFORMAT_BEGIN
 90
        0
 91
        1
 62
     0
 92
       -2
340
14
 93
        0
 40
0.045
309
GRIDFORMAT_END
 95
        2
302
GRIDFORMAT
  1
GRIDFORMAT_BEGIN
 90
        0
 91
        1
 62
     0
 92
       -2
340
14
 93
        0
 40
0.045
309
GRIDFORMAT_END
 95
        4
302
GRIDFORMAT
  1
GRIDFORMAT_BEGIN
 90
        0
 91
        1
 62
     0
 92
       -2
340
14
 93
        0
 40
0.045
309
GRIDFORMAT_END
 95
        8
302
GRIDFORMAT
  1
GRIDFORMAT_BEGIN
 90
        0
 91
        1
 62
     0
 92
       -2
340
14
 93
        0
 40
0.045
309
GRIDFORMAT_END
 95
       16
302
GRIDFORMAT
  1
GRIDFORMAT_BEGIN
 90
        0
 91
        1
 62
     0
 92
       -2
340
14
 93
        0
 40
0.045
309
GRIDFORMAT_END
 95
       32
302
GRIDFORMAT
  1
GRIDFORMAT_BEGIN
 90
        0
 91
        1
 62
     0
 92
       -2
340
14
 93
        0
 40
0.045
309
GRIDFORMAT_END
309
TABLEFORMAT_END
  1
CELLSTYLE_BEGIN
 90
        3
 91
        2
300
_DATA
309
CELLSTYLE_END
  0
ENDSEC
  0
EOF
