  0
SECTION
  2
HEADER
  9
$ACADVER
  1
AC1027
  9
$ACADMAINTVER
 70
   105
  9
$DWGCODEPAGE
  3
ANSI_1254
  9
$REQUIREDVERSIONS
160
                 0
  9
$LASTSAVEDBY
  1
admin
  9
$INSBASE
 10
0.0
 20
0.0
 30
0.0
  9
$EXTMIN
 10
518527.4255
 20
4397572.262750548
 30
462.2999877929688
  9
$EXTMAX
 10
519023.72
 20
4397815.1081
 30
510.2860107421875
  9
$LIMMIN
 10
497944.1167468675
 20
4224337.416099752
  9
$LIMMAX
 10
498440.4112468674
 20
4224584.616163358
  9
$ORTHOMODE
 70
     0
  9
$REGENMODE
 70
     1
  9
$FILLMODE
 70
     1
  9
$QTEXTMODE
 70
     0
  9
$MIRRTEXT
 70
     1
  9
$LTSCALE
 40
1.0
  9
$ATTMODE
 70
     1
  9
$TEXTSIZE
 40
2.5
  9
$TRACEWID
 40
1.0
  9
$TEXTSTYLE
  7
Standard
  9
$CLAYER
  8
INIT_COORD
  9
$CELTYPE
  6
ByLayer
  9
$CECOLOR
 62
     7
  9
$CELTSCALE
 40
1.0
  9
$DISPSILH
 70
     0
  9
$DIMSCALE
 40
1.0
  9
$DIMASZ
 40
2.5
  9
$DIMEXO
 40
0.625
  9
$DIMDLI
 40
3.75
  9
$DIMRND
 40
0.0
  9
$DIMDLE
 40
0.0
  9
$DIMEXE
 40
1.25
  9
$DIMTP
 40
0.0
  9
$DIMTM
 40
0.0
  9
$DIMTXT
 40
2.499999999999999
  9
$DIMCEN
 40
0.0
  9
$DIMTSZ
 40
0.0
  9
$DIMTOL
 70
     0
  9
$DIMLIM
 70
     0
  9
$DIMTIH
 70
     0
  9
$DIMTOH
 70
     0
  9
$DIMSE1
 70
     0
  9
$DIMSE2
 70
     0
  9
$DIMTAD
 70
     1
  9
$DIMZIN
 70
     8
  9
$DIMBLK
  1

  9
$DIMASO
 70
     1
  9
$DIMSHO
 70
     1
  9
$DIMPOST
  1

  9
$DIMAPOST
  1
^B2147483648l^B^B2147483648l^B
  9
$DIMALT
 70
     0
  9
$DIMALTD
 70
     3
  9
$DIMALTF
 40
0.03937007874016
  9
$DIMLFAC
 40
1.0
  9
$DIMTOFL
 70
     1
  9
$DIMTVP
 40
0.0
  9
$DIMTIX
 70
     0
  9
$DIMSOXD
 70
     0
  9
$DIMSAH
 70
     0
  9
$DIMBLK1
  1

  9
$DIMBLK2
  1

  9
$DIMSTYLE
  2
Standard
  9
$DIMCLRD
 70
     0
  9
$DIMCLRE
 70
     0
  9
$DIMCLRT
 70
     0
  9
$DIMTFAC
 40
1.0
  9
$DIMGAP
 40
0.625
  9
$DIMJUST
 70
     0
  9
$DIMSD1
 70
     0
  9
$DIMSD2
 70
     0
  9
$DIMTOLJ
 70
     0
  9
$DIMTZIN
 70
     8
  9
$DIMALTZ
 70
     0
  9
$DIMALTTZ
 70
     0
  9
$DIMUPT
 70
     0
  9
$DIMDEC
 70
     2
  9
$DIMTDEC
 70
     2
  9
$DIMALTU
 70
     2
  9
$DIMALTTD
 70
     3
  9
$DIMTXSTY
  7
Standard
  9
$DIMAUNIT
 70
     0
  9
$DIMADEC
 70
     0
  9
$DIMALTRND
 40
0.0
  9
$DIMAZIN
 70
     0
  9
$DIMDSEP
 70
    44
  9
$DIMATFIT
 70
     3
  9
$DIMFRAC
 70
     0
  9
$DIMLDRBLK
  1

  9
$DIMLUNIT
 70
     2
  9
$DIMLWD
 70
    -2
  9
$DIMLWE
 70
    -2
  9
$DIMTMOVE
 70
     0
  9
$DIMFXL
 40
1.0
  9
$DIMFXLON
 70
     0
  9
$DIMJOGANG
 40
0.7853981633974483
  9
$DIMTFILL
 70
     0
  9
$DIMTFILLCLR
 70
     0
  9
$DIMARCSYM
 70
     0
  9
$DIMLTYPE
  6
ByBlock
  9
$DIMLTEX1
  6
ByBlock
  9
$DIMLTEX2
  6
ByBlock
  9
$DIMTXTDIRECTION
 70
     0
  9
$LUNITS
 70
     2
  9
$LUPREC
 70
     4
  9
$SKETCHINC
 40
1.0
  9
$FILLETRAD
 40
10.0
  9
$AUNITS
 70
     0
  9
$AUPREC
 70
     0
  9
$MENU
  1
.
  9
$ELEVATION
 40
0.0
  9
$PELEVATION
 40
0.0
  9
$THICKNESS
 40
0.0
  9
$LIMCHECK
 70
     0
  9
$CHAMFERA
 40
0.5
  9
$CHAMFERB
 40
0.5
  9
$CHAMFERC
 40
1.0
  9
$CHAMFERD
 40
0.0
  9
$SKPOLY
 70
     0
  9
$TDCREATE
 40
2457873.497736111
  9
$TDUCREATE
 40
2457873.414402778
  9
$TDUPDATE
 40
2457873.498593588
  9
$TDUUPDATE
 40
2457873.415260254
  9
$TDINDWG
 40
0.0005901736
  9
$TDUSRTIMER
 40
2457873.414670127
  9
$USRTIMER
 70
     1
  9
$ANGBASE
 50
0.0
  9
$ANGDIR
 70
     0
  9
$PDMODE
 70
     0
  9
$PDSIZE
 40
0.0
  9
$PLINEWID
 40
0.0
  9
$SPLFRAME
 70
     0
  9
$SPLINETYPE
 70
     6
  9
$SPLINESEGS
 70
     8
  9
$HANDSEED
  5
381
  9
$SURFTAB1
 70
     6
  9
$SURFTAB2
 70
     6
  9
$SURFTYPE
 70
     6
  9
$SURFU
 70
     6
  9
$SURFV
 70
     6
  9
$UCSBASE
  2

  9
$UCSNAME
  2

  9
$UCSORG
 10
0.0
 20
0.0
 30
0.0
  9
$UCSXDIR
 10
1.0
 20
0.0
 30
0.0
  9
$UCSYDIR
 10
0.0
 20
1.0
 30
0.0
  9
$UCSORTHOREF
  2

  9
$UCSORTHOVIEW
 70
     0
  9
$UCSORGTOP
 10
0.0
 20
0.0
 30
0.0
  9
$UCSORGBOTTOM
 10
0.0
 20
0.0
 30
0.0
  9
$UCSORGLEFT
 10
0.0
 20
0.0
 30
0.0
  9
$UCSORGRIGHT
 10
0.0
 20
0.0
 30
0.0
  9
$UCSORGFRONT
 10
0.0
 20
0.0
 30
0.0
  9
$UCSORGBACK
 10
0.0
 20
0.0
 30
0.0
  9
$PUCSBASE
  2

  9
$PUCSNAME
  2

  9
$PUCSORG
 10
0.0
 20
0.0
 30
0.0
  9
$PUCSXDIR
 10
1.0
 20
0.0
 30
0.0
  9
$PUCSYDIR
 10
0.0
 20
1.0
 30
0.0
  9
$PUCSORTHOREF
  2

  9
$PUCSORTHOVIEW
 70
     0
  9
$PUCSORGTOP
 10
0.0
 20
0.0
 30
0.0
  9
$PUCSORGBOTTOM
 10
0.0
 20
0.0
 30
0.0
  9
$PUCSORGLEFT
 10
0.0
 20
0.0
 30
0.0
  9
$PUCSORGRIGHT
 10
0.0
 20
0.0
 30
0.0
  9
$PUCSORGFRONT
 10
0.0
 20
0.0
 30
0.0
  9
$PUCSORGBACK
 10
0.0
 20
0.0
 30
0.0
  9
$USERI1
 70
     0
  9
$USERI2
 70
     0
  9
$USERI3
 70
     0
  9
$USERI4
 70
     0
  9
$USERI5
 70
     0
  9
$USERR1
 40
0.0
  9
$USERR2
 40
0.0
  9
$USERR3
 40
0.0
  9
$USERR4
 40
0.0
  9
$USERR5
 40
0.0
  9
$WORLDVIEW
 70
     1
  9
$SHADEDGE
 70
     3
  9
$SHADEDIF
 70
    70
  9
$TILEMODE
 70
     1
  9
$MAXACTVP
 70
    64
  9
$PINSBASE
 10
0.0
 20
0.0
 30
0.0
  9
$PLIMCHECK
 70
     0
  9
$PEXTMIN
 10
0.0
 20
0.0
 30
0.0
  9
$PEXTMAX
 10
420.0
 20
297.0
 30
0.0
  9
$PLIMMIN
 10
0.0
 20
0.0
  9
$PLIMMAX
 10
420.0
 20
297.0
  9
$UNITMODE
 70
     0
  9
$VISRETAIN
 70
     1
  9
$PLINEGEN
 70
     0
  9
$PSLTSCALE
 70
     1
  9
$TREEDEPTH
 70
  3020
  9
$CMLSTYLE
  2
Standard
  9
$CMLJUST
 70
     0
  9
$CMLSCALE
 40
1.0
  9
$PROXYGRAPHICS
 70
     1
  9
$MEASUREMENT
 70
     0
  9
$CELWEIGHT
370
    -1
  9
$ENDCAPS
280
     0
  9
$JOINSTYLE
280
     0
  9
$LWDISPLAY
290
     0
  9
$INSUNITS
 70
     4
  9
$HYPERLINKBASE
  1

  9
$STYLESHEET
  1

  9
$XEDIT
290
     1
  9
$CEPSNTYPE
380
     0
  9
$PSTYLEMODE
290
     1
  9
$FINGERPRINTGUID
  2
{DB80CD4B-5667-4320-B894-0F29FDE1D13B}
  9
$VERSIONGUID
  2
{FAEB1C32-E019-11D5-929B-00C0DF256EC4}
  9
$EXTNAMES
290
     1
  9
$PSVPSCALE
 40
0.0
  9
$OLESTARTUP
290
     0
  9
$SORTENTS
280
   127
  9
$INDEXCTL
280
     0
  9
$HIDETEXT
280
     1
  9
$XCLIPFRAME
280
     2
  9
$HALOGAP
280
     0
  9
$OBSCOLOR
 70
   257
  9
$OBSLTYPE
280
     0
  9
$INTERSECTIONDISPLAY
280
     0
  9
$INTERSECTIONCOLOR
 70
   257
  9
$DIMASSOC
280
     2
  9
$PROJECTNAME
  1

  9
$CAMERADISPLAY
290
     0
  9
$LENSLENGTH
 40
50.0
  9
$CAMERAHEIGHT
 40
0.0
  9
$STEPSPERSEC
 40
2.0
  9
$STEPSIZE
 40
6.0
  9
$3DDWFPREC
 40
2.0
  9
$PSOLWIDTH
 40
0.25
  9
$PSOLHEIGHT
 40
4.0
  9
$LOFTANG1
 40
1.570796326794897
  9
$LOFTANG2
 40
1.570796326794897
  9
$LOFTMAG1
 40
0.0
  9
$LOFTMAG2
 40
0.0
  9
$LOFTPARAM
 70
     7
  9
$LOFTNORMALS
280
     1
  9
$LATITUDE
 40
37.795
  9
$LONGITUDE
 40
-122.394
  9
$NORTHDIRECTION
 40
0.0
  9
$TIMEZONE
 70
 -8000
  9
$LIGHTGLYPHDISPLAY
280
     1
  9
$TILEMODELIGHTSYNCH
280
     1
  9
$CMATERIAL
347
3C
  9
$SOLIDHIST
280
     1
  9
$SHOWHIST
280
     1
  9
$DWFFRAME
280
     2
  9
$DGNFRAME
280
     2
  9
$REALWORLDSCALE
290
     1
  9
$INTERFERECOLOR
 62
   256
  9
$CSHADOW
280
     0
  9
$SHADOWPLANELOCATION
 40
0.0
  0
ENDSEC
  0
SECTION
  2
CLASSES
  0
CLASS
  1
ACDBDICTIONARYWDFLT
  2
AcDbDictionaryWithDefault
  3
ObjectDBX Classes
 90
        0
 91
        4
280
     0
281
     0
  0
CLASS
  1
VISUALSTYLE
  2
AcDbVisualStyle
  3
ObjectDBX Classes
 90
     4095
 91
        4
280
     0
281
     0
  0
CLASS
  1
MATERIAL
  2
AcDbMaterial
  3
ObjectDBX Classes
 90
     1153
 91
        4
280
     0
281
     0
  0
CLASS
  1
SUN
  2
AcDbSun
  3
SCENEOE
 90
     1153
 91
        4
280
     0
281
     0
  0
CLASS
  1
AEC_VARS_DWG_SETUP
  2
AecDbVarsDwgSetup
  3
AecBase60
 90
      129
 91
        4
280
     0
281
     0
  0
CLASS
  1
AEC_DISP_REP_2D_SECTION
  2
AecDbDispRep2dSection
  3
AecBase60
 90
      129
 91
        4
280
     0
281
     0
  0
CLASS
  1
AEC_DISP_PROPS_2D_SECTION
  2
AecDbDispProps2dSection
  3
AecBase60
 90
      129
 91
        4
280
     0
281
     0
  0
CLASS
  1
AEC_DISP_REP_CLIP_VOLUME_MODEL
  2
AecDbDispRepClipVolModel
  3
AecBase60
 90
      129
 91
        6
280
     0
281
     0
  0
CLASS
  1
AEC_DISP_PROPS_CLIP_VOLUME
  2
AecDbDispPropsClipVol
  3
AecBase60
 90
      129
 91
        4
280
     0
281
     0
  0
CLASS
  1
AEC_DISP_REP_CLIP_VOLUME_PLAN
  2
AecDbDispRepClipVolPlan
  3
AecBase60
 90
      129
 91
        4
280
     0
281
     0
  0
CLASS
  1
AEC_DISP_REP_CLIP_VOLUME_RESULT
  2
AecDbDispRepClipVolResult
  3
AecBase60
 90
      129
 91
        6
280
     0
281
     0
  0
CLASS
  1
AEC_DISP_REP_CLIP_VOLUME_RESULT_SUBDIV
  2
AecDbDispRepClipVolResSubDiv
  3
AecBase60
 90
      129
 91
        5
280
     0
281
     0
  0
CLASS
  1
AEC_DISP_PROPS_CLIP_VOLUME_RESULT
  2
AecDbDispPropsClipVolResSubDiv
  3
AecBase60
 90
      129
 91
        4
280
     0
281
     0
  0
CLASS
  1
AEC_DISP_REP_DISPLAYTHEME
  2
AecDbDispRepDisplayTheme
  3
AecBase60
 90
      129
 91
        4
280
     0
281
     0
  0
CLASS
  1
AEC_DISP_PROPS_DISPLAYTHEME
  2
AecDbDispPropsDisplayTheme
  3
AecBase60
 90
      129
 91
        4
280
     0
281
     0
  0
CLASS
  1
AEC_DISP_REP_ENT_REF
  2
AecDbDispRepEntRef
  3
AecBase60
 90
      129
 91
        4
280
     0
281
     0
  0
CLASS
  1
AEC_DISP_PROPS_ENT_REF
  2
AecDbDispPropsEntRef
  3
AecBase60
 90
      129
 91
        4
280
     0
281
     0
  0
CLASS
  1
AEC_DISP_REP_LAYOUT_CURVE
  2
AecDbDispRepLayoutCurve
  3
AecBase60
 90
      129
 91
        4
280
     0
281
     0
  0
CLASS
  1
AEC_DISP_PROPS_LAYOUT_CURVE
  2
AecDbDispPropsLayoutCurve
  3
AecBase60
 90
      129
 91
        4
280
     0
281
     0
  0
CLASS
  1
AEC_DISP_REP_LAYOUT_GRID2D
  2
AecDbDispRepLayoutGrid2d
  3
AecBase60
 90
      129
 91
        6
280
     0
281
     0
  0
CLASS
  1
AEC_DISP_PROPS_LAYOUT_GRID2D
  2
AecDbDispPropsLayoutGrid2d
  3
AecBase60
 90
      129
 91
        5
280
     0
281
     0
  0
CLASS
  1
AEC_DISP_REP_LAYOUT_GRID3D
  2
AecDbDispRepLayoutGrid3d
  3
AecBase60
 90
      129
 91
        4
280
     0
281
     0
  0
CLASS
  1
AEC_DISP_PROPS_LAYOUT_GRID3D
  2
AecDbDispPropsLayoutGrid3d
  3
AecBase60
 90
      129
 91
        4
280
     0
281
     0
  0
CLASS
  1
AEC_DISP_REP_MASKBLOCK_REF
  2
AecDbDispRepMaskBlockRef
  3
AecBase60
 90
      129
 91
        5
280
     0
281
     0
  0
CLASS
  1
AEC_DISP_PROPS_MASKBLOCK
  2
AecDbDispPropsMaskBlock
  3
AecBase60
 90
      129
 91
        4
280
     0
281
     0
  0
CLASS
  1
AEC_DISP_REP_MASKBLOCK_REF_RCP
  2
AecDbDispRepMaskBlockRefRcp
  3
AecArchBase60
 90
      129
 91
        4
280
     0
281
     0
  0
CLASS
  1
AEC_DISP_REP_MASS_ELEM_MODEL
  2
AecDbDispRepMassElemModel
  3
AecBase60
 90
      129
 91
        4
280
     0
281
     0
  0
CLASS
  1
AEC_DISP_PROPS_MASS_ELEM_MODEL
  2
AecDbDispPropsMassElem
  3
AecBase60
 90
      129
 91
        5
280
     0
281
     0
  0
CLASS
  1
AEC_DISP_REP_MASS_ELEM_SCHEM
  2
AecDbDispRepMassElemSchem
  3
AecBase60
 90
      129
 91
        5
280
     0
281
     0
  0
CLASS
  1
AEC_DISPREPAECDBDISPREPMASSELEMPLAN50
  2
AecDbDispRepMassElemPlan50
  3
AecArchDACHBase60
 90
      129
 91
        4
280
     0
281
     0
  0
CLASS
  1
AEC_DISPROPSMASSELEMPLANCOMMON
  2
AecDbDispPropsMassElemPlanCommon
  3
AecArchDACHBase60
 90
      129
 91
        4
280
     0
281
     0
  0
CLASS
  1
AEC_DISPREPAECDBDISPREPMASSELEMPLAN100
  2
AecDbDispRepMassElemPlan100
  3
AecArchDACHBase60
 90
      129
 91
        4
280
     0
281
     0
  0
CLASS
  1
AEC_DISP_REP_MASS_ELEM_RCP
  2
AecDbDispRepMassElemRcp
  3
AecArchBase60
 90
      129
 91
        4
280
     0
281
     0
  0
CLASS
  1
AEC_DISP_REP_MASS_GROUP_MODEL
  2
AecDbDispRepMassGroupModel
  3
AecBase60
 90
      129
 91
        4
280
     0
281
     0
  0
CLASS
  1
AEC_DISP_PROPS_MASS_GROUP
  2
AecDbDispPropsMassGroup
  3
AecBase60
 90
      129
 91
        5
280
     0
281
     0
  0
CLASS
  1
AEC_DISP_REP_MASS_GROUP_PLAN
  2
AecDbDispRepMassGroupPlan
  3
AecBase60
 90
      129
 91
        8
280
     0
281
     0
  0
CLASS
  1
AEC_DISPREPAECDBDISPREPMASSGROUPPLAN50
  2
AecDbDispRepMassGroupPlan50
  3
AecArchDACHBase60
 90
      129
 91
        4
280
     0
281
     0
  0
CLASS
  1
AEC_DISPROPSMASSGROUPPLANCOMMON
  2
AecDbDispPropsMassGroupPlanCommon
  3
AecArchDACHBase60
 90
      129
 91
        4
280
     0
281
     0
  0
CLASS
  1
AEC_DISPREPAECDBDISPREPMASSGROUPPLAN100
  2
AecDbDispRepMassGroupPlan100
  3
AecArchDACHBase60
 90
      129
 91
        4
280
     0
281
     0
  0
CLASS
  1
AEC_DISP_REP_MASS_GROUP_RCP
  2
AecDbDispRepMassGroupRcp
  3
AecArchBase60
 90
      129
 91
        4
280
     0
281
     0
  0
CLASS
  1
AEC_DISP_REP_MVBLOCK_REF
  2
AecDbDispRepMvBlockRef
  3
AecBase60
 90
      129
 91
        8
280
     0
281
     0
  0
CLASS
  1
AEC_DISP_REP_MVBLOCK_REF_MODEL
  2
AecDbDispRepMvBlockRefModel
  3
AecBase60
 90
      129
 91
        4
280
     0
281
     0
  0
CLASS
  1
AEC_AECDBDISPREPMVBLOCKREFPLAN100
  2
AecDbDispRepMvBlockRefPlan100
  3
AecBase60
 90
      129
 91
        4
280
     0
281
     0
  0
CLASS
  1
AEC_AECDBDISPREPMVBLOCKREFPLAN50
  2
AecDbDispRepMvBlockRefPlan50
  3
AecBase60
 90
      129
 91
        4
280
     0
281
     0
  0
CLASS
  1
AEC_DISP_REP_POLYGON_MODEL
  2
AecDbDispRepPolygonModel
  3
AecBase60
 90
      129
 91
        4
280
     0
281
     0
  0
CLASS
  1
AEC_DISP_PROPS_POLYGON_MODEL
  2
AecDbDispPropsPolygonModel
  3
AecBase60
 90
      129
 91
        4
280
     0
281
     0
  0
CLASS
  1
AEC_DISP_REP_POLYGON_TRUECOLOUR
  2
AecDbDispRepPolygonTrueColour
  3
AecBase60
 90
      129
 91
        4
280
     0
281
     0
  0
CLASS
  1
AEC_DISP_PROPS_POLYGON_TRUECOLOUR
  2
AecDbDispPropsPolygonTrueColour
  3
AecBase60
 90
      129
 91
        4
280
     0
281
     0
  0
CLASS
  1
AEC_DISP_REP_SLICE
  2
AecDbDispRepSlice
  3
AecBase60
 90
      129
 91
        4
280
     0
281
     0
  0
CLASS
  1
AEC_DISP_PROPS_SLICE
  2
AecDbDispPropsSlice
  3
AecBase60
 90
      129
 91
        4
280
     0
281
     0
  0
CLASS
  1
AEC_DISP_REP_ANCHOR
  2
AecDbDispRepAnchor
  3
AecBase60
 90
      129
 91
        4
280
     0
281
     0
  0
CLASS
  1
AEC_DISP_REP_ANCHOR_ENT_TO_NODE
  2
AecDbDispRepAnchorEntToNode
  3
AecBase60
 90
      129
 91
        5
280
     0
281
     0
  0
CLASS
  1
AEC_DISP_PROPS_ENT
  2
AecDbDispPropsEnt
  3
AecBase60
 90
      129
 91
        4
280
     0
281
     0
  0
CLASS
  1
AEC_DISP_REP_MATERIAL
  2
AecDbDispRepMaterial
  3
AecBase60
 90
      129
 91
        4
280
     0
281
     0
  0
CLASS
  1
AEC_DISP_PROPS_MATERIAL
  2
AecDbDispPropsMaterial
  3
AecBase60
 90
      129
 91
        4
280
     0
281
     0
  0
CLASS
  1
AEC_DISP_REP_EDITINPLACEPROFILE
  2
AecDbDispRepEditInPlaceProfile
  3
AecBase60
 90
      129
 91
        4
280
     0
281
     0
  0
CLASS
  1
AEC_DISP_PROPS_EDITINPLACEPROFILE_MODEL
  2
AecDbDispPropsEditInPlaceProfile
  3
AecBase60
 90
      129
 91
        4
280
     0
281
     0
  0
CLASS
  1
AEC_VARS_ARCHBASE
  2
AecDbVarsArchBase
  3
AecArchBase60
 90
      129
 91
        4
280
     0
281
     0
  0
CLASS
  1
AEC_DISP_REP_BDG_ELEVLINE_PLAN
  2
AecDbDispRepBdgElevLinePlan
  3
AecArchBase60
 90
      129
 91
        7
280
     0
281
     0
  0
CLASS
  1
AEC_DISP_REP_BDG_ELEVLINE_MODEL
  2
AecDbDispRepBdgElevLineModel
  3
AecArchBase60
 90
      129
 91
        4
280
     0
281
     0
  0
CLASS
  1
AEC_DISP_REP_BDG_ELEVLINE_RCP
  2
AecDbDispRepBdgElevLineRcp
  3
AecArchBase60
 90
      129
 91
        4
280
     0
281
     0
  0
CLASS
  1
AEC_AECDBDISPREPBDGELEVLINEPLAN100
  2
AecDbDispRepBdgElevLinePlan100
  3
AecBase60
 90
      129
 91
        4
280
     0
281
     0
  0
CLASS
  1
AEC_AECDBDISPREPBDGELEVLINEPLAN50
  2
AecDbDispRepBdgElevLinePlan50
  3
AecBase60
 90
      129
 91
        4
280
     0
281
     0
  0
CLASS
  1
AEC_DISP_REP_BDG_SECTIONLINE_MODEL
  2
AecDbDispRepBdgSectionLineModel
  3
AecArchBase60
 90
      129
 91
        4
280
     0
281
     0
  0
CLASS
  1
AEC_DISP_REP_BDG_SECTIONLINE_PLAN
  2
AecDbDispRepBdgSectionLinePlan
  3
AecArchBase60
 90
      129
 91
        7
280
     0
281
     0
  0
CLASS
  1
AEC_DISP_REP_BDG_SECTIONLINE_RCP
  2
AecDbDispRepBdgSectionLineRcp
  3
AecArchBase60
 90
      129
 91
        4
280
     0
281
     0
  0
CLASS
  1
AEC_AECDBDISPREPBDGSECTIONLINEPLAN100
  2
AecDbDispRepBdgSectionLinePlan100
  3
AecBase60
 90
      129
 91
        4
280
     0
281
     0
  0
CLASS
  1
AEC_AECDBDISPREPBDGSECTIONLINEPLAN50
  2
AecDbDispRepBdgSectionLinePlan50
  3
AecBase60
 90
      129
 91
        4
280
     0
281
     0
  0
CLASS
  1
AEC_DISP_REP_BDG_SECTION_SUBDIV
  2
AecDbDispRepBdgSectionSubDiv
  3
AecArchBase60
 90
      129
 91
        4
280
     0
281
     0
  0
CLASS
  1
AEC_DISP_REP_BDG_SECTION_MODEL
  2
AecDbDispRepBdgSectionModel
  3
AecArchBase60
 90
      129
 91
        4
280
     0
281
     0
  0
CLASS
  1
AEC_DISP_REP_CEILING_GRID
  2
AecDbDispRepCeilingGrid
  3
AecArchBase60
 90
      893
 91
        8
280
     0
281
     0
  0
CLASS
  1
AEC_DISP_REP_CEILING_GRID_MODEL
  2
AecDbDispRepCeilingGridModel
  3
AecArchBase60
 90
      129
 91
        4
280
     0
281
     0
  0
CLASS
  1
AEC_DISP_REP_CEILING_GRID_RCP
  2
AecDbDispRepCeilingGridRcp
  3
AecArchBase60
 90
      129
 91
        4
280
     0
281
     0
  0
CLASS
  1
AEC_AECDBDISPREPCEILINGGRIDPLAN100
  2
AecDbDispRepCeilingGridPlan100
  3
AecBase60
 90
      129
 91
        4
280
     0
281
     0
  0
CLASS
  1
AEC_AECDBDISPREPCEILINGGRIDPLAN50
  2
AecDbDispRepCeilingGridPlan50
  3
AecBase60
 90
      129
 91
        4
280
     0
281
     0
  0
CLASS
  1
AEC_DISP_REP_CURTAIN_WALL_LAYOUT_MODEL
  2
AecDbDispRepCurtainWallLayoutModel
  3
AecArchBase60
 90
      129
 91
        4
280
     0
281
     0
  0
CLASS
  1
AEC_DISP_PROPS_GRID_ASSEMBLY_MODEL
  2
AecDbDispPropsGridAssemblyModel
  3
AecArchBase60
 90
      129
 91
        4
280
     0
281
     0
  0
CLASS
  1
AEC_DISP_REP_CURTAIN_WALL_LAYOUT_PLAN
  2
AecDbDispRepCurtainWallLayoutPlan
  3
AecArchBase60
 90
      129
 91
        6
280
     0
281
     0
  0
CLASS
  1
AEC_DISP_PROPS_GRID_ASSEMBLY_PLAN
  2
AecDbDispPropsGridAssemblyPlan
  3
AecArchBase60
 90
      129
 91
        4
280
     0
281
     0
  0
CLASS
  1
AEC_AECDBDISPREPCURTAINWALLLAYOUTPLAN100
  2
AecDbDispRepCurtainWallLayoutPlan100
  3
AecBase60
 90
      129
 91
        4
280
     0
281
     0
  0
CLASS
  1
AEC_AECDBDISPREPCURTAINWALLLAYOUTPLAN50
  2
AecDbDispRepCurtainWallLayoutPlan50
  3
AecBase60
 90
      129
 91
        4
280
     0
281
     0
  0
CLASS
  1
AEC_DISP_REP_CURTAIN_WALL_UNIT_MODEL
  2
AecDbDispRepCurtainWallUnitModel
  3
AecArchBase60
 90
      129
 91
        4
280
     0
281
     0
  0
CLASS
  1
AEC_DISP_REP_CURTAIN_WALL_UNIT_PLAN
  2
AecDbDispRepCurtainWallUnitPlan
  3
AecArchBase60
 90
      129
 91
        6
280
     0
281
     0
  0
CLASS
  1
AEC_AECDBDISPREPCURTAINWALLUNITPLAN100
  2
AecDbDispRepCurtainWallUnitPlan100
  3
AecBase60
 90
      129
 91
        4
280
     0
281
     0
  0
CLASS
  1
AEC_AECDBDISPREPCURTAINWALLUNITPLAN50
  2
AecDbDispRepCurtainWallUnitPlan50
  3
AecBase60
 90
      129
 91
        4
280
     0
281
     0
  0
CLASS
  1
AEC_DISP_REP_DOOR_MODEL
  2
AecDbDispRepDoorModel
  3
AecArchBase60
 90
      129
 91
        5
280
     0
281
     0
  0
CLASS
  1
AEC_DISP_PROPS_DOOR
  2
AecDbDispPropsDoor
  3
AecArchBase60
 90
      129
 91
        5
280
     0
281
     0
  0
CLASS
  1
AEC_DISP_REP_DOOR_ELEV
  2
AecDbDispRepDoorElev
  3
AecArchBase60
 90
      129
 91
        4
280
     0
281
     0
  0
CLASS
  1
AEC_DISP_REP_DOOR_PLAN
  2
AecDbDispRepDoorPlan
  3
AecArchBase60
 90
      129
 91
        8
280
     0
281
     0
  0
CLASS
  1
AEC_DISP_REP_DOOR_NOMINAL
  2
AecDbDispRepDoorNominal
  3
AecArchBase60
 90
      129
 91
        4
280
     0
281
     0
  0
CLASS
  1
AEC_DISP_PROPS_DOOR_NOMINAL
  2
AecDbDispPropsDoorNominal
  3
AecArchBase60
 90
      129
 91
        4
280
     0
281
     0
  0
CLASS
  1
AEC_DISP_REP_DOOR_THRESHOLD_PLAN
  2
AecDbDispRepDoorThresholdPlan
  3
AecArchBase60
 90
      129
 91
        4
280
     0
281
     0
  0
CLASS
  1
AEC_DISP_PROPS_DOOR_THRESHOLD_PLAN
  2
AecDbDispPropsDoorThresholdPlan
  3
AecArchBase60
 90
      129
 91
        4
280
     0
281
     0
  0
CLASS
  1
AEC_DISP_REP_DOOR_PLAN_50
  2
AecDbDispRepDoorPlan50
  3
AecArchDACHBase60
 90
      129
 91
        4
280
     0
281
     0
  0
CLASS
  1
AEC_DISP_PROPS_DOOR_PLAN_50
  2
AecDbDispPropsDoorPlan50
  3
AecArchDACHBase60
 90
      129
 91
        4
280
     0
281
     0
  0
CLASS
  1
AEC_DISP_REP_DOOR_PLAN_HEKTO
  2
AecDbDispRepDoorPlanHekto
  3
AecArchDACHBase60
 90
      129
 91
        4
280
     0
281
     0
  0
CLASS
  1
AEC_DISP_PROPS_DOOR_PLAN_100
  2
AecDbDispPropsDoorPlan100
  3
AecArchDACHBase60
 90
      129
 91
        4
280
     0
281
     0
  0
CLASS
  1
AEC_DISP_REP_DOOR_RCP
  2
AecDbDispRepDoorRcp
  3
AecArchBase60
 90
      129
 91
        4
280
     0
281
     0
  0
CLASS
  1
AEC_DISP_REP_DOOR_THRESHOLD_SYMBOL_PLAN
  2
AecDbDispRepDoorThresholdSymbolPlan
  3
AecArchDACHBase60
 90
      129
 91
        4
280
     0
281
     0
  0
CLASS
  1
AEC_DISP_PROPS_DOOR_THRESHOLD_SYMBOL_PLAN
  2
AecDbDispPropsDoorThresholdSymbolPlan
  3
AecArchDACHBase60
 90
      129
 91
        4
280
     0
281
     0
  0
CLASS
  1
AEC_DISP_REP_OPENING
  2
AecDbDispRepOpening
  3
AecArchBase60
 90
      129
 91
        6
280
     0
281
     0
  0
CLASS
  1
AEC_DISP_PROPS_OPENING
  2
AecDbDispPropsOpening
  3
AecArchBase60
 90
      129
 91
        5
280
     0
281
     0
  0
CLASS
  1
AEC_DISP_REP_OPENING_MODEL
  2
AecDbDispRepOpeningModel
  3
AecArchBase60
 90
      129
 91
        4
280
     0
281
     0
  0
CLASS
  1
AEC_DISPREPAECDBDISPREPOPENINGPLAN100
  2
AecDbDispRepOpeningPlan100
  3
AecArchDACHBase60
 90
      129
 91
        4
280
     0
281
     0
  0
CLASS
  1
AEC_DISPROPSOPENINGPLANCOMMONHATCHED
  2
AecDbDispPropsOpeningPlanCommonHatched
  3
AecArchDACHBase60
 90
      129
 91
        4
280
     0
281
     0
  0
CLASS
  1
AEC_DISPREPAECDBDISPREPOPENINGPLAN50
  2
AecDbDispRepOpeningPlan50
  3
AecArchDACHBase60
 90
      129
 91
        4
280
     0
281
     0
  0
CLASS
  1
AEC_DISPREPAECDBDISPREPOPENINGPLANREFLECTED
  2
AecDbDispRepOpeningPlanReflected
  3
AecArchDACHBase60
 90
      129
 91
        4
280
     0
281
     0
  0
CLASS
  1
AEC_DISPROPSOPENINGPLANCOMMON
  2
AecDbDispPropsOpeningPlanCommon
  3
AecArchDACHBase60
 90
      129
 91
        5
280
     0
281
     0
  0
CLASS
  1
AEC_DISPREPAECDBDISPREPOPENINGSILLPLAN
  2
AecDbDispRepOpeningSillPlan
  3
AecArchDACHBase60
 90
      129
 91
        4
280
     0
281
     0
  0
CLASS
  1
AEC_DISPROPSOPENINGSILLPLAN
  2
AecDbDispPropsOpeningSillPlan
  3
AecArchDACHBase60
 90
      129
 91
        4
280
     0
281
     0
  0
CLASS
  1
AEC_DISP_REP_RAILING_MODEL
  2
AecDbDispRepRailingModel
  3
AecArchBase60
 90
      129
 91
        4
280
     0
281
     0
  0
CLASS
  1
AEC_DISP_PROPS_RAILING_MODEL
  2
AecDbDispPropsRailingModel
  3
AecArchBase60
 90
      129
 91
        4
280
     0
281
     0
  0
CLASS
  1
AEC_DISP_REP_RAILING_PLAN
  2
AecDbDispRepRailingPlan
  3
AecArchBase60
 90
      129
 91
        5
280
     0
281
     0
  0
CLASS
  1
AEC_DISP_PROPS_RAILING_PLAN
  2
AecDbDispPropsRailingPlan
  3
AecArchBase60
 90
      129
 91
        5
280
     0
281
     0
  0
CLASS
  1
AEC_DISP_REP_RAILING_PLAN_100
  2
AecDbDispRepRailingPlan100
  3
AecArchDACHBase60
 90
      129
 91
        4
280
     0
281
     0
  0
CLASS
  1
AEC_DISP_ROPS_RAILING_PLAN_100
  2
AecDbDispPropsRailingPlan100
  3
AecArchDACHBase60
 90
      129
 91
        4
280
     0
281
     0
  0
CLASS
  1
AEC_DISP_REP_RAILING_PLAN_50
  2
AecDbDispRepRailingPlan50
  3
AecArchDACHBase60
 90
      129
 91
        4
280
     0
281
     0
  0
CLASS
  1
AEC_DISP_ROPS_RAILING_PLAN_50
  2
AecDbDispPropsRailingPlan50
  3
AecArchDACHBase60
 90
      129
 91
        4
280
     0
281
     0
  0
CLASS
  1
AEC_DISP_REP_ROOF_MODEL
  2
AecDbDispRepRoofModel
  3
AecArchBase60
 90
      129
 91
        4
280
     0
281
     0
  0
CLASS
  1
AEC_DISP_PROPS_ROOF
  2
AecDbDispPropsRoof
  3
AecArchBase60
 90
      129
 91
        4
280
     0
281
     0
  0
CLASS
  1
AEC_DISP_REP_ROOF_PLAN
  2
AecDbDispRepRoofPlan
  3
AecArchBase60
 90
      129
 91
        8
280
     0
281
     0
  0
CLASS
  1
AEC_DISP_REP_ROOF_RCP
  2
AecDbDispRepRoofRcp
  3
AecArchBase60
 90
      129
 91
        4
280
     0
281
     0
  0
CLASS
  1
AEC_AECDBDISPREPROOFPLAN100
  2
AecDbDispRepRoofPlan100
  3
AecBase60
 90
      129
 91
        4
280
     0
281
     0
  0
CLASS
  1
AEC_AECDBDISPREPROOFPLAN50
  2
AecDbDispRepRoofPlan50
  3
AecBase60
 90
      129
 91
        4
280
     0
281
     0
  0
CLASS
  1
AEC_DISP_REP_ROOFSLAB_MODEL
  2
AecDbDispRepRoofSlabModel
  3
AecArchBase60
 90
      129
 91
        4
280
     0
281
     0
  0
CLASS
  1
AEC_DISP_PROPS_ROOFSLAB
  2
AecDbDispPropsRoofSlab
  3
AecArchBase60
 90
      129
 91
        4
280
     0
281
     0
  0
CLASS
  1
AEC_DISP_REP_ROOFSLAB_PLAN
  2
AecDbDispRepRoofSlabPlan
  3
AecArchBase60
 90
      129
 91
        6
280
     0
281
     0
  0
CLASS
  1
AEC_DISP_PROPS_ROOFSLAB_PLAN
  2
AecDbDispPropsRoofSlabPlan
  3
AecArchBase60
 90
      129
 91
        4
280
     0
281
     0
  0
CLASS
  1
AEC_AECDBDISPREPROOFSLABPLAN100
  2
AecDbDispRepRoofSlabPlan100
  3
AecBase60
 90
      129
 91
        4
280
     0
281
     0
  0
CLASS
  1
AEC_AECDBDISPREPROOFSLABPLAN50
  2
AecDbDispRepRoofSlabPlan50
  3
AecBase60
 90
      129
 91
        4
280
     0
281
     0
  0
CLASS
  1
AEC_DISP_REP_SLAB_MODEL
  2
AecDbDispRepSlabModel
  3
AecArchBase60
 90
      129
 91
        5
280
     0
281
     0
  0
CLASS
  1
AEC_DISP_PROPS_SLAB
  2
AecDbDispPropsSlab
  3
AecArchBase60
 90
      129
 91
        6
280
     0
281
     0
  0
CLASS
  1
AEC_DISP_REP_SLAB_PLAN
  2
AecDbDispRepSlabPlan
  3
AecArchBase60
 90
      129
 91
        7
280
     0
281
     0
  0
CLASS
  1
AEC_DISP_PROPS_SLAB_PLAN
  2
AecDbDispPropsSlabPlan
  3
AecArchBase60
 90
      129
 91
        5
280
     0
281
     0
  0
CLASS
  1
AEC_AECDBDISPREPSLABPLAN100
  2
AecDbDispRepSlabPlan100
  3
AecBase60
 90
      129
 91
        4
280
     0
281
     0
  0
CLASS
  1
AEC_AECDBDISPREPSLABPLAN50
  2
AecDbDispRepSlabPlan50
  3
AecBase60
 90
      129
 91
        4
280
     0
281
     0
  0
CLASS
  1
AEC_DISP_REP_SPACE_MODEL
  2
AecDbDispRepSpaceModel
  3
AecArchBase60
 90
      129
 91
        4
280
     0
281
     0
  0
CLASS
  1
AEC_DISP_PROPS_SPACE_MODEL
  2
AecDbDispPropsSpaceModel
  3
AecArchBase60
 90
      129
 91
        4
280
     0
281
     0
  0
CLASS
  1
AEC_DISP_REP_SPACE_PLAN
  2
AecDbDispRepSpacePlan
  3
AecArchBase60
 90
      129
 91
        7
280
     0
281
     0
  0
CLASS
  1
AEC_DISP_PROPS_SPACE_PLAN
  2
AecDbDispPropsSpacePlan
  3
AecArchBase60
 90
      129
 91
        4
280
     0
281
     0
  0
CLASS
  1
AEC_DISP_REP_SPACE_RCP
  2
AecDbDispRepSpaceRcp
  3
AecArchBase60
 90
      129
 91
        4
280
     0
281
     0
  0
CLASS
  1
AEC_DISP_REP_SPACE_VOLUME
  2
AecDbDispRepSpaceVolume
  3
AecArchBase60
 90
      129
 91
        4
280
     0
281
     0
  0
CLASS
  1
AEC_DISP_REP_SPACE_DECOMPOSED
  2
AecDbDispRepSpaceDecomposed
  3
AecArchBase60
 90
      129
 91
        4
280
     0
281
     0
  0
CLASS
  1
AEC_DISP_PROPS_SPACE_DECOMPOSED
  2
AecDbDispPropsSpaceDecomposed
  3
AecArchBase60
 90
      129
 91
        4
280
     0
281
     0
  0
CLASS
  1
AEC_AECDBDISPREPSPACEPLAN100
  2
AecDbDispRepSpacePlan100
  3
AecBase60
 90
      129
 91
        4
280
     0
281
     0
  0
CLASS
  1
AEC_AECDBDISPREPSPACEPLAN50
  2
AecDbDispRepSpacePlan50
  3
AecBase60
 90
      129
 91
        4
280
     0
281
     0
  0
CLASS
  1
AEC_DISP_REP_STAIR_MODEL
  2
AecDbDispRepStairModel
  3
AecArchBase60
 90
      129
 91
        4
280
     0
281
     0
  0
CLASS
  1
AEC_DISP_PROPS_STAIR_MODEL
  2
AecDbDispPropsStairModel
  3
AecArchBase60
 90
      129
 91
        4
280
     0
281
     0
  0
CLASS
  1
AEC_DISP_REP_STAIR_PLAN
  2
AecDbDispRepStairPlan
  3
AecArchBase60
 90
      129
 91
        7
280
     0
281
     0
  0
CLASS
  1
AEC_DISP_PROPS_STAIR_PLAN
  2
AecDbDispPropsStairPlan
  3
AecArchBase60
 90
      129
 91
        6
280
     0
281
     0
  0
CLASS
  1
AEC_DISP_REP_STAIR_RCP
  2
AecDbDispRepStairRcp
  3
AecArchBase60
 90
      129
 91
        4
280
     0
281
     0
  0
CLASS
  1
AEC_DISP_REP_STAIR_PLAN_100
  2
AecDbDispRepStairPlan100
  3
AecArchDACHBase60
 90
      129
 91
        4
280
     0
281
     0
  0
CLASS
  1
AEC_DISP_ROPS_STAIR_PLAN_100
  2
AecDbDispPropsStairPlan100
  3
AecArchDACHBase60
 90
      129
 91
        4
280
     0
281
     0
  0
CLASS
  1
AEC_DISP_REP_STAIR_PLAN_50
  2
AecDbDispRepStairPlan50
  3
AecArchDACHBase60
 90
      129
 91
        4
280
     0
281
     0
  0
CLASS
  1
AEC_DISP_ROPS_STAIR_PLAN_50
  2
AecDbDispPropsStairPlan50
  3
AecArchDACHBase60
 90
      129
 91
        4
280
     0
281
     0
  0
CLASS
  1
AEC_DISP_REP_STAIR_PLAN_OVERLAPPING
  2
AecDbDispRepStairPlanOverlapping
  3
AecArchBase60
 90
      129
 91
        4
280
     0
281
     0
  0
CLASS
  1
AEC_DISP_PROPS_STAIR_PLAN_OVERLAPPING
  2
AecDbDispPropsStairPlanOverlapping
  3
AecArchBase60
 90
      129
 91
        4
280
     0
281
     0
  0
CLASS
  1
AEC_DISP_REP_WALL_GRAPH
  2
AecDbDispRepWallGraph
  3
AecArchBase60
 90
      129
 91
        4
280
     0
281
     0
  0
CLASS
  1
AEC_DISP_PROPS_WALL_GRAPH
  2
AecDbDispPropsWallGraph
  3
AecArchBase60
 90
      129
 91
        4
280
     0
281
     0
  0
CLASS
  1
AEC_DISP_REP_WALL_MODEL
  2
AecDbDispRepWallModel
  3
AecArchBase60
 90
      129
 91
        4
280
     0
281
     0
  0
CLASS
  1
AEC_DISP_PROPS_WALL_MODEL
  2
AecDbDispPropsWallModel
  3
AecArchBase60
 90
      129
 91
        4
280
     0
281
     0
  0
CLASS
  1
AEC_DISP_REP_WALL_PLAN
  2
AecDbDispRepWallPlan
  3
AecArchBase60
 90
      129
 91
        7
280
     0
281
     0
  0
CLASS
  1
AEC_DISP_PROPS_WALL_PLAN
  2
AecDbDispPropsWallPlan
  3
AecArchBase60
 90
      129
 91
        4
280
     0
281
     0
  0
CLASS
  1
AEC_DISP_REP_WALL_RCP
  2
AecDbDispRepWallRcp
  3
AecArchBase60
 90
      129
 91
        4
280
     0
281
     0
  0
CLASS
  1
AEC_DISP_REP_WALL_SCHEM
  2
AecDbDispRepWallSchem
  3
AecArchBase60
 90
      129
 91
        4
280
     0
281
     0
  0
CLASS
  1
AEC_DISP_PROPS_WALL_SCHEM
  2
AecDbDispPropsWallSchem
  3
AecArchBase60
 90
      129
 91
        4
280
     0
281
     0
  0
CLASS
  1
AEC_AECDBDISPREPWALLPLAN100
  2
AecDbDispRepWallPlan100
  3
AecBase60
 90
      129
 91
        4
280
     0
281
     0
  0
CLASS
  1
AEC_AECDBDISPREPWALLPLAN50
  2
AecDbDispRepWallPlan50
  3
AecBase60
 90
      129
 91
        4
280
     0
281
     0
  0
CLASS
  1
AEC_DISP_REP_WINDOW_MODEL
  2
AecDbDispRepWindowModel
  3
AecArchBase60
 90
      129
 91
        5
280
     0
281
     0
  0
CLASS
  1
AEC_DISP_PROPS_WINDOW
  2
AecDbDispPropsWindow
  3
AecArchBase60
 90
      129
 91
        6
280
     0
281
     0
  0
CLASS
  1
AEC_DISP_REP_WINDOW_ELEV
  2
AecDbDispRepWindowElev
  3
AecArchBase60
 90
      129
 91
        4
280
     0
281
     0
  0
CLASS
  1
AEC_DISP_REP_WINDOW_PLAN
  2
AecDbDispRepWindowPlan
  3
AecArchBase60
 90
      129
 91
        8
280
     0
281
     0
  0
CLASS
  1
AEC_DISP_REP_WINDOW_NOMINAL
  2
AecDbDispRepWindowNominal
  3
AecArchBase60
 90
      129
 91
        4
280
     0
281
     0
  0
CLASS
  1
AEC_DISP_PROPS_WINDOW_NOMINAL
  2
AecDbDispPropsWindowNominal
  3
AecArchBase60
 90
      129
 91
        4
280
     0
281
     0
  0
CLASS
  1
AEC_DISP_REP_WINDOW_RCP
  2
AecDbDispRepWindowRcp
  3
AecArchBase60
 90
      129
 91
        4
280
     0
281
     0
  0
CLASS
  1
AEC_DISP_REP_WINDOW_SILL_PLAN
  2
AecDbDispRepWindowSillPlan
  3
AecArchBase60
 90
      129
 91
        4
280
     0
281
     0
  0
CLASS
  1
AEC_DISP_PROPS_WINDOW_SILL_PLAN
  2
AecDbDispPropsWindowSillPlan
  3
AecArchBase60
 90
      129
 91
        4
280
     0
281
     0
  0
CLASS
  1
AEC_DISP_REP_WINDOW_PLAN_100
  2
AecDbDispRepWindowPlan100
  3
AecArchDACHBase60
 90
      129
 91
        4
280
     0
281
     0
  0
CLASS
  1
AEC_DISP_PROPS_WINDOW_PLAN_100
  2
AecDbDispPropsWindowPlan100
  3
AecArchDACHBase60
 90
      129
 91
        4
280
     0
281
     0
  0
CLASS
  1
AEC_DISP_REP_WINDOW_PLAN_50
  2
AecDbDispRepWindowPlan50
  3
AecArchDACHBase60
 90
      129
 91
        4
280
     0
281
     0
  0
CLASS
  1
AEC_DISP_PROPS_WINDOW_PLAN_50
  2
AecDbDispPropsWindowPlan50
  3
AecArchDACHBase60
 90
      129
 91
        4
280
     0
281
     0
  0
CLASS
  1
AEC_DISP_REP_WINDOW_ASSEMBLY_MODEL
  2
AecDbDispRepWindowAssemblyModel
  3
AecArchBase60
 90
      129
 91
        4
280
     0
281
     0
  0
CLASS
  1
AEC_DISP_REP_WINDOW_ASSEMBLY_PLAN
  2
AecDbDispRepWindowAssemblyPlan
  3
AecArchBase60
 90
      129
 91
        6
280
     0
281
     0
  0
CLASS
  1
AEC_DISP_REP_WINDOWASSEMBLY_SILL_PLAN
  2
AecDbDispRepWindowAssemblySillPlan
  3
AecArchBase60
 90
      129
 91
        4
280
     0
281
     0
  0
CLASS
  1
AEC_DISP_PROPS_WINDOW_ASSEMBLY_SILL_PLAN
  2
AecDbDispPropsWindowAssemblySillPlan
  3
AecArchBase60
 90
      129
 91
        4
280
     0
281
     0
  0
CLASS
  1
AEC_AECDBDISPREPWINDOWASSEMBLYPLAN100
  2
AecDbDispRepWindowAssemblyPlan100
  3
AecBase60
 90
      129
 91
        4
280
     0
281
     0
  0
CLASS
  1
AEC_AECDBDISPREPWINDOWASSEMBLYPLAN50
  2
AecDbDispRepWindowAssemblyPlan50
  3
AecBase60
 90
      129
 91
        4
280
     0
281
     0
  0
CLASS
  1
AEC_DB_DISP_REP_DIM_GROUP_PLAN
  2
AecDbDispRepDimGroupPlan
  3
AecArchDACHBase60
 90
      129
 91
        4
280
     0
281
     0
  0
CLASS
  1
AEC_DISP_PROPS_DIM
  2
AecDbDispPropsDimGroup
  3
AecArchDACHBase60
 90
      129
 91
        4
280
     0
281
     0
  0
CLASS
  1
AEC_DB_DISP_REP_DIM_GROUP_PLAN100
  2
AecDbDispRepDimGroupPlan100
  3
AecArchDACHBase60
 90
      129
 91
        4
280
     0
281
     0
  0
CLASS
  1
AEC_DB_DISP_REP_DIM_GROUP_PLAN50
  2
AecDbDispRepDimGroupPlan50
  3
AecArchDACHBase60
 90
      129
 91
        4
280
     0
281
     0
  0
CLASS
  1
AEC_DISP_REP_SCHEDULE_TABLE
  2
AecDbDispRepScheduleTable
  3
AecSchedule50
 90
      129
 91
        4
280
     0
281
     0
  0
CLASS
  1
AEC_DISP_PROPS_SCHEDULE_TABLE
  2
AecDbDispPropsScheduleTable
  3
AecSchedule50
 90
      129
 91
        4
280
     0
281
     0
  0
CLASS
  1
AEC_DISP_REP_ANCHOR_TAG_TO_ENT
  2
AecDbDispRepAnchorTagToEnt
  3
AecScheduleData60
 90
      129
 91
        5
280
     0
281
     0
  0
CLASS
  1
AEC_DISP_REP_ANCHOR_EXT_TAG_TO_ENT
  2
AecDbDispRepAnchorExtendedTagToEnt
  3
AecScheduleData60
 90
      129
 91
        4
280
     0
281
     0
  0
CLASS
  1
AEC_DISP_REP_SET
  2
AecDbDispRepSet
  3
AecBase60
 90
      129
 91
        4
280
     0
281
     0
  0
CLASS
  1
AECS_DISP_REP_MEMBER_MODEL_DESIGN
  2
AecsDbDispRepMemberModelDesign
  3
AecStructureBase60
 90
      129
 91
        4
280
     0
281
     0
  0
CLASS
  1
AECS_DISP_PROPS_MEMBER
  2
AecsDbDispPropsMember
  3
AecStructureBase60
 90
      129
 91
        6
280
     0
281
     0
  0
CLASS
  1
AECS_DISP_REP_MEMBER_PLAN_DESIGN
  2
AecsDbDispRepMemberPlanDesign
  3
AecStructureBase60
 90
      129
 91
        4
280
     0
281
     0
  0
CLASS
  1
AECS_DISP_PROPS_MEMBER_PLAN
  2
AecsDbDispPropsMemberPlan
  3
AecStructureBase60
 90
      129
 91
        5
280
     0
281
     0
  0
CLASS
  1
AEC_DISP_REP_CONFIG
  2
AecDbDispRepConfig
  3
AecBase60
 90
      129
 91
        4
280
     0
281
     0
  0
CLASS
  1
MLEADERSTYLE
  2
AcDbMLeaderStyle
  3
ACDB_MLEADERSTYLE_CLASS
 90
     4095
 91
        4
280
     0
281
     0
  0
CLASS
  1
GEODATA
  2
AcDbGeoData
  3
ObjectDBX Classes
 90
     4095
 91
        4
280
     0
281
     0
  0
CLASS
  1
AEC_WALL_STYLE
  2
AecDbWallStyle
  3
AecArchBase60
 90
      129
 91
        4
280
     0
281
     0
  0
CLASS
  1
AEC_CLEANUP_GROUP_DEF
  2
AecDbCleanupGroupDef
  3
AecArchBase60
 90
      129
 91
        4
280
     0
281
     0
  0
CLASS
  1
AEC_ENDCAP_STYLE
  2
AecDbEndcapStyle
  3
AecArchBase60
 90
      129
 91
        4
280
     0
281
     0
  0
CLASS
  1
AEC_FRAME_DEF
  2
AecDbOpeningEndcapStyle
  3
AecArchBase60
 90
      129
 91
        4
280
     0
281
     0
  0
CLASS
  1
AEC_MATERIAL_DEF
  2
AecDbMaterialDef
  3
AecBase60
 90
      129
 91
        4
280
     0
281
     0
  0
CLASS
  1
TABLESTYLE
  2
AcDbTableStyle
  3
ObjectDBX Classes
 90
     4095
 91
        4
280
     0
281
     0
  0
CLASS
  1
TCPOINTENTITY
  2
TcPointEntity
  3
ExTcadCustObjs|Description: TurboCAD point
 90
     4095
 91
        2
280
     1
281
     1
  0
CLASS
  1
TCOPTIONALDATA
  2
TcOptionalData
  3
ExTcadCustObjs|Description: TurboCAD extension data object
 90
     4095
 91
        2
280
     1
281
     0
  0
CLASS
  1
SCALE
  2
AcDbScale
  3
ObjectDBX Classes
 90
     1153
 91
        4
280
     0
281
     0
  0
CLASS
  1
RASTERVARIABLES
  2
AcDbRasterVariables
  3
ISM
 90
        0
 91
        4
280
     0
281
     0
  0
CLASS
  1
DICTIONARYVAR
  2
AcDbDictionaryVar
  3
ObjectDBX Classes
 90
        0
 91
        4
280
     0
281
     0
  0
CLASS
  1
CELLSTYLEMAP
  2
AcDbCellStyleMap
  3
ObjectDBX Classes
 90
     1152
 91
        4
280
     0
281
     0
  0
ENDSEC
  0
SECTION
  2
TABLES
  0
TABLE
  2
VPORT
  5
8
330
0
100
AcDbSymbolTable
 70
     1
  0
VPORT
  5
29
330
8
100
AcDbSymbolTableRecord
100
AcDbViewportTableRecord
  2
*Active
 70
     0
 10
0.0
 20
0.0
 11
1.0
 21
1.0
 12
-135.4908298811642
 22
-65.121726391837
 13
0.0
 23
0.0
 14
10.0
 24
10.0
 15
10.0
 25
10.0
 16
0.0
 26
0.0
 36
1.0
 17
518748.7760876657
 27
4397659.846335662
 37
502.6000061035156
 40
7.848962495709073
 41
2.692307692307693
 42
50.0
 43
0.0
 44
0.0
 50
0.0
 51
0.0
 71
    16
 72
   100
 73
     1
 74
     3
 75
     0
 76
     0
 77
     0
 78
     0
281
     0
 65
     1
110
0.0
120
0.0
130
0.0
111
1.0
121
0.0
131
0.0
112
0.0
122
1.0
132
0.0
 79
     0
146
0.0
348
2F
 60
     3
 61
     5
292
     1
282
     1
141
0.0
142
0.0
 63
   250
361
3F
  0
ENDTAB
  0
TABLE
  2
LTYPE
  5
5
330
0
100
AcDbSymbolTable
 70
    14
  0
LTYPE
  5
14
330
5
100
AcDbSymbolTableRecord
100
AcDbLinetypeTableRecord
  2
ByBlock
 70
     0
  3

 72
    65
 73
     0
 40
0.0
  0
LTYPE
  5
15
330
5
100
AcDbSymbolTableRecord
100
AcDbLinetypeTableRecord
  2
ByLayer
 70
     0
  3

 72
    65
 73
     0
 40
0.0
  0
LTYPE
  5
16
330
5
100
AcDbSymbolTableRecord
100
AcDbLinetypeTableRecord
  2
Continuous
 70
     0
  3
Solid line
 72
    65
 73
     0
 40
0.0
  0
LTYPE
  5
155
330
5
100
AcDbSymbolTableRecord
100
AcDbLinetypeTableRecord
  2
BORDER
 70
     0
  3
BORDER
 72
    65
 73
     6
 40
1.75
 49
0.5
 74
     0
 49
-0.25
 74
     0
 49
0.5
 74
     0
 49
-0.25
 74
     0
 49
0.0
 74
     0
 49
-0.25
 74
     0
  0
LTYPE
  5
156
330
5
100
AcDbSymbolTableRecord
100
AcDbLinetypeTableRecord
  2
CENTER
 70
     0
  3
CENTER
 72
    65
 73
     4
 40
2.0
 49
1.25
 74
     0
 49
-0.25
 74
     0
 49
0.25
 74
     0
 49
-0.25
 74
     0
  0
LTYPE
  5
157
330
5
100
AcDbSymbolTableRecord
100
AcDbLinetypeTableRecord
  2
DASHDOT
 70
     0
  3
DASHDOT
 72
    65
 73
     4
 40
1.0
 49
0.5
 74
     0
 49
-0.25
 74
     0
 49
0.0
 74
     0
 49
-0.25
 74
     0
  0
LTYPE
  5
158
330
5
100
AcDbSymbolTableRecord
100
AcDbLinetypeTableRecord
  2
DASHED
 70
     0
  3
DASHED
 72
    65
 73
     2
 40
0.75
 49
0.5
 74
     0
 49
-0.25
 74
     0
  0
LTYPE
  5
159
330
5
100
AcDbSymbolTableRecord
100
AcDbLinetypeTableRecord
  2
DIVIDE
 70
     0
  3
DIVIDE
 72
    65
 73
     6
 40
1.25
 49
0.5
 74
     0
 49
-0.25
 74
     0
 49
0.0
 74
     0
 49
-0.25
 74
     0
 49
0.0
 74
     0
 49
-0.25
 74
     0
  0
LTYPE
  5
15A
330
5
100
AcDbSymbolTableRecord
100
AcDbLinetypeTableRecord
  2
DOT
 70
     0
  3
DOT
 72
    65
 73
     2
 40
0.25
 49
0.0
 74
     0
 49
-0.25
 74
     0
  0
LTYPE
  5
15B
330
5
100
AcDbSymbolTableRecord
100
AcDbLinetypeTableRecord
  2
HIDDEN
 70
     0
  3
HIDDEN
 72
    65
 73
     2
 40
0.375
 49
0.25
 74
     0
 49
-0.125
 74
     0
  0
LTYPE
  5
15C
330
5
100
AcDbSymbolTableRecord
100
AcDbLinetypeTableRecord
  2
PHANTOM
 70
     0
  3
PHANTOM
 72
    65
 73
     6
 40
2.5
 49
1.25
 74
     0
 49
-0.25
 74
     0
 49
0.25
 74
     0
 49
-0.25
 74
     0
 49
0.25
 74
     0
 49
-0.25
 74
     0
  0
LTYPE
  5
15D
330
5
100
AcDbSymbolTableRecord
100
AcDbLinetypeTableRecord
  2
$INVISIBLE
 70
     0
  3
$INVISIBLE
 72
    65
 73
     2
 40
200.0
 49
-100.0
 74
     0
 49
-100.0
 74
     0
  0
LTYPE
  5
15E
330
5
100
AcDbSymbolTableRecord
100
AcDbLinetypeTableRecord
  2
$CONSTRUCTION
 70
     0
  3
$CONSTRUCTION
 72
    65
 73
     4
 40
0.3
 49
0.2
 74
     0
 49
-0.05
 74
     0
 49
0.0
 74
     0
 49
-0.05
 74
     0
  0
LTYPE
  5
15F
330
5
100
AcDbSymbolTableRecord
100
AcDbLinetypeTableRecord
  2
$AUXILIARY
 70
     0
  3
$AUXILIARY
 72
    65
 73
     2
 40
0.1
 49
0.05
 74
     0
 49
-0.05
 74
     0
  0
LTYPE
  5
160
330
5
100
AcDbSymbolTableRecord
100
AcDbLinetypeTableRecord
  2
$SNAPEXT
 70
     0
  3
$SNAPEXT
 72
    65
 73
     2
 40
0.04
 49
0.02
 74
     0
 49
-0.02
 74
     0
  0
LTYPE
  5
161
330
5
100
AcDbSymbolTableRecord
100
AcDbLinetypeTableRecord
  2
$DYNDIMDOT
 70
     0
  3
$DYNDIMDOT
 72
    65
 73
     2
 40
0.05
 49
0.0
 74
     0
 49
-0.05
 74
     0
  0
ENDTAB
  0
TABLE
  2
LAYER
  5
2
102
{ACAD_XDICTIONARY
360
373
102
}
330
0
100
AcDbSymbolTable
 70
     5
  0
LAYER
  5
10
330
2
100
AcDbSymbolTableRecord
100
AcDbLayerTableRecord
  2
0
 70
     0
 62
     7
  6
Continuous
370
     0
390
F
347
3E
348
0
  0
LAYER
  5
162
330
2
100
AcDbSymbolTableRecord
100
AcDbLayerTableRecord
  2
463_T
 70
     0
 62
     4
  6
Continuous
370
     0
390
F
347
3E
348
0
  0
LAYER
  5
163
330
2
100
AcDbSymbolTableRecord
100
AcDbLayerTableRecord
  2
506_T
 70
     0
 62
    51
  6
Continuous
370
     0
390
F
347
3E
348
0
  0
LAYER
  5
164
330
2
100
AcDbSymbolTableRecord
100
AcDbLayerTableRecord
  2
DESANDRE_T
 70
     0
 62
    30
  6
Continuous
370
     0
390
F
347
3E
348
0
  0
LAYER
  5
165
330
2
100
AcDbSymbolTableRecord
100
AcDbLayerTableRecord
  2
INIT_COORD
 70
     0
 62
     1
420
 16711680
  6
Continuous
370
     0
390
F
347
3E
348
0
  0
ENDTAB
  0
TABLE
  2
STYLE
  5
3
330
0
100
AcDbSymbolTable
 70
     1
  0
STYLE
  5
11
330
3
100
AcDbSymbolTableRecord
100
AcDbTextStyleTableRecord
  2
Standard
 70
     0
 40
0.0
 41
1.0
 50
0.0
 71
     0
 42
2.5
  3
TIMES.TTF.SHX
  4

  0
ENDTAB
  0
TABLE
  2
VIEW
  5
6
330
0
100
AcDbSymbolTable
 70
     1
  0
VIEW
  5
166
330
6
100
AcDbSymbolTableRecord
100
AcDbViewTableRecord
  2
View_0
 70
     0
 40
8.267716535433072
 10
5.846456692913386
 20
4.133858267716536
 41
11.69291338582677
 11
0.0
 21
0.0
 31
1.0
 12
0.0
 22
0.0
 32
0.0
 42
50.0
 43
0.0
 44
0.0
 50
0.0
 71
     0
281
     0
 72
     0
 73
     0
348
2F
  0
ENDTAB
  0
TABLE
  2
UCS
  5
7
330
0
100
AcDbSymbolTable
 70
     0
  0
ENDTAB
  0
TABLE
  2
APPID
  5
9
330
0
100
AcDbSymbolTable
 70
     6
  0
APPID
  5
12
330
9
100
AcDbSymbolTableRecord
100
AcDbRegAppTableRecord
  2
ACAD
 70
     0
  0
APPID
  5
40
330
9
100
AcDbSymbolTableRecord
100
AcDbRegAppTableRecord
  2
TCAD
 70
     0
  0
APPID
  5
16A
330
9
100
AcDbSymbolTableRecord
100
AcDbRegAppTableRecord
  2
ACAD_MLEADERVER
 70
     0
  0
ENDTAB
  0
TABLE
  2
DIMSTYLE
  5
A
330
0
100
AcDbSymbolTable
 70
     2
100
AcDbDimStyleTable
  0
DIMSTYLE
105
27
330
A
100
AcDbSymbolTableRecord
100
AcDbDimStyleTableRecord
  2
Standard
 70
     0
  4
^B2147483648l^B
 41
0.25
 43
0.375
 44
0.125
 45
0.01
 74
     0
 77
     1
 78
     1
140
0.1463414634146341
141
0.0
143
1.0
147
0.0625
148
0.01
172
     1
178
     0
179
     2
271
     2
272
     3
276
     2
278
     0
340
11
345
14
346
14
347
14
  0
DIMSTYLE
105
167
330
A
100
AcDbSymbolTableRecord
100
AcDbDimStyleTableRecord
  2
ISO-25
 70
     0
  4
^B2147483648l^B^B2147483648l^B
 41
2.5
 42
0.625
 43
3.75
 44
1.25
 73
     0
 74
     0
 77
     1
 78
     8
140
2.499999999999999
141
0.0
143
0.03937007874016
147
0.625
171
     3
172
     1
178
     0
271
     2
272
     2
274
     3
278
    44
283
     0
284
     8
340
11
345
14
346
14
347
14
  0
ENDTAB
  0
TABLE
  2
BLOCK_RECORD
  5
1
330
0
100
AcDbSymbolTable
 70
     3
  0
BLOCK_RECORD
  5
1F
102
{ACAD_XDICTIONARY
360
16B
102
}
330
1
100
AcDbSymbolTableRecord
100
AcDbBlockTableRecord
  2
*Model_Space
340
22
 70
     0
280
     1
281
     0
  0
BLOCK_RECORD
  5
1B
330
1
100
AcDbSymbolTableRecord
100
AcDbBlockTableRecord
  2
*Paper_Space
340
1E
 70
     0
280
     1
281
     0
  0
BLOCK_RECORD
  5
151
330
1
100
AcDbSymbolTableRecord
100
AcDbBlockTableRecord
  2
*Paper_Space2
340
152
 70
     0
280
     1
281
     0
  0
ENDTAB
  0
ENDSEC
  0
SECTION
  2
BLOCKS
  0
BLOCK
  5
20
330
1F
100
AcDbEntity
  8
0
100
AcDbBlockBegin
  2
*Model_Space
 70
     0
 10
0.0
 20
0.0
 30
0.0
  3
*Model_Space
  1

  0
ENDBLK
  5
21
330
1F
100
AcDbEntity
  8
0
100
AcDbBlockEnd
  0
BLOCK
  5
1C
330
1B
100
AcDbEntity
 67
     1
  8
0
100
AcDbBlockBegin
  2
*Paper_Space
 70
     0
 10
0.0
 20
0.0
 30
0.0
  3
*Paper_Space
  1

  0
ENDBLK
  5
1D
330
1B
100
AcDbEntity
 67
     1
  8
0
100
AcDbBlockEnd
  0
BLOCK
  5
153
330
151
100
AcDbEntity
  8
0
100
AcDbBlockBegin
  2
*Paper_Space2
 70
     0
 10
0.0
 20
0.0
 30
0.0
  3
*Paper_Space2
  1

  0
VIEWPORT
  5
344
330
151
100
AcDbEntity
  8
0
100
AcDbViewport
 10
498192.2639968675
 20
4224461.016131556
 30
0.0
 40
496.2944999999017
 41
247.2000636057928
 68
     1
 69
     1
 12
498192.2639968675
 22
4224461.016131556
 13
0.0
 23
0.0
 14
0.5
 24
0.5
 15
0.5
 25
0.5
 16
0.0
 26
0.0
 36
1.0
 17
0.0
 27
0.0
 37
0.0
 42
50.0
 43
0.0
 44
0.0
 45
247.2000636057928
 50
0.0
 51
0.0
 72
  1000
 90
    32800
  1

281
     0
 71
     1
 74
     0
110
0.0
120
0.0
130
0.0
111
1.0
121
0.0
131
0.0
112
0.0
122
1.0
132
0.0
 79
     0
146
0.0
170
     0
 61
     5
348
2F
292
     1
282
     1
141
0.0
142
0.0
 63
   256
  0
ENDBLK
  5
154
330
151
100
AcDbEntity
  8
0
100
AcDbBlockEnd
  0
ENDSEC
  0
SECTION
  2
ENTITIES
  0
POINT
  5
179
330
1F
100
AcDbEntity
  8
463_T
  6
Continuous
100
AcDbPoint
 10
518943.6185
 20
4397803.1075
 30
463.8999938964844
  0
POINT
  5
17A
330
1F
100
AcDbEntity
  8
463_T
  6
Continuous
100
AcDbPoint
 10
518942.8927
 20
4397802.9982
 30
463.8999938964844
  0
POINT
  5
17B
330
1F
100
AcDbEntity
  8
463_T
  6
Continuous
100
AcDbPoint
 10
518941.4096
 20
4397803.733
 30
463.8999938964844
  0
POINT
  5
17C
330
1F
100
AcDbEntity
  8
463_T
  6
Continuous
100
AcDbPoint
 10
518941.2194
 20
4397804.1319
 30
463.8999938964844
  0
POINT
  5
17D
330
1F
100
AcDbEntity
  8
463_T
  6
Continuous
100
AcDbPoint
 10
518942.9297
 20
4397810.3773
 30
463.75
  0
POINT
  5
17E
330
1F
100
AcDbEntity
  8
463_T
  6
Continuous
100
AcDbPoint
 10
518942.2743
 20
4397810.6331
 30
463.75
  0
POINT
  5
17F
330
1F
100
AcDbEntity
  8
463_T
  6
Continuous
100
AcDbPoint
 10
518942.8899
 20
4397812.7494
 30
463.75
  0
POINT
  5
180
330
1F
100
AcDbEntity
  8
463_T
  6
Continuous
100
AcDbPoint
 10
518944.6977290878
 20
4397812.668126983
 30
463.75
  0
POINT
  5
181
330
1F
100
AcDbEntity
  8
463_T
  6
Continuous
100
AcDbPoint
 10
518945.6554854053
 20
4397813.052245376
 30
463.6000061035156
  0
POINT
  5
182
330
1F
100
AcDbEntity
  8
463_T
  6
Continuous
100
AcDbPoint
 10
518946.233
 20
4397813.9189
 30
463.6000061035156
  0
POINT
  5
183
330
1F
100
AcDbEntity
  8
463_T
  6
Continuous
100
AcDbPoint
 10
518947.2741297242
 20
4397814.138614605
 30
463.6000061035156
  0
POINT
  5
184
330
1F
100
AcDbEntity
  8
463_T
  6
Continuous
100
AcDbPoint
 10
518948.0733653653
 20
4397814.379756915
 30
463.6000061035156
  0
POINT
  5
185
330
1F
100
AcDbEntity
  8
463_T
  6
Continuous
100
AcDbPoint
 10
518950.0074767311
 20
4397813.499734662
 30
463.6000061035156
  0
POINT
  5
186
330
1F
100
AcDbEntity
  8
463_T
  6
Continuous
100
AcDbPoint
 10
518952.4421122615
 20
4397813.959224186
 30
463.5
  0
POINT
  5
187
330
1F
100
AcDbEntity
  8
463_T
  6
Continuous
100
AcDbPoint
 10
518954.38950265
 20
4397814.502636159
 30
463.5
  0
POINT
  5
188
330
1F
100
AcDbEntity
  8
463_T
  6
Continuous
100
AcDbPoint
 10
518956.0707976164
 20
4397814.629844662
 30
463.5
  0
POINT
  5
189
330
1F
100
AcDbEntity
  8
463_T
  6
Continuous
100
AcDbPoint
 10
518957.7101
 20
4397815.1081
 30
463.5
  0
POINT
  5
18A
330
1F
100
AcDbEntity
  8
463_T
  6
Continuous
100
AcDbPoint
 10
518959.9517
 20
4397814.0971
 30
463.5
  0
POINT
  5
18B
330
1F
100
AcDbEntity
  8
463_T
  6
Continuous
100
AcDbPoint
 10
518961.3502
 20
4397814.759
 30
463.5
  0
POINT
  5
18C
330
1F
100
AcDbEntity
  8
463_T
  6
Continuous
100
AcDbPoint
 10
518961.8201
 20
4397814.6651
 30
463.5
  0
POINT
  5
18D
330
1F
100
AcDbEntity
  8
463_T
  6
Continuous
100
AcDbPoint
 10
518962.7518
 20
4397813.8592
 30
463.5
  0
POINT
  5
18E
330
1F
100
AcDbEntity
  8
463_T
  6
Continuous
100
AcDbPoint
 10
518962.9911
 20
4397813.7144
 30
463.5
  0
POINT
  5
18F
330
1F
100
AcDbEntity
  8
463_T
  6
Continuous
100
AcDbPoint
 10
518966.2498
 20
4397809.0424
 30
463.5
  0
POINT
  5
190
330
1F
100
AcDbEntity
  8
463_T
  6
Continuous
100
AcDbPoint
 10
518968.8066
 20
4397806.6292
 30
463.3999938964844
  0
POINT
  5
191
330
1F
100
AcDbEntity
  8
463_T
  6
Continuous
100
AcDbPoint
 10
518971.0949
 20
4397805.2985
 30
463.3999938964844
  0
POINT
  5
192
330
1F
100
AcDbEntity
  8
463_T
  6
Continuous
100
AcDbPoint
 10
518974.8203
 20
4397804.5502
 30
463.3999938964844
  0
POINT
  5
193
330
1F
100
AcDbEntity
  8
463_T
  6
Continuous
100
AcDbPoint
 10
518978.1836
 20
4397803.7221
 30
463.2000122070312
  0
POINT
  5
194
330
1F
100
AcDbEntity
  8
463_T
  6
Continuous
100
AcDbPoint
 10
518979.1837
 20
4397803.5247
 30
463.2000122070312
  0
POINT
  5
195
330
1F
100
AcDbEntity
  8
463_T
  6
Continuous
100
AcDbPoint
 10
518983.1108
 20
4397802.3298
 30
463.2000122070312
  0
POINT
  5
196
330
1F
100
AcDbEntity
  8
463_T
  6
Continuous
100
AcDbPoint
 10
518984.779
 20
4397801.7236
 30
463.2000122070312
  0
POINT
  5
197
330
1F
100
AcDbEntity
  8
463_T
  6
Continuous
100
AcDbPoint
 10
518988.841
 20
4397799.6074
 30
463.2000122070312
  0
POINT
  5
198
330
1F
100
AcDbEntity
  8
463_T
  6
Continuous
100
AcDbPoint
 10
518993.183
 20
4397797.2216
 30
462.8999938964844
  0
POINT
  5
199
330
1F
100
AcDbEntity
  8
463_T
  6
Continuous
100
AcDbPoint
 10
519005.674
 20
4397779.649
 30
462.7000122070312
  0
POINT
  5
19A
330
1F
100
AcDbEntity
  8
463_T
  6
Continuous
100
AcDbPoint
 10
519015.512
 20
4397774.23
 30
463.6000061035156
  0
POINT
  5
19B
330
1F
100
AcDbEntity
  8
463_T
  6
Continuous
100
AcDbPoint
 10
519021.143
 20
4397756.991
 30
462.3999938964844
  0
POINT
  5
19C
330
1F
100
AcDbEntity
  8
463_T
  6
Continuous
100
AcDbPoint
 10
519020.982
 20
4397754.975
 30
462.3999938964844
  0
POINT
  5
19D
330
1F
100
AcDbEntity
  8
463_T
  6
Continuous
100
AcDbPoint
 10
519020.193
 20
4397752.832
 30
462.3999938964844
  0
POINT
  5
19E
330
1F
100
AcDbEntity
  8
463_T
  6
Continuous
100
AcDbPoint
 10
519019.236
 20
4397750.691
 30
462.2999877929688
  0
POINT
  5
19F
330
1F
100
AcDbEntity
  8
463_T
  6
Continuous
100
AcDbPoint
 10
519019.56
 20
4397750.566
 30
462.2999877929688
  0
POINT
  5
1A0
330
1F
100
AcDbEntity
  8
463_T
  6
Continuous
100
AcDbPoint
 10
519020.042
 20
4397750.233
 30
462.2999877929688
  0
POINT
  5
1A1
330
1F
100
AcDbEntity
  8
463_T
  6
Continuous
100
AcDbPoint
 10
519020.813
 20
4397750.11
 30
462.2999877929688
  0
POINT
  5
1A2
330
1F
100
AcDbEntity
  8
463_T
  6
Continuous
100
AcDbPoint
 10
519022.018
 20
4397750.009
 30
462.2999877929688
  0
POINT
  5
1A3
330
1F
100
AcDbEntity
  8
463_T
  6
Continuous
100
AcDbPoint
 10
519023.531
 20
4397749.912
 30
462.2999877929688
  0
POINT
  5
1A4
330
1F
100
AcDbEntity
  8
463_T
  6
Continuous
100
AcDbPoint
 10
519023.576
 20
4397749.785
 30
462.2999877929688
  0
POINT
  5
1A5
330
1F
100
AcDbEntity
  8
463_T
  6
Continuous
100
AcDbPoint
 10
519023.633
 20
4397748.999
 30
462.2999877929688
  0
POINT
  5
1A6
330
1F
100
AcDbEntity
  8
463_T
  6
Continuous
100
AcDbPoint
 10
519023.72
 20
4397748.439
 30
462.2999877929688
  0
POINT
  5
1A7
330
1F
100
AcDbEntity
  8
463_T
  6
Continuous
100
AcDbPoint
 10
519023.479
 20
4397748.219
 30
462.2999877929688
  0
POINT
  5
1A8
330
1F
100
AcDbEntity
  8
463_T
  6
Continuous
100
AcDbPoint
 10
519023.15
 20
4397748.13
 30
462.2999877929688
  0
POINT
  5
1A9
330
1F
100
AcDbEntity
  8
463_T
  6
Continuous
100
AcDbPoint
 10
519022.44
 20
4397748.011
 30
462.2999877929688
  0
POINT
  5
1AA
330
1F
100
AcDbEntity
  8
463_T
  6
Continuous
100
AcDbPoint
 10
519020.934
 20
4397747.922
 30
462.2999877929688
  0
POINT
  5
1AB
330
1F
100
AcDbEntity
  8
463_T
  6
Continuous
100
AcDbPoint
 10
519019.347
 20
4397747.795
 30
462.2999877929688
  0
POINT
  5
1AC
330
1F
100
AcDbEntity
  8
463_T
  6
Continuous
100
AcDbPoint
 10
519018.063
 20
4397748.579
 30
462.2999877929688
  0
POINT
  5
1AD
330
1F
100
AcDbEntity
  8
463_T
  6
Continuous
100
AcDbPoint
 10
519016.574
 20
4397745.526
 30
463.1000061035156
  0
POINT
  5
1AE
330
1F
100
AcDbEntity
  8
463_T
  6
Continuous
100
AcDbPoint
 10
519013.889
 20
4397746.345
 30
463.1000061035156
  0
POINT
  5
1AF
330
1F
100
AcDbEntity
  8
463_T
  6
Continuous
100
AcDbPoint
 10
519015.534
 20
4397749.197
 30
462.2999877929688
  0
POINT
  5
1B0
330
1F
100
AcDbEntity
  8
463_T
  6
Continuous
100
AcDbPoint
 10
519017.298
 20
4397752.688
 30
462.3999938964844
  0
POINT
  5
1B1
330
1F
100
AcDbEntity
  8
463_T
  6
Continuous
100
AcDbPoint
 10
519018.22
 20
4397754.141
 30
462.3999938964844
  0
POINT
  5
1B2
330
1F
100
AcDbEntity
  8
463_T
  6
Continuous
100
AcDbPoint
 10
519018.443
 20
4397755.911
 30
462.3999938964844
  0
POINT
  5
1B3
330
1F
100
AcDbEntity
  8
463_T
  6
Continuous
100
AcDbPoint
 10
519013.9740292082
 20
4397771.683199489
 30
463.6000061035156
  0
POINT
  5
1B4
330
1F
100
AcDbEntity
  8
463_T
  6
Continuous
100
AcDbPoint
 10
519004.338
 20
4397776.808
 30
462.7000122070312
  0
POINT
  5
1B5
330
1F
100
AcDbEntity
  8
463_T
  6
Continuous
100
AcDbPoint
 10
518990.9169
 20
4397795.1222
 30
462.8999938964844
  0
POINT
  5
1B6
330
1F
100
AcDbEntity
  8
463_T
  6
Continuous
100
AcDbPoint
 10
518988.3541471722
 20
4397796.607298283
 30
463.2000122070312
  0
POINT
  5
1B7
330
1F
100
AcDbEntity
  8
463_T
  6
Continuous
100
AcDbPoint
 10
518988.1022
 20
4397796.7533
 30
463.2000122070312
  0
POINT
  5
1B8
330
1F
100
AcDbEntity
  8
463_T
  6
Continuous
100
AcDbPoint
 10
518987.2397
 20
4397796.5366
 30
463.2000122070312
  0
POINT
  5
1B9
330
1F
100
AcDbEntity
  8
463_T
  6
Continuous
100
AcDbPoint
 10
518984.9549
 20
4397796.9127
 30
463.2000122070312
  0
POINT
  5
1BA
330
1F
100
AcDbEntity
  8
463_T
  6
Continuous
100
AcDbPoint
 10
518984.0078
 20
4397796.677
 30
463.2000122070312
  0
POINT
  5
1BB
330
1F
100
AcDbEntity
  8
463_T
  6
Continuous
100
AcDbPoint
 10
518983.0928
 20
4397795.1514
 30
463.5
  0
POINT
  5
1BC
330
1F
100
AcDbEntity
  8
463_T
  6
Continuous
100
AcDbPoint
 10
518981.4596
 20
4397791.322
 30
463.5
  0
POINT
  5
1BD
330
1F
100
AcDbEntity
  8
463_T
  6
Continuous
100
AcDbPoint
 10
518980.2204
 20
4397789.8612
 30
463.5
  0
POINT
  5
1BE
330
1F
100
AcDbEntity
  8
463_T
  6
Continuous
100
AcDbPoint
 10
518979.2558
 20
4397789.1455
 30
463.5
  0
POINT
  5
1BF
330
1F
100
AcDbEntity
  8
463_T
  6
Continuous
100
AcDbPoint
 10
518978.3732
 20
4397789.5035
 30
463.5
  0
POINT
  5
1C0
330
1F
100
AcDbEntity
  8
463_T
  6
Continuous
100
AcDbPoint
 10
518978.1635
 20
4397790.668
 30
463.5
  0
POINT
  5
1C1
330
1F
100
AcDbEntity
  8
463_T
  6
Continuous
100
AcDbPoint
 10
518980.435
 20
4397794.6096
 30
463.5
  0
POINT
  5
1C2
330
1F
100
AcDbEntity
  8
463_T
  6
Continuous
100
AcDbPoint
 10
518981.3761
 20
4397797.9334
 30
463.2000122070312
  0
POINT
  5
1C3
330
1F
100
AcDbEntity
  8
463_T
  6
Continuous
100
AcDbPoint
 10
518982.3683124752
 20
4397799.977488549
 30
463.2000122070312
  0
POINT
  5
1C4
330
1F
100
AcDbEntity
  8
463_T
  6
Continuous
100
AcDbPoint
 10
518980.4920727212
 20
4397800.848220517
 30
463.2000122070312
  0
POINT
  5
1C5
330
1F
100
AcDbEntity
  8
463_T
  6
Continuous
100
AcDbPoint
 10
518979.5074891514
 20
4397801.305149536
 30
463.2000122070312
  0
POINT
  5
1C6
330
1F
100
AcDbEntity
  8
463_T
  6
Continuous
100
AcDbPoint
 10
518974.6744
 20
4397801.3554
 30
463.3999938964844
  0
POINT
  5
1C7
330
1F
100
AcDbEntity
  8
463_T
  6
Continuous
100
AcDbPoint
 10
518972.9914497415
 20
4397801.970868854
 30
463.3999938964844
  0
POINT
  5
1C8
330
1F
100
AcDbEntity
  8
463_T
  6
Continuous
100
AcDbPoint
 10
518972.0974
 20
4397801.1741
 30
463.3999938964844
  0
POINT
  5
1C9
330
1F
100
AcDbEntity
  8
463_T
  6
Continuous
100
AcDbPoint
 10
518971.3849
 20
4397800.2807
 30
463.3999938964844
  0
POINT
  5
1CA
330
1F
100
AcDbEntity
  8
463_T
  6
Continuous
100
AcDbPoint
 10
518970.6286
 20
4397800.5801
 30
463.3999938964844
  0
POINT
  5
1CB
330
1F
100
AcDbEntity
  8
463_T
  6
Continuous
100
AcDbPoint
 10
518969.8596
 20
4397800.9633
 30
463.3999938964844
  0
POINT
  5
1CC
330
1F
100
AcDbEntity
  8
463_T
  6
Continuous
100
AcDbPoint
 10
518969.7773
 20
4397801.8543
 30
463.3999938964844
  0
POINT
  5
1CD
330
1F
100
AcDbEntity
  8
463_T
  6
Continuous
100
AcDbPoint
 10
518969.4966339754
 20
4397802.568327957
 30
463.3999938964844
  0
POINT
  5
1CE
330
1F
100
AcDbEntity
  8
463_T
  6
Continuous
100
AcDbPoint
 10
518969.0529
 20
4397802.5749
 30
463.3999938964844
  0
POINT
  5
1CF
330
1F
100
AcDbEntity
  8
463_T
  6
Continuous
100
AcDbPoint
 10
518967.1799
 20
4397804.2769
 30
463.3999938964844
  0
POINT
  5
1D0
330
1F
100
AcDbEntity
  8
463_T
  6
Continuous
100
AcDbPoint
 10
518964.2668
 20
4397805.2652
 30
463.5
  0
POINT
  5
1D1
330
1F
100
AcDbEntity
  8
463_T
  6
Continuous
100
AcDbPoint
 10
518963.4386
 20
4397803.9931
 30
463.5
  0
POINT
  5
1D2
330
1F
100
AcDbEntity
  8
463_T
  6
Continuous
100
AcDbPoint
 10
518960.5959
 20
4397795.0361
 30
463.7999877929688
  0
POINT
  5
1D3
330
1F
100
AcDbEntity
  8
463_T
  6
Continuous
100
AcDbPoint
 10
518959.992
 20
4397793.725
 30
463.7999877929688
  0
POINT
  5
1D4
330
1F
100
AcDbEntity
  8
463_T
  6
Continuous
100
AcDbPoint
 10
518958.9873
 20
4397791.8008
 30
463.7999877929688
  0
POINT
  5
1D5
330
1F
100
AcDbEntity
  8
463_T
  6
Continuous
100
AcDbPoint
 10
518958.1596
 20
4397791.9873
 30
463.7999877929688
  0
POINT
  5
1D6
330
1F
100
AcDbEntity
  8
463_T
  6
Continuous
100
AcDbPoint
 10
518957.4947
 20
4397792.0214
 30
463.7999877929688
  0
POINT
  5
1D7
330
1F
100
AcDbEntity
  8
463_T
  6
Continuous
100
AcDbPoint
 10
518956.9595
 20
4397792.6853
 30
463.7999877929688
  0
POINT
  5
1D8
330
1F
100
AcDbEntity
  8
463_T
  6
Continuous
100
AcDbPoint
 10
518959.9542
 20
4397803.6133
 30
463.5
  0
POINT
  5
1D9
330
1F
100
AcDbEntity
  8
463_T
  6
Continuous
100
AcDbPoint
 10
518961.4568
 20
4397805.2512
 30
463.5
  0
POINT
  5
1DA
330
1F
100
AcDbEntity
  8
463_T
  6
Continuous
100
AcDbPoint
 10
518961.6234
 20
4397805.8924
 30
463.5
  0
POINT
  5
1DB
330
1F
100
AcDbEntity
  8
463_T
  6
Continuous
100
AcDbPoint
 10
518961.4349
 20
4397806.1683
 30
463.5
  0
POINT
  5
1DC
330
1F
100
AcDbEntity
  8
463_T
  6
Continuous
100
AcDbPoint
 10
518956.7460027509
 20
4397807.079069789
 30
463.5
  0
POINT
  5
1DD
330
1F
100
AcDbEntity
  8
463_T
  6
Continuous
100
AcDbPoint
 10
518954.71806634
 20
4397807.580913124
 30
463.5
  0
POINT
  5
1DE
330
1F
100
AcDbEntity
  8
463_T
  6
Continuous
100
AcDbPoint
 10
518952.4646937111
 20
4397808.243499104
 30
463.5
  0
POINT
  5
1DF
330
1F
100
AcDbEntity
  8
463_T
  6
Continuous
100
AcDbPoint
 10
518949.9806757027
 20
4397809.403424779
 30
463.6000061035156
  0
POINT
  5
1E0
330
1F
100
AcDbEntity
  8
463_T
  6
Continuous
100
AcDbPoint
 10
518948.5260870486
 20
4397809.851766566
 30
463.6000061035156
  0
POINT
  5
1E1
330
1F
100
AcDbEntity
  8
463_T
  6
Continuous
100
AcDbPoint
 10
518945.4307883614
 20
4397810.742748707
 30
463.75
  0
LINE
  5
1E2
330
1F
100
AcDbEntity
  8
463_T
370
     0
100
AcDbLine
 10
518941.2194
 20
4397804.1319
 30
463.8999938964844
 11
518941.4096
 21
4397803.733
 31
463.8999938964844
  0
LINE
  5
1E3
330
1F
100
AcDbEntity
  8
463_T
370
     0
100
AcDbLine
 10
518941.4096
 20
4397803.733
 30
463.8999938964844
 11
518942.8927
 21
4397802.9982
 31
463.8999938964844
  0
LINE
  5
1E4
330
1F
100
AcDbEntity
  8
463_T
370
     0
100
AcDbLine
 10
518942.8927
 20
4397802.9982
 30
463.8999938964844
 11
518943.6185
 21
4397803.1075
 31
463.8999938964844
  0
LINE
  5
1E5
330
1F
100
AcDbEntity
  8
463_T
370
     0
100
AcDbLine
 10
518941.2194
 20
4397804.1319
 30
463.8999938964844
 11
518942.9297
 21
4397810.3773
 31
463.75
  0
LINE
  5
1E6
330
1F
100
AcDbEntity
  8
463_T
370
     0
100
AcDbLine
 10
518942.9297
 20
4397810.3773
 30
463.75
 11
518942.2743
 21
4397810.6331
 31
463.75
  0
LINE
  5
1E7
330
1F
100
AcDbEntity
  8
463_T
370
     0
100
AcDbLine
 10
518942.2743
 20
4397810.6331
 30
463.75
 11
518942.8899
 21
4397812.7494
 31
463.75
  0
LINE
  5
1E8
330
1F
100
AcDbEntity
  8
463_T
370
     0
100
AcDbLine
 10
518942.8899
 20
4397812.7494
 30
463.75
 11
518944.6977290878
 21
4397812.668126983
 31
463.75
  0
LINE
  5
1E9
330
1F
100
AcDbEntity
  8
463_T
370
     0
100
AcDbLine
 10
518945.4307883614
 20
4397810.742748707
 30
463.75
 11
518943.6185
 21
4397803.1075
 31
463.8999938964844
  0
LINE
  5
1EA
330
1F
100
AcDbEntity
  8
463_T
370
     0
100
AcDbLine
 10
518944.6977290878
 20
4397812.668126983
 30
463.75
 11
518945.6554854053
 21
4397813.052245376
 31
463.6000061035156
  0
LINE
  5
1EB
330
1F
100
AcDbEntity
  8
463_T
370
     0
100
AcDbLine
 10
518945.6554854053
 20
4397813.052245376
 30
463.6000061035156
 11
518946.233
 21
4397813.9189
 31
463.6000061035156
  0
LINE
  5
1EC
330
1F
100
AcDbEntity
  8
463_T
370
     0
100
AcDbLine
 10
518946.233
 20
4397813.9189
 30
463.6000061035156
 11
518947.2741297242
 21
4397814.138614605
 31
463.6000061035156
  0
LINE
  5
1ED
330
1F
100
AcDbEntity
  8
463_T
370
     0
100
AcDbLine
 10
518947.2741297242
 20
4397814.138614605
 30
463.6000061035156
 11
518948.0733653653
 21
4397814.379756915
 31
463.6000061035156
  0
LINE
  5
1EE
330
1F
100
AcDbEntity
  8
463_T
370
     0
100
AcDbLine
 10
518948.0733653653
 20
4397814.379756915
 30
463.6000061035156
 11
518950.0074767311
 21
4397813.499734662
 31
463.6000061035156
  0
LINE
  5
1EF
330
1F
100
AcDbEntity
  8
463_T
370
     0
100
AcDbLine
 10
518945.4307883614
 20
4397810.742748707
 30
463.75
 11
518948.5260870486
 21
4397809.851766566
 31
463.6000061035156
  0
LINE
  5
1F0
330
1F
100
AcDbEntity
  8
463_T
370
     0
100
AcDbLine
 10
518948.5260870486
 20
4397809.851766566
 30
463.6000061035156
 11
518949.9806757027
 21
4397809.403424779
 31
463.6000061035156
  0
POINT
  5
1F1
330
1F
100
AcDbEntity
  8
463_T
  6
Continuous
100
AcDbPoint
 10
518958.2137627163
 20
4397809.503134783
 30
463.5
  0
POINT
  5
1F2
330
1F
100
AcDbEntity
  8
463_T
  6
Continuous
100
AcDbPoint
 10
518963.244271549
 20
4397807.994049805
 30
463.5
  0
POINT
  5
1F3
330
1F
100
AcDbEntity
  8
463_T
  6
Continuous
100
AcDbPoint
 10
518963.1642
 20
4397808.8152
 30
463.5
  0
POINT
  5
1F4
330
1F
100
AcDbEntity
  8
463_T
  6
Continuous
100
AcDbPoint
 10
518962.4301
 20
4397810.2757
 30
463.5
  0
POINT
  5
1F5
330
1F
100
AcDbEntity
  8
463_T
  6
Continuous
100
AcDbPoint
 10
518961.7724
 20
4397810.8345
 30
463.5
  0
POINT
  5
1F6
330
1F
100
AcDbEntity
  8
463_T
  6
Continuous
100
AcDbPoint
 10
518960.3039
 20
4397810.9341
 30
463.5
  0
POINT
  5
1F7
330
1F
100
AcDbEntity
  8
463_T
  6
Continuous
100
AcDbPoint
 10
518958.1559
 20
4397812.1262
 30
463.5
  0
POINT
  5
1F8
330
1F
100
AcDbEntity
  8
463_T
  6
Continuous
100
AcDbPoint
 10
518956.7785075998
 20
4397812.107450981
 30
463.5
  0
POINT
  5
1F9
330
1F
100
AcDbEntity
  8
463_T
  6
Continuous
100
AcDbPoint
 10
518956.9523483969
 20
4397810.613689934
 30
463.5
  0
POINT
  5
1FA
330
1F
100
AcDbEntity
  8
463_T
  6
Continuous
100
AcDbPoint
 10
518961.5850207641
 20
4397808.47020893
 30
463.5
  0
LINE
  5
1FB
330
1F
100
AcDbEntity
  8
463_T
370
     0
100
AcDbLine
 10
518956.7785075998
 20
4397812.107450981
 30
463.5
 11
518958.1559
 21
4397812.1262
 31
463.5
  0
LINE
  5
1FC
330
1F
100
AcDbEntity
  8
463_T
370
     0
100
AcDbLine
 10
518958.1559
 20
4397812.1262
 30
463.5
 11
518960.3039
 21
4397810.9341
 31
463.5
  0
LINE
  5
1FD
330
1F
100
AcDbEntity
  8
463_T
370
     0
100
AcDbLine
 10
518960.3039
 20
4397810.9341
 30
463.5
 11
518961.7724
 21
4397810.8345
 31
463.5
  0
LINE
  5
1FE
330
1F
100
AcDbEntity
  8
463_T
370
     0
100
AcDbLine
 10
518961.7724
 20
4397810.8345
 30
463.5
 11
518962.4301
 21
4397810.2757
 31
463.5
  0
LINE
  5
1FF
330
1F
100
AcDbEntity
  8
463_T
370
     0
100
AcDbLine
 10
518962.4301
 20
4397810.2757
 30
463.5
 11
518963.1642
 21
4397808.8152
 31
463.5
  0
LINE
  5
200
330
1F
100
AcDbEntity
  8
463_T
370
     0
100
AcDbLine
 10
518963.1642
 20
4397808.8152
 30
463.5
 11
518963.244271549
 21
4397807.994049805
 31
463.5
  0
LINE
  5
201
330
1F
100
AcDbEntity
  8
463_T
370
     0
100
AcDbLine
 10
518963.244271549
 20
4397807.994049805
 30
463.5
 11
518961.5850207641
 21
4397808.47020893
 31
463.5
  0
LINE
  5
202
330
1F
100
AcDbEntity
  8
463_T
370
     0
100
AcDbLine
 10
518961.5850207641
 20
4397808.47020893
 30
463.5
 11
518958.2137627163
 21
4397809.503134783
 31
463.5
  0
LINE
  5
203
330
1F
100
AcDbEntity
  8
463_T
370
     0
100
AcDbLine
 10
518958.2137627163
 20
4397809.503134783
 30
463.5
 11
518956.9523483969
 21
4397810.613689934
 31
463.5
  0
LINE
  5
204
330
1F
100
AcDbEntity
  8
463_T
370
     0
100
AcDbLine
 10
518956.9523483969
 20
4397810.613689934
 30
463.5
 11
518956.7785075998
 21
4397812.107450981
 31
463.5
  0
LINE
  5
205
330
1F
100
AcDbEntity
  8
463_T
370
     0
100
AcDbLine
 10
518950.0074767311
 20
4397813.499734662
 30
463.6000061035156
 11
518952.4421122615
 21
4397813.959224186
 31
463.5
  0
LINE
  5
206
330
1F
100
AcDbEntity
  8
463_T
370
     0
100
AcDbLine
 10
518952.4421122615
 20
4397813.959224186
 30
463.5
 11
518954.38950265
 21
4397814.502636159
 31
463.5
  0
LINE
  5
207
330
1F
100
AcDbEntity
  8
463_T
370
     0
100
AcDbLine
 10
518954.38950265
 20
4397814.502636159
 30
463.5
 11
518956.0707976164
 21
4397814.629844662
 31
463.5
  0
LINE
  5
208
330
1F
100
AcDbEntity
  8
463_T
370
     0
100
AcDbLine
 10
518956.0707976164
 20
4397814.629844662
 30
463.5
 11
518957.7101
 21
4397815.1081
 31
463.5
  0
LINE
  5
209
330
1F
100
AcDbEntity
  8
463_T
370
     0
100
AcDbLine
 10
518957.7101
 20
4397815.1081
 30
463.5
 11
518959.9517
 21
4397814.0971
 31
463.5
  0
LINE
  5
20A
330
1F
100
AcDbEntity
  8
463_T
370
     0
100
AcDbLine
 10
518959.9517
 20
4397814.0971
 30
463.5
 11
518961.3502
 21
4397814.759
 31
463.5
  0
LINE
  5
20B
330
1F
100
AcDbEntity
  8
463_T
370
     0
100
AcDbLine
 10
518961.3502
 20
4397814.759
 30
463.5
 11
518961.8201
 21
4397814.6651
 31
463.5
  0
LINE
  5
20C
330
1F
100
AcDbEntity
  8
463_T
370
     0
100
AcDbLine
 10
518961.8201
 20
4397814.6651
 30
463.5
 11
518962.7518
 21
4397813.8592
 31
463.5
  0
LINE
  5
20D
330
1F
100
AcDbEntity
  8
463_T
370
     0
100
AcDbLine
 10
518962.7518
 20
4397813.8592
 30
463.5
 11
518962.9911
 21
4397813.7144
 31
463.5
  0
LINE
  5
20E
330
1F
100
AcDbEntity
  8
463_T
370
     0
100
AcDbLine
 10
518962.9911
 20
4397813.7144
 30
463.5
 11
518966.2498
 21
4397809.0424
 31
463.5
  0
LINE
  5
20F
330
1F
100
AcDbEntity
  8
463_T
370
     0
100
AcDbLine
 10
518952.4646937111
 20
4397808.243499104
 30
463.5
 11
518954.71806634
 21
4397807.580913124
 31
463.5
  0
LINE
  5
210
330
1F
100
AcDbEntity
  8
463_T
370
     0
100
AcDbLine
 10
518954.71806634
 20
4397807.580913124
 30
463.5
 11
518956.7460027509
 21
4397807.079069789
 31
463.5
  0
LINE
  5
211
330
1F
100
AcDbEntity
  8
463_T
370
     0
100
AcDbLine
 10
518956.7460027509
 20
4397807.079069789
 30
463.5
 11
518961.4349
 21
4397806.1683
 31
463.5
  0
LINE
  5
212
330
1F
100
AcDbEntity
  8
463_T
370
     0
100
AcDbLine
 10
518961.4349
 20
4397806.1683
 30
463.5
 11
518961.6234
 21
4397805.8924
 31
463.5
  0
LINE
  5
213
330
1F
100
AcDbEntity
  8
463_T
370
     0
100
AcDbLine
 10
518961.6234
 20
4397805.8924
 30
463.5
 11
518961.4568
 21
4397805.2512
 31
463.5
  0
LINE
  5
214
330
1F
100
AcDbEntity
  8
463_T
370
     0
100
AcDbLine
 10
518961.4568
 20
4397805.2512
 30
463.5
 11
518959.9542
 21
4397803.6133
 31
463.5
  0
LINE
  5
215
330
1F
100
AcDbEntity
  8
463_T
370
     0
100
AcDbLine
 10
518959.9542
 20
4397803.6133
 30
463.5
 11
518956.9595
 21
4397792.6853
 31
463.7999877929688
  0
LINE
  5
216
330
1F
100
AcDbEntity
  8
463_T
370
     0
100
AcDbLine
 10
518956.9595
 20
4397792.6853
 30
463.7999877929688
 11
518957.4947
 21
4397792.0214
 31
463.7999877929688
  0
LINE
  5
217
330
1F
100
AcDbEntity
  8
463_T
370
     0
100
AcDbLine
 10
518957.4947
 20
4397792.0214
 30
463.7999877929688
 11
518958.1596
 21
4397791.9873
 31
463.7999877929688
  0
LINE
  5
218
330
1F
100
AcDbEntity
  8
463_T
370
     0
100
AcDbLine
 10
518958.1596
 20
4397791.9873
 30
463.7999877929688
 11
518958.9873
 21
4397791.8008
 31
463.7999877929688
  0
LINE
  5
219
330
1F
100
AcDbEntity
  8
463_T
370
     0
100
AcDbLine
 10
518958.9873
 20
4397791.8008
 30
463.7999877929688
 11
518959.992
 21
4397793.725
 31
463.7999877929688
  0
LINE
  5
21A
330
1F
100
AcDbEntity
  8
463_T
370
     0
100
AcDbLine
 10
518959.992
 20
4397793.725
 30
463.7999877929688
 11
518960.5959
 21
4397795.0361
 31
463.7999877929688
  0
LINE
  5
21B
330
1F
100
AcDbEntity
  8
463_T
370
     0
100
AcDbLine
 10
518960.5959
 20
4397795.0361
 30
463.7999877929688
 11
518963.4386
 21
4397803.9931
 31
463.5
  0
LINE
  5
21C
330
1F
100
AcDbEntity
  8
463_T
370
     0
100
AcDbLine
 10
518963.4386
 20
4397803.9931
 30
463.5
 11
518964.2668
 21
4397805.2652
 31
463.5
  0
LINE
  5
21D
330
1F
100
AcDbEntity
  8
463_T
370
     0
100
AcDbLine
 10
518964.2668
 20
4397805.2652
 30
463.5
 11
518967.1799
 21
4397804.2769
 31
463.3999938964844
  0
LINE
  5
21E
330
1F
100
AcDbEntity
  8
463_T
370
     0
100
AcDbLine
 10
518967.1799
 20
4397804.2769
 30
463.3999938964844
 11
518969.0529
 21
4397802.5749
 31
463.3999938964844
  0
LINE
  5
21F
330
1F
100
AcDbEntity
  8
463_T
370
     0
100
AcDbLine
 10
518969.0529
 20
4397802.5749
 30
463.3999938964844
 11
518969.4966339754
 21
4397802.568327957
 31
463.3999938964844
  0
LINE
  5
220
330
1F
100
AcDbEntity
  8
463_T
370
     0
100
AcDbLine
 10
518969.4966339754
 20
4397802.568327957
 30
463.3999938964844
 11
518969.7773
 21
4397801.8543
 31
463.3999938964844
  0
LINE
  5
221
330
1F
100
AcDbEntity
  8
463_T
370
     0
100
AcDbLine
 10
518969.7773
 20
4397801.8543
 30
463.3999938964844
 11
518969.8596
 21
4397800.9633
 31
463.3999938964844
  0
LINE
  5
222
330
1F
100
AcDbEntity
  8
463_T
370
     0
100
AcDbLine
 10
518969.8596
 20
4397800.9633
 30
463.3999938964844
 11
518970.6286
 21
4397800.5801
 31
463.3999938964844
  0
LINE
  5
223
330
1F
100
AcDbEntity
  8
463_T
370
     0
100
AcDbLine
 10
518970.6286
 20
4397800.5801
 30
463.3999938964844
 11
518971.3849
 21
4397800.2807
 31
463.3999938964844
  0
LINE
  5
224
330
1F
100
AcDbEntity
  8
463_T
370
     0
100
AcDbLine
 10
518971.3849
 20
4397800.2807
 30
463.3999938964844
 11
518972.0974
 21
4397801.1741
 31
463.3999938964844
  0
LINE
  5
225
330
1F
100
AcDbEntity
  8
463_T
370
     0
100
AcDbLine
 10
518972.0974
 20
4397801.1741
 30
463.3999938964844
 11
518972.9914497415
 21
4397801.970868854
 31
463.3999938964844
  0
LINE
  5
226
330
1F
100
AcDbEntity
  8
463_T
370
     0
100
AcDbLine
 10
518972.9914497415
 20
4397801.970868854
 30
463.3999938964844
 11
518974.6744
 21
4397801.3554
 31
463.3999938964844
  0
LINE
  5
227
330
1F
100
AcDbEntity
  8
463_T
370
     0
100
AcDbLine
 10
518966.2498
 20
4397809.0424
 30
463.5
 11
518968.8066
 21
4397806.6292
 31
463.3999938964844
  0
LINE
  5
228
330
1F
100
AcDbEntity
  8
463_T
370
     0
100
AcDbLine
 10
518968.8066
 20
4397806.6292
 30
463.3999938964844
 11
518971.0949
 21
4397805.2985
 31
463.3999938964844
  0
LINE
  5
229
330
1F
100
AcDbEntity
  8
463_T
370
     0
100
AcDbLine
 10
518971.0949
 20
4397805.2985
 30
463.3999938964844
 11
518974.8203
 21
4397804.5502
 31
463.3999938964844
  0
LINE
  5
22A
330
1F
100
AcDbEntity
  8
463_T
370
     0
100
AcDbLine
 10
518974.8203
 20
4397804.5502
 30
463.3999938964844
 11
518978.1836
 21
4397803.7221
 31
463.2000122070312
  0
LINE
  5
22B
330
1F
100
AcDbEntity
  8
463_T
370
     0
100
AcDbLine
 10
518978.1836
 20
4397803.7221
 30
463.2000122070312
 11
518979.1837
 21
4397803.5247
 31
463.2000122070312
  0
LINE
  5
22C
330
1F
100
AcDbEntity
  8
463_T
370
     0
100
AcDbLine
 10
518979.1837
 20
4397803.5247
 30
463.2000122070312
 11
518983.1108
 21
4397802.3298
 31
463.2000122070312
  0
LINE
  5
22D
330
1F
100
AcDbEntity
  8
463_T
370
     0
100
AcDbLine
 10
518983.1108
 20
4397802.3298
 30
463.2000122070312
 11
518984.779
 21
4397801.7236
 31
463.2000122070312
  0
LINE
  5
22E
330
1F
100
AcDbEntity
  8
463_T
370
     0
100
AcDbLine
 10
518984.779
 20
4397801.7236
 30
463.2000122070312
 11
518988.841
 21
4397799.6074
 31
463.2000122070312
  0
LINE
  5
22F
330
1F
100
AcDbEntity
  8
463_T
370
     0
100
AcDbLine
 10
518974.6744
 20
4397801.3554
 30
463.3999938964844
 11
518979.5074891514
 21
4397801.305149536
 31
463.2000122070312
  0
LINE
  5
230
330
1F
100
AcDbEntity
  8
463_T
370
     0
100
AcDbLine
 10
518979.5074891514
 20
4397801.305149536
 30
463.2000122070312
 11
518980.4920727212
 21
4397800.848220517
 31
463.2000122070312
  0
LINE
  5
231
330
1F
100
AcDbEntity
  8
463_T
370
     0
100
AcDbLine
 10
518982.3683124752
 20
4397799.977488549
 30
463.2000122070312
 11
518981.3761
 21
4397797.9334
 31
463.2000122070312
  0
LINE
  5
232
330
1F
100
AcDbEntity
  8
463_T
370
     0
100
AcDbLine
 10
518981.3761
 20
4397797.9334
 30
463.2000122070312
 11
518980.435
 21
4397794.6096
 31
463.5
  0
LINE
  5
233
330
1F
100
AcDbEntity
  8
463_T
370
     0
100
AcDbLine
 10
518980.435
 20
4397794.6096
 30
463.5
 11
518978.1635
 21
4397790.668
 31
463.5
  0
LINE
  5
234
330
1F
100
AcDbEntity
  8
463_T
370
     0
100
AcDbLine
 10
518978.1635
 20
4397790.668
 30
463.5
 11
518978.3732
 21
4397789.5035
 31
463.5
  0
LINE
  5
235
330
1F
100
AcDbEntity
  8
463_T
370
     0
100
AcDbLine
 10
518978.3732
 20
4397789.5035
 30
463.5
 11
518979.2558
 21
4397789.1455
 31
463.5
  0
LINE
  5
236
330
1F
100
AcDbEntity
  8
463_T
370
     0
100
AcDbLine
 10
518979.2558
 20
4397789.1455
 30
463.5
 11
518980.2204
 21
4397789.8612
 31
463.5
  0
LINE
  5
237
330
1F
100
AcDbEntity
  8
463_T
370
     0
100
AcDbLine
 10
518980.2204
 20
4397789.8612
 30
463.5
 11
518981.4596
 21
4397791.322
 31
463.5
  0
LINE
  5
238
330
1F
100
AcDbEntity
  8
463_T
370
     0
100
AcDbLine
 10
518981.4596
 20
4397791.322
 30
463.5
 11
518983.0928
 21
4397795.1514
 31
463.5
  0
LINE
  5
239
330
1F
100
AcDbEntity
  8
463_T
370
     0
100
AcDbLine
 10
518983.0928
 20
4397795.1514
 30
463.5
 11
518984.0078
 21
4397796.677
 31
463.2000122070312
  0
LINE
  5
23A
330
1F
100
AcDbEntity
  8
463_T
370
     0
100
AcDbLine
 10
518984.0078
 20
4397796.677
 30
463.2000122070312
 11
518984.9549
 21
4397796.9127
 31
463.2000122070312
  0
LINE
  5
23B
330
1F
100
AcDbEntity
  8
463_T
370
     0
100
AcDbLine
 10
518984.9549
 20
4397796.9127
 30
463.2000122070312
 11
518987.2397
 21
4397796.5366
 31
463.2000122070312
  0
LINE
  5
23C
330
1F
100
AcDbEntity
  8
463_T
370
     0
100
AcDbLine
 10
518987.2397
 20
4397796.5366
 30
463.2000122070312
 11
518988.1022
 21
4397796.7533
 31
463.2000122070312
  0
LINE
  5
23D
330
1F
100
AcDbEntity
  8
463_T
370
     0
100
AcDbLine
 10
518988.1022
 20
4397796.7533
 30
463.2000122070312
 11
518988.3541471722
 21
4397796.607298283
 31
463.2000122070312
  0
LINE
  5
23E
330
1F
100
AcDbEntity
  8
463_T
370
     0
100
AcDbLine
 10
519013.889
 20
4397746.345
 30
463.1000061035156
 11
519015.534
 21
4397749.197
 31
462.2999877929688
  0
LINE
  5
23F
330
1F
100
AcDbEntity
  8
463_T
370
     0
100
AcDbLine
 10
519015.534
 20
4397749.197
 30
462.2999877929688
 11
519017.298
 21
4397752.688
 31
462.3999938964844
  0
LINE
  5
240
330
1F
100
AcDbEntity
  8
463_T
370
     0
100
AcDbLine
 10
519017.298
 20
4397752.688
 30
462.3999938964844
 11
519018.22
 21
4397754.141
 31
462.3999938964844
  0
LINE
  5
241
330
1F
100
AcDbEntity
  8
463_T
370
     0
100
AcDbLine
 10
519018.22
 20
4397754.141
 30
462.3999938964844
 11
519018.443
 21
4397755.911
 31
462.3999938964844
  0
LINE
  5
242
330
1F
100
AcDbEntity
  8
463_T
370
     0
100
AcDbLine
 10
519018.443
 20
4397755.911
 30
462.3999938964844
 11
519013.9740292082
 21
4397771.683199489
 31
463.6000061035156
  0
LINE
  5
243
330
1F
100
AcDbEntity
  8
463_T
370
     0
100
AcDbLine
 10
519013.9740292082
 20
4397771.683199489
 30
463.6000061035156
 11
519004.338
 21
4397776.808
 31
462.7000122070312
  0
LINE
  5
244
330
1F
100
AcDbEntity
  8
463_T
370
     0
100
AcDbLine
 10
519004.338
 20
4397776.808
 30
462.7000122070312
 11
518990.9169
 21
4397795.1222
 31
462.8999938964844
  0
LINE
  5
245
330
1F
100
AcDbEntity
  8
463_T
370
     0
100
AcDbLine
 10
518990.9169
 20
4397795.1222
 30
462.8999938964844
 11
518988.3541471722
 21
4397796.607298283
 31
463.2000122070312
  0
LINE
  5
246
330
1F
100
AcDbEntity
  8
463_T
370
     0
100
AcDbLine
 10
518988.841
 20
4397799.6074
 30
463.2000122070312
 11
518993.183
 21
4397797.2216
 31
462.8999938964844
  0
LINE
  5
247
330
1F
100
AcDbEntity
  8
463_T
370
     0
100
AcDbLine
 10
518993.183
 20
4397797.2216
 30
462.8999938964844
 11
519005.674
 21
4397779.649
 31
462.7000122070312
  0
LINE
  5
248
330
1F
100
AcDbEntity
  8
463_T
370
     0
100
AcDbLine
 10
519005.674
 20
4397779.649
 30
462.7000122070312
 11
519015.512
 21
4397774.23
 31
463.6000061035156
  0
LINE
  5
249
330
1F
100
AcDbEntity
  8
463_T
370
     0
100
AcDbLine
 10
519015.512
 20
4397774.23
 30
463.6000061035156
 11
519021.143
 21
4397756.991
 31
462.3999938964844
  0
LINE
  5
24A
330
1F
100
AcDbEntity
  8
463_T
370
     0
100
AcDbLine
 10
519021.143
 20
4397756.991
 30
462.3999938964844
 11
519020.982
 21
4397754.975
 31
462.3999938964844
  0
LINE
  5
24B
330
1F
100
AcDbEntity
  8
463_T
370
     0
100
AcDbLine
 10
519020.982
 20
4397754.975
 30
462.3999938964844
 11
519020.193
 21
4397752.832
 31
462.3999938964844
  0
LINE
  5
24C
330
1F
100
AcDbEntity
  8
463_T
370
     0
100
AcDbLine
 10
519020.193
 20
4397752.832
 30
462.3999938964844
 11
519019.236
 21
4397750.691
 31
462.2999877929688
  0
LINE
  5
24D
330
1F
100
AcDbEntity
  8
463_T
370
     0
100
AcDbLine
 10
519019.236
 20
4397750.691
 30
462.2999877929688
 11
519019.56
 21
4397750.566
 31
462.2999877929688
  0
LINE
  5
24E
330
1F
100
AcDbEntity
  8
463_T
370
     0
100
AcDbLine
 10
519019.56
 20
4397750.566
 30
462.2999877929688
 11
519020.042
 21
4397750.233
 31
462.2999877929688
  0
LINE
  5
24F
330
1F
100
AcDbEntity
  8
463_T
370
     0
100
AcDbLine
 10
519020.042
 20
4397750.233
 30
462.2999877929688
 11
519020.813
 21
4397750.11
 31
462.2999877929688
  0
LINE
  5
250
330
1F
100
AcDbEntity
  8
463_T
370
     0
100
AcDbLine
 10
519020.813
 20
4397750.11
 30
462.2999877929688
 11
519022.018
 21
4397750.009
 31
462.2999877929688
  0
LINE
  5
251
330
1F
100
AcDbEntity
  8
463_T
370
     0
100
AcDbLine
 10
519022.018
 20
4397750.009
 30
462.2999877929688
 11
519023.531
 21
4397749.912
 31
462.2999877929688
  0
LINE
  5
252
330
1F
100
AcDbEntity
  8
463_T
370
     0
100
AcDbLine
 10
519023.531
 20
4397749.912
 30
462.2999877929688
 11
519023.576
 21
4397749.785
 31
462.2999877929688
  0
LINE
  5
253
330
1F
100
AcDbEntity
  8
463_T
370
     0
100
AcDbLine
 10
519023.576
 20
4397749.785
 30
462.2999877929688
 11
519023.633
 21
4397748.999
 31
462.2999877929688
  0
LINE
  5
254
330
1F
100
AcDbEntity
  8
463_T
370
     0
100
AcDbLine
 10
519023.633
 20
4397748.999
 30
462.2999877929688
 11
519023.72
 21
4397748.439
 31
462.2999877929688
  0
LINE
  5
255
330
1F
100
AcDbEntity
  8
463_T
370
     0
100
AcDbLine
 10
519023.72
 20
4397748.439
 30
462.2999877929688
 11
519023.479
 21
4397748.219
 31
462.2999877929688
  0
LINE
  5
256
330
1F
100
AcDbEntity
  8
463_T
370
     0
100
AcDbLine
 10
519023.479
 20
4397748.219
 30
462.2999877929688
 11
519023.15
 21
4397748.13
 31
462.2999877929688
  0
LINE
  5
257
330
1F
100
AcDbEntity
  8
463_T
370
     0
100
AcDbLine
 10
519023.15
 20
4397748.13
 30
462.2999877929688
 11
519022.44
 21
4397748.011
 31
462.2999877929688
  0
LINE
  5
258
330
1F
100
AcDbEntity
  8
463_T
370
     0
100
AcDbLine
 10
519022.44
 20
4397748.011
 30
462.2999877929688
 11
519020.934
 21
4397747.922
 31
462.2999877929688
  0
LINE
  5
259
330
1F
100
AcDbEntity
  8
463_T
370
     0
100
AcDbLine
 10
519020.934
 20
4397747.922
 30
462.2999877929688
 11
519019.347
 21
4397747.795
 31
462.2999877929688
  0
LINE
  5
25A
330
1F
100
AcDbEntity
  8
463_T
370
     0
100
AcDbLine
 10
519019.347
 20
4397747.795
 30
462.2999877929688
 11
519018.063
 21
4397748.579
 31
462.2999877929688
  0
LINE
  5
25B
330
1F
100
AcDbEntity
  8
463_T
370
     0
100
AcDbLine
 10
519018.063
 20
4397748.579
 30
462.2999877929688
 11
519016.574
 21
4397745.526
 31
463.1000061035156
  0
POINT
  5
25C
330
1F
100
AcDbEntity
  8
506_T
  6
Continuous
100
AcDbPoint
 10
518942.7856587935
 20
4397641.510841954
 30
506.6000061035156
  0
POINT
  5
25D
330
1F
100
AcDbEntity
  8
506_T
  6
Continuous
100
AcDbPoint
 10
518944.983
 20
4397640.742
 30
506.6000061035156
  0
POINT
  5
25E
330
1F
100
AcDbEntity
  8
506_T
  6
Continuous
100
AcDbPoint
 10
518945.471
 20
4397640.751
 30
506.6000061035156
  0
POINT
  5
25F
330
1F
100
AcDbEntity
  8
506_T
  6
Continuous
100
AcDbPoint
 10
518946.552
 20
4397639.802
 30
506.6000061035156
  0
POINT
  5
260
330
1F
100
AcDbEntity
  8
506_T
  6
Continuous
100
AcDbPoint
 10
518951.405
 20
4397634.24
 30
506.6000061035156
  0
POINT
  5
261
330
1F
100
AcDbEntity
  8
506_T
  6
Continuous
100
AcDbPoint
 10
518953.155790152
 20
4397631.84021005
 30
506.6000061035156
  0
POINT
  5
262
330
1F
100
AcDbEntity
  8
506_T
  6
Continuous
100
AcDbPoint
 10
518950.1060715822
 20
4397625.18929087
 30
506.6000061035156
  0
POINT
  5
263
330
1F
100
AcDbEntity
  8
506_T
  6
Continuous
100
AcDbPoint
 10
518952.036139179
 20
4397624.231405471
 30
506.6000061035156
  0
POINT
  5
264
330
1F
100
AcDbEntity
  8
506_T
  6
Continuous
100
AcDbPoint
 10
518958.095
 20
4397636.875
 30
506.6000061035156
  0
POINT
  5
265
330
1F
100
AcDbEntity
  8
506_T
  6
Continuous
100
AcDbPoint
 10
518965.589
 20
4397650.58
 30
506.6000061035156
  0
POINT
  5
266
330
1F
100
AcDbEntity
  8
506_T
  6
Continuous
100
AcDbPoint
 10
518963.036
 20
4397652.321
 30
506.6000061035156
  0
POINT
  5
267
330
1F
100
AcDbEntity
  8
506_T
  6
Continuous
100
AcDbPoint
 10
518960.3180108772
 20
4397646.813361024
 30
506.6000061035156
  0
POINT
  5
268
330
1F
100
AcDbEntity
  8
506_T
  6
Continuous
100
AcDbPoint
 10
518955.955
 20
4397647.168
 30
506.6000061035156
  0
POINT
  5
269
330
1F
100
AcDbEntity
  8
506_T
  6
Continuous
100
AcDbPoint
 10
518960.674
 20
4397659.057
 30
507.1499938964844
  0
POINT
  5
26A
330
1F
100
AcDbEntity
  8
506_T
  6
Continuous
100
AcDbPoint
 10
518961.904
 20
4397663.272
 30
507.1499938964844
  0
POINT
  5
26B
330
1F
100
AcDbEntity
  8
506_T
  6
Continuous
100
AcDbPoint
 10
518961.075
 20
4397666.619
 30
507.5
  0
POINT
  5
26C
330
1F
100
AcDbEntity
  8
506_T
  6
Continuous
100
AcDbPoint
 10
518959.706
 20
4397670.11
 30
507.5
  0
POINT
  5
26D
330
1F
100
AcDbEntity
  8
506_T
  6
Continuous
100
AcDbPoint
 10
518955.964
 20
4397675.443
 30
507.75
  0
POINT
  5
26E
330
1F
100
AcDbEntity
  8
506_T
  6
Continuous
100
AcDbPoint
 10
518953.745
 20
4397678.07
 30
507.75
  0
POINT
  5
26F
330
1F
100
AcDbEntity
  8
506_T
  6
Continuous
100
AcDbPoint
 10
518952.599
 20
4397681.841
 30
507.8500061035156
  0
POINT
  5
270
330
1F
100
AcDbEntity
  8
506_T
  6
Continuous
100
AcDbPoint
 10
518952.186
 20
4397683.671
 30
507.8500061035156
  0
POINT
  5
271
330
1F
100
AcDbEntity
  8
506_T
  6
Continuous
100
AcDbPoint
 10
518953.063
 20
4397688.458
 30
507.8500061035156
  0
POINT
  5
272
330
1F
100
AcDbEntity
  8
506_T
  6
Continuous
100
AcDbPoint
 10
518957.21
 20
4397707.358
 30
508.0
  0
POINT
  5
273
330
1F
100
AcDbEntity
  8
506_T
  6
Continuous
100
AcDbPoint
 10
518956.32
 20
4397721.171
 30
508.1499938964844
  0
POINT
  5
274
330
1F
100
AcDbEntity
  8
506_T
  6
Continuous
100
AcDbPoint
 10
518966.535
 20
4397755.241
 30
508.3999938964844
  0
POINT
  5
275
330
1F
100
AcDbEntity
  8
506_T
  6
Continuous
100
AcDbPoint
 10
518966.631
 20
4397757.688
 30
508.3999938964844
  0
POINT
  5
276
330
1F
100
AcDbEntity
  8
506_T
  6
Continuous
100
AcDbPoint
 10
518968.476
 20
4397756.706
 30
508.3999938964844
  0
POINT
  5
277
330
1F
100
AcDbEntity
  8
506_T
  6
Continuous
100
AcDbPoint
 10
518969.7529450561
 20
4397753.979349928
 30
508.3999938964844
  0
POINT
  5
278
330
1F
100
AcDbEntity
  8
506_T
  6
Continuous
100
AcDbPoint
 10
518969.7520009644
 20
4397752.971059924
 30
508.3999938964844
  0
POINT
  5
279
330
1F
100
AcDbEntity
  8
506_T
  6
Continuous
100
AcDbPoint
 10
518971.4913516134
 20
4397752.815546421
 30
508.3999938964844
  0
POINT
  5
27A
330
1F
100
AcDbEntity
  8
506_T
  6
Continuous
100
AcDbPoint
 10
518972.7972805764
 20
4397754.504005221
 30
508.3999938964844
  0
POINT
  5
27B
330
1F
100
AcDbEntity
  8
506_T
  6
Continuous
100
AcDbPoint
 10
518971.62
 20
4397755.4
 30
508.3999938964844
  0
POINT
  5
27C
330
1F
100
AcDbEntity
  8
506_T
  6
Continuous
100
AcDbPoint
 10
518970.973
 20
4397757.524
 30
508.3999938964844
  0
POINT
  5
27D
330
1F
100
AcDbEntity
  8
506_T
  6
Continuous
100
AcDbPoint
 10
518966.987
 20
4397760.194
 30
508.3999938964844
  0
POINT
  5
27E
330
1F
100
AcDbEntity
  8
506_T
  6
Continuous
100
AcDbPoint
 10
518968.492
 20
4397767.76
 30
509.0
  0
POINT
  5
27F
330
1F
100
AcDbEntity
  8
506_T
  6
Continuous
100
AcDbPoint
 10
518976.633
 20
4397764.084
 30
509.0
  0
POINT
  5
280
330
1F
100
AcDbEntity
  8
506_T
  6
Continuous
100
AcDbPoint
 10
518977.219
 20
4397765.298
 30
509.0
  0
POINT
  5
281
330
1F
100
AcDbEntity
  8
506_T
  6
Continuous
100
AcDbPoint
 10
518973.456
 20
4397767.606
 30
509.0
  0
POINT
  5
282
330
1F
100
AcDbEntity
  8
506_T
  6
Continuous
100
AcDbPoint
 10
518968.854
 20
4397771.115
 30
509.0
  0
POINT
  5
283
330
1F
100
AcDbEntity
  8
506_T
  6
Continuous
100
AcDbPoint
 10
518972.428
 20
4397785.787
 30
509.3999938964844
  0
POINT
  5
284
330
1F
100
AcDbEntity
  8
506_T
  6
Continuous
100
AcDbPoint
 10
518970.07
 20
4397786.61
 30
509.3999938964844
  0
POINT
  5
285
330
1F
100
AcDbEntity
  8
506_T
  6
Continuous
100
AcDbPoint
 10
518966.367
 20
4397771.75
 30
509.0
  0
POINT
  5
286
330
1F
100
AcDbEntity
  8
506_T
  6
Continuous
100
AcDbPoint
 10
518966.173
 20
4397768.3
 30
509.0
  0
POINT
  5
287
330
1F
100
AcDbEntity
  8
506_T
  6
Continuous
100
AcDbPoint
 10
518965.074
 20
4397762.99
 30
508.3999938964844
  0
POINT
  5
288
330
1F
100
AcDbEntity
  8
506_T
  6
Continuous
100
AcDbPoint
 10
518964.583
 20
4397762.027
 30
508.3999938964844
  0
POINT
  5
289
330
1F
100
AcDbEntity
  8
506_T
  6
Continuous
100
AcDbPoint
 10
518962.974
 20
4397761.383
 30
508.3999938964844
  0
POINT
  5
28A
330
1F
100
AcDbEntity
  8
506_T
  6
Continuous
100
AcDbPoint
 10
518928.258
 20
4397780.616
 30
509.0
  0
POINT
  5
28B
330
1F
100
AcDbEntity
  8
506_T
  6
Continuous
100
AcDbPoint
 10
518927.668
 20
4397781.998
 30
509.0
  0
POINT
  5
28C
330
1F
100
AcDbEntity
  8
506_T
  6
Continuous
100
AcDbPoint
 10
518930.744
 20
4397786.92
 30
509.2000122070312
  0
POINT
  5
28D
330
1F
100
AcDbEntity
  8
506_T
  6
Continuous
100
AcDbPoint
 10
518939.397
 20
4397806.491
 30
510.0
  0
POINT
  5
28E
330
1F
100
AcDbEntity
  8
506_T
  6
Continuous
100
AcDbPoint
 10
518940.8572753977
 20
4397805.701572509
 30
510.0
  0
POINT
  5
28F
330
1F
100
AcDbEntity
  8
506_T
  6
Continuous
100
AcDbPoint
 10
518942.1942114492
 20
4397807.993722751
 30
510.0
  0
POINT
  5
290
330
1F
100
AcDbEntity
  8
506_T
  6
Continuous
100
AcDbPoint
 10
518939.172
 20
4397809.368
 30
510.0
  0
POINT
  5
291
330
1F
100
AcDbEntity
  8
506_T
  6
Continuous
100
AcDbPoint
 10
518938.574
 20
4397809.174
 30
510.0
  0
POINT
  5
292
330
1F
100
AcDbEntity
  8
506_T
  6
Continuous
100
AcDbPoint
 10
518928.214
 20
4397788.605
 30
509.2000122070312
  0
POINT
  5
293
330
1F
100
AcDbEntity
  8
506_T
  6
Continuous
100
AcDbPoint
 10
518925.1984543645
 20
4397790.231945178
 30
509.2999877929688
  0
POINT
  5
294
330
1F
100
AcDbEntity
  8
506_T
  6
Continuous
100
AcDbPoint
 10
518923.4485786137
 20
4397791.317794693
 30
509.2999877929688
  0
POINT
  5
295
330
1F
100
AcDbEntity
  8
506_T
  6
Continuous
100
AcDbPoint
 10
518911.3778183615
 20
4397799.261483216
 30
509.7999877929688
  0
POINT
  5
296
330
1F
100
AcDbEntity
  8
506_T
  6
Continuous
100
AcDbPoint
 10
518910.2151939601
 20
4397797.634122008
 30
509.7999877929688
  0
POINT
  5
297
330
1F
100
AcDbEntity
  8
506_T
  6
Continuous
100
AcDbPoint
 10
518927.158
 20
4397786.338
 30
509.2000122070312
  0
POINT
  5
298
330
1F
100
AcDbEntity
  8
506_T
  6
Continuous
100
AcDbPoint
 10
518925.571
 20
4397783.282
 30
509.0
  0
POINT
  5
299
330
1F
100
AcDbEntity
  8
506_T
  6
Continuous
100
AcDbPoint
 10
518904.312
 20
4397800.251
 30
510.0
  0
POINT
  5
29A
330
1F
100
AcDbEntity
  8
506_T
  6
Continuous
100
AcDbPoint
 10
518890.306
 20
4397805.05
 30
510.0
  0
POINT
  5
29B
330
1F
100
AcDbEntity
  8
506_T
  6
Continuous
100
AcDbPoint
 10
518886.378
 20
4397806.748
 30
510.25
  0
POINT
  5
29C
330
1F
100
AcDbEntity
  8
506_T
  6
Continuous
100
AcDbPoint
 10
518885.478
 20
4397806.005
 30
510.25
  0
POINT
  5
29D
330
1F
100
AcDbEntity
  8
506_T
  6
Continuous
100
AcDbPoint
 10
518888.081
 20
4397802.615
 30
510.0
  0
POINT
  5
29E
330
1F
100
AcDbEntity
  8
506_T
  6
Continuous
100
AcDbPoint
 10
518882.495
 20
4397792.757
 30
510.2860107421875
  0
POINT
  5
29F
330
1F
100
AcDbEntity
  8
506_T
  6
Continuous
100
AcDbPoint
 10
518883.656
 20
4397791.81
 30
510.2829895019531
  0
POINT
  5
2A0
330
1F
100
AcDbEntity
  8
506_T
  6
Continuous
100
AcDbPoint
 10
518890.071
 20
4397801.309
 30
510.0
  0
POINT
  5
2A1
330
1F
100
AcDbEntity
  8
506_T
  6
Continuous
100
AcDbPoint
 10
518904.312
 20
4397796.757
 30
510.0
  0
POINT
  5
2A2
330
1F
100
AcDbEntity
  8
506_T
  6
Continuous
100
AcDbPoint
 10
518924.5369182827
 20
4397780.858425778
 30
509.0
  0
POINT
  5
2A3
330
1F
100
AcDbEntity
  8
506_T
  6
Continuous
100
AcDbPoint
 10
518961.25
 20
4397759.292
 30
508.3999938964844
  0
POINT
  5
2A4
330
1F
100
AcDbEntity
  8
506_T
  6
Continuous
100
AcDbPoint
 10
518961.263
 20
4397758.1
 30
508.3999938964844
  0
POINT
  5
2A5
330
1F
100
AcDbEntity
  8
506_T
  6
Continuous
100
AcDbPoint
 10
518961.1
 20
4397758.057
 30
508.3999938964844
  0
POINT
  5
2A6
330
1F
100
AcDbEntity
  8
506_T
  6
Continuous
100
AcDbPoint
 10
518961.059
 20
4397757.777
 30
508.3999938964844
  0
POINT
  5
2A7
330
1F
100
AcDbEntity
  8
506_T
  6
Continuous
100
AcDbPoint
 10
518961.273
 20
4397756.949
 30
508.3999938964844
  0
POINT
  5
2A8
330
1F
100
AcDbEntity
  8
506_T
  6
Continuous
100
AcDbPoint
 10
518962.557
 20
4397757.187
 30
508.3999938964844
  0
POINT
  5
2A9
330
1F
100
AcDbEntity
  8
506_T
  6
Continuous
100
AcDbPoint
 10
518963.856
 20
4397757.098
 30
508.3999938964844
  0
POINT
  5
2AA
330
1F
100
AcDbEntity
  8
506_T
  6
Continuous
100
AcDbPoint
 10
518964.308
 20
4397755.507
 30
508.3999938964844
  0
POINT
  5
2AB
330
1F
100
AcDbEntity
  8
506_T
  6
Continuous
100
AcDbPoint
 10
518953.858
 20
4397722.949
 30
508.1499938964844
  0
POINT
  5
2AC
330
1F
100
AcDbEntity
  8
506_T
  6
Continuous
100
AcDbPoint
 10
518954.24
 20
4397708.285
 30
508.0
  0
POINT
  5
2AD
330
1F
100
AcDbEntity
  8
506_T
  6
Continuous
100
AcDbPoint
 10
518950.527
 20
4397687.491
 30
507.8500061035156
  0
POINT
  5
2AE
330
1F
100
AcDbEntity
  8
506_T
  6
Continuous
100
AcDbPoint
 10
518950.07
 20
4397684.558
 30
507.8500061035156
  0
POINT
  5
2AF
330
1F
100
AcDbEntity
  8
506_T
  6
Continuous
100
AcDbPoint
 10
518950.589
 20
4397680.896
 30
507.8500061035156
  0
POINT
  5
2B0
330
1F
100
AcDbEntity
  8
506_T
  6
Continuous
100
AcDbPoint
 10
518951.832
 20
4397675.358
 30
507.75
  0
POINT
  5
2B1
330
1F
100
AcDbEntity
  8
506_T
  6
Continuous
100
AcDbPoint
 10
518958.313
 20
4397667.525
 30
507.5
  0
POINT
  5
2B2
330
1F
100
AcDbEntity
  8
506_T
  6
Continuous
100
AcDbPoint
 10
518958.474
 20
4397660.214
 30
507.1499938964844
  0
POINT
  5
2B3
330
1F
100
AcDbEntity
  8
506_T
  6
Continuous
100
AcDbPoint
 10
518952.687
 20
4397646.248
 30
506.6000061035156
  0
POINT
  5
2B4
330
1F
100
AcDbEntity
  8
506_T
  6
Continuous
100
AcDbPoint
 10
518951.164
 20
4397645.538
 30
506.6000061035156
  0
POINT
  5
2B5
330
1F
100
AcDbEntity
  8
506_T
  6
Continuous
100
AcDbPoint
 10
518948.353
 20
4397644.866
 30
506.6000061035156
  0
POINT
  5
2B6
330
1F
100
AcDbEntity
  8
506_T
  6
Continuous
100
AcDbPoint
 10
518945.761
 20
4397644.4
 30
506.6000061035156
  0
POINT
  5
2B7
330
1F
100
AcDbEntity
  8
506_T
  6
Continuous
100
AcDbPoint
 10
518944.98035924
 20
4397644.291740648
 30
506.6000061035156
  0
POINT
  5
2B8
330
1F
100
AcDbEntity
  8
506_T
  6
Continuous
100
AcDbPoint
 10
518943.8477086913
 20
4397644.134664538
 30
506.6000061035156
  0
POINT
  5
2B9
330
1F
100
AcDbEntity
  8
506_T
  6
Continuous
100
AcDbPoint
 10
518538.9358
 20
4397582.1824
 30
502.6000061035156
  0
POINT
  5
2BA
330
1F
100
AcDbEntity
  8
506_T
  6
Continuous
100
AcDbPoint
 10
518527.4255
 20
4397577.4718
 30
502.6000061035156
  0
POINT
  5
2BB
330
1F
100
AcDbEntity
  8
506_T
  6
Continuous
100
AcDbPoint
 10
518609.7564167368
 20
4397593.691836721
 30
503.0
  0
POINT
  5
2BC
330
1F
100
AcDbEntity
  8
506_T
  6
Continuous
100
AcDbPoint
 10
518608.2846891019
 20
4397595.897604321
 30
503.0
  0
POINT
  5
2BD
330
1F
100
AcDbEntity
  8
506_T
  6
Continuous
100
AcDbPoint
 10
518882.1982757064
 20
4397633.137691067
 30
505.6900024414062
  0
POINT
  5
2BE
330
1F
100
AcDbEntity
  8
506_T
  6
Continuous
100
AcDbPoint
 10
518881.794865876
 20
4397635.529169054
 30
505.6900024414062
  0
LINE
  5
2BF
330
1F
100
AcDbEntity
  8
506_T
370
     0
100
AcDbLine
 10
518882.495
 20
4397792.757
 30
510.2860107421875
 11
518883.656
 21
4397791.81
 31
510.2829895019531
  0
LINE
  5
2C0
330
1F
100
AcDbEntity
  8
506_T
370
     0
100
AcDbLine
 10
518883.656
 20
4397791.81
 30
510.2829895019531
 11
518890.071
 21
4397801.309
 31
510.0
  0
LINE
  5
2C1
330
1F
100
AcDbEntity
  8
506_T
370
     0
100
AcDbLine
 10
518890.071
 20
4397801.309
 30
510.0
 11
518904.312
 21
4397796.757
 31
510.0
  0
LINE
  5
2C2
330
1F
100
AcDbEntity
  8
506_T
370
     0
100
AcDbLine
 10
518904.312
 20
4397800.251
 30
510.0
 11
518890.306
 21
4397805.05
 31
510.0
  0
LINE
  5
2C3
330
1F
100
AcDbEntity
  8
506_T
370
     0
100
AcDbLine
 10
518890.306
 20
4397805.05
 30
510.0
 11
518886.378
 21
4397806.748
 31
510.25
  0
LINE
  5
2C4
330
1F
100
AcDbEntity
  8
506_T
370
     0
100
AcDbLine
 10
518886.378
 20
4397806.748
 30
510.25
 11
518885.478
 21
4397806.005
 31
510.25
  0
LINE
  5
2C5
330
1F
100
AcDbEntity
  8
506_T
370
     0
100
AcDbLine
 10
518885.478
 20
4397806.005
 30
510.25
 11
518888.081
 21
4397802.615
 31
510.0
  0
LINE
  5
2C6
330
1F
100
AcDbEntity
  8
506_T
370
     0
100
AcDbLine
 10
518888.081
 20
4397802.615
 30
510.0
 11
518882.495
 21
4397792.757
 31
510.2860107421875
  0
LINE
  5
2C7
330
1F
100
AcDbEntity
  8
506_T
370
     0
100
AcDbLine
 10
518904.312
 20
4397800.251
 30
510.0
 11
518925.571
 21
4397783.282
 31
509.0
  0
LINE
  5
2C8
330
1F
100
AcDbEntity
  8
506_T
370
     0
100
AcDbLine
 10
518924.5369182827
 20
4397780.858425778
 30
509.0
 11
518904.312
 21
4397796.757
 31
510.0
  0
LINE
  5
2C9
330
1F
100
AcDbEntity
  8
506_T
370
     0
100
AcDbLine
 10
518925.571
 20
4397783.282
 30
509.0
 11
518927.158
 21
4397786.338
 31
509.2000122070312
  0
LINE
  5
2CA
330
1F
100
AcDbEntity
  8
506_T
370
     0
100
AcDbLine
 10
518927.158
 20
4397786.338
 30
509.2000122070312
 11
518910.2151939601
 21
4397797.634122008
 31
509.7999877929688
  0
LINE
  5
2CB
330
1F
100
AcDbEntity
  8
506_T
370
     0
100
AcDbLine
 10
518910.2151939601
 20
4397797.634122008
 30
509.7999877929688
 11
518911.3778183615
 21
4397799.261483216
 31
509.7999877929688
  0
LINE
  5
2CC
330
1F
100
AcDbEntity
  8
506_T
370
     0
100
AcDbLine
 10
518911.3778183615
 20
4397799.261483216
 30
509.7999877929688
 11
518923.4485786137
 21
4397791.317794693
 31
509.2999877929688
  0
LINE
  5
2CD
330
1F
100
AcDbEntity
  8
506_T
370
     0
100
AcDbLine
 10
518925.1984543645
 20
4397790.231945178
 30
509.2999877929688
 11
518928.214
 21
4397788.605
 31
509.2000122070312
  0
LINE
  5
2CE
330
1F
100
AcDbEntity
  8
506_T
370
     0
100
AcDbLine
 10
518930.744
 20
4397786.92
 30
509.2000122070312
 11
518927.668
 21
4397781.998
 31
509.0
  0
LINE
  5
2CF
330
1F
100
AcDbEntity
  8
506_T
370
     0
100
AcDbLine
 10
518927.668
 20
4397781.998
 30
509.0
 11
518928.258
 21
4397780.616
 31
509.0
  0
LINE
  5
2D0
330
1F
100
AcDbEntity
  8
506_T
370
     0
100
AcDbLine
 10
518924.5369182827
 20
4397780.858425778
 30
509.0
 11
518961.25
 21
4397759.292
 31
508.3999938964844
  0
LINE
  5
2D1
330
1F
100
AcDbEntity
  8
506_T
370
     0
100
AcDbLine
 10
518928.258
 20
4397780.616
 30
509.0
 11
518962.974
 21
4397761.383
 31
508.3999938964844
  0
LINE
  5
2D2
330
1F
100
AcDbEntity
  8
506_T
370
     0
100
AcDbLine
 10
518961.25
 20
4397759.292
 30
508.3999938964844
 11
518961.263
 21
4397758.1
 31
508.3999938964844
  0
LINE
  5
2D3
330
1F
100
AcDbEntity
  8
506_T
370
     0
100
AcDbLine
 10
518961.263
 20
4397758.1
 30
508.3999938964844
 11
518961.1
 21
4397758.057
 31
508.3999938964844
  0
LINE
  5
2D4
330
1F
100
AcDbEntity
  8
506_T
370
     0
100
AcDbLine
 10
518961.1
 20
4397758.057
 30
508.3999938964844
 11
518961.059
 21
4397757.777
 31
508.3999938964844
  0
LINE
  5
2D5
330
1F
100
AcDbEntity
  8
506_T
370
     0
100
AcDbLine
 10
518961.059
 20
4397757.777
 30
508.3999938964844
 11
518961.273
 21
4397756.949
 31
508.3999938964844
  0
LINE
  5
2D6
330
1F
100
AcDbEntity
  8
506_T
370
     0
100
AcDbLine
 10
518961.273
 20
4397756.949
 30
508.3999938964844
 11
518962.557
 21
4397757.187
 31
508.3999938964844
  0
LINE
  5
2D7
330
1F
100
AcDbEntity
  8
506_T
370
     0
100
AcDbLine
 10
518962.557
 20
4397757.187
 30
508.3999938964844
 11
518963.856
 21
4397757.098
 31
508.3999938964844
  0
LINE
  5
2D8
330
1F
100
AcDbEntity
  8
506_T
370
     0
100
AcDbLine
 10
518963.856
 20
4397757.098
 30
508.3999938964844
 11
518964.308
 21
4397755.507
 31
508.3999938964844
  0
LINE
  5
2D9
330
1F
100
AcDbEntity
  8
506_T
370
     0
100
AcDbLine
 10
518966.535
 20
4397755.241
 30
508.3999938964844
 11
518966.631
 21
4397757.688
 31
508.3999938964844
  0
LINE
  5
2DA
330
1F
100
AcDbEntity
  8
506_T
370
     0
100
AcDbLine
 10
518966.631
 20
4397757.688
 30
508.3999938964844
 11
518968.476
 21
4397756.706
 31
508.3999938964844
  0
LINE
  5
2DB
330
1F
100
AcDbEntity
  8
506_T
370
     0
100
AcDbLine
 10
518968.476
 20
4397756.706
 30
508.3999938964844
 11
518969.7529450561
 21
4397753.979349928
 31
508.3999938964844
  0
LINE
  5
2DC
330
1F
100
AcDbEntity
  8
506_T
370
     0
100
AcDbLine
 10
518969.7529450561
 20
4397753.979349928
 30
508.3999938964844
 11
518969.7520009644
 21
4397752.971059924
 31
508.3999938964844
  0
LINE
  5
2DD
330
1F
100
AcDbEntity
  8
506_T
370
     0
100
AcDbLine
 10
518969.7520009644
 20
4397752.971059924
 30
508.3999938964844
 11
518971.4913516134
 21
4397752.815546421
 31
508.3999938964844
  0
LINE
  5
2DE
330
1F
100
AcDbEntity
  8
506_T
370
     0
100
AcDbLine
 10
518971.4913516134
 20
4397752.815546421
 30
508.3999938964844
 11
518972.7972805764
 21
4397754.504005221
 31
508.3999938964844
  0
LINE
  5
2DF
330
1F
100
AcDbEntity
  8
506_T
370
     0
100
AcDbLine
 10
518972.7972805764
 20
4397754.504005221
 30
508.3999938964844
 11
518971.62
 21
4397755.4
 31
508.3999938964844
  0
LINE
  5
2E0
330
1F
100
AcDbEntity
  8
506_T
370
     0
100
AcDbLine
 10
518971.62
 20
4397755.4
 30
508.3999938964844
 11
518970.973
 21
4397757.524
 31
508.3999938964844
  0
LINE
  5
2E1
330
1F
100
AcDbEntity
  8
506_T
370
     0
100
AcDbLine
 10
518970.973
 20
4397757.524
 30
508.3999938964844
 11
518966.987
 21
4397760.194
 31
508.3999938964844
  0
LINE
  5
2E2
330
1F
100
AcDbEntity
  8
506_T
370
     0
100
AcDbLine
 10
518962.974
 20
4397761.383
 30
508.3999938964844
 11
518964.583
 21
4397762.027
 31
508.3999938964844
  0
LINE
  5
2E3
330
1F
100
AcDbEntity
  8
506_T
370
     0
100
AcDbLine
 10
518964.583
 20
4397762.027
 30
508.3999938964844
 11
518965.074
 21
4397762.99
 31
508.3999938964844
  0
LINE
  5
2E4
330
1F
100
AcDbEntity
  8
506_T
370
     0
100
AcDbLine
 10
518965.074
 20
4397762.99
 30
508.3999938964844
 11
518966.173
 21
4397768.3
 31
509.0
  0
LINE
  5
2E5
330
1F
100
AcDbEntity
  8
506_T
370
     0
100
AcDbLine
 10
518966.987
 20
4397760.194
 30
508.3999938964844
 11
518968.492
 21
4397767.76
 31
509.0
  0
LINE
  5
2E6
330
1F
100
AcDbEntity
  8
506_T
370
     0
100
AcDbLine
 10
518968.492
 20
4397767.76
 30
509.0
 11
518976.633
 21
4397764.084
 31
509.0
  0
LINE
  5
2E7
330
1F
100
AcDbEntity
  8
506_T
370
     0
100
AcDbLine
 10
518976.633
 20
4397764.084
 30
509.0
 11
518977.219
 21
4397765.298
 31
509.0
  0
LINE
  5
2E8
330
1F
100
AcDbEntity
  8
506_T
370
     0
100
AcDbLine
 10
518977.219
 20
4397765.298
 30
509.0
 11
518973.456
 21
4397767.606
 31
509.0
  0
LINE
  5
2E9
330
1F
100
AcDbEntity
  8
506_T
370
     0
100
AcDbLine
 10
518973.456
 20
4397767.606
 30
509.0
 11
518968.854
 21
4397771.115
 31
509.0
  0
LINE
  5
2EA
330
1F
100
AcDbEntity
  8
506_T
370
     0
100
AcDbLine
 10
518966.367
 20
4397771.75
 30
509.0
 11
518970.07
 21
4397786.61
 31
509.3999938964844
  0
LINE
  5
2EB
330
1F
100
AcDbEntity
  8
506_T
370
     0
100
AcDbLine
 10
518970.07
 20
4397786.61
 30
509.3999938964844
 11
518972.428
 21
4397785.787
 31
509.3999938964844
  0
LINE
  5
2EC
330
1F
100
AcDbEntity
  8
506_T
370
     0
100
AcDbLine
 10
518972.428
 20
4397785.787
 30
509.3999938964844
 11
518968.854
 21
4397771.115
 31
509.0
  0
POINT
  5
2ED
330
1F
100
AcDbEntity
  8
506_T
  6
Continuous
100
AcDbPoint
 10
518954.3405732902
 20
4397634.424021217
 30
506.6000061035156
  0
POINT
  5
2EE
330
1F
100
AcDbEntity
  8
506_T
  6
Continuous
100
AcDbPoint
 10
518956.133
 20
4397638.333
 30
506.6000061035156
  0
POINT
  5
2EF
330
1F
100
AcDbEntity
  8
506_T
  6
Continuous
100
AcDbPoint
 10
518958.5171609972
 20
4397643.16418123
 30
506.6000061035156
  0
POINT
  5
2F0
330
1F
100
AcDbEntity
  8
506_T
  6
Continuous
100
AcDbPoint
 10
518955.697
 20
4397643.3
 30
506.6000061035156
  0
POINT
  5
2F1
330
1F
100
AcDbEntity
  8
506_T
  6
Continuous
100
AcDbPoint
 10
518948.68530612
 20
4397642.326170736
 30
506.6000061035156
  0
POINT
  5
2F2
330
1F
100
AcDbEntity
  8
506_T
  6
Continuous
100
AcDbPoint
 10
518949.406
 20
4397640.669
 30
506.6000061035156
  0
POINT
  5
2F3
330
1F
100
AcDbEntity
  8
506_T
  6
Continuous
100
AcDbPoint
 10
518530.2289665961
 20
4397572.262750548
 30
502.6000061035156
  0
POINT
  5
2F4
330
1F
100
AcDbEntity
  8
506_T
  6
Continuous
100
AcDbPoint
 10
518541.2004693101
 20
4397578.167521015
 30
502.6000061035156
  0
LINE
  5
2F5
330
1F
100
AcDbEntity
  8
506_T
370
     0
100
AcDbLine
 10
518527.4255
 20
4397577.4718
 30
502.6000061035156
 11
518538.9358
 21
4397582.1824
 31
502.6000061035156
  0
LINE
  5
2F6
330
1F
100
AcDbEntity
  8
506_T
370
     0
100
AcDbLine
 10
518538.9358
 20
4397582.1824
 30
502.6000061035156
 11
518541.2004693101
 21
4397578.167521015
 31
502.6000061035156
  0
LINE
  5
2F7
330
1F
100
AcDbEntity
  8
506_T
370
     0
100
AcDbLine
 10
518541.2004693101
 20
4397578.167521015
 30
502.6000061035156
 11
518530.2289665961
 21
4397572.262750548
 31
502.6000061035156
  0
LINE
  5
2F8
330
1F
100
AcDbEntity
  8
506_T
370
     0
100
AcDbLine
 10
518530.2289665961
 20
4397572.262750548
 30
502.6000061035156
 11
518527.4255
 21
4397577.4718
 31
502.6000061035156
  0
LINE
  5
2F9
330
1F
100
AcDbEntity
  8
506_T
370
     0
100
AcDbLine
 10
518952.687
 20
4397646.248
 30
506.6000061035156
 11
518958.474
 21
4397660.214
 31
507.1499938964844
  0
LINE
  5
2FA
330
1F
100
AcDbEntity
  8
506_T
370
     0
100
AcDbLine
 10
518955.955
 20
4397647.168
 30
506.6000061035156
 11
518960.674
 21
4397659.057
 31
507.1499938964844
  0
LINE
  5
2FB
330
1F
100
AcDbEntity
  8
506_T
370
     0
100
AcDbLine
 10
518960.674
 20
4397659.057
 30
507.1499938964844
 11
518961.904
 21
4397663.272
 31
507.1499938964844
  0
LINE
  5
2FC
330
1F
100
AcDbEntity
  8
506_T
370
     0
100
AcDbLine
 10
518958.474
 20
4397660.214
 30
507.1499938964844
 11
518958.313
 21
4397667.525
 31
507.5
  0
LINE
  5
2FD
330
1F
100
AcDbEntity
  8
506_T
370
     0
100
AcDbLine
 10
518961.904
 20
4397663.272
 30
507.1499938964844
 11
518961.075
 21
4397666.619
 31
507.5
  0
LINE
  5
2FE
330
1F
100
AcDbEntity
  8
506_T
370
     0
100
AcDbLine
 10
518961.075
 20
4397666.619
 30
507.5
 11
518959.706
 21
4397670.11
 31
507.5
  0
LINE
  5
2FF
330
1F
100
AcDbEntity
  8
506_T
370
     0
100
AcDbLine
 10
518958.313
 20
4397667.525
 30
507.5
 11
518951.832
 21
4397675.358
 31
507.75
  0
LINE
  5
300
330
1F
100
AcDbEntity
  8
506_T
370
     0
100
AcDbLine
 10
518959.706
 20
4397670.11
 30
507.5
 11
518955.964
 21
4397675.443
 31
507.75
  0
LINE
  5
301
330
1F
100
AcDbEntity
  8
506_T
370
     0
100
AcDbLine
 10
518955.964
 20
4397675.443
 30
507.75
 11
518953.745
 21
4397678.07
 31
507.75
  0
LINE
  5
302
330
1F
100
AcDbEntity
  8
506_T
370
     0
100
AcDbLine
 10
518951.832
 20
4397675.358
 30
507.75
 11
518950.589
 21
4397680.896
 31
507.8500061035156
  0
LINE
  5
303
330
1F
100
AcDbEntity
  8
506_T
370
     0
100
AcDbLine
 10
518950.589
 20
4397680.896
 30
507.8500061035156
 11
518950.07
 21
4397684.558
 31
507.8500061035156
  0
LINE
  5
304
330
1F
100
AcDbEntity
  8
506_T
370
     0
100
AcDbLine
 10
518950.07
 20
4397684.558
 30
507.8500061035156
 11
518950.527
 21
4397687.491
 31
507.8500061035156
  0
LINE
  5
305
330
1F
100
AcDbEntity
  8
506_T
370
     0
100
AcDbLine
 10
518953.745
 20
4397678.07
 30
507.75
 11
518952.599
 21
4397681.841
 31
507.8500061035156
  0
LINE
  5
306
330
1F
100
AcDbEntity
  8
506_T
370
     0
100
AcDbLine
 10
518952.599
 20
4397681.841
 30
507.8500061035156
 11
518952.186
 21
4397683.671
 31
507.8500061035156
  0
LINE
  5
307
330
1F
100
AcDbEntity
  8
506_T
370
     0
100
AcDbLine
 10
518952.186
 20
4397683.671
 30
507.8500061035156
 11
518953.063
 21
4397688.458
 31
507.8500061035156
  0
LINE
  5
308
330
1F
100
AcDbEntity
  8
506_T
370
     0
100
AcDbLine
 10
518950.527
 20
4397687.491
 30
507.8500061035156
 11
518954.24
 21
4397708.285
 31
508.0
  0
LINE
  5
309
330
1F
100
AcDbEntity
  8
506_T
370
     0
100
AcDbLine
 10
518953.063
 20
4397688.458
 30
507.8500061035156
 11
518957.21
 21
4397707.358
 31
508.0
  0
LINE
  5
30A
330
1F
100
AcDbEntity
  8
506_T
370
     0
100
AcDbLine
 10
518954.24
 20
4397708.285
 30
508.0
 11
518953.858
 21
4397722.949
 31
508.1499938964844
  0
LINE
  5
30B
330
1F
100
AcDbEntity
  8
506_T
370
     0
100
AcDbLine
 10
518957.21
 20
4397707.358
 30
508.0
 11
518956.32
 21
4397721.171
 31
508.1499938964844
  0
LINE
  5
30C
330
1F
100
AcDbEntity
  8
506_T
370
     0
100
AcDbLine
 10
518953.858
 20
4397722.949
 30
508.1499938964844
 11
518964.308
 21
4397755.507
 31
508.3999938964844
  0
LINE
  5
30D
330
1F
100
AcDbEntity
  8
506_T
370
     0
100
AcDbLine
 10
518956.32
 20
4397721.171
 30
508.1499938964844
 11
518966.535
 21
4397755.241
 31
508.3999938964844
  0
LINE
  5
30E
330
1F
100
AcDbEntity
  8
506_T
370
     0
100
AcDbLine
 10
518608.2846891019
 20
4397595.897604321
 30
503.0
 11
518881.794865876
 21
4397635.529169054
 31
505.6900024414062
  0
LINE
  5
30F
330
1F
100
AcDbEntity
  8
506_T
370
     0
100
AcDbLine
 10
518609.7564167368
 20
4397593.691836721
 30
503.0
 11
518882.1982757064
 21
4397633.137691067
 31
505.6900024414062
  0
LINE
  5
310
330
1F
100
AcDbEntity
  8
506_T
370
     0
100
AcDbLine
 10
518881.794865876
 20
4397635.529169054
 30
505.6900024414062
 11
518943.8477086913
 21
4397644.134664538
 31
506.6000061035156
  0
LINE
  5
311
330
1F
100
AcDbEntity
  8
506_T
370
     0
100
AcDbLine
 10
518882.1982757064
 20
4397633.137691067
 30
505.6900024414062
 11
518942.7856587935
 21
4397641.510841954
 31
506.6000061035156
  0
LINE
  5
312
330
1F
100
AcDbEntity
  8
506_T
370
     0
100
AcDbLine
 10
518946.552
 20
4397639.802
 30
506.6000061035156
 11
518951.405
 21
4397634.24
 31
506.6000061035156
  0
LINE
  5
313
330
1F
100
AcDbEntity
  8
506_T
370
     0
100
AcDbLine
 10
518950.1060715822
 20
4397625.18929087
 30
506.6000061035156
 11
518952.036139179
 21
4397624.231405471
 31
506.6000061035156
  0
LINE
  5
314
330
1F
100
AcDbEntity
  8
506_T
370
     0
100
AcDbLine
 10
518958.095
 20
4397636.875
 30
506.6000061035156
 11
518965.589
 21
4397650.58
 31
506.6000061035156
  0
LINE
  5
315
330
1F
100
AcDbEntity
  8
506_T
370
     0
100
AcDbLine
 10
518963.036
 20
4397652.321
 30
506.6000061035156
 11
518960.3180108772
 21
4397646.813361024
 31
506.6000061035156
  0
LINE
  5
316
330
1F
100
AcDbEntity
  8
506_T
370
     0
100
AcDbLine
 10
518943.8477086913
 20
4397644.134664538
 30
506.6000061035156
 11
518944.98035924
 21
4397644.291740648
 31
506.6000061035156
  0
LINE
  5
317
330
1F
100
AcDbEntity
  8
506_T
370
     0
100
AcDbLine
 10
518944.98035924
 20
4397644.291740648
 30
506.6000061035156
 11
518945.761
 21
4397644.4
 31
506.6000061035156
  0
LINE
  5
318
330
1F
100
AcDbEntity
  8
506_T
370
     0
100
AcDbLine
 10
518945.761
 20
4397644.4
 30
506.6000061035156
 11
518948.353
 21
4397644.866
 31
506.6000061035156
  0
LINE
  5
319
330
1F
100
AcDbEntity
  8
506_T
370
     0
100
AcDbLine
 10
518948.353
 20
4397644.866
 30
506.6000061035156
 11
518951.164
 21
4397645.538
 31
506.6000061035156
  0
LINE
  5
31A
330
1F
100
AcDbEntity
  8
506_T
370
     0
100
AcDbLine
 10
518951.164
 20
4397645.538
 30
506.6000061035156
 11
518952.687
 21
4397646.248
 31
506.6000061035156
  0
LINE
  5
31B
330
1F
100
AcDbEntity
  8
506_T
370
     0
100
AcDbLine
 10
518948.68530612
 20
4397642.326170736
 30
506.6000061035156
 11
518955.697
 21
4397643.3
 31
506.6000061035156
  0
LINE
  5
31C
330
1F
100
AcDbEntity
  8
506_T
370
     0
100
AcDbLine
 10
518955.697
 20
4397643.3
 30
506.6000061035156
 11
518958.5171609972
 21
4397643.16418123
 31
506.6000061035156
  0
LINE
  5
31D
330
1F
100
AcDbEntity
  8
506_T
370
     0
100
AcDbLine
 10
518958.5171609972
 20
4397643.16418123
 30
506.6000061035156
 11
518956.133
 21
4397638.333
 31
506.6000061035156
  0
LINE
  5
31E
330
1F
100
AcDbEntity
  8
506_T
370
     0
100
AcDbLine
 10
518956.133
 20
4397638.333
 30
506.6000061035156
 11
518954.3405732902
 21
4397634.424021217
 31
506.6000061035156
  0
LINE
  5
31F
330
1F
100
AcDbEntity
  8
506_T
370
     0
100
AcDbLine
 10
518954.3405732902
 20
4397634.424021217
 30
506.6000061035156
 11
518949.406
 21
4397640.669
 31
506.6000061035156
  0
LINE
  5
320
330
1F
100
AcDbEntity
  8
506_T
370
     0
100
AcDbLine
 10
518949.406
 20
4397640.669
 30
506.6000061035156
 11
518948.68530612
 21
4397642.326170736
 31
506.6000061035156
  0
LINE
  5
321
330
1F
100
AcDbEntity
  8
506_T
370
     0
100
AcDbLine
 10
518951.405
 20
4397634.24
 30
506.6000061035156
 11
518953.155790152
 21
4397631.84021005
 31
506.6000061035156
  0
LINE
  5
322
330
1F
100
AcDbEntity
  8
506_T
370
     0
100
AcDbLine
 10
518953.155790152
 20
4397631.84021005
 30
506.6000061035156
 11
518950.1060715822
 21
4397625.18929087
 31
506.6000061035156
  0
LINE
  5
323
330
1F
100
AcDbEntity
  8
506_T
370
     0
100
AcDbLine
 10
518952.036139179
 20
4397624.231405471
 30
506.6000061035156
 11
518958.095
 21
4397636.875
 31
506.6000061035156
  0
LINE
  5
324
330
1F
100
AcDbEntity
  8
506_T
370
     0
100
AcDbLine
 10
518960.3180108772
 20
4397646.813361024
 30
506.6000061035156
 11
518955.955
 21
4397647.168
 31
506.6000061035156
  0
LINE
  5
325
330
1F
100
AcDbEntity
  8
506_T
370
     0
100
AcDbLine
 10
518942.7856587935
 20
4397641.510841954
 30
506.6000061035156
 11
518944.983
 21
4397640.742
 31
506.6000061035156
  0
LINE
  5
326
330
1F
100
AcDbEntity
  8
506_T
370
     0
100
AcDbLine
 10
518944.983
 20
4397640.742
 30
506.6000061035156
 11
518945.471
 21
4397640.751
 31
506.6000061035156
  0
LINE
  5
327
330
1F
100
AcDbEntity
  8
506_T
370
     0
100
AcDbLine
 10
518945.471
 20
4397640.751
 30
506.6000061035156
 11
518946.552
 21
4397639.802
 31
506.6000061035156
  0
LINE
  5
328
330
1F
100
AcDbEntity
  8
506_T
370
     0
100
AcDbLine
 10
518928.214
 20
4397788.605
 30
509.2000122070312
 11
518938.574
 21
4397809.174
 31
510.0
  0
LINE
  5
329
330
1F
100
AcDbEntity
  8
506_T
370
     0
100
AcDbLine
 10
518938.574
 20
4397809.174
 30
510.0
 11
518939.172
 21
4397809.368
 31
510.0
  0
LINE
  5
32A
330
1F
100
AcDbEntity
  8
506_T
370
     0
100
AcDbLine
 10
518939.172
 20
4397809.368
 30
510.0
 11
518942.1942114492
 21
4397807.993722751
 31
510.0
  0
LINE
  5
32B
330
1F
100
AcDbEntity
  8
506_T
370
     0
100
AcDbLine
 10
518942.1942114492
 20
4397807.993722751
 30
510.0
 11
518940.8572753977
 21
4397805.701572509
 31
510.0
  0
LINE
  5
32C
330
1F
100
AcDbEntity
  8
506_T
370
     0
100
AcDbLine
 10
518940.8572753977
 20
4397805.701572509
 30
510.0
 11
518939.397
 21
4397806.491
 31
510.0
  0
LINE
  5
32D
330
1F
100
AcDbEntity
  8
506_T
370
     0
100
AcDbLine
 10
518939.397
 20
4397806.491
 30
510.0
 11
518930.744
 21
4397786.92
 31
509.2000122070312
  0
POINT
  5
32E
330
1F
100
AcDbEntity
  8
DESANDRE_T
  6
Continuous
100
AcDbPoint
 10
518978.6185435444
 20
4397678.760068841
 30
494.3999938964844
  0
POINT
  5
32F
330
1F
100
AcDbEntity
  8
DESANDRE_T
  6
Continuous
100
AcDbPoint
 10
518976.8174517166
 20
4397679.769143213
 30
494.3999938964844
  0
POINT
  5
330
330
1F
100
AcDbEntity
  8
DESANDRE_T
  6
Continuous
100
AcDbPoint
 10
518977.5506128179
 20
4397681.077758817
 30
494.3999938964844
  0
POINT
  5
331
330
1F
100
AcDbEntity
  8
DESANDRE_T
  6
Continuous
100
AcDbPoint
 10
518979.3755805507
 20
4397680.055307802
 30
494.3999938964844
  0
POINT
  5
332
330
1F
100
AcDbEntity
  8
DESANDRE_T
  6
Continuous
100
AcDbPoint
 10
518993.2030736604
 20
4397706.604304058
 30
482.7000122070312
  0
POINT
  5
333
330
1F
100
AcDbEntity
  8
DESANDRE_T
  6
Continuous
100
AcDbPoint
 10
518991.4103226945
 20
4397707.991401657
 30
482.7000122070312
  0
POINT
  5
334
330
1F
100
AcDbEntity
  8
DESANDRE_T
  6
Continuous
100
AcDbPoint
 10
518992.3282354553
 20
4397709.177755804
 30
482.7000122070312
  0
POINT
  5
335
330
1F
100
AcDbEntity
  8
DESANDRE_T
  6
Continuous
100
AcDbPoint
 10
518993.9080512683
 20
4397707.955411619
 30
482.7000122070312
  0
LINE
  5
336
330
1F
100
AcDbEntity
  8
DESANDRE_T
370
     0
100
AcDbLine
 10
518963.036
 20
4397652.321
 30
506.6000061035156
 11
518978.6185435444
 21
4397678.760068841
 31
494.3999938964844
  0
LINE
  5
337
330
1F
100
AcDbEntity
  8
DESANDRE_T
370
     0
100
AcDbLine
 10
518978.6185435444
 20
4397678.760068841
 30
494.3999938964844
 11
518976.8174517166
 21
4397679.769143213
 31
494.3999938964844
  0
LINE
  5
338
330
1F
100
AcDbEntity
  8
DESANDRE_T
370
     0
100
AcDbLine
 10
518976.8174517166
 20
4397679.769143213
 30
494.3999938964844
 11
518977.5506128179
 21
4397681.077758817
 31
494.3999938964844
  0
LINE
  5
339
330
1F
100
AcDbEntity
  8
DESANDRE_T
370
     0
100
AcDbLine
 10
518977.5506128179
 20
4397681.077758817
 30
494.3999938964844
 11
518979.3755805507
 21
4397680.055307802
 31
494.3999938964844
  0
LINE
  5
33A
330
1F
100
AcDbEntity
  8
DESANDRE_T
370
     0
100
AcDbLine
 10
518979.3755805507
 20
4397680.055307802
 30
494.3999938964844
 11
518993.2030736604
 21
4397706.604304058
 31
482.7000122070312
  0
LINE
  5
33B
330
1F
100
AcDbEntity
  8
DESANDRE_T
370
     0
100
AcDbLine
 10
518993.2030736604
 20
4397706.604304058
 30
482.7000122070312
 11
518991.4103226945
 21
4397707.991401657
 31
482.7000122070312
  0
LINE
  5
33C
330
1F
100
AcDbEntity
  8
DESANDRE_T
370
     0
100
AcDbLine
 10
518991.4103226945
 20
4397707.991401657
 30
482.7000122070312
 11
518992.3282354553
 21
4397709.177755804
 31
482.7000122070312
  0
LINE
  5
33D
330
1F
100
AcDbEntity
  8
DESANDRE_T
370
     0
100
AcDbLine
 10
518992.3282354553
 20
4397709.177755804
 30
482.7000122070312
 11
518993.9080512683
 21
4397707.955411619
 31
482.7000122070312
  0
LINE
  5
33E
330
1F
100
AcDbEntity
  8
DESANDRE_T
370
     0
100
AcDbLine
 10
518993.9080512683
 20
4397707.955411619
 30
482.7000122070312
 11
519013.889
 21
4397746.345
 31
463.1000061035156
  0
LINE
  5
33F
330
1F
100
AcDbEntity
  8
DESANDRE_T
370
     0
100
AcDbLine
 10
518965.589
 20
4397650.58
 30
506.6000061035156
 11
519016.574
 21
4397745.526
 31
463.1000061035156
  0
POINT
  5
377
330
1F
100
AcDbEntity
  8
INIT_COORD
 62
     7
100
AcDbPoint
 10
518609.0205529193
 20
4397594.794720521
 30
503.0
  0
VIEWPORT
  5
343
330
1B
100
AcDbEntity
 67
     1
  8
0
100
AcDbViewport
 10
498192.2639968675
 20
4224461.016131556
 30
0.0
 40
496.2944999999017
 41
247.2000636057928
 68
     1
 69
     1
 12
498192.2639968675
 22
4224461.016131556
 13
0.0
 23
0.0
 14
0.5
 24
0.5
 15
0.5
 25
0.5
 16
0.0
 26
0.0
 36
1.0
 17
0.0
 27
0.0
 37
0.0
 42
50.0
 43
0.0
 44
0.0
 45
247.2000636057928
 50
0.0
 51
0.0
 72
  1000
 90
    32800
  1

281
     0
 71
     1
 74
     0
110
0.0
120
0.0
130
0.0
111
1.0
121
0.0
131
0.0
112
0.0
122
1.0
132
0.0
 79
     0
146
0.0
170
     0
 61
     5
348
2F
292
     1
282
     1
141
0.0
142
0.0
 63
   256
  0
ENDSEC
  0
SECTION
  2
OBJECTS
  0
DICTIONARY
  5
C
330
0
100
AcDbDictionary
281
     1
  3
ACAD_DETAILVIEWSTYLE
350
37F
  3
ACAD_GROUP
350
D
  3
ACAD_IMAGE_VARS
350
372
  3
ACAD_LAYOUT
350
1A
  3
ACAD_MATERIAL
350
3B
  3
ACAD_MLEADERSTYLE
350
168
  3
ACAD_MLINESTYLE
350
17
  3
ACAD_PLOTSETTINGS
350
19
  3
ACAD_PLOTSTYLENAME
350
E
  3
ACAD_SCALELIST
350
345
  3
ACAD_SECTIONVIEWSTYLE
350
380
  3
ACAD_TABLESTYLE
350
177
  3
ACAD_VISUALSTYLE
350
2A
  3
ACDB_RECOMPOSE_DATA
350
37C
  3
AcDbVariableDictionary
350
378
  3
APPDATA
350
371
  0
SUN
  5
3F
330
29
100
AcDbSun
 90
        1
290
     0
 63
     7
421
 16777215
 40
1.0
291
     1
 91
  2455826
 92
 54000000
292
     0
 70
     2
 71
   256
280
     1
  0
DICTIONARY
  5
373
330
2
100
AcDbDictionary
280
     1
281
     1
  3
ACAD_LAYERSTATES
360
374
  0
DICTIONARY
  5
16B
330
1F
100
AcDbDictionary
280
     1
281
     1
  3
ACAD_GEOGRAPHICDATA
360
16C
  0
DICTIONARY
  5
37F
102
{ACAD_REACTORS
330
C
102
}
330
C
100
AcDbDictionary
281
     1
  0
DICTIONARY
  5
D
102
{ACAD_REACTORS
330
C
102
}
330
C
100
AcDbDictionary
281
     1
  0
RASTERVARIABLES
  5
372
102
{ACAD_REACTORS
330
C
102
}
330
C
100
AcDbRasterVariables
 90
        0
 70
     1
 71
     1
 72
     1
  0
DICTIONARY
  5
1A
102
{ACAD_REACTORS
330
C
102
}
330
C
100
AcDbDictionary
281
     1
  3
Layout1
350
1E
  3
Layout2
350
152
  3
Model
350
22
  0
DICTIONARY
  5
3B
102
{ACAD_REACTORS
330
C
102
}
330
C
100
AcDbDictionary
281
     1
  3
ByBlock
350
3D
  3
ByLayer
350
3C
  3
Global
350
3E
  0
DICTIONARY
  5
168
102
{ACAD_REACTORS
330
C
102
}
330
C
100
AcDbDictionary
281
     1
  3
Standard
350
169
  0
DICTIONARY
  5
17
102
{ACAD_REACTORS
330
C
102
}
330
C
100
AcDbDictionary
281
     1
  3
Standard
350
18
  0
DICTIONARY
  5
19
102
{ACAD_REACTORS
330
C
102
}
330
C
100
AcDbDictionary
281
     1
  0
ACDBDICTIONARYWDFLT
  5
E
102
{ACAD_REACTORS
330
C
102
}
330
C
100
AcDbDictionary
281
     1
  3
Normal
350
F
100
AcDbDictionaryWithDefault
340
F
  0
DICTIONARY
  5
345
102
{ACAD_REACTORS
330
C
102
}
330
C
100
AcDbDictionary
281
     1
  3
A0
350
346
  3
A1
350
347
  3
A2
350
348
  3
A3
350
349
  3
A4
350
34A
  3
A5
350
34B
  3
A6
350
34C
  3
A7
350
34D
  3
A8
350
34E
  3
A9
350
34F
  3
B0
350
350
  3
B1
350
351
  3
B2
350
352
  3
B3
350
353
  3
B4
350
354
  3
B5
350
355
  3
B6
350
356
  3
B7
350
357
  3
B8
350
358
  3
B9
350
359
  3
C0
350
35A
  3
C1
350
35B
  3
C2
350
35C
  3
C3
350
35D
  3
C4
350
35E
  3
C5
350
35F
  3
C6
350
360
  3
C7
350
361
  3
C8
350
362
  3
C9
350
363
  3
D0
350
364
  3
D1
350
365
  3
D2
350
366
  0
DICTIONARY
  5
380
102
{ACAD_REACTORS
330
C
102
}
330
C
100
AcDbDictionary
281
     1
  0
DICTIONARY
  5
177
102
{ACAD_REACTORS
330
C
102
}
330
C
100
AcDbDictionary
281
     1
  3
Standard
350
178
  0
DICTIONARY
  5
2A
102
{ACAD_REACTORS
330
C
102
}
330
C
100
AcDbDictionary
281
     1
  3
2dWireframe
350
2F
  3
3D Hidden
350
31
  3
3dWireframe
350
30
  3
Basic
350
32
  3
Brighten
350
36
  3
ColorChange
350
3A
  3
Conceptual
350
34
  3
Dim
350
35
  3
EdgeColorOff
350
36B
  3
Facepattern
350
39
  3
Flat
350
2B
  3
FlatWithEdges
350
2C
  3
Gouraud
350
2D
  3
GouraudWithEdges
350
2E
  3
Hidden
350
368
  3
JitterOff
350
369
  3
Linepattern
350
38
  3
OverhangOff
350
36A
  3
Realistic
350
33
  3
Shaded
350
370
  3
Shaded with edges
350
36F
  3
Shades of Gray
350
36C
  3
Sketchy
350
36D
  3
Thicken
350
37
  3
Wireframe
350
367
  3
X-Ray
350
36E
  0
XRECORD
  5
37C
102
{ACAD_REACTORS
330
C
102
}
330
C
100
AcDbXrecord
280
     1
 90
        1
330
178
  0
DICTIONARY
  5
378
102
{ACAD_REACTORS
330
C
102
}
330
C
100
AcDbDictionary
281
     1
  3
CANNOSCALE
350
379
  3
CMLEADERSTYLE
350
37E
  3
CTABLESTYLE
350
37D
  0
DICTIONARY
  5
371
102
{ACAD_REACTORS
330
C
102
}
330
C
100
AcDbDictionary
281
     1
  0
DICTIONARY
  5
374
102
{ACAD_REACTORS
330
373
102
}
330
373
100
AcDbDictionary
281
     1
  0
GEODATA
  5
16C
102
{ACAD_REACTORS
330
16B
102
}
330
16B
100
AcDbGeoData
 90
        3
330
1F
 70
     1
 10
0.0
 20
0.0
 30
0.0
 11
-122.394
 21
37.795
 31
0.0
 40
1.0
 91
        6
 41
1.0
 92
        6
210
0.0
220
0.0
230
1.0
 12
0.0
 22
1.0
 95
        3
141
1.0
294
     0
142
0.0
143
0.0
301

302
<georss:point>37.7950 -122.3940</georss:point>
305

306

307

 93
        0
 96
        0
  0
LAYOUT
  5
1E
102
{ACAD_REACTORS
330
1A
102
}
330
1A
100
AcDbPlotSettings
  1

  2
TCAD_Plot
  4
420.00 x 297.00 Inches
  6

 40
0.0
 41
0.0
 42
0.0
 43
0.0
 44
10668.0
 45
7543.799999999999
 46
0.0
 47
0.0
 48
0.0
 49
0.0
140
0.0
141
0.0
142
1.0
143
1.0
 70
   672
 72
     0
 73
     0
 74
     5
  7

 75
    16
 76
     0
 77
     2
 78
   300
147
1.0
148
0.0
149
0.0
100
AcDbLayout
  1
Layout1
 70
     1
 71
     1
 10
0.0
 20
0.0
 11
420.0
 21
297.0
 12
0.0
 22
0.0
 32
0.0
 14
0.0
 24
0.0
 34
0.0
 15
420.0
 25
297.0
 35
0.0
146
0.0
 13
0.0
 23
0.0
 33
0.0
 16
1.0
 26
0.0
 36
0.0
 17
0.0
 27
1.0
 37
0.0
 76
     0
330
1B
331
343
  0
LAYOUT
  5
152
102
{ACAD_REACTORS
330
1A
102
}
330
1A
100
AcDbPlotSettings
  1

  2
TCAD_Plot
  4
297.00 x 420.00 Inches
  6

 40
0.0
 41
0.0
 42
0.0
 43
0.0
 44
7543.799999999999
 45
10668.0
 46
0.0
 47
0.0
 48
0.0
 49
0.0
140
0.0
141
0.0
142
1.0
143
1.0
 70
   672
 72
     0
 73
     0
 74
     5
  7

 75
    16
 76
     0
 77
     2
 78
   300
147
1.0
148
0.0
149
0.0
100
AcDbLayout
  1
Layout2
 70
     1
 71
     2
 10
0.0
 20
0.0
 11
297.0
 21
420.0
 12
0.0
 22
0.0
 32
0.0
 14
0.0
 24
0.0
 34
0.0
 15
0.0
 25
0.0
 35
0.0
146
0.0
 13
0.0
 23
0.0
 33
0.0
 16
1.0
 26
0.0
 36
0.0
 17
0.0
 27
1.0
 37
0.0
 76
     0
330
151
331
344
  0
LAYOUT
  5
22
102
{ACAD_REACTORS
330
1A
102
}
330
1A
100
AcDbPlotSettings
  1

  2
TCAD_Plot
  4
496.29 x 247.20 Inches
  6

 40
0.0
 41
0.0
 42
0.0
 43
0.0
 44
12605.8802999975
 45
6278.881615587137
 46
0.0
 47
0.0
 48
-248.14724999998
 49
-123.6000318033621
140
248.1472499999218
141
123.6000318024307
142
1.0
143
1.0
 70
  1696
 72
     0
 73
     0
 74
     4
  7

 75
     0
 76
     0
 77
     2
 78
   300
147
0.5639248742292441
148
6302.940149999491
149
3139.440807805397
100
AcDbLayout
  1
Model
 70
     1
 71
     0
 10
497944.1167468675
 20
4224337.416099752
 11
498440.4112468674
 21
4224584.616163358
 12
0.0
 22
0.0
 32
0.0
 14
518527.4255
 24
4397572.262750548
 34
462.2999877929688
 15
519023.72
 25
4397815.1081
 35
510.2860107421875
146
0.0
 13
0.0
 23
0.0
 33
0.0
 16
1.0
 26
0.0
 36
0.0
 17
0.0
 27
1.0
 37
0.0
 76
     0
330
1F
331
29
  0
MATERIAL
  5
3D
102
{ACAD_REACTORS
330
3B
102
}
330
3B
100
AcDbMaterial
  1
ByBlock
 72
     1
 94
      127
  0
MATERIAL
  5
3C
102
{ACAD_REACTORS
330
3B
102
}
330
3B
100
AcDbMaterial
  1
ByLayer
 72
     1
 94
      127
  0
MATERIAL
  5
3E
102
{ACAD_REACTORS
330
3B
102
}
330
3B
100
AcDbMaterial
  1
Global
 72
     1
 94
      127
  0
MLEADERSTYLE
  5
169
102
{ACAD_REACTORS
330
168
102
}
330
168
100
AcDbMLeaderStyle
179
     2
170
     2
171
     1
172
     0
 90
        2
 40
0.0
 41
0.0
173
     1
 91
-1056964608
340
14
 92
       -2
290
     1
 42
0.25
291
     1
 43
0.25
  3

341
0
 44
0.25
300

342
11
174
     1
178
     1
175
     1
176
     0
 93
-1056964608
 45
0.1427721594289114
292
     0
297
     0
 46
0.18
343
0
 94
-1056964608
 47
1.0
 49
1.0
140
1.0
293
     1
141
0.0
294
     1
177
     0
142
1.0
295
     0
296
     0
143
0.125
271
     0
272
     9
273
     9
298
     0
  0
MLINESTYLE
  5
18
102
{ACAD_REACTORS
330
17
102
}
330
17
100
AcDbMlineStyle
  2
Standard
 70
     0
  3

 62
     0
 51
90.0
 52
90.0
 71
     2
 49
0.5
 62
   256
  6
BYLAYER
 49
-0.5
 62
   256
  6
BYLAYER
  0
ACDBPLACEHOLDER
  5
F
102
{ACAD_REACTORS
330
E
102
}
330
E
  0
SCALE
  5
346
102
{ACAD_REACTORS
330
345
102
}
330
345
100
AcDbScale
 70
     0
300
1:1
140
1.0
141
1.0
290
     1
  0
SCALE
  5
347
102
{ACAD_REACTORS
330
345
102
}
330
345
100
AcDbScale
 70
     0
300
1:2
140
1.0
141
2.0
290
     0
  0
SCALE
  5
348
102
{ACAD_REACTORS
330
345
102
}
330
345
100
AcDbScale
 70
     0
300
1:4
140
1.0
141
4.0
290
     0
  0
SCALE
  5
349
102
{ACAD_REACTORS
330
345
102
}
330
345
100
AcDbScale
 70
     0
300
1:5
140
1.0
141
5.0
290
     0
  0
SCALE
  5
34A
102
{ACAD_REACTORS
330
345
102
}
330
345
100
AcDbScale
 70
     0
300
1:8
140
1.0
141
8.0
290
     0
  0
SCALE
  5
34B
102
{ACAD_REACTORS
330
345
102
}
330
345
100
AcDbScale
 70
     0
300
1:10
140
1.0
141
10.0
290
     0
  0
SCALE
  5
34C
102
{ACAD_REACTORS
330
345
102
}
330
345
100
AcDbScale
 70
     0
300
1:16
140
1.0
141
16.0
290
     0
  0
SCALE
  5
34D
102
{ACAD_REACTORS
330
345
102
}
330
345
100
AcDbScale
 70
     0
300
1:20
140
1.0
141
20.0
290
     0
  0
SCALE
  5
34E
102
{ACAD_REACTORS
330
345
102
}
330
345
100
AcDbScale
 70
     0
300
1:30
140
1.0
141
30.0
290
     0
  0
SCALE
  5
34F
102
{ACAD_REACTORS
330
345
102
}
330
345
100
AcDbScale
 70
     0
300
1:40
140
1.0
141
40.0
290
     0
  0
SCALE
  5
350
102
{ACAD_REACTORS
330
345
102
}
330
345
100
AcDbScale
 70
     0
300
1:50
140
1.0
141
50.0
290
     0
  0
SCALE
  5
351
102
{ACAD_REACTORS
330
345
102
}
330
345
100
AcDbScale
 70
     0
300
1:100
140
1.0
141
100.0
290
     0
  0
SCALE
  5
352
102
{ACAD_REACTORS
330
345
102
}
330
345
100
AcDbScale
 70
     0
300
2:1
140
2.0
141
1.0
290
     0
  0
SCALE
  5
353
102
{ACAD_REACTORS
330
345
102
}
330
345
100
AcDbScale
 70
     0
300
4:1
140
4.0
141
1.0
290
     0
  0
SCALE
  5
354
102
{ACAD_REACTORS
330
345
102
}
330
345
100
AcDbScale
 70
     0
300
8:1
140
8.0
141
1.0
290
     0
  0
SCALE
  5
355
102
{ACAD_REACTORS
330
345
102
}
330
345
100
AcDbScale
 70
     0
300
10:1
140
10.0
141
1.0
290
     0
  0
SCALE
  5
356
102
{ACAD_REACTORS
330
345
102
}
330
345
100
AcDbScale
 70
     0
300
100:1
140
100.0
141
1.0
290
     0
  0
SCALE
  5
357
102
{ACAD_REACTORS
330
345
102
}
330
345
100
AcDbScale
 70
     0
300
1/128" = 1'-0"
140
0.0078125
141
12.0
290
     0
  0
SCALE
  5
358
102
{ACAD_REACTORS
330
345
102
}
330
345
100
AcDbScale
 70
     0
300
1/64" = 1'-0"
140
0.015625
141
12.0
290
     0
  0
SCALE
  5
359
102
{ACAD_REACTORS
330
345
102
}
330
345
100
AcDbScale
 70
     0
300
1/32" = 1'-0"
140
0.03125
141
12.0
290
     0
  0
SCALE
  5
35A
102
{ACAD_REACTORS
330
345
102
}
330
345
100
AcDbScale
 70
     0
300
1/16" = 1'-0"
140
0.0625
141
12.0
290
     0
  0
SCALE
  5
35B
102
{ACAD_REACTORS
330
345
102
}
330
345
100
AcDbScale
 70
     0
300
3/32" = 1'-0"
140
0.09375
141
12.0
290
     0
  0
SCALE
  5
35C
102
{ACAD_REACTORS
330
345
102
}
330
345
100
AcDbScale
 70
     0
300
1/8" = 1'-0"
140
0.125
141
12.0
290
     0
  0
SCALE
  5
35D
102
{ACAD_REACTORS
330
345
102
}
330
345
100
AcDbScale
 70
     0
300
3/16" = 1'-0"
140
0.1875
141
12.0
290
     0
  0
SCALE
  5
35E
102
{ACAD_REACTORS
330
345
102
}
330
345
100
AcDbScale
 70
     0
300
1/4" = 1'-0"
140
0.25
141
12.0
290
     0
  0
SCALE
  5
35F
102
{ACAD_REACTORS
330
345
102
}
330
345
100
AcDbScale
 70
     0
300
3/8" = 1'-0"
140
0.375
141
12.0
290
     0
  0
SCALE
  5
360
102
{ACAD_REACTORS
330
345
102
}
330
345
100
AcDbScale
 70
     0
300
1/2" = 1'-0"
140
0.5
141
12.0
290
     0
  0
SCALE
  5
361
102
{ACAD_REACTORS
330
345
102
}
330
345
100
AcDbScale
 70
     0
300
3/4" = 1'-0"
140
0.75
141
12.0
290
     0
  0
SCALE
  5
362
102
{ACAD_REACTORS
330
345
102
}
330
345
100
AcDbScale
 70
     0
300
1" = 1'-0"
140
1.0
141
12.0
290
     0
  0
SCALE
  5
363
102
{ACAD_REACTORS
330
345
102
}
330
345
100
AcDbScale
 70
     0
300
1-1/2" = 1'-0"
140
1.5
141
12.0
290
     0
  0
SCALE
  5
364
102
{ACAD_REACTORS
330
345
102
}
330
345
100
AcDbScale
 70
     0
300
3" = 1'-0"
140
3.0
141
12.0
290
     0
  0
SCALE
  5
365
102
{ACAD_REACTORS
330
345
102
}
330
345
100
AcDbScale
 70
     0
300
6" = 1'-0"
140
6.0
141
12.0
290
     0
  0
SCALE
  5
366
102
{ACAD_REACTORS
330
345
102
}
330
345
100
AcDbScale
 70
     0
300
1'-0" = 1'-0"
140
12.0
141
12.0
290
     0
  0
TABLESTYLE
  5
178
102
{ACAD_REACTORS
330
177
102
}
102
{ACAD_XDICTIONARY
360
37A
102
}
330
177
100
AcDbTableStyle
  3

 70
     0
 71
     0
 40
0.06
 41
0.06
280
     0
281
     0
  7
Standard
140
2.5
170
     5
 62
     0
 63
   257
283
     0
 90
        4
 91
        0
  1

274
    -2
284
     1
 64
     0
275
    -2
285
     1
 65
     0
276
    -2
286
     1
 66
     0
277
    -2
287
     1
 67
     0
278
    -2
288
     1
 68
     0
279
    -2
289
     1
 69
     0
  7
Standard
140
2.5
170
     5
 62
     0
 63
   257
283
     0
 90
        4
 91
        0
  1

274
    -2
284
     1
 64
     0
275
    -2
285
     1
 65
     0
276
    -2
286
     1
 66
     0
277
    -2
287
     1
 67
     0
278
    -2
288
     1
 68
     0
279
    -2
289
     1
 69
     0
  7
Standard
140
2.5
170
     5
 62
     0
 63
   257
283
     0
 90
        4
 91
        0
  1

274
    -2
284
     1
 64
     0
275
    -2
285
     1
 65
     0
276
    -2
286
     1
 66
     0
277
    -2
287
     1
 67
     0
278
    -2
288
     1
 68
     0
279
    -2
289
     1
 69
     0
  0
VISUALSTYLE
  5
2F
102
{ACAD_REACTORS
330
2A
102
}
330
2A
100
AcDbVisualStyle
  2
2dWireframe
 70
     4
177
     3
291
     0
 70
    58
 90
        0
176
     1
 90
        2
176
     1
 90
        0
176
     1
 90
        0
176
     1
 40
-0.6
176
     1
 40
-30.0
176
     1
 62
     7
420
 16777215
176
     1
 90
        1
176
     1
 90
        4
176
     1
 62
     7
176
     1
 62
   257
176
     1
 90
        1
176
     1
 90
        1
176
     1
 40
1.0
176
     1
 90
        0
176
     1
 62
   257
176
     1
 40
1.0
176
     1
 90
        1
176
     1
 90
        6
176
     1
 90
        2
176
     1
 62
     7
176
     1
 90
        5
176
     1
 90
        0
176
     1
 90
        0
176
     1
290
     0
176
     1
 90
        1
176
     1
 40
0.0
176
     1
 90
        0
176
     1
290
     1
176
     1
290
     1
176
     1
290
     0
176
     1
290
     0
176
     1
290
     0
176
     1
290
     0
176
     1
290
     0
176
     1
290
     0
176
     1
290
     0
176
     1
 90
       50
176
     1
 40
0.0
176
     1
 40
1.0
176
     1
 90
        0
176
     1
 62
    18
420
        0
176
     1
 90
       50
176
     1
 90
        3
176
     1
 62
     5
420
      255
176
     1
290
     0
176
     1
 90
       50
176
     1
 90
       50
176
     1
 90
       50
176
     1
290
     0
176
     1
 90
       50
176
     1
 62
   256
176
     0
 40
1.0
176
     0
 90
        2
176
     1
  1
strokes_ogs.tif
176
     1
290
     0
176
     1
 40
1.0
176
     1
 40
1.0
176
     1
  0
VISUALSTYLE
  5
31
102
{ACAD_REACTORS
330
2A
102
}
330
2A
100
AcDbVisualStyle
  2
3D Hidden
 70
     6
177
     3
291
     0
 70
    58
 90
        1
176
     1
 90
        2
176
     1
 90
        2
176
     1
 90
        0
176
     1
 40
-0.6
176
     1
 40
-30.0
176
     1
 62
     7
420
 16777215
176
     1
 90
        2
176
     1
 90
        2
176
     1
 62
     7
176
     1
 62
   257
176
     1
 90
        2
176
     1
 90
        1
176
     1
 40
40.0
176
     1
 90
        0
176
     1
 62
   257
176
     1
 40
1.0
176
     1
 90
        1
176
     1
 90
        6
176
     1
 90
        2
176
     1
 62
     7
176
     1
 90
        3
176
     1
 90
        0
176
     1
 90
        0
176
     1
290
     0
176
     1
 90
        1
176
     1
 40
0.0
176
     1
 90
        0
176
     1
290
     0
176
     1
290
     1
176
     1
290
     1
176
     1
290
     0
176
     1
290
     0
176
     1
290
     0
176
     1
290
     0
176
     1
290
     0
176
     1
290
     0
176
     1
 90
       50
176
     1
 40
0.0
176
     1
 40
1.0
176
     1
 90
        0
176
     1
 62
    18
420
        0
176
     1
 90
       50
176
     1
 90
        3
176
     1
 62
     5
420
      255
176
     1
290
     0
176
     1
 90
       50
176
     1
 90
       50
176
     1
 90
       50
176
     1
290
     0
176
     1
 90
       50
176
     1
 62
   256
176
     0
 40
1.0
176
     0
 90
        2
176
     1
  1
strokes_ogs.tif
176
     1
290
     0
176
     1
 40
1.0
176
     1
 40
1.0
176
     1
  0
VISUALSTYLE
  5
30
102
{ACAD_REACTORS
330
2A
102
}
330
2A
100
AcDbVisualStyle
  2
3dWireframe
 70
     5
177
     3
291
     0
 70
    58
 90
        0
176
     1
 90
        2
176
     1
 90
        0
176
     1
 90
        0
176
     1
 40
-0.6
176
     1
 40
-30.0
176
     1
 62
     7
420
 16777215
176
     1
 90
        1
176
     1
 90
        4
176
     1
 62
     7
176
     1
 62
   257
176
     1
 90
        1
176
     1
 90
        1
176
     1
 40
1.0
176
     1
 90
        0
176
     1
 62
   257
176
     1
 40
1.0
176
     1
 90
        1
176
     1
 90
        6
176
     1
 90
        2
176
     1
 62
     7
176
     1
 90
        5
176
     1
 90
        0
176
     1
 90
        0
176
     1
290
     0
176
     1
 90
        1
176
     1
 40
0.0
176
     1
 90
        0
176
     1
290
     0
176
     1
290
     1
176
     1
290
     1
176
     1
290
     0
176
     1
290
     0
176
     1
290
     0
176
     1
290
     0
176
     1
290
     0
176
     1
290
     0
176
     1
 90
       50
176
     1
 40
0.0
176
     1
 40
1.0
176
     1
 90
        0
176
     1
 62
    18
420
        0
176
     1
 90
       50
176
     1
 90
        3
176
     1
 62
     5
420
      255
176
     1
290
     0
176
     1
 90
       50
176
     1
 90
       50
176
     1
 90
       50
176
     1
290
     0
176
     1
 90
       50
176
     1
 62
   256
176
     0
 40
1.0
176
     0
 90
        2
176
     1
  1
strokes_ogs.tif
176
     1
290
     0
176
     1
 40
1.0
176
     1
 40
1.0
176
     1
  0
VISUALSTYLE
  5
32
102
{ACAD_REACTORS
330
2A
102
}
330
2A
100
AcDbVisualStyle
  2
Basic
 70
     7
177
     3
291
     1
 70
    58
 90
        1
176
     1
 90
        0
176
     1
 90
        1
176
     1
 90
        0
176
     1
 40
-0.6
176
     1
 40
-30.0
176
     1
 62
     7
420
 16777215
176
     1
 90
        0
176
     1
 90
        4
176
     1
 62
     7
176
     1
 62
   257
176
     1
 90
        1
176
     1
 90
        1
176
     1
 40
1.0
176
     1
 90
        8
176
     1
 62
     7
176
     1
 40
1.0
176
     1
 90
        1
176
     1
 90
        6
176
     1
 90
        2
176
     1
 62
     7
176
     1
 90
        5
176
     1
 90
        0
176
     1
 90
        0
176
     1
290
     0
176
     1
 90
        1
176
     1
 40
0.0
176
     1
 90
        0
176
     1
290
     0
176
     1
290
     1
176
     1
290
     1
176
     1
290
     0
176
     1
290
     0
176
     1
290
     0
176
     1
290
     0
176
     1
290
     0
176
     1
290
     0
176
     1
 90
       50
176
     1
 40
0.0
176
     1
 40
1.0
176
     1
 90
        0
176
     1
 62
    18
420
        0
176
     1
 90
       50
176
     1
 90
        3
176
     1
 62
     5
420
      255
176
     1
290
     0
176
     1
 90
       50
176
     1
 90
       50
176
     1
 90
       50
176
     1
290
     0
176
     1
 90
       50
176
     1
 62
   256
176
     0
 40
1.0
176
     0
 90
        2
176
     1
  1
strokes_ogs.tif
176
     1
290
     0
176
     1
 40
1.0
176
     1
 40
1.0
176
     1
  0
VISUALSTYLE
  5
36
102
{ACAD_REACTORS
330
2A
102
}
330
2A
100
AcDbVisualStyle
  2
Brighten
 70
    12
177
     3
291
     1
 70
    58
 90
        2
176
     1
 90
        2
176
     1
 90
        0
176
     1
 90
        0
176
     1
 40
-0.6
176
     1
 40
-30.0
176
     1
 62
     7
420
 16777215
176
     1
 90
        1
176
     1
 90
        4
176
     1
 62
     7
176
     1
 62
   257
176
     1
 90
        1
176
     1
 90
        1
176
     1
 40
1.0
176
     1
 90
        8
176
     1
 62
     7
176
     1
 40
1.0
176
     1
 90
        1
176
     1
 90
        6
176
     1
 90
        2
176
     1
 62
     7
176
     1
 90
        5
176
     1
 90
        0
176
     1
 90
        0
176
     1
290
     0
176
     1
 90
        1
176
     1
 40
50.0
176
     1
 90
        0
176
     1
290
     0
176
     1
290
     1
176
     1
290
     1
176
     1
290
     0
176
     1
290
     0
176
     1
290
     0
176
     1
290
     0
176
     1
290
     0
176
     1
290
     0
176
     1
 90
       50
176
     1
 40
0.0
176
     1
 40
1.0
176
     1
 90
        0
176
     1
 62
    18
420
        0
176
     1
 90
       50
176
     1
 90
        3
176
     1
 62
     5
420
      255
176
     1
290
     0
176
     1
 90
       50
176
     1
 90
       50
176
     1
 90
       50
176
     1
290
     0
176
     1
 90
       50
176
     1
 62
   256
176
     0
 40
1.0
176
     0
 90
        2
176
     1
  1
strokes_ogs.tif
176
     1
290
     0
176
     1
 40
1.0
176
     1
 40
1.0
176
     1
  0
VISUALSTYLE
  5
3A
102
{ACAD_REACTORS
330
2A
102
}
330
2A
100
AcDbVisualStyle
  2
ColorChange
 70
    16
177
     3
291
     1
 70
    58
 90
        2
176
     1
 90
        2
176
     1
 90
        3
176
     1
 90
        0
176
     1
 40
-0.6
176
     1
 40
-30.0
176
     1
 62
     8
420
  8421504
176
     1
 90
        1
176
     1
 90
        4
176
     1
 62
     7
176
     1
 62
   257
176
     1
 90
        1
176
     1
 90
        1
176
     1
 40
1.0
176
     1
 90
        8
176
     1
 62
     8
420
  8421504
176
     1
 40
1.0
176
     1
 90
        1
176
     1
 90
        6
176
     1
 90
        2
176
     1
 62
     7
176
     1
 90
        5
176
     1
 90
        0
176
     1
 90
        0
176
     1
290
     0
176
     1
 90
        1
176
     1
 40
0.0
176
     1
 90
        0
176
     1
290
     0
176
     1
290
     1
176
     1
290
     1
176
     1
290
     0
176
     1
290
     0
176
     1
290
     0
176
     1
290
     0
176
     1
290
     0
176
     1
290
     0
176
     1
 90
       50
176
     1
 40
0.0
176
     1
 40
1.0
176
     1
 90
        0
176
     1
 62
    18
420
        0
176
     1
 90
       50
176
     1
 90
        3
176
     1
 62
     5
420
      255
176
     1
290
     0
176
     1
 90
       50
176
     1
 90
       50
176
     1
 90
       50
176
     1
290
     0
176
     1
 90
       50
176
     1
 62
   256
176
     0
 40
1.0
176
     0
 90
        2
176
     1
  1
strokes_ogs.tif
176
     1
290
     0
176
     1
 40
1.0
176
     1
 40
1.0
176
     1
  0
VISUALSTYLE
  5
34
102
{ACAD_REACTORS
330
2A
102
}
330
2A
100
AcDbVisualStyle
  2
Conceptual
 70
     9
177
     3
291
     0
 70
    58
 90
        3
176
     1
 90
        2
176
     1
 90
        0
176
     1
 90
        0
176
     1
 40
-0.6
176
     1
 40
-30.0
176
     1
 62
     7
420
 16777215
176
     1
 90
        2
176
     1
 90
        2
176
     1
 62
     7
176
     1
 62
   257
176
     1
 90
        1
176
     1
 90
        1
176
     1
 40
40.0
176
     1
 90
        8
176
     1
 62
     7
176
     1
 40
1.0
176
     1
 90
        1
176
     1
 90
        6
176
     1
 90
        2
176
     1
 62
     7
176
     1
 90
        3
176
     1
 90
        0
176
     1
 90
        0
176
     1
290
     0
176
     1
 90
        1
176
     1
 40
0.0
176
     1
 90
        0
176
     1
290
     0
176
     1
290
     1
176
     1
290
     1
176
     1
290
     0
176
     1
290
     0
176
     1
290
     0
176
     1
290
     0
176
     1
290
     0
176
     1
290
     0
176
     1
 90
       50
176
     1
 40
0.0
176
     1
 40
1.0
176
     1
 90
        0
176
     1
 62
    18
420
        0
176
     1
 90
       50
176
     1
 90
        3
176
     1
 62
     5
420
      255
176
     1
290
     0
176
     1
 90
       50
176
     1
 90
       50
176
     1
 90
       50
176
     1
290
     0
176
     1
 90
       50
176
     1
 62
   256
176
     0
 40
1.0
176
     0
 90
        2
176
     1
  1
strokes_ogs.tif
176
     1
290
     0
176
     1
 40
1.0
176
     1
 40
1.0
176
     1
  0
VISUALSTYLE
  5
35
102
{ACAD_REACTORS
330
2A
102
}
330
2A
100
AcDbVisualStyle
  2
Dim
 70
    11
177
     3
291
     1
 70
    58
 90
        2
176
     1
 90
        2
176
     1
 90
        0
176
     1
 90
        0
176
     1
 40
-0.6
176
     1
 40
-30.0
176
     1
 62
     7
420
 16777215
176
     1
 90
        1
176
     1
 90
        4
176
     1
 62
     7
176
     1
 62
   257
176
     1
 90
        1
176
     1
 90
        1
176
     1
 40
1.0
176
     1
 90
        8
176
     1
 62
     7
176
     1
 40
1.0
176
     1
 90
        1
176
     1
 90
        6
176
     1
 90
        2
176
     1
 62
     7
176
     1
 90
        5
176
     1
 90
        0
176
     1
 90
        0
176
     1
290
     0
176
     1
 90
        1
176
     1
 40
-50.0
176
     1
 90
        0
176
     1
290
     0
176
     1
290
     1
176
     1
290
     1
176
     1
290
     0
176
     1
290
     0
176
     1
290
     0
176
     1
290
     0
176
     1
290
     0
176
     1
290
     0
176
     1
 90
       50
176
     1
 40
0.0
176
     1
 40
1.0
176
     1
 90
        0
176
     1
 62
    18
420
        0
176
     1
 90
       50
176
     1
 90
        3
176
     1
 62
     5
420
      255
176
     1
290
     0
176
     1
 90
       50
176
     1
 90
       50
176
     1
 90
       50
176
     1
290
     0
176
     1
 90
       50
176
     1
 62
   256
176
     0
 40
1.0
176
     0
 90
        2
176
     1
  1
strokes_ogs.tif
176
     1
290
     0
176
     1
 40
1.0
176
     1
 40
1.0
176
     1
  0
VISUALSTYLE
  5
36B
102
{ACAD_REACTORS
330
2A
102
}
330
2A
100
AcDbVisualStyle
  2
EdgeColorOff
 70
    22
177
     3
291
     1
 70
    58
 90
        2
176
     0
 90
        2
176
     0
 90
        0
176
     0
 90
        0
176
     0
 40
0.6
176
     0
 40
30.0
176
     0
 62
     7
420
 16777215
176
     0
 90
        1
176
     0
 90
        4
176
     0
 62
     7
176
     0
 62
   257
176
     0
 90
        1
176
     0
 90
        1
176
     0
 40
1.0
176
     0
 90
        8
176
     2
 62
     7
176
     0
 40
1.0
176
     0
 90
        1
176
     0
 90
        6
176
     0
 90
        2
176
     0
 62
     7
176
     0
 90
        5
176
     0
 90
        0
176
     0
 90
        0
176
     0
290
     0
176
     0
 90
        1
176
     0
 40
0.0
176
     0
 90
        0
176
     0
290
     0
176
     0
290
     1
176
     0
290
     1
176
     0
290
     0
176
     0
290
     0
176
     0
290
     0
176
     0
290
     0
176
     0
290
     0
176
     0
290
     0
176
     0
 90
       50
176
     0
 40
0.0
176
     0
 40
1.0
176
     0
 90
        0
176
     0
 62
    18
420
        0
176
     0
 90
       50
176
     0
 90
        3
176
     0
 62
     5
420
      255
176
     0
290
     0
176
     0
 90
       50
176
     0
 90
       50
176
     0
 90
       50
176
     0
290
     0
176
     0
 90
       50
176
     0
 62
   256
176
     0
 40
1.0
176
     0
 90
        2
176
     0
  1
strokes_ogs.tif
176
     0
290
     0
176
     0
 40
1.0
176
     0
 40
1.0
176
     0
  0
VISUALSTYLE
  5
39
102
{ACAD_REACTORS
330
2A
102
}
330
2A
100
AcDbVisualStyle
  2
Facepattern
 70
    15
177
     3
291
     1
 70
    58
 90
        2
176
     1
 90
        2
176
     1
 90
        0
176
     1
 90
        0
176
     1
 40
-0.6
176
     1
 40
-30.0
176
     1
 62
     7
420
 16777215
176
     1
 90
        1
176
     1
 90
        4
176
     1
 62
     7
176
     1
 62
   257
176
     1
 90
        1
176
     1
 90
        1
176
     1
 40
1.0
176
     1
 90
        8
176
     1
 62
     7
176
     1
 40
1.0
176
     1
 90
        1
176
     1
 90
        6
176
     1
 90
        2
176
     1
 62
     7
176
     1
 90
        5
176
     1
 90
        0
176
     1
 90
        0
176
     1
290
     0
176
     1
 90
        1
176
     1
 40
0.0
176
     1
 90
        0
176
     1
290
     0
176
     1
290
     1
176
     1
290
     1
176
     1
290
     0
176
     1
290
     0
176
     1
290
     0
176
     1
290
     0
176
     1
290
     0
176
     1
290
     0
176
     1
 90
       50
176
     1
 40
0.0
176
     1
 40
1.0
176
     1
 90
        0
176
     1
 62
    18
420
        0
176
     1
 90
       50
176
     1
 90
        3
176
     1
 62
     5
420
      255
176
     1
290
     0
176
     1
 90
       50
176
     1
 90
       50
176
     1
 90
       50
176
     1
290
     0
176
     1
 90
       50
176
     1
 62
   256
176
     0
 40
1.0
176
     0
 90
        2
176
     1
  1
strokes_ogs.tif
176
     1
290
     0
176
     1
 40
1.0
176
     1
 40
1.0
176
     1
  0
VISUALSTYLE
  5
2B
102
{ACAD_REACTORS
330
2A
102
}
330
2A
100
AcDbVisualStyle
  2
Flat
 70
     0
177
     3
291
     1
 70
    58
 90
        2
176
     1
 90
        1
176
     1
 90
        1
176
     1
 90
        2
176
     1
 40
-0.6
176
     1
 40
30.0
176
     1
 62
     7
420
 16777215
176
     1
 90
        0
176
     1
 90
        4
176
     1
 62
     7
176
     1
 62
   257
176
     1
 90
        1
176
     1
 90
        1
176
     1
 40
1.0
176
     1
 90
        8
176
     1
 62
     7
176
     1
 40
1.0
176
     1
 90
        1
176
     1
 90
        6
176
     1
 90
        2
176
     1
 62
     7
176
     1
 90
        5
176
     1
 90
        0
176
     1
 90
        0
176
     1
290
     0
176
     1
 90
       13
176
     1
 40
0.0
176
     1
 90
        0
176
     1
290
     0
176
     1
290
     1
176
     1
290
     1
176
     1
290
     0
176
     1
290
     0
176
     1
290
     0
176
     1
290
     0
176
     1
290
     0
176
     1
290
     0
176
     1
 90
       50
176
     1
 40
0.0
176
     1
 40
1.0
176
     1
 90
        0
176
     1
 62
    18
420
        0
176
     1
 90
       50
176
     1
 90
        3
176
     1
 62
     5
420
      255
176
     1
290
     0
176
     1
 90
       50
176
     1
 90
       50
176
     1
 90
       50
176
     1
290
     0
176
     1
 90
       50
176
     1
 62
   256
176
     0
 40
1.0
176
     0
 90
        2
176
     1
  1
strokes_ogs.tif
176
     1
290
     0
176
     1
 40
1.0
176
     1
 40
1.0
176
     1
  0
VISUALSTYLE
  5
2C
102
{ACAD_REACTORS
330
2A
102
}
330
2A
100
AcDbVisualStyle
  2
FlatWithEdges
 70
     1
177
     3
291
     1
 70
    58
 90
        2
176
     1
 90
        1
176
     1
 90
        1
176
     1
 90
        2
176
     1
 40
-0.6
176
     1
 40
30.0
176
     1
 62
     7
420
 16777215
176
     1
 90
        1
176
     1
 90
        4
176
     1
 62
     7
176
     1
 62
   257
176
     1
 90
        1
176
     1
 90
        1
176
     1
 40
1.0
176
     1
 90
        0
176
     1
 62
   257
176
     1
 40
1.0
176
     1
 90
        1
176
     1
 90
        6
176
     1
 90
        2
176
     1
 62
     7
176
     1
 90
        5
176
     1
 90
        0
176
     1
 90
        0
176
     1
290
     0
176
     1
 90
       13
176
     1
 40
0.0
176
     1
 90
        0
176
     1
290
     0
176
     1
290
     1
176
     1
290
     1
176
     1
290
     0
176
     1
290
     0
176
     1
290
     0
176
     1
290
     0
176
     1
290
     0
176
     1
290
     0
176
     1
 90
       50
176
     1
 40
0.0
176
     1
 40
1.0
176
     1
 90
        0
176
     1
 62
    18
420
        0
176
     1
 90
       50
176
     1
 90
        3
176
     1
 62
     5
420
      255
176
     1
290
     0
176
     1
 90
       50
176
     1
 90
       50
176
     1
 90
       50
176
     1
290
     0
176
     1
 90
       50
176
     1
 62
   256
176
     0
 40
1.0
176
     0
 90
        2
176
     1
  1
strokes_ogs.tif
176
     1
290
     0
176
     1
 40
1.0
176
     1
 40
1.0
176
     1
  0
VISUALSTYLE
  5
2D
102
{ACAD_REACTORS
330
2A
102
}
330
2A
100
AcDbVisualStyle
  2
Gouraud
 70
     2
177
     3
291
     1
 70
    58
 90
        2
176
     1
 90
        2
176
     1
 90
        1
176
     1
 90
        2
176
     1
 40
-0.6
176
     1
 40
30.0
176
     1
 62
     7
420
 16777215
176
     1
 90
        0
176
     1
 90
        4
176
     1
 62
     7
176
     1
 62
   257
176
     1
 90
        1
176
     1
 90
        1
176
     1
 40
1.0
176
     1
 90
        0
176
     1
 62
     7
176
     1
 40
1.0
176
     1
 90
        1
176
     1
 90
        6
176
     1
 90
        2
176
     1
 62
     7
176
     1
 90
        5
176
     1
 90
        0
176
     1
 90
        0
176
     1
290
     0
176
     1
 90
       13
176
     1
 40
0.0
176
     1
 90
        0
176
     1
290
     0
176
     1
290
     1
176
     1
290
     1
176
     1
290
     0
176
     1
290
     0
176
     1
290
     0
176
     1
290
     0
176
     1
290
     0
176
     1
290
     0
176
     1
 90
       50
176
     1
 40
0.0
176
     1
 40
1.0
176
     1
 90
        0
176
     1
 62
    18
420
        0
176
     1
 90
       50
176
     1
 90
        3
176
     1
 62
     5
420
      255
176
     1
290
     0
176
     1
 90
       50
176
     1
 90
       50
176
     1
 90
       50
176
     1
290
     0
176
     1
 90
       50
176
     1
 62
   256
176
     0
 40
1.0
176
     0
 90
        2
176
     1
  1
strokes_ogs.tif
176
     1
290
     0
176
     1
 40
1.0
176
     1
 40
1.0
176
     1
  0
VISUALSTYLE
  5
2E
102
{ACAD_REACTORS
330
2A
102
}
330
2A
100
AcDbVisualStyle
  2
GouraudWithEdges
 70
     3
177
     3
291
     1
 70
    58
 90
        2
176
     1
 90
        2
176
     1
 90
        1
176
     1
 90
        2
176
     1
 40
-0.6
176
     1
 40
30.0
176
     1
 62
     7
420
 16777215
176
     1
 90
        1
176
     1
 90
        4
176
     1
 62
     7
176
     1
 62
   257
176
     1
 90
        1
176
     1
 90
        1
176
     1
 40
1.0
176
     1
 90
        0
176
     1
 62
   257
176
     1
 40
1.0
176
     1
 90
        1
176
     1
 90
        6
176
     1
 90
        2
176
     1
 62
     7
176
     1
 90
        5
176
     1
 90
        0
176
     1
 90
        0
176
     1
290
     0
176
     1
 90
       13
176
     1
 40
0.0
176
     1
 90
        0
176
     1
290
     0
176
     1
290
     1
176
     1
290
     1
176
     1
290
     0
176
     1
290
     0
176
     1
290
     0
176
     1
290
     0
176
     1
290
     0
176
     1
290
     0
176
     1
 90
       50
176
     1
 40
0.0
176
     1
 40
1.0
176
     1
 90
        0
176
     1
 62
    18
420
        0
176
     1
 90
       50
176
     1
 90
        3
176
     1
 62
     5
420
      255
176
     1
290
     0
176
     1
 90
       50
176
     1
 90
       50
176
     1
 90
       50
176
     1
290
     0
176
     1
 90
       50
176
     1
 62
   256
176
     0
 40
1.0
176
     0
 90
        2
176
     1
  1
strokes_ogs.tif
176
     1
290
     0
176
     1
 40
1.0
176
     1
 40
1.0
176
     1
  0
VISUALSTYLE
  5
368
102
{ACAD_REACTORS
330
2A
102
}
330
2A
100
AcDbVisualStyle
  2
Hidden
 70
     6
177
     3
291
     0
 70
    58
 90
        1
176
     1
 90
        2
176
     1
 90
        2
176
     1
 90
        0
176
     1
 40
0.6
176
     1
 40
30.0
176
     1
 62
     7
420
 16777215
176
     1
 90
        2
176
     1
 90
        2
176
     1
 62
     7
176
     1
 62
   257
176
     1
 90
        2
176
     1
 90
        1
176
     1
 40
40.0
176
     1
 90
        0
176
     1
 62
   257
176
     1
 40
1.0
176
     1
 90
        1
176
     1
 90
        6
176
     1
 90
        2
176
     1
 62
     7
176
     1
 90
        3
176
     1
 90
        0
176
     1
 90
        0
176
     1
290
     0
176
     1
 90
        1
176
     1
 40
0.0
176
     1
 90
        0
176
     1
290
     0
176
     1
290
     1
176
     1
290
     1
176
     1
290
     0
176
     1
290
     0
176
     1
290
     0
176
     1
290
     0
176
     1
290
     0
176
     1
290
     0
176
     1
 90
       50
176
     1
 40
0.0
176
     1
 40
1.0
176
     1
 90
        0
176
     1
 62
    18
420
        0
176
     1
 90
       50
176
     1
 90
        3
176
     1
 62
     5
420
      255
176
     1
290
     0
176
     1
 90
       50
176
     1
 90
       50
176
     1
 90
       50
176
     1
290
     0
176
     1
 90
       50
176
     1
 62
   256
176
     0
 40
1.0
176
     0
 90
        2
176
     1
  1
strokes_ogs.tif
176
     1
290
     0
176
     1
 40
1.0
176
     1
 40
1.0
176
     1
  0
VISUALSTYLE
  5
369
102
{ACAD_REACTORS
330
2A
102
}
330
2A
100
AcDbVisualStyle
  2
JitterOff
 70
    20
177
     3
291
     1
 70
    58
 90
        2
176
     0
 90
        2
176
     0
 90
        0
176
     0
 90
        0
176
     0
 40
0.6
176
     0
 40
30.0
176
     0
 62
     7
420
 16777215
176
     0
 90
        1
176
     0
 90
        4
176
     0
 62
     7
176
     0
 62
   257
176
     0
 90
        1
176
     0
 90
        1
176
     0
 40
1.0
176
     0
 90
       10
176
     2
 62
     7
176
     0
 40
1.0
176
     0
 90
        1
176
     0
 90
        6
176
     0
 90
        2
176
     0
 62
     7
176
     0
 90
        5
176
     0
 90
        0
176
     0
 90
        0
176
     0
290
     0
176
     0
 90
        1
176
     0
 40
0.0
176
     0
 90
        0
176
     0
290
     0
176
     0
290
     1
176
     0
290
     1
176
     0
290
     0
176
     0
290
     0
176
     0
290
     0
176
     0
290
     0
176
     0
290
     0
176
     0
290
     0
176
     0
 90
       50
176
     0
 40
0.0
176
     0
 40
1.0
176
     0
 90
        0
176
     0
 62
    18
420
        0
176
     0
 90
       50
176
     0
 90
        3
176
     0
 62
     5
420
      255
176
     0
290
     0
176
     0
 90
       50
176
     0
 90
       50
176
     0
 90
       50
176
     0
290
     0
176
     0
 90
       50
176
     0
 62
   256
176
     0
 40
1.0
176
     0
 90
        2
176
     0
  1
strokes_ogs.tif
176
     0
290
     0
176
     0
 40
1.0
176
     0
 40
1.0
176
     0
  0
VISUALSTYLE
  5
38
102
{ACAD_REACTORS
330
2A
102
}
330
2A
100
AcDbVisualStyle
  2
Linepattern
 70
    14
177
     3
291
     1
 70
    58
 90
        2
176
     1
 90
        2
176
     1
 90
        0
176
     1
 90
        0
176
     1
 40
-0.6
176
     1
 40
-30.0
176
     1
 62
     7
420
 16777215
176
     1
 90
        1
176
     1
 90
        4
176
     1
 62
     7
176
     1
 62
   257
176
     1
 90
        7
176
     1
 90
        7
176
     1
 40
1.0
176
     1
 90
        8
176
     1
 62
     7
176
     1
 40
1.0
176
     1
 90
        1
176
     1
 90
        6
176
     1
 90
        2
176
     1
 62
     7
176
     1
 90
        5
176
     1
 90
        0
176
     1
 90
        0
176
     1
290
     0
176
     1
 90
        1
176
     1
 40
0.0
176
     1
 90
        0
176
     1
290
     0
176
     1
290
     1
176
     1
290
     1
176
     1
290
     0
176
     1
290
     0
176
     1
290
     0
176
     1
290
     0
176
     1
290
     0
176
     1
290
     0
176
     1
 90
       50
176
     1
 40
0.0
176
     1
 40
1.0
176
     1
 90
        0
176
     1
 62
    18
420
        0
176
     1
 90
       50
176
     1
 90
        3
176
     1
 62
     5
420
      255
176
     1
290
     0
176
     1
 90
       50
176
     1
 90
       50
176
     1
 90
       50
176
     1
290
     0
176
     1
 90
       50
176
     1
 62
   256
176
     0
 40
1.0
176
     0
 90
        2
176
     1
  1
strokes_ogs.tif
176
     1
290
     0
176
     1
 40
1.0
176
     1
 40
1.0
176
     1
  0
VISUALSTYLE
  5
36A
102
{ACAD_REACTORS
330
2A
102
}
330
2A
100
AcDbVisualStyle
  2
OverhangOff
 70
    21
177
     3
291
     1
 70
    58
 90
        2
176
     0
 90
        2
176
     0
 90
        0
176
     0
 90
        0
176
     0
 40
0.6
176
     0
 40
30.0
176
     0
 62
     7
420
 16777215
176
     0
 90
        1
176
     0
 90
        4
176
     0
 62
     7
176
     0
 62
   257
176
     0
 90
        1
176
     0
 90
        1
176
     0
 40
1.0
176
     0
 90
        9
176
     2
 62
     7
176
     0
 40
1.0
176
     0
 90
        1
176
     0
 90
        6
176
     0
 90
        2
176
     0
 62
     7
176
     0
 90
        5
176
     0
 90
        0
176
     0
 90
        0
176
     0
290
     0
176
     0
 90
        1
176
     0
 40
0.0
176
     0
 90
        0
176
     0
290
     0
176
     0
290
     1
176
     0
290
     1
176
     0
290
     0
176
     0
290
     0
176
     0
290
     0
176
     0
290
     0
176
     0
290
     0
176
     0
290
     0
176
     0
 90
       50
176
     0
 40
0.0
176
     0
 40
1.0
176
     0
 90
        0
176
     0
 62
    18
420
        0
176
     0
 90
       50
176
     0
 90
        3
176
     0
 62
     5
420
      255
176
     0
290
     0
176
     0
 90
       50
176
     0
 90
       50
176
     0
 90
       50
176
     0
290
     0
176
     0
 90
       50
176
     0
 62
   256
176
     0
 40
1.0
176
     0
 90
        2
176
     0
  1
strokes_ogs.tif
176
     0
290
     0
176
     0
 40
1.0
176
     0
 40
1.0
176
     0
  0
VISUALSTYLE
  5
33
102
{ACAD_REACTORS
330
2A
102
}
330
2A
100
AcDbVisualStyle
  2
Realistic
 70
     8
177
     3
291
     0
 70
    58
 90
        2
176
     1
 90
        2
176
     1
 90
        0
176
     1
 90
        0
176
     1
 40
-0.6
176
     1
 40
-30.0
176
     1
 62
     7
420
 16777215
176
     1
 90
        1
176
     1
 90
        0
176
     1
 62
     7
176
     1
 62
   257
176
     1
 90
        1
176
     1
 90
        1
176
     1
 40
1.0
176
     1
 90
        8
176
     1
 62
     8
420
  7895160
176
     1
 40
1.0
176
     1
 90
        1
176
     1
 90
        6
176
     1
 90
        2
176
     1
 62
     7
176
     1
 90
        5
176
     1
 90
        0
176
     1
 90
        0
176
     1
290
     0
176
     1
 90
       13
176
     1
 40
0.0
176
     1
 90
        0
176
     1
290
     0
176
     1
290
     1
176
     1
290
     1
176
     1
290
     0
176
     1
290
     0
176
     1
290
     0
176
     1
290
     0
176
     1
290
     0
176
     1
290
     0
176
     1
 90
       50
176
     1
 40
0.0
176
     1
 40
1.0
176
     1
 90
        0
176
     1
 62
    18
420
        0
176
     1
 90
       50
176
     1
 90
        3
176
     1
 62
     5
420
      255
176
     1
290
     0
176
     1
 90
       50
176
     1
 90
       50
176
     1
 90
       50
176
     1
290
     0
176
     1
 90
       50
176
     1
 62
   256
176
     0
 40
1.0
176
     0
 90
        2
176
     1
  1
strokes_ogs.tif
176
     1
290
     0
176
     1
 40
1.0
176
     1
 40
1.0
176
     1
  0
VISUALSTYLE
  5
370
102
{ACAD_REACTORS
330
2A
102
}
330
2A
100
AcDbVisualStyle
  2
Shaded
 70
    27
177
     3
291
     0
 70
    58
 90
        2
176
     1
 90
        2
176
     1
 90
        1
176
     1
 90
        2
176
     1
 40
0.6
176
     1
 40
30.0
176
     1
 62
     7
420
 16777215
176
     1
 90
        0
176
     1
 90
        4
176
     1
 62
     7
176
     1
 62
   257
176
     1
 90
        1
176
     1
 90
        1
176
     1
 40
1.0
176
     1
 90
        8
176
     1
 62
   257
176
     1
 40
1.0
176
     1
 90
        1
176
     1
 90
        6
176
     1
 90
        2
176
     1
 62
     8
420
  7895160
176
     1
 90
        3
176
     1
 90
        0
176
     1
 90
        0
176
     1
290
     0
176
     1
 90
        5
176
     1
 40
0.0
176
     1
 90
        0
176
     1
290
     0
176
     1
290
     1
176
     1
290
     1
176
     1
290
     0
176
     1
290
     0
176
     1
290
     0
176
     1
290
     0
176
     1
290
     0
176
     1
290
     0
176
     1
 90
       50
176
     1
 40
0.0
176
     1
 40
1.0
176
     1
 90
        0
176
     1
 62
    18
420
        0
176
     1
 90
       50
176
     1
 90
        3
176
     1
 62
     5
420
      255
176
     1
290
     0
176
     1
 90
       50
176
     1
 90
       50
176
     1
 90
       50
176
     1
290
     0
176
     1
 90
       50
176
     1
 62
   256
176
     0
 40
1.0
176
     0
 90
        2
176
     1
  1
strokes_ogs.tif
176
     1
290
     0
176
     1
 40
1.0
176
     1
 40
1.0
176
     1
  0
VISUALSTYLE
  5
36F
102
{ACAD_REACTORS
330
2A
102
}
330
2A
100
AcDbVisualStyle
  2
Shaded with edges
 70
    26
177
     3
291
     0
 70
    58
 90
        2
176
     1
 90
        2
176
     1
 90
        1
176
     1
 90
        2
176
     1
 40
0.6
176
     1
 40
30.0
176
     1
 62
     7
420
 16777215
176
     1
 90
        1
176
     1
 90
       10
176
     1
 62
     7
176
     1
 62
   257
176
     1
 90
        2
176
     1
 90
        1
176
     1
 40
1.0
176
     1
 90
        8
176
     1
 62
   257
176
     1
 40
1.0
176
     1
 90
        1
176
     1
 90
        6
176
     1
 90
        2
176
     1
 62
     7
176
     1
 90
        3
176
     1
 90
        0
176
     1
 90
        0
176
     1
290
     0
176
     1
 90
        5
176
     1
 40
0.0
176
     1
 90
        0
176
     1
290
     0
176
     1
290
     1
176
     1
290
     1
176
     1
290
     0
176
     1
290
     0
176
     1
290
     0
176
     1
290
     0
176
     1
290
     0
176
     1
290
     0
176
     1
 90
       50
176
     1
 40
0.0
176
     1
 40
1.0
176
     1
 90
        0
176
     1
 62
    18
420
        0
176
     1
 90
       50
176
     1
 90
        3
176
     1
 62
     5
420
      255
176
     1
290
     0
176
     1
 90
       50
176
     1
 90
       50
176
     1
 90
       50
176
     1
290
     0
176
     1
 90
       50
176
     1
 62
   256
176
     0
 40
1.0
176
     0
 90
        2
176
     1
  1
strokes_ogs.tif
176
     1
290
     0
176
     1
 40
1.0
176
     1
 40
1.0
176
     1
  0
VISUALSTYLE
  5
36C
102
{ACAD_REACTORS
330
2A
102
}
330
2A
100
AcDbVisualStyle
  2
Shades of Gray
 70
    23
177
     3
291
     0
 70
    58
 90
        2
176
     1
 90
        2
176
     1
 90
        3
176
     1
 90
        0
176
     1
 40
0.6
176
     1
 40
30.0
176
     1
 62
     7
420
 16777215
176
     1
 90
        2
176
     1
 90
        2
176
     1
 62
     7
176
     1
 62
     7
176
     1
 90
        1
176
     1
 90
        1
176
     1
 40
40.0
176
     1
 90
        8
176
     1
 62
     7
176
     1
 40
1.0
176
     1
 90
        1
176
     1
 90
        6
176
     1
 90
        2
176
     1
 62
     7
176
     1
 90
        3
176
     1
 90
        0
176
     1
 90
        0
176
     1
290
     0
176
     1
 90
        1
176
     1
 40
0.0
176
     1
 90
        0
176
     1
290
     0
176
     1
290
     1
176
     1
290
     1
176
     1
290
     0
176
     1
290
     0
176
     1
290
     0
176
     1
290
     0
176
     1
290
     0
176
     1
290
     0
176
     1
 90
       50
176
     1
 40
0.0
176
     1
 40
1.0
176
     1
 90
        0
176
     1
 62
    18
420
        0
176
     1
 90
       50
176
     1
 90
        3
176
     1
 62
     5
420
      255
176
     1
290
     0
176
     1
 90
       50
176
     1
 90
       50
176
     1
 90
       50
176
     1
290
     0
176
     1
 90
       50
176
     1
 62
   256
176
     0
 40
1.0
176
     0
 90
        2
176
     1
  1
strokes_ogs.tif
176
     1
290
     0
176
     1
 40
1.0
176
     1
 40
1.0
176
     1
  0
VISUALSTYLE
  5
36D
102
{ACAD_REACTORS
330
2A
102
}
330
2A
100
AcDbVisualStyle
  2
Sketchy
 70
    24
177
     3
291
     0
 70
    58
 90
        1
176
     1
 90
        2
176
     1
 90
        2
176
     1
 90
        0
176
     1
 40
0.6
176
     1
 40
30.0
176
     1
 62
     7
420
 16777215
176
     1
 90
        2
176
     1
 90
        2
176
     1
 62
     7
176
     1
 62
     7
176
     1
 90
        1
176
     1
 90
        1
176
     1
 40
40.0
176
     1
 90
       11
176
     1
 62
     7
176
     1
 40
1.0
176
     1
 90
        1
176
     1
 90
        6
176
     1
 90
        2
176
     1
 62
     7
176
     1
 90
        6
176
     1
 90
        0
176
     1
 90
        0
176
     1
290
     0
176
     1
 90
        1
176
     1
 40
0.0
176
     1
 90
        0
176
     1
290
     0
176
     1
290
     1
176
     1
290
     1
176
     1
290
     0
176
     1
290
     0
176
     1
290
     0
176
     1
290
     0
176
     1
290
     0
176
     1
290
     0
176
     1
 90
       50
176
     1
 40
0.0
176
     1
 40
1.0
176
     1
 90
        0
176
     1
 62
    18
420
        0
176
     1
 90
       50
176
     1
 90
        3
176
     1
 62
     5
420
      255
176
     1
290
     0
176
     1
 90
       50
176
     1
 90
       50
176
     1
 90
       50
176
     1
290
     0
176
     1
 90
       50
176
     1
 62
   256
176
     0
 40
1.0
176
     0
 90
        2
176
     1
  1
strokes_ogs.tif
176
     1
290
     0
176
     1
 40
1.0
176
     1
 40
1.0
176
     1
  0
VISUALSTYLE
  5
37
102
{ACAD_REACTORS
330
2A
102
}
330
2A
100
AcDbVisualStyle
  2
Thicken
 70
    13
177
     3
291
     1
 70
    58
 90
        2
176
     1
 90
        2
176
     1
 90
        0
176
     1
 90
        0
176
     1
 40
-0.6
176
     1
 40
-30.0
176
     1
 62
     7
420
 16777215
176
     1
 90
        1
176
     1
 90
        4
176
     1
 62
     7
176
     1
 62
   257
176
     1
 90
        1
176
     1
 90
        1
176
     1
 40
1.0
176
     1
 90
       12
176
     1
 62
     7
176
     1
 40
1.0
176
     1
 90
        1
176
     1
 90
        6
176
     1
 90
        2
176
     1
 62
     7
176
     1
 90
        5
176
     1
 90
        0
176
     1
 90
        0
176
     1
290
     0
176
     1
 90
        1
176
     1
 40
0.0
176
     1
 90
        0
176
     1
290
     0
176
     1
290
     1
176
     1
290
     1
176
     1
290
     0
176
     1
290
     0
176
     1
290
     0
176
     1
290
     0
176
     1
290
     0
176
     1
290
     0
176
     1
 90
       50
176
     1
 40
0.0
176
     1
 40
1.0
176
     1
 90
        0
176
     1
 62
    18
420
        0
176
     1
 90
       50
176
     1
 90
        3
176
     1
 62
     5
420
      255
176
     1
290
     0
176
     1
 90
       50
176
     1
 90
       50
176
     1
 90
       50
176
     1
290
     0
176
     1
 90
       50
176
     1
 62
   256
176
     0
 40
1.0
176
     0
 90
        2
176
     1
  1
strokes_ogs.tif
176
     1
290
     0
176
     1
 40
1.0
176
     1
 40
1.0
176
     1
  0
VISUALSTYLE
  5
367
102
{ACAD_REACTORS
330
2A
102
}
330
2A
100
AcDbVisualStyle
  2
Wireframe
 70
     5
177
     3
291
     0
 70
    58
 90
        0
176
     1
 90
        2
176
     1
 90
        0
176
     1
 90
        0
176
     1
 40
0.6
176
     1
 40
30.0
176
     1
 62
     7
420
 16777215
176
     1
 90
        1
176
     1
 90
        4
176
     1
 62
     7
176
     1
 62
   257
176
     1
 90
        1
176
     1
 90
        1
176
     1
 40
1.0
176
     1
 90
        0
176
     1
 62
   257
176
     1
 40
1.0
176
     1
 90
        1
176
     1
 90
        6
176
     1
 90
        2
176
     1
 62
     7
176
     1
 90
        3
176
     1
 90
        0
176
     1
 90
        0
176
     1
290
     0
176
     1
 90
        1
176
     1
 40
0.0
176
     1
 90
        0
176
     1
290
     0
176
     1
290
     1
176
     1
290
     1
176
     1
290
     0
176
     1
290
     0
176
     1
290
     0
176
     1
290
     0
176
     1
290
     0
176
     1
290
     0
176
     1
 90
       50
176
     1
 40
0.0
176
     1
 40
1.0
176
     1
 90
        0
176
     1
 62
    18
420
        0
176
     1
 90
       50
176
     1
 90
        3
176
     1
 62
     5
420
      255
176
     1
290
     0
176
     1
 90
       50
176
     1
 90
       50
176
     1
 90
       50
176
     1
290
     0
176
     1
 90
       50
176
     1
 62
   256
176
     0
 40
1.0
176
     0
 90
        2
176
     1
  1
strokes_ogs.tif
176
     1
290
     0
176
     1
 40
1.0
176
     1
 40
1.0
176
     1
  0
VISUALSTYLE
  5
36E
102
{ACAD_REACTORS
330
2A
102
}
330
2A
100
AcDbVisualStyle
  2
X-Ray
 70
    25
177
     3
291
     0
 70
    58
 90
        2
176
     1
 90
        2
176
     1
 90
        1
176
     1
 90
        1
176
     1
 40
0.5
176
     1
 40
30.0
176
     1
 62
     7
420
 16777215
176
     1
 90
        1
176
     1
 90
        0
176
     1
 62
     7
176
     1
 62
   257
176
     1
 90
        1
176
     1
 90
        1
176
     1
 40
1.0
176
     1
 90
        8
176
     1
 62
     7
176
     1
 40
1.0
176
     1
 90
        1
176
     1
 90
        6
176
     1
 90
        2
176
     1
 62
     7
176
     1
 90
        3
176
     1
 90
        0
176
     1
 90
        0
176
     1
290
     0
176
     1
 90
       13
176
     1
 40
0.0
176
     1
 90
        0
176
     1
290
     0
176
     1
290
     1
176
     1
290
     1
176
     1
290
     0
176
     1
290
     0
176
     1
290
     0
176
     1
290
     0
176
     1
290
     0
176
     1
290
     0
176
     1
 90
       50
176
     1
 40
0.0
176
     1
 40
1.0
176
     1
 90
        0
176
     1
 62
    18
420
        0
176
     1
 90
       50
176
     1
 90
        3
176
     1
 62
     5
420
      255
176
     1
290
     0
176
     1
 90
       50
176
     1
 90
       50
176
     1
 90
       50
176
     1
290
     0
176
     1
 90
       50
176
     1
 62
   256
176
     0
 40
1.0
176
     0
 90
        2
176
     1
  1
strokes_ogs.tif
176
     1
290
     0
176
     1
 40
1.0
176
     1
 40
1.0
176
     1
  0
DICTIONARYVAR
  5
379
102
{ACAD_REACTORS
330
378
102
}
330
378
100
DictionaryVariables
280
     0
  1
1:1
  0
DICTIONARYVAR
  5
37E
102
{ACAD_REACTORS
330
378
102
}
330
378
100
DictionaryVariables
280
     0
  1
Standard
  0
DICTIONARYVAR
  5
37D
102
{ACAD_REACTORS
330
378
102
}
330
378
100
DictionaryVariables
280
     0
  1
Standard
  0
DICTIONARY
  5
37A
330
178
100
AcDbDictionary
280
     1
281
     1
  3
ACAD_ROUNDTRIP_2008_TABLESTYLE_CELLSTYLEMAP
360
37B
  0
CELLSTYLEMAP
  5
37B
102
{ACAD_REACTORS
330
37A
102
}
330
37A
100
AcDbCellStyleMap
 90
        3
300
CELLSTYLE
  1
TABLEFORMAT_BEGIN
 90
        5
170
     1
 91
        0
 92
        0
 62
   257
 93
        1
300
CONTENTFORMAT
  1
CONTENTFORMAT_BEGIN
 90
        0
 91
        0
 92
        4
 93
        0
300

 40
0.0
140
1.0
 94
        5
 62
     0
340
11
144
2.5
309
CONTENTFORMAT_END
171
     0
 94
        6
 95
        1
302
GRIDFORMAT
  1
GRIDFORMAT_BEGIN
 90
        0
 91
        1
 62
     0
 92
       -2
340
0
 93
        0
 40
0.045
309
GRIDFORMAT_END
 95
        2
302
GRIDFORMAT
  1
GRIDFORMAT_BEGIN
 90
        0
 91
        1
 62
     0
 92
       -2
340
0
 93
        0
 40
0.045
309
GRIDFORMAT_END
 95
        4
302
GRIDFORMAT
  1
GRIDFORMAT_BEGIN
 90
        0
 91
        1
 62
     0
 92
       -2
340
0
 93
        0
 40
0.045
309
GRIDFORMAT_END
 95
        8
302
GRIDFORMAT
  1
GRIDFORMAT_BEGIN
 90
        0
 91
        1
 62
     0
 92
       -2
340
0
 93
        0
 40
0.045
309
GRIDFORMAT_END
 95
       16
302
GRIDFORMAT
  1
GRIDFORMAT_BEGIN
 90
        0
 91
        1
 62
     0
 92
       -2
340
0
 93
        0
 40
0.045
309
GRIDFORMAT_END
 95
       32
302
GRIDFORMAT
  1
GRIDFORMAT_BEGIN
 90
        0
 91
        1
 62
     0
 92
       -2
340
0
 93
        0
 40
0.045
309
GRIDFORMAT_END
309
TABLEFORMAT_END
  1
CELLSTYLE_BEGIN
 90
        1
 91
        1
300
_TITLE
309
CELLSTYLE_END
300
CELLSTYLE
  1
TABLEFORMAT_BEGIN
 90
        5
170
     1
 91
        0
 92
        0
 62
   257
 93
        1
300
CONTENTFORMAT
  1
CONTENTFORMAT_BEGIN
 90
        0
 91
        0
 92
        4
 93
        0
300

 40
0.0
140
1.0
 94
        5
 62
     0
340
11
144
2.5
309
CONTENTFORMAT_END
171
     0
 94
        6
 95
        1
302
GRIDFORMAT
  1
GRIDFORMAT_BEGIN
 90
        0
 91
        1
 62
     0
 92
       -2
340
0
 93
        0
 40
0.045
309
GRIDFORMAT_END
 95
        2
302
GRIDFORMAT
  1
GRIDFORMAT_BEGIN
 90
        0
 91
        1
 62
     0
 92
       -2
340
0
 93
        0
 40
0.045
309
GRIDFORMAT_END
 95
        4
302
GRIDFORMAT
  1
GRIDFORMAT_BEGIN
 90
        0
 91
        1
 62
     0
 92
       -2
340
0
 93
        0
 40
0.045
309
GRIDFORMAT_END
 95
        8
302
GRIDFORMAT
  1
GRIDFORMAT_BEGIN
 90
        0
 91
        1
 62
     0
 92
       -2
340
0
 93
        0
 40
0.045
309
GRIDFORMAT_END
 95
       16
302
GRIDFORMAT
  1
GRIDFORMAT_BEGIN
 90
        0
 91
        1
 62
     0
 92
       -2
340
0
 93
        0
 40
0.045
309
GRIDFORMAT_END
 95
       32
302
GRIDFORMAT
  1
GRIDFORMAT_BEGIN
 90
        0
 91
        1
 62
     0
 92
       -2
340
0
 93
        0
 40
0.045
309
GRIDFORMAT_END
309
TABLEFORMAT_END
  1
CELLSTYLE_BEGIN
 90
        2
 91
        1
300
_HEADER
309
CELLSTYLE_END
300
CELLSTYLE
  1
TABLEFORMAT_BEGIN
 90
        5
170
     1
 91
        0
 92
        0
 62
   257
 93
        1
300
CONTENTFORMAT
  1
CONTENTFORMAT_BEGIN
 90
        0
 91
        0
 92
        4
 93
        0
300

 40
0.0
140
1.0
 94
        5
 62
     0
340
11
144
2.5
309
CONTENTFORMAT_END
171
     0
 94
        6
 95
        1
302
GRIDFORMAT
  1
GRIDFORMAT_BEGIN
 90
        0
 91
        1
 62
     0
 92
       -2
340
0
 93
        0
 40
0.045
309
GRIDFORMAT_END
 95
        2
302
GRIDFORMAT
  1
GRIDFORMAT_BEGIN
 90
        0
 91
        1
 62
     0
 92
       -2
340
0
 93
        0
 40
0.045
309
GRIDFORMAT_END
 95
        4
302
GRIDFORMAT
  1
GRIDFORMAT_BEGIN
 90
        0
 91
        1
 62
     0
 92
       -2
340
0
 93
        0
 40
0.045
309
GRIDFORMAT_END
 95
        8
302
GRIDFORMAT
  1
GRIDFORMAT_BEGIN
 90
        0
 91
        1
 62
     0
 92
       -2
340
0
 93
        0
 40
0.045
309
GRIDFORMAT_END
 95
       16
302
GRIDFORMAT
  1
GRIDFORMAT_BEGIN
 90
        0
 91
        1
 62
     0
 92
       -2
340
0
 93
        0
 40
0.045
309
GRIDFORMAT_END
 95
       32
302
GRIDFORMAT
  1
GRIDFORMAT_BEGIN
 90
        0
 91
        1
 62
     0
 92
       -2
340
0
 93
        0
 40
0.045
309
GRIDFORMAT_END
309
TABLEFORMAT_END
  1
CELLSTYLE_BEGIN
 90
        3
 91
        2
300
_DATA
309
CELLSTYLE_END
  0
ENDSEC
  0
EOF
